<?xml version="1.0" encoding="utf-8"?>
<svg xmlns="http://www.w3.org/2000/svg" xmlns:xlink="http://www.w3.org/1999/xlink" width="600" height="400" viewBox="0 0 2400 1600">
<defs>
  <clipPath id="clip570">
    <rect x="0" y="0" width="2400" height="1600"/>
  </clipPath>
</defs>
<path clip-path="url(#clip570)" d="
M0 1600 L2400 1600 L2400 0 L0 0  Z
  " fill="#ffffff" fill-rule="evenodd" fill-opacity="1"/>
<defs>
  <clipPath id="clip571">
    <rect x="480" y="0" width="1681" height="1600"/>
  </clipPath>
</defs>
<path clip-path="url(#clip570)" d="
M163.774 1423.18 L2352.76 1423.18 L2352.76 47.2441 L163.774 47.2441  Z
  " fill="#ffffff" fill-rule="evenodd" fill-opacity="1"/>
<defs>
  <clipPath id="clip572">
    <rect x="163" y="47" width="2190" height="1377"/>
  </clipPath>
</defs>
<polyline clip-path="url(#clip572)" style="stroke:#000000; stroke-width:2; stroke-opacity:0.1; fill:none" points="
  163.774,1423.18 163.774,47.2441 
  "/>
<polyline clip-path="url(#clip572)" style="stroke:#000000; stroke-width:2; stroke-opacity:0.1; fill:none" points="
  601.57,1423.18 601.57,47.2441 
  "/>
<polyline clip-path="url(#clip572)" style="stroke:#000000; stroke-width:2; stroke-opacity:0.1; fill:none" points="
  1039.37,1423.18 1039.37,47.2441 
  "/>
<polyline clip-path="url(#clip572)" style="stroke:#000000; stroke-width:2; stroke-opacity:0.1; fill:none" points="
  1477.16,1423.18 1477.16,47.2441 
  "/>
<polyline clip-path="url(#clip572)" style="stroke:#000000; stroke-width:2; stroke-opacity:0.1; fill:none" points="
  1914.96,1423.18 1914.96,47.2441 
  "/>
<polyline clip-path="url(#clip572)" style="stroke:#000000; stroke-width:2; stroke-opacity:0.1; fill:none" points="
  2352.76,1423.18 2352.76,47.2441 
  "/>
<polyline clip-path="url(#clip570)" style="stroke:#000000; stroke-width:4; stroke-opacity:1; fill:none" points="
  163.774,1423.18 2352.76,1423.18 
  "/>
<polyline clip-path="url(#clip570)" style="stroke:#000000; stroke-width:4; stroke-opacity:1; fill:none" points="
  163.774,1423.18 163.774,1406.67 
  "/>
<polyline clip-path="url(#clip570)" style="stroke:#000000; stroke-width:4; stroke-opacity:1; fill:none" points="
  601.57,1423.18 601.57,1406.67 
  "/>
<polyline clip-path="url(#clip570)" style="stroke:#000000; stroke-width:4; stroke-opacity:1; fill:none" points="
  1039.37,1423.18 1039.37,1406.67 
  "/>
<polyline clip-path="url(#clip570)" style="stroke:#000000; stroke-width:4; stroke-opacity:1; fill:none" points="
  1477.16,1423.18 1477.16,1406.67 
  "/>
<polyline clip-path="url(#clip570)" style="stroke:#000000; stroke-width:4; stroke-opacity:1; fill:none" points="
  1914.96,1423.18 1914.96,1406.67 
  "/>
<polyline clip-path="url(#clip570)" style="stroke:#000000; stroke-width:4; stroke-opacity:1; fill:none" points="
  2352.76,1423.18 2352.76,1406.67 
  "/>
<path clip-path="url(#clip570)" d="M 0 0 M163.774 1452.37 Q160.163 1452.37 158.334 1455.94 Q156.529 1459.48 156.529 1466.61 Q156.529 1473.71 158.334 1477.28 Q160.163 1480.82 163.774 1480.82 Q167.408 1480.82 169.214 1477.28 Q171.043 1473.71 171.043 1466.61 Q171.043 1459.48 169.214 1455.94 Q167.408 1452.37 163.774 1452.37 M163.774 1448.67 Q169.584 1448.67 172.64 1453.27 Q175.719 1457.86 175.719 1466.61 Q175.719 1475.33 172.64 1479.94 Q169.584 1484.52 163.774 1484.52 Q157.964 1484.52 154.885 1479.94 Q151.83 1475.33 151.83 1466.61 Q151.83 1457.86 154.885 1453.27 Q157.964 1448.67 163.774 1448.67 Z" fill="#000000" fill-rule="evenodd" fill-opacity="1" /><path clip-path="url(#clip570)" d="M 0 0 M582.716 1479.92 L599.036 1479.92 L599.036 1483.85 L577.091 1483.85 L577.091 1479.92 Q579.753 1477.16 584.337 1472.53 Q588.943 1467.88 590.124 1466.54 Q592.369 1464.01 593.249 1462.28 Q594.152 1460.52 594.152 1458.83 Q594.152 1456.07 592.207 1454.34 Q590.286 1452.6 587.184 1452.6 Q584.985 1452.6 582.531 1453.37 Q580.101 1454.13 577.323 1455.68 L577.323 1450.96 Q580.147 1449.82 582.601 1449.25 Q585.054 1448.67 587.091 1448.67 Q592.462 1448.67 595.656 1451.35 Q598.851 1454.04 598.851 1458.53 Q598.851 1460.66 598.04 1462.58 Q597.253 1464.48 595.147 1467.07 Q594.568 1467.74 591.466 1470.96 Q588.365 1474.15 582.716 1479.92 Z" fill="#000000" fill-rule="evenodd" fill-opacity="1" /><path clip-path="url(#clip570)" d="M 0 0 M614.105 1452.37 Q610.494 1452.37 608.665 1455.94 Q606.86 1459.48 606.86 1466.61 Q606.86 1473.71 608.665 1477.28 Q610.494 1480.82 614.105 1480.82 Q617.739 1480.82 619.545 1477.28 Q621.374 1473.71 621.374 1466.61 Q621.374 1459.48 619.545 1455.94 Q617.739 1452.37 614.105 1452.37 M614.105 1448.67 Q619.915 1448.67 622.971 1453.27 Q626.05 1457.86 626.05 1466.61 Q626.05 1475.33 622.971 1479.94 Q619.915 1484.52 614.105 1484.52 Q608.295 1484.52 605.216 1479.94 Q602.161 1475.33 602.161 1466.61 Q602.161 1457.86 605.216 1453.27 Q608.295 1448.67 614.105 1448.67 Z" fill="#000000" fill-rule="evenodd" fill-opacity="1" /><path clip-path="url(#clip570)" d="M 0 0 M1028.87 1453.37 L1017.06 1471.81 L1028.87 1471.81 L1028.87 1453.37 M1027.64 1449.29 L1033.52 1449.29 L1033.52 1471.81 L1038.45 1471.81 L1038.45 1475.7 L1033.52 1475.7 L1033.52 1483.85 L1028.87 1483.85 L1028.87 1475.7 L1013.27 1475.7 L1013.27 1471.19 L1027.64 1449.29 Z" fill="#000000" fill-rule="evenodd" fill-opacity="1" /><path clip-path="url(#clip570)" d="M 0 0 M1053.52 1452.37 Q1049.91 1452.37 1048.08 1455.94 Q1046.28 1459.48 1046.28 1466.61 Q1046.28 1473.71 1048.08 1477.28 Q1049.91 1480.82 1053.52 1480.82 Q1057.16 1480.82 1058.96 1477.28 Q1060.79 1473.71 1060.79 1466.61 Q1060.79 1459.48 1058.96 1455.94 Q1057.16 1452.37 1053.52 1452.37 M1053.52 1448.67 Q1059.33 1448.67 1062.39 1453.27 Q1065.47 1457.86 1065.47 1466.61 Q1065.47 1475.33 1062.39 1479.94 Q1059.33 1484.52 1053.52 1484.52 Q1047.71 1484.52 1044.63 1479.94 Q1041.58 1475.33 1041.58 1466.61 Q1041.58 1457.86 1044.63 1453.27 Q1047.71 1448.67 1053.52 1448.67 Z" fill="#000000" fill-rule="evenodd" fill-opacity="1" /><path clip-path="url(#clip570)" d="M 0 0 M1464.06 1464.71 Q1460.91 1464.71 1459.06 1466.86 Q1457.23 1469.01 1457.23 1472.76 Q1457.23 1476.49 1459.06 1478.67 Q1460.91 1480.82 1464.06 1480.82 Q1467.21 1480.82 1469.04 1478.67 Q1470.89 1476.49 1470.89 1472.76 Q1470.89 1469.01 1469.04 1466.86 Q1467.21 1464.71 1464.06 1464.71 M1473.34 1450.06 L1473.34 1454.31 Q1471.58 1453.48 1469.78 1453.04 Q1468 1452.6 1466.24 1452.6 Q1461.61 1452.6 1459.15 1455.73 Q1456.72 1458.85 1456.38 1465.17 Q1457.74 1463.16 1459.8 1462.09 Q1461.86 1461 1464.34 1461 Q1469.55 1461 1472.56 1464.18 Q1475.59 1467.32 1475.59 1472.76 Q1475.59 1478.09 1472.44 1481.31 Q1469.29 1484.52 1464.06 1484.52 Q1458.07 1484.52 1454.89 1479.94 Q1451.72 1475.33 1451.72 1466.61 Q1451.72 1458.41 1455.61 1453.55 Q1459.5 1448.67 1466.05 1448.67 Q1467.81 1448.67 1469.59 1449.01 Q1471.4 1449.36 1473.34 1450.06 Z" fill="#000000" fill-rule="evenodd" fill-opacity="1" /><path clip-path="url(#clip570)" d="M 0 0 M1490.66 1452.37 Q1487.05 1452.37 1485.22 1455.94 Q1483.41 1459.48 1483.41 1466.61 Q1483.41 1473.71 1485.22 1477.28 Q1487.05 1480.82 1490.66 1480.82 Q1494.29 1480.82 1496.1 1477.28 Q1497.93 1473.71 1497.93 1466.61 Q1497.93 1459.48 1496.1 1455.94 Q1494.29 1452.37 1490.66 1452.37 M1490.66 1448.67 Q1496.47 1448.67 1499.52 1453.27 Q1502.6 1457.86 1502.6 1466.61 Q1502.6 1475.33 1499.52 1479.94 Q1496.47 1484.52 1490.66 1484.52 Q1484.85 1484.52 1481.77 1479.94 Q1478.71 1475.33 1478.71 1466.61 Q1478.71 1457.86 1481.77 1453.27 Q1484.85 1448.67 1490.66 1448.67 Z" fill="#000000" fill-rule="evenodd" fill-opacity="1" /><path clip-path="url(#clip570)" d="M 0 0 M1901.45 1467.44 Q1898.12 1467.44 1896.2 1469.22 Q1894.3 1471 1894.3 1474.13 Q1894.3 1477.25 1896.2 1479.04 Q1898.12 1480.82 1901.45 1480.82 Q1904.79 1480.82 1906.71 1479.04 Q1908.63 1477.23 1908.63 1474.13 Q1908.63 1471 1906.71 1469.22 Q1904.81 1467.44 1901.45 1467.44 M1896.78 1465.45 Q1893.77 1464.71 1892.08 1462.65 Q1890.41 1460.59 1890.41 1457.63 Q1890.41 1453.48 1893.35 1451.07 Q1896.31 1448.67 1901.45 1448.67 Q1906.61 1448.67 1909.55 1451.07 Q1912.49 1453.48 1912.49 1457.63 Q1912.49 1460.59 1910.8 1462.65 Q1909.14 1464.71 1906.15 1465.45 Q1909.53 1466.24 1911.41 1468.53 Q1913.3 1470.82 1913.3 1474.13 Q1913.3 1479.15 1910.23 1481.84 Q1907.17 1484.52 1901.45 1484.52 Q1895.74 1484.52 1892.66 1481.84 Q1889.6 1479.15 1889.6 1474.13 Q1889.6 1470.82 1891.5 1468.53 Q1893.4 1466.24 1896.78 1465.45 M1895.06 1458.06 Q1895.06 1460.75 1896.73 1462.25 Q1898.42 1463.76 1901.45 1463.76 Q1904.46 1463.76 1906.15 1462.25 Q1907.86 1460.75 1907.86 1458.06 Q1907.86 1455.38 1906.15 1453.88 Q1904.46 1452.37 1901.45 1452.37 Q1898.42 1452.37 1896.73 1453.88 Q1895.06 1455.38 1895.06 1458.06 Z" fill="#000000" fill-rule="evenodd" fill-opacity="1" /><path clip-path="url(#clip570)" d="M 0 0 M1928.37 1452.37 Q1924.76 1452.37 1922.93 1455.94 Q1921.13 1459.48 1921.13 1466.61 Q1921.13 1473.71 1922.93 1477.28 Q1924.76 1480.82 1928.37 1480.82 Q1932.01 1480.82 1933.81 1477.28 Q1935.64 1473.71 1935.64 1466.61 Q1935.64 1459.48 1933.81 1455.94 Q1932.01 1452.37 1928.37 1452.37 M1928.37 1448.67 Q1934.18 1448.67 1937.24 1453.27 Q1940.32 1457.86 1940.32 1466.61 Q1940.32 1475.33 1937.24 1479.94 Q1934.18 1484.52 1928.37 1484.52 Q1922.56 1484.52 1919.48 1479.94 Q1916.43 1475.33 1916.43 1466.61 Q1916.43 1457.86 1919.48 1453.27 Q1922.56 1448.67 1928.37 1448.67 Z" fill="#000000" fill-rule="evenodd" fill-opacity="1" /><path clip-path="url(#clip570)" d="M 0 0 M2316.12 1479.92 L2323.76 1479.92 L2323.76 1453.55 L2315.45 1455.22 L2315.45 1450.96 L2323.72 1449.29 L2328.39 1449.29 L2328.39 1479.92 L2336.03 1479.92 L2336.03 1483.85 L2316.12 1483.85 L2316.12 1479.92 Z" fill="#000000" fill-rule="evenodd" fill-opacity="1" /><path clip-path="url(#clip570)" d="M 0 0 M2351.1 1452.37 Q2347.49 1452.37 2345.66 1455.94 Q2343.86 1459.48 2343.86 1466.61 Q2343.86 1473.71 2345.66 1477.28 Q2347.49 1480.82 2351.1 1480.82 Q2354.74 1480.82 2356.54 1477.28 Q2358.37 1473.71 2358.37 1466.61 Q2358.37 1459.48 2356.54 1455.94 Q2354.74 1452.37 2351.1 1452.37 M2351.1 1448.67 Q2356.91 1448.67 2359.97 1453.27 Q2363.05 1457.86 2363.05 1466.61 Q2363.05 1475.33 2359.97 1479.94 Q2356.91 1484.52 2351.1 1484.52 Q2345.29 1484.52 2342.21 1479.94 Q2339.16 1475.33 2339.16 1466.61 Q2339.16 1457.86 2342.21 1453.27 Q2345.29 1448.67 2351.1 1448.67 Z" fill="#000000" fill-rule="evenodd" fill-opacity="1" /><path clip-path="url(#clip570)" d="M 0 0 M2378.11 1452.37 Q2374.5 1452.37 2372.67 1455.94 Q2370.87 1459.48 2370.87 1466.61 Q2370.87 1473.71 2372.67 1477.28 Q2374.5 1480.82 2378.11 1480.82 Q2381.75 1480.82 2383.55 1477.28 Q2385.38 1473.71 2385.38 1466.61 Q2385.38 1459.48 2383.55 1455.94 Q2381.75 1452.37 2378.11 1452.37 M2378.11 1448.67 Q2383.92 1448.67 2386.98 1453.27 Q2390.06 1457.86 2390.06 1466.61 Q2390.06 1475.33 2386.98 1479.94 Q2383.92 1484.52 2378.11 1484.52 Q2372.3 1484.52 2369.23 1479.94 Q2366.17 1475.33 2366.17 1466.61 Q2366.17 1457.86 2369.23 1453.27 Q2372.3 1448.67 2378.11 1448.67 Z" fill="#000000" fill-rule="evenodd" fill-opacity="1" /><path clip-path="url(#clip570)" d="M 0 0 M1257.33 1522.27 L1257.33 1532.4 L1269.39 1532.4 L1269.39 1536.95 L1257.33 1536.95 L1257.33 1556.3 Q1257.33 1560.66 1258.5 1561.9 Q1259.71 1563.14 1263.37 1563.14 L1269.39 1563.14 L1269.39 1568.04 L1263.37 1568.04 Q1256.59 1568.04 1254.02 1565.53 Q1251.44 1562.98 1251.44 1556.3 L1251.44 1536.95 L1247.14 1536.95 L1247.14 1532.4 L1251.44 1532.4 L1251.44 1522.27 L1257.33 1522.27 Z" fill="#000000" fill-rule="evenodd" fill-opacity="1" /><polyline clip-path="url(#clip572)" style="stroke:#000000; stroke-width:2; stroke-opacity:0.1; fill:none" points="
  163.774,1388.21 2352.76,1388.21 
  "/>
<polyline clip-path="url(#clip572)" style="stroke:#000000; stroke-width:2; stroke-opacity:0.1; fill:none" points="
  163.774,990.658 2352.76,990.658 
  "/>
<polyline clip-path="url(#clip572)" style="stroke:#000000; stroke-width:2; stroke-opacity:0.1; fill:none" points="
  163.774,593.102 2352.76,593.102 
  "/>
<polyline clip-path="url(#clip572)" style="stroke:#000000; stroke-width:2; stroke-opacity:0.1; fill:none" points="
  163.774,195.546 2352.76,195.546 
  "/>
<polyline clip-path="url(#clip570)" style="stroke:#000000; stroke-width:4; stroke-opacity:1; fill:none" points="
  163.774,1423.18 163.774,47.2441 
  "/>
<polyline clip-path="url(#clip570)" style="stroke:#000000; stroke-width:4; stroke-opacity:1; fill:none" points="
  163.774,1388.21 190.042,1388.21 
  "/>
<polyline clip-path="url(#clip570)" style="stroke:#000000; stroke-width:4; stroke-opacity:1; fill:none" points="
  163.774,990.658 190.042,990.658 
  "/>
<polyline clip-path="url(#clip570)" style="stroke:#000000; stroke-width:4; stroke-opacity:1; fill:none" points="
  163.774,593.102 190.042,593.102 
  "/>
<polyline clip-path="url(#clip570)" style="stroke:#000000; stroke-width:4; stroke-opacity:1; fill:none" points="
  163.774,195.546 190.042,195.546 
  "/>
<path clip-path="url(#clip570)" d="M 0 0 M115.83 1374.01 Q112.219 1374.01 110.39 1377.58 Q108.584 1381.12 108.584 1388.25 Q108.584 1395.35 110.39 1398.92 Q112.219 1402.46 115.83 1402.46 Q119.464 1402.46 121.27 1398.92 Q123.098 1395.35 123.098 1388.25 Q123.098 1381.12 121.27 1377.58 Q119.464 1374.01 115.83 1374.01 M115.83 1370.31 Q121.64 1370.31 124.695 1374.92 Q127.774 1379.5 127.774 1388.25 Q127.774 1396.98 124.695 1401.58 Q121.64 1406.17 115.83 1406.17 Q110.02 1406.17 106.941 1401.58 Q103.885 1396.98 103.885 1388.25 Q103.885 1379.5 106.941 1374.92 Q110.02 1370.31 115.83 1370.31 Z" fill="#000000" fill-rule="evenodd" fill-opacity="1" /><path clip-path="url(#clip570)" d="M 0 0 M53.8393 1004 L61.4782 1004 L61.4782 977.637 L53.168 979.304 L53.168 975.044 L61.4319 973.378 L66.1078 973.378 L66.1078 1004 L73.7466 1004 L73.7466 1007.94 L53.8393 1007.94 L53.8393 1004 Z" fill="#000000" fill-rule="evenodd" fill-opacity="1" /><path clip-path="url(#clip570)" d="M 0 0 M88.816 976.456 Q85.2049 976.456 83.3762 980.021 Q81.5707 983.563 81.5707 990.692 Q81.5707 997.799 83.3762 1001.36 Q85.2049 1004.91 88.816 1004.91 Q92.4502 1004.91 94.2558 1001.36 Q96.0845 997.799 96.0845 990.692 Q96.0845 983.563 94.2558 980.021 Q92.4502 976.456 88.816 976.456 M88.816 972.753 Q94.6262 972.753 97.6817 977.359 Q100.76 981.943 100.76 990.692 Q100.76 999.419 97.6817 1004.03 Q94.6262 1008.61 88.816 1008.61 Q83.0058 1008.61 79.9272 1004.03 Q76.8716 999.419 76.8716 990.692 Q76.8716 981.943 79.9272 977.359 Q83.0058 972.753 88.816 972.753 Z" fill="#000000" fill-rule="evenodd" fill-opacity="1" /><path clip-path="url(#clip570)" d="M 0 0 M115.83 976.456 Q112.219 976.456 110.39 980.021 Q108.584 983.563 108.584 990.692 Q108.584 997.799 110.39 1001.36 Q112.219 1004.91 115.83 1004.91 Q119.464 1004.91 121.27 1001.36 Q123.098 997.799 123.098 990.692 Q123.098 983.563 121.27 980.021 Q119.464 976.456 115.83 976.456 M115.83 972.753 Q121.64 972.753 124.695 977.359 Q127.774 981.943 127.774 990.692 Q127.774 999.419 124.695 1004.03 Q121.64 1008.61 115.83 1008.61 Q110.02 1008.61 106.941 1004.03 Q103.885 999.419 103.885 990.692 Q103.885 981.943 106.941 977.359 Q110.02 972.753 115.83 972.753 Z" fill="#000000" fill-rule="evenodd" fill-opacity="1" /><path clip-path="url(#clip570)" d="M 0 0 M57.4273 606.447 L73.7466 606.447 L73.7466 610.382 L51.8023 610.382 L51.8023 606.447 Q54.4643 603.692 59.0476 599.062 Q63.6541 594.41 64.8346 593.067 Q67.08 590.544 67.9596 588.808 Q68.8624 587.049 68.8624 585.359 Q68.8624 582.604 66.918 580.868 Q64.9967 579.132 61.8948 579.132 Q59.6958 579.132 57.2421 579.896 Q54.8115 580.66 52.0338 582.211 L52.0338 577.488 Q54.8578 576.354 57.3115 575.775 Q59.7652 575.197 61.8023 575.197 Q67.1726 575.197 70.367 577.882 Q73.5614 580.567 73.5614 585.058 Q73.5614 587.187 72.7513 589.109 Q71.9642 591.007 69.8578 593.599 Q69.2791 594.271 66.1772 597.488 Q63.0754 600.683 57.4273 606.447 Z" fill="#000000" fill-rule="evenodd" fill-opacity="1" /><path clip-path="url(#clip570)" d="M 0 0 M88.816 578.9 Q85.2049 578.9 83.3762 582.465 Q81.5707 586.007 81.5707 593.136 Q81.5707 600.243 83.3762 603.808 Q85.2049 607.349 88.816 607.349 Q92.4502 607.349 94.2558 603.808 Q96.0845 600.243 96.0845 593.136 Q96.0845 586.007 94.2558 582.465 Q92.4502 578.9 88.816 578.9 M88.816 575.197 Q94.6262 575.197 97.6817 579.803 Q100.76 584.386 100.76 593.136 Q100.76 601.863 97.6817 606.47 Q94.6262 611.053 88.816 611.053 Q83.0058 611.053 79.9272 606.47 Q76.8716 601.863 76.8716 593.136 Q76.8716 584.386 79.9272 579.803 Q83.0058 575.197 88.816 575.197 Z" fill="#000000" fill-rule="evenodd" fill-opacity="1" /><path clip-path="url(#clip570)" d="M 0 0 M115.83 578.9 Q112.219 578.9 110.39 582.465 Q108.584 586.007 108.584 593.136 Q108.584 600.243 110.39 603.808 Q112.219 607.349 115.83 607.349 Q119.464 607.349 121.27 603.808 Q123.098 600.243 123.098 593.136 Q123.098 586.007 121.27 582.465 Q119.464 578.9 115.83 578.9 M115.83 575.197 Q121.64 575.197 124.695 579.803 Q127.774 584.386 127.774 593.136 Q127.774 601.863 124.695 606.47 Q121.64 611.053 115.83 611.053 Q110.02 611.053 106.941 606.47 Q103.885 601.863 103.885 593.136 Q103.885 584.386 106.941 579.803 Q110.02 575.197 115.83 575.197 Z" fill="#000000" fill-rule="evenodd" fill-opacity="1" /><path clip-path="url(#clip570)" d="M 0 0 M66.617 194.192 Q69.9735 194.909 71.8485 197.178 Q73.7466 199.446 73.7466 202.779 Q73.7466 207.895 70.2281 210.696 Q66.7096 213.497 60.2282 213.497 Q58.0523 213.497 55.7375 213.057 Q53.4458 212.64 50.9921 211.784 L50.9921 207.27 Q52.9366 208.404 55.2514 208.983 Q57.5662 209.562 60.0893 209.562 Q64.4874 209.562 66.7791 207.826 Q69.0939 206.09 69.0939 202.779 Q69.0939 199.724 66.9411 198.011 Q64.8115 196.275 60.9921 196.275 L56.9643 196.275 L56.9643 192.432 L61.1773 192.432 Q64.6263 192.432 66.455 191.067 Q68.2837 189.678 68.2837 187.085 Q68.2837 184.423 66.3856 183.011 Q64.5106 181.576 60.9921 181.576 Q59.0708 181.576 56.8717 181.993 Q54.6727 182.409 52.0338 183.289 L52.0338 179.122 Q54.6958 178.381 57.0106 178.011 Q59.3486 177.641 61.4087 177.641 Q66.7328 177.641 69.8346 180.071 Q72.9365 182.479 72.9365 186.599 Q72.9365 189.469 71.2929 191.46 Q69.6494 193.428 66.617 194.192 Z" fill="#000000" fill-rule="evenodd" fill-opacity="1" /><path clip-path="url(#clip570)" d="M 0 0 M88.816 181.344 Q85.2049 181.344 83.3762 184.909 Q81.5707 188.451 81.5707 195.58 Q81.5707 202.687 83.3762 206.252 Q85.2049 209.793 88.816 209.793 Q92.4502 209.793 94.2558 206.252 Q96.0845 202.687 96.0845 195.58 Q96.0845 188.451 94.2558 184.909 Q92.4502 181.344 88.816 181.344 M88.816 177.641 Q94.6262 177.641 97.6817 182.247 Q100.76 186.83 100.76 195.58 Q100.76 204.307 97.6817 208.914 Q94.6262 213.497 88.816 213.497 Q83.0058 213.497 79.9272 208.914 Q76.8716 204.307 76.8716 195.58 Q76.8716 186.83 79.9272 182.247 Q83.0058 177.641 88.816 177.641 Z" fill="#000000" fill-rule="evenodd" fill-opacity="1" /><path clip-path="url(#clip570)" d="M 0 0 M115.83 181.344 Q112.219 181.344 110.39 184.909 Q108.584 188.451 108.584 195.58 Q108.584 202.687 110.39 206.252 Q112.219 209.793 115.83 209.793 Q119.464 209.793 121.27 206.252 Q123.098 202.687 123.098 195.58 Q123.098 188.451 121.27 184.909 Q119.464 181.344 115.83 181.344 M115.83 177.641 Q121.64 177.641 124.695 182.247 Q127.774 186.83 127.774 195.58 Q127.774 204.307 124.695 208.914 Q121.64 213.497 115.83 213.497 Q110.02 213.497 106.941 208.914 Q103.885 204.307 103.885 195.58 Q103.885 186.83 106.941 182.247 Q110.02 177.641 115.83 177.641 Z" fill="#000000" fill-rule="evenodd" fill-opacity="1" /><polyline clip-path="url(#clip572)" style="stroke:#009af9; stroke-width:8; stroke-opacity:1; fill:none" points="
  163.774,1384.24 165.963,1350.97 168.152,1326.33 170.341,1308.19 172.53,1294.59 174.719,1284.37 176.908,1276.48 179.097,1270.22 181.286,1265.87 183.475,1261.97 
  185.664,1259.11 187.853,1256.47 190.042,1254.48 192.231,1252.49 194.42,1250.92 196.609,1249.41 198.798,1247.91 200.987,1246.6 203.176,1245.3 205.365,1243.99 
  207.554,1242.7 209.743,1241.42 211.932,1240.14 214.121,1238.85 216.31,1237.49 218.499,1236.11 220.688,1234.74 222.877,1233.36 225.066,1231.89 227.255,1230.33 
  229.444,1228.76 231.633,1227.19 233.822,1225.63 236.011,1223.85 238.2,1222 240.388,1220.15 242.577,1218.3 244.766,1216.45 246.955,1214.28 249.144,1212.01 
  251.333,1209.74 253.522,1207.47 255.711,1205.19 257.9,1202.53 260.089,1199.63 262.278,1196.73 264.467,1193.83 266.656,1190.93 268.845,1187.52 271.034,1183.62 
  273.223,1179.72 275.412,1175.83 277.601,1171.93 279.79,1167.35 281.979,1161.73 284.168,1156.11 286.357,1150.49 288.546,1144.87 290.735,1138.41 292.924,1129.79 
  295.113,1121.17 297.302,1112.55 299.491,1103.93 301.68,1092.52 303.869,1079.77 306.058,1067.02 308.247,1054.23 310.436,1039.14 312.625,1024.05 314.814,1010.14 
  317.003,997.166 319.192,986.962 321.381,979.71 323.57,976.612 325.759,975.319 327.948,977.172 330.137,979.219 332.326,983.357 334.515,987.496 336.704,991.063 
  338.893,994.493 341.082,996.448 343.271,995.922 345.46,995.397 347.649,987.735 349.838,978.763 352.027,958.665 354.216,928.621 356.405,873.676 358.594,780.093 
  360.782,680.43 362.971,670.4 365.16,705.42 367.349,748.358 369.538,790.53 371.727,829.775 373.916,865.854 376.105,898.576 378.294,927.331 380.483,953.955 
  382.672,977.694 384.861,998.52 387.05,1018.06 389.239,1033.86 391.428,1049.31 393.617,1060.74 395.806,1072.12 397.995,1079.87 400.184,1087.08 402.373,1092.02 
  404.562,1094.88 406.751,1097.73 408.94,1096.29 411.129,1094.33 413.318,1091.2 415.507,1083.34 417.696,1075.48 419.885,1061.14 422.074,1045.28 424.263,1019.21 
  426.452,988.343 428.641,952.621 430.83,925.243 433.019,922.122 435.208,933.773 437.397,951.466 439.586,970.706 441.775,989.571 443.964,1006.65 446.153,1022.78 
  448.342,1036.71 450.531,1049.42 452.72,1060.78 454.909,1070.59 457.098,1079.53 459.287,1086.79 461.476,1093.3 463.665,1098.27 465.854,1102.06 468.043,1105.06 
  470.232,1105.52 472.421,1105.98 474.61,1103.34 476.799,1099.36 478.987,1094.32 481.176,1083.85 483.365,1073.01 485.554,1052.4 487.743,1024.17 489.932,978.643 
  492.121,902.026 494.31,812.944 496.499,802.18 498.688,828.296 500.877,860.145 503.066,890.749 505.255,918.536 507.444,943.683 509.633,966.594 511.822,986.851 
  514.011,1004.78 516.2,1021.44 518.389,1035.81 520.578,1048.84 522.767,1060.56 524.956,1070.27 527.145,1079.2 529.334,1085.61 531.523,1091.35 533.712,1094.48 
  535.901,1096.32 538.09,1096.34 540.279,1093.08 542.468,1089.79 544.657,1079.12 546.846,1068.06 549.035,1045.77 551.224,1012.97 553.413,952.158 555.602,824.841 
  557.791,736.641 559.98,760.733 562.169,800.177 564.358,838.209 566.547,872.573 568.736,903.5 570.925,931.311 573.114,956.635 575.303,978.561 577.492,998.564 
  579.681,1017.16 581.87,1033.13 584.059,1047.99 586.248,1061.34 588.437,1072.81 590.626,1083.44 592.815,1091.57 595.004,1099.14 597.193,1104.05 599.381,1108.1 
  601.57,1110.23 603.759,1110.14 605.948,1110.06 608.137,1104.88 610.326,1099.5 612.515,1090.58 614.704,1077.53 616.893,1058.78 619.082,1032.64 621.271,985.821 
  623.46,896.709 625.649,746.756 627.838,715.576 630.027,748.305 632.216,787.986 634.405,825.635 636.594,860.158 638.783,891.542 640.972,920.247 643.161,945.711 
  645.35,968.91 647.539,990.465 649.728,1009.79 651.917,1027.11 654.106,1043.42 656.295,1056.75 658.484,1069.18 660.673,1079.02 662.862,1087.64 665.051,1093.49 
  667.24,1098.73 669.429,1099.95 671.618,1101.17 673.807,1098.09 675.996,1093.52 678.185,1086.05 680.374,1073.29 682.563,1054.78 684.752,1027.46 686.941,976.124 
  689.13,875.217 691.319,728.688 693.508,725.057 695.697,763.103 697.886,803.537 700.075,841.037 702.264,875.189 704.453,906.13 706.642,933.754 708.831,958.43 
  711.02,981.176 713.209,1002.03 715.398,1020.28 717.587,1037.39 719.775,1052.53 721.964,1065.87 724.153,1078.02 726.342,1087.58 728.531,1096.38 730.72,1102.36 
  732.909,1107.39 735.098,1110.34 737.287,1111.11 739.476,1111.87 741.665,1107.6 743.854,1103.25 746.043,1095.52 748.232,1084.13 750.421,1068.58 752.61,1046.26 
  754.799,1009.2 756.988,945.839 759.177,819.986 761.366,714.947 763.555,730.741 765.744,768.548 767.933,807.357 770.122,843.574 772.311,876.626 774.5,906.078 
  776.689,932.974 778.878,957.748 781.067,980.373 783.256,1000.42 785.445,1019.13 787.634,1035.85 789.823,1050.44 792.012,1064.02 794.201,1074.4 796.39,1084.43 
  798.579,1090.62 800.768,1096.61 802.957,1098.95 805.146,1100.28 807.335,1099.32 809.524,1094.85 811.713,1090.32 813.902,1077.66 816.091,1063.77 818.28,1038.4 
  820.469,999.311 822.658,921.368 824.847,774.459 827.036,719.906 829.225,751.458 831.414,792.057 833.603,830.676 835.792,865.647 837.981,897.171 840.169,925.716 
  842.358,951.819 844.547,974.914 846.736,995.849 848.925,1015.37 851.114,1032.51 853.303,1048.12 855.492,1062.43 857.681,1074.26 859.87,1085.52 862.059,1093.57 
  864.248,1101.4 866.437,1105.93 868.626,1109.91 870.815,1111.57 873.004,1111.14 875.193,1110.71 877.382,1104.82 879.571,1098.81 881.76,1089.27 883.949,1075.11 
  886.138,1055.43 888.327,1025.49 890.516,974.374 892.705,878.998 894.894,738.418 897.083,720.926 899.272,754.465 901.461,793.526 903.65,830.548 905.839,864.536 
  908.028,895.519 910.217,923.923 912.406,948.927 914.595,971.978 916.784,993.43 918.973,1012.36 921.162,1029.59 923.351,1045.56 925.54,1058.63 927.729,1071.06 
  929.918,1080.15 932.107,1088.88 934.296,1093.79 936.485,1098.71 938.674,1099.43 940.863,1099.47 943.052,1096.63 945.241,1090.22 947.43,1083.51 949.619,1067.88 
  951.808,1047 953.997,1013.71 956.186,952.103 958.375,826.906 960.563,719.828 962.752,739.825 964.941,779.848 967.13,819.409 969.319,855.806 971.508,888.272 
  973.697,917.475 975.886,944.08 978.075,968.498 980.264,989.862 982.453,1009.53 984.642,1027.94 986.831,1043.57 989.02,1058.25 991.209,1070.95 993.398,1081.99 
  995.587,1091.46 997.776,1098.98 999.965,1104.81 1002.15,1109.32 1004.34,1111.05 1006.53,1112.78 1008.72,1110.38 1010.91,1107.3 1013.1,1102.16 1015.29,1092.68 
  1017.48,1082.44 1019.67,1063.16 1021.85,1037.49 1024.04,996.551 1026.23,922.278 1028.42,783.509 1030.61,714.456 1032.8,739.99 1034.99,778.924 1037.18,816.9 
  1039.37,852.087 1041.56,884.233 1043.74,913.573 1045.93,939.503 1048.12,963.404 1050.31,985.611 1052.5,1005.25 1054.69,1023.16 1056.88,1039.85 1059.07,1053.59 
  1061.26,1066.56 1063.45,1076.54 1065.63,1085.69 1067.82,1091.62 1070.01,1097.38 1072.2,1098.6 1074.39,1099.82 1076.58,1097.21 1078.77,1092.54 1080.96,1085.64 
  1083.15,1072.57 1085.34,1054.88 1087.52,1026.44 1089.71,975.802 1091.9,875.677 1094.09,731.522 1096.28,728.943 1098.47,767.022 1100.66,807.231 1102.85,844.603 
  1105.04,878.662 1107.23,909.158 1109.41,936.22 1111.6,960.969 1113.79,983.796 1115.98,1003.79 1118.17,1022.19 1120.36,1039.33 1122.55,1053.83 1124.74,1067.51 
  1126.93,1078.81 1129.12,1088.96 1131.3,1096.86 1133.49,1103.78 1135.68,1107.86 1137.87,1111.94 1140.06,1111.95 1142.25,1111.68 1144.44,1109.32 1146.63,1103.59 
  1148.82,1097.86 1151,1085.55 1153.19,1071.95 1155.38,1048.76 1157.57,1014.21 1159.76,956.795 1161.95,842.38 1164.14,722.014 1166.33,726.87 1168.52,763.799 
  1170.71,802.68 1172.89,838.962 1175.08,872 1177.27,902.023 1179.46,929.522 1181.65,954.74 1183.84,976.956 1186.03,997.614 1188.22,1016.74 1190.41,1033.15 
  1192.6,1048.5 1194.78,1061.44 1196.97,1072.74 1199.16,1082.02 1201.35,1089.4 1203.54,1094.51 1205.73,1098.42 1207.92,1098.65 1210.11,1098.88 1212.3,1093.71 
  1214.49,1087.52 1216.67,1077.34 1218.86,1062.01 1221.05,1036.1 1223.24,995.074 1225.43,915.87 1227.62,766.654 1229.81,720.933 1232,754.616 1234.19,795.277 
  1236.38,833.547 1238.56,868.53 1240.75,900.172 1242.94,928.762 1245.13,953.871 1247.32,976.943 1249.51,998.343 1251.7,1016.9 1253.89,1034.15 1256.08,1049.91 
  1258.27,1063.36 1260.45,1076.22 1262.64,1085.9 1264.83,1095.46 1267.02,1101.56 1269.21,1107.65 1271.4,1110.36 1273.59,1112.42 1275.78,1112.65 1277.97,1110.01 
  1280.15,1107.37 1282.34,1099.18 1284.53,1089.88 1286.72,1077.75 1288.91,1058.27 1291.1,1028.51 1293.29,981.468 1295.48,892.638 1297.67,750.72 1299.86,718.408 
  1302.04,749.41 1304.23,788.308 1306.42,825.577 1308.61,859.864 1310.8,891.129 1312.99,919.779 1315.18,945.368 1317.37,968.588 1319.56,990.178 1321.75,1009.62 
  1323.93,1026.93 1326.12,1043.21 1328.31,1056.48 1330.5,1068.79 1332.69,1078.43 1334.88,1086.86 1337.07,1092.37 1339.26,1097.37 1341.45,1098.07 1343.64,1098.76 
  1345.82,1095.01 1348.01,1089.47 1350.2,1081.14 1352.39,1066.87 1354.58,1044.6 1356.77,1009.82 1358.96,947.209 1361.15,814.953 1363.34,719.503 1365.53,742.972 
  1367.71,783.517 1369.9,823.006 1372.09,858.878 1374.28,891.199 1376.47,920.336 1378.66,946.91 1380.85,970.837 1383.04,992.021 1385.23,1011.74 1387.41,1029.55 
  1389.6,1045.28 1391.79,1060.14 1393.98,1072.24 1396.17,1083.6 1398.36,1092.43 1400.55,1100.5 1402.74,1105.65 1404.93,1110.8 1407.12,1112.01 1409.3,1113.02 
  1411.49,1111.84 1413.68,1107.94 1415.87,1104.05 1418.06,1094 1420.25,1083.47 1422.44,1065.2 1424.63,1041.91 1426.82,1003.66 1429.01,932.103 1431.19,800.862 
  1433.38,716.026 1435.57,735.526 1437.76,773.489 1439.95,811.66 1442.14,847.211 1444.33,879.758 1446.52,909.244 1448.71,935.581 1450.9,959.847 1453.08,982.384 
  1455.27,1002.2 1457.46,1020.41 1459.65,1037.27 1461.84,1051.27 1464.03,1064.5 1466.22,1074.62 1468.41,1083.99 1470.6,1090.03 1472.79,1095.94 1474.97,1097.24 
  1477.16,1098.54 1479.35,1095.94 1481.54,1091.28 1483.73,1084.21 1485.92,1071.04 1488.11,1052.77 1490.3,1023.2 1492.49,970.516 1494.68,864.272 1496.86,728.042 
  1499.05,732.393 1501.24,771.158 1503.43,811.243 1505.62,848.336 1507.81,882.075 1510,912.589 1512.19,939.3 1514.38,963.721 1516.56,986.249 1518.75,1006.19 
  1520.94,1024.31 1523.13,1041.34 1525.32,1055.63 1527.51,1069.04 1529.7,1080.33 1531.89,1090.21 1534.08,1098.13 1536.27,1104.78 1538.45,1108.92 1540.64,1113.01 
  1542.83,1112.87 1545.02,1112.72 1547.21,1110.16 1549.4,1104.7 1551.59,1099.24 1553.78,1086.97 1555.97,1073.93 1558.16,1050.67 1560.34,1018.17 1562.53,963.132 
  1564.72,857.785 1566.91,727.229 1569.1,723.349 1571.29,758.944 1573.48,797.75 1575.67,834.311 1577.86,867.682 1580.05,898.013 1582.23,925.777 1584.42,951.362 
  1586.61,973.819 1588.8,994.654 1590.99,1014.15 1593.18,1030.69 1595.37,1046.11 1597.56,1059.44 1599.75,1070.72 1601.94,1080.41 1604.12,1087.62 1606.31,1093.16 
  1608.5,1096.68 1610.69,1097.37 1612.88,1097.84 1615.07,1092.23 1617.26,1086.62 1619.45,1075.23 1621.64,1060.77 1623.82,1033.59 1626.01,990.906 1628.2,904.757 
  1630.39,753.876 1632.58,724.045 1634.77,759.349 1636.96,800.036 1639.15,838.205 1641.34,873.084 1643.53,904.032 1645.71,931.757 1647.9,957.061 1650.09,980.345 
  1652.28,1000.61 1654.47,1019.37 1656.66,1036.76 1658.85,1051.6 1661.04,1065.6 1663.23,1077.26 1665.42,1087.75 1667.6,1096.1 1669.79,1103.33 1671.98,1107.97 
  1674.17,1112.57 1676.36,1113.03 1678.55,1113.48 1680.74,1111.55 1682.93,1106.97 1685.12,1102.38 1687.31,1091.3 1689.49,1079.75 1691.68,1059.38 1693.87,1032.36 
  1696.06,987.448 1698.25,905.244 1700.44,763.66 1702.63,715.601 1704.82,744.447 1707.01,783.173 1709.2,820.691 1711.38,855.434 1713.57,887.234 1715.76,915.742 
  1717.95,941.535 1720.14,965.355 1722.33,987.339 1724.52,1006.57 1726.71,1024.5 1728.9,1040.53 1731.09,1054.28 1733.27,1067.03 1735.46,1076.49 1737.65,1085.5 
  1739.84,1090.76 1742.03,1095.49 1744.22,1096.92 1746.41,1096.61 1748.6,1094.49 1750.79,1087.28 1752.97,1080.08 1755.16,1064.14 1757.35,1042.31 1759.54,1005.97 
  1761.73,937.701 1763.92,798.332 1766.11,720.129 1768.3,747.825 1770.49,788.42 1772.68,827.434 1774.86,863.274 1777.05,895.729 1779.24,924.299 1781.43,950.116 
  1783.62,973.807 1785.81,995.261 1788,1014.22 1790.19,1031.97 1792.38,1047.65 1794.57,1061.65 1796.75,1074.46 1798.94,1084.79 1801.13,1094.46 1803.32,1101.22 
  1805.51,1107.35 1807.7,1111.01 1809.89,1113.16 1812.08,1114.55 1814.27,1112.11 1816.46,1109.67 1818.64,1103.46 1820.83,1094.61 1823.02,1085.69 1825.21,1067.18 
  1827.4,1043.43 1829.59,1006.54 1831.78,940.402 1833.97,816.261 1836.16,717.716 1838.35,732.049 1840.53,768.967 1842.72,807.415 1844.91,843.272 1847.1,875.678 
  1849.29,905.135 1851.48,932.15 1853.67,957.103 1855.86,979.123 1858.05,999.418 1860.24,1018.44 1862.42,1034.48 1864.61,1049.42 1866.8,1062.15 1868.99,1072.96 
  1871.18,1081.92 1873.37,1088.72 1875.56,1093.37 1877.75,1096.62 1879.94,1096.18 1882.12,1095.75 1884.31,1089.09 1886.5,1081.64 1888.69,1069.09 1890.88,1051.32 
  1893.07,1019.12 1895.26,963.209 1897.45,846.577 1899.64,723.796 1901.83,737.057 1904.01,777.129 1906.2,817.301 1908.39,853.944 1910.58,886.866 1912.77,916.454 
  1914.96,943.377 1917.15,968.051 1919.34,989.397 1921.53,1009.24 1923.72,1027.6 1925.9,1043.39 1928.09,1058.26 1930.28,1070.98 1932.47,1082.28 1934.66,1091.85 
  1936.85,1099.75 1939.04,1105.78 1941.23,1110.75 1943.42,1112.81 1945.61,1114.87 1947.79,1113.25 1949.98,1110.72 1952.17,1106.77 1954.36,1097.82 1956.55,1088.87 
  1958.74,1073.72 1960.93,1055.05 1963.12,1022.07 1965.31,970.927 1967.5,869.291 1969.68,733.821 1971.87,721.256 1974.06,755.017 1976.25,793.577 1978.44,830.231 
  1980.63,863.91 1982.82,894.662 1985.01,922.896 1987.2,948.071 1989.38,971.009 1991.57,992.363 1993.76,1011.44 1995.95,1028.51 1998.14,1044.56 2000.33,1057.35 
  2002.52,1069.47 2004.71,1078.43 2006.9,1086.71 2009.09,1091.34 2011.27,1095.97 2013.46,1095.83 2015.65,1095.33 2017.84,1090.98 2020.03,1083.38 2022.22,1074.16 
  2024.41,1056.08 2026.6,1028.32 2028.79,982.184 2030.98,888.128 2033.16,740.072 2035.35,728.493 2037.54,765.742 2039.73,806.329 2041.92,843.913 2044.11,878.018 
  2046.3,908.765 2048.49,936.766 2050.68,961.388 2052.87,983.672 2055.05,1004.36 2057.24,1022.66 2059.43,1039.25 2061.62,1054.76 2063.81,1067.6 2066,1079.84 
  2068.19,1089.35 2070.38,1098.32 2072.57,1104.3 2074.76,1110.28 2076.94,1112.52 2079.13,1114.54 2081.32,1114.38 2083.51,1111.82 2085.7,1109.26 2087.89,1101.03 
  2090.08,1092.06 2092.27,1080.19 2094.46,1061.55 2096.65,1033.5 2098.83,990.07 2101.02,913.057 2103.21,772.81 2105.4,715.275 2107.59,741.485 2109.78,779.765 
  2111.97,817.34 2114.16,852.276 2116.35,884.318 2118.53,912.862 2120.72,938.907 2122.91,962.978 2125.1,984.986 2127.29,1004.45 2129.48,1022.62 2131.67,1038.63 
  2133.86,1052.62 2136.05,1065.28 2138.24,1074.98 2140.42,1083.85 2142.61,1089.36 2144.8,1093.87 2146.99,1095.57 2149.18,1094.9 2151.37,1093.08 2153.56,1085.15 
  2155.75,1077.23 2157.94,1060.93 2160.13,1037.83 2162.31,998.252 2164.5,923.597 2166.69,773.559 2168.88,721.971 2171.07,754.632 2173.26,795.508 2175.45,834.077 
  2177.64,869.377 2179.83,901.296 2182.02,929.511 2184.2,954.846 2186.39,978.112 2188.58,999.231 2190.77,1017.83 2192.96,1035.25 2195.15,1050.62 2197.34,1064.34 
  2199.53,1076.85 2201.72,1086.94 2203.91,1096.29 2206.09,1102.9 2208.28,1108.72 2210.47,1112.33 2212.66,1114.18 2214.85,1115.69 2217.04,1112.96 2219.23,1110.22 
  2221.42,1104.34 2223.61,1095.14 2225.79,1085.94 2227.98,1067.89 2230.17,1044.93 2232.36,1009.11 2234.55,944.296 2236.74,824.7 2238.93,718.826 2241.12,730.002 
  2243.31,766.231 2245.5,804.66 2247.68,840.459 2249.87,873.037 2252.06,902.686 2254.25,929.887 2256.44,955.017 2258.63,977.11 2260.82,997.57 2263.01,1016.69 
  2265.2,1032.84 2267.39,1047.91 2269.57,1060.66 2271.76,1071.56 2273.95,1080.51 2276.14,1087.36 2278.33,1091.95 2280.52,1095.2 2282.71,1094.6 2284.9,1094 
  2287.09,1087.02 2289.28,1079.16 2291.46,1065.89 2293.65,1047.14 2295.84,1012.81 2298.03,948.919 2300.22,819.194 2302.41,719.938 2304.6,744.173 2306.79,784.846 
  2308.98,824.39 2311.17,860.835 2313.35,893.163 2315.54,922.117 2317.73,948.46 2319.92,972.614 2322.11,993.748 2324.3,1013.13 2326.49,1031.28 2328.68,1046.66 
  2330.87,1061.13 2333.06,1073.65 2335.24,1084.58 2337.43,1093.96 2339.62,1101.51 2341.81,1107.37 2344,1112.05 2346.19,1113.96 2348.38,1115.88 2350.57,1114.7 
  2352.76,1112.83 
  "/>
<polyline clip-path="url(#clip572)" style="stroke:#e26f46; stroke-width:8; stroke-opacity:1; fill:none" points="
  163.774,1384.24 165.963,1379.91 168.152,1369.84 170.341,1355.46 172.53,1338.09 174.719,1318.52 176.908,1297.46 179.097,1275.37 181.286,1252.13 183.475,1228.65 
  185.664,1204.62 187.853,1180.49 190.042,1156.1 192.231,1131.7 194.42,1107.28 196.609,1082.86 198.798,1058.44 200.987,1034.23 203.176,1010.03 205.365,985.829 
  207.554,961.931 209.743,938.168 211.932,914.405 214.121,890.641 216.31,867.403 218.499,844.279 220.688,821.156 222.877,798.032 225.066,775.308 227.255,753.039 
  229.444,730.77 231.633,708.5 233.822,686.231 236.011,664.777 238.2,643.622 240.388,622.467 242.577,601.312 244.766,580.157 246.955,560.076 249.144,540.378 
  251.333,520.68 253.522,500.981 255.711,481.283 257.9,462.793 260.089,445.036 262.278,427.278 264.467,409.521 266.656,391.763 268.845,375.385 271.034,360.341 
  273.223,345.297 275.412,330.253 277.601,315.209 279.79,301.785 281.979,290.854 284.168,279.924 286.357,268.994 288.546,258.063 290.735,248.91 292.924,244.352 
  295.113,239.794 297.302,235.235 299.491,230.677 301.68,231.849 303.869,235.755 306.058,239.661 308.247,243.696 310.436,254.254 312.625,264.813 314.814,275.976 
  317.003,287.616 319.192,297.587 321.381,305.53 323.57,310.029 325.759,312.748 327.948,312.36 330.137,311.715 332.326,308.298 334.515,304.88 336.704,301.271 
  338.893,297.616 341.082,295.275 343.271,295.14 345.46,295.006 347.649,302.796 349.838,312.041 352.027,334.419 354.216,368.534 356.405,431.938 358.594,540.909 
  360.782,667.14 362.971,709.37 365.16,704.537 367.349,687.905 369.538,667.592 371.727,646.235 373.916,624.561 376.105,602.841 378.294,581.255 380.483,559.791 
  382.672,538.521 384.861,517.599 387.05,496.831 389.239,476.844 391.428,456.93 393.617,438.375 395.806,419.839 397.995,403.133 400.184,386.694 402.373,371.885 
  404.562,358.569 406.751,345.254 408.94,336.111 411.129,327.478 413.318,320.259 415.507,318.707 417.696,317.156 419.885,324.039 422.074,332.902 424.263,355.257 
  426.452,384.346 428.641,421.9 430.83,454.405 433.019,464.41 435.208,459.053 437.397,446.022 439.586,429.901 441.775,412.081 443.964,393.908 446.153,375.667 
  448.342,357.551 450.531,339.595 452.72,321.82 454.909,304.367 457.098,287.095 459.287,270.418 461.476,254.008 463.665,238.495 465.854,223.661 468.043,209.486 
  470.232,197.459 472.421,185.432 474.61,176.8 476.799,169.618 478.987,163.762 481.176,164.666 483.365,166.033 485.554,179.772 487.743,202.841 489.932,246.789 
  492.121,327.634 494.31,430.41 496.499,460.043 498.688,451.553 500.877,434.492 503.066,415.171 505.255,395.684 507.444,376.332 509.633,357.161 511.822,338.238 
  514.011,319.506 516.2,300.879 518.389,282.446 520.578,264.217 522.767,246.187 524.956,228.787 527.145,211.627 529.334,195.822 531.523,180.373 533.712,166.967 
  535.901,154.568 538.09,144.038 540.279,136.88 542.468,129.753 544.657,131.399 546.846,133.536 549.035,149.413 551.224,177.849 553.413,238.838 555.602,375.514 
  557.791,486.147 559.98,486.534 562.169,467.984 564.358,447.028 566.547,425.907 568.736,405.062 570.925,384.526 573.114,364.238 575.303,344.216 577.492,324.265 
  579.681,304.364 581.87,284.496 584.059,264.695 586.248,244.984 588.437,225.66 590.626,206.513 592.815,188.402 595.004,170.522 597.193,154.353 599.381,138.732 
  601.57,124.815 603.759,112.852 605.948,100.89 608.137,94.6485 610.326,88.6221 612.515,87.0446 614.704,90.6457 616.893,101.372 619.082,121.324 621.271,166.066 
  623.46,259.482 625.649,426.026 627.838,484.299 630.027,477.533 632.216,459.873 634.405,440.404 636.594,420.547 638.783,400.627 640.972,380.697 643.161,360.696 
  645.35,340.565 647.539,320.334 649.728,299.962 651.917,279.614 654.106,259.299 656.295,239.507 658.484,220.062 660.673,201.605 662.862,183.87 665.051,167.791 
  667.24,152.215 669.429,139.957 671.618,127.699 673.807,120.011 675.996,113.903 678.185,111.321 680.374,115.146 682.563,126.028 684.752,147.683 686.941,197.678 
  689.13,304.109 691.319,469.901 693.508,500.701 695.697,487.332 697.886,467.338 700.075,446.474 702.264,425.566 704.453,404.79 706.642,384.16 708.831,363.57 
  711.02,342.954 713.209,322.285 715.398,301.518 717.587,280.768 719.775,260.085 721.964,239.757 724.153,219.659 726.342,200.592 728.531,181.826 730.72,164.783 
  732.909,148.312 735.098,133.595 737.287,120.704 739.476,107.814 741.665,100.38 743.854,93.0303 746.043,89.8811 748.232,91.2781 750.421,97.9316 752.61,113.141 
  754.799,146.309 756.988,210.317 759.177,346.273 761.366,474.732 763.555,486.071 765.744,472.477 767.933,453.692 770.122,434.032 772.311,414.158 774.5,394.217 
  776.689,374.19 778.878,354.055 781.067,333.777 783.256,313.322 785.445,292.851 787.634,272.404 789.823,252.335 792.012,232.445 794.201,213.774 796.39,195.236 
  798.579,178.973 800.768,162.83 802.957,149.679 805.146,137.368 807.335,127.472 809.524,121.305 811.713,115.194 813.902,118.926 816.091,124.176 818.28,143.526 
  820.469,179.241 822.658,259.759 824.847,420.103 827.036,500.452 829.225,494.506 831.414,475.798 833.603,455.025 835.792,434.052 837.981,413.211 840.169,392.501 
  842.358,371.879 844.547,351.282 846.736,330.623 848.925,309.924 851.114,289.167 853.303,268.517 855.492,247.958 857.681,228.009 859.87,208.198 862.059,189.834 
  864.248,171.567 866.437,155.488 868.626,139.786 870.815,126.164 873.004,114.432 875.193,102.7 877.382,97.1937 879.571,91.826 881.76,90.903 883.949,95.8176 
  886.138,107.656 888.327,132.194 890.516,181.99 892.705,282.782 894.894,441.86 897.083,486.367 899.272,478.162 901.461,460.543 903.65,441.197 905.839,421.424 
  908.028,401.539 910.217,381.604 912.406,361.529 914.595,341.316 916.784,320.997 918.973,300.536 921.162,280.152 923.351,259.827 925.54,240.153 927.729,220.687 
  929.918,202.666 932.107,184.873 934.296,169.549 936.485,154.226 938.674,142.599 940.863,131.568 943.052,123.742 945.241,119.878 947.43,116.39 949.619,123.82 
  951.808,137.66 953.997,166.5 956.186,228.371 958.375,362.443 960.563,492.825 962.752,499.242 964.941,482.412 967.13,461.826 969.319,440.78 971.508,419.859 
  973.697,399.106 975.886,378.45 978.075,357.849 980.264,337.216 982.453,316.525 984.642,295.791 986.831,275.094 989.02,254.542 991.209,234.298 993.398,214.639 
  995.587,195.53 997.776,177.511 999.965,160.444 1002.15,144.417 1004.34,130.575 1006.53,116.734 1008.72,107.147 1010.91,98.2638 1013.1,91.9043 1015.29,90.8442 
  1017.48,90.7552 1019.67,102.14 1021.85,121.398 1024.04,159.154 1026.23,235.79 1028.42,387.652 1030.61,482.187 1032.8,483.261 1034.99,467.11 1037.18,448.194 
  1039.37,428.553 1041.56,408.725 1043.74,388.837 1045.93,368.83 1048.12,348.692 1050.31,328.44 1052.5,308.017 1054.69,287.617 1056.88,267.234 1059.07,247.382 
  1061.26,227.784 1063.45,209.335 1065.63,191.383 1067.82,175.357 1070.01,159.466 1072.2,147.326 1074.39,135.185 1076.58,127.123 1078.77,121.259 1080.96,118.085 
  1083.15,122.377 1085.34,132.342 1087.52,155.394 1089.71,204.62 1091.9,310.246 1094.09,473.464 1096.28,502.848 1098.47,489.165 1100.66,468.938 1102.85,447.934 
  1105.04,426.908 1107.23,406.063 1109.41,385.38 1111.6,364.743 1113.79,344.121 1115.98,323.428 1118.17,302.697 1120.36,281.935 1122.55,261.348 1124.74,240.926 
  1126.93,221.072 1129.12,201.726 1131.3,183.378 1133.49,165.677 1135.68,149.84 1137.87,134.002 1140.06,121.792 1142.25,109.842 1144.44,100.268 1146.63,94.5023 
  1148.82,88.7363 1151,91.2719 1153.19,95.4411 1155.38,111.696 1157.57,141.799 1159.76,198.972 1161.95,321.589 1164.14,463.98 1166.33,486.313 1168.52,473.867 
  1170.71,455.736 1172.89,436.253 1175.08,416.495 1177.27,396.642 1179.46,376.708 1181.65,356.674 1183.84,336.423 1186.03,316.079 1188.22,295.642 1190.41,275.316 
  1192.6,255.175 1194.78,235.561 1196.97,216.637 1199.16,198.576 1201.35,181.728 1203.54,166.335 1205.73,151.981 1207.92,140.844 1210.11,129.706 1212.3,124.527 
  1214.49,120.479 1216.67,121.307 1218.86,128.423 1221.05,148.437 1223.24,186.432 1225.43,268.347 1227.62,431.822 1229.81,503.594 1232,495.33 1234.19,475.906 
  1236.38,455.005 1238.56,433.937 1240.75,412.998 1242.94,392.23 1245.13,371.586 1247.32,350.942 1249.51,330.288 1251.7,309.544 1253.89,288.81 1256.08,268.086 
  1258.27,247.69 1260.45,227.382 1262.64,208.135 1264.83,188.96 1267.02,171.666 1269.21,154.372 1271.4,139.681 1273.59,125.484 1275.78,113.141 1277.97,103.701 
  1280.15,94.2602 1282.34,91.5874 1284.53,90.2654 1286.72,92.5341 1288.91,104.154 1291.1,128.447 1293.29,173.448 1295.48,266.8 1297.67,425.453 1299.86,484.466 
  1302.04,479.212 1304.23,462.328 1306.42,443.236 1308.61,423.603 1310.8,403.815 1312.99,383.953 1315.18,363.964 1317.37,343.807 1319.56,323.54 1321.75,303.134 
  1323.93,282.785 1326.12,262.496 1328.31,242.809 1330.5,223.514 1332.69,205.297 1334.88,187.838 1337.07,172.186 1339.26,156.966 1341.45,145.42 1343.64,133.875 
  1345.82,127.151 1348.01,122.368 1350.2,120.988 1352.39,126.818 1354.58,142.432 1356.77,173.049 1358.96,236.087 1361.15,378.458 1363.34,497.74 1365.53,500.528 
  1367.71,482.64 1369.9,461.893 1372.09,440.753 1374.28,419.752 1376.47,398.921 1378.66,378.205 1380.85,357.563 1383.04,336.886 1385.23,316.174 1387.41,295.406 
  1389.6,274.707 1391.79,254.061 1393.98,233.929 1396.17,214.083 1398.36,195.208 1400.55,176.79 1402.74,160.105 1404.93,143.419 1407.12,129.991 1409.3,116.726 
  1411.49,105.796 1413.68,97.7715 1415.87,89.7467 1418.06,89.3706 1420.25,89.5802 1422.44,99.6421 1424.63,115.964 1426.82,150.588 1429.01,224.177 1431.19,366.787 
  1433.38,476.222 1435.57,483.548 1437.76,469.045 1439.95,450.454 1442.14,430.98 1444.33,411.262 1446.52,391.455 1448.71,371.519 1450.9,351.449 1453.08,331.258 
  1455.27,310.877 1457.46,290.515 1459.65,270.168 1461.84,250.329 1464.03,230.723 1466.22,212.306 1468.41,194.337 1470.6,178.348 1472.79,162.459 1474.97,150.375 
  1477.16,138.291 1479.35,130.348 1481.54,124.594 1483.73,121.74 1485.92,126.249 1488.11,136.998 1490.3,161.449 1492.49,213.071 1494.68,325.595 1496.86,482.035 
  1499.05,504.37 1501.24,489.531 1503.43,469.06 1505.62,447.922 1507.81,426.806 1510,405.871 1512.19,385.137 1514.38,364.451 1516.56,343.782 1518.75,323.061 
  1520.94,302.301 1523.13,281.522 1525.32,260.918 1527.51,240.519 1529.7,220.617 1531.89,201.327 1534.08,182.895 1536.27,165.293 1538.45,149.319 1540.64,133.391 
  1542.83,121.22 1545.02,109.048 1547.21,99.6068 1549.4,93.4328 1551.59,87.2589 1553.78,89.6914 1555.97,93.0967 1558.16,109.407 1560.34,137.002 1562.53,191.404 
  1564.72,303.776 1566.91,454.647 1569.1,485.778 1571.29,475.045 1573.48,457.478 1575.67,438.224 1577.86,418.599 1580.05,398.845 1582.23,378.994 1584.42,359.041 
  1586.61,338.857 1588.8,318.567 1590.99,298.19 1593.18,277.895 1595.37,257.826 1597.56,238.178 1599.75,219.362 1601.94,201.193 1604.12,184.568 1606.31,168.979 
  1608.5,155.114 1610.69,143.662 1612.88,132.45 1615.07,127.836 1617.26,123.221 1619.45,125.629 1621.64,131.761 1623.82,153.404 1626.01,193.409 1628.2,283.208 
  1630.39,449.737 1632.58,505.945 1634.77,495.62 1636.96,475.928 1639.15,454.78 1641.34,433.568 1643.53,412.575 1645.71,391.766 1647.9,371.043 1650.09,350.368 
  1652.28,329.651 1654.47,308.897 1656.66,288.11 1658.85,267.447 1661.04,246.921 1663.23,226.885 1665.42,207.326 1667.6,188.643 1669.79,170.659 1671.98,154.282 
  1674.17,137.942 1676.36,125.144 1678.55,112.346 1680.74,102.161 1682.93,94.9005 1685.12,87.6396 1687.31,88.5371 1689.49,90.0143 1691.68,102.692 1693.87,123.602 
  1696.06,166.127 1698.25,251.979 1700.44,408.821 1702.63,483.163 1704.82,480.583 1707.01,464.218 1709.2,445.4 1711.38,425.916 1713.57,406.239 1715.76,386.453 
  1717.95,366.523 1720.14,346.457 1722.33,326.247 1724.52,305.883 1726.71,285.567 1728.9,265.354 1731.09,245.682 1733.27,226.249 1735.46,208.278 1737.65,190.51 
  1739.84,175.224 1742.03,160.287 1744.22,148.313 1746.41,137.905 1748.6,129.516 1750.79,126.84 1752.97,124.165 1755.16,132.157 1757.35,147.291 1759.54,179.836 
  1761.73,249.369 1763.92,400.077 1766.11,502.995 1768.3,501.203 1770.49,482.74 1772.68,461.724 1774.86,440.464 1777.05,419.343 1779.24,398.467 1781.43,377.711 
  1783.62,357.003 1785.81,336.304 1788,315.54 1790.19,294.769 1792.38,274.016 1794.57,253.494 1796.75,233.134 1798.94,213.593 1801.13,194.269 1803.32,176.504 
  1805.51,159.082 1807.7,143.537 1809.89,129.131 1812.08,115.496 1814.27,105.711 1816.46,95.9265 1818.64,90.7197 1820.83,88.73 1823.02,86.8375 1825.21,97.1992 
  1827.4,114.048 1829.59,146.999 1831.78,214.37 1833.97,348.684 1836.16,470.85 1838.35,483.45 1840.53,470.766 1842.72,452.465 1844.91,433.122 1847.1,413.51 
  1849.29,393.784 1851.48,373.941 1853.67,353.981 1855.86,333.789 1858.05,313.501 1860.24,293.144 1862.42,272.956 1864.61,253.029 1866.8,233.636 1868.99,215.105 
  1871.18,197.4 1873.37,181.144 1875.56,166.311 1877.75,152.754 1879.94,142.519 1882.12,132.284 1884.31,129.045 1886.5,126.711 1888.69,130.593 1890.88,140.855 
  1893.07,168.565 1895.26,223.933 1897.45,348.26 1899.64,492.774 1901.83,506.05 1904.01,489.305 1906.2,468.57 1908.39,447.23 1910.58,426.05 1912.77,405.079 
  1914.96,384.25 1917.15,363.52 1919.34,342.807 1921.53,322.057 1923.72,301.272 1925.9,280.515 1928.09,259.861 1930.28,239.51 1932.47,219.629 1934.66,200.326 
  1936.85,181.928 1939.04,164.54 1941.23,147.963 1943.42,133.607 1945.61,119.251 1947.79,108.622 1949.98,98.9058 1952.17,90.9187 1954.36,89.0372 1956.55,87.1557 
  1958.74,93.1999 1960.93,103.745 1963.12,132.043 1965.31,181.98 1967.5,290.187 1969.68,444.925 1971.87,484.635 1974.06,476.067 1976.25,459.006 1978.44,440.038 
  1980.63,420.568 1982.82,400.922 1985.01,381.173 1987.2,361.25 1989.38,341.148 1991.57,320.937 1993.76,300.597 1995.95,280.373 1998.14,260.208 2000.33,240.832 
  2002.52,221.747 2004.71,204.09 2006.9,186.884 2009.09,172.121 2011.27,157.357 2013.46,146.91 2015.65,136.787 2017.84,131.008 2020.03,128.89 2022.22,128.755 
  2024.41,139.421 2026.6,161.776 2028.79,205.828 2030.98,304.564 2033.16,470.281 2035.35,508.435 2037.54,495.532 2039.73,475.26 2041.92,453.976 2044.11,432.706 
  2046.3,411.626 2048.49,390.722 2050.68,369.973 2052.87,349.24 2055.05,328.499 2057.24,307.705 2059.43,286.932 2061.62,266.172 2063.81,245.795 2066,225.584 
  2068.19,206.284 2070.38,187.278 2072.57,169.897 2074.76,152.515 2076.94,137.994 2079.13,123.644 2081.32,111.493 2083.51,101.78 2085.7,92.0667 2087.89,89.2935 
  2090.08,87.4039 2092.27,89.2348 2094.46,99.7454 2096.65,121.926 2098.83,162.681 2101.02,242.638 2103.21,397.278 2105.4,480.709 2107.59,480.958 2109.78,465.402 
  2111.97,446.873 2114.16,427.554 2116.35,407.995 2118.53,388.291 2120.72,368.439 2122.91,348.446 2125.1,328.286 2127.29,307.988 2129.48,287.72 2131.67,267.587 
  2133.86,247.954 2136.05,228.65 2138.24,210.703 2140.42,193.136 2142.61,177.841 2144.8,163.219 2146.99,151.159 2149.18,141.263 2151.37,132.671 2153.56,130.989 
  2155.75,129.307 2157.94,137.83 2160.13,154.602 2162.31,191.01 2164.5,267.831 2166.69,431.408 2168.88,508.77 2171.07,501.53 2173.26,481.924 2175.45,460.682 
  2177.64,439.311 2179.83,418.117 2182.02,397.177 2184.2,376.372 2186.39,355.616 2188.58,334.873 2190.77,314.078 2192.96,293.285 2195.15,272.526 2197.34,252.015 
  2199.53,231.684 2201.72,212.18 2203.91,192.927 2206.09,175.189 2208.28,157.884 2210.47,142.287 2212.66,128.053 2214.85,114.167 2217.04,104.622 2219.23,95.078 
  2221.42,89.3946 2223.61,87.7901 2225.79,86.1857 2227.98,95.9084 2230.17,111.773 2232.36,143.479 2234.55,209.377 2236.74,338.615 2238.93,467.363 2241.12,483.201 
  2243.31,471.374 2245.5,453.545 2247.68,434.359 2249.87,414.877 2252.06,395.249 2254.25,375.491 2256.44,355.605 2258.63,335.469 2260.82,315.243 2263.01,294.942 
  2265.2,274.82 2267.39,254.95 2269.57,235.652 2271.76,217.192 2273.95,199.622 2276.14,183.464 2278.33,168.83 2280.52,155.411 2282.71,145.495 2284.9,135.58 
  2287.09,132.876 2289.28,131.159 2291.46,136.031 2293.65,147.574 2295.84,177.887 2298.03,242.454 2300.22,381.695 2302.41,504.583 2304.6,506.454 2306.79,488.549 
  2308.98,467.341 2311.17,445.871 2313.35,424.613 2315.54,403.593 2317.73,382.715 2319.92,361.932 2322.11,341.177 2324.3,320.387 2326.49,299.573 2328.68,278.805 
  2330.87,258.169 2333.06,237.82 2335.24,218.011 2337.43,198.723 2339.62,180.44 2341.81,163.078 2344,146.634 2346.19,132.309 2348.38,117.985 2350.57,106.74 
  2352.76,96.1653 
  "/>
<path clip-path="url(#clip570)" d="
M1931.25 1377.32 L2279.79 1377.32 L2279.79 1195.88 L1931.25 1195.88  Z
  " fill="#ffffff" fill-rule="evenodd" fill-opacity="1"/>
<polyline clip-path="url(#clip570)" style="stroke:#000000; stroke-width:4; stroke-opacity:1; fill:none" points="
  1931.25,1377.32 2279.79,1377.32 2279.79,1195.88 1931.25,1195.88 1931.25,1377.32 
  "/>
<polyline clip-path="url(#clip570)" style="stroke:#009af9; stroke-width:4; stroke-opacity:1; fill:none" points="
  1955.57,1256.36 2101.5,1256.36 
  "/>
<path clip-path="url(#clip570)" d="M 0 0 M2125.82 1283.5 L2125.82 1247.71 L2130.08 1247.71 L2130.08 1263.82 Q2130.08 1267.18 2131.68 1268.89 Q2133.28 1270.6 2136.4 1270.6 Q2139.83 1270.6 2141.54 1268.66 Q2143.28 1266.71 2143.28 1262.83 L2143.28 1247.71 L2147.54 1247.71 L2147.54 1267.66 Q2147.54 1269.05 2147.93 1269.72 Q2148.35 1270.37 2149.2 1270.37 Q2149.41 1270.37 2149.78 1270.26 Q2150.15 1270.12 2150.8 1269.84 L2150.8 1273.26 Q2149.85 1273.8 2148.99 1274.05 Q2148.16 1274.31 2147.35 1274.31 Q2145.75 1274.31 2144.8 1273.4 Q2143.85 1272.5 2143.51 1270.65 Q2142.35 1272.48 2140.66 1273.4 Q2138.99 1274.31 2136.73 1274.31 Q2134.36 1274.31 2132.7 1273.4 Q2131.05 1272.5 2130.08 1270.7 L2130.08 1283.5 L2125.82 1283.5 Z" fill="#000000" fill-rule="evenodd" fill-opacity="1" /><path clip-path="url(#clip570)" d="M 0 0 M2154.41 1271.09 L2159.13 1271.09 L2159.13 1256.95 L2153.97 1257.89 L2153.97 1255.21 L2159.29 1254.31 L2162.47 1254.31 L2162.47 1271.09 L2167.21 1271.09 L2167.21 1273.64 L2154.41 1273.64 L2154.41 1271.09 Z" fill="#000000" fill-rule="evenodd" fill-opacity="1" /><path clip-path="url(#clip570)" d="M 0 0 M2180.41 1257.96 Q2179.25 1255.97 2176.91 1255.97 Q2174.57 1255.97 2173.41 1257.96 Q2172.23 1259.95 2172.23 1263.94 Q2172.23 1267.94 2173.41 1269.93 Q2174.57 1271.92 2176.91 1271.92 Q2179.25 1271.92 2180.41 1269.93 Q2181.59 1267.94 2181.59 1263.94 Q2181.59 1259.95 2180.41 1257.96 M2176.91 1253.91 Q2180.64 1253.91 2182.6 1256.48 Q2184.57 1259.05 2184.57 1263.94 Q2184.57 1268.84 2182.6 1271.41 Q2180.64 1273.98 2176.91 1273.98 Q2173.16 1273.98 2171.19 1271.41 Q2169.22 1268.84 2169.22 1263.94 Q2169.22 1259.05 2171.19 1256.48 Q2173.16 1253.91 2176.91 1253.91 Z" fill="#000000" fill-rule="evenodd" fill-opacity="1" /><path clip-path="url(#clip570)" d="M 0 0 M2199.27 1237.66 Q2196.17 1242.99 2194.66 1248.2 Q2193.16 1253.4 2193.16 1258.75 Q2193.16 1264.1 2194.66 1269.35 Q2196.19 1274.58 2199.27 1279.89 L2195.57 1279.89 Q2192.1 1274.45 2190.36 1269.19 Q2188.65 1263.94 2188.65 1258.75 Q2188.65 1253.59 2190.36 1248.36 Q2192.07 1243.13 2195.57 1237.66 L2199.27 1237.66 Z" fill="#000000" fill-rule="evenodd" fill-opacity="1" /><path clip-path="url(#clip570)" d="M 0 0 M2207.95 1240.35 L2207.95 1247.71 L2216.72 1247.71 L2216.72 1251.02 L2207.95 1251.02 L2207.95 1265.09 Q2207.95 1268.26 2208.81 1269.17 Q2209.69 1270.07 2212.35 1270.07 L2216.72 1270.07 L2216.72 1273.64 L2212.35 1273.64 Q2207.42 1273.64 2205.54 1271.81 Q2203.67 1269.95 2203.67 1265.09 L2203.67 1251.02 L2200.54 1251.02 L2200.54 1247.71 L2203.67 1247.71 L2203.67 1240.35 L2207.95 1240.35 Z" fill="#000000" fill-rule="evenodd" fill-opacity="1" /><path clip-path="url(#clip570)" d="M 0 0 M2220.52 1237.66 L2224.22 1237.66 Q2227.7 1243.13 2229.41 1248.36 Q2231.15 1253.59 2231.15 1258.75 Q2231.15 1263.94 2229.41 1269.19 Q2227.7 1274.45 2224.22 1279.89 L2220.52 1279.89 Q2223.6 1274.58 2225.1 1269.35 Q2226.63 1264.1 2226.63 1258.75 Q2226.63 1253.4 2225.1 1248.2 Q2223.6 1242.99 2220.52 1237.66 Z" fill="#000000" fill-rule="evenodd" fill-opacity="1" /><polyline clip-path="url(#clip570)" style="stroke:#e26f46; stroke-width:4; stroke-opacity:1; fill:none" points="
  1955.57,1316.84 2101.5,1316.84 
  "/>
<path clip-path="url(#clip570)" d="M 0 0 M2125.82 1343.98 L2125.82 1308.19 L2130.08 1308.19 L2130.08 1324.3 Q2130.08 1327.66 2131.68 1329.37 Q2133.28 1331.08 2136.4 1331.08 Q2139.83 1331.08 2141.54 1329.14 Q2143.28 1327.19 2143.28 1323.31 L2143.28 1308.19 L2147.54 1308.19 L2147.54 1328.14 Q2147.54 1329.53 2147.93 1330.2 Q2148.35 1330.85 2149.2 1330.85 Q2149.41 1330.85 2149.78 1330.74 Q2150.15 1330.6 2150.8 1330.32 L2150.8 1333.74 Q2149.85 1334.28 2148.99 1334.53 Q2148.16 1334.79 2147.35 1334.79 Q2145.75 1334.79 2144.8 1333.88 Q2143.85 1332.98 2143.51 1331.13 Q2142.35 1332.96 2140.66 1333.88 Q2138.99 1334.79 2136.73 1334.79 Q2134.36 1334.79 2132.7 1333.88 Q2131.05 1332.98 2130.08 1331.18 L2130.08 1343.98 L2125.82 1343.98 Z" fill="#000000" fill-rule="evenodd" fill-opacity="1" /><path clip-path="url(#clip570)" d="M 0 0 M2163.99 1318.44 Q2162.84 1316.45 2160.5 1316.45 Q2158.16 1316.45 2157 1318.44 Q2155.82 1320.43 2155.82 1324.42 Q2155.82 1328.42 2157 1330.41 Q2158.16 1332.4 2160.5 1332.4 Q2162.84 1332.4 2163.99 1330.41 Q2165.17 1328.42 2165.17 1324.42 Q2165.17 1320.43 2163.99 1318.44 M2160.5 1314.39 Q2164.22 1314.39 2166.19 1316.96 Q2168.16 1319.53 2168.16 1324.42 Q2168.16 1329.32 2166.19 1331.89 Q2164.22 1334.46 2160.5 1334.46 Q2156.75 1334.46 2154.78 1331.89 Q2152.81 1329.32 2152.81 1324.42 Q2152.81 1319.53 2154.78 1316.96 Q2156.75 1314.39 2160.5 1314.39 Z" fill="#000000" fill-rule="evenodd" fill-opacity="1" /><path clip-path="url(#clip570)" d="M 0 0 M2171.77 1331.57 L2176.49 1331.57 L2176.49 1317.43 L2171.33 1318.37 L2171.33 1315.69 L2176.66 1314.79 L2179.83 1314.79 L2179.83 1331.57 L2184.57 1331.57 L2184.57 1334.12 L2171.77 1334.12 L2171.77 1331.57 Z" fill="#000000" fill-rule="evenodd" fill-opacity="1" /><path clip-path="url(#clip570)" d="M 0 0 M2199.27 1298.14 Q2196.17 1303.47 2194.66 1308.68 Q2193.16 1313.88 2193.16 1319.23 Q2193.16 1324.58 2194.66 1329.83 Q2196.19 1335.06 2199.27 1340.37 L2195.57 1340.37 Q2192.1 1334.93 2190.36 1329.67 Q2188.65 1324.42 2188.65 1319.23 Q2188.65 1314.07 2190.36 1308.84 Q2192.07 1303.61 2195.57 1298.14 L2199.27 1298.14 Z" fill="#000000" fill-rule="evenodd" fill-opacity="1" /><path clip-path="url(#clip570)" d="M 0 0 M2207.95 1300.83 L2207.95 1308.19 L2216.72 1308.19 L2216.72 1311.5 L2207.95 1311.5 L2207.95 1325.57 Q2207.95 1328.74 2208.81 1329.65 Q2209.69 1330.55 2212.35 1330.55 L2216.72 1330.55 L2216.72 1334.12 L2212.35 1334.12 Q2207.42 1334.12 2205.54 1332.29 Q2203.67 1330.43 2203.67 1325.57 L2203.67 1311.5 L2200.54 1311.5 L2200.54 1308.19 L2203.67 1308.19 L2203.67 1300.83 L2207.95 1300.83 Z" fill="#000000" fill-rule="evenodd" fill-opacity="1" /><path clip-path="url(#clip570)" d="M 0 0 M2220.52 1298.14 L2224.22 1298.14 Q2227.7 1303.61 2229.41 1308.84 Q2231.15 1314.07 2231.15 1319.23 Q2231.15 1324.42 2229.41 1329.67 Q2227.7 1334.93 2224.22 1340.37 L2220.52 1340.37 Q2223.6 1335.06 2225.1 1329.83 Q2226.63 1324.58 2226.63 1319.23 Q2226.63 1313.88 2225.1 1308.68 Q2223.6 1303.47 2220.52 1298.14 Z" fill="#000000" fill-rule="evenodd" fill-opacity="1" /></svg>
