<?xml version="1.0" encoding="utf-8"?>
<svg xmlns="http://www.w3.org/2000/svg" xmlns:xlink="http://www.w3.org/1999/xlink" width="600" height="400" viewBox="0 0 2400 1600">
<defs>
  <clipPath id="clip890">
    <rect x="0" y="0" width="2400" height="1600"/>
  </clipPath>
</defs>
<path clip-path="url(#clip890)" d="
M0 1600 L2400 1600 L2400 0 L0 0  Z
  " fill="#ffffff" fill-rule="evenodd" fill-opacity="1"/>
<defs>
  <clipPath id="clip891">
    <rect x="480" y="0" width="1681" height="1600"/>
  </clipPath>
</defs>
<path clip-path="url(#clip890)" d="
M137.964 1423.18 L2352.76 1423.18 L2352.76 47.2441 L137.964 47.2441  Z
  " fill="#ffffff" fill-rule="evenodd" fill-opacity="1"/>
<defs>
  <clipPath id="clip892">
    <rect x="137" y="47" width="2216" height="1377"/>
  </clipPath>
</defs>
<polyline clip-path="url(#clip892)" style="stroke:#000000; stroke-linecap:butt; stroke-linejoin:round; stroke-width:2; stroke-opacity:0.1; fill:none" points="
  137.964,1423.18 137.964,47.2441 
  "/>
<polyline clip-path="url(#clip892)" style="stroke:#000000; stroke-linecap:butt; stroke-linejoin:round; stroke-width:2; stroke-opacity:0.1; fill:none" points="
  580.922,1423.18 580.922,47.2441 
  "/>
<polyline clip-path="url(#clip892)" style="stroke:#000000; stroke-linecap:butt; stroke-linejoin:round; stroke-width:2; stroke-opacity:0.1; fill:none" points="
  1023.88,1423.18 1023.88,47.2441 
  "/>
<polyline clip-path="url(#clip892)" style="stroke:#000000; stroke-linecap:butt; stroke-linejoin:round; stroke-width:2; stroke-opacity:0.1; fill:none" points="
  1466.84,1423.18 1466.84,47.2441 
  "/>
<polyline clip-path="url(#clip892)" style="stroke:#000000; stroke-linecap:butt; stroke-linejoin:round; stroke-width:2; stroke-opacity:0.1; fill:none" points="
  1909.8,1423.18 1909.8,47.2441 
  "/>
<polyline clip-path="url(#clip892)" style="stroke:#000000; stroke-linecap:butt; stroke-linejoin:round; stroke-width:2; stroke-opacity:0.1; fill:none" points="
  2352.76,1423.18 2352.76,47.2441 
  "/>
<polyline clip-path="url(#clip890)" style="stroke:#000000; stroke-linecap:butt; stroke-linejoin:round; stroke-width:4; stroke-opacity:1; fill:none" points="
  137.964,1423.18 2352.76,1423.18 
  "/>
<polyline clip-path="url(#clip890)" style="stroke:#000000; stroke-linecap:butt; stroke-linejoin:round; stroke-width:4; stroke-opacity:1; fill:none" points="
  137.964,1423.18 137.964,1406.67 
  "/>
<polyline clip-path="url(#clip890)" style="stroke:#000000; stroke-linecap:butt; stroke-linejoin:round; stroke-width:4; stroke-opacity:1; fill:none" points="
  580.922,1423.18 580.922,1406.67 
  "/>
<polyline clip-path="url(#clip890)" style="stroke:#000000; stroke-linecap:butt; stroke-linejoin:round; stroke-width:4; stroke-opacity:1; fill:none" points="
  1023.88,1423.18 1023.88,1406.67 
  "/>
<polyline clip-path="url(#clip890)" style="stroke:#000000; stroke-linecap:butt; stroke-linejoin:round; stroke-width:4; stroke-opacity:1; fill:none" points="
  1466.84,1423.18 1466.84,1406.67 
  "/>
<polyline clip-path="url(#clip890)" style="stroke:#000000; stroke-linecap:butt; stroke-linejoin:round; stroke-width:4; stroke-opacity:1; fill:none" points="
  1909.8,1423.18 1909.8,1406.67 
  "/>
<polyline clip-path="url(#clip890)" style="stroke:#000000; stroke-linecap:butt; stroke-linejoin:round; stroke-width:4; stroke-opacity:1; fill:none" points="
  2352.76,1423.18 2352.76,1406.67 
  "/>
<path clip-path="url(#clip890)" d="M137.964 1452.37 Q134.353 1452.37 132.524 1455.94 Q130.719 1459.48 130.719 1466.61 Q130.719 1473.71 132.524 1477.28 Q134.353 1480.82 137.964 1480.82 Q141.598 1480.82 143.404 1477.28 Q145.233 1473.71 145.233 1466.61 Q145.233 1459.48 143.404 1455.94 Q141.598 1452.37 137.964 1452.37 M137.964 1448.67 Q143.774 1448.67 146.83 1453.27 Q149.908 1457.86 149.908 1466.61 Q149.908 1475.33 146.83 1479.94 Q143.774 1484.52 137.964 1484.52 Q132.154 1484.52 129.075 1479.94 Q126.02 1475.33 126.02 1466.61 Q126.02 1457.86 129.075 1453.27 Q132.154 1448.67 137.964 1448.67 Z" fill="#000000" fill-rule="evenodd" fill-opacity="1" /><path clip-path="url(#clip890)" d="M559.696 1479.92 L576.015 1479.92 L576.015 1483.85 L554.071 1483.85 L554.071 1479.92 Q556.733 1477.16 561.316 1472.53 Q565.923 1467.88 567.103 1466.54 Q569.348 1464.01 570.228 1462.28 Q571.131 1460.52 571.131 1458.83 Q571.131 1456.07 569.186 1454.34 Q567.265 1452.6 564.163 1452.6 Q561.964 1452.6 559.511 1453.37 Q557.08 1454.13 554.302 1455.68 L554.302 1450.96 Q557.126 1449.82 559.58 1449.25 Q562.034 1448.67 564.071 1448.67 Q569.441 1448.67 572.635 1451.35 Q575.83 1454.04 575.83 1458.53 Q575.83 1460.66 575.02 1462.58 Q574.233 1464.48 572.126 1467.07 Q571.547 1467.74 568.446 1470.96 Q565.344 1474.15 559.696 1479.92 Z" fill="#000000" fill-rule="evenodd" fill-opacity="1" /><path clip-path="url(#clip890)" d="M595.83 1452.37 Q592.219 1452.37 590.39 1455.94 Q588.584 1459.48 588.584 1466.61 Q588.584 1473.71 590.39 1477.28 Q592.219 1480.82 595.83 1480.82 Q599.464 1480.82 601.27 1477.28 Q603.098 1473.71 603.098 1466.61 Q603.098 1459.48 601.27 1455.94 Q599.464 1452.37 595.83 1452.37 M595.83 1448.67 Q601.64 1448.67 604.695 1453.27 Q607.774 1457.86 607.774 1466.61 Q607.774 1475.33 604.695 1479.94 Q601.64 1484.52 595.83 1484.52 Q590.02 1484.52 586.941 1479.94 Q583.885 1475.33 583.885 1466.61 Q583.885 1457.86 586.941 1453.27 Q590.02 1448.67 595.83 1448.67 Z" fill="#000000" fill-rule="evenodd" fill-opacity="1" /><path clip-path="url(#clip890)" d="M1012.05 1453.37 L1000.25 1471.81 L1012.05 1471.81 L1012.05 1453.37 M1010.83 1449.29 L1016.7 1449.29 L1016.7 1471.81 L1021.64 1471.81 L1021.64 1475.7 L1016.7 1475.7 L1016.7 1483.85 L1012.05 1483.85 L1012.05 1475.7 L996.45 1475.7 L996.45 1471.19 L1010.83 1449.29 Z" fill="#000000" fill-rule="evenodd" fill-opacity="1" /><path clip-path="url(#clip890)" d="M1039.37 1452.37 Q1035.76 1452.37 1033.93 1455.94 Q1032.12 1459.48 1032.12 1466.61 Q1032.12 1473.71 1033.93 1477.28 Q1035.76 1480.82 1039.37 1480.82 Q1043 1480.82 1044.81 1477.28 Q1046.64 1473.71 1046.64 1466.61 Q1046.64 1459.48 1044.81 1455.94 Q1043 1452.37 1039.37 1452.37 M1039.37 1448.67 Q1045.18 1448.67 1048.23 1453.27 Q1051.31 1457.86 1051.31 1466.61 Q1051.31 1475.33 1048.23 1479.94 Q1045.18 1484.52 1039.37 1484.52 Q1033.56 1484.52 1030.48 1479.94 Q1027.42 1475.33 1027.42 1466.61 Q1027.42 1457.86 1030.48 1453.27 Q1033.56 1448.67 1039.37 1448.67 Z" fill="#000000" fill-rule="evenodd" fill-opacity="1" /><path clip-path="url(#clip890)" d="M1452.24 1464.71 Q1449.1 1464.71 1447.24 1466.86 Q1445.42 1469.01 1445.42 1472.76 Q1445.42 1476.49 1447.24 1478.67 Q1449.1 1480.82 1452.24 1480.82 Q1455.39 1480.82 1457.22 1478.67 Q1459.07 1476.49 1459.07 1472.76 Q1459.07 1469.01 1457.22 1466.86 Q1455.39 1464.71 1452.24 1464.71 M1461.53 1450.06 L1461.53 1454.31 Q1459.77 1453.48 1457.96 1453.04 Q1456.18 1452.6 1454.42 1452.6 Q1449.79 1452.6 1447.34 1455.73 Q1444.91 1458.85 1444.56 1465.17 Q1445.92 1463.16 1447.99 1462.09 Q1450.05 1461 1452.52 1461 Q1457.73 1461 1460.74 1464.18 Q1463.77 1467.32 1463.77 1472.76 Q1463.77 1478.09 1460.62 1481.31 Q1457.48 1484.52 1452.24 1484.52 Q1446.25 1484.52 1443.08 1479.94 Q1439.91 1475.33 1439.91 1466.61 Q1439.91 1458.41 1443.8 1453.55 Q1447.68 1448.67 1454.24 1448.67 Q1455.99 1448.67 1457.78 1449.01 Q1459.58 1449.36 1461.53 1450.06 Z" fill="#000000" fill-rule="evenodd" fill-opacity="1" /><path clip-path="url(#clip890)" d="M1481.83 1452.37 Q1478.22 1452.37 1476.39 1455.94 Q1474.58 1459.48 1474.58 1466.61 Q1474.58 1473.71 1476.39 1477.28 Q1478.22 1480.82 1481.83 1480.82 Q1485.46 1480.82 1487.27 1477.28 Q1489.1 1473.71 1489.1 1466.61 Q1489.1 1459.48 1487.27 1455.94 Q1485.46 1452.37 1481.83 1452.37 M1481.83 1448.67 Q1487.64 1448.67 1490.69 1453.27 Q1493.77 1457.86 1493.77 1466.61 Q1493.77 1475.33 1490.69 1479.94 Q1487.64 1484.52 1481.83 1484.52 Q1476.02 1484.52 1472.94 1479.94 Q1469.88 1475.33 1469.88 1466.61 Q1469.88 1457.86 1472.94 1453.27 Q1476.02 1448.67 1481.83 1448.67 Z" fill="#000000" fill-rule="evenodd" fill-opacity="1" /><path clip-path="url(#clip890)" d="M1894.67 1467.44 Q1891.34 1467.44 1889.42 1469.22 Q1887.52 1471 1887.52 1474.13 Q1887.52 1477.25 1889.42 1479.04 Q1891.34 1480.82 1894.67 1480.82 Q1898 1480.82 1899.92 1479.04 Q1901.85 1477.23 1901.85 1474.13 Q1901.85 1471 1899.92 1469.22 Q1898.03 1467.44 1894.67 1467.44 M1889.99 1465.45 Q1886.99 1464.71 1885.3 1462.65 Q1883.63 1460.59 1883.63 1457.63 Q1883.63 1453.48 1886.57 1451.07 Q1889.53 1448.67 1894.67 1448.67 Q1899.83 1448.67 1902.77 1451.07 Q1905.71 1453.48 1905.71 1457.63 Q1905.71 1460.59 1904.02 1462.65 Q1902.36 1464.71 1899.37 1465.45 Q1902.75 1466.24 1904.62 1468.53 Q1906.52 1470.82 1906.52 1474.13 Q1906.52 1479.15 1903.44 1481.84 Q1900.39 1484.52 1894.67 1484.52 Q1888.95 1484.52 1885.87 1481.84 Q1882.82 1479.15 1882.82 1474.13 Q1882.82 1470.82 1884.72 1468.53 Q1886.61 1466.24 1889.99 1465.45 M1888.28 1458.06 Q1888.28 1460.75 1889.95 1462.25 Q1891.64 1463.76 1894.67 1463.76 Q1897.68 1463.76 1899.37 1462.25 Q1901.08 1460.75 1901.08 1458.06 Q1901.08 1455.38 1899.37 1453.88 Q1897.68 1452.37 1894.67 1452.37 Q1891.64 1452.37 1889.95 1453.88 Q1888.28 1455.38 1888.28 1458.06 Z" fill="#000000" fill-rule="evenodd" fill-opacity="1" /><path clip-path="url(#clip890)" d="M1924.83 1452.37 Q1921.22 1452.37 1919.39 1455.94 Q1917.59 1459.48 1917.59 1466.61 Q1917.59 1473.71 1919.39 1477.28 Q1921.22 1480.82 1924.83 1480.82 Q1928.47 1480.82 1930.27 1477.28 Q1932.1 1473.71 1932.1 1466.61 Q1932.1 1459.48 1930.27 1455.94 Q1928.47 1452.37 1924.83 1452.37 M1924.83 1448.67 Q1930.64 1448.67 1933.7 1453.27 Q1936.78 1457.86 1936.78 1466.61 Q1936.78 1475.33 1933.7 1479.94 Q1930.64 1484.52 1924.83 1484.52 Q1919.02 1484.52 1915.94 1479.94 Q1912.89 1475.33 1912.89 1466.61 Q1912.89 1457.86 1915.94 1453.27 Q1919.02 1448.67 1924.83 1448.67 Z" fill="#000000" fill-rule="evenodd" fill-opacity="1" /><path clip-path="url(#clip890)" d="M2312.36 1479.92 L2320 1479.92 L2320 1453.55 L2311.69 1455.22 L2311.69 1450.96 L2319.96 1449.29 L2324.63 1449.29 L2324.63 1479.92 L2332.27 1479.92 L2332.27 1483.85 L2312.36 1483.85 L2312.36 1479.92 Z" fill="#000000" fill-rule="evenodd" fill-opacity="1" /><path clip-path="url(#clip890)" d="M2351.71 1452.37 Q2348.1 1452.37 2346.27 1455.94 Q2344.47 1459.48 2344.47 1466.61 Q2344.47 1473.71 2346.27 1477.28 Q2348.1 1480.82 2351.71 1480.82 Q2355.35 1480.82 2357.15 1477.28 Q2358.98 1473.71 2358.98 1466.61 Q2358.98 1459.48 2357.15 1455.94 Q2355.35 1452.37 2351.71 1452.37 M2351.71 1448.67 Q2357.52 1448.67 2360.58 1453.27 Q2363.66 1457.86 2363.66 1466.61 Q2363.66 1475.33 2360.58 1479.94 Q2357.52 1484.52 2351.71 1484.52 Q2345.9 1484.52 2342.83 1479.94 Q2339.77 1475.33 2339.77 1466.61 Q2339.77 1457.86 2342.83 1453.27 Q2345.9 1448.67 2351.71 1448.67 Z" fill="#000000" fill-rule="evenodd" fill-opacity="1" /><path clip-path="url(#clip890)" d="M2381.88 1452.37 Q2378.27 1452.37 2376.44 1455.94 Q2374.63 1459.48 2374.63 1466.61 Q2374.63 1473.71 2376.44 1477.28 Q2378.27 1480.82 2381.88 1480.82 Q2385.51 1480.82 2387.32 1477.28 Q2389.14 1473.71 2389.14 1466.61 Q2389.14 1459.48 2387.32 1455.94 Q2385.51 1452.37 2381.88 1452.37 M2381.88 1448.67 Q2387.69 1448.67 2390.74 1453.27 Q2393.82 1457.86 2393.82 1466.61 Q2393.82 1475.33 2390.74 1479.94 Q2387.69 1484.52 2381.88 1484.52 Q2376.07 1484.52 2372.99 1479.94 Q2369.93 1475.33 2369.93 1466.61 Q2369.93 1457.86 2372.99 1453.27 Q2376.07 1448.67 2381.88 1448.67 Z" fill="#000000" fill-rule="evenodd" fill-opacity="1" /><path clip-path="url(#clip890)" d="M1244.42 1522.27 L1244.42 1532.4 L1256.48 1532.4 L1256.48 1536.95 L1244.42 1536.95 L1244.42 1556.3 Q1244.42 1560.66 1245.6 1561.9 Q1246.81 1563.14 1250.47 1563.14 L1256.48 1563.14 L1256.48 1568.04 L1250.47 1568.04 Q1243.69 1568.04 1241.11 1565.53 Q1238.53 1562.98 1238.53 1556.3 L1238.53 1536.95 L1234.24 1536.95 L1234.24 1532.4 L1238.53 1532.4 L1238.53 1522.27 L1244.42 1522.27 Z" fill="#000000" fill-rule="evenodd" fill-opacity="1" /><polyline clip-path="url(#clip892)" style="stroke:#000000; stroke-linecap:butt; stroke-linejoin:round; stroke-width:2; stroke-opacity:0.1; fill:none" points="
  137.964,1222.38 2352.76,1222.38 
  "/>
<polyline clip-path="url(#clip892)" style="stroke:#000000; stroke-linecap:butt; stroke-linejoin:round; stroke-width:2; stroke-opacity:0.1; fill:none" points="
  137.964,979.601 2352.76,979.601 
  "/>
<polyline clip-path="url(#clip892)" style="stroke:#000000; stroke-linecap:butt; stroke-linejoin:round; stroke-width:2; stroke-opacity:0.1; fill:none" points="
  137.964,736.819 2352.76,736.819 
  "/>
<polyline clip-path="url(#clip892)" style="stroke:#000000; stroke-linecap:butt; stroke-linejoin:round; stroke-width:2; stroke-opacity:0.1; fill:none" points="
  137.964,494.037 2352.76,494.037 
  "/>
<polyline clip-path="url(#clip892)" style="stroke:#000000; stroke-linecap:butt; stroke-linejoin:round; stroke-width:2; stroke-opacity:0.1; fill:none" points="
  137.964,251.255 2352.76,251.255 
  "/>
<polyline clip-path="url(#clip890)" style="stroke:#000000; stroke-linecap:butt; stroke-linejoin:round; stroke-width:4; stroke-opacity:1; fill:none" points="
  137.964,1423.18 137.964,47.2441 
  "/>
<polyline clip-path="url(#clip890)" style="stroke:#000000; stroke-linecap:butt; stroke-linejoin:round; stroke-width:4; stroke-opacity:1; fill:none" points="
  137.964,1222.38 164.542,1222.38 
  "/>
<polyline clip-path="url(#clip890)" style="stroke:#000000; stroke-linecap:butt; stroke-linejoin:round; stroke-width:4; stroke-opacity:1; fill:none" points="
  137.964,979.601 164.542,979.601 
  "/>
<polyline clip-path="url(#clip890)" style="stroke:#000000; stroke-linecap:butt; stroke-linejoin:round; stroke-width:4; stroke-opacity:1; fill:none" points="
  137.964,736.819 164.542,736.819 
  "/>
<polyline clip-path="url(#clip890)" style="stroke:#000000; stroke-linecap:butt; stroke-linejoin:round; stroke-width:4; stroke-opacity:1; fill:none" points="
  137.964,494.037 164.542,494.037 
  "/>
<polyline clip-path="url(#clip890)" style="stroke:#000000; stroke-linecap:butt; stroke-linejoin:round; stroke-width:4; stroke-opacity:1; fill:none" points="
  137.964,251.255 164.542,251.255 
  "/>
<path clip-path="url(#clip890)" d="M94.8345 1221.03 Q98.1909 1221.75 100.066 1224.02 Q101.964 1226.28 101.964 1229.62 Q101.964 1234.73 98.4456 1237.53 Q94.9271 1240.33 88.4456 1240.33 Q86.2697 1240.33 83.9549 1239.89 Q81.6633 1239.48 79.2096 1238.62 L79.2096 1234.11 Q81.154 1235.24 83.4688 1235.82 Q85.7836 1236.4 88.3067 1236.4 Q92.7049 1236.4 94.9965 1234.66 Q97.3113 1232.93 97.3113 1229.62 Q97.3113 1226.56 95.1586 1224.85 Q93.0289 1223.11 89.2095 1223.11 L85.1818 1223.11 L85.1818 1219.27 L89.3947 1219.27 Q92.8438 1219.27 94.6724 1217.9 Q96.5011 1216.52 96.5011 1213.92 Q96.5011 1211.26 94.603 1209.85 Q92.728 1208.41 89.2095 1208.41 Q87.2882 1208.41 85.0892 1208.83 Q82.8901 1209.25 80.2512 1210.13 L80.2512 1205.96 Q82.9133 1205.22 85.2281 1204.85 Q87.566 1204.48 89.6262 1204.48 Q94.9502 1204.48 98.0521 1206.91 Q101.154 1209.32 101.154 1213.44 Q101.154 1216.31 99.5104 1218.3 Q97.8669 1220.27 94.8345 1221.03 Z" fill="#000000" fill-rule="evenodd" fill-opacity="1" /><path clip-path="url(#clip890)" d="M90.4364 977.738 Q87.2882 977.738 85.4364 979.891 Q83.6077 982.044 83.6077 985.793 Q83.6077 989.52 85.4364 991.696 Q87.2882 993.849 90.4364 993.849 Q93.5845 993.849 95.4132 991.696 Q97.265 989.52 97.265 985.793 Q97.265 982.044 95.4132 979.891 Q93.5845 977.738 90.4364 977.738 M99.7187 963.085 L99.7187 967.345 Q97.9595 966.511 96.1539 966.071 Q94.3715 965.632 92.6123 965.632 Q87.9827 965.632 85.529 968.757 Q83.0984 971.882 82.7512 978.201 Q84.1169 976.187 86.1771 975.122 Q88.2373 974.034 90.7141 974.034 Q95.9224 974.034 98.9317 977.206 Q101.964 980.354 101.964 985.793 Q101.964 991.118 98.8159 994.335 Q95.6678 997.553 90.4364 997.553 Q84.441 997.553 81.2697 992.969 Q78.0985 988.363 78.0985 979.636 Q78.0985 971.442 81.9873 966.581 Q85.8762 961.696 92.4271 961.696 Q94.1863 961.696 95.9687 962.044 Q97.7743 962.391 99.7187 963.085 Z" fill="#000000" fill-rule="evenodd" fill-opacity="1" /><path clip-path="url(#clip890)" d="M80.3438 753.382 L80.3438 749.122 Q82.1031 749.956 83.9086 750.396 Q85.7142 750.835 87.4503 750.835 Q92.0799 750.835 94.5104 747.734 Q96.9641 744.609 97.3113 738.266 Q95.9687 740.257 93.9086 741.322 Q91.8484 742.386 89.3484 742.386 Q84.1632 742.386 81.1309 739.261 Q78.1216 736.113 78.1216 730.673 Q78.1216 725.349 81.2697 722.132 Q84.4179 718.914 89.6493 718.914 Q95.6447 718.914 98.7928 723.521 Q101.964 728.104 101.964 736.854 Q101.964 745.025 98.0752 749.909 Q94.2095 754.771 87.6586 754.771 Q85.8993 754.771 84.0938 754.423 Q82.2883 754.076 80.3438 753.382 M89.6493 738.729 Q92.7975 738.729 94.6262 736.576 Q96.478 734.423 96.478 730.673 Q96.478 726.947 94.6262 724.794 Q92.7975 722.618 89.6493 722.618 Q86.5012 722.618 84.6494 724.794 Q82.8207 726.947 82.8207 730.673 Q82.8207 734.423 84.6494 736.576 Q86.5012 738.729 89.6493 738.729 Z" fill="#000000" fill-rule="evenodd" fill-opacity="1" /><path clip-path="url(#clip890)" d="M52.2653 507.382 L59.9041 507.382 L59.9041 481.016 L51.594 482.683 L51.594 478.424 L59.8578 476.757 L64.5337 476.757 L64.5337 507.382 L72.1726 507.382 L72.1726 511.317 L52.2653 511.317 L52.2653 507.382 Z" fill="#000000" fill-rule="evenodd" fill-opacity="1" /><path clip-path="url(#clip890)" d="M85.6447 507.382 L101.964 507.382 L101.964 511.317 L80.0197 511.317 L80.0197 507.382 Q82.6818 504.627 87.2651 499.998 Q91.8715 495.345 93.0521 494.002 Q95.2974 491.479 96.1771 489.743 Q97.0798 487.984 97.0798 486.294 Q97.0798 483.54 95.1354 481.803 Q93.2141 480.067 90.1123 480.067 Q87.9132 480.067 85.4595 480.831 Q83.029 481.595 80.2512 483.146 L80.2512 478.424 Q83.0753 477.29 85.529 476.711 Q87.9827 476.132 90.0197 476.132 Q95.39 476.132 98.5845 478.817 Q101.779 481.502 101.779 485.993 Q101.779 488.123 100.969 490.044 Q100.182 491.942 98.0752 494.535 Q97.4965 495.206 94.3947 498.424 Q91.2928 501.618 85.6447 507.382 Z" fill="#000000" fill-rule="evenodd" fill-opacity="1" /><path clip-path="url(#clip890)" d="M51.6634 264.6 L59.3023 264.6 L59.3023 238.234 L50.9921 239.901 L50.9921 235.642 L59.256 233.975 L63.9319 233.975 L63.9319 264.6 L71.5707 264.6 L71.5707 268.535 L51.6634 268.535 L51.6634 264.6 Z" fill="#000000" fill-rule="evenodd" fill-opacity="1" /><path clip-path="url(#clip890)" d="M81.0614 233.975 L99.4178 233.975 L99.4178 237.91 L85.3438 237.91 L85.3438 246.382 Q86.3623 246.035 87.3808 245.873 Q88.3993 245.688 89.4178 245.688 Q95.2049 245.688 98.5845 248.859 Q101.964 252.03 101.964 257.447 Q101.964 263.026 98.4919 266.128 Q95.0197 269.206 88.7003 269.206 Q86.5243 269.206 84.2558 268.836 Q82.0105 268.466 79.6031 267.725 L79.6031 263.026 Q81.6864 264.16 83.9086 264.716 Q86.1308 265.271 88.6077 265.271 Q92.6123 265.271 94.9502 263.165 Q97.2882 261.058 97.2882 257.447 Q97.2882 253.836 94.9502 251.73 Q92.6123 249.623 88.6077 249.623 Q86.7327 249.623 84.8577 250.04 Q83.0058 250.456 81.0614 251.336 L81.0614 233.975 Z" fill="#000000" fill-rule="evenodd" fill-opacity="1" /><polyline clip-path="url(#clip892)" style="stroke:#009af9; stroke-linecap:butt; stroke-linejoin:round; stroke-width:8; stroke-opacity:1; fill:none" points="
  137.964,1384.24 142.394,1361.11 146.823,1351.03 151.253,1348.09 155.682,1348.62 160.112,1350.5 164.542,1352.51 168.971,1354 173.401,1354.59 177.83,1354.1 
  182.26,1352.39 186.689,1349.3 191.119,1344.66 195.549,1338.23 199.978,1329.63 204.408,1318.33 208.837,1303.54 213.267,1283.95 217.697,1257.68 222.126,1221.81 
  226.556,1172.21 230.985,1105.2 235.415,1024.96 239.844,948.202 244.274,893.679 248.704,867.56 253.133,866.46 257.563,885.839 261.992,919.976 266.422,963.939 
  270.852,1012.89 275.281,1062.85 279.711,1110.99 284.14,1155.1 288.57,1194.35 293,1228.11 297.429,1255.69 301.859,1277.52 306.288,1293.78 310.718,1304.95 
  315.147,1311.56 319.577,1313.95 324.007,1312.34 328.436,1306.48 332.866,1295.56 337.295,1277.51 341.725,1248.5 346.155,1200.57 350.584,1116.2 355.014,972.58 
  359.443,796.523 363.873,664.649 368.302,595.592 372.732,576.53 377.162,597.085 381.591,644.905 386.021,707.614 390.45,776.403 394.88,846.16 399.31,914.158 
  403.739,978.616 408.169,1038.29 412.598,1092.57 417.028,1140.74 421.457,1182.82 425.887,1218.73 430.317,1248.64 434.746,1272.88 439.176,1291.63 443.605,1305.58 
  448.035,1315.07 452.465,1320.72 456.894,1322.89 461.324,1321.75 465.753,1317.18 470.183,1308.65 474.612,1295.04 479.042,1273.84 483.472,1239.99 487.901,1183.56 
  492.331,1085.48 496.76,925.868 501.19,757.303 505.62,645.909 510.049,592.238 514.479,586.722 518.908,617.006 523.338,670.841 527.767,736.452 532.197,806.447 
  536.627,876.467 541.056,943.915 545.486,1007.16 549.915,1065.11 554.345,1117.07 558.775,1162.72 563.204,1201.93 567.634,1235.05 572.063,1262.04 576.493,1283.44 
  580.922,1299.62 585.352,1311.08 589.782,1318.45 594.211,1322.11 598.641,1322.41 603.07,1319.34 607.5,1312.58 611.93,1301.28 616.359,1283.66 620.789,1255.83 
  625.218,1210.51 629.648,1132.28 634.077,998.233 638.507,821.842 642.937,684.253 647.366,608.056 651.796,583.735 656.225,600.851 660.655,646.485 665.085,708.364 
  669.514,777.246 673.944,847.609 678.373,916.37 682.803,981.537 687.232,1041.74 691.662,1096.3 696.092,1144.52 700.521,1186.43 704.951,1222.05 709.38,1251.51 
  713.81,1275.26 718.24,1293.47 722.669,1306.86 727.099,1315.86 731.528,1321.01 735.958,1322.69 740.387,1321.04 744.817,1315.89 749.247,1306.61 753.676,1291.94 
  758.106,1269.01 762.535,1232.23 766.965,1170.19 771.395,1062.39 775.824,894.59 780.254,733.57 784.683,632.881 789.113,588.024 793.542,589.544 797.972,624.742 
  802.402,681.357 806.831,748.159 811.261,818.385 815.69,888.127 820.12,954.96 824.55,1017.35 828.979,1074.35 833.409,1125.21 837.838,1169.81 842.268,1207.95 
  846.697,1240.01 851.127,1266.05 855.557,1286.5 859.986,1301.88 864.416,1312.59 868.845,1319.32 873.275,1322.4 877.705,1322.13 882.134,1318.48 886.564,1311.03 
  890.993,1298.83 895.423,1279.85 899.852,1249.72 904.282,1200.24 908.712,1114.48 913.141,969.443 917.571,794.36 922,667.354 926.43,600.576 930.86,584.14 
  935.289,606.876 939.719,656.088 944.148,719.64 948.578,789.078 953.007,859.355 957.437,927.616 961.867,992.035 966.296,1051.33 970.726,1104.84 975.155,1152.03 
  979.585,1192.83 984.015,1227.45 988.444,1255.88 992.874,1278.68 997.303,1296.06 1001.73,1308.65 1006.16,1316.99 1010.59,1321.52 1015.02,1322.65 1019.45,1320.43 
  1023.88,1313.89 1028.31,1283.64 1032.74,1249.22 1037.17,1204.94 1041.6,1143.34 1046.03,1058.3 1050.46,958.017 1054.89,871.809 1059.32,822.062 1063.75,807.382 
  1068.18,818.049 1072.61,844.395 1077.04,878.742 1081.47,915.538 1085.89,951.095 1090.32,983.399 1094.75,1011.47 1099.18,1034.98 1103.61,1054.13 1108.04,1069.16 
  1112.47,1080.46 1116.9,1088.51 1121.33,1093.63 1125.76,1096.25 1130.19,1096.73 1134.62,1095.39 1139.05,1092.58 1143.48,1088.65 1147.91,1083.92 1152.34,1078.73 
  1156.77,1073.44 1161.2,1068.34 1165.63,1063.66 1170.06,1059.54 1174.49,1056.14 1178.92,1053.65 1183.35,1052.03 1187.78,1051.04 1192.2,1050.66 1196.63,1050.97 
  1201.06,1051.8 1205.49,1052.82 1209.92,1053.95 1214.35,1055.33 1218.78,1056.81 1223.21,1058.07 1227.64,1059.14 1232.07,1060.21 1236.5,1061.19 1240.93,1061.8 
  1245.36,1062.18 1249.79,1062.53 1254.22,1062.79 1258.65,1062.74 1263.08,1062.54 1267.51,1062.4 1271.94,1062.26 1276.37,1061.89 1280.8,1061.49 1285.23,1061.25 
  1289.66,1061.07 1294.09,1060.72 1298.51,1060.42 1302.94,1060.3 1307.37,1060.27 1311.8,1060.08 1316.23,1059.95 1320.66,1060.01 1325.09,1060.12 1329.52,1060.05 
  1333.95,1060.03 1338.38,1060.18 1342.81,1060.34 1347.24,1060.3 1351.67,1060.31 1356.1,1060.46 1360.53,1060.6 1364.96,1060.53 1369.39,1060.52 1373.82,1060.63 
  1378.25,1060.73 1382.68,1060.62 1387.11,1060.57 1391.54,1060.66 1395.97,1060.72 1400.4,1060.58 1404.83,1060.53 1409.25,1060.61 1413.68,1060.65 1418.11,1060.51 
  1422.54,1060.47 1426.97,1060.56 1431.4,1060.59 1435.83,1060.47 1440.26,1060.44 1444.69,1060.54 1449.12,1060.57 1453.55,1060.45 1457.98,1060.44 1462.41,1060.55 
  1466.84,1060.58 1471.27,1060.46 1475.7,1060.46 1480.13,1060.58 1484.56,1060.58 1488.99,1060.47 1493.42,1060.47 1497.85,1060.59 1502.28,1060.59 1506.71,1060.47 
  1511.14,1060.48 1515.56,1060.6 1519.99,1060.58 1524.42,1060.47 1528.85,1060.49 1533.28,1060.6 1537.71,1060.57 1542.14,1060.46 1546.57,1060.49 1551,1060.61 
  1555.43,1060.56 1559.86,1060.46 1564.29,1060.49 1568.72,1060.61 1573.15,1060.55 1577.58,1060.45 1582.01,1060.5 1586.44,1060.61 1590.87,1060.55 1595.3,1060.45 
  1599.73,1060.5 1604.16,1060.62 1608.59,1060.54 1613.02,1060.45 1617.45,1060.51 1621.87,1060.62 1626.3,1060.53 1630.73,1060.45 1635.16,1060.52 1639.59,1060.62 
  1644.02,1060.53 1648.45,1060.45 1652.88,1060.52 1657.31,1060.62 1661.74,1060.52 1666.17,1060.45 1670.6,1060.53 1675.03,1060.62 1679.46,1060.51 1683.89,1060.45 
  1688.32,1060.54 1692.75,1060.62 1697.18,1060.51 1701.61,1060.45 1706.04,1060.54 1710.47,1060.62 1714.9,1060.5 1719.33,1060.45 1723.76,1060.55 1728.18,1060.61 
  1732.61,1060.49 1737.04,1060.45 1741.47,1060.56 1745.9,1060.61 1750.33,1060.49 1754.76,1060.46 1759.19,1060.56 1763.62,1060.61 1768.05,1060.48 1772.48,1060.46 
  1776.91,1060.57 1781.34,1060.6 1785.77,1060.48 1790.2,1060.46 1794.63,1060.58 1799.06,1060.59 1803.49,1060.47 1807.92,1060.47 1812.35,1060.58 1816.78,1060.59 
  1821.21,1060.47 1825.64,1060.47 1830.07,1060.59 1834.49,1060.58 1838.92,1060.47 1843.35,1060.48 1847.78,1060.59 1852.21,1060.58 1856.64,1060.46 1861.07,1060.48 
  1865.5,1060.6 1869.93,1060.57 1874.36,1060.46 1878.79,1060.49 1883.22,1060.61 1887.65,1060.56 1892.08,1060.46 1896.51,1060.49 1900.94,1060.61 1905.37,1060.56 
  1909.8,1060.45 1914.23,1060.5 1918.66,1060.61 1923.09,1060.55 1927.52,1060.45 1931.95,1060.5 1936.38,1060.62 1940.8,1060.54 1945.23,1060.45 1949.66,1060.51 
  1954.09,1060.62 1958.52,1060.53 1962.95,1060.45 1967.38,1060.52 1971.81,1060.62 1976.24,1060.53 1980.67,1060.45 1985.1,1060.52 1989.53,1060.62 1993.96,1060.52 
  1998.39,1060.45 2002.82,1060.53 2007.25,1060.62 2011.68,1060.51 2016.11,1060.45 2020.54,1060.54 2024.97,1060.62 2029.4,1060.51 2033.83,1060.45 2038.26,1060.54 
  2042.69,1060.62 2047.11,1060.5 2051.54,1060.45 2055.97,1060.55 2060.4,1060.61 2064.83,1060.5 2069.26,1060.45 2073.69,1060.56 2078.12,1060.61 2082.55,1060.49 
  2086.98,1060.46 2091.41,1060.56 2095.84,1060.61 2100.27,1060.48 2104.7,1060.46 2109.13,1060.57 2113.56,1060.6 2117.99,1060.48 2122.42,1060.46 2126.85,1060.58 
  2131.28,1060.59 2135.71,1060.47 2140.14,1060.47 2144.57,1060.58 2149,1060.59 2153.42,1060.47 2157.85,1060.47 2162.28,1060.59 2166.71,1060.58 2171.14,1060.47 
  2175.57,1060.48 2180,1060.59 2184.43,1060.58 2188.86,1060.46 2193.29,1060.48 2197.72,1060.6 2202.15,1060.57 2206.58,1060.46 2211.01,1060.49 2215.44,1060.6 
  2219.87,1060.56 2224.3,1060.46 2228.73,1060.49 2233.16,1060.61 2237.59,1060.56 2242.02,1060.45 2246.45,1060.5 2250.88,1060.61 2255.31,1060.55 2259.73,1060.45 
  2264.16,1060.5 2268.59,1060.62 2273.02,1060.54 2277.45,1060.45 2281.88,1060.51 2286.31,1060.62 2290.74,1060.53 2295.17,1060.45 2299.6,1060.52 2304.03,1060.62 
  2308.46,1060.53 2312.89,1060.45 2317.32,1060.52 2321.75,1060.62 2326.18,1060.52 2330.61,1060.45 2335.04,1060.53 2339.47,1060.62 2343.9,1060.56 2348.33,1060.54 
  2352.76,1060.55 
  "/>
<polyline clip-path="url(#clip892)" style="stroke:#e26f46; stroke-linecap:butt; stroke-linejoin:round; stroke-width:8; stroke-opacity:1; fill:none" points="
  137.964,1384.24 142.394,1345.22 146.823,1296.35 151.253,1241.57 155.682,1183.51 160.112,1123.83 164.542,1063.62 168.971,1003.58 173.401,944.216 177.83,885.921 
  182.26,829.073 186.689,774.073 191.119,721.394 195.549,671.608 199.978,625.488 204.408,584.042 208.837,548.69 213.267,521.531 217.697,505.59 222.126,505.449 
  226.556,527.475 230.985,578.591 235.415,657.768 239.844,749.504 244.274,832.483 248.704,895.079 253.133,935.224 257.563,953.033 261.992,950.605 266.422,930.455 
  270.852,895.984 275.281,850.539 279.711,797.079 284.14,738.348 288.57,676.156 293,612.206 297.429,548.246 301.859,485.111 306.288,423.733 310.718,364.716 
  315.147,308.497 319.577,255.599 324.007,206.615 328.436,162.625 332.866,125.353 337.295,98.0274 341.725,86.1857 346.155,100.991 350.584,165.013 355.014,310.856 
  359.443,522.259 363.873,721.254 368.302,877.291 372.732,992.135 377.162,1066.84 381.591,1107.27 386.021,1121.57 390.45,1116.54 394.88,1096.61 399.31,1064.64 
  403.739,1022.95 408.169,973.582 412.598,918.24 417.028,858.734 421.457,796.309 425.887,732.25 430.317,667.604 434.746,603.234 439.176,540.049 443.605,478.415 
  448.035,418.89 452.465,361.704 456.894,307.227 461.324,255.958 465.753,208.676 470.183,166.654 474.612,131.898 479.042,108.155 483.472,102.362 487.901,128.092 
  492.331,210.47 496.76,380.236 501.19,593.186 505.62,777.448 510.049,920.253 514.479,1020.7 518.908,1082.65 523.338,1112.41 527.767,1118.3 532.197,1106.14 
  536.627,1079.92 541.056,1042.48 545.486,996.14 549.915,942.971 554.345,884.804 558.775,823.172 563.204,759.487 567.634,694.683 572.063,629.993 576.493,566.06 
  580.922,503.6 585.352,443.104 589.782,384.82 594.211,329.154 598.641,276.456 603.07,227.395 607.5,182.999 611.93,144.934 616.359,116.042 620.789,101.751 
  625.218,112.106 629.648,167.521 634.077,299.548 638.507,506.017 642.937,706.167 647.366,866.218 651.796,984.31 656.225,1061.37 660.655,1103.47 665.085,1118.39 
  669.514,1113.11 673.944,1092.36 678.373,1059.26 682.803,1016.34 687.232,965.809 691.662,909.469 696.092,849.153 700.521,786.154 704.951,721.688 709.38,656.873 
  713.81,592.472 718.24,529.401 722.669,468.008 727.099,408.773 731.528,351.986 735.958,297.981 740.387,247.314 744.817,200.815 749.247,159.87 753.676,126.675 
  758.106,105.432 762.535,103.796 766.965,137.231 771.395,232.876 775.824,416.428 780.254,627.527 784.683,804.747 789.113,940.452 793.542,1033.91 797.972,1089.84 
  802.402,1114.97 806.831,1117.42 811.261,1102.66 815.69,1074.34 820.12,1035.24 824.55,987.632 828.979,933.477 833.409,874.655 837.838,812.564 842.268,748.641 
  846.697,683.791 851.127,619.155 855.557,555.464 859.986,493.274 864.416,433.149 868.845,375.281 873.275,320.077 877.705,267.939 882.134,219.576 886.564,176.111 
  890.993,139.331 895.423,112.422 899.852,101.382 904.282,117.536 908.712,183.18 913.141,330.938 917.571,541.998 922,736.02 926.43,889.027 930.86,999.918 
  935.289,1070.7 939.719,1107.63 944.148,1118.76 948.578,1110.61 953.007,1087.58 957.437,1052.67 961.867,1008.32 966.296,956.689 970.726,899.574 975.155,838.699 
  979.585,775.405 984.015,710.768 988.444,646 992.874,581.764 997.303,518.936 1001.73,457.9 1006.16,399.036 1010.59,342.701 1015.02,289.211 1019.45,239.174 
  1023.88,194.249 1028.31,176.825 1032.74,169.944 1037.17,180.698 1041.6,219.22 1046.03,295.803 1050.46,406.512 1054.89,522.335 1059.32,615.467 1063.75,679.809 
  1068.18,719.048 1072.61,738.752 1077.04,744.273 1081.47,740.162 1085.89,730.003 1090.32,716.284 1094.75,700.768 1099.18,684.626 1103.61,668.607 1108.04,653.293 
  1112.47,639.069 1116.9,626.185 1121.33,614.912 1125.76,605.368 1130.19,597.666 1134.62,591.873 1139.05,587.966 1143.48,585.865 1147.91,585.427 1152.34,586.433 
  1156.77,588.601 1161.2,591.643 1165.63,595.262 1170.06,599.175 1174.49,603.102 1178.92,606.732 1183.35,609.929 1187.78,612.732 1192.2,615.032 1196.63,616.672 
  1201.06,617.696 1205.49,618.334 1209.92,618.599 1214.35,618.397 1218.78,617.837 1223.21,617.195 1227.64,616.474 1232.07,615.574 1236.5,614.592 1240.93,613.779 
  1245.36,613.075 1249.79,612.357 1254.22,611.698 1258.65,611.3 1263.08,611.046 1267.51,610.798 1271.94,610.614 1276.37,610.666 1280.8,610.8 1285.23,610.882 
  1289.66,610.971 1294.09,611.233 1298.51,611.502 1302.94,611.655 1307.37,611.768 1311.8,612.014 1316.23,612.222 1320.66,612.285 1325.09,612.3 1329.52,612.441 
  1333.95,612.532 1338.38,612.483 1342.81,612.404 1347.24,612.464 1351.67,612.479 1356.1,612.37 1360.53,612.258 1364.96,612.297 1369.39,612.294 1373.82,612.18 
  1378.25,612.085 1382.68,612.144 1387.11,612.156 1391.54,612.063 1395.97,612.002 1400.4,612.089 1404.83,612.118 1409.25,612.043 1413.68,612.009 1418.11,612.111 
  1422.54,612.146 1426.97,612.075 1431.4,612.054 1435.83,612.158 1440.26,612.186 1444.69,612.109 1449.12,612.093 1453.55,612.191 1457.98,612.207 1462.41,612.121 
  1466.84,612.108 1471.27,612.201 1475.7,612.205 1480.13,612.114 1484.56,612.107 1488.99,612.197 1493.42,612.193 1497.85,612.099 1502.28,612.102 1506.71,612.19 
  1511.14,612.181 1515.56,612.087 1519.99,612.101 1524.42,612.188 1528.85,612.174 1533.28,612.081 1537.71,612.106 1542.14,612.191 1546.57,612.171 1551,612.079 
  1555.43,612.113 1559.86,612.195 1564.29,612.169 1568.72,612.078 1573.15,612.12 1577.58,612.199 1582.01,612.166 1586.44,612.076 1590.87,612.127 1595.3,612.201 
  1599.73,612.161 1604.16,612.074 1608.59,612.132 1613.02,612.202 1617.45,612.156 1621.87,612.072 1626.3,612.137 1630.73,612.202 1635.16,612.151 1639.59,612.07 
  1644.02,612.142 1648.45,612.202 1652.88,612.145 1657.31,612.069 1661.74,612.147 1666.17,612.201 1670.6,612.14 1675.03,612.069 1679.46,612.152 1683.89,612.201 
  1688.32,612.135 1692.75,612.07 1697.18,612.157 1701.61,612.2 1706.04,612.13 1710.47,612.072 1714.9,612.162 1719.33,612.199 1723.76,612.124 1728.18,612.075 
  1732.61,612.167 1737.04,612.198 1741.47,612.119 1745.9,612.078 1750.33,612.171 1754.76,612.196 1759.19,612.114 1763.62,612.081 1768.05,612.175 1772.48,612.194 
  1776.91,612.109 1781.34,612.085 1785.77,612.179 1790.2,612.191 1794.63,612.103 1799.06,612.09 1803.49,612.183 1807.92,612.188 1812.35,612.099 1816.78,612.094 
  1821.21,612.186 1825.64,612.185 1830.07,612.094 1834.49,612.099 1838.92,612.189 1843.35,612.182 1847.78,612.09 1852.21,612.104 1856.64,612.192 1861.07,612.178 
  1865.5,612.086 1869.93,612.11 1874.36,612.195 1878.79,612.174 1883.22,612.082 1887.65,612.115 1892.08,612.197 1896.51,612.17 1900.94,612.078 1905.37,612.12 
  1909.8,612.198 1914.23,612.165 1918.66,612.076 1923.09,612.126 1927.52,612.2 1931.95,612.161 1936.38,612.073 1940.8,612.131 1945.23,612.201 1949.66,612.156 
  1954.09,612.071 1958.52,612.136 1962.95,612.201 1967.38,612.151 1971.81,612.07 1976.24,612.142 1980.67,612.202 1985.1,612.146 1989.53,612.069 1993.96,612.147 
  1998.39,612.202 2002.82,612.14 2007.25,612.069 2011.68,612.152 2016.11,612.201 2020.54,612.135 2024.97,612.07 2029.4,612.157 2033.83,612.2 2038.26,612.13 
  2042.69,612.072 2047.11,612.162 2051.54,612.199 2055.97,612.124 2060.4,612.074 2064.83,612.167 2069.26,612.198 2073.69,612.119 2078.12,612.078 2082.55,612.171 
  2086.98,612.196 2091.41,612.114 2095.84,612.081 2100.27,612.175 2104.7,612.194 2109.13,612.109 2113.56,612.085 2117.99,612.179 2122.42,612.191 2126.85,612.104 
  2131.28,612.09 2135.71,612.183 2140.14,612.188 2144.57,612.099 2149,612.094 2153.42,612.186 2157.85,612.185 2162.28,612.094 2166.71,612.099 2171.14,612.189 
  2175.57,612.182 2180,612.09 2184.43,612.104 2188.86,612.192 2193.29,612.178 2197.72,612.086 2202.15,612.109 2206.58,612.194 2211.01,612.174 2215.44,612.082 
  2219.87,612.115 2224.3,612.197 2228.73,612.17 2233.16,612.079 2237.59,612.12 2242.02,612.198 2246.45,612.165 2250.88,612.076 2255.31,612.125 2259.73,612.2 
  2264.16,612.161 2268.59,612.073 2273.02,612.131 2277.45,612.201 2281.88,612.156 2286.31,612.071 2290.74,612.136 2295.17,612.201 2299.6,612.151 2304.03,612.07 
  2308.46,612.142 2312.89,612.202 2317.32,612.146 2321.75,612.069 2326.18,612.147 2330.61,612.202 2335.04,612.141 2339.47,612.069 2343.9,612.117 2348.33,612.132 
  2352.76,612.127 
  "/>
<path clip-path="url(#clip890)" d="
M1917.19 274.549 L2278.93 274.549 L2278.93 93.1086 L1917.19 93.1086  Z
  " fill="#ffffff" fill-rule="evenodd" fill-opacity="1"/>
<polyline clip-path="url(#clip890)" style="stroke:#000000; stroke-linecap:butt; stroke-linejoin:round; stroke-width:4; stroke-opacity:1; fill:none" points="
  1917.19,274.549 2278.93,274.549 2278.93,93.1086 1917.19,93.1086 1917.19,274.549 
  "/>
<polyline clip-path="url(#clip890)" style="stroke:#009af9; stroke-linecap:butt; stroke-linejoin:round; stroke-width:4; stroke-opacity:1; fill:none" points="
  1941.8,153.589 2089.46,153.589 
  "/>
<path clip-path="url(#clip890)" d="M2114.06 180.73 L2114.06 144.943 L2118.32 144.943 L2118.32 161.054 Q2118.32 164.41 2119.92 166.123 Q2121.52 167.836 2124.64 167.836 Q2128.07 167.836 2129.78 165.892 Q2131.52 163.947 2131.52 160.058 L2131.52 144.943 L2135.78 144.943 L2135.78 164.896 Q2135.78 166.285 2136.17 166.957 Q2136.59 167.605 2137.44 167.605 Q2137.65 167.605 2138.02 167.489 Q2138.39 167.35 2139.04 167.072 L2139.04 170.498 Q2138.09 171.031 2137.24 171.285 Q2136.4 171.54 2135.59 171.54 Q2133.99 171.54 2133.05 170.637 Q2132.1 169.734 2131.75 167.883 Q2130.59 169.711 2128.9 170.637 Q2127.24 171.54 2124.97 171.54 Q2122.61 171.54 2120.94 170.637 Q2119.3 169.734 2118.32 167.929 L2118.32 180.73 L2114.06 180.73 Z" fill="#000000" fill-rule="evenodd" fill-opacity="1" /><path clip-path="url(#clip890)" d="M2143.81 168.322 L2148.53 168.322 L2148.53 154.179 L2143.37 155.128 L2143.37 152.443 L2148.69 151.54 L2151.87 151.54 L2151.87 168.322 L2156.61 168.322 L2156.61 170.869 L2143.81 170.869 L2143.81 168.322 Z" fill="#000000" fill-rule="evenodd" fill-opacity="1" /><path clip-path="url(#clip890)" d="M2172.4 155.197 Q2171.24 153.207 2168.9 153.207 Q2166.56 153.207 2165.41 155.197 Q2164.23 157.188 2164.23 161.17 Q2164.23 165.174 2165.41 167.165 Q2166.56 169.156 2168.9 169.156 Q2171.24 169.156 2172.4 167.165 Q2173.58 165.174 2173.58 161.17 Q2173.58 157.188 2172.4 155.197 M2168.9 151.147 Q2172.63 151.147 2174.6 153.716 Q2176.56 156.285 2176.56 161.17 Q2176.56 166.077 2174.6 168.646 Q2172.63 171.216 2168.9 171.216 Q2165.15 171.216 2163.18 168.646 Q2161.22 166.077 2161.22 161.17 Q2161.22 156.285 2163.18 153.716 Q2165.15 151.147 2168.9 151.147 Z" fill="#000000" fill-rule="evenodd" fill-opacity="1" /><path clip-path="url(#clip890)" d="M2192.91 134.897 Q2189.8 140.221 2188.3 145.429 Q2186.8 150.637 2186.8 155.984 Q2186.8 161.332 2188.3 166.586 Q2189.83 171.818 2192.91 177.119 L2189.2 177.119 Q2185.73 171.679 2183.99 166.424 Q2182.28 161.17 2182.28 155.984 Q2182.28 150.822 2183.99 145.591 Q2185.71 140.36 2189.2 134.897 L2192.91 134.897 Z" fill="#000000" fill-rule="evenodd" fill-opacity="1" /><path clip-path="url(#clip890)" d="M2205.38 137.582 L2205.38 144.943 L2214.16 144.943 L2214.16 148.253 L2205.38 148.253 L2205.38 162.327 Q2205.38 165.498 2206.24 166.401 Q2207.12 167.304 2209.78 167.304 L2214.16 167.304 L2214.16 170.869 L2209.78 170.869 Q2204.85 170.869 2202.98 169.04 Q2201.1 167.188 2201.1 162.327 L2201.1 148.253 L2197.98 148.253 L2197.98 144.943 L2201.1 144.943 L2201.1 137.582 L2205.38 137.582 Z" fill="#000000" fill-rule="evenodd" fill-opacity="1" /><path clip-path="url(#clip890)" d="M2219.09 134.897 L2222.79 134.897 Q2226.26 140.36 2227.98 145.591 Q2229.71 150.822 2229.71 155.984 Q2229.71 161.17 2227.98 166.424 Q2226.26 171.679 2222.79 177.119 L2219.09 177.119 Q2222.17 171.818 2223.67 166.586 Q2225.2 161.332 2225.2 155.984 Q2225.2 150.637 2223.67 145.429 Q2222.17 140.221 2219.09 134.897 Z" fill="#000000" fill-rule="evenodd" fill-opacity="1" /><polyline clip-path="url(#clip890)" style="stroke:#e26f46; stroke-linecap:butt; stroke-linejoin:round; stroke-width:4; stroke-opacity:1; fill:none" points="
  1941.8,214.069 2089.46,214.069 
  "/>
<path clip-path="url(#clip890)" d="M2114.06 241.21 L2114.06 205.423 L2118.32 205.423 L2118.32 221.534 Q2118.32 224.89 2119.92 226.603 Q2121.52 228.316 2124.64 228.316 Q2128.07 228.316 2129.78 226.372 Q2131.52 224.427 2131.52 220.538 L2131.52 205.423 L2135.78 205.423 L2135.78 225.376 Q2135.78 226.765 2136.17 227.437 Q2136.59 228.085 2137.44 228.085 Q2137.65 228.085 2138.02 227.969 Q2138.39 227.83 2139.04 227.552 L2139.04 230.978 Q2138.09 231.511 2137.24 231.765 Q2136.4 232.02 2135.59 232.02 Q2133.99 232.02 2133.05 231.117 Q2132.1 230.214 2131.75 228.363 Q2130.59 230.191 2128.9 231.117 Q2127.24 232.02 2124.97 232.02 Q2122.61 232.02 2120.94 231.117 Q2119.3 230.214 2118.32 228.409 L2118.32 241.21 L2114.06 241.21 Z" fill="#000000" fill-rule="evenodd" fill-opacity="1" /><path clip-path="url(#clip890)" d="M2153.39 215.677 Q2152.24 213.687 2149.9 213.687 Q2147.56 213.687 2146.4 215.677 Q2145.22 217.668 2145.22 221.65 Q2145.22 225.654 2146.4 227.645 Q2147.56 229.636 2149.9 229.636 Q2152.24 229.636 2153.39 227.645 Q2154.57 225.654 2154.57 221.65 Q2154.57 217.668 2153.39 215.677 M2149.9 211.627 Q2153.62 211.627 2155.59 214.196 Q2157.56 216.765 2157.56 221.65 Q2157.56 226.557 2155.59 229.126 Q2153.62 231.696 2149.9 231.696 Q2146.15 231.696 2144.18 229.126 Q2142.21 226.557 2142.21 221.65 Q2142.21 216.765 2144.18 214.196 Q2146.15 211.627 2149.9 211.627 Z" fill="#000000" fill-rule="evenodd" fill-opacity="1" /><path clip-path="url(#clip890)" d="M2162.81 228.802 L2167.54 228.802 L2167.54 214.659 L2162.37 215.608 L2162.37 212.923 L2167.7 212.02 L2170.87 212.02 L2170.87 228.802 L2175.61 228.802 L2175.61 231.349 L2162.81 231.349 L2162.81 228.802 Z" fill="#000000" fill-rule="evenodd" fill-opacity="1" /><path clip-path="url(#clip890)" d="M2192.91 195.377 Q2189.8 200.701 2188.3 205.909 Q2186.8 211.117 2186.8 216.464 Q2186.8 221.812 2188.3 227.066 Q2189.83 232.298 2192.91 237.599 L2189.2 237.599 Q2185.73 232.159 2183.99 226.904 Q2182.28 221.65 2182.28 216.464 Q2182.28 211.302 2183.99 206.071 Q2185.71 200.84 2189.2 195.377 L2192.91 195.377 Z" fill="#000000" fill-rule="evenodd" fill-opacity="1" /><path clip-path="url(#clip890)" d="M2205.38 198.062 L2205.38 205.423 L2214.16 205.423 L2214.16 208.733 L2205.38 208.733 L2205.38 222.807 Q2205.38 225.978 2206.24 226.881 Q2207.12 227.784 2209.78 227.784 L2214.16 227.784 L2214.16 231.349 L2209.78 231.349 Q2204.85 231.349 2202.98 229.52 Q2201.1 227.668 2201.1 222.807 L2201.1 208.733 L2197.98 208.733 L2197.98 205.423 L2201.1 205.423 L2201.1 198.062 L2205.38 198.062 Z" fill="#000000" fill-rule="evenodd" fill-opacity="1" /><path clip-path="url(#clip890)" d="M2219.09 195.377 L2222.79 195.377 Q2226.26 200.84 2227.98 206.071 Q2229.71 211.302 2229.71 216.464 Q2229.71 221.65 2227.98 226.904 Q2226.26 232.159 2222.79 237.599 L2219.09 237.599 Q2222.17 232.298 2223.67 227.066 Q2225.2 221.812 2225.2 216.464 Q2225.2 211.117 2223.67 205.909 Q2222.17 200.701 2219.09 195.377 Z" fill="#000000" fill-rule="evenodd" fill-opacity="1" /></svg>
