<?xml version="1.0" encoding="utf-8"?>
<svg xmlns="http://www.w3.org/2000/svg" xmlns:xlink="http://www.w3.org/1999/xlink" width="600" height="400" viewBox="0 0 2400 1600">
<defs>
  <clipPath id="clip970">
    <rect x="0" y="0" width="2400" height="1600"/>
  </clipPath>
</defs>
<path clip-path="url(#clip970)" d="
M0 1600 L2400 1600 L2400 0 L0 0  Z
  " fill="#ffffff" fill-rule="evenodd" fill-opacity="1"/>
<defs>
  <clipPath id="clip971">
    <rect x="480" y="0" width="1681" height="1600"/>
  </clipPath>
</defs>
<path clip-path="url(#clip970)" d="
M166.205 1423.18 L2352.76 1423.18 L2352.76 47.2441 L166.205 47.2441  Z
  " fill="#ffffff" fill-rule="evenodd" fill-opacity="1"/>
<defs>
  <clipPath id="clip972">
    <rect x="166" y="47" width="2188" height="1377"/>
  </clipPath>
</defs>
<polyline clip-path="url(#clip972)" style="stroke:#000000; stroke-width:2; stroke-opacity:0.1; fill:none" points="
  166.205,1423.18 166.205,47.2441 
  "/>
<polyline clip-path="url(#clip972)" style="stroke:#000000; stroke-width:2; stroke-opacity:0.1; fill:none" points="
  672.351,1423.18 672.351,47.2441 
  "/>
<polyline clip-path="url(#clip972)" style="stroke:#000000; stroke-width:2; stroke-opacity:0.1; fill:none" points="
  1178.5,1423.18 1178.5,47.2441 
  "/>
<polyline clip-path="url(#clip972)" style="stroke:#000000; stroke-width:2; stroke-opacity:0.1; fill:none" points="
  1684.64,1423.18 1684.64,47.2441 
  "/>
<polyline clip-path="url(#clip972)" style="stroke:#000000; stroke-width:2; stroke-opacity:0.1; fill:none" points="
  2190.79,1423.18 2190.79,47.2441 
  "/>
<polyline clip-path="url(#clip970)" style="stroke:#000000; stroke-width:4; stroke-opacity:1; fill:none" points="
  166.205,1423.18 2352.76,1423.18 
  "/>
<polyline clip-path="url(#clip970)" style="stroke:#000000; stroke-width:4; stroke-opacity:1; fill:none" points="
  166.205,1423.18 166.205,1406.67 
  "/>
<polyline clip-path="url(#clip970)" style="stroke:#000000; stroke-width:4; stroke-opacity:1; fill:none" points="
  672.351,1423.18 672.351,1406.67 
  "/>
<polyline clip-path="url(#clip970)" style="stroke:#000000; stroke-width:4; stroke-opacity:1; fill:none" points="
  1178.5,1423.18 1178.5,1406.67 
  "/>
<polyline clip-path="url(#clip970)" style="stroke:#000000; stroke-width:4; stroke-opacity:1; fill:none" points="
  1684.64,1423.18 1684.64,1406.67 
  "/>
<polyline clip-path="url(#clip970)" style="stroke:#000000; stroke-width:4; stroke-opacity:1; fill:none" points="
  2190.79,1423.18 2190.79,1406.67 
  "/>
<path clip-path="url(#clip970)" d="M 0 0 M147.721 1452.37 Q144.11 1452.37 142.281 1455.94 Q140.476 1459.48 140.476 1466.61 Q140.476 1473.71 142.281 1477.28 Q144.11 1480.82 147.721 1480.82 Q151.355 1480.82 153.161 1477.28 Q154.989 1473.71 154.989 1466.61 Q154.989 1459.48 153.161 1455.94 Q151.355 1452.37 147.721 1452.37 M147.721 1448.67 Q153.531 1448.67 156.587 1453.27 Q159.665 1457.86 159.665 1466.61 Q159.665 1475.33 156.587 1479.94 Q153.531 1484.52 147.721 1484.52 Q141.911 1484.52 138.832 1479.94 Q135.777 1475.33 135.777 1466.61 Q135.777 1457.86 138.832 1453.27 Q141.911 1448.67 147.721 1448.67 Z" fill="#000000" fill-rule="evenodd" fill-opacity="1" /><path clip-path="url(#clip970)" d="M 0 0 M164.735 1477.97 L169.619 1477.97 L169.619 1483.85 L164.735 1483.85 L164.735 1477.97 Z" fill="#000000" fill-rule="evenodd" fill-opacity="1" /><path clip-path="url(#clip970)" d="M 0 0 M184.688 1452.37 Q181.077 1452.37 179.249 1455.94 Q177.443 1459.48 177.443 1466.61 Q177.443 1473.71 179.249 1477.28 Q181.077 1480.82 184.688 1480.82 Q188.323 1480.82 190.128 1477.28 Q191.957 1473.71 191.957 1466.61 Q191.957 1459.48 190.128 1455.94 Q188.323 1452.37 184.688 1452.37 M184.688 1448.67 Q190.499 1448.67 193.554 1453.27 Q196.633 1457.86 196.633 1466.61 Q196.633 1475.33 193.554 1479.94 Q190.499 1484.52 184.688 1484.52 Q178.878 1484.52 175.8 1479.94 Q172.744 1475.33 172.744 1466.61 Q172.744 1457.86 175.8 1453.27 Q178.878 1448.67 184.688 1448.67 Z" fill="#000000" fill-rule="evenodd" fill-opacity="1" /><path clip-path="url(#clip970)" d="M 0 0 M649.018 1479.92 L665.337 1479.92 L665.337 1483.85 L643.393 1483.85 L643.393 1479.92 Q646.055 1477.16 650.638 1472.53 Q655.244 1467.88 656.425 1466.54 Q658.67 1464.01 659.55 1462.28 Q660.453 1460.52 660.453 1458.83 Q660.453 1456.07 658.508 1454.34 Q656.587 1452.6 653.485 1452.6 Q651.286 1452.6 648.832 1453.37 Q646.402 1454.13 643.624 1455.68 L643.624 1450.96 Q646.448 1449.82 648.902 1449.25 Q651.356 1448.67 653.393 1448.67 Q658.763 1448.67 661.957 1451.35 Q665.152 1454.04 665.152 1458.53 Q665.152 1460.66 664.342 1462.58 Q663.555 1464.48 661.448 1467.07 Q660.869 1467.74 657.768 1470.96 Q654.666 1474.15 649.018 1479.92 Z" fill="#000000" fill-rule="evenodd" fill-opacity="1" /><path clip-path="url(#clip970)" d="M 0 0 M670.406 1477.97 L675.291 1477.97 L675.291 1483.85 L670.406 1483.85 L670.406 1477.97 Z" fill="#000000" fill-rule="evenodd" fill-opacity="1" /><path clip-path="url(#clip970)" d="M 0 0 M680.406 1449.29 L698.763 1449.29 L698.763 1453.23 L684.689 1453.23 L684.689 1461.7 Q685.707 1461.35 686.726 1461.19 Q687.744 1461 688.763 1461 Q694.55 1461 697.929 1464.18 Q701.309 1467.35 701.309 1472.76 Q701.309 1478.34 697.837 1481.44 Q694.365 1484.52 688.045 1484.52 Q685.869 1484.52 683.601 1484.15 Q681.355 1483.78 678.948 1483.04 L678.948 1478.34 Q681.031 1479.48 683.254 1480.03 Q685.476 1480.59 687.953 1480.59 Q691.957 1480.59 694.295 1478.48 Q696.633 1476.38 696.633 1472.76 Q696.633 1469.15 694.295 1467.05 Q691.957 1464.94 687.953 1464.94 Q686.078 1464.94 684.203 1465.36 Q682.351 1465.77 680.406 1466.65 L680.406 1449.29 Z" fill="#000000" fill-rule="evenodd" fill-opacity="1" /><path clip-path="url(#clip970)" d="M 0 0 M1150.29 1449.29 L1168.65 1449.29 L1168.65 1453.23 L1154.57 1453.23 L1154.57 1461.7 Q1155.59 1461.35 1156.61 1461.19 Q1157.63 1461 1158.65 1461 Q1164.43 1461 1167.81 1464.18 Q1171.19 1467.35 1171.19 1472.76 Q1171.19 1478.34 1167.72 1481.44 Q1164.25 1484.52 1157.93 1484.52 Q1155.75 1484.52 1153.49 1484.15 Q1151.24 1483.78 1148.83 1483.04 L1148.83 1478.34 Q1150.92 1479.48 1153.14 1480.03 Q1155.36 1480.59 1157.84 1480.59 Q1161.84 1480.59 1164.18 1478.48 Q1166.52 1476.38 1166.52 1472.76 Q1166.52 1469.15 1164.18 1467.05 Q1161.84 1464.94 1157.84 1464.94 Q1155.96 1464.94 1154.09 1465.36 Q1152.24 1465.77 1150.29 1466.65 L1150.29 1449.29 Z" fill="#000000" fill-rule="evenodd" fill-opacity="1" /><path clip-path="url(#clip970)" d="M 0 0 M1176.26 1477.97 L1181.15 1477.97 L1181.15 1483.85 L1176.26 1483.85 L1176.26 1477.97 Z" fill="#000000" fill-rule="evenodd" fill-opacity="1" /><path clip-path="url(#clip970)" d="M 0 0 M1196.22 1452.37 Q1192.61 1452.37 1190.78 1455.94 Q1188.97 1459.48 1188.97 1466.61 Q1188.97 1473.71 1190.78 1477.28 Q1192.61 1480.82 1196.22 1480.82 Q1199.85 1480.82 1201.66 1477.28 Q1203.49 1473.71 1203.49 1466.61 Q1203.49 1459.48 1201.66 1455.94 Q1199.85 1452.37 1196.22 1452.37 M1196.22 1448.67 Q1202.03 1448.67 1205.08 1453.27 Q1208.16 1457.86 1208.16 1466.61 Q1208.16 1475.33 1205.08 1479.94 Q1202.03 1484.52 1196.22 1484.52 Q1190.41 1484.52 1187.33 1479.94 Q1184.27 1475.33 1184.27 1466.61 Q1184.27 1457.86 1187.33 1453.27 Q1190.41 1448.67 1196.22 1448.67 Z" fill="#000000" fill-rule="evenodd" fill-opacity="1" /><path clip-path="url(#clip970)" d="M 0 0 M1655.55 1449.29 L1677.77 1449.29 L1677.77 1451.28 L1665.22 1483.85 L1660.34 1483.85 L1672.14 1453.23 L1655.55 1453.23 L1655.55 1449.29 Z" fill="#000000" fill-rule="evenodd" fill-opacity="1" /><path clip-path="url(#clip970)" d="M 0 0 M1682.84 1477.97 L1687.72 1477.97 L1687.72 1483.85 L1682.84 1483.85 L1682.84 1477.97 Z" fill="#000000" fill-rule="evenodd" fill-opacity="1" /><path clip-path="url(#clip970)" d="M 0 0 M1692.84 1449.29 L1711.19 1449.29 L1711.19 1453.23 L1697.12 1453.23 L1697.12 1461.7 Q1698.14 1461.35 1699.16 1461.19 Q1700.18 1461 1701.19 1461 Q1706.98 1461 1710.36 1464.18 Q1713.74 1467.35 1713.74 1472.76 Q1713.74 1478.34 1710.27 1481.44 Q1706.8 1484.52 1700.48 1484.52 Q1698.3 1484.52 1696.03 1484.15 Q1693.79 1483.78 1691.38 1483.04 L1691.38 1478.34 Q1693.46 1479.48 1695.68 1480.03 Q1697.91 1480.59 1700.38 1480.59 Q1704.39 1480.59 1706.73 1478.48 Q1709.06 1476.38 1709.06 1472.76 Q1709.06 1469.15 1706.73 1467.05 Q1704.39 1464.94 1700.38 1464.94 Q1698.51 1464.94 1696.63 1465.36 Q1694.78 1465.77 1692.84 1466.65 L1692.84 1449.29 Z" fill="#000000" fill-rule="evenodd" fill-opacity="1" /><path clip-path="url(#clip970)" d="M 0 0 M2149.18 1479.92 L2156.82 1479.92 L2156.82 1453.55 L2148.51 1455.22 L2148.51 1450.96 L2156.77 1449.29 L2161.45 1449.29 L2161.45 1479.92 L2169.09 1479.92 L2169.09 1483.85 L2149.18 1483.85 L2149.18 1479.92 Z" fill="#000000" fill-rule="evenodd" fill-opacity="1" /><path clip-path="url(#clip970)" d="M 0 0 M2184.16 1452.37 Q2180.55 1452.37 2178.72 1455.94 Q2176.91 1459.48 2176.91 1466.61 Q2176.91 1473.71 2178.72 1477.28 Q2180.55 1480.82 2184.16 1480.82 Q2187.79 1480.82 2189.6 1477.28 Q2191.43 1473.71 2191.43 1466.61 Q2191.43 1459.48 2189.6 1455.94 Q2187.79 1452.37 2184.16 1452.37 M2184.16 1448.67 Q2189.97 1448.67 2193.02 1453.27 Q2196.1 1457.86 2196.1 1466.61 Q2196.1 1475.33 2193.02 1479.94 Q2189.97 1484.52 2184.16 1484.52 Q2178.35 1484.52 2175.27 1479.94 Q2172.21 1475.33 2172.21 1466.61 Q2172.21 1457.86 2175.27 1453.27 Q2178.35 1448.67 2184.16 1448.67 Z" fill="#000000" fill-rule="evenodd" fill-opacity="1" /><path clip-path="url(#clip970)" d="M 0 0 M2201.17 1477.97 L2206.06 1477.97 L2206.06 1483.85 L2201.17 1483.85 L2201.17 1477.97 Z" fill="#000000" fill-rule="evenodd" fill-opacity="1" /><path clip-path="url(#clip970)" d="M 0 0 M2221.12 1452.37 Q2217.51 1452.37 2215.68 1455.94 Q2213.88 1459.48 2213.88 1466.61 Q2213.88 1473.71 2215.68 1477.28 Q2217.51 1480.82 2221.12 1480.82 Q2224.76 1480.82 2226.56 1477.28 Q2228.39 1473.71 2228.39 1466.61 Q2228.39 1459.48 2226.56 1455.94 Q2224.76 1452.37 2221.12 1452.37 M2221.12 1448.67 Q2226.93 1448.67 2229.99 1453.27 Q2233.07 1457.86 2233.07 1466.61 Q2233.07 1475.33 2229.99 1479.94 Q2226.93 1484.52 2221.12 1484.52 Q2215.31 1484.52 2212.24 1479.94 Q2209.18 1475.33 2209.18 1466.61 Q2209.18 1457.86 2212.24 1453.27 Q2215.31 1448.67 2221.12 1448.67 Z" fill="#000000" fill-rule="evenodd" fill-opacity="1" /><path clip-path="url(#clip970)" d="M 0 0 M1258.54 1522.27 L1258.54 1532.4 L1270.6 1532.4 L1270.6 1536.95 L1258.54 1536.95 L1258.54 1556.3 Q1258.54 1560.66 1259.72 1561.9 Q1260.93 1563.14 1264.59 1563.14 L1270.6 1563.14 L1270.6 1568.04 L1264.59 1568.04 Q1257.81 1568.04 1255.23 1565.53 Q1252.65 1562.98 1252.65 1556.3 L1252.65 1536.95 L1248.36 1536.95 L1248.36 1532.4 L1252.65 1532.4 L1252.65 1522.27 L1258.54 1522.27 Z" fill="#000000" fill-rule="evenodd" fill-opacity="1" /><polyline clip-path="url(#clip972)" style="stroke:#000000; stroke-width:2; stroke-opacity:0.1; fill:none" points="
  166.205,1386.66 2352.76,1386.66 
  "/>
<polyline clip-path="url(#clip972)" style="stroke:#000000; stroke-width:2; stroke-opacity:0.1; fill:none" points="
  166.205,1144.98 2352.76,1144.98 
  "/>
<polyline clip-path="url(#clip972)" style="stroke:#000000; stroke-width:2; stroke-opacity:0.1; fill:none" points="
  166.205,903.305 2352.76,903.305 
  "/>
<polyline clip-path="url(#clip972)" style="stroke:#000000; stroke-width:2; stroke-opacity:0.1; fill:none" points="
  166.205,661.631 2352.76,661.631 
  "/>
<polyline clip-path="url(#clip972)" style="stroke:#000000; stroke-width:2; stroke-opacity:0.1; fill:none" points="
  166.205,419.956 2352.76,419.956 
  "/>
<polyline clip-path="url(#clip972)" style="stroke:#000000; stroke-width:2; stroke-opacity:0.1; fill:none" points="
  166.205,178.281 2352.76,178.281 
  "/>
<polyline clip-path="url(#clip970)" style="stroke:#000000; stroke-width:4; stroke-opacity:1; fill:none" points="
  166.205,1423.18 166.205,47.2441 
  "/>
<polyline clip-path="url(#clip970)" style="stroke:#000000; stroke-width:4; stroke-opacity:1; fill:none" points="
  166.205,1386.66 192.443,1386.66 
  "/>
<polyline clip-path="url(#clip970)" style="stroke:#000000; stroke-width:4; stroke-opacity:1; fill:none" points="
  166.205,1144.98 192.443,1144.98 
  "/>
<polyline clip-path="url(#clip970)" style="stroke:#000000; stroke-width:4; stroke-opacity:1; fill:none" points="
  166.205,903.305 192.443,903.305 
  "/>
<polyline clip-path="url(#clip970)" style="stroke:#000000; stroke-width:4; stroke-opacity:1; fill:none" points="
  166.205,661.631 192.443,661.631 
  "/>
<polyline clip-path="url(#clip970)" style="stroke:#000000; stroke-width:4; stroke-opacity:1; fill:none" points="
  166.205,419.956 192.443,419.956 
  "/>
<polyline clip-path="url(#clip970)" style="stroke:#000000; stroke-width:4; stroke-opacity:1; fill:none" points="
  166.205,178.281 192.443,178.281 
  "/>
<path clip-path="url(#clip970)" d="M 0 0 M118.26 1372.45 Q114.649 1372.45 112.82 1376.02 Q111.015 1379.56 111.015 1386.69 Q111.015 1393.8 112.82 1397.36 Q114.649 1400.9 118.26 1400.9 Q121.895 1400.9 123.7 1397.36 Q125.529 1393.8 125.529 1386.69 Q125.529 1379.56 123.7 1376.02 Q121.895 1372.45 118.26 1372.45 M118.26 1368.75 Q124.07 1368.75 127.126 1373.36 Q130.205 1377.94 130.205 1386.69 Q130.205 1395.42 127.126 1400.02 Q124.07 1404.61 118.26 1404.61 Q112.45 1404.61 109.371 1400.02 Q106.316 1395.42 106.316 1386.69 Q106.316 1377.94 109.371 1373.36 Q112.45 1368.75 118.26 1368.75 Z" fill="#000000" fill-rule="evenodd" fill-opacity="1" /><path clip-path="url(#clip970)" d="M 0 0 M56.2699 1158.33 L63.9087 1158.33 L63.9087 1131.96 L55.5986 1133.63 L55.5986 1129.37 L63.8624 1127.7 L68.5383 1127.7 L68.5383 1158.33 L76.1772 1158.33 L76.1772 1162.26 L56.2699 1162.26 L56.2699 1158.33 Z" fill="#000000" fill-rule="evenodd" fill-opacity="1" /><path clip-path="url(#clip970)" d="M 0 0 M91.2465 1130.78 Q87.6354 1130.78 85.8068 1134.34 Q84.0012 1137.89 84.0012 1145.01 Q84.0012 1152.12 85.8068 1155.69 Q87.6354 1159.23 91.2465 1159.23 Q94.8808 1159.23 96.6863 1155.69 Q98.515 1152.12 98.515 1145.01 Q98.515 1137.89 96.6863 1134.34 Q94.8808 1130.78 91.2465 1130.78 M91.2465 1127.08 Q97.0567 1127.08 100.112 1131.68 Q103.191 1136.26 103.191 1145.01 Q103.191 1153.74 100.112 1158.35 Q97.0567 1162.93 91.2465 1162.93 Q85.4364 1162.93 82.3577 1158.35 Q79.3022 1153.74 79.3022 1145.01 Q79.3022 1136.26 82.3577 1131.68 Q85.4364 1127.08 91.2465 1127.08 Z" fill="#000000" fill-rule="evenodd" fill-opacity="1" /><path clip-path="url(#clip970)" d="M 0 0 M118.26 1130.78 Q114.649 1130.78 112.82 1134.34 Q111.015 1137.89 111.015 1145.01 Q111.015 1152.12 112.82 1155.69 Q114.649 1159.23 118.26 1159.23 Q121.895 1159.23 123.7 1155.69 Q125.529 1152.12 125.529 1145.01 Q125.529 1137.89 123.7 1134.34 Q121.895 1130.78 118.26 1130.78 M118.26 1127.08 Q124.07 1127.08 127.126 1131.68 Q130.205 1136.26 130.205 1145.01 Q130.205 1153.74 127.126 1158.35 Q124.07 1162.93 118.26 1162.93 Q112.45 1162.93 109.371 1158.35 Q106.316 1153.74 106.316 1145.01 Q106.316 1136.26 109.371 1131.68 Q112.45 1127.08 118.26 1127.08 Z" fill="#000000" fill-rule="evenodd" fill-opacity="1" /><path clip-path="url(#clip970)" d="M 0 0 M59.8578 916.65 L76.1772 916.65 L76.1772 920.585 L54.2328 920.585 L54.2328 916.65 Q56.8949 913.896 61.4782 909.266 Q66.0846 904.613 67.2652 903.271 Q69.5105 900.748 70.3902 899.011 Q71.2929 897.252 71.2929 895.562 Q71.2929 892.808 69.3485 891.072 Q67.4272 889.336 64.3254 889.336 Q62.1263 889.336 59.6726 890.099 Q57.2421 890.863 54.4643 892.414 L54.4643 887.692 Q57.2884 886.558 59.7421 885.979 Q62.1958 885.4 64.2328 885.4 Q69.6031 885.4 72.7976 888.086 Q75.992 890.771 75.992 895.261 Q75.992 897.391 75.1818 899.312 Q74.3948 901.211 72.2883 903.803 Q71.7096 904.474 68.6078 907.692 Q65.5059 910.886 59.8578 916.65 Z" fill="#000000" fill-rule="evenodd" fill-opacity="1" /><path clip-path="url(#clip970)" d="M 0 0 M91.2465 889.104 Q87.6354 889.104 85.8068 892.669 Q84.0012 896.211 84.0012 903.34 Q84.0012 910.447 85.8068 914.011 Q87.6354 917.553 91.2465 917.553 Q94.8808 917.553 96.6863 914.011 Q98.515 910.447 98.515 903.34 Q98.515 896.211 96.6863 892.669 Q94.8808 889.104 91.2465 889.104 M91.2465 885.4 Q97.0567 885.4 100.112 890.007 Q103.191 894.59 103.191 903.34 Q103.191 912.067 100.112 916.673 Q97.0567 921.257 91.2465 921.257 Q85.4364 921.257 82.3577 916.673 Q79.3022 912.067 79.3022 903.34 Q79.3022 894.59 82.3577 890.007 Q85.4364 885.4 91.2465 885.4 Z" fill="#000000" fill-rule="evenodd" fill-opacity="1" /><path clip-path="url(#clip970)" d="M 0 0 M118.26 889.104 Q114.649 889.104 112.82 892.669 Q111.015 896.211 111.015 903.34 Q111.015 910.447 112.82 914.011 Q114.649 917.553 118.26 917.553 Q121.895 917.553 123.7 914.011 Q125.529 910.447 125.529 903.34 Q125.529 896.211 123.7 892.669 Q121.895 889.104 118.26 889.104 M118.26 885.4 Q124.07 885.4 127.126 890.007 Q130.205 894.59 130.205 903.34 Q130.205 912.067 127.126 916.673 Q124.07 921.257 118.26 921.257 Q112.45 921.257 109.371 916.673 Q106.316 912.067 106.316 903.34 Q106.316 894.59 109.371 890.007 Q112.45 885.4 118.26 885.4 Z" fill="#000000" fill-rule="evenodd" fill-opacity="1" /><path clip-path="url(#clip970)" d="M 0 0 M69.0476 660.276 Q72.404 660.994 74.279 663.263 Q76.1772 665.531 76.1772 668.864 Q76.1772 673.98 72.6587 676.781 Q69.1402 679.582 62.6587 679.582 Q60.4828 679.582 58.168 679.142 Q55.8764 678.725 53.4227 677.869 L53.4227 673.355 Q55.3671 674.489 57.6819 675.068 Q59.9967 675.647 62.5198 675.647 Q66.918 675.647 69.2096 673.911 Q71.5244 672.175 71.5244 668.864 Q71.5244 665.809 69.3717 664.096 Q67.242 662.36 63.4226 662.36 L59.3949 662.36 L59.3949 658.517 L63.6078 658.517 Q67.0569 658.517 68.8855 657.151 Q70.7142 655.763 70.7142 653.17 Q70.7142 650.508 68.8161 649.096 Q66.9411 647.661 63.4226 647.661 Q61.5013 647.661 59.3023 648.077 Q57.1032 648.494 54.4643 649.374 L54.4643 645.207 Q57.1264 644.466 59.4412 644.096 Q61.7791 643.726 63.8393 643.726 Q69.1633 643.726 72.2652 646.156 Q75.367 648.564 75.367 652.684 Q75.367 655.554 73.7235 657.545 Q72.08 659.513 69.0476 660.276 Z" fill="#000000" fill-rule="evenodd" fill-opacity="1" /><path clip-path="url(#clip970)" d="M 0 0 M91.2465 647.429 Q87.6354 647.429 85.8068 650.994 Q84.0012 654.536 84.0012 661.665 Q84.0012 668.772 85.8068 672.337 Q87.6354 675.878 91.2465 675.878 Q94.8808 675.878 96.6863 672.337 Q98.515 668.772 98.515 661.665 Q98.515 654.536 96.6863 650.994 Q94.8808 647.429 91.2465 647.429 M91.2465 643.726 Q97.0567 643.726 100.112 648.332 Q103.191 652.915 103.191 661.665 Q103.191 670.392 100.112 674.999 Q97.0567 679.582 91.2465 679.582 Q85.4364 679.582 82.3577 674.999 Q79.3022 670.392 79.3022 661.665 Q79.3022 652.915 82.3577 648.332 Q85.4364 643.726 91.2465 643.726 Z" fill="#000000" fill-rule="evenodd" fill-opacity="1" /><path clip-path="url(#clip970)" d="M 0 0 M118.26 647.429 Q114.649 647.429 112.82 650.994 Q111.015 654.536 111.015 661.665 Q111.015 668.772 112.82 672.337 Q114.649 675.878 118.26 675.878 Q121.895 675.878 123.7 672.337 Q125.529 668.772 125.529 661.665 Q125.529 654.536 123.7 650.994 Q121.895 647.429 118.26 647.429 M118.26 643.726 Q124.07 643.726 127.126 648.332 Q130.205 652.915 130.205 661.665 Q130.205 670.392 127.126 674.999 Q124.07 679.582 118.26 679.582 Q112.45 679.582 109.371 674.999 Q106.316 670.392 106.316 661.665 Q106.316 652.915 109.371 648.332 Q112.45 643.726 118.26 643.726 Z" fill="#000000" fill-rule="evenodd" fill-opacity="1" /><path clip-path="url(#clip970)" d="M 0 0 M66.5939 406.75 L54.7884 425.199 L66.5939 425.199 L66.5939 406.75 M65.367 402.676 L71.2466 402.676 L71.2466 425.199 L76.1772 425.199 L76.1772 429.088 L71.2466 429.088 L71.2466 437.236 L66.5939 437.236 L66.5939 429.088 L50.9921 429.088 L50.9921 424.574 L65.367 402.676 Z" fill="#000000" fill-rule="evenodd" fill-opacity="1" /><path clip-path="url(#clip970)" d="M 0 0 M91.2465 405.755 Q87.6354 405.755 85.8068 409.319 Q84.0012 412.861 84.0012 419.991 Q84.0012 427.097 85.8068 430.662 Q87.6354 434.203 91.2465 434.203 Q94.8808 434.203 96.6863 430.662 Q98.515 427.097 98.515 419.991 Q98.515 412.861 96.6863 409.319 Q94.8808 405.755 91.2465 405.755 M91.2465 402.051 Q97.0567 402.051 100.112 406.657 Q103.191 411.241 103.191 419.991 Q103.191 428.717 100.112 433.324 Q97.0567 437.907 91.2465 437.907 Q85.4364 437.907 82.3577 433.324 Q79.3022 428.717 79.3022 419.991 Q79.3022 411.241 82.3577 406.657 Q85.4364 402.051 91.2465 402.051 Z" fill="#000000" fill-rule="evenodd" fill-opacity="1" /><path clip-path="url(#clip970)" d="M 0 0 M118.26 405.755 Q114.649 405.755 112.82 409.319 Q111.015 412.861 111.015 419.991 Q111.015 427.097 112.82 430.662 Q114.649 434.203 118.26 434.203 Q121.895 434.203 123.7 430.662 Q125.529 427.097 125.529 419.991 Q125.529 412.861 123.7 409.319 Q121.895 405.755 118.26 405.755 M118.26 402.051 Q124.07 402.051 127.126 406.657 Q130.205 411.241 130.205 419.991 Q130.205 428.717 127.126 433.324 Q124.07 437.907 118.26 437.907 Q112.45 437.907 109.371 433.324 Q106.316 428.717 106.316 419.991 Q106.316 411.241 109.371 406.657 Q112.45 402.051 118.26 402.051 Z" fill="#000000" fill-rule="evenodd" fill-opacity="1" /><path clip-path="url(#clip970)" d="M 0 0 M55.2745 161.001 L73.6309 161.001 L73.6309 164.936 L59.5569 164.936 L59.5569 173.408 Q60.5754 173.061 61.5939 172.899 Q62.6124 172.714 63.6309 172.714 Q69.418 172.714 72.7976 175.885 Q76.1772 179.056 76.1772 184.473 Q76.1772 190.052 72.705 193.154 Q69.2328 196.232 62.9134 196.232 Q60.7374 196.232 58.4689 195.862 Q56.2236 195.492 53.8162 194.751 L53.8162 190.052 Q55.8995 191.186 58.1217 191.742 Q60.3439 192.297 62.8208 192.297 Q66.8254 192.297 69.1633 190.191 Q71.5013 188.084 71.5013 184.473 Q71.5013 180.862 69.1633 178.756 Q66.8254 176.649 62.8208 176.649 Q60.9458 176.649 59.0708 177.066 Q57.2189 177.482 55.2745 178.362 L55.2745 161.001 Z" fill="#000000" fill-rule="evenodd" fill-opacity="1" /><path clip-path="url(#clip970)" d="M 0 0 M91.2465 164.08 Q87.6354 164.08 85.8068 167.645 Q84.0012 171.186 84.0012 178.316 Q84.0012 185.422 85.8068 188.987 Q87.6354 192.529 91.2465 192.529 Q94.8808 192.529 96.6863 188.987 Q98.515 185.422 98.515 178.316 Q98.515 171.186 96.6863 167.645 Q94.8808 164.08 91.2465 164.08 M91.2465 160.376 Q97.0567 160.376 100.112 164.982 Q103.191 169.566 103.191 178.316 Q103.191 187.043 100.112 191.649 Q97.0567 196.232 91.2465 196.232 Q85.4364 196.232 82.3577 191.649 Q79.3022 187.043 79.3022 178.316 Q79.3022 169.566 82.3577 164.982 Q85.4364 160.376 91.2465 160.376 Z" fill="#000000" fill-rule="evenodd" fill-opacity="1" /><path clip-path="url(#clip970)" d="M 0 0 M118.26 164.08 Q114.649 164.08 112.82 167.645 Q111.015 171.186 111.015 178.316 Q111.015 185.422 112.82 188.987 Q114.649 192.529 118.26 192.529 Q121.895 192.529 123.7 188.987 Q125.529 185.422 125.529 178.316 Q125.529 171.186 123.7 167.645 Q121.895 164.08 118.26 164.08 M118.26 160.376 Q124.07 160.376 127.126 164.982 Q130.205 169.566 130.205 178.316 Q130.205 187.043 127.126 191.649 Q124.07 196.232 118.26 196.232 Q112.45 196.232 109.371 191.649 Q106.316 187.043 106.316 178.316 Q106.316 169.566 109.371 164.982 Q112.45 160.376 118.26 160.376 Z" fill="#000000" fill-rule="evenodd" fill-opacity="1" /><polyline clip-path="url(#clip972)" style="stroke:#009af9; stroke-width:8; stroke-opacity:1; fill:none" points="
  166.205,1384.24 186.451,1364.01 206.696,1349.03 226.942,1337.89 247.188,1329.67 267.434,1323.41 287.68,1318.81 307.926,1315.28 328.171,1312.72 348.417,1310.73 
  368.663,1309.06 388.909,1307.86 409.155,1306.81 429.401,1306.02 449.646,1305.27 469.892,1304.72 490.138,1304.17 510.384,1303.7 530.63,1303.28 550.876,1302.87 
  571.122,1302.48 591.367,1302.12 611.613,1301.76 631.859,1301.41 652.105,1301.06 672.351,1300.72 692.597,1300.37 712.842,1300.03 733.088,1299.67 753.334,1299.32 
  773.58,1298.97 793.826,1298.62 814.072,1298.25 834.318,1297.88 854.563,1297.51 874.809,1297.13 895.055,1296.76 915.301,1296.37 935.547,1295.97 955.793,1295.56 
  976.038,1295.16 996.284,1294.75 1016.53,1294.35 1036.78,1293.92 1057.02,1293.47 1077.27,1293.02 1097.51,1292.57 1117.76,1292.13 1138.01,1291.68 1158.25,1291.21 
  1178.5,1290.71 1198.74,1290.21 1218.99,1289.7 1239.23,1289.2 1259.48,1288.69 1279.73,1288.19 1299.97,1287.64 1320.22,1287.06 1340.46,1286.48 1360.71,1285.9 
  1380.96,1285.32 1401.2,1284.74 1421.45,1284.16 1441.69,1283.54 1461.94,1282.85 1482.18,1282.17 1502.43,1281.48 1522.68,1280.79 1542.92,1280.11 1563.17,1279.42 
  1583.41,1278.73 1603.66,1277.89 1623.91,1277.05 1644.15,1276.21 1664.4,1275.37 1684.64,1274.53 1704.89,1273.69 1725.13,1272.85 1745.38,1271.87 1765.63,1270.79 
  1785.87,1269.72 1806.12,1268.65 1826.36,1267.57 1846.61,1266.5 1866.86,1265.42 1887.1,1264.28 1907.35,1262.8 1927.59,1261.31 1947.84,1259.83 1968.08,1258.35 
  1988.33,1256.86 2008.58,1255.38 2028.82,1253.89 2049.07,1251.86 2069.31,1249.61 2089.56,1247.35 2109.81,1245.09 2130.05,1242.83 2150.3,1240.57 2170.54,1237.76 
  2190.79,1234.33 2211.03,1230.91 2231.28,1226.92 2251.53,1222.18 2271.77,1216.5 2292.02,1209.68 2312.26,1200.66 2332.51,1188.16 2352.76,1173.69 
  "/>
<polyline clip-path="url(#clip972)" style="stroke:#e26f46; stroke-width:8; stroke-opacity:1; fill:none" points="
  166.205,1384.24 186.451,1381.62 206.696,1375.49 226.942,1366.81 247.188,1356.2 267.434,1344.3 287.68,1331.31 307.926,1317.62 328.171,1303.32 348.417,1288.68 
  368.663,1273.84 388.909,1258.72 409.155,1243.52 429.401,1228.2 449.646,1212.86 469.892,1197.44 490.138,1182.03 510.384,1166.61 530.63,1151.2 550.876,1135.78 
  571.122,1120.41 591.367,1105.06 611.613,1089.71 631.859,1074.38 652.105,1059.14 672.351,1043.91 692.597,1028.68 712.842,1013.46 733.088,998.383 753.334,983.308 
  773.58,968.232 793.826,953.157 814.072,938.182 834.318,923.305 854.563,908.428 874.809,893.551 895.055,878.674 915.301,863.879 935.547,849.246 955.793,834.613 
  976.038,819.98 996.284,805.347 1016.53,790.714 1036.78,776.257 1057.02,761.922 1077.27,747.588 1097.51,733.254 1117.76,718.919 1138.01,704.585 1158.25,690.363 
  1178.5,676.394 1198.74,662.426 1218.99,648.457 1239.23,634.489 1259.48,620.521 1279.73,606.552 1299.97,592.833 1320.22,579.317 1340.46,565.8 1360.71,552.283 
  1380.96,538.767 1401.2,525.25 1421.45,511.733 1441.69,498.455 1461.94,485.502 1482.18,472.548 1502.43,459.595 1522.68,446.642 1542.92,433.688 1563.17,420.735 
  1583.41,407.82 1603.66,395.581 1623.91,383.342 1644.15,371.104 1664.4,358.865 1684.64,346.627 1704.89,334.388 1725.13,322.149 1745.38,310.479 1765.63,299.182 
  1785.87,287.885 1806.12,276.588 1826.36,265.291 1846.61,253.994 1866.86,242.697 1887.1,231.608 1907.35,221.657 1927.59,211.706 1947.84,201.756 1968.08,191.805 
  1988.33,181.855 2008.58,171.904 2028.82,161.953 2049.07,153.418 2069.31,145.476 2089.56,137.534 2109.81,129.592 2130.05,121.65 2150.3,113.708 2170.54,106.92 
  2190.79,101.393 2211.03,95.8672 2231.28,91.3214 2251.53,88.0754 2271.77,86.2916 2292.02,86.1857 2312.26,89.1334 2332.51,96.6011 2352.76,107.544 
  "/>
<path clip-path="url(#clip970)" d="
M1931.6 274.549 L2279.87 274.549 L2279.87 93.1086 L1931.6 93.1086  Z
  " fill="#ffffff" fill-rule="evenodd" fill-opacity="1"/>
<polyline clip-path="url(#clip970)" style="stroke:#000000; stroke-width:4; stroke-opacity:1; fill:none" points="
  1931.6,274.549 2279.87,274.549 2279.87,93.1086 1931.6,93.1086 1931.6,274.549 
  "/>
<polyline clip-path="url(#clip970)" style="stroke:#009af9; stroke-width:4; stroke-opacity:1; fill:none" points="
  1955.89,153.589 2101.66,153.589 
  "/>
<path clip-path="url(#clip970)" d="M 0 0 M2125.96 180.73 L2125.96 144.943 L2130.22 144.943 L2130.22 161.054 Q2130.22 164.41 2131.81 166.123 Q2133.41 167.836 2136.54 167.836 Q2139.96 167.836 2141.67 165.892 Q2143.41 163.947 2143.41 160.058 L2143.41 144.943 L2147.67 144.943 L2147.67 164.896 Q2147.67 166.285 2148.06 166.957 Q2148.48 167.605 2149.34 167.605 Q2149.55 167.605 2149.92 167.489 Q2150.29 167.35 2150.93 167.072 L2150.93 170.498 Q2149.98 171.031 2149.13 171.285 Q2148.3 171.54 2147.48 171.54 Q2145.89 171.54 2144.94 170.637 Q2143.99 169.734 2143.64 167.883 Q2142.49 169.711 2140.8 170.637 Q2139.13 171.54 2136.86 171.54 Q2134.5 171.54 2132.83 170.637 Q2131.19 169.734 2130.22 167.929 L2130.22 180.73 L2125.96 180.73 Z" fill="#000000" fill-rule="evenodd" fill-opacity="1" /><path clip-path="url(#clip970)" d="M 0 0 M2154.55 168.322 L2159.27 168.322 L2159.27 154.179 L2154.11 155.128 L2154.11 152.443 L2159.43 151.54 L2162.6 151.54 L2162.6 168.322 L2167.35 168.322 L2167.35 170.869 L2154.55 170.869 L2154.55 168.322 Z" fill="#000000" fill-rule="evenodd" fill-opacity="1" /><path clip-path="url(#clip970)" d="M 0 0 M2180.54 155.197 Q2179.38 153.207 2177.05 153.207 Q2174.71 153.207 2173.55 155.197 Q2172.37 157.188 2172.37 161.17 Q2172.37 165.174 2173.55 167.165 Q2174.71 169.156 2177.05 169.156 Q2179.38 169.156 2180.54 167.165 Q2181.72 165.174 2181.72 161.17 Q2181.72 157.188 2180.54 155.197 M2177.05 151.147 Q2180.77 151.147 2182.74 153.716 Q2184.71 156.285 2184.71 161.17 Q2184.71 166.077 2182.74 168.646 Q2180.77 171.216 2177.05 171.216 Q2173.3 171.216 2171.33 168.646 Q2169.36 166.077 2169.36 161.17 Q2169.36 156.285 2171.33 153.716 Q2173.3 151.147 2177.05 151.147 Z" fill="#000000" fill-rule="evenodd" fill-opacity="1" /><path clip-path="url(#clip970)" d="M 0 0 M2199.41 134.897 Q2196.3 140.221 2194.8 145.429 Q2193.29 150.637 2193.29 155.984 Q2193.29 161.332 2194.8 166.586 Q2196.33 171.818 2199.41 177.119 L2195.7 177.119 Q2192.23 171.679 2190.49 166.424 Q2188.78 161.17 2188.78 155.984 Q2188.78 150.822 2190.49 145.591 Q2192.21 140.36 2195.7 134.897 L2199.41 134.897 Z" fill="#000000" fill-rule="evenodd" fill-opacity="1" /><path clip-path="url(#clip970)" d="M 0 0 M2208.09 137.582 L2208.09 144.943 L2216.86 144.943 L2216.86 148.253 L2208.09 148.253 L2208.09 162.327 Q2208.09 165.498 2208.94 166.401 Q2209.82 167.304 2212.48 167.304 L2216.86 167.304 L2216.86 170.869 L2212.48 170.869 Q2207.55 170.869 2205.68 169.04 Q2203.8 167.188 2203.8 162.327 L2203.8 148.253 L2200.68 148.253 L2200.68 144.943 L2203.8 144.943 L2203.8 137.582 L2208.09 137.582 Z" fill="#000000" fill-rule="evenodd" fill-opacity="1" /><path clip-path="url(#clip970)" d="M 0 0 M2220.66 134.897 L2224.36 134.897 Q2227.83 140.36 2229.54 145.591 Q2231.28 150.822 2231.28 155.984 Q2231.28 161.17 2229.54 166.424 Q2227.83 171.679 2224.36 177.119 L2220.66 177.119 Q2223.73 171.818 2225.24 166.586 Q2226.77 161.332 2226.77 155.984 Q2226.77 150.637 2225.24 145.429 Q2223.73 140.221 2220.66 134.897 Z" fill="#000000" fill-rule="evenodd" fill-opacity="1" /><polyline clip-path="url(#clip970)" style="stroke:#e26f46; stroke-width:4; stroke-opacity:1; fill:none" points="
  1955.89,214.069 2101.66,214.069 
  "/>
<path clip-path="url(#clip970)" d="M 0 0 M2125.96 241.21 L2125.96 205.423 L2130.22 205.423 L2130.22 221.534 Q2130.22 224.89 2131.81 226.603 Q2133.41 228.316 2136.54 228.316 Q2139.96 228.316 2141.67 226.372 Q2143.41 224.427 2143.41 220.538 L2143.41 205.423 L2147.67 205.423 L2147.67 225.376 Q2147.67 226.765 2148.06 227.437 Q2148.48 228.085 2149.34 228.085 Q2149.55 228.085 2149.92 227.969 Q2150.29 227.83 2150.93 227.552 L2150.93 230.978 Q2149.98 231.511 2149.13 231.765 Q2148.3 232.02 2147.48 232.02 Q2145.89 232.02 2144.94 231.117 Q2143.99 230.214 2143.64 228.363 Q2142.49 230.191 2140.8 231.117 Q2139.13 232.02 2136.86 232.02 Q2134.5 232.02 2132.83 231.117 Q2131.19 230.214 2130.22 228.409 L2130.22 241.21 L2125.96 241.21 Z" fill="#000000" fill-rule="evenodd" fill-opacity="1" /><path clip-path="url(#clip970)" d="M 0 0 M2164.13 215.677 Q2162.97 213.687 2160.63 213.687 Q2158.3 213.687 2157.14 215.677 Q2155.96 217.668 2155.96 221.65 Q2155.96 225.654 2157.14 227.645 Q2158.3 229.636 2160.63 229.636 Q2162.97 229.636 2164.13 227.645 Q2165.31 225.654 2165.31 221.65 Q2165.31 217.668 2164.13 215.677 M2160.63 211.627 Q2164.36 211.627 2166.33 214.196 Q2168.3 216.765 2168.3 221.65 Q2168.3 226.557 2166.33 229.126 Q2164.36 231.696 2160.63 231.696 Q2156.88 231.696 2154.92 229.126 Q2152.95 226.557 2152.95 221.65 Q2152.95 216.765 2154.92 214.196 Q2156.88 211.627 2160.63 211.627 Z" fill="#000000" fill-rule="evenodd" fill-opacity="1" /><path clip-path="url(#clip970)" d="M 0 0 M2171.91 228.802 L2176.63 228.802 L2176.63 214.659 L2171.47 215.608 L2171.47 212.923 L2176.79 212.02 L2179.96 212.02 L2179.96 228.802 L2184.71 228.802 L2184.71 231.349 L2171.91 231.349 L2171.91 228.802 Z" fill="#000000" fill-rule="evenodd" fill-opacity="1" /><path clip-path="url(#clip970)" d="M 0 0 M2199.41 195.377 Q2196.3 200.701 2194.8 205.909 Q2193.29 211.117 2193.29 216.464 Q2193.29 221.812 2194.8 227.066 Q2196.33 232.298 2199.41 237.599 L2195.7 237.599 Q2192.23 232.159 2190.49 226.904 Q2188.78 221.65 2188.78 216.464 Q2188.78 211.302 2190.49 206.071 Q2192.21 200.84 2195.7 195.377 L2199.41 195.377 Z" fill="#000000" fill-rule="evenodd" fill-opacity="1" /><path clip-path="url(#clip970)" d="M 0 0 M2208.09 198.062 L2208.09 205.423 L2216.86 205.423 L2216.86 208.733 L2208.09 208.733 L2208.09 222.807 Q2208.09 225.978 2208.94 226.881 Q2209.82 227.784 2212.48 227.784 L2216.86 227.784 L2216.86 231.349 L2212.48 231.349 Q2207.55 231.349 2205.68 229.52 Q2203.8 227.668 2203.8 222.807 L2203.8 208.733 L2200.68 208.733 L2200.68 205.423 L2203.8 205.423 L2203.8 198.062 L2208.09 198.062 Z" fill="#000000" fill-rule="evenodd" fill-opacity="1" /><path clip-path="url(#clip970)" d="M 0 0 M2220.66 195.377 L2224.36 195.377 Q2227.83 200.84 2229.54 206.071 Q2231.28 211.302 2231.28 216.464 Q2231.28 221.65 2229.54 226.904 Q2227.83 232.159 2224.36 237.599 L2220.66 237.599 Q2223.73 232.298 2225.24 227.066 Q2226.77 221.812 2226.77 216.464 Q2226.77 211.117 2225.24 205.909 Q2223.73 200.701 2220.66 195.377 Z" fill="#000000" fill-rule="evenodd" fill-opacity="1" /></svg>
