<?xml version="1.0" encoding="utf-8"?>
<svg xmlns="http://www.w3.org/2000/svg" xmlns:xlink="http://www.w3.org/1999/xlink" width="600" height="400" viewBox="0 0 2400 1600">
<defs>
  <clipPath id="clip330">
    <rect x="0" y="0" width="2400" height="1600"/>
  </clipPath>
</defs>
<path clip-path="url(#clip330)" d="
M0 1600 L2400 1600 L2400 0 L0 0  Z
  " fill="#ffffff" fill-rule="evenodd" fill-opacity="1"/>
<defs>
  <clipPath id="clip331">
    <rect x="480" y="0" width="1681" height="1600"/>
  </clipPath>
</defs>
<path clip-path="url(#clip330)" d="
M166.205 1423.18 L2352.76 1423.18 L2352.76 47.2441 L166.205 47.2441  Z
  " fill="#ffffff" fill-rule="evenodd" fill-opacity="1"/>
<defs>
  <clipPath id="clip332">
    <rect x="166" y="47" width="2188" height="1377"/>
  </clipPath>
</defs>
<polyline clip-path="url(#clip332)" style="stroke:#000000; stroke-width:2; stroke-opacity:0.1; fill:none" points="
  166.205,1423.18 166.205,47.2441 
  "/>
<polyline clip-path="url(#clip332)" style="stroke:#000000; stroke-width:2; stroke-opacity:0.1; fill:none" points="
  603.515,1423.18 603.515,47.2441 
  "/>
<polyline clip-path="url(#clip332)" style="stroke:#000000; stroke-width:2; stroke-opacity:0.1; fill:none" points="
  1040.83,1423.18 1040.83,47.2441 
  "/>
<polyline clip-path="url(#clip332)" style="stroke:#000000; stroke-width:2; stroke-opacity:0.1; fill:none" points="
  1478.14,1423.18 1478.14,47.2441 
  "/>
<polyline clip-path="url(#clip332)" style="stroke:#000000; stroke-width:2; stroke-opacity:0.1; fill:none" points="
  1915.45,1423.18 1915.45,47.2441 
  "/>
<polyline clip-path="url(#clip332)" style="stroke:#000000; stroke-width:2; stroke-opacity:0.1; fill:none" points="
  2352.76,1423.18 2352.76,47.2441 
  "/>
<polyline clip-path="url(#clip330)" style="stroke:#000000; stroke-width:4; stroke-opacity:1; fill:none" points="
  166.205,1423.18 2352.76,1423.18 
  "/>
<polyline clip-path="url(#clip330)" style="stroke:#000000; stroke-width:4; stroke-opacity:1; fill:none" points="
  166.205,1423.18 166.205,1406.67 
  "/>
<polyline clip-path="url(#clip330)" style="stroke:#000000; stroke-width:4; stroke-opacity:1; fill:none" points="
  603.515,1423.18 603.515,1406.67 
  "/>
<polyline clip-path="url(#clip330)" style="stroke:#000000; stroke-width:4; stroke-opacity:1; fill:none" points="
  1040.83,1423.18 1040.83,1406.67 
  "/>
<polyline clip-path="url(#clip330)" style="stroke:#000000; stroke-width:4; stroke-opacity:1; fill:none" points="
  1478.14,1423.18 1478.14,1406.67 
  "/>
<polyline clip-path="url(#clip330)" style="stroke:#000000; stroke-width:4; stroke-opacity:1; fill:none" points="
  1915.45,1423.18 1915.45,1406.67 
  "/>
<polyline clip-path="url(#clip330)" style="stroke:#000000; stroke-width:4; stroke-opacity:1; fill:none" points="
  2352.76,1423.18 2352.76,1406.67 
  "/>
<path clip-path="url(#clip330)" d="M 0 0 M166.205 1452.37 Q162.594 1452.37 160.765 1455.94 Q158.959 1459.48 158.959 1466.61 Q158.959 1473.71 160.765 1477.28 Q162.594 1480.82 166.205 1480.82 Q169.839 1480.82 171.644 1477.28 Q173.473 1473.71 173.473 1466.61 Q173.473 1459.48 171.644 1455.94 Q169.839 1452.37 166.205 1452.37 M166.205 1448.67 Q172.015 1448.67 175.07 1453.27 Q178.149 1457.86 178.149 1466.61 Q178.149 1475.33 175.07 1479.94 Q172.015 1484.52 166.205 1484.52 Q160.395 1484.52 157.316 1479.94 Q154.26 1475.33 154.26 1466.61 Q154.26 1457.86 157.316 1453.27 Q160.395 1448.67 166.205 1448.67 Z" fill="#000000" fill-rule="evenodd" fill-opacity="1" /><path clip-path="url(#clip330)" d="M 0 0 M584.661 1479.92 L600.98 1479.92 L600.98 1483.85 L579.036 1483.85 L579.036 1479.92 Q581.698 1477.16 586.281 1472.53 Q590.888 1467.88 592.068 1466.54 Q594.314 1464.01 595.193 1462.28 Q596.096 1460.52 596.096 1458.83 Q596.096 1456.07 594.152 1454.34 Q592.23 1452.6 589.128 1452.6 Q586.929 1452.6 584.476 1453.37 Q582.045 1454.13 579.267 1455.68 L579.267 1450.96 Q582.091 1449.82 584.545 1449.25 Q586.999 1448.67 589.036 1448.67 Q594.406 1448.67 597.601 1451.35 Q600.795 1454.04 600.795 1458.53 Q600.795 1460.66 599.985 1462.58 Q599.198 1464.48 597.091 1467.07 Q596.513 1467.74 593.411 1470.96 Q590.309 1474.15 584.661 1479.92 Z" fill="#000000" fill-rule="evenodd" fill-opacity="1" /><path clip-path="url(#clip330)" d="M 0 0 M616.05 1452.37 Q612.438 1452.37 610.61 1455.94 Q608.804 1459.48 608.804 1466.61 Q608.804 1473.71 610.61 1477.28 Q612.438 1480.82 616.05 1480.82 Q619.684 1480.82 621.489 1477.28 Q623.318 1473.71 623.318 1466.61 Q623.318 1459.48 621.489 1455.94 Q619.684 1452.37 616.05 1452.37 M616.05 1448.67 Q621.86 1448.67 624.915 1453.27 Q627.994 1457.86 627.994 1466.61 Q627.994 1475.33 624.915 1479.94 Q621.86 1484.52 616.05 1484.52 Q610.239 1484.52 607.161 1479.94 Q604.105 1475.33 604.105 1466.61 Q604.105 1457.86 607.161 1453.27 Q610.239 1448.67 616.05 1448.67 Z" fill="#000000" fill-rule="evenodd" fill-opacity="1" /><path clip-path="url(#clip330)" d="M 0 0 M1030.33 1453.37 L1018.52 1471.81 L1030.33 1471.81 L1030.33 1453.37 M1029.1 1449.29 L1034.98 1449.29 L1034.98 1471.81 L1039.91 1471.81 L1039.91 1475.7 L1034.98 1475.7 L1034.98 1483.85 L1030.33 1483.85 L1030.33 1475.7 L1014.73 1475.7 L1014.73 1471.19 L1029.1 1449.29 Z" fill="#000000" fill-rule="evenodd" fill-opacity="1" /><path clip-path="url(#clip330)" d="M 0 0 M1054.98 1452.37 Q1051.37 1452.37 1049.54 1455.94 Q1047.73 1459.48 1047.73 1466.61 Q1047.73 1473.71 1049.54 1477.28 Q1051.37 1480.82 1054.98 1480.82 Q1058.61 1480.82 1060.42 1477.28 Q1062.25 1473.71 1062.25 1466.61 Q1062.25 1459.48 1060.42 1455.94 Q1058.61 1452.37 1054.98 1452.37 M1054.98 1448.67 Q1060.79 1448.67 1063.85 1453.27 Q1066.92 1457.86 1066.92 1466.61 Q1066.92 1475.33 1063.85 1479.94 Q1060.79 1484.52 1054.98 1484.52 Q1049.17 1484.52 1046.09 1479.94 Q1043.04 1475.33 1043.04 1466.61 Q1043.04 1457.86 1046.09 1453.27 Q1049.17 1448.67 1054.98 1448.67 Z" fill="#000000" fill-rule="evenodd" fill-opacity="1" /><path clip-path="url(#clip330)" d="M 0 0 M1465.03 1464.71 Q1461.89 1464.71 1460.03 1466.86 Q1458.2 1469.01 1458.2 1472.76 Q1458.2 1476.49 1460.03 1478.67 Q1461.89 1480.82 1465.03 1480.82 Q1468.18 1480.82 1470.01 1478.67 Q1471.86 1476.49 1471.86 1472.76 Q1471.86 1469.01 1470.01 1466.86 Q1468.18 1464.71 1465.03 1464.71 M1474.32 1450.06 L1474.32 1454.31 Q1472.56 1453.48 1470.75 1453.04 Q1468.97 1452.6 1467.21 1452.6 Q1462.58 1452.6 1460.13 1455.73 Q1457.7 1458.85 1457.35 1465.17 Q1458.71 1463.16 1460.77 1462.09 Q1462.83 1461 1465.31 1461 Q1470.52 1461 1473.53 1464.18 Q1476.56 1467.32 1476.56 1472.76 Q1476.56 1478.09 1473.41 1481.31 Q1470.27 1484.52 1465.03 1484.52 Q1459.04 1484.52 1455.87 1479.94 Q1452.7 1475.33 1452.7 1466.61 Q1452.7 1458.41 1456.58 1453.55 Q1460.47 1448.67 1467.02 1448.67 Q1468.78 1448.67 1470.57 1449.01 Q1472.37 1449.36 1474.32 1450.06 Z" fill="#000000" fill-rule="evenodd" fill-opacity="1" /><path clip-path="url(#clip330)" d="M 0 0 M1491.63 1452.37 Q1488.02 1452.37 1486.19 1455.94 Q1484.39 1459.48 1484.39 1466.61 Q1484.39 1473.71 1486.19 1477.28 Q1488.02 1480.82 1491.63 1480.82 Q1495.26 1480.82 1497.07 1477.28 Q1498.9 1473.71 1498.9 1466.61 Q1498.9 1459.48 1497.07 1455.94 Q1495.26 1452.37 1491.63 1452.37 M1491.63 1448.67 Q1497.44 1448.67 1500.5 1453.27 Q1503.58 1457.86 1503.58 1466.61 Q1503.58 1475.33 1500.5 1479.94 Q1497.44 1484.52 1491.63 1484.52 Q1485.82 1484.52 1482.74 1479.94 Q1479.69 1475.33 1479.69 1466.61 Q1479.69 1457.86 1482.74 1453.27 Q1485.82 1448.67 1491.63 1448.67 Z" fill="#000000" fill-rule="evenodd" fill-opacity="1" /><path clip-path="url(#clip330)" d="M 0 0 M1901.94 1467.44 Q1898.61 1467.44 1896.68 1469.22 Q1894.79 1471 1894.79 1474.13 Q1894.79 1477.25 1896.68 1479.04 Q1898.61 1480.82 1901.94 1480.82 Q1905.27 1480.82 1907.19 1479.04 Q1909.11 1477.23 1909.11 1474.13 Q1909.11 1471 1907.19 1469.22 Q1905.3 1467.44 1901.94 1467.44 M1897.26 1465.45 Q1894.25 1464.71 1892.56 1462.65 Q1890.9 1460.59 1890.9 1457.63 Q1890.9 1453.48 1893.84 1451.07 Q1896.8 1448.67 1901.94 1448.67 Q1907.1 1448.67 1910.04 1451.07 Q1912.98 1453.48 1912.98 1457.63 Q1912.98 1460.59 1911.29 1462.65 Q1909.62 1464.71 1906.64 1465.45 Q1910.02 1466.24 1911.89 1468.53 Q1913.79 1470.82 1913.79 1474.13 Q1913.79 1479.15 1910.71 1481.84 Q1907.66 1484.52 1901.94 1484.52 Q1896.22 1484.52 1893.14 1481.84 Q1890.09 1479.15 1890.09 1474.13 Q1890.09 1470.82 1891.99 1468.53 Q1893.88 1466.24 1897.26 1465.45 M1895.55 1458.06 Q1895.55 1460.75 1897.22 1462.25 Q1898.91 1463.76 1901.94 1463.76 Q1904.95 1463.76 1906.64 1462.25 Q1908.35 1460.75 1908.35 1458.06 Q1908.35 1455.38 1906.64 1453.88 Q1904.95 1452.37 1901.94 1452.37 Q1898.91 1452.37 1897.22 1453.88 Q1895.55 1455.38 1895.55 1458.06 Z" fill="#000000" fill-rule="evenodd" fill-opacity="1" /><path clip-path="url(#clip330)" d="M 0 0 M1928.86 1452.37 Q1925.25 1452.37 1923.42 1455.94 Q1921.61 1459.48 1921.61 1466.61 Q1921.61 1473.71 1923.42 1477.28 Q1925.25 1480.82 1928.86 1480.82 Q1932.49 1480.82 1934.3 1477.28 Q1936.13 1473.71 1936.13 1466.61 Q1936.13 1459.48 1934.3 1455.94 Q1932.49 1452.37 1928.86 1452.37 M1928.86 1448.67 Q1934.67 1448.67 1937.73 1453.27 Q1940.8 1457.86 1940.8 1466.61 Q1940.8 1475.33 1937.73 1479.94 Q1934.67 1484.52 1928.86 1484.52 Q1923.05 1484.52 1919.97 1479.94 Q1916.92 1475.33 1916.92 1466.61 Q1916.92 1457.86 1919.97 1453.27 Q1923.05 1448.67 1928.86 1448.67 Z" fill="#000000" fill-rule="evenodd" fill-opacity="1" /><path clip-path="url(#clip330)" d="M 0 0 M2316.12 1479.92 L2323.76 1479.92 L2323.76 1453.55 L2315.45 1455.22 L2315.45 1450.96 L2323.72 1449.29 L2328.39 1449.29 L2328.39 1479.92 L2336.03 1479.92 L2336.03 1483.85 L2316.12 1483.85 L2316.12 1479.92 Z" fill="#000000" fill-rule="evenodd" fill-opacity="1" /><path clip-path="url(#clip330)" d="M 0 0 M2351.1 1452.37 Q2347.49 1452.37 2345.66 1455.94 Q2343.86 1459.48 2343.86 1466.61 Q2343.86 1473.71 2345.66 1477.28 Q2347.49 1480.82 2351.1 1480.82 Q2354.74 1480.82 2356.54 1477.28 Q2358.37 1473.71 2358.37 1466.61 Q2358.37 1459.48 2356.54 1455.94 Q2354.74 1452.37 2351.1 1452.37 M2351.1 1448.67 Q2356.91 1448.67 2359.97 1453.27 Q2363.05 1457.86 2363.05 1466.61 Q2363.05 1475.33 2359.97 1479.94 Q2356.91 1484.52 2351.1 1484.52 Q2345.29 1484.52 2342.21 1479.94 Q2339.16 1475.33 2339.16 1466.61 Q2339.16 1457.86 2342.21 1453.27 Q2345.29 1448.67 2351.1 1448.67 Z" fill="#000000" fill-rule="evenodd" fill-opacity="1" /><path clip-path="url(#clip330)" d="M 0 0 M2378.11 1452.37 Q2374.5 1452.37 2372.67 1455.94 Q2370.87 1459.48 2370.87 1466.61 Q2370.87 1473.71 2372.67 1477.28 Q2374.5 1480.82 2378.11 1480.82 Q2381.75 1480.82 2383.55 1477.28 Q2385.38 1473.71 2385.38 1466.61 Q2385.38 1459.48 2383.55 1455.94 Q2381.75 1452.37 2378.11 1452.37 M2378.11 1448.67 Q2383.92 1448.67 2386.98 1453.27 Q2390.06 1457.86 2390.06 1466.61 Q2390.06 1475.33 2386.98 1479.94 Q2383.92 1484.52 2378.11 1484.52 Q2372.3 1484.52 2369.23 1479.94 Q2366.17 1475.33 2366.17 1466.61 Q2366.17 1457.86 2369.23 1453.27 Q2372.3 1448.67 2378.11 1448.67 Z" fill="#000000" fill-rule="evenodd" fill-opacity="1" /><path clip-path="url(#clip330)" d="M 0 0 M1258.54 1522.27 L1258.54 1532.4 L1270.6 1532.4 L1270.6 1536.95 L1258.54 1536.95 L1258.54 1556.3 Q1258.54 1560.66 1259.72 1561.9 Q1260.93 1563.14 1264.59 1563.14 L1270.6 1563.14 L1270.6 1568.04 L1264.59 1568.04 Q1257.81 1568.04 1255.23 1565.53 Q1252.65 1562.98 1252.65 1556.3 L1252.65 1536.95 L1248.36 1536.95 L1248.36 1532.4 L1252.65 1532.4 L1252.65 1522.27 L1258.54 1522.27 Z" fill="#000000" fill-rule="evenodd" fill-opacity="1" /><polyline clip-path="url(#clip332)" style="stroke:#000000; stroke-width:2; stroke-opacity:0.1; fill:none" points="
  166.205,1386.61 2352.76,1386.61 
  "/>
<polyline clip-path="url(#clip332)" style="stroke:#000000; stroke-width:2; stroke-opacity:0.1; fill:none" points="
  166.205,1149.81 2352.76,1149.81 
  "/>
<polyline clip-path="url(#clip332)" style="stroke:#000000; stroke-width:2; stroke-opacity:0.1; fill:none" points="
  166.205,913.018 2352.76,913.018 
  "/>
<polyline clip-path="url(#clip332)" style="stroke:#000000; stroke-width:2; stroke-opacity:0.1; fill:none" points="
  166.205,676.223 2352.76,676.223 
  "/>
<polyline clip-path="url(#clip332)" style="stroke:#000000; stroke-width:2; stroke-opacity:0.1; fill:none" points="
  166.205,439.429 2352.76,439.429 
  "/>
<polyline clip-path="url(#clip332)" style="stroke:#000000; stroke-width:2; stroke-opacity:0.1; fill:none" points="
  166.205,202.635 2352.76,202.635 
  "/>
<polyline clip-path="url(#clip330)" style="stroke:#000000; stroke-width:4; stroke-opacity:1; fill:none" points="
  166.205,1423.18 166.205,47.2441 
  "/>
<polyline clip-path="url(#clip330)" style="stroke:#000000; stroke-width:4; stroke-opacity:1; fill:none" points="
  166.205,1386.61 192.443,1386.61 
  "/>
<polyline clip-path="url(#clip330)" style="stroke:#000000; stroke-width:4; stroke-opacity:1; fill:none" points="
  166.205,1149.81 192.443,1149.81 
  "/>
<polyline clip-path="url(#clip330)" style="stroke:#000000; stroke-width:4; stroke-opacity:1; fill:none" points="
  166.205,913.018 192.443,913.018 
  "/>
<polyline clip-path="url(#clip330)" style="stroke:#000000; stroke-width:4; stroke-opacity:1; fill:none" points="
  166.205,676.223 192.443,676.223 
  "/>
<polyline clip-path="url(#clip330)" style="stroke:#000000; stroke-width:4; stroke-opacity:1; fill:none" points="
  166.205,439.429 192.443,439.429 
  "/>
<polyline clip-path="url(#clip330)" style="stroke:#000000; stroke-width:4; stroke-opacity:1; fill:none" points="
  166.205,202.635 192.443,202.635 
  "/>
<path clip-path="url(#clip330)" d="M 0 0 M118.26 1372.4 Q114.649 1372.4 112.82 1375.97 Q111.015 1379.51 111.015 1386.64 Q111.015 1393.75 112.82 1397.31 Q114.649 1400.85 118.26 1400.85 Q121.895 1400.85 123.7 1397.31 Q125.529 1393.75 125.529 1386.64 Q125.529 1379.51 123.7 1375.97 Q121.895 1372.4 118.26 1372.4 M118.26 1368.7 Q124.07 1368.7 127.126 1373.31 Q130.205 1377.89 130.205 1386.64 Q130.205 1395.37 127.126 1399.97 Q124.07 1404.56 118.26 1404.56 Q112.45 1404.56 109.371 1399.97 Q106.316 1395.37 106.316 1386.64 Q106.316 1377.89 109.371 1373.31 Q112.45 1368.7 118.26 1368.7 Z" fill="#000000" fill-rule="evenodd" fill-opacity="1" /><path clip-path="url(#clip330)" d="M 0 0 M56.2699 1163.16 L63.9087 1163.16 L63.9087 1136.79 L55.5986 1138.46 L55.5986 1134.2 L63.8624 1132.53 L68.5383 1132.53 L68.5383 1163.16 L76.1772 1163.16 L76.1772 1167.09 L56.2699 1167.09 L56.2699 1163.16 Z" fill="#000000" fill-rule="evenodd" fill-opacity="1" /><path clip-path="url(#clip330)" d="M 0 0 M91.2465 1135.61 Q87.6354 1135.61 85.8068 1139.18 Q84.0012 1142.72 84.0012 1149.85 Q84.0012 1156.95 85.8068 1160.52 Q87.6354 1164.06 91.2465 1164.06 Q94.8808 1164.06 96.6863 1160.52 Q98.515 1156.95 98.515 1149.85 Q98.515 1142.72 96.6863 1139.18 Q94.8808 1135.61 91.2465 1135.61 M91.2465 1131.91 Q97.0567 1131.91 100.112 1136.51 Q103.191 1141.1 103.191 1149.85 Q103.191 1158.57 100.112 1163.18 Q97.0567 1167.76 91.2465 1167.76 Q85.4364 1167.76 82.3577 1163.18 Q79.3022 1158.57 79.3022 1149.85 Q79.3022 1141.1 82.3577 1136.51 Q85.4364 1131.91 91.2465 1131.91 Z" fill="#000000" fill-rule="evenodd" fill-opacity="1" /><path clip-path="url(#clip330)" d="M 0 0 M118.26 1135.61 Q114.649 1135.61 112.82 1139.18 Q111.015 1142.72 111.015 1149.85 Q111.015 1156.95 112.82 1160.52 Q114.649 1164.06 118.26 1164.06 Q121.895 1164.06 123.7 1160.52 Q125.529 1156.95 125.529 1149.85 Q125.529 1142.72 123.7 1139.18 Q121.895 1135.61 118.26 1135.61 M118.26 1131.91 Q124.07 1131.91 127.126 1136.51 Q130.205 1141.1 130.205 1149.85 Q130.205 1158.57 127.126 1163.18 Q124.07 1167.76 118.26 1167.76 Q112.45 1167.76 109.371 1163.18 Q106.316 1158.57 106.316 1149.85 Q106.316 1141.1 109.371 1136.51 Q112.45 1131.91 118.26 1131.91 Z" fill="#000000" fill-rule="evenodd" fill-opacity="1" /><path clip-path="url(#clip330)" d="M 0 0 M59.8578 926.363 L76.1772 926.363 L76.1772 930.298 L54.2328 930.298 L54.2328 926.363 Q56.8949 923.608 61.4782 918.978 Q66.0846 914.326 67.2652 912.983 Q69.5105 910.46 70.3902 908.724 Q71.2929 906.964 71.2929 905.275 Q71.2929 902.52 69.3485 900.784 Q67.4272 899.048 64.3254 899.048 Q62.1263 899.048 59.6726 899.812 Q57.2421 900.576 54.4643 902.127 L54.4643 897.404 Q57.2884 896.27 59.7421 895.691 Q62.1958 895.113 64.2328 895.113 Q69.6031 895.113 72.7976 897.798 Q75.992 900.483 75.992 904.974 Q75.992 907.103 75.1818 909.025 Q74.3948 910.923 72.2883 913.515 Q71.7096 914.187 68.6078 917.404 Q65.5059 920.599 59.8578 926.363 Z" fill="#000000" fill-rule="evenodd" fill-opacity="1" /><path clip-path="url(#clip330)" d="M 0 0 M91.2465 898.816 Q87.6354 898.816 85.8068 902.381 Q84.0012 905.923 84.0012 913.052 Q84.0012 920.159 85.8068 923.724 Q87.6354 927.265 91.2465 927.265 Q94.8808 927.265 96.6863 923.724 Q98.515 920.159 98.515 913.052 Q98.515 905.923 96.6863 902.381 Q94.8808 898.816 91.2465 898.816 M91.2465 895.113 Q97.0567 895.113 100.112 899.719 Q103.191 904.302 103.191 913.052 Q103.191 921.779 100.112 926.386 Q97.0567 930.969 91.2465 930.969 Q85.4364 930.969 82.3577 926.386 Q79.3022 921.779 79.3022 913.052 Q79.3022 904.302 82.3577 899.719 Q85.4364 895.113 91.2465 895.113 Z" fill="#000000" fill-rule="evenodd" fill-opacity="1" /><path clip-path="url(#clip330)" d="M 0 0 M118.26 898.816 Q114.649 898.816 112.82 902.381 Q111.015 905.923 111.015 913.052 Q111.015 920.159 112.82 923.724 Q114.649 927.265 118.26 927.265 Q121.895 927.265 123.7 923.724 Q125.529 920.159 125.529 913.052 Q125.529 905.923 123.7 902.381 Q121.895 898.816 118.26 898.816 M118.26 895.113 Q124.07 895.113 127.126 899.719 Q130.205 904.302 130.205 913.052 Q130.205 921.779 127.126 926.386 Q124.07 930.969 118.26 930.969 Q112.45 930.969 109.371 926.386 Q106.316 921.779 106.316 913.052 Q106.316 904.302 109.371 899.719 Q112.45 895.113 118.26 895.113 Z" fill="#000000" fill-rule="evenodd" fill-opacity="1" /><path clip-path="url(#clip330)" d="M 0 0 M69.0476 674.869 Q72.404 675.587 74.279 677.855 Q76.1772 680.124 76.1772 683.457 Q76.1772 688.573 72.6587 691.374 Q69.1402 694.175 62.6587 694.175 Q60.4828 694.175 58.168 693.735 Q55.8764 693.318 53.4227 692.462 L53.4227 687.948 Q55.3671 689.082 57.6819 689.661 Q59.9967 690.24 62.5198 690.24 Q66.918 690.24 69.2096 688.503 Q71.5244 686.767 71.5244 683.457 Q71.5244 680.402 69.3717 678.689 Q67.242 676.953 63.4226 676.953 L59.3949 676.953 L59.3949 673.11 L63.6078 673.11 Q67.0569 673.11 68.8855 671.744 Q70.7142 670.355 70.7142 667.763 Q70.7142 665.101 68.8161 663.689 Q66.9411 662.254 63.4226 662.254 Q61.5013 662.254 59.3023 662.67 Q57.1032 663.087 54.4643 663.967 L54.4643 659.8 Q57.1264 659.059 59.4412 658.689 Q61.7791 658.318 63.8393 658.318 Q69.1633 658.318 72.2652 660.749 Q75.367 663.156 75.367 667.277 Q75.367 670.147 73.7235 672.138 Q72.08 674.105 69.0476 674.869 Z" fill="#000000" fill-rule="evenodd" fill-opacity="1" /><path clip-path="url(#clip330)" d="M 0 0 M91.2465 662.022 Q87.6354 662.022 85.8068 665.587 Q84.0012 669.129 84.0012 676.258 Q84.0012 683.365 85.8068 686.929 Q87.6354 690.471 91.2465 690.471 Q94.8808 690.471 96.6863 686.929 Q98.515 683.365 98.515 676.258 Q98.515 669.129 96.6863 665.587 Q94.8808 662.022 91.2465 662.022 M91.2465 658.318 Q97.0567 658.318 100.112 662.925 Q103.191 667.508 103.191 676.258 Q103.191 684.985 100.112 689.591 Q97.0567 694.175 91.2465 694.175 Q85.4364 694.175 82.3577 689.591 Q79.3022 684.985 79.3022 676.258 Q79.3022 667.508 82.3577 662.925 Q85.4364 658.318 91.2465 658.318 Z" fill="#000000" fill-rule="evenodd" fill-opacity="1" /><path clip-path="url(#clip330)" d="M 0 0 M118.26 662.022 Q114.649 662.022 112.82 665.587 Q111.015 669.129 111.015 676.258 Q111.015 683.365 112.82 686.929 Q114.649 690.471 118.26 690.471 Q121.895 690.471 123.7 686.929 Q125.529 683.365 125.529 676.258 Q125.529 669.129 123.7 665.587 Q121.895 662.022 118.26 662.022 M118.26 658.318 Q124.07 658.318 127.126 662.925 Q130.205 667.508 130.205 676.258 Q130.205 684.985 127.126 689.591 Q124.07 694.175 118.26 694.175 Q112.45 694.175 109.371 689.591 Q106.316 684.985 106.316 676.258 Q106.316 667.508 109.371 662.925 Q112.45 658.318 118.26 658.318 Z" fill="#000000" fill-rule="evenodd" fill-opacity="1" /><path clip-path="url(#clip330)" d="M 0 0 M66.5939 426.223 L54.7884 444.672 L66.5939 444.672 L66.5939 426.223 M65.367 422.149 L71.2466 422.149 L71.2466 444.672 L76.1772 444.672 L76.1772 448.561 L71.2466 448.561 L71.2466 456.709 L66.5939 456.709 L66.5939 448.561 L50.9921 448.561 L50.9921 444.047 L65.367 422.149 Z" fill="#000000" fill-rule="evenodd" fill-opacity="1" /><path clip-path="url(#clip330)" d="M 0 0 M91.2465 425.228 Q87.6354 425.228 85.8068 428.793 Q84.0012 432.334 84.0012 439.464 Q84.0012 446.57 85.8068 450.135 Q87.6354 453.677 91.2465 453.677 Q94.8808 453.677 96.6863 450.135 Q98.515 446.57 98.515 439.464 Q98.515 432.334 96.6863 428.793 Q94.8808 425.228 91.2465 425.228 M91.2465 421.524 Q97.0567 421.524 100.112 426.131 Q103.191 430.714 103.191 439.464 Q103.191 448.191 100.112 452.797 Q97.0567 457.38 91.2465 457.38 Q85.4364 457.38 82.3577 452.797 Q79.3022 448.191 79.3022 439.464 Q79.3022 430.714 82.3577 426.131 Q85.4364 421.524 91.2465 421.524 Z" fill="#000000" fill-rule="evenodd" fill-opacity="1" /><path clip-path="url(#clip330)" d="M 0 0 M118.26 425.228 Q114.649 425.228 112.82 428.793 Q111.015 432.334 111.015 439.464 Q111.015 446.57 112.82 450.135 Q114.649 453.677 118.26 453.677 Q121.895 453.677 123.7 450.135 Q125.529 446.57 125.529 439.464 Q125.529 432.334 123.7 428.793 Q121.895 425.228 118.26 425.228 M118.26 421.524 Q124.07 421.524 127.126 426.131 Q130.205 430.714 130.205 439.464 Q130.205 448.191 127.126 452.797 Q124.07 457.38 118.26 457.38 Q112.45 457.38 109.371 452.797 Q106.316 448.191 106.316 439.464 Q106.316 430.714 109.371 426.131 Q112.45 421.524 118.26 421.524 Z" fill="#000000" fill-rule="evenodd" fill-opacity="1" /><path clip-path="url(#clip330)" d="M 0 0 M55.2745 185.355 L73.6309 185.355 L73.6309 189.29 L59.5569 189.29 L59.5569 197.762 Q60.5754 197.415 61.5939 197.253 Q62.6124 197.068 63.6309 197.068 Q69.418 197.068 72.7976 200.239 Q76.1772 203.41 76.1772 208.827 Q76.1772 214.406 72.705 217.508 Q69.2328 220.586 62.9134 220.586 Q60.7374 220.586 58.4689 220.216 Q56.2236 219.846 53.8162 219.105 L53.8162 214.406 Q55.8995 215.54 58.1217 216.096 Q60.3439 216.651 62.8208 216.651 Q66.8254 216.651 69.1633 214.545 Q71.5013 212.438 71.5013 208.827 Q71.5013 205.216 69.1633 203.109 Q66.8254 201.003 62.8208 201.003 Q60.9458 201.003 59.0708 201.42 Q57.2189 201.836 55.2745 202.716 L55.2745 185.355 Z" fill="#000000" fill-rule="evenodd" fill-opacity="1" /><path clip-path="url(#clip330)" d="M 0 0 M91.2465 188.434 Q87.6354 188.434 85.8068 191.998 Q84.0012 195.54 84.0012 202.67 Q84.0012 209.776 85.8068 213.341 Q87.6354 216.883 91.2465 216.883 Q94.8808 216.883 96.6863 213.341 Q98.515 209.776 98.515 202.67 Q98.515 195.54 96.6863 191.998 Q94.8808 188.434 91.2465 188.434 M91.2465 184.73 Q97.0567 184.73 100.112 189.336 Q103.191 193.92 103.191 202.67 Q103.191 211.396 100.112 216.003 Q97.0567 220.586 91.2465 220.586 Q85.4364 220.586 82.3577 216.003 Q79.3022 211.396 79.3022 202.67 Q79.3022 193.92 82.3577 189.336 Q85.4364 184.73 91.2465 184.73 Z" fill="#000000" fill-rule="evenodd" fill-opacity="1" /><path clip-path="url(#clip330)" d="M 0 0 M118.26 188.434 Q114.649 188.434 112.82 191.998 Q111.015 195.54 111.015 202.67 Q111.015 209.776 112.82 213.341 Q114.649 216.883 118.26 216.883 Q121.895 216.883 123.7 213.341 Q125.529 209.776 125.529 202.67 Q125.529 195.54 123.7 191.998 Q121.895 188.434 118.26 188.434 M118.26 184.73 Q124.07 184.73 127.126 189.336 Q130.205 193.92 130.205 202.67 Q130.205 211.396 127.126 216.003 Q124.07 220.586 118.26 220.586 Q112.45 220.586 109.371 216.003 Q106.316 211.396 106.316 202.67 Q106.316 193.92 109.371 189.336 Q112.45 184.73 118.26 184.73 Z" fill="#000000" fill-rule="evenodd" fill-opacity="1" /><polyline clip-path="url(#clip332)" style="stroke:#009af9; stroke-width:8; stroke-opacity:1; fill:none" points="
  166.205,1384.24 168.391,1364.39 170.578,1349.69 172.764,1338.78 174.951,1330.67 177.137,1324.62 179.324,1320.09 181.511,1316.67 183.697,1314.08 185.884,1312.08 
  188.07,1310.53 190.257,1309.31 192.443,1308.32 194.63,1307.52 196.816,1306.85 199.003,1306.27 201.189,1305.76 203.376,1305.3 205.563,1304.89 207.749,1304.5 
  209.936,1304.13 212.122,1303.77 214.309,1303.42 216.495,1303.08 218.682,1302.74 220.868,1302.4 223.055,1302.07 225.242,1301.73 227.428,1301.39 229.615,1301.05 
  231.801,1300.7 233.988,1300.35 236.174,1300 238.361,1299.64 240.547,1299.28 242.734,1298.91 244.921,1298.54 247.107,1298.16 249.294,1297.77 251.48,1297.38 
  253.667,1296.99 255.853,1296.59 258.04,1296.18 260.226,1295.76 262.413,1295.34 264.599,1294.91 266.786,1294.47 268.973,1294.02 271.159,1293.57 273.346,1293.11 
  275.532,1292.65 277.719,1292.17 279.905,1291.68 282.092,1291.18 284.278,1290.67 286.465,1290.16 288.652,1289.64 290.838,1289.1 293.025,1288.56 295.211,1288 
  297.398,1287.43 299.584,1286.84 301.771,1286.24 303.957,1285.63 306.144,1285 308.33,1284.37 310.517,1283.72 312.704,1283.05 314.89,1282.37 317.077,1281.66 
  319.263,1280.94 321.45,1280.2 323.636,1279.43 325.823,1278.64 328.009,1277.84 330.196,1277.01 332.383,1276.16 334.569,1275.28 336.756,1274.38 338.942,1273.45 
  341.129,1272.49 343.315,1271.49 345.502,1270.45 347.688,1269.37 349.875,1268.25 352.062,1267.09 354.248,1265.88 356.435,1264.63 358.621,1263.34 360.808,1261.98 
  362.994,1260.57 365.181,1259.09 367.367,1257.54 369.554,1255.91 371.74,1254.18 373.927,1252.34 376.114,1250.4 378.3,1248.34 380.487,1246.15 382.673,1243.83 
  384.86,1241.35 387.046,1238.69 389.233,1235.82 391.419,1232.71 393.606,1229.32 395.793,1225.63 397.979,1221.57 400.166,1217.12 402.352,1212.3 404.539,1206.97 
  406.725,1200.92 408.912,1193.93 411.098,1185.77 413.285,1176.15 415.472,1164.78 417.658,1151.35 419.845,1135.5 422.031,1116.87 424.218,1095.03 426.404,1069.44 
  428.591,1040.01 430.777,1007.36 432.964,972.814 435.15,938.128 437.337,904.623 439.524,872.925 441.71,842.942 443.897,813.883 446.083,785.604 448.27,760.348 
  450.456,741.933 452.643,735.398 454.829,743.214 457.016,763.078 459.203,791.491 461.389,825.09 463.576,861.17 465.762,897.911 467.949,934.133 470.135,969.044 
  472.322,1002.18 474.508,1033.25 476.695,1062.1 478.881,1088.66 481.068,1112.88 483.255,1134.82 485.441,1154.58 487.628,1172.21 489.814,1187.81 492.001,1201.55 
  494.187,1213.57 496.374,1223.99 498.56,1232.96 500.747,1240.67 502.934,1247.24 505.12,1252.79 507.307,1257.44 509.493,1261.33 511.68,1264.56 513.866,1267.21 
  516.053,1269.36 518.239,1271.08 520.426,1272.44 522.613,1273.49 524.799,1274.27 526.986,1274.82 529.172,1275.17 531.359,1275.35 533.545,1275.38 535.732,1275.29 
  537.918,1275.07 540.105,1274.76 542.291,1274.36 544.478,1273.88 546.665,1273.32 548.851,1272.69 551.038,1272.01 553.224,1271.26 555.411,1270.45 557.597,1269.58 
  559.784,1268.66 561.97,1267.69 564.157,1266.66 566.344,1265.57 568.53,1264.42 570.717,1263.21 572.903,1261.94 575.09,1260.6 577.276,1259.19 579.463,1257.7 
  581.649,1256.13 583.836,1254.46 586.023,1252.7 588.209,1250.83 590.396,1248.85 592.582,1246.75 594.769,1244.5 596.955,1242.09 599.142,1239.49 601.328,1236.69 
  603.515,1233.65 605.701,1230.34 607.888,1226.72 610.075,1222.76 612.261,1218.38 614.448,1213.49 616.634,1208 618.821,1201.79 621.007,1194.73 623.194,1186.74 
  625.38,1177.78 627.567,1167.24 629.754,1154.52 631.94,1139.13 634.127,1120.67 636.313,1098.85 638.5,1073.46 640.686,1044.35 642.873,1011.83 645.059,977.744 
  647.246,943.812 649.432,911.423 651.619,881.577 653.806,853.96 655.992,827.79 658.179,802.894 660.365,779.871 662.552,761.931 664.738,753.025 666.925,755.869 
  669.111,770.529 671.298,795.298 673.485,826.243 675.671,859.784 677.858,894.775 680.044,929.828 682.231,964.023 684.417,996.748 686.604,1027.63 688.79,1056.46 
  690.977,1083.11 693.164,1107.55 695.35,1129.78 697.537,1149.81 699.723,1167.75 701.91,1183.75 704.096,1197.88 706.283,1210.23 708.469,1220.99 710.656,1230.32 
  712.842,1238.34 715.029,1245.17 717.216,1250.97 719.402,1255.87 721.589,1259.98 723.775,1263.38 725.962,1266.18 728.148,1268.48 730.335,1270.33 732.521,1271.79 
  734.708,1272.93 736.895,1273.79 739.081,1274.41 741.268,1274.82 743.454,1275.05 745.641,1275.13 747.827,1275.07 750.014,1274.89 752.2,1274.6 754.387,1274.23 
  756.573,1273.77 758.76,1273.23 760.947,1272.62 763.133,1271.95 765.32,1271.21 767.506,1270.41 769.693,1269.56 771.879,1268.65 774.066,1267.68 776.252,1266.66 
  778.439,1265.58 780.626,1264.44 782.812,1263.24 784.999,1261.97 787.185,1260.64 789.372,1259.23 791.558,1257.75 793.745,1256.18 795.931,1254.53 798.118,1252.78 
  800.305,1250.92 802.491,1248.95 804.678,1246.85 806.864,1244.6 809.051,1242.18 811.237,1239.58 813.424,1236.78 815.61,1233.75 817.797,1230.47 819.983,1226.87 
  822.17,1222.91 824.357,1218.53 826.543,1213.65 828.73,1208.19 830.916,1202.08 833.103,1195.22 835.289,1187.34 837.476,1178.13 839.662,1167.25 841.849,1154.34 
  844.036,1139.03 846.222,1120.89 848.409,1099.51 850.595,1074.42 852.782,1045.47 854.968,1013.28 857.155,979.184 859.341,945.027 861.528,912.505 863.715,882.479 
  865.901,854.886 868.088,828.724 870.274,803.87 872.461,781.574 874.647,764.155 876.834,754.891 879.02,757.549 881.207,772.225 883.393,796.006 885.58,825.861 
  887.767,859.241 889.953,894.106 892.14,929.023 894.326,963.126 896.513,995.79 898.699,1026.63 900.886,1055.44 903.072,1082.09 905.259,1106.55 907.446,1128.82 
  909.632,1148.9 911.819,1166.9 914.005,1182.94 916.192,1197.13 918.378,1209.55 920.565,1220.37 922.751,1229.76 924.938,1237.84 927.124,1244.73 929.311,1250.58 
  931.498,1255.53 933.684,1259.68 935.871,1263.11 938.057,1265.95 940.244,1268.27 942.43,1270.15 944.617,1271.64 946.803,1272.8 948.99,1273.67 951.177,1274.31 
  953.363,1274.73 955.55,1274.97 957.736,1275.06 959.923,1275.01 962.109,1274.84 964.296,1274.56 966.482,1274.19 968.669,1273.73 970.856,1273.2 973.042,1272.6 
  975.229,1271.92 977.415,1271.19 979.602,1270.4 981.788,1269.54 983.975,1268.64 986.161,1267.67 988.348,1266.65 990.534,1265.57 992.721,1264.43 994.908,1263.23 
  997.094,1261.97 999.281,1260.63 1001.47,1259.23 1003.65,1257.74 1005.84,1256.18 1008.03,1254.53 1010.21,1252.78 1012.4,1250.93 1014.59,1248.95 1016.77,1246.85 
  1018.96,1244.6 1021.15,1242.18 1023.33,1239.58 1025.52,1236.78 1027.71,1233.76 1029.89,1230.47 1032.08,1226.87 1034.27,1222.91 1036.45,1218.53 1038.64,1213.65 
  1040.83,1208.2 1043.01,1202.12 1045.2,1195.25 1047.38,1187.32 1049.57,1178.07 1051.76,1167.16 1053.94,1154.25 1056.13,1138.95 1058.32,1120.86 1060.5,1099.52 
  1062.69,1074.42 1064.88,1045.44 1067.06,1013.22 1069.25,979.125 1071.44,944.986 1073.62,912.471 1075.81,882.445 1078,854.887 1080.18,828.982 1082.37,804.303 
  1084.56,781.889 1086.74,764.239 1088.93,755.033 1091.12,757.928 1093.3,772.55 1095.49,796.314 1097.68,826.193 1099.86,859.567 1102.05,894.374 1104.24,929.265 
  1106.42,963.332 1108.61,995.954 1110.79,1026.76 1112.98,1055.54 1115.17,1082.18 1117.35,1106.62 1119.54,1128.85 1121.73,1148.91 1123.91,1166.92 1126.1,1182.97 
  1128.29,1197.12 1130.47,1209.53 1132.66,1220.37 1134.85,1229.76 1137.03,1237.82 1139.22,1244.7 1141.41,1250.56 1143.59,1255.52 1145.78,1259.65 1147.97,1263.09 
  1150.15,1265.93 1152.34,1268.26 1154.53,1270.13 1156.71,1271.62 1158.9,1272.78 1161.09,1273.65 1163.27,1274.29 1165.46,1274.71 1167.65,1274.96 1169.83,1275.04 
  1172.02,1274.99 1174.2,1274.82 1176.39,1274.54 1178.58,1274.17 1180.76,1273.72 1182.95,1273.18 1185.14,1272.58 1187.32,1271.91 1189.51,1271.17 1191.7,1270.38 
  1193.88,1269.53 1196.07,1268.62 1198.26,1267.65 1200.44,1266.63 1202.63,1265.55 1204.82,1264.41 1207,1263.21 1209.19,1261.95 1211.38,1260.61 1213.56,1259.21 
  1215.75,1257.72 1217.94,1256.16 1220.12,1254.51 1222.31,1252.76 1224.5,1250.9 1226.68,1248.92 1228.87,1246.8 1231.06,1244.54 1233.24,1242.12 1235.43,1239.53 
  1237.61,1236.74 1239.8,1233.71 1241.99,1230.42 1244.17,1226.82 1246.36,1222.86 1248.55,1218.48 1250.73,1213.63 1252.92,1208.21 1255.11,1202.1 1257.29,1195.12 
  1259.48,1187.07 1261.67,1177.7 1263.85,1166.73 1266.04,1153.85 1268.23,1138.77 1270.41,1121.2 1272.6,1100.03 1274.79,1074.69 1276.97,1045.28 1279.16,1012.64 
  1281.35,978.259 1283.53,944.039 1285.72,911.485 1287.91,881.473 1290.09,853.998 1292.28,828.201 1294.47,803.597 1296.65,781.391 1298.84,764.031 1301.02,755.02 
  1303.21,758.074 1305.4,772.861 1307.58,796.735 1309.77,826.675 1311.96,860.089 1314.14,894.924 1316.33,929.816 1318.52,963.875 1320.7,996.482 1322.89,1027.27 
  1325.08,1056.02 1327.26,1082.62 1329.45,1107.03 1331.64,1129.23 1333.82,1149.26 1336.01,1167.23 1338.2,1183.24 1340.38,1197.37 1342.57,1209.75 1344.76,1220.56 
  1346.94,1229.93 1349.13,1237.97 1351.32,1244.83 1353.5,1250.67 1355.69,1255.61 1357.88,1259.73 1360.06,1263.16 1362.25,1265.99 1364.43,1268.31 1366.62,1270.17 
  1368.81,1271.65 1370.99,1272.81 1373.18,1273.68 1375.37,1274.31 1377.55,1274.73 1379.74,1274.97 1381.93,1275.05 1384.11,1275 1386.3,1274.83 1388.49,1274.55 
  1390.67,1274.18 1392.86,1273.72 1395.05,1273.18 1397.23,1272.58 1399.42,1271.9 1401.61,1271.17 1403.79,1270.38 1405.98,1269.52 1408.17,1268.61 1410.35,1267.65 
  1412.54,1266.63 1414.73,1265.54 1416.91,1264.4 1419.1,1263.2 1421.29,1261.94 1423.47,1260.6 1425.66,1259.19 1427.84,1257.71 1430.03,1256.15 1432.22,1254.49 
  1434.4,1252.74 1436.59,1250.88 1438.78,1248.9 1440.96,1246.78 1443.15,1244.52 1445.34,1242.1 1447.52,1239.51 1449.71,1236.71 1451.9,1233.68 1454.08,1230.39 
  1456.27,1226.78 1458.46,1222.82 1460.64,1218.43 1462.83,1213.57 1465.02,1208.15 1467.2,1202.04 1469.39,1195.07 1471.58,1187.03 1473.76,1177.66 1475.95,1166.67 
  1478.14,1153.75 1480.32,1138.52 1482.51,1121.27 1484.7,1100.93 1486.88,1076.29 1489.07,1047.03 1491.25,1013.74 1493.44,977.89 1495.63,941.861 1497.81,908.803 
  1500,879.273 1502.19,852.245 1504.37,827.259 1506.56,804.092 1508.75,782.757 1510.93,765.167 1513.12,756.075 1515.31,758.422 1517.49,772.224 1519.68,796.327 
  1521.87,826.505 1524.05,859.699 1526.24,894.421 1528.43,929.295 1530.61,963.352 1532.8,995.969 1534.99,1026.79 1537.17,1055.59 1539.36,1082.24 1541.55,1106.69 
  1543.73,1128.91 1545.92,1148.99 1548.11,1167.01 1550.29,1183.06 1552.48,1197.21 1554.66,1209.63 1556.85,1220.47 1559.04,1229.86 1561.22,1237.9 1563.41,1244.79 
  1565.6,1250.66 1567.78,1255.6 1569.97,1259.73 1572.16,1263.17 1574.34,1266.01 1576.53,1268.34 1578.72,1270.2 1580.9,1271.69 1583.09,1272.84 1585.28,1273.72 
  1587.46,1274.35 1589.65,1274.78 1591.84,1275.02 1594.02,1275.1 1596.21,1275.05 1598.4,1274.88 1600.58,1274.6 1602.77,1274.23 1604.96,1273.77 1607.14,1273.24 
  1609.33,1272.64 1611.52,1271.96 1613.7,1271.23 1615.89,1270.44 1618.07,1269.59 1620.26,1268.68 1622.45,1267.72 1624.63,1266.7 1626.82,1265.62 1629.01,1264.48 
  1631.19,1263.28 1633.38,1262.02 1635.57,1260.69 1637.75,1259.29 1639.94,1257.81 1642.13,1256.25 1644.31,1254.6 1646.5,1252.85 1648.69,1251 1650.87,1249.02 
  1653.06,1246.91 1655.25,1244.66 1657.43,1242.25 1659.62,1239.67 1661.81,1236.9 1663.99,1233.89 1666.18,1230.61 1668.37,1227.02 1670.55,1223.09 1672.74,1218.74 
  1674.93,1213.92 1677.11,1208.53 1679.3,1202.45 1681.48,1195.5 1683.67,1187.49 1685.86,1178.19 1688.04,1167.33 1690.23,1154.6 1692.42,1139.89 1694.6,1122.42 
  1696.79,1101.24 1698.98,1075.98 1701.16,1046.82 1703.35,1014.51 1705.54,980.358 1707.72,946.079 1709.91,913.359 1712.1,883.094 1714.28,855.33 1716.47,829.303 
  1718.66,804.531 1720.84,782.02 1723.03,764.21 1725.22,754.706 1727.4,757.244 1729.59,771.575 1731.78,795.137 1733.96,824.905 1736.15,858.24 1738.34,893.062 
  1740.52,927.997 1742.71,962.13 1744.89,994.831 1747.08,1025.72 1749.27,1054.59 1751.45,1081.31 1753.64,1105.84 1755.83,1128.15 1758.01,1148.29 1760.2,1166.37 
  1762.39,1182.48 1764.57,1196.7 1766.76,1209.16 1768.95,1220.05 1771.13,1229.49 1773.32,1237.59 1775.51,1244.51 1777.69,1250.4 1779.88,1255.38 1782.07,1259.54 
  1784.25,1263 1786.44,1265.86 1788.63,1268.2 1790.81,1270.09 1793,1271.59 1795.19,1272.75 1797.37,1273.64 1799.56,1274.28 1801.74,1274.71 1803.93,1274.96 
  1806.12,1275.05 1808.3,1275 1810.49,1274.84 1812.68,1274.56 1814.86,1274.2 1817.05,1273.74 1819.24,1273.21 1821.42,1272.61 1823.61,1271.94 1825.8,1271.21 
  1827.98,1270.42 1830.17,1269.57 1832.36,1268.66 1834.54,1267.7 1836.73,1266.68 1838.92,1265.6 1841.1,1264.46 1843.29,1263.27 1845.48,1262 1847.66,1260.67 
  1849.85,1259.27 1852.04,1257.79 1854.22,1256.23 1856.41,1254.58 1858.6,1252.83 1860.78,1250.98 1862.97,1249 1865.15,1246.89 1867.34,1244.64 1869.53,1242.23 
  1871.71,1239.64 1873.9,1236.86 1876.09,1233.85 1878.27,1230.57 1880.46,1226.98 1882.65,1223.03 1884.83,1218.67 1887.02,1213.85 1889.21,1208.46 1891.39,1202.38 
  1893.58,1195.44 1895.77,1187.44 1897.95,1178.13 1900.14,1167.24 1902.33,1154.44 1904.51,1139.45 1906.7,1122.01 1908.89,1101.02 1911.07,1075.87 1913.26,1046.63 
  1915.45,1014.09 1917.63,979.735 1919.82,945.471 1922.01,912.817 1924.19,882.682 1926.38,855.104 1928.56,829.259 1930.75,804.581 1932.94,782.223 1935.12,764.587 
  1937.31,755.13 1939.5,757.642 1941.68,771.985 1943.87,795.539 1946.06,825.282 1948.24,858.6 1950.43,893.413 1952.62,928.326 1954.8,962.438 1956.99,995.119 
  1959.18,1025.99 1961.36,1054.83 1963.55,1081.53 1965.74,1106.03 1967.92,1128.33 1970.11,1148.45 1972.3,1166.51 1974.48,1182.6 1976.67,1196.81 1978.86,1209.26 
  1981.04,1220.13 1983.23,1229.56 1985.42,1237.65 1987.6,1244.56 1989.79,1250.44 1991.97,1255.42 1994.16,1259.58 1996.35,1263.03 1998.53,1265.88 2000.72,1268.22 
  2002.91,1270.1 2005.09,1271.6 2007.28,1272.76 2009.47,1273.65 2011.65,1274.29 2013.84,1274.72 2016.03,1274.96 2018.21,1275.05 2020.4,1275 2022.59,1274.84 
  2024.77,1274.56 2026.96,1274.19 2029.15,1273.74 2031.33,1273.21 2033.52,1272.61 2035.71,1271.94 2037.89,1271.2 2040.08,1270.41 2042.27,1269.56 2044.45,1268.65 
  2046.64,1267.69 2048.83,1266.67 2051.01,1265.59 2053.2,1264.46 2055.38,1263.26 2057.57,1261.99 2059.76,1260.66 2061.94,1259.26 2064.13,1257.78 2066.32,1256.22 
  2068.5,1254.57 2070.69,1252.82 2072.88,1250.97 2075.06,1248.99 2077.25,1246.88 2079.44,1244.62 2081.62,1242.21 2083.81,1239.62 2086,1236.84 2088.18,1233.82 
  2090.37,1230.54 2092.56,1226.95 2094.74,1223 2096.93,1218.63 2099.12,1213.79 2101.3,1208.4 2103.49,1202.32 2105.68,1195.39 2107.86,1187.4 2110.05,1178.09 
  2112.24,1167.19 2114.42,1154.35 2116.61,1139.24 2118.79,1122.13 2120.98,1101.97 2123.17,1077.52 2125.35,1048.42 2127.54,1015.25 2129.73,979.441 2131.91,943.36 
  2134.1,910.152 2136.29,880.456 2138.47,853.297 2140.66,828.223 2142.85,804.972 2145.03,783.473 2147.22,765.649 2149.41,756.142 2151.59,758.017 2153.78,771.489 
  2155.97,795.073 2158.15,825.334 2160.34,858.34 2162.53,892.988 2164.71,927.835 2166.9,961.925 2169.09,994.615 2171.27,1025.51 2173.46,1054.4 2175.65,1081.14 
  2177.83,1105.68 2180.02,1128.03 2182.2,1148.18 2184.39,1166.27 2186.58,1182.4 2188.76,1196.66 2190.95,1209.14 2193.14,1220.03 2195.32,1229.48 2197.51,1237.61 
  2199.7,1244.53 2201.88,1250.42 2204.07,1255.41 2206.26,1259.58 2208.44,1263.05 2210.63,1265.9 2212.82,1268.24 2215,1270.14 2217.19,1271.64 2219.38,1272.81 
  2221.56,1273.69 2223.75,1274.33 2225.94,1274.76 2228.12,1275.01 2230.31,1275.1 2232.5,1275.06 2234.68,1274.89 2236.87,1274.62 2239.06,1274.25 2241.24,1273.8 
  2243.43,1273.27 2245.61,1272.66 2247.8,1272 2249.99,1271.27 2252.17,1270.47 2254.36,1269.63 2256.55,1268.72 2258.73,1267.76 2260.92,1266.74 2263.11,1265.67 
  2265.29,1264.53 2267.48,1263.34 2269.67,1262.08 2271.85,1260.75 2274.04,1259.35 2276.23,1257.87 2278.41,1256.31 2280.6,1254.67 2282.79,1252.93 2284.97,1251.08 
  2287.16,1249.12 2289.35,1247.03 2291.53,1244.78 2293.72,1242.37 2295.91,1239.79 2298.09,1237.01 2300.28,1234.01 2302.47,1230.74 2304.65,1227.17 2306.84,1223.25 
  2309.02,1218.9 2311.21,1214.07 2313.4,1208.68 2315.58,1202.66 2317.77,1195.85 2319.96,1188.01 2322.14,1178.86 2324.33,1168.09 2326.52,1155.36 2328.7,1140.3 
  2330.89,1122.48 2333.08,1101.48 2335.26,1076.71 2337.45,1048.02 2339.64,1016 2341.82,981.974 2344.01,947.76 2346.2,915.027 2348.38,884.707 2350.57,856.897 
  2352.76,830.913 
  "/>
<polyline clip-path="url(#clip332)" style="stroke:#e26f46; stroke-width:8; stroke-opacity:1; fill:none" points="
  166.205,1384.24 168.391,1381.68 170.578,1375.7 172.764,1367.2 174.951,1356.83 177.137,1345.11 179.324,1332.4 181.511,1318.97 183.697,1305.01 185.884,1290.69 
  188.07,1276.09 190.257,1261.31 192.443,1246.39 194.63,1231.39 196.816,1216.32 199.003,1201.23 201.189,1186.12 203.376,1171 205.563,1155.89 207.749,1140.79 
  209.936,1125.71 212.122,1110.66 214.309,1095.63 216.495,1080.62 218.682,1065.65 220.868,1050.71 223.055,1035.81 225.242,1020.94 227.428,1006.1 229.615,991.304 
  231.801,976.543 233.988,961.821 236.174,947.139 238.361,932.496 240.547,917.894 242.734,903.334 244.921,888.816 247.107,874.341 249.294,859.91 251.48,845.523 
  253.667,831.182 255.853,816.887 258.04,802.639 260.226,788.439 262.413,774.289 264.599,760.188 266.786,746.137 268.973,732.138 271.159,718.19 273.346,704.297 
  275.532,690.458 277.719,676.677 279.905,662.954 282.092,649.289 284.278,635.684 286.465,622.138 288.652,608.654 290.838,595.233 293.025,581.877 295.211,568.588 
  297.398,555.37 299.584,542.224 301.771,529.149 303.957,516.148 306.144,503.221 308.33,490.371 310.517,477.599 312.704,464.909 314.89,452.304 317.077,439.786 
  319.263,427.36 321.45,415.029 323.636,402.793 325.823,390.655 328.009,378.618 330.196,366.684 332.383,354.857 334.569,343.142 336.756,331.543 338.942,320.065 
  341.129,308.715 343.315,297.497 345.502,286.421 347.688,275.489 349.875,264.707 352.062,254.079 354.248,243.611 356.435,233.313 358.621,223.192 360.808,213.259 
  362.994,203.526 365.181,194.005 367.367,184.709 369.554,175.655 371.74,166.861 373.927,158.346 376.114,150.126 378.3,142.218 380.487,134.645 382.673,127.437 
  384.86,120.631 387.046,114.268 389.233,108.395 391.419,103.067 393.606,98.3434 395.793,94.2901 397.979,90.9787 400.166,88.4748 402.352,86.8178 404.539,86.1857 
  406.725,86.8249 408.912,89.0357 411.098,93.1726 413.285,99.644 415.472,108.912 417.658,121.494 419.845,137.96 422.031,158.934 424.218,185.118 426.404,217.417 
  428.591,256.338 430.777,301.595 432.964,352.107 435.15,406.226 437.337,462.566 439.524,520.372 441.71,579.581 443.897,640.793 446.083,704.079 448.27,767.072 
  450.456,825.426 452.643,873.176 454.829,906.549 457.016,926.451 459.203,935.336 461.389,935.919 463.576,930.52 465.762,920.804 467.949,907.951 470.135,892.851 
  472.322,876.124 474.508,858.238 476.695,839.58 478.881,820.454 481.068,801.11 483.255,781.736 485.441,762.48 487.628,743.48 489.814,724.84 492.001,706.6 
  494.187,688.795 496.374,671.464 498.56,654.608 500.747,638.194 502.934,622.202 505.12,606.629 507.307,591.437 509.493,576.581 511.68,562.033 513.866,547.776 
  516.053,533.778 518.239,520.01 520.426,506.45 522.613,493.083 524.799,479.896 526.986,466.873 529.172,454.002 531.359,441.275 533.545,428.686 535.732,416.231 
  537.918,403.904 540.105,391.705 542.291,379.631 544.478,367.683 546.665,355.861 548.851,344.166 551.038,332.601 553.224,321.168 555.411,309.871 557.597,298.714 
  559.784,287.703 561.97,276.841 564.157,266.136 566.344,255.595 568.53,245.224 570.717,235.031 572.903,225.025 575.09,215.217 577.276,205.619 579.463,196.242 
  581.649,187.105 583.836,178.221 586.023,169.603 588.209,161.27 590.396,153.244 592.582,145.551 594.769,138.22 596.955,131.285 599.142,124.783 601.328,118.756 
  603.515,113.259 605.701,108.341 607.888,104.066 610.075,100.522 612.261,97.8191 614.448,96.0909 616.634,95.4931 618.821,96.2047 621.007,98.4274 623.194,102.318 
  625.38,108.025 627.567,116.305 629.754,127.928 631.94,143.616 634.127,164.036 636.313,189.807 638.5,221.495 640.686,259.644 642.873,304.274 645.059,353.836 
  647.246,406.7 649.432,461.369 651.619,516.578 653.806,572.43 655.992,629.505 658.179,687.839 660.365,746.687 662.552,802.518 664.738,850.786 666.925,887.644 
  669.111,911.763 671.298,923.742 673.485,926.716 675.671,923.878 677.858,916.146 680.044,904.837 682.231,890.915 684.417,875.12 686.604,857.993 688.79,839.921 
  690.977,821.247 693.164,802.237 695.35,783.112 697.537,764.055 699.723,745.184 701.91,726.589 704.096,708.358 706.283,690.561 708.469,673.203 710.656,656.279 
  712.842,639.8 715.029,623.767 717.216,608.133 719.402,592.863 721.589,577.939 723.775,563.346 725.962,549.042 728.148,534.994 730.335,521.18 732.521,507.587 
  734.708,494.192 736.895,480.978 739.081,467.929 741.268,455.035 743.454,442.29 745.641,429.686 747.827,417.217 750.014,404.877 752.2,392.666 754.387,380.582 
  756.573,368.624 758.76,356.792 760.947,345.089 763.133,333.516 765.32,322.075 767.506,310.77 769.693,299.606 771.879,288.587 774.066,277.718 776.252,267.005 
  778.439,256.454 780.626,246.073 782.812,235.871 784.999,225.856 787.185,216.041 789.372,206.436 791.558,197.051 793.745,187.901 795.931,178.999 798.118,170.362 
  800.305,162.013 802.491,153.971 804.678,146.264 806.864,138.92 809.051,131.976 811.237,125.461 813.424,119.411 815.61,113.878 817.797,108.926 819.983,104.63 
  822.17,101.081 824.357,98.3806 826.543,96.6447 828.73,96.0017 830.916,96.5741 833.103,98.5343 835.289,102.247 837.476,108.145 839.662,116.716 841.849,128.508 
  844.036,144.126 846.222,164.233 848.409,189.549 850.595,220.888 852.782,258.794 854.968,303.016 857.155,352.459 859.341,405.389 861.528,460.018 863.715,515.301 
  865.901,571.042 868.088,627.952 870.274,686.143 872.461,744.221 874.647,799.433 876.834,847.801 879.02,884.6 881.207,908.526 883.393,921.395 885.58,925.453 
  887.767,922.815 889.953,915.272 892.14,904.173 894.326,890.432 896.513,874.79 898.699,857.793 900.886,839.843 903.072,821.272 905.259,802.345 907.446,783.281 
  909.632,764.27 911.819,745.436 914.005,726.87 916.192,708.656 918.378,690.867 920.565,673.512 922.751,656.585 924.938,640.1 927.124,624.057 929.311,608.414 
  931.498,593.135 933.684,578.203 935.871,563.601 938.057,549.288 940.244,535.231 942.43,521.41 944.617,507.811 946.803,494.412 948.99,481.192 951.177,468.138 
  953.363,455.241 955.55,442.493 957.736,429.887 959.923,417.415 962.109,405.074 964.296,392.861 966.482,380.775 968.669,368.815 970.856,356.983 973.042,345.279 
  975.229,333.704 977.415,322.263 979.602,310.957 981.788,299.792 983.975,288.772 986.161,277.903 988.348,267.189 990.534,256.637 992.721,246.256 994.908,236.053 
  997.094,226.038 999.281,216.223 1001.47,206.617 1003.65,197.231 1005.84,188.079 1008.03,179.175 1010.21,170.538 1012.4,162.188 1014.59,154.147 1016.77,146.439 
  1018.96,139.099 1021.15,132.155 1023.33,125.636 1025.52,119.584 1027.71,114.05 1029.89,109.099 1032.08,104.807 1034.27,101.263 1036.45,98.5654 1038.64,96.8262 
  1040.83,96.1685 1043.01,96.7073 1045.2,98.678 1047.38,102.429 1049.57,108.372 1051.76,116.98 1053.94,128.79 1056.13,144.401 1058.32,164.475 1060.5,189.737 
  1062.69,221.081 1064.88,259.029 1067.06,303.284 1069.25,352.735 1071.44,405.65 1073.62,460.27 1075.81,515.555 1078,571.272 1080.18,627.956 1082.37,685.96 
  1084.56,744.092 1086.74,799.473 1088.93,847.76 1091.12,884.318 1093.3,908.262 1095.49,921.107 1097.68,925.109 1099.86,922.45 1102.05,914.932 1104.24,903.835 
  1106.42,890.108 1108.61,874.49 1110.79,857.512 1112.98,839.574 1115.17,821.014 1117.35,802.1 1119.54,783.058 1121.73,764.061 1123.91,745.226 1126.1,726.663 
  1128.29,708.47 1130.47,690.689 1132.66,673.327 1134.85,656.403 1137.03,639.937 1139.22,623.897 1141.41,608.246 1143.59,592.966 1145.78,578.048 1147.97,563.448 
  1150.15,549.131 1152.34,535.073 1154.53,521.259 1156.71,507.663 1158.9,494.263 1161.09,481.042 1163.27,467.989 1165.46,455.096 1167.65,442.35 1169.83,429.744 
  1172.02,417.273 1174.2,404.933 1176.39,392.722 1178.58,380.638 1180.76,368.68 1182.95,356.849 1185.14,345.146 1187.32,333.574 1189.51,322.134 1191.7,310.831 
  1193.88,299.668 1196.07,288.65 1198.26,277.782 1200.44,267.07 1202.63,256.521 1204.82,246.142 1207,235.943 1209.19,225.933 1211.38,216.12 1213.56,206.515 
  1215.75,197.13 1217.94,187.98 1220.12,179.08 1222.31,170.447 1224.5,162.103 1226.68,154.074 1228.87,146.382 1231.06,139.048 1233.24,132.102 1235.43,125.584 
  1237.61,119.538 1239.8,114.019 1241.99,109.089 1244.17,104.819 1246.36,101.286 1248.55,98.5786 1250.73,96.7984 1252.92,96.0882 1255.11,96.6438 1257.29,98.7188 
  1259.48,102.625 1261.67,108.73 1263.85,117.463 1266.04,129.307 1268.23,144.715 1270.41,164.215 1272.6,189.299 1274.79,220.918 1276.97,259.307 1279.16,303.979 
  1281.35,353.73 1283.53,406.82 1285.72,461.577 1287.91,516.939 1290.09,572.666 1292.28,629.333 1294.47,687.319 1296.65,745.306 1298.84,800.447 1301.02,848.555 
  1303.21,884.939 1305.4,908.693 1307.58,921.393 1309.77,925.289 1311.96,922.538 1314.14,914.939 1316.33,903.785 1318.52,890.011 1320.7,874.355 1322.89,857.35 
  1325.08,839.391 1327.26,820.816 1329.45,801.892 1331.64,782.841 1333.82,763.842 1336.01,745.009 1338.2,726.448 1340.38,708.256 1342.57,690.481 1344.76,673.126 
  1346.94,656.208 1349.13,639.745 1351.32,623.712 1353.5,608.068 1355.69,592.794 1357.88,577.878 1360.06,563.284 1362.25,548.972 1364.43,534.917 1366.62,521.105 
  1368.81,507.512 1370.99,494.115 1373.18,480.897 1375.37,467.846 1377.55,454.954 1379.74,442.21 1381.93,429.606 1384.11,417.137 1386.3,404.798 1388.49,392.588 
  1390.67,380.505 1392.86,368.549 1395.05,356.719 1397.23,345.018 1399.42,333.446 1401.61,322.008 1403.79,310.706 1405.98,299.544 1408.17,288.528 1410.35,277.661 
  1412.54,266.951 1414.73,256.403 1416.91,246.026 1419.1,235.828 1421.29,225.819 1423.47,216.009 1425.66,206.406 1427.84,197.024 1430.03,187.875 1432.22,178.977 
  1434.4,170.347 1436.59,162.005 1438.78,153.976 1440.96,146.286 1443.15,138.957 1445.34,132.017 1447.52,125.503 1449.71,119.46 1451.9,113.944 1454.08,109.018 
  1456.27,104.754 1458.46,101.232 1460.64,98.542 1462.83,96.7823 1465.02,96.0848 1467.2,96.6437 1469.39,98.7144 1471.58,102.613 1473.76,108.717 1475.95,117.465 
  1478.14,129.356 1480.32,144.94 1482.51,164.133 1484.7,188.367 1486.88,219.26 1489.07,257.486 1491.25,302.77 1493.44,353.891 1495.63,408.682 1497.81,464.123 
  1500,519.252 1502.19,574.71 1504.37,630.726 1506.56,687.318 1508.75,744.299 1510.93,799.509 1513.12,847.606 1515.31,884.636 1517.49,909.383 1519.68,921.895 
  1521.87,925.587 1524.05,923.087 1526.24,915.644 1528.43,904.56 1530.61,890.842 1532.8,875.229 1534.99,858.235 1537.17,840.275 1539.36,821.696 1541.55,802.767 
  1543.73,783.715 1545.92,764.699 1548.11,745.846 1550.29,727.271 1552.48,709.07 1554.66,691.275 1556.85,673.9 1559.04,656.972 1561.22,640.503 1563.41,624.452 
  1565.6,608.79 1567.78,593.506 1569.97,578.584 1572.16,563.977 1574.34,549.653 1576.53,535.591 1578.72,521.773 1580.9,508.173 1583.09,494.768 1585.28,481.542 
  1587.46,468.485 1589.65,455.587 1591.84,442.836 1594.02,430.225 1596.21,417.749 1598.4,405.404 1600.58,393.188 1602.77,381.098 1604.96,369.135 1607.14,357.298 
  1609.33,345.589 1611.52,334.01 1613.7,322.564 1615.89,311.254 1618.07,300.085 1620.26,289.059 1622.45,278.183 1624.63,267.463 1626.82,256.906 1629.01,246.519 
  1631.19,236.311 1633.38,226.291 1635.57,216.467 1637.75,206.851 1639.94,197.454 1642.13,188.291 1644.31,179.378 1646.5,170.732 1648.69,162.375 1650.87,154.332 
  1653.06,146.62 1655.25,139.264 1657.43,132.296 1659.62,125.753 1661.81,119.682 1663.99,114.136 1666.18,109.174 1668.37,104.866 1670.55,101.284 1672.74,98.5157 
  1674.93,96.6726 1677.11,95.9 1679.3,96.3945 1681.48,98.4054 1683.67,102.234 1685.86,108.233 1688.04,116.81 1690.23,128.421 1692.42,143.348 1694.6,162.663 
  1696.79,187.656 1698.98,219.051 1701.16,257.017 1703.35,301.159 1705.54,350.525 1707.72,403.458 1709.91,458.18 1712.1,513.628 1714.28,569.502 1716.47,626.273 
  1718.66,684.339 1720.84,742.55 1723.03,798.089 1725.22,846.692 1727.4,883.654 1729.59,907.973 1731.78,921.129 1733.96,925.366 1736.15,922.877 1738.34,915.477 
  1740.52,904.464 1742.71,890.795 1744.89,875.215 1747.08,858.262 1749.27,840.337 1751.45,821.782 1753.64,802.867 1755.83,783.817 1758.01,764.81 1760.2,745.962 
  1762.39,727.383 1764.57,709.173 1766.76,691.374 1768.95,673.996 1771.13,657.055 1773.32,640.572 1775.51,624.517 1777.69,608.852 1779.88,593.56 1782.07,578.629 
  1784.25,564.019 1786.44,549.692 1788.63,535.625 1790.81,521.802 1793,508.199 1795.19,494.792 1797.37,481.565 1799.56,468.506 1801.74,455.607 1803.93,442.855 
  1806.12,430.245 1808.3,417.768 1810.49,405.423 1812.68,393.207 1814.86,381.117 1817.05,369.155 1819.24,357.319 1821.42,345.611 1823.61,334.033 1825.8,322.587 
  1827.98,311.278 1830.17,300.11 1832.36,289.085 1834.54,278.211 1836.73,267.492 1838.92,256.936 1841.1,246.55 1843.29,236.344 1845.48,226.325 1847.66,216.504 
  1849.85,206.89 1852.04,197.496 1854.22,188.335 1856.41,179.424 1858.6,170.78 1860.78,162.423 1862.97,154.38 1865.15,146.673 1867.34,139.324 1869.53,132.361 
  1871.71,125.823 1873.9,119.756 1876.09,114.214 1878.27,109.258 1880.46,104.958 1882.65,101.393 1884.83,98.6485 1887.02,96.8267 1889.21,96.0673 1891.39,96.5638 
  1893.58,98.5673 1895.77,102.387 1897.95,108.389 1900.14,117 1902.33,128.701 1904.51,143.959 1906.7,163.251 1908.89,188.061 1911.07,219.383 1913.26,257.486 
  1915.45,301.915 1917.63,351.492 1919.82,404.479 1922.01,459.198 1924.19,514.553 1926.38,570.267 1928.56,626.88 1930.75,684.835 1932.94,742.881 1935.12,798.228 
  1937.31,846.749 1939.5,883.688 1941.68,907.953 1943.87,921.08 1946.06,925.301 1948.24,922.792 1950.43,915.367 1952.62,904.342 1954.8,890.661 1956.99,875.071 
  1959.18,858.113 1961.36,840.186 1963.55,821.63 1965.74,802.715 1967.92,783.665 1970.11,764.66 1972.3,745.818 1974.48,727.242 1976.67,709.033 1978.86,691.239 
  1981.04,673.866 1983.23,656.928 1985.42,640.446 1987.6,624.395 1989.79,608.736 1991.97,593.445 1994.16,578.515 1996.35,563.908 1998.53,549.584 2000.72,535.519 
  2002.91,521.697 2005.09,508.095 2007.28,494.69 2009.47,481.465 2011.65,468.407 2013.84,455.508 2016.03,442.758 2018.21,430.148 2020.4,417.673 2022.59,405.328 
  2024.77,393.113 2026.96,381.025 2029.15,369.063 2031.33,357.228 2033.52,345.521 2035.71,333.944 2037.89,322.499 2040.08,311.191 2042.27,300.024 2044.45,289.001 
  2046.64,278.127 2048.83,267.41 2051.01,256.855 2053.2,246.47 2055.38,236.265 2057.57,226.248 2059.76,216.428 2061.94,206.816 2064.13,197.424 2066.32,188.265 
  2068.5,179.356 2070.69,170.714 2072.88,162.359 2075.06,154.316 2077.25,146.611 2079.44,139.266 2081.62,132.308 2083.81,125.774 2086,119.71 2088.18,114.17 
  2090.37,109.218 2092.56,104.923 2094.74,101.367 2096.93,98.638 2099.12,96.8343 2101.3,96.0867 2103.49,96.5869 2105.68,98.5874 2107.86,102.402 2110.05,108.404 
  2112.24,117.028 2114.42,128.77 2116.61,144.178 2118.79,163.157 2120.98,187.121 2123.17,217.718 2125.35,255.65 2127.54,300.671 2129.73,351.59 2131.91,406.27 
  2134.1,461.712 2136.29,516.877 2138.47,572.351 2140.66,628.353 2142.85,684.941 2145.03,742.01 2147.22,797.381 2149.41,845.861 2151.59,883.395 2153.78,908.539 
  2155.97,921.672 2158.15,925.396 2160.34,923.21 2162.53,915.985 2164.71,905.072 2166.9,891.462 2169.09,875.914 2171.27,858.982 2173.46,841.061 2175.65,822.504 
  2177.83,803.581 2180.02,784.519 2182.2,765.503 2184.39,746.65 2186.58,728.06 2188.76,709.825 2190.95,692.015 2193.14,674.632 2195.32,657.68 2197.51,641.176 
  2199.7,625.113 2201.88,609.447 2204.07,594.146 2206.26,579.197 2208.44,564.579 2210.63,550.25 2212.82,536.178 2215,522.344 2217.19,508.734 2219.38,495.323 
  2221.56,482.092 2223.75,469.028 2225.94,456.121 2228.12,443.364 2230.31,430.748 2232.5,418.267 2234.68,405.916 2236.87,393.694 2239.06,381.599 2241.24,369.63 
  2243.43,357.788 2245.61,346.074 2247.8,334.49 2249.99,323.038 2252.17,311.722 2254.36,300.546 2256.55,289.514 2258.73,278.632 2260.92,267.906 2263.11,257.341 
  2265.29,246.946 2267.48,236.729 2269.67,226.699 2271.85,216.868 2274.04,207.245 2276.23,197.841 2278.41,188.669 2280.6,179.745 2282.79,171.086 2284.97,162.712 
  2287.16,154.645 2289.35,146.91 2291.53,139.542 2293.72,132.565 2295.91,126.009 2298.09,119.916 2300.28,114.338 2302.47,109.339 2304.65,104.994 2306.84,101.388 
  2309.02,98.6183 2311.21,96.7926 2313.4,96.0284 2315.58,96.4471 2317.77,98.2939 2319.96,101.902 2322.14,107.667 2324.33,116.052 2326.52,127.58 2328.7,142.841 
  2330.89,162.487 2333.08,187.232 2335.26,218.033 2337.45,255.453 2339.64,299.24 2341.82,348.334 2344.01,401.039 2346.2,455.607 2348.38,510.938 2350.57,566.698 
  2352.76,623.293 
  "/>
<path clip-path="url(#clip330)" d="
M1931.6 274.549 L2279.87 274.549 L2279.87 93.1086 L1931.6 93.1086  Z
  " fill="#ffffff" fill-rule="evenodd" fill-opacity="1"/>
<polyline clip-path="url(#clip330)" style="stroke:#000000; stroke-width:4; stroke-opacity:1; fill:none" points="
  1931.6,274.549 2279.87,274.549 2279.87,93.1086 1931.6,93.1086 1931.6,274.549 
  "/>
<polyline clip-path="url(#clip330)" style="stroke:#009af9; stroke-width:4; stroke-opacity:1; fill:none" points="
  1955.89,153.589 2101.66,153.589 
  "/>
<path clip-path="url(#clip330)" d="M 0 0 M2125.96 180.73 L2125.96 144.943 L2130.22 144.943 L2130.22 161.054 Q2130.22 164.41 2131.81 166.123 Q2133.41 167.836 2136.54 167.836 Q2139.96 167.836 2141.67 165.892 Q2143.41 163.947 2143.41 160.058 L2143.41 144.943 L2147.67 144.943 L2147.67 164.896 Q2147.67 166.285 2148.06 166.957 Q2148.48 167.605 2149.34 167.605 Q2149.55 167.605 2149.92 167.489 Q2150.29 167.35 2150.93 167.072 L2150.93 170.498 Q2149.98 171.031 2149.13 171.285 Q2148.3 171.54 2147.48 171.54 Q2145.89 171.54 2144.94 170.637 Q2143.99 169.734 2143.64 167.883 Q2142.49 169.711 2140.8 170.637 Q2139.13 171.54 2136.86 171.54 Q2134.5 171.54 2132.83 170.637 Q2131.19 169.734 2130.22 167.929 L2130.22 180.73 L2125.96 180.73 Z" fill="#000000" fill-rule="evenodd" fill-opacity="1" /><path clip-path="url(#clip330)" d="M 0 0 M2154.55 168.322 L2159.27 168.322 L2159.27 154.179 L2154.11 155.128 L2154.11 152.443 L2159.43 151.54 L2162.6 151.54 L2162.6 168.322 L2167.35 168.322 L2167.35 170.869 L2154.55 170.869 L2154.55 168.322 Z" fill="#000000" fill-rule="evenodd" fill-opacity="1" /><path clip-path="url(#clip330)" d="M 0 0 M2180.54 155.197 Q2179.38 153.207 2177.05 153.207 Q2174.71 153.207 2173.55 155.197 Q2172.37 157.188 2172.37 161.17 Q2172.37 165.174 2173.55 167.165 Q2174.71 169.156 2177.05 169.156 Q2179.38 169.156 2180.54 167.165 Q2181.72 165.174 2181.72 161.17 Q2181.72 157.188 2180.54 155.197 M2177.05 151.147 Q2180.77 151.147 2182.74 153.716 Q2184.71 156.285 2184.71 161.17 Q2184.71 166.077 2182.74 168.646 Q2180.77 171.216 2177.05 171.216 Q2173.3 171.216 2171.33 168.646 Q2169.36 166.077 2169.36 161.17 Q2169.36 156.285 2171.33 153.716 Q2173.3 151.147 2177.05 151.147 Z" fill="#000000" fill-rule="evenodd" fill-opacity="1" /><path clip-path="url(#clip330)" d="M 0 0 M2199.41 134.897 Q2196.3 140.221 2194.8 145.429 Q2193.29 150.637 2193.29 155.984 Q2193.29 161.332 2194.8 166.586 Q2196.33 171.818 2199.41 177.119 L2195.7 177.119 Q2192.23 171.679 2190.49 166.424 Q2188.78 161.17 2188.78 155.984 Q2188.78 150.822 2190.49 145.591 Q2192.21 140.36 2195.7 134.897 L2199.41 134.897 Z" fill="#000000" fill-rule="evenodd" fill-opacity="1" /><path clip-path="url(#clip330)" d="M 0 0 M2208.09 137.582 L2208.09 144.943 L2216.86 144.943 L2216.86 148.253 L2208.09 148.253 L2208.09 162.327 Q2208.09 165.498 2208.94 166.401 Q2209.82 167.304 2212.48 167.304 L2216.86 167.304 L2216.86 170.869 L2212.48 170.869 Q2207.55 170.869 2205.68 169.04 Q2203.8 167.188 2203.8 162.327 L2203.8 148.253 L2200.68 148.253 L2200.68 144.943 L2203.8 144.943 L2203.8 137.582 L2208.09 137.582 Z" fill="#000000" fill-rule="evenodd" fill-opacity="1" /><path clip-path="url(#clip330)" d="M 0 0 M2220.66 134.897 L2224.36 134.897 Q2227.83 140.36 2229.54 145.591 Q2231.28 150.822 2231.28 155.984 Q2231.28 161.17 2229.54 166.424 Q2227.83 171.679 2224.36 177.119 L2220.66 177.119 Q2223.73 171.818 2225.24 166.586 Q2226.77 161.332 2226.77 155.984 Q2226.77 150.637 2225.24 145.429 Q2223.73 140.221 2220.66 134.897 Z" fill="#000000" fill-rule="evenodd" fill-opacity="1" /><polyline clip-path="url(#clip330)" style="stroke:#e26f46; stroke-width:4; stroke-opacity:1; fill:none" points="
  1955.89,214.069 2101.66,214.069 
  "/>
<path clip-path="url(#clip330)" d="M 0 0 M2125.96 241.21 L2125.96 205.423 L2130.22 205.423 L2130.22 221.534 Q2130.22 224.89 2131.81 226.603 Q2133.41 228.316 2136.54 228.316 Q2139.96 228.316 2141.67 226.372 Q2143.41 224.427 2143.41 220.538 L2143.41 205.423 L2147.67 205.423 L2147.67 225.376 Q2147.67 226.765 2148.06 227.437 Q2148.48 228.085 2149.34 228.085 Q2149.55 228.085 2149.92 227.969 Q2150.29 227.83 2150.93 227.552 L2150.93 230.978 Q2149.98 231.511 2149.13 231.765 Q2148.3 232.02 2147.48 232.02 Q2145.89 232.02 2144.94 231.117 Q2143.99 230.214 2143.64 228.363 Q2142.49 230.191 2140.8 231.117 Q2139.13 232.02 2136.86 232.02 Q2134.5 232.02 2132.83 231.117 Q2131.19 230.214 2130.22 228.409 L2130.22 241.21 L2125.96 241.21 Z" fill="#000000" fill-rule="evenodd" fill-opacity="1" /><path clip-path="url(#clip330)" d="M 0 0 M2164.13 215.677 Q2162.97 213.687 2160.63 213.687 Q2158.3 213.687 2157.14 215.677 Q2155.96 217.668 2155.96 221.65 Q2155.96 225.654 2157.14 227.645 Q2158.3 229.636 2160.63 229.636 Q2162.97 229.636 2164.13 227.645 Q2165.31 225.654 2165.31 221.65 Q2165.31 217.668 2164.13 215.677 M2160.63 211.627 Q2164.36 211.627 2166.33 214.196 Q2168.3 216.765 2168.3 221.65 Q2168.3 226.557 2166.33 229.126 Q2164.36 231.696 2160.63 231.696 Q2156.88 231.696 2154.92 229.126 Q2152.95 226.557 2152.95 221.65 Q2152.95 216.765 2154.92 214.196 Q2156.88 211.627 2160.63 211.627 Z" fill="#000000" fill-rule="evenodd" fill-opacity="1" /><path clip-path="url(#clip330)" d="M 0 0 M2171.91 228.802 L2176.63 228.802 L2176.63 214.659 L2171.47 215.608 L2171.47 212.923 L2176.79 212.02 L2179.96 212.02 L2179.96 228.802 L2184.71 228.802 L2184.71 231.349 L2171.91 231.349 L2171.91 228.802 Z" fill="#000000" fill-rule="evenodd" fill-opacity="1" /><path clip-path="url(#clip330)" d="M 0 0 M2199.41 195.377 Q2196.3 200.701 2194.8 205.909 Q2193.29 211.117 2193.29 216.464 Q2193.29 221.812 2194.8 227.066 Q2196.33 232.298 2199.41 237.599 L2195.7 237.599 Q2192.23 232.159 2190.49 226.904 Q2188.78 221.65 2188.78 216.464 Q2188.78 211.302 2190.49 206.071 Q2192.21 200.84 2195.7 195.377 L2199.41 195.377 Z" fill="#000000" fill-rule="evenodd" fill-opacity="1" /><path clip-path="url(#clip330)" d="M 0 0 M2208.09 198.062 L2208.09 205.423 L2216.86 205.423 L2216.86 208.733 L2208.09 208.733 L2208.09 222.807 Q2208.09 225.978 2208.94 226.881 Q2209.82 227.784 2212.48 227.784 L2216.86 227.784 L2216.86 231.349 L2212.48 231.349 Q2207.55 231.349 2205.68 229.52 Q2203.8 227.668 2203.8 222.807 L2203.8 208.733 L2200.68 208.733 L2200.68 205.423 L2203.8 205.423 L2203.8 198.062 L2208.09 198.062 Z" fill="#000000" fill-rule="evenodd" fill-opacity="1" /><path clip-path="url(#clip330)" d="M 0 0 M2220.66 195.377 L2224.36 195.377 Q2227.83 200.84 2229.54 206.071 Q2231.28 211.302 2231.28 216.464 Q2231.28 221.65 2229.54 226.904 Q2227.83 232.159 2224.36 237.599 L2220.66 237.599 Q2223.73 232.298 2225.24 227.066 Q2226.77 221.812 2226.77 216.464 Q2226.77 211.117 2225.24 205.909 Q2223.73 200.701 2220.66 195.377 Z" fill="#000000" fill-rule="evenodd" fill-opacity="1" /></svg>
