<?xml version="1.0" encoding="utf-8"?>
<svg xmlns="http://www.w3.org/2000/svg" xmlns:xlink="http://www.w3.org/1999/xlink" width="600" height="400" viewBox="0 0 2400 1600">
<defs>
  <clipPath id="clip880">
    <rect x="0" y="0" width="2400" height="1600"/>
  </clipPath>
</defs>
<path clip-path="url(#clip880)" d="
M0 1600 L2400 1600 L2400 0 L0 0  Z
  " fill="#ffffff" fill-rule="evenodd" fill-opacity="1"/>
<defs>
  <clipPath id="clip881">
    <rect x="480" y="0" width="1681" height="1600"/>
  </clipPath>
</defs>
<path clip-path="url(#clip880)" d="
M137.964 1423.18 L2352.76 1423.18 L2352.76 47.2441 L137.964 47.2441  Z
  " fill="#ffffff" fill-rule="evenodd" fill-opacity="1"/>
<defs>
  <clipPath id="clip882">
    <rect x="137" y="47" width="2216" height="1377"/>
  </clipPath>
</defs>
<polyline clip-path="url(#clip882)" style="stroke:#000000; stroke-linecap:butt; stroke-linejoin:round; stroke-width:2; stroke-opacity:0.1; fill:none" points="
  137.964,1423.18 137.964,47.2441 
  "/>
<polyline clip-path="url(#clip882)" style="stroke:#000000; stroke-linecap:butt; stroke-linejoin:round; stroke-width:2; stroke-opacity:0.1; fill:none" points="
  580.922,1423.18 580.922,47.2441 
  "/>
<polyline clip-path="url(#clip882)" style="stroke:#000000; stroke-linecap:butt; stroke-linejoin:round; stroke-width:2; stroke-opacity:0.1; fill:none" points="
  1023.88,1423.18 1023.88,47.2441 
  "/>
<polyline clip-path="url(#clip882)" style="stroke:#000000; stroke-linecap:butt; stroke-linejoin:round; stroke-width:2; stroke-opacity:0.1; fill:none" points="
  1466.84,1423.18 1466.84,47.2441 
  "/>
<polyline clip-path="url(#clip882)" style="stroke:#000000; stroke-linecap:butt; stroke-linejoin:round; stroke-width:2; stroke-opacity:0.1; fill:none" points="
  1909.8,1423.18 1909.8,47.2441 
  "/>
<polyline clip-path="url(#clip882)" style="stroke:#000000; stroke-linecap:butt; stroke-linejoin:round; stroke-width:2; stroke-opacity:0.1; fill:none" points="
  2352.76,1423.18 2352.76,47.2441 
  "/>
<polyline clip-path="url(#clip880)" style="stroke:#000000; stroke-linecap:butt; stroke-linejoin:round; stroke-width:4; stroke-opacity:1; fill:none" points="
  137.964,1423.18 2352.76,1423.18 
  "/>
<polyline clip-path="url(#clip880)" style="stroke:#000000; stroke-linecap:butt; stroke-linejoin:round; stroke-width:4; stroke-opacity:1; fill:none" points="
  137.964,1423.18 137.964,1406.67 
  "/>
<polyline clip-path="url(#clip880)" style="stroke:#000000; stroke-linecap:butt; stroke-linejoin:round; stroke-width:4; stroke-opacity:1; fill:none" points="
  580.922,1423.18 580.922,1406.67 
  "/>
<polyline clip-path="url(#clip880)" style="stroke:#000000; stroke-linecap:butt; stroke-linejoin:round; stroke-width:4; stroke-opacity:1; fill:none" points="
  1023.88,1423.18 1023.88,1406.67 
  "/>
<polyline clip-path="url(#clip880)" style="stroke:#000000; stroke-linecap:butt; stroke-linejoin:round; stroke-width:4; stroke-opacity:1; fill:none" points="
  1466.84,1423.18 1466.84,1406.67 
  "/>
<polyline clip-path="url(#clip880)" style="stroke:#000000; stroke-linecap:butt; stroke-linejoin:round; stroke-width:4; stroke-opacity:1; fill:none" points="
  1909.8,1423.18 1909.8,1406.67 
  "/>
<polyline clip-path="url(#clip880)" style="stroke:#000000; stroke-linecap:butt; stroke-linejoin:round; stroke-width:4; stroke-opacity:1; fill:none" points="
  2352.76,1423.18 2352.76,1406.67 
  "/>
<path clip-path="url(#clip880)" d="M137.964 1452.37 Q134.353 1452.37 132.524 1455.94 Q130.719 1459.48 130.719 1466.61 Q130.719 1473.71 132.524 1477.28 Q134.353 1480.82 137.964 1480.82 Q141.598 1480.82 143.404 1477.28 Q145.233 1473.71 145.233 1466.61 Q145.233 1459.48 143.404 1455.94 Q141.598 1452.37 137.964 1452.37 M137.964 1448.67 Q143.774 1448.67 146.83 1453.27 Q149.908 1457.86 149.908 1466.61 Q149.908 1475.33 146.83 1479.94 Q143.774 1484.52 137.964 1484.52 Q132.154 1484.52 129.075 1479.94 Q126.02 1475.33 126.02 1466.61 Q126.02 1457.86 129.075 1453.27 Q132.154 1448.67 137.964 1448.67 Z" fill="#000000" fill-rule="evenodd" fill-opacity="1" /><path clip-path="url(#clip880)" d="M559.696 1479.92 L576.015 1479.92 L576.015 1483.85 L554.071 1483.85 L554.071 1479.92 Q556.733 1477.16 561.316 1472.53 Q565.923 1467.88 567.103 1466.54 Q569.348 1464.01 570.228 1462.28 Q571.131 1460.52 571.131 1458.83 Q571.131 1456.07 569.186 1454.34 Q567.265 1452.6 564.163 1452.6 Q561.964 1452.6 559.511 1453.37 Q557.08 1454.13 554.302 1455.68 L554.302 1450.96 Q557.126 1449.82 559.58 1449.25 Q562.034 1448.67 564.071 1448.67 Q569.441 1448.67 572.635 1451.35 Q575.83 1454.04 575.83 1458.53 Q575.83 1460.66 575.02 1462.58 Q574.233 1464.48 572.126 1467.07 Q571.547 1467.74 568.446 1470.96 Q565.344 1474.15 559.696 1479.92 Z" fill="#000000" fill-rule="evenodd" fill-opacity="1" /><path clip-path="url(#clip880)" d="M595.83 1452.37 Q592.219 1452.37 590.39 1455.94 Q588.584 1459.48 588.584 1466.61 Q588.584 1473.71 590.39 1477.28 Q592.219 1480.82 595.83 1480.82 Q599.464 1480.82 601.27 1477.28 Q603.098 1473.71 603.098 1466.61 Q603.098 1459.48 601.27 1455.94 Q599.464 1452.37 595.83 1452.37 M595.83 1448.67 Q601.64 1448.67 604.695 1453.27 Q607.774 1457.86 607.774 1466.61 Q607.774 1475.33 604.695 1479.94 Q601.64 1484.52 595.83 1484.52 Q590.02 1484.52 586.941 1479.94 Q583.885 1475.33 583.885 1466.61 Q583.885 1457.86 586.941 1453.27 Q590.02 1448.67 595.83 1448.67 Z" fill="#000000" fill-rule="evenodd" fill-opacity="1" /><path clip-path="url(#clip880)" d="M1012.05 1453.37 L1000.25 1471.81 L1012.05 1471.81 L1012.05 1453.37 M1010.83 1449.29 L1016.7 1449.29 L1016.7 1471.81 L1021.64 1471.81 L1021.64 1475.7 L1016.7 1475.7 L1016.7 1483.85 L1012.05 1483.85 L1012.05 1475.7 L996.45 1475.7 L996.45 1471.19 L1010.83 1449.29 Z" fill="#000000" fill-rule="evenodd" fill-opacity="1" /><path clip-path="url(#clip880)" d="M1039.37 1452.37 Q1035.76 1452.37 1033.93 1455.94 Q1032.12 1459.48 1032.12 1466.61 Q1032.12 1473.71 1033.93 1477.28 Q1035.76 1480.82 1039.37 1480.82 Q1043 1480.82 1044.81 1477.28 Q1046.64 1473.71 1046.64 1466.61 Q1046.64 1459.48 1044.81 1455.94 Q1043 1452.37 1039.37 1452.37 M1039.37 1448.67 Q1045.18 1448.67 1048.23 1453.27 Q1051.31 1457.86 1051.31 1466.61 Q1051.31 1475.33 1048.23 1479.94 Q1045.18 1484.52 1039.37 1484.52 Q1033.56 1484.52 1030.48 1479.94 Q1027.42 1475.33 1027.42 1466.61 Q1027.42 1457.86 1030.48 1453.27 Q1033.56 1448.67 1039.37 1448.67 Z" fill="#000000" fill-rule="evenodd" fill-opacity="1" /><path clip-path="url(#clip880)" d="M1452.24 1464.71 Q1449.1 1464.71 1447.24 1466.86 Q1445.42 1469.01 1445.42 1472.76 Q1445.42 1476.49 1447.24 1478.67 Q1449.1 1480.82 1452.24 1480.82 Q1455.39 1480.82 1457.22 1478.67 Q1459.07 1476.49 1459.07 1472.76 Q1459.07 1469.01 1457.22 1466.86 Q1455.39 1464.71 1452.24 1464.71 M1461.53 1450.06 L1461.53 1454.31 Q1459.77 1453.48 1457.96 1453.04 Q1456.18 1452.6 1454.42 1452.6 Q1449.79 1452.6 1447.34 1455.73 Q1444.91 1458.85 1444.56 1465.17 Q1445.92 1463.16 1447.99 1462.09 Q1450.05 1461 1452.52 1461 Q1457.73 1461 1460.74 1464.18 Q1463.77 1467.32 1463.77 1472.76 Q1463.77 1478.09 1460.62 1481.31 Q1457.48 1484.52 1452.24 1484.52 Q1446.25 1484.52 1443.08 1479.94 Q1439.91 1475.33 1439.91 1466.61 Q1439.91 1458.41 1443.8 1453.55 Q1447.68 1448.67 1454.24 1448.67 Q1455.99 1448.67 1457.78 1449.01 Q1459.58 1449.36 1461.53 1450.06 Z" fill="#000000" fill-rule="evenodd" fill-opacity="1" /><path clip-path="url(#clip880)" d="M1481.83 1452.37 Q1478.22 1452.37 1476.39 1455.94 Q1474.58 1459.48 1474.58 1466.61 Q1474.58 1473.71 1476.39 1477.28 Q1478.22 1480.82 1481.83 1480.82 Q1485.46 1480.82 1487.27 1477.28 Q1489.1 1473.71 1489.1 1466.61 Q1489.1 1459.48 1487.27 1455.94 Q1485.46 1452.37 1481.83 1452.37 M1481.83 1448.67 Q1487.64 1448.67 1490.69 1453.27 Q1493.77 1457.86 1493.77 1466.61 Q1493.77 1475.33 1490.69 1479.94 Q1487.64 1484.52 1481.83 1484.52 Q1476.02 1484.52 1472.94 1479.94 Q1469.88 1475.33 1469.88 1466.61 Q1469.88 1457.86 1472.94 1453.27 Q1476.02 1448.67 1481.83 1448.67 Z" fill="#000000" fill-rule="evenodd" fill-opacity="1" /><path clip-path="url(#clip880)" d="M1894.67 1467.44 Q1891.34 1467.44 1889.42 1469.22 Q1887.52 1471 1887.52 1474.13 Q1887.52 1477.25 1889.42 1479.04 Q1891.34 1480.82 1894.67 1480.82 Q1898 1480.82 1899.92 1479.04 Q1901.85 1477.23 1901.85 1474.13 Q1901.85 1471 1899.92 1469.22 Q1898.03 1467.44 1894.67 1467.44 M1889.99 1465.45 Q1886.99 1464.71 1885.3 1462.65 Q1883.63 1460.59 1883.63 1457.63 Q1883.63 1453.48 1886.57 1451.07 Q1889.53 1448.67 1894.67 1448.67 Q1899.83 1448.67 1902.77 1451.07 Q1905.71 1453.48 1905.71 1457.63 Q1905.71 1460.59 1904.02 1462.65 Q1902.36 1464.71 1899.37 1465.45 Q1902.75 1466.24 1904.62 1468.53 Q1906.52 1470.82 1906.52 1474.13 Q1906.52 1479.15 1903.44 1481.84 Q1900.39 1484.52 1894.67 1484.52 Q1888.95 1484.52 1885.87 1481.84 Q1882.82 1479.15 1882.82 1474.13 Q1882.82 1470.82 1884.72 1468.53 Q1886.61 1466.24 1889.99 1465.45 M1888.28 1458.06 Q1888.28 1460.75 1889.95 1462.25 Q1891.64 1463.76 1894.67 1463.76 Q1897.68 1463.76 1899.37 1462.25 Q1901.08 1460.75 1901.08 1458.06 Q1901.08 1455.38 1899.37 1453.88 Q1897.68 1452.37 1894.67 1452.37 Q1891.64 1452.37 1889.95 1453.88 Q1888.28 1455.38 1888.28 1458.06 Z" fill="#000000" fill-rule="evenodd" fill-opacity="1" /><path clip-path="url(#clip880)" d="M1924.83 1452.37 Q1921.22 1452.37 1919.39 1455.94 Q1917.59 1459.48 1917.59 1466.61 Q1917.59 1473.71 1919.39 1477.28 Q1921.22 1480.82 1924.83 1480.82 Q1928.47 1480.82 1930.27 1477.28 Q1932.1 1473.71 1932.1 1466.61 Q1932.1 1459.48 1930.27 1455.94 Q1928.47 1452.37 1924.83 1452.37 M1924.83 1448.67 Q1930.64 1448.67 1933.7 1453.27 Q1936.78 1457.86 1936.78 1466.61 Q1936.78 1475.33 1933.7 1479.94 Q1930.64 1484.52 1924.83 1484.52 Q1919.02 1484.52 1915.94 1479.94 Q1912.89 1475.33 1912.89 1466.61 Q1912.89 1457.86 1915.94 1453.27 Q1919.02 1448.67 1924.83 1448.67 Z" fill="#000000" fill-rule="evenodd" fill-opacity="1" /><path clip-path="url(#clip880)" d="M2312.36 1479.92 L2320 1479.92 L2320 1453.55 L2311.69 1455.22 L2311.69 1450.96 L2319.96 1449.29 L2324.63 1449.29 L2324.63 1479.92 L2332.27 1479.92 L2332.27 1483.85 L2312.36 1483.85 L2312.36 1479.92 Z" fill="#000000" fill-rule="evenodd" fill-opacity="1" /><path clip-path="url(#clip880)" d="M2351.71 1452.37 Q2348.1 1452.37 2346.27 1455.94 Q2344.47 1459.48 2344.47 1466.61 Q2344.47 1473.71 2346.27 1477.28 Q2348.1 1480.82 2351.71 1480.82 Q2355.35 1480.82 2357.15 1477.28 Q2358.98 1473.71 2358.98 1466.61 Q2358.98 1459.48 2357.15 1455.94 Q2355.35 1452.37 2351.71 1452.37 M2351.71 1448.67 Q2357.52 1448.67 2360.58 1453.27 Q2363.66 1457.86 2363.66 1466.61 Q2363.66 1475.33 2360.58 1479.94 Q2357.52 1484.52 2351.71 1484.52 Q2345.9 1484.52 2342.83 1479.94 Q2339.77 1475.33 2339.77 1466.61 Q2339.77 1457.86 2342.83 1453.27 Q2345.9 1448.67 2351.71 1448.67 Z" fill="#000000" fill-rule="evenodd" fill-opacity="1" /><path clip-path="url(#clip880)" d="M2381.88 1452.37 Q2378.27 1452.37 2376.44 1455.94 Q2374.63 1459.48 2374.63 1466.61 Q2374.63 1473.71 2376.44 1477.28 Q2378.27 1480.82 2381.88 1480.82 Q2385.51 1480.82 2387.32 1477.28 Q2389.14 1473.71 2389.14 1466.61 Q2389.14 1459.48 2387.32 1455.94 Q2385.51 1452.37 2381.88 1452.37 M2381.88 1448.67 Q2387.69 1448.67 2390.74 1453.27 Q2393.82 1457.86 2393.82 1466.61 Q2393.82 1475.33 2390.74 1479.94 Q2387.69 1484.52 2381.88 1484.52 Q2376.07 1484.52 2372.99 1479.94 Q2369.93 1475.33 2369.93 1466.61 Q2369.93 1457.86 2372.99 1453.27 Q2376.07 1448.67 2381.88 1448.67 Z" fill="#000000" fill-rule="evenodd" fill-opacity="1" /><path clip-path="url(#clip880)" d="M1244.42 1522.27 L1244.42 1532.4 L1256.48 1532.4 L1256.48 1536.95 L1244.42 1536.95 L1244.42 1556.3 Q1244.42 1560.66 1245.6 1561.9 Q1246.81 1563.14 1250.47 1563.14 L1256.48 1563.14 L1256.48 1568.04 L1250.47 1568.04 Q1243.69 1568.04 1241.11 1565.53 Q1238.53 1562.98 1238.53 1556.3 L1238.53 1536.95 L1234.24 1536.95 L1234.24 1532.4 L1238.53 1532.4 L1238.53 1522.27 L1244.42 1522.27 Z" fill="#000000" fill-rule="evenodd" fill-opacity="1" /><polyline clip-path="url(#clip882)" style="stroke:#000000; stroke-linecap:butt; stroke-linejoin:round; stroke-width:2; stroke-opacity:0.1; fill:none" points="
  137.964,1222.36 2352.76,1222.36 
  "/>
<polyline clip-path="url(#clip882)" style="stroke:#000000; stroke-linecap:butt; stroke-linejoin:round; stroke-width:2; stroke-opacity:0.1; fill:none" points="
  137.964,979.533 2352.76,979.533 
  "/>
<polyline clip-path="url(#clip882)" style="stroke:#000000; stroke-linecap:butt; stroke-linejoin:round; stroke-width:2; stroke-opacity:0.1; fill:none" points="
  137.964,736.71 2352.76,736.71 
  "/>
<polyline clip-path="url(#clip882)" style="stroke:#000000; stroke-linecap:butt; stroke-linejoin:round; stroke-width:2; stroke-opacity:0.1; fill:none" points="
  137.964,493.887 2352.76,493.887 
  "/>
<polyline clip-path="url(#clip882)" style="stroke:#000000; stroke-linecap:butt; stroke-linejoin:round; stroke-width:2; stroke-opacity:0.1; fill:none" points="
  137.964,251.064 2352.76,251.064 
  "/>
<polyline clip-path="url(#clip880)" style="stroke:#000000; stroke-linecap:butt; stroke-linejoin:round; stroke-width:4; stroke-opacity:1; fill:none" points="
  137.964,1423.18 137.964,47.2441 
  "/>
<polyline clip-path="url(#clip880)" style="stroke:#000000; stroke-linecap:butt; stroke-linejoin:round; stroke-width:4; stroke-opacity:1; fill:none" points="
  137.964,1222.36 164.542,1222.36 
  "/>
<polyline clip-path="url(#clip880)" style="stroke:#000000; stroke-linecap:butt; stroke-linejoin:round; stroke-width:4; stroke-opacity:1; fill:none" points="
  137.964,979.533 164.542,979.533 
  "/>
<polyline clip-path="url(#clip880)" style="stroke:#000000; stroke-linecap:butt; stroke-linejoin:round; stroke-width:4; stroke-opacity:1; fill:none" points="
  137.964,736.71 164.542,736.71 
  "/>
<polyline clip-path="url(#clip880)" style="stroke:#000000; stroke-linecap:butt; stroke-linejoin:round; stroke-width:4; stroke-opacity:1; fill:none" points="
  137.964,493.887 164.542,493.887 
  "/>
<polyline clip-path="url(#clip880)" style="stroke:#000000; stroke-linecap:butt; stroke-linejoin:round; stroke-width:4; stroke-opacity:1; fill:none" points="
  137.964,251.064 164.542,251.064 
  "/>
<path clip-path="url(#clip880)" d="M94.8345 1221 Q98.1909 1221.72 100.066 1223.99 Q101.964 1226.26 101.964 1229.59 Q101.964 1234.71 98.4456 1237.51 Q94.9271 1240.31 88.4456 1240.31 Q86.2697 1240.31 83.9549 1239.87 Q81.6633 1239.45 79.2096 1238.59 L79.2096 1234.08 Q81.154 1235.21 83.4688 1235.79 Q85.7836 1236.37 88.3067 1236.37 Q92.7049 1236.37 94.9965 1234.64 Q97.3113 1232.9 97.3113 1229.59 Q97.3113 1226.53 95.1586 1224.82 Q93.0289 1223.09 89.2095 1223.09 L85.1818 1223.09 L85.1818 1219.24 L89.3947 1219.24 Q92.8438 1219.24 94.6724 1217.88 Q96.5011 1216.49 96.5011 1213.9 Q96.5011 1211.23 94.603 1209.82 Q92.728 1208.39 89.2095 1208.39 Q87.2882 1208.39 85.0892 1208.8 Q82.8901 1209.22 80.2512 1210.1 L80.2512 1205.93 Q82.9133 1205.19 85.2281 1204.82 Q87.566 1204.45 89.6262 1204.45 Q94.9502 1204.45 98.0521 1206.88 Q101.154 1209.29 101.154 1213.41 Q101.154 1216.28 99.5104 1218.27 Q97.8669 1220.24 94.8345 1221 Z" fill="#000000" fill-rule="evenodd" fill-opacity="1" /><path clip-path="url(#clip880)" d="M90.4364 977.67 Q87.2882 977.67 85.4364 979.823 Q83.6077 981.975 83.6077 985.725 Q83.6077 989.452 85.4364 991.628 Q87.2882 993.781 90.4364 993.781 Q93.5845 993.781 95.4132 991.628 Q97.265 989.452 97.265 985.725 Q97.265 981.975 95.4132 979.823 Q93.5845 977.67 90.4364 977.67 M99.7187 963.017 L99.7187 967.276 Q97.9595 966.443 96.1539 966.003 Q94.3715 965.563 92.6123 965.563 Q87.9827 965.563 85.529 968.688 Q83.0984 971.813 82.7512 978.133 Q84.1169 976.119 86.1771 975.054 Q88.2373 973.966 90.7141 973.966 Q95.9224 973.966 98.9317 977.137 Q101.964 980.286 101.964 985.725 Q101.964 991.049 98.8159 994.267 Q95.6678 997.485 90.4364 997.485 Q84.441 997.485 81.2697 992.901 Q78.0985 988.295 78.0985 979.568 Q78.0985 971.374 81.9873 966.513 Q85.8762 961.628 92.4271 961.628 Q94.1863 961.628 95.9687 961.975 Q97.7743 962.323 99.7187 963.017 Z" fill="#000000" fill-rule="evenodd" fill-opacity="1" /><path clip-path="url(#clip880)" d="M80.3438 753.273 L80.3438 749.013 Q82.1031 749.847 83.9086 750.287 Q85.7142 750.726 87.4503 750.726 Q92.0799 750.726 94.5104 747.625 Q96.9641 744.5 97.3113 738.157 Q95.9687 740.148 93.9086 741.213 Q91.8484 742.277 89.3484 742.277 Q84.1632 742.277 81.1309 739.152 Q78.1216 736.004 78.1216 730.564 Q78.1216 725.24 81.2697 722.023 Q84.4179 718.805 89.6493 718.805 Q95.6447 718.805 98.7928 723.412 Q101.964 727.995 101.964 736.745 Q101.964 744.916 98.0752 749.8 Q94.2095 754.662 87.6586 754.662 Q85.8993 754.662 84.0938 754.314 Q82.2883 753.967 80.3438 753.273 M89.6493 738.62 Q92.7975 738.62 94.6262 736.467 Q96.478 734.314 96.478 730.564 Q96.478 726.838 94.6262 724.685 Q92.7975 722.509 89.6493 722.509 Q86.5012 722.509 84.6494 724.685 Q82.8207 726.838 82.8207 730.564 Q82.8207 734.314 84.6494 736.467 Q86.5012 738.62 89.6493 738.62 Z" fill="#000000" fill-rule="evenodd" fill-opacity="1" /><path clip-path="url(#clip880)" d="M52.2653 507.232 L59.9041 507.232 L59.9041 480.867 L51.594 482.533 L51.594 478.274 L59.8578 476.607 L64.5337 476.607 L64.5337 507.232 L72.1726 507.232 L72.1726 511.167 L52.2653 511.167 L52.2653 507.232 Z" fill="#000000" fill-rule="evenodd" fill-opacity="1" /><path clip-path="url(#clip880)" d="M85.6447 507.232 L101.964 507.232 L101.964 511.167 L80.0197 511.167 L80.0197 507.232 Q82.6818 504.477 87.2651 499.848 Q91.8715 495.195 93.0521 493.853 Q95.2974 491.329 96.1771 489.593 Q97.0798 487.834 97.0798 486.144 Q97.0798 483.39 95.1354 481.654 Q93.2141 479.917 90.1123 479.917 Q87.9132 479.917 85.4595 480.681 Q83.029 481.445 80.2512 482.996 L80.2512 478.274 Q83.0753 477.14 85.529 476.561 Q87.9827 475.982 90.0197 475.982 Q95.39 475.982 98.5845 478.667 Q101.779 481.353 101.779 485.843 Q101.779 487.973 100.969 489.894 Q100.182 491.792 98.0752 494.385 Q97.4965 495.056 94.3947 498.274 Q91.2928 501.468 85.6447 507.232 Z" fill="#000000" fill-rule="evenodd" fill-opacity="1" /><path clip-path="url(#clip880)" d="M51.6634 264.409 L59.3023 264.409 L59.3023 238.044 L50.9921 239.71 L50.9921 235.451 L59.256 233.784 L63.9319 233.784 L63.9319 264.409 L71.5707 264.409 L71.5707 268.344 L51.6634 268.344 L51.6634 264.409 Z" fill="#000000" fill-rule="evenodd" fill-opacity="1" /><path clip-path="url(#clip880)" d="M81.0614 233.784 L99.4178 233.784 L99.4178 237.719 L85.3438 237.719 L85.3438 246.192 Q86.3623 245.844 87.3808 245.682 Q88.3993 245.497 89.4178 245.497 Q95.2049 245.497 98.5845 248.668 Q101.964 251.84 101.964 257.256 Q101.964 262.835 98.4919 265.937 Q95.0197 269.016 88.7003 269.016 Q86.5243 269.016 84.2558 268.645 Q82.0105 268.275 79.6031 267.534 L79.6031 262.835 Q81.6864 263.969 83.9086 264.525 Q86.1308 265.08 88.6077 265.08 Q92.6123 265.08 94.9502 262.974 Q97.2882 260.867 97.2882 257.256 Q97.2882 253.645 94.9502 251.539 Q92.6123 249.432 88.6077 249.432 Q86.7327 249.432 84.8577 249.849 Q83.0058 250.266 81.0614 251.145 L81.0614 233.784 Z" fill="#000000" fill-rule="evenodd" fill-opacity="1" /><polyline clip-path="url(#clip882)" style="stroke:#009af9; stroke-linecap:butt; stroke-linejoin:round; stroke-width:8; stroke-opacity:1; fill:none" points="
  137.964,1384.24 142.394,1361.06 146.823,1350.99 151.253,1348.09 155.682,1348.64 160.112,1350.48 164.542,1352.44 168.971,1353.9 173.401,1354.51 177.83,1354.03 
  182.26,1352.33 186.689,1349.26 191.119,1344.64 195.549,1338.21 199.978,1329.62 204.408,1318.34 208.837,1303.56 213.267,1284.07 217.697,1257.97 222.126,1222.38 
  226.556,1173.3 230.985,1106.97 235.415,1025.65 239.844,948.502 244.274,893.455 248.704,866.873 253.133,865.994 257.563,885.34 261.992,919.569 266.422,963.641 
  270.852,1012.62 275.281,1062.74 279.711,1110.87 284.14,1155.13 288.57,1194.38 293,1228 297.429,1255.69 301.859,1277.52 306.288,1293.81 310.718,1305.01 
  315.147,1311.62 319.577,1314.04 324.007,1312.43 328.436,1306.6 332.866,1295.64 337.295,1277.55 341.725,1248.49 346.155,1199.84 350.584,1114.72 355.014,972.446 
  359.443,799.679 363.873,665.149 368.302,593.695 372.732,575.05 377.162,596.687 381.591,646.114 386.021,709.746 390.45,777.921 394.88,847.028 399.31,914.482 
  403.739,978.595 408.169,1038.05 412.598,1092.06 417.028,1140.22 421.457,1182.08 425.887,1217.89 430.317,1247.85 434.746,1272.08 439.176,1290.88 443.605,1304.93 
  448.035,1314.84 452.465,1320.7 456.894,1322.95 461.324,1321.76 465.753,1317.3 470.183,1308.44 474.612,1295.17 479.042,1274.09 483.472,1240.45 487.901,1184.08 
  492.331,1085.87 496.76,929.597 501.19,759.563 505.62,645.623 510.049,591.812 514.479,585.889 518.908,616.658 523.338,670.64 527.767,736.215 532.197,806.057 
  536.627,875.974 541.056,943.408 545.486,1006.62 549.915,1064.39 554.345,1116.31 558.775,1162.17 563.204,1201.46 567.634,1234.65 572.063,1261.81 576.493,1282.74 
  580.922,1298.93 585.352,1310.73 589.782,1317.99 594.211,1321.51 598.641,1321.89 603.07,1318.96 607.5,1312.29 611.93,1301.04 616.359,1283.61 620.789,1256.16 
  625.218,1211.04 629.648,1132.91 634.077,1000.49 638.507,826.897 642.937,686.465 647.366,608.84 651.796,583.673 656.225,600.384 660.655,646.161 665.085,708.183 
  669.514,777.001 673.944,847.162 678.373,915.677 682.803,980.654 687.232,1040.79 691.662,1095.29 696.092,1143.42 700.521,1185.14 704.951,1220.84 709.38,1250.51 
  713.81,1274.41 718.24,1292.89 722.669,1306.42 727.099,1315.49 731.528,1320.66 735.958,1322.39 740.387,1320.8 744.817,1315.7 749.247,1306.49 753.676,1291.83 
  758.106,1269.08 762.535,1232.49 766.965,1170.44 771.395,1062.61 775.824,900.334 780.254,739.005 784.683,634.873 789.113,589.462 793.542,589.778 797.972,624.436 
  802.402,681.056 806.831,747.91 811.261,817.982 815.69,887.52 820.12,954.298 824.55,1016.74 828.979,1073.72 833.409,1124.68 837.838,1169.33 842.268,1207.57 
  846.697,1239.59 851.127,1265.65 855.557,1286.13 859.986,1301.55 864.416,1312.44 868.845,1319.24 873.275,1322.39 877.705,1322.17 882.134,1318.52 886.564,1311 
  890.993,1298.56 895.423,1279.29 899.852,1249.11 904.282,1199.23 908.712,1112.25 913.141,969.157 917.571,796.527 922,667.463 926.43,600.282 930.86,584.032 
  935.289,607.341 939.719,657.066 944.148,720.812 948.578,790.148 953.007,860.172 957.437,928.145 961.867,992.291 966.296,1051.38 970.726,1104.68 975.155,1151.79 
  979.585,1192.85 984.015,1227.74 988.444,1256.34 992.874,1279.24 997.303,1296.58 1001.73,1308.57 1006.16,1316.53 1010.59,1320.91 1015.02,1322.01 1019.45,1320.01 
  1023.88,1313.52 1028.31,1283.61 1032.74,1249.13 1037.17,1204.62 1041.6,1142.79 1046.03,1058.05 1050.46,958.698 1054.89,872.64 1059.32,820.309 1063.75,804.984 
  1068.18,816.015 1072.61,843.808 1077.04,878.85 1081.47,915.817 1085.89,951.982 1090.32,984.367 1094.75,1012.34 1099.18,1035.86 1103.61,1054.63 1108.04,1069.52 
  1112.47,1080.64 1116.9,1088.48 1121.33,1093.51 1125.76,1096.11 1130.19,1096.61 1134.62,1095.32 1139.05,1092.67 1143.48,1088.82 1147.91,1084.2 1152.34,1079.05 
  1156.77,1073.74 1161.2,1068.54 1165.63,1063.71 1170.06,1059.47 1174.49,1055.96 1178.92,1053.25 1183.35,1051.39 1187.78,1050.3 1192.2,1049.98 1196.63,1050.25 
  1201.06,1051.04 1205.49,1052.19 1209.92,1053.59 1214.35,1055.12 1218.78,1056.65 1223.21,1058.12 1227.64,1059.46 1232.07,1060.6 1236.5,1061.55 1240.93,1062.26 
  1245.36,1062.76 1249.79,1063.04 1254.22,1063.15 1258.65,1063.1 1263.08,1062.91 1267.51,1062.63 1271.94,1062.27 1276.37,1061.88 1280.8,1061.47 1285.23,1061.08 
  1289.66,1060.73 1294.09,1060.41 1298.51,1060.17 1302.94,1059.98 1307.37,1059.86 1311.8,1059.8 1316.23,1059.79 1320.66,1059.83 1325.09,1059.89 1329.52,1060.01 
  1333.95,1060.14 1338.38,1060.27 1342.81,1060.38 1347.24,1060.51 1351.67,1060.64 1356.1,1060.74 1360.53,1060.8 1364.96,1060.84 1369.39,1060.86 1373.82,1060.86 
  1378.25,1060.83 1382.68,1060.77 1387.11,1060.7 1391.54,1060.62 1395.97,1060.54 1400.4,1060.46 1404.83,1060.37 1409.25,1060.29 1413.68,1060.24 1418.11,1060.2 
  1422.54,1060.17 1426.97,1060.16 1431.4,1060.16 1435.83,1060.18 1440.26,1060.22 1444.69,1060.26 1449.12,1060.31 1453.55,1060.37 1457.98,1060.42 1462.41,1060.48 
  1466.84,1060.54 1471.27,1060.58 1475.7,1060.61 1480.13,1060.64 1484.56,1060.66 1488.99,1060.67 1493.42,1060.66 1497.85,1060.66 1502.28,1060.65 1506.71,1060.64 
  1511.14,1060.62 1515.56,1060.59 1519.99,1060.55 1524.42,1060.51 1528.85,1060.48 1533.28,1060.46 1537.71,1060.43 1542.14,1060.41 1546.57,1060.39 1551,1060.37 
  1555.43,1060.36 1559.86,1060.34 1564.29,1060.33 1568.72,1060.33 1573.15,1060.32 1577.58,1060.33 1582.01,1060.33 1586.44,1060.34 1590.87,1060.35 1595.3,1060.36 
  1599.73,1060.37 1604.16,1060.38 1608.59,1060.4 1613.02,1060.41 1617.45,1060.42 1621.87,1060.43 1626.3,1060.44 1630.73,1060.45 1635.16,1060.46 1639.59,1060.47 
  1644.02,1060.48 1648.45,1060.49 1652.88,1060.51 1657.31,1060.51 1661.74,1060.52 1666.17,1060.52 1670.6,1060.52 1675.03,1060.52 1679.46,1060.52 1683.89,1060.52 
  1688.32,1060.52 1692.75,1060.52 1697.18,1060.51 1701.61,1060.51 1706.04,1060.51 1710.47,1060.51 1714.9,1060.51 1719.33,1060.51 1723.76,1060.5 1728.18,1060.5 
  1732.61,1060.5 1737.04,1060.5 1741.47,1060.5 1745.9,1060.5 1750.33,1060.49 1754.76,1060.49 1759.19,1060.49 1763.62,1060.49 1768.05,1060.49 1772.48,1060.49 
  1776.91,1060.49 1781.34,1060.49 1785.77,1060.49 1790.2,1060.49 1794.63,1060.49 1799.06,1060.49 1803.49,1060.49 1807.92,1060.49 1812.35,1060.49 1816.78,1060.48 
  1821.21,1060.48 1825.64,1060.48 1830.07,1060.48 1834.49,1060.48 1838.92,1060.48 1843.35,1060.48 1847.78,1060.48 1852.21,1060.48 1856.64,1060.48 1861.07,1060.48 
  1865.5,1060.48 1869.93,1060.48 1874.36,1060.48 1878.79,1060.48 1883.22,1060.48 1887.65,1060.48 1892.08,1060.48 1896.51,1060.48 1900.94,1060.48 1905.37,1060.48 
  1909.8,1060.48 1914.23,1060.48 1918.66,1060.48 1923.09,1060.47 1927.52,1060.47 1931.95,1060.47 1936.38,1060.47 1940.8,1060.47 1945.23,1060.47 1949.66,1060.47 
  1954.09,1060.47 1958.52,1060.47 1962.95,1060.47 1967.38,1060.47 1971.81,1060.47 1976.24,1060.47 1980.67,1060.47 1985.1,1060.47 1989.53,1060.47 1993.96,1060.47 
  1998.39,1060.47 2002.82,1060.47 2007.25,1060.47 2011.68,1060.47 2016.11,1060.47 2020.54,1060.47 2024.97,1060.47 2029.4,1060.47 2033.83,1060.47 2038.26,1060.47 
  2042.69,1060.47 2047.11,1060.47 2051.54,1060.47 2055.97,1060.47 2060.4,1060.47 2064.83,1060.47 2069.26,1060.47 2073.69,1060.47 2078.12,1060.47 2082.55,1060.47 
  2086.98,1060.47 2091.41,1060.47 2095.84,1060.47 2100.27,1060.47 2104.7,1060.47 2109.13,1060.47 2113.56,1060.47 2117.99,1060.47 2122.42,1060.47 2126.85,1060.47 
  2131.28,1060.47 2135.71,1060.47 2140.14,1060.47 2144.57,1060.47 2149,1060.47 2153.42,1060.47 2157.85,1060.47 2162.28,1060.47 2166.71,1060.47 2171.14,1060.47 
  2175.57,1060.47 2180,1060.47 2184.43,1060.47 2188.86,1060.47 2193.29,1060.47 2197.72,1060.47 2202.15,1060.47 2206.58,1060.47 2211.01,1060.47 2215.44,1060.47 
  2219.87,1060.47 2224.3,1060.47 2228.73,1060.47 2233.16,1060.47 2237.59,1060.47 2242.02,1060.47 2246.45,1060.47 2250.88,1060.47 2255.31,1060.47 2259.73,1060.47 
  2264.16,1060.47 2268.59,1060.47 2273.02,1060.47 2277.45,1060.47 2281.88,1060.47 2286.31,1060.47 2290.74,1060.47 2295.17,1060.47 2299.6,1060.47 2304.03,1060.47 
  2308.46,1060.47 2312.89,1060.47 2317.32,1060.47 2321.75,1060.47 2326.18,1060.47 2330.61,1060.47 2335.04,1060.47 2339.47,1060.47 2343.9,1060.47 2348.33,1060.47 
  2352.76,1060.47 
  "/>
<polyline clip-path="url(#clip882)" style="stroke:#e26f46; stroke-linecap:butt; stroke-linejoin:round; stroke-width:8; stroke-opacity:1; fill:none" points="
  137.964,1384.24 142.394,1345.24 146.823,1296.35 151.253,1241.54 155.682,1183.46 160.112,1123.79 164.542,1063.6 168.971,1003.56 173.401,944.178 177.83,885.874 
  182.26,829.005 186.689,773.992 191.119,721.293 195.549,671.501 199.978,625.366 204.408,583.903 208.837,548.526 213.267,521.271 217.697,505.15 222.126,504.642 
  226.556,526.024 230.985,576.116 235.415,656.079 239.844,748.125 244.274,831.567 248.704,894.717 253.133,934.803 257.563,952.709 261.992,950.339 266.422,930.286 
  270.852,895.957 275.281,850.489 279.711,797.11 284.14,738.322 288.57,676.154 293,612.317 297.429,548.26 301.859,485.102 306.288,423.682 310.718,364.602 
  315.147,308.339 319.577,255.372 324.007,206.354 328.436,162.308 332.866,125.057 337.295,97.8361 341.725,86.1857 346.155,101.738 350.584,166.774 355.014,311.427 
  359.443,519.095 363.873,720.199 368.302,878.924 372.732,993.584 377.162,1067.45 381.591,1106.25 386.021,1119.36 390.45,1114.6 394.88,1095.11 399.31,1063.57 
  403.739,1022.2 408.169,973.123 412.598,918.124 417.028,858.748 421.457,796.661 425.887,732.85 430.317,668.306 434.746,604.078 439.176,540.976 443.605,479.346 
  448.035,419.475 452.465,362.096 456.894,307.512 461.324,256.275 465.753,208.86 470.183,167.178 474.612,132.081 479.042,108.172 483.472,102.2 487.901,127.722 
  492.331,210.164 496.76,376.092 501.19,589.698 505.62,776.291 510.049,919.38 514.479,1020.41 518.908,1082.06 523.338,1111.8 527.767,1117.81 532.197,1105.9 
  536.627,1079.87 541.056,1042.55 545.486,996.369 549.915,943.503 554.345,885.497 558.775,823.773 563.204,760.105 567.634,695.291 572.063,630.482 576.493,567.112 
  580.922,504.77 585.352,444.013 589.782,385.905 594.211,330.474 598.641,277.794 603.07,228.671 607.5,184.236 611.93,146.159 616.359,117.086 620.789,102.439 
  625.218,112.55 629.648,167.659 634.077,297.8 638.507,500.387 642.937,702.612 647.366,863.792 651.796,982.628 656.225,1060.3 660.655,1102.45 665.085,1117.37 
  669.514,1112.25 673.944,1091.8 678.373,1059.07 682.803,1016.53 687.232,966.302 691.662,910.233 696.092,850.25 700.521,787.666 704.951,723.362 709.38,658.548 
  713.81,594.154 718.24,530.947 722.669,469.485 727.099,410.223 731.528,353.444 735.958,299.435 740.387,248.739 744.817,202.22 749.247,161.26 753.676,128.122 
  758.106,106.739 762.535,105.017 766.965,138.414 771.395,234.139 775.824,411.501 780.254,621.536 784.683,801.403 789.113,937.364 793.542,1031.9 797.972,1088.43 
  802.402,1113.63 806.831,1116.1 811.261,1101.57 815.69,1073.56 820.12,1034.63 824.55,987.094 828.979,933.109 833.409,874.421 837.838,812.426 842.268,748.427 
  846.697,683.62 851.127,619.012 855.557,555.369 859.986,493.204 864.416,432.942 868.845,375.002 873.275,319.73 877.705,267.534 882.134,219.157 886.564,175.757 
  890.993,139.269 895.423,112.742 899.852,101.977 904.282,118.756 908.712,186.012 913.141,332.16 917.571,540.383 922,736.161 926.43,889.622 930.86,1000.35 
  935.289,1070.63 939.719,1106.94 944.148,1117.69 948.578,1109.43 953.007,1086.47 957.437,1051.73 961.867,1007.58 966.296,956.131 970.726,899.197 975.155,838.393 
  979.585,774.786 984.015,709.817 988.444,644.801 992.874,580.349 997.303,517.433 1001.73,456.936 1006.16,398.48 1010.59,342.406 1015.02,289.063 1019.45,238.913 
  1023.88,194.004 1028.31,176.282 1032.74,169.466 1037.17,180.515 1041.6,219.397 1046.03,295.777 1050.46,405.394 1054.89,520.7 1059.32,616.388 1063.75,681.835 
  1068.18,721.206 1072.61,739.799 1077.04,744.71 1081.47,740.397 1085.89,729.517 1090.32,715.547 1094.75,699.911 1099.18,683.592 1103.61,667.794 1108.04,652.51 
  1112.47,638.418 1116.9,625.703 1121.33,614.523 1125.76,605.094 1130.19,597.498 1134.62,591.763 1139.05,587.839 1143.48,585.688 1147.91,585.113 1152.34,586.006 
  1156.77,588.056 1161.2,591.054 1165.63,594.657 1170.06,598.608 1174.49,602.612 1178.92,606.458 1183.35,609.929 1187.78,612.94 1192.2,615.342 1196.63,617.179 
  1201.06,618.378 1205.49,619.046 1209.92,619.196 1214.35,618.945 1218.78,618.359 1223.21,617.541 1227.64,616.57 1232.07,615.53 1236.5,614.481 1240.93,613.493 
  1245.36,612.589 1249.79,611.82 1254.22,611.176 1258.65,610.685 1263.08,610.354 1267.51,610.16 1271.94,610.102 1276.37,610.165 1280.8,610.322 1285.23,610.544 
  1289.66,610.816 1294.09,611.113 1298.51,611.402 1302.94,611.68 1307.37,611.929 1311.8,612.129 1316.23,612.29 1320.66,612.402 1325.09,612.465 1329.52,612.481 
  1333.95,612.458 1338.38,612.406 1342.81,612.341 1347.24,612.237 1351.67,612.117 1356.1,611.996 1360.53,611.887 1364.96,611.781 1369.39,611.683 1373.82,611.607 
  1378.25,611.565 1382.68,611.552 1387.11,611.55 1391.54,611.573 1395.97,611.62 1400.4,611.687 1404.83,611.765 1409.25,611.85 1413.68,611.936 1418.11,612.014 
  1422.54,612.096 1426.97,612.171 1431.4,612.231 1435.83,612.272 1440.26,612.299 1444.69,612.315 1449.12,612.314 1453.55,612.295 1457.98,612.261 1462.41,612.22 
  1466.84,612.171 1471.27,612.118 1475.7,612.066 1480.13,612.009 1484.56,611.956 1488.99,611.91 1493.42,611.876 1497.85,611.837 1502.28,611.802 1506.71,611.775 
  1511.14,611.761 1515.56,611.76 1519.99,611.776 1524.42,611.799 1528.85,611.806 1533.28,611.818 1537.71,611.834 1542.14,611.854 1546.57,611.879 1551,611.909 
  1555.43,611.935 1559.86,611.96 1564.29,611.986 1568.72,612.011 1573.15,612.034 1577.58,612.056 1582.01,612.076 1586.44,612.094 1590.87,612.109 1595.3,612.121 
  1599.73,612.128 1604.16,612.132 1608.59,612.13 1613.02,612.132 1617.45,612.134 1621.87,612.134 1626.3,612.13 1630.73,612.125 1635.16,612.117 1639.59,612.107 
  1644.02,612.094 1648.45,612.079 1652.88,612.061 1657.31,612.048 1661.74,612.043 1666.17,612.038 1670.6,612.034 1675.03,612.03 1679.46,612.026 1683.89,612.023 
  1688.32,612.02 1692.75,612.017 1697.18,612.015 1701.61,612.013 1706.04,612.01 1710.47,612.007 1714.9,612.004 1719.33,612.001 1723.76,611.999 1728.18,611.996 
  1732.61,611.994 1737.04,611.992 1741.47,611.989 1745.9,611.988 1750.33,611.987 1754.76,611.988 1759.19,611.988 1763.62,611.988 1768.05,611.988 1772.48,611.988 
  1776.91,611.989 1781.34,611.989 1785.77,611.989 1790.2,611.989 1794.63,611.99 1799.06,611.99 1803.49,611.99 1807.92,611.99 1812.35,611.99 1816.78,611.991 
  1821.21,611.991 1825.64,611.991 1830.07,611.991 1834.49,611.992 1838.92,611.992 1843.35,611.992 1847.78,611.992 1852.21,611.992 1856.64,611.993 1861.07,611.993 
  1865.5,611.993 1869.93,611.993 1874.36,611.993 1878.79,611.994 1883.22,611.994 1887.65,611.995 1892.08,611.995 1896.51,611.996 1900.94,611.996 1905.37,611.997 
  1909.8,611.997 1914.23,611.998 1918.66,611.998 1923.09,611.999 1927.52,611.999 1931.95,612 1936.38,612 1940.8,612.001 1945.23,612.001 1949.66,612.002 
  1954.09,612.002 1958.52,612.003 1962.95,612.003 1967.38,612.004 1971.81,612.004 1976.24,612.005 1980.67,612.005 1985.1,612.006 1989.53,612.006 1993.96,612.007 
  1998.39,612.007 2002.82,612.008 2007.25,612.007 2011.68,612.007 2016.11,612.007 2020.54,612.007 2024.97,612.007 2029.4,612.007 2033.83,612.007 2038.26,612.007 
  2042.69,612.007 2047.11,612.007 2051.54,612.007 2055.97,612.007 2060.4,612.007 2064.83,612.007 2069.26,612.007 2073.69,612.007 2078.12,612.007 2082.55,612.007 
  2086.98,612.007 2091.41,612.007 2095.84,612.007 2100.27,612.007 2104.7,612.007 2109.13,612.007 2113.56,612.007 2117.99,612.007 2122.42,612.007 2126.85,612.007 
  2131.28,612.007 2135.71,612.007 2140.14,612.007 2144.57,612.007 2149,612.007 2153.42,612.007 2157.85,612.007 2162.28,612.007 2166.71,612.007 2171.14,612.007 
  2175.57,612.007 2180,612.006 2184.43,612.006 2188.86,612.006 2193.29,612.006 2197.72,612.006 2202.15,612.006 2206.58,612.006 2211.01,612.006 2215.44,612.006 
  2219.87,612.006 2224.3,612.006 2228.73,612.006 2233.16,612.006 2237.59,612.006 2242.02,612.006 2246.45,612.006 2250.88,612.006 2255.31,612.006 2259.73,612.006 
  2264.16,612.006 2268.59,612.006 2273.02,612.006 2277.45,612.006 2281.88,612.006 2286.31,612.006 2290.74,612.006 2295.17,612.006 2299.6,612.006 2304.03,612.006 
  2308.46,612.006 2312.89,612.006 2317.32,612.006 2321.75,612.006 2326.18,612.006 2330.61,612.006 2335.04,612.006 2339.47,612.006 2343.9,612.006 2348.33,612.006 
  2352.76,612.005 
  "/>
<polyline clip-path="url(#clip882)" style="stroke:#009af9; stroke-linecap:butt; stroke-linejoin:round; stroke-width:6; stroke-opacity:1; fill:none" stroke-dasharray="24, 15" points="
  137.964,1384.24 142.394,1364.91 146.823,1356.94 151.253,1357.3 155.682,1360.17 160.112,1361.35 164.542,1363.27 168.971,1365.27 173.401,1365.4 177.83,1363.77 
  182.26,1359.71 186.689,1356.47 191.119,1351.97 195.549,1343.58 199.978,1334.65 204.408,1322.32 208.837,1309.64 213.267,1288.49 217.697,1265.49 222.126,1239.88 
  226.556,1205.66 230.985,1173.66 235.415,1138 239.844,1103.98 244.274,1074.35 248.704,1052.84 253.133,1040.28 257.563,1036.75 261.992,1045.82 266.422,1063.06 
  270.852,1088.88 275.281,1120.02 279.711,1150.17 284.14,1179.22 288.57,1205.88 293,1231.87 297.429,1253.29 301.859,1270.4 306.288,1278.84 310.718,1284.31 
  315.147,1287.22 319.577,1286.75 324.007,1282.2 328.436,1273.86 332.866,1261.5 337.295,1243.99 341.725,1220.24 346.155,1187.2 350.584,1152.84 355.014,1109.22 
  359.443,1057.29 363.873,1004.85 368.302,956.943 372.732,907.48 377.162,871.744 381.591,842.152 386.021,829.679 390.45,837.029 394.88,851.355 399.31,877.774 
  403.739,915.59 408.169,957.38 412.598,1004.99 417.028,1051.63 421.457,1099.2 425.887,1141.95 430.317,1179.15 434.746,1211.02 439.176,1237.35 443.605,1256.1 
  448.035,1268.65 452.465,1277.79 456.894,1281.63 461.324,1280.12 465.753,1274.27 470.183,1265.66 474.612,1252.61 479.042,1231.55 483.472,1205.09 487.901,1171.14 
  492.331,1131.2 496.76,1090 501.19,1043.23 505.62,996.393 510.049,952.467 514.479,909.6 518.908,880.154 523.338,857.32 527.767,849.955 532.197,853.532 
  536.627,877.224 541.056,911.049 545.486,950.961 549.915,996.49 554.345,1045.88 558.775,1096.38 563.204,1136.37 567.634,1175.91 572.063,1205.01 576.493,1230.87 
  580.922,1252.17 585.352,1266.61 589.782,1273.77 594.211,1278.12 598.641,1280.62 603.07,1279.09 607.5,1272.77 611.93,1260.8 616.359,1243.45 620.789,1216.26 
  625.218,1189.64 629.648,1153.27 634.077,1108.29 638.507,1062.13 642.937,1016.33 647.366,967.983 651.796,922.535 656.225,882.364 660.655,859.983 665.085,848.595 
  669.514,848.992 673.944,865.415 678.373,891.939 682.803,932.636 687.232,977.68 691.662,1026.52 696.092,1076.36 700.521,1119.67 704.951,1158.36 709.38,1193.07 
  713.81,1222.23 718.24,1241.46 722.669,1259.34 727.099,1271.8 731.528,1280.09 735.958,1283.28 740.387,1282.69 744.817,1275.07 749.247,1261.58 753.676,1244.91 
  758.106,1224.33 762.535,1198.28 766.965,1163.99 771.395,1124.76 775.824,1083.91 780.254,1036 784.683,980.488 789.113,935.097 793.542,893.606 797.972,864.03 
  802.402,848.53 806.831,848.15 811.261,860.671 815.69,878.948 820.12,914.117 824.55,955.429 828.979,1000.69 833.409,1050.33 837.838,1099.56 842.268,1141.73 
  846.697,1180.03 851.127,1208.67 855.557,1234.35 859.986,1255.21 864.416,1268.46 868.845,1276.58 873.275,1281.06 877.705,1280.41 882.134,1277.29 886.564,1267.34 
  890.993,1253.1 895.423,1235.55 899.852,1211.16 904.282,1181.99 908.712,1148.89 913.141,1107.26 917.571,1059.09 922,1007.11 926.43,956.797 930.86,912.959 
  935.289,877.078 939.719,854.342 944.148,840.687 948.578,846.369 953.007,865.601 957.437,896.14 961.867,935.04 966.296,980.828 970.726,1029.05 975.155,1073.33 
  979.585,1120.15 984.015,1161.38 988.444,1195.75 992.874,1222.93 997.303,1245.6 1001.73,1263.72 1006.16,1274.51 1010.59,1280.62 1015.02,1282.12 1019.45,1281.21 
  1023.88,1275.08 1028.31,1241.2 1032.74,1210.13 1037.17,1182.16 1041.6,1157.25 1046.03,1137.21 1050.46,1120.16 1054.89,1107.01 1059.32,1094.7 1063.75,1081.75 
  1068.18,1073.81 1072.61,1069.04 1077.04,1064.85 1081.47,1062.9 1085.89,1062.21 1090.32,1062.45 1094.75,1063.08 1099.18,1061.66 1103.61,1060.39 1108.04,1063.36 
  1112.47,1064.41 1116.9,1066.87 1121.33,1070.15 1125.76,1069.94 1130.19,1066.21 1134.62,1070.24 1139.05,1075.8 1143.48,1076.01 1147.91,1080.37 1152.34,1079.67 
  1156.77,1078.42 1161.2,1080.09 1165.63,1084.3 1170.06,1089.08 1174.49,1091.66 1178.92,1095.46 1183.35,1097.13 1187.78,1096.25 1192.2,1100.03 1196.63,1099.2 
  1201.06,1102.02 1205.49,1103.55 1209.92,1104.04 1214.35,1102.92 1218.78,1099.41 1223.21,1101.28 1227.64,1101.58 1232.07,1103.56 1236.5,1102.88 1240.93,1100.09 
  1245.36,1098.14 1249.79,1100.36 1254.22,1099.46 1258.65,1097.78 1263.08,1100.39 1267.51,1098.01 1271.94,1099.96 1276.37,1095.51 1280.8,1093.92 1285.23,1095.44 
  1289.66,1094.66 1294.09,1094.49 1298.51,1094.15 1302.94,1095.31 1307.37,1096.97 1311.8,1096.64 1316.23,1100.09 1320.66,1098.78 1325.09,1102.41 1329.52,1101.18 
  1333.95,1098.13 1338.38,1097.12 1342.81,1097.72 1347.24,1100.19 1351.67,1096.78 1356.1,1097.96 1360.53,1094.63 1364.96,1092.32 1369.39,1094.79 1373.82,1094.71 
  1378.25,1094.86 1382.68,1092.53 1387.11,1092.83 1391.54,1091.05 1395.97,1093.09 1400.4,1093.36 1404.83,1097.3 1409.25,1096.92 1413.68,1096.69 1418.11,1091.39 
  1422.54,1091.26 1426.97,1090.53 1431.4,1093.7 1435.83,1095.85 1440.26,1095.72 1444.69,1096.47 1449.12,1091.6 1453.55,1095.59 1457.98,1094.11 1462.41,1096.62 
  1466.84,1095 1471.27,1094.28 1475.7,1095.68 1480.13,1098.39 1484.56,1098.15 1488.99,1100.24 1493.42,1102.99 1497.85,1103.78 1502.28,1103.49 1506.71,1104.23 
  1511.14,1104.24 1515.56,1102.58 1519.99,1102.01 1524.42,1096.62 1528.85,1094.93 1533.28,1095.91 1537.71,1092.07 1542.14,1091.24 1546.57,1092.23 1551,1093.47 
  1555.43,1095.36 1559.86,1096.14 1564.29,1098.41 1568.72,1098.71 1573.15,1100.65 1577.58,1101.23 1582.01,1100.72 1586.44,1098.17 1590.87,1099.84 1595.3,1100.63 
  1599.73,1104.09 1604.16,1101.22 1608.59,1100.55 1613.02,1097.89 1617.45,1097.2 1621.87,1093.71 1626.3,1095.09 1630.73,1098.98 1635.16,1099.71 1639.59,1101.54 
  1644.02,1100.87 1648.45,1102.38 1652.88,1097.97 1657.31,1095.43 1661.74,1095.55 1666.17,1092.22 1670.6,1092.7 1675.03,1094.42 1679.46,1095.23 1683.89,1095.57 
  1688.32,1095.64 1692.75,1100.11 1697.18,1102.13 1701.61,1102.22 1706.04,1100.09 1710.47,1099.28 1714.9,1097.63 1719.33,1091.75 1723.76,1092.15 1728.18,1094.91 
  1732.61,1095.69 1737.04,1099.03 1741.47,1097.9 1745.9,1096.81 1750.33,1095.16 1754.76,1091.86 1759.19,1091.13 1763.62,1093.51 1768.05,1093.71 1772.48,1095.86 
  1776.91,1099.2 1781.34,1101.18 1785.77,1102.35 1790.2,1101.5 1794.63,1101.15 1799.06,1100.35 1803.49,1098.82 1807.92,1096.59 1812.35,1098.41 1816.78,1101.3 
  1821.21,1102.28 1825.64,1102.11 1830.07,1099.46 1834.49,1098.91 1838.92,1093.35 1843.35,1094.26 1847.78,1093.08 1852.21,1090.66 1856.64,1090.54 1861.07,1089.38 
  1865.5,1091.6 1869.93,1092.22 1874.36,1091.16 1878.79,1091.7 1883.22,1095.89 1887.65,1096.53 1892.08,1096.48 1896.51,1093.52 1900.94,1094.75 1905.37,1095.6 
  1909.8,1095.58 1914.23,1098.15 1918.66,1100.48 1923.09,1097.39 1927.52,1097.67 1931.95,1100.25 1936.38,1098.15 1940.8,1094.77 1945.23,1094.29 1949.66,1095.68 
  1954.09,1091.32 1958.52,1091.6 1962.95,1093 1967.38,1094.96 1971.81,1093.35 1976.24,1092.31 1980.67,1091.28 1985.1,1090.76 1989.53,1090.32 1993.96,1091.53 
  1998.39,1092.97 2002.82,1095.66 2007.25,1094.62 2011.68,1097.13 2016.11,1099.41 2020.54,1101.24 2024.97,1099.79 2029.4,1097.56 2033.83,1099.26 2038.26,1100 
  2042.69,1097.99 2047.11,1095.74 2051.54,1096.87 2055.97,1093.38 2060.4,1094.06 2064.83,1095.57 2069.26,1098.78 2073.69,1100.03 2078.12,1099.58 2082.55,1101.72 
  2086.98,1099.06 2091.41,1101.9 2095.84,1103.32 2100.27,1104.63 2104.7,1101.83 2109.13,1099.58 2113.56,1098.65 2117.99,1094.56 2122.42,1095.32 2126.85,1094.27 
  2131.28,1093.69 2135.71,1092.15 2140.14,1091.66 2144.57,1093.26 2149,1092.48 2153.42,1091.88 2157.85,1092.73 2162.28,1091.18 2166.71,1092.77 2171.14,1094.11 
  2175.57,1095.21 2180,1091.98 2184.43,1091.43 2188.86,1093.88 2193.29,1095.14 2197.72,1095.78 2202.15,1095.11 2206.58,1096.31 2211.01,1096.89 2215.44,1099.31 
  2219.87,1099.15 2224.3,1100.11 2228.73,1100.52 2233.16,1100.86 2237.59,1104.34 2242.02,1102.56 2246.45,1099.56 2250.88,1100.48 2255.31,1102.41 2259.73,1100.74 
  2264.16,1095.2 2268.59,1090.08 2273.02,1088.88 2277.45,1091.47 2281.88,1089.73 2286.31,1090.36 2290.74,1092.91 2295.17,1096.41 2299.6,1099.6 2304.03,1097.55 
  2308.46,1094.91 2312.89,1091.94 2317.32,1093.22 2321.75,1095.15 2326.18,1093.98 2330.61,1097.84 2335.04,1098.18 2339.47,1101.27 2343.9,1098.83 2348.33,1097.37 
  2352.76,1097.16 
  "/>
<polyline clip-path="url(#clip882)" style="stroke:#e26f46; stroke-linecap:butt; stroke-linejoin:round; stroke-width:6; stroke-opacity:1; fill:none" stroke-dasharray="24, 15" points="
  137.964,1384.24 142.394,1345.56 146.823,1298.18 151.253,1247.33 155.682,1194.49 160.112,1141.94 164.542,1088.59 168.971,1035.82 173.401,983.985 177.83,933.664 
  182.26,886.896 186.689,839.505 191.119,794.721 195.549,753.174 199.978,714.492 204.408,680.197 208.837,650.799 213.267,631.009 217.697,616.294 222.126,609.358 
  226.556,612.814 230.985,625.522 235.415,645.951 239.844,671.763 244.274,700.497 248.704,725.799 253.133,744.4 257.563,757.52 261.992,757.609 266.422,748.819 
  270.852,728.462 275.281,696.434 279.711,658.303 284.14,618.116 288.57,572.756 293,525.964 297.429,477.375 301.859,430.235 306.288,385.977 310.718,344.511 
  315.147,305.699 319.577,269.495 324.007,237.264 328.436,210.974 332.866,188.521 337.295,175.749 341.725,172.786 346.155,183.835 350.584,202.613 355.014,238.413 
  359.443,289.131 363.873,352.532 368.302,423.282 372.732,503.276 377.162,579.903 381.591,655.939 386.021,716.491 390.45,762.911 394.88,796.226 399.31,815.773 
  403.739,818.525 408.169,807.736 412.598,782.571 417.028,750.187 421.457,708.316 425.887,662.884 430.317,612.854 434.746,564.419 439.176,514.373 443.605,466.942 
  448.035,420.7 452.465,377.729 456.894,338.602 461.324,303.903 465.753,273.355 470.183,247.333 474.612,229.672 479.042,221.699 483.472,222.711 487.901,235.216 
  492.331,261.951 496.76,298.488 501.19,350.816 505.62,413.108 510.049,480.362 514.479,553.427 518.908,620.447 523.338,684.722 527.767,740.094 532.197,782.296 
  536.627,804.434 541.056,811.856 545.486,803.373 549.915,782.321 554.345,749.248 558.775,707.831 563.204,666.016 567.634,617.646 572.063,571.113 576.493,522.257 
  580.922,472.94 585.352,428.123 589.782,387.757 594.211,348.776 598.641,310.985 603.07,277.993 607.5,250.077 611.93,230.61 616.359,218.081 620.789,217.474 
  625.218,222.5 629.648,242.315 634.077,277.888 638.507,326.558 642.937,381.849 647.366,449.839 651.796,523.844 656.225,600.058 660.655,666.802 665.085,724.31 
  669.514,771.984 673.944,801.495 678.373,816.283 682.803,813.661 687.232,796.234 691.662,766.351 696.092,728.155 700.521,683.492 704.951,636.594 709.38,587.625 
  713.81,540.048 718.24,492.811 722.669,443.647 727.099,399.381 731.528,357.558 735.958,319.945 740.387,285.181 744.817,256.293 749.247,235.88 753.676,220.355 
  758.106,212.18 762.535,214.657 766.965,232.375 771.395,260.688 775.824,299.588 780.254,351.569 784.683,420.093 789.113,493.806 793.542,569.316 797.972,640.431 
  802.402,703.524 806.831,751.781 811.261,786.861 815.69,812.406 820.12,818.728 824.55,810.488 828.979,785.841 833.409,750.592 837.838,708.34 842.268,661.16 
  846.697,611.26 851.127,563.942 855.557,514.721 859.986,466.715 864.416,420.514 868.845,380.278 873.275,340.156 877.705,305.384 882.134,273.007 886.564,247.503 
  890.993,228.198 895.423,216.373 899.852,215.928 904.282,224.338 908.712,243.674 913.141,278.317 917.571,325.49 922,386.649 926.43,459.115 930.86,533.297 
  935.289,606.97 939.719,671.488 944.148,734.468 948.578,776.938 953.007,804.911 957.437,817.716 961.867,813.013 966.296,795.498 970.726,765.493 975.155,730.251 
  979.585,685.685 984.015,637.647 988.444,589.292 992.874,540.25 997.303,492.398 1001.73,445.849 1006.16,402.141 1010.59,360.407 1015.02,323.069 1019.45,288.499 
  1023.88,258.883 1028.31,261.376 1032.74,266.977 1037.17,275.201 1041.6,284.121 1046.03,294.343 1050.46,304.939 1054.89,315.137 1059.32,327.829 1063.75,342.406 
  1068.18,353.754 1072.61,363.621 1077.04,374.896 1081.47,385.2 1085.89,392.946 1090.32,399.324 1094.75,406.714 1099.18,413.432 1103.61,421.494 1108.04,424.108 
  1112.47,428.746 1116.9,432.639 1121.33,435.189 1125.76,439.592 1130.19,447.646 1134.62,450.705 1139.05,450.074 1143.48,451.434 1147.91,451.021 1152.34,453.514 
  1156.77,456.735 1161.2,456.031 1165.63,454.21 1170.06,452.664 1174.49,449.928 1178.92,446.593 1183.35,445.201 1187.78,446.456 1192.2,442.417 1196.63,442.49 
  1201.06,439.438 1205.49,437.253 1209.92,436.435 1214.35,435.844 1218.78,437.123 1223.21,436.039 1227.64,436.395 1232.07,433.319 1236.5,431.741 1240.93,431.563 
  1245.36,432.081 1249.79,428.333 1254.22,427.046 1258.65,428.147 1263.08,425.249 1267.51,424.561 1271.94,424.229 1276.37,428.414 1280.8,430.122 1285.23,430.316 
  1289.66,430.608 1294.09,431.595 1298.51,433.708 1302.94,432.866 1307.37,432.024 1311.8,432.364 1316.23,428.649 1320.66,428.576 1325.09,427.24 1329.52,426.803 
  1333.95,429.094 1338.38,430.179 1342.81,428.851 1347.24,426.399 1351.67,427.799 1356.1,425.589 1360.53,428.576 1364.96,430.778 1369.39,430.34 1373.82,430.899 
  1378.25,430.713 1382.68,431.911 1387.11,433.133 1391.54,434.371 1395.97,432.914 1400.4,432.761 1404.83,430.446 1409.25,430.705 1413.68,431.749 1418.11,435.326 
  1422.54,438.572 1426.97,440.134 1431.4,437.771 1435.83,436.354 1440.26,437.115 1444.69,436.953 1449.12,440.62 1453.55,438.548 1457.98,440.693 1462.41,437.933 
  1466.84,438.467 1471.27,441.057 1475.7,440.911 1480.13,440.223 1484.56,439.446 1488.99,437.261 1493.42,433.74 1497.85,432.461 1502.28,431.87 1506.71,429.661 
  1511.14,429.393 1515.56,428.155 1519.99,427.524 1524.42,430.284 1528.85,431.474 1533.28,431.093 1537.71,434.12 1542.14,436.816 1546.57,436.735 1551,435.383 
  1555.43,432.906 1559.86,432.024 1564.29,432.065 1568.72,432.283 1573.15,431.336 1577.58,430.867 1582.01,430.543 1586.44,431.878 1590.87,431.514 1595.3,429.539 
  1599.73,426.617 1604.16,428.762 1608.59,427.953 1613.02,428.665 1617.45,432.388 1621.87,432.51 1626.3,432.591 1630.73,430.551 1635.16,429.288 1639.59,427.613 
  1644.02,428.139 1648.45,426.326 1652.88,428.851 1657.31,430.268 1661.74,429.353 1666.17,430.875 1670.6,431.814 1675.03,430.664 1679.46,431.223 1683.89,432.34 
  1688.32,431.555 1692.75,428.924 1697.18,426.285 1701.61,425.573 1706.04,427.006 1710.47,427.508 1714.9,428.924 1719.33,433.076 1723.76,433.724 1728.18,432.421 
  1732.61,431.522 1737.04,427.686 1741.47,427.807 1745.9,427.945 1750.33,430.454 1754.76,434.12 1759.19,436.265 1763.62,436.112 1768.05,436.597 1772.48,435.788 
  1776.91,433.19 1781.34,430.292 1785.77,428.349 1790.2,429.515 1794.63,428.479 1799.06,429.28 1803.49,431.32 1807.92,431.741 1812.35,430.114 1816.78,428.811 
  1821.21,426.043 1825.64,426.528 1830.07,427.775 1834.49,427.443 1838.92,431.53 1843.35,431.595 1847.78,433.95 1852.21,436.638 1856.64,437.026 1861.07,437.059 
  1865.5,436.387 1869.93,436.419 1874.36,437.617 1878.79,437.714 1883.22,435.351 1887.65,434.468 1892.08,435.221 1896.51,438.006 1900.94,438.734 1905.37,439.463 
  1909.8,439.082 1914.23,436.144 1918.66,432.421 1923.09,432.315 1927.52,429.709 1931.95,428.001 1936.38,429.539 1940.8,433.214 1945.23,434.153 1949.66,433.505 
  1954.09,438.273 1958.52,440.733 1962.95,441.009 1967.38,438.904 1971.81,439.641 1976.24,439.754 1980.67,441.551 1985.1,442.441 1989.53,443.55 1993.96,443.987 
  1998.39,443.671 2002.82,441.761 2007.25,443.113 2011.68,442.125 2016.11,439.835 2020.54,437.431 2024.97,437.56 2029.4,439.195 2033.83,437.504 2038.26,435.569 
  2042.69,436.128 2047.11,437.569 2051.54,436.403 2055.97,439.713 2060.4,437.925 2064.83,436.014 2069.26,433.392 2073.69,431.182 2078.12,431.336 2082.55,428.867 
  2086.98,429.912 2091.41,427.896 2095.84,425.622 2100.27,421.227 2104.7,422.926 2109.13,424.424 2113.56,425.015 2117.99,429.539 2122.42,428.317 2126.85,429.442 
  2131.28,431.109 2135.71,433.392 2140.14,434.193 2144.57,433.724 2149,435.448 2153.42,436.541 2157.85,436.767 2162.28,439.398 2166.71,439.414 2171.14,438.629 
  2175.57,437.795 2180,440.839 2184.43,440.272 2188.86,439.843 2193.29,438.572 2197.72,437.73 2202.15,437.747 2206.58,437.277 2211.01,434.954 2215.44,432.704 
  2219.87,433.384 2224.3,430.64 2228.73,429.029 2233.16,428.697 2237.59,424.869 2242.02,424.877 2246.45,426.609 2250.88,424.667 2255.31,423.954 2259.73,423.55 
  2264.16,426.674 2268.59,431.368 2273.02,432.113 2277.45,431.296 2281.88,433.562 2286.31,433.351 2290.74,431.814 2295.17,428.495 2299.6,425.881 2304.03,429.232 
  2308.46,430.219 2312.89,433.206 2317.32,432 2321.75,431.158 2326.18,431.401 2330.61,429.903 2335.04,428.843 2339.47,427.014 2343.9,428.43 2348.33,430.64 
  2352.76,429.588 
  "/>
<path clip-path="url(#clip880)" d="
M1807.73 1377.32 L2278.93 1377.32 L2278.93 1074.92 L1807.73 1074.92  Z
  " fill="#000000" fill-rule="evenodd" fill-opacity="0"/>
<polyline clip-path="url(#clip880)" style="stroke:#000000; stroke-linecap:butt; stroke-linejoin:round; stroke-width:4; stroke-opacity:1; fill:none" points="
  1807.73,1377.32 2278.93,1377.32 2278.93,1074.92 1807.73,1074.92 1807.73,1377.32 
  "/>
<polyline clip-path="url(#clip880)" style="stroke:#009af9; stroke-linecap:butt; stroke-linejoin:round; stroke-width:4; stroke-opacity:1; fill:none" points="
  1832.34,1135.4 1979.99,1135.4 
  "/>
<path clip-path="url(#clip880)" d="M2004.6 1162.54 L2004.6 1126.75 L2008.86 1126.75 L2008.86 1142.86 Q2008.86 1146.22 2010.45 1147.93 Q2012.05 1149.64 2015.18 1149.64 Q2018.6 1149.64 2020.31 1147.7 Q2022.05 1145.75 2022.05 1141.87 L2022.05 1126.75 L2026.31 1126.75 L2026.31 1146.7 Q2026.31 1148.09 2026.7 1148.76 Q2027.12 1149.41 2027.98 1149.41 Q2028.19 1149.41 2028.56 1149.3 Q2028.93 1149.16 2029.57 1148.88 L2029.57 1152.3 Q2028.63 1152.84 2027.77 1153.09 Q2026.94 1153.35 2026.13 1153.35 Q2024.53 1153.35 2023.58 1152.44 Q2022.63 1151.54 2022.28 1149.69 Q2021.13 1151.52 2019.44 1152.44 Q2017.77 1153.35 2015.5 1153.35 Q2013.14 1153.35 2011.47 1152.44 Q2009.83 1151.54 2008.86 1149.74 L2008.86 1162.54 L2004.6 1162.54 Z" fill="#000000" fill-rule="evenodd" fill-opacity="1" /><path clip-path="url(#clip880)" d="M2034.34 1150.13 L2039.06 1150.13 L2039.06 1135.99 L2033.9 1136.93 L2033.9 1134.25 L2039.23 1133.35 L2042.4 1133.35 L2042.4 1150.13 L2047.14 1150.13 L2047.14 1152.68 L2034.34 1152.68 L2034.34 1150.13 Z" fill="#000000" fill-rule="evenodd" fill-opacity="1" /><path clip-path="url(#clip880)" d="M2062.93 1137 Q2061.77 1135.01 2059.44 1135.01 Q2057.1 1135.01 2055.94 1137 Q2054.76 1138.99 2054.76 1142.98 Q2054.76 1146.98 2055.94 1148.97 Q2057.1 1150.96 2059.44 1150.96 Q2061.77 1150.96 2062.93 1148.97 Q2064.11 1146.98 2064.11 1142.98 Q2064.11 1138.99 2062.93 1137 M2059.44 1132.95 Q2063.16 1132.95 2065.13 1135.52 Q2067.1 1138.09 2067.1 1142.98 Q2067.1 1147.88 2065.13 1150.45 Q2063.16 1153.02 2059.44 1153.02 Q2055.69 1153.02 2053.72 1150.45 Q2051.75 1147.88 2051.75 1142.98 Q2051.75 1138.09 2053.72 1135.52 Q2055.69 1132.95 2059.44 1132.95 Z" fill="#000000" fill-rule="evenodd" fill-opacity="1" /><path clip-path="url(#clip880)" d="M2083.44 1116.7 Q2080.34 1122.03 2078.83 1127.24 Q2077.33 1132.44 2077.33 1137.79 Q2077.33 1143.14 2078.83 1148.39 Q2080.36 1153.62 2083.44 1158.93 L2079.74 1158.93 Q2076.26 1153.49 2074.53 1148.23 Q2072.81 1142.98 2072.81 1137.79 Q2072.81 1132.63 2074.53 1127.4 Q2076.24 1122.17 2079.74 1116.7 L2083.44 1116.7 Z" fill="#000000" fill-rule="evenodd" fill-opacity="1" /><path clip-path="url(#clip880)" d="M2095.92 1119.39 L2095.92 1126.75 L2104.69 1126.75 L2104.69 1130.06 L2095.92 1130.06 L2095.92 1144.13 Q2095.92 1147.3 2096.77 1148.21 Q2097.65 1149.11 2100.31 1149.11 L2104.69 1149.11 L2104.69 1152.68 L2100.31 1152.68 Q2095.38 1152.68 2093.51 1150.85 Q2091.63 1148.99 2091.63 1144.13 L2091.63 1130.06 L2088.51 1130.06 L2088.51 1126.75 L2091.63 1126.75 L2091.63 1119.39 L2095.92 1119.39 Z" fill="#000000" fill-rule="evenodd" fill-opacity="1" /><path clip-path="url(#clip880)" d="M2109.62 1116.7 L2113.32 1116.7 Q2116.8 1122.17 2118.51 1127.4 Q2120.24 1132.63 2120.24 1137.79 Q2120.24 1142.98 2118.51 1148.23 Q2116.8 1153.49 2113.32 1158.93 L2109.62 1158.93 Q2112.7 1153.62 2114.2 1148.39 Q2115.73 1143.14 2115.73 1137.79 Q2115.73 1132.44 2114.2 1127.24 Q2112.7 1122.03 2109.62 1116.7 Z" fill="#000000" fill-rule="evenodd" fill-opacity="1" /><polyline clip-path="url(#clip880)" style="stroke:#e26f46; stroke-linecap:butt; stroke-linejoin:round; stroke-width:4; stroke-opacity:1; fill:none" points="
  1832.34,1195.88 1979.99,1195.88 
  "/>
<path clip-path="url(#clip880)" d="M2004.6 1223.02 L2004.6 1187.23 L2008.86 1187.23 L2008.86 1203.34 Q2008.86 1206.7 2010.45 1208.41 Q2012.05 1210.12 2015.18 1210.12 Q2018.6 1210.12 2020.31 1208.18 Q2022.05 1206.23 2022.05 1202.35 L2022.05 1187.23 L2026.31 1187.23 L2026.31 1207.18 Q2026.31 1208.57 2026.7 1209.24 Q2027.12 1209.89 2027.98 1209.89 Q2028.19 1209.89 2028.56 1209.78 Q2028.93 1209.64 2029.57 1209.36 L2029.57 1212.78 Q2028.63 1213.32 2027.77 1213.57 Q2026.94 1213.83 2026.13 1213.83 Q2024.53 1213.83 2023.58 1212.92 Q2022.63 1212.02 2022.28 1210.17 Q2021.13 1212 2019.44 1212.92 Q2017.77 1213.83 2015.5 1213.83 Q2013.14 1213.83 2011.47 1212.92 Q2009.83 1212.02 2008.86 1210.22 L2008.86 1223.02 L2004.6 1223.02 Z" fill="#000000" fill-rule="evenodd" fill-opacity="1" /><path clip-path="url(#clip880)" d="M2043.93 1197.48 Q2042.77 1195.49 2040.43 1195.49 Q2038.09 1195.49 2036.94 1197.48 Q2035.75 1199.47 2035.75 1203.46 Q2035.75 1207.46 2036.94 1209.45 Q2038.09 1211.44 2040.43 1211.44 Q2042.77 1211.44 2043.93 1209.45 Q2045.11 1207.46 2045.11 1203.46 Q2045.11 1199.47 2043.93 1197.48 M2040.43 1193.43 Q2044.16 1193.43 2046.12 1196 Q2048.09 1198.57 2048.09 1203.46 Q2048.09 1208.36 2046.12 1210.93 Q2044.16 1213.5 2040.43 1213.5 Q2036.68 1213.5 2034.71 1210.93 Q2032.75 1208.36 2032.75 1203.46 Q2032.75 1198.57 2034.71 1196 Q2036.68 1193.43 2040.43 1193.43 Z" fill="#000000" fill-rule="evenodd" fill-opacity="1" /><path clip-path="url(#clip880)" d="M2053.35 1210.61 L2058.07 1210.61 L2058.07 1196.47 L2052.91 1197.41 L2052.91 1194.73 L2058.23 1193.83 L2061.4 1193.83 L2061.4 1210.61 L2066.15 1210.61 L2066.15 1213.16 L2053.35 1213.16 L2053.35 1210.61 Z" fill="#000000" fill-rule="evenodd" fill-opacity="1" /><path clip-path="url(#clip880)" d="M2083.44 1177.18 Q2080.34 1182.51 2078.83 1187.72 Q2077.33 1192.92 2077.33 1198.27 Q2077.33 1203.62 2078.83 1208.87 Q2080.36 1214.1 2083.44 1219.41 L2079.74 1219.41 Q2076.26 1213.97 2074.53 1208.71 Q2072.81 1203.46 2072.81 1198.27 Q2072.81 1193.11 2074.53 1187.88 Q2076.24 1182.65 2079.74 1177.18 L2083.44 1177.18 Z" fill="#000000" fill-rule="evenodd" fill-opacity="1" /><path clip-path="url(#clip880)" d="M2095.92 1179.87 L2095.92 1187.23 L2104.69 1187.23 L2104.69 1190.54 L2095.92 1190.54 L2095.92 1204.61 Q2095.92 1207.78 2096.77 1208.69 Q2097.65 1209.59 2100.31 1209.59 L2104.69 1209.59 L2104.69 1213.16 L2100.31 1213.16 Q2095.38 1213.16 2093.51 1211.33 Q2091.63 1209.47 2091.63 1204.61 L2091.63 1190.54 L2088.51 1190.54 L2088.51 1187.23 L2091.63 1187.23 L2091.63 1179.87 L2095.92 1179.87 Z" fill="#000000" fill-rule="evenodd" fill-opacity="1" /><path clip-path="url(#clip880)" d="M2109.62 1177.18 L2113.32 1177.18 Q2116.8 1182.65 2118.51 1187.88 Q2120.24 1193.11 2120.24 1198.27 Q2120.24 1203.46 2118.51 1208.71 Q2116.8 1213.97 2113.32 1219.41 L2109.62 1219.41 Q2112.7 1214.1 2114.2 1208.87 Q2115.73 1203.62 2115.73 1198.27 Q2115.73 1192.92 2114.2 1187.72 Q2112.7 1182.51 2109.62 1177.18 Z" fill="#000000" fill-rule="evenodd" fill-opacity="1" /><polyline clip-path="url(#clip880)" style="stroke:#009af9; stroke-linecap:butt; stroke-linejoin:round; stroke-width:4; stroke-opacity:1; fill:none" stroke-dasharray="16, 10" points="
  1832.34,1256.36 1979.99,1256.36 
  "/>
<path clip-path="url(#clip880)" d="M2026.84 1240.21 L2026.84 1244.77 Q2024.18 1243.5 2021.82 1242.87 Q2019.46 1242.25 2017.26 1242.25 Q2013.44 1242.25 2011.36 1243.73 Q2009.3 1245.21 2009.3 1247.94 Q2009.3 1250.23 2010.66 1251.41 Q2012.05 1252.57 2015.89 1253.29 L2018.72 1253.87 Q2023.95 1254.86 2026.43 1257.39 Q2028.93 1259.89 2028.93 1264.1 Q2028.93 1269.12 2025.55 1271.71 Q2022.19 1274.31 2015.69 1274.31 Q2013.23 1274.31 2010.45 1273.75 Q2007.7 1273.2 2004.74 1272.11 L2004.74 1267.29 Q2007.58 1268.89 2010.31 1269.7 Q2013.05 1270.51 2015.69 1270.51 Q2019.69 1270.51 2021.87 1268.94 Q2024.04 1267.36 2024.04 1264.45 Q2024.04 1261.9 2022.47 1260.46 Q2020.92 1259.03 2017.35 1258.31 L2014.5 1257.76 Q2009.27 1256.71 2006.94 1254.49 Q2004.6 1252.27 2004.6 1248.31 Q2004.6 1243.73 2007.81 1241.09 Q2011.06 1238.45 2016.73 1238.45 Q2019.16 1238.45 2021.68 1238.89 Q2024.2 1239.33 2026.84 1240.21 Z" fill="#000000" fill-rule="evenodd" fill-opacity="1" /><path clip-path="url(#clip880)" d="M2056.94 1240.21 L2056.94 1244.77 Q2054.27 1243.5 2051.91 1242.87 Q2049.55 1242.25 2047.35 1242.25 Q2043.53 1242.25 2041.45 1243.73 Q2039.39 1245.21 2039.39 1247.94 Q2039.39 1250.23 2040.75 1251.41 Q2042.14 1252.57 2045.99 1253.29 L2048.81 1253.87 Q2054.04 1254.86 2056.52 1257.39 Q2059.02 1259.89 2059.02 1264.1 Q2059.02 1269.12 2055.64 1271.71 Q2052.28 1274.31 2045.78 1274.31 Q2043.32 1274.31 2040.55 1273.75 Q2037.79 1273.2 2034.83 1272.11 L2034.83 1267.29 Q2037.68 1268.89 2040.41 1269.7 Q2043.14 1270.51 2045.78 1270.51 Q2049.78 1270.51 2051.96 1268.94 Q2054.13 1267.36 2054.13 1264.45 Q2054.13 1261.9 2052.56 1260.46 Q2051.01 1259.03 2047.44 1258.31 L2044.6 1257.76 Q2039.37 1256.71 2037.03 1254.49 Q2034.69 1252.27 2034.69 1248.31 Q2034.69 1243.73 2037.91 1241.09 Q2041.15 1238.45 2046.82 1238.45 Q2049.25 1238.45 2051.77 1238.89 Q2054.3 1239.33 2056.94 1240.21 Z" fill="#000000" fill-rule="evenodd" fill-opacity="1" /><path clip-path="url(#clip880)" d="M2078.74 1243.68 L2072.4 1260.88 L2085.11 1260.88 L2078.74 1243.68 M2076.1 1239.08 L2081.4 1239.08 L2094.57 1273.64 L2089.71 1273.64 L2086.56 1264.77 L2070.99 1264.77 L2067.84 1273.64 L2062.91 1273.64 L2076.1 1239.08 Z" fill="#000000" fill-rule="evenodd" fill-opacity="1" /><path clip-path="url(#clip880)" d="M2114.06 1283.5 L2114.06 1247.71 L2118.32 1247.71 L2118.32 1263.82 Q2118.32 1267.18 2119.92 1268.89 Q2121.52 1270.6 2124.64 1270.6 Q2128.07 1270.6 2129.78 1268.66 Q2131.52 1266.71 2131.52 1262.83 L2131.52 1247.71 L2135.78 1247.71 L2135.78 1267.66 Q2135.78 1269.05 2136.17 1269.72 Q2136.59 1270.37 2137.44 1270.37 Q2137.65 1270.37 2138.02 1270.26 Q2138.39 1270.12 2139.04 1269.84 L2139.04 1273.26 Q2138.09 1273.8 2137.24 1274.05 Q2136.4 1274.31 2135.59 1274.31 Q2133.99 1274.31 2133.05 1273.4 Q2132.1 1272.5 2131.75 1270.65 Q2130.59 1272.48 2128.9 1273.4 Q2127.24 1274.31 2124.97 1274.31 Q2122.61 1274.31 2120.94 1273.4 Q2119.3 1272.5 2118.32 1270.7 L2118.32 1283.5 L2114.06 1283.5 Z" fill="#000000" fill-rule="evenodd" fill-opacity="1" /><path clip-path="url(#clip880)" d="M2143.81 1271.09 L2148.53 1271.09 L2148.53 1256.95 L2143.37 1257.89 L2143.37 1255.21 L2148.69 1254.31 L2151.87 1254.31 L2151.87 1271.09 L2156.61 1271.09 L2156.61 1273.64 L2143.81 1273.64 L2143.81 1271.09 Z" fill="#000000" fill-rule="evenodd" fill-opacity="1" /><path clip-path="url(#clip880)" d="M2172.4 1257.96 Q2171.24 1255.97 2168.9 1255.97 Q2166.56 1255.97 2165.41 1257.96 Q2164.23 1259.95 2164.23 1263.94 Q2164.23 1267.94 2165.41 1269.93 Q2166.56 1271.92 2168.9 1271.92 Q2171.24 1271.92 2172.4 1269.93 Q2173.58 1267.94 2173.58 1263.94 Q2173.58 1259.95 2172.4 1257.96 M2168.9 1253.91 Q2172.63 1253.91 2174.6 1256.48 Q2176.56 1259.05 2176.56 1263.94 Q2176.56 1268.84 2174.6 1271.41 Q2172.63 1273.98 2168.9 1273.98 Q2165.15 1273.98 2163.18 1271.41 Q2161.22 1268.84 2161.22 1263.94 Q2161.22 1259.05 2163.18 1256.48 Q2165.15 1253.91 2168.9 1253.91 Z" fill="#000000" fill-rule="evenodd" fill-opacity="1" /><path clip-path="url(#clip880)" d="M2192.91 1237.66 Q2189.8 1242.99 2188.3 1248.2 Q2186.8 1253.4 2186.8 1258.75 Q2186.8 1264.1 2188.3 1269.35 Q2189.83 1274.58 2192.91 1279.89 L2189.2 1279.89 Q2185.73 1274.45 2183.99 1269.19 Q2182.28 1263.94 2182.28 1258.75 Q2182.28 1253.59 2183.99 1248.36 Q2185.71 1243.13 2189.2 1237.66 L2192.91 1237.66 Z" fill="#000000" fill-rule="evenodd" fill-opacity="1" /><path clip-path="url(#clip880)" d="M2205.38 1240.35 L2205.38 1247.71 L2214.16 1247.71 L2214.16 1251.02 L2205.38 1251.02 L2205.38 1265.09 Q2205.38 1268.26 2206.24 1269.17 Q2207.12 1270.07 2209.78 1270.07 L2214.16 1270.07 L2214.16 1273.64 L2209.78 1273.64 Q2204.85 1273.64 2202.98 1271.81 Q2201.1 1269.95 2201.1 1265.09 L2201.1 1251.02 L2197.98 1251.02 L2197.98 1247.71 L2201.1 1247.71 L2201.1 1240.35 L2205.38 1240.35 Z" fill="#000000" fill-rule="evenodd" fill-opacity="1" /><path clip-path="url(#clip880)" d="M2219.09 1237.66 L2222.79 1237.66 Q2226.26 1243.13 2227.98 1248.36 Q2229.71 1253.59 2229.71 1258.75 Q2229.71 1263.94 2227.98 1269.19 Q2226.26 1274.45 2222.79 1279.89 L2219.09 1279.89 Q2222.17 1274.58 2223.67 1269.35 Q2225.2 1264.1 2225.2 1258.75 Q2225.2 1253.4 2223.67 1248.2 Q2222.17 1242.99 2219.09 1237.66 Z" fill="#000000" fill-rule="evenodd" fill-opacity="1" /><polyline clip-path="url(#clip880)" style="stroke:#e26f46; stroke-linecap:butt; stroke-linejoin:round; stroke-width:4; stroke-opacity:1; fill:none" stroke-dasharray="16, 10" points="
  1832.34,1316.84 1979.99,1316.84 
  "/>
<path clip-path="url(#clip880)" d="M2026.84 1300.69 L2026.84 1305.25 Q2024.18 1303.98 2021.82 1303.35 Q2019.46 1302.73 2017.26 1302.73 Q2013.44 1302.73 2011.36 1304.21 Q2009.3 1305.69 2009.3 1308.42 Q2009.3 1310.71 2010.66 1311.89 Q2012.05 1313.05 2015.89 1313.77 L2018.72 1314.35 Q2023.95 1315.34 2026.43 1317.87 Q2028.93 1320.37 2028.93 1324.58 Q2028.93 1329.6 2025.55 1332.19 Q2022.19 1334.79 2015.69 1334.79 Q2013.23 1334.79 2010.45 1334.23 Q2007.7 1333.68 2004.74 1332.59 L2004.74 1327.77 Q2007.58 1329.37 2010.31 1330.18 Q2013.05 1330.99 2015.69 1330.99 Q2019.69 1330.99 2021.87 1329.42 Q2024.04 1327.84 2024.04 1324.93 Q2024.04 1322.38 2022.47 1320.94 Q2020.92 1319.51 2017.35 1318.79 L2014.5 1318.24 Q2009.27 1317.19 2006.94 1314.97 Q2004.6 1312.75 2004.6 1308.79 Q2004.6 1304.21 2007.81 1301.57 Q2011.06 1298.93 2016.73 1298.93 Q2019.16 1298.93 2021.68 1299.37 Q2024.2 1299.81 2026.84 1300.69 Z" fill="#000000" fill-rule="evenodd" fill-opacity="1" /><path clip-path="url(#clip880)" d="M2056.94 1300.69 L2056.94 1305.25 Q2054.27 1303.98 2051.91 1303.35 Q2049.55 1302.73 2047.35 1302.73 Q2043.53 1302.73 2041.45 1304.21 Q2039.39 1305.69 2039.39 1308.42 Q2039.39 1310.71 2040.75 1311.89 Q2042.14 1313.05 2045.99 1313.77 L2048.81 1314.35 Q2054.04 1315.34 2056.52 1317.87 Q2059.02 1320.37 2059.02 1324.58 Q2059.02 1329.6 2055.64 1332.19 Q2052.28 1334.79 2045.78 1334.79 Q2043.32 1334.79 2040.55 1334.23 Q2037.79 1333.68 2034.83 1332.59 L2034.83 1327.77 Q2037.68 1329.37 2040.41 1330.18 Q2043.14 1330.99 2045.78 1330.99 Q2049.78 1330.99 2051.96 1329.42 Q2054.13 1327.84 2054.13 1324.93 Q2054.13 1322.38 2052.56 1320.94 Q2051.01 1319.51 2047.44 1318.79 L2044.6 1318.24 Q2039.37 1317.19 2037.03 1314.97 Q2034.69 1312.75 2034.69 1308.79 Q2034.69 1304.21 2037.91 1301.57 Q2041.15 1298.93 2046.82 1298.93 Q2049.25 1298.93 2051.77 1299.37 Q2054.3 1299.81 2056.94 1300.69 Z" fill="#000000" fill-rule="evenodd" fill-opacity="1" /><path clip-path="url(#clip880)" d="M2078.74 1304.16 L2072.4 1321.36 L2085.11 1321.36 L2078.74 1304.16 M2076.1 1299.56 L2081.4 1299.56 L2094.57 1334.12 L2089.71 1334.12 L2086.56 1325.25 L2070.99 1325.25 L2067.84 1334.12 L2062.91 1334.12 L2076.1 1299.56 Z" fill="#000000" fill-rule="evenodd" fill-opacity="1" /><path clip-path="url(#clip880)" d="M2114.06 1343.98 L2114.06 1308.19 L2118.32 1308.19 L2118.32 1324.3 Q2118.32 1327.66 2119.92 1329.37 Q2121.52 1331.08 2124.64 1331.08 Q2128.07 1331.08 2129.78 1329.14 Q2131.52 1327.19 2131.52 1323.31 L2131.52 1308.19 L2135.78 1308.19 L2135.78 1328.14 Q2135.78 1329.53 2136.17 1330.2 Q2136.59 1330.85 2137.44 1330.85 Q2137.65 1330.85 2138.02 1330.74 Q2138.39 1330.6 2139.04 1330.32 L2139.04 1333.74 Q2138.09 1334.28 2137.24 1334.53 Q2136.4 1334.79 2135.59 1334.79 Q2133.99 1334.79 2133.05 1333.88 Q2132.1 1332.98 2131.75 1331.13 Q2130.59 1332.96 2128.9 1333.88 Q2127.24 1334.79 2124.97 1334.79 Q2122.61 1334.79 2120.94 1333.88 Q2119.3 1332.98 2118.32 1331.18 L2118.32 1343.98 L2114.06 1343.98 Z" fill="#000000" fill-rule="evenodd" fill-opacity="1" /><path clip-path="url(#clip880)" d="M2153.39 1318.44 Q2152.24 1316.45 2149.9 1316.45 Q2147.56 1316.45 2146.4 1318.44 Q2145.22 1320.43 2145.22 1324.42 Q2145.22 1328.42 2146.4 1330.41 Q2147.56 1332.4 2149.9 1332.4 Q2152.24 1332.4 2153.39 1330.41 Q2154.57 1328.42 2154.57 1324.42 Q2154.57 1320.43 2153.39 1318.44 M2149.9 1314.39 Q2153.62 1314.39 2155.59 1316.96 Q2157.56 1319.53 2157.56 1324.42 Q2157.56 1329.32 2155.59 1331.89 Q2153.62 1334.46 2149.9 1334.46 Q2146.15 1334.46 2144.18 1331.89 Q2142.21 1329.32 2142.21 1324.42 Q2142.21 1319.53 2144.18 1316.96 Q2146.15 1314.39 2149.9 1314.39 Z" fill="#000000" fill-rule="evenodd" fill-opacity="1" /><path clip-path="url(#clip880)" d="M2162.81 1331.57 L2167.54 1331.57 L2167.54 1317.43 L2162.37 1318.37 L2162.37 1315.69 L2167.7 1314.79 L2170.87 1314.79 L2170.87 1331.57 L2175.61 1331.57 L2175.61 1334.12 L2162.81 1334.12 L2162.81 1331.57 Z" fill="#000000" fill-rule="evenodd" fill-opacity="1" /><path clip-path="url(#clip880)" d="M2192.91 1298.14 Q2189.8 1303.47 2188.3 1308.68 Q2186.8 1313.88 2186.8 1319.23 Q2186.8 1324.58 2188.3 1329.83 Q2189.83 1335.06 2192.91 1340.37 L2189.2 1340.37 Q2185.73 1334.93 2183.99 1329.67 Q2182.28 1324.42 2182.28 1319.23 Q2182.28 1314.07 2183.99 1308.84 Q2185.71 1303.61 2189.2 1298.14 L2192.91 1298.14 Z" fill="#000000" fill-rule="evenodd" fill-opacity="1" /><path clip-path="url(#clip880)" d="M2205.38 1300.83 L2205.38 1308.19 L2214.16 1308.19 L2214.16 1311.5 L2205.38 1311.5 L2205.38 1325.57 Q2205.38 1328.74 2206.24 1329.65 Q2207.12 1330.55 2209.78 1330.55 L2214.16 1330.55 L2214.16 1334.12 L2209.78 1334.12 Q2204.85 1334.12 2202.98 1332.29 Q2201.1 1330.43 2201.1 1325.57 L2201.1 1311.5 L2197.98 1311.5 L2197.98 1308.19 L2201.1 1308.19 L2201.1 1300.83 L2205.38 1300.83 Z" fill="#000000" fill-rule="evenodd" fill-opacity="1" /><path clip-path="url(#clip880)" d="M2219.09 1298.14 L2222.79 1298.14 Q2226.26 1303.61 2227.98 1308.84 Q2229.71 1314.07 2229.71 1319.23 Q2229.71 1324.42 2227.98 1329.67 Q2226.26 1334.93 2222.79 1340.37 L2219.09 1340.37 Q2222.17 1335.06 2223.67 1329.83 Q2225.2 1324.58 2225.2 1319.23 Q2225.2 1313.88 2223.67 1308.68 Q2222.17 1303.47 2219.09 1298.14 Z" fill="#000000" fill-rule="evenodd" fill-opacity="1" /></svg>
