<?xml version="1.0" encoding="utf-8"?>
<svg xmlns="http://www.w3.org/2000/svg" xmlns:xlink="http://www.w3.org/1999/xlink" width="600" height="400" viewBox="0 0 2400 1600">
<defs>
  <clipPath id="clip410">
    <rect x="0" y="0" width="2400" height="1600"/>
  </clipPath>
</defs>
<path clip-path="url(#clip410)" d="
M0 1600 L2400 1600 L2400 0 L0 0  Z
  " fill="#ffffff" fill-rule="evenodd" fill-opacity="1"/>
<defs>
  <clipPath id="clip411">
    <rect x="480" y="0" width="1681" height="1600"/>
  </clipPath>
</defs>
<path clip-path="url(#clip410)" d="
M166.205 1423.18 L2352.76 1423.18 L2352.76 47.2441 L166.205 47.2441  Z
  " fill="#ffffff" fill-rule="evenodd" fill-opacity="1"/>
<defs>
  <clipPath id="clip412">
    <rect x="166" y="47" width="2188" height="1377"/>
  </clipPath>
</defs>
<polyline clip-path="url(#clip412)" style="stroke:#000000; stroke-width:2; stroke-opacity:0.1; fill:none" points="
  166.205,1423.18 166.205,47.2441 
  "/>
<polyline clip-path="url(#clip412)" style="stroke:#000000; stroke-width:2; stroke-opacity:0.1; fill:none" points="
  603.515,1423.18 603.515,47.2441 
  "/>
<polyline clip-path="url(#clip412)" style="stroke:#000000; stroke-width:2; stroke-opacity:0.1; fill:none" points="
  1040.83,1423.18 1040.83,47.2441 
  "/>
<polyline clip-path="url(#clip412)" style="stroke:#000000; stroke-width:2; stroke-opacity:0.1; fill:none" points="
  1478.14,1423.18 1478.14,47.2441 
  "/>
<polyline clip-path="url(#clip412)" style="stroke:#000000; stroke-width:2; stroke-opacity:0.1; fill:none" points="
  1915.45,1423.18 1915.45,47.2441 
  "/>
<polyline clip-path="url(#clip412)" style="stroke:#000000; stroke-width:2; stroke-opacity:0.1; fill:none" points="
  2352.76,1423.18 2352.76,47.2441 
  "/>
<polyline clip-path="url(#clip410)" style="stroke:#000000; stroke-width:4; stroke-opacity:1; fill:none" points="
  166.205,1423.18 2352.76,1423.18 
  "/>
<polyline clip-path="url(#clip410)" style="stroke:#000000; stroke-width:4; stroke-opacity:1; fill:none" points="
  166.205,1423.18 166.205,1406.67 
  "/>
<polyline clip-path="url(#clip410)" style="stroke:#000000; stroke-width:4; stroke-opacity:1; fill:none" points="
  603.515,1423.18 603.515,1406.67 
  "/>
<polyline clip-path="url(#clip410)" style="stroke:#000000; stroke-width:4; stroke-opacity:1; fill:none" points="
  1040.83,1423.18 1040.83,1406.67 
  "/>
<polyline clip-path="url(#clip410)" style="stroke:#000000; stroke-width:4; stroke-opacity:1; fill:none" points="
  1478.14,1423.18 1478.14,1406.67 
  "/>
<polyline clip-path="url(#clip410)" style="stroke:#000000; stroke-width:4; stroke-opacity:1; fill:none" points="
  1915.45,1423.18 1915.45,1406.67 
  "/>
<polyline clip-path="url(#clip410)" style="stroke:#000000; stroke-width:4; stroke-opacity:1; fill:none" points="
  2352.76,1423.18 2352.76,1406.67 
  "/>
<path clip-path="url(#clip410)" d="M 0 0 M166.205 1452.37 Q162.594 1452.37 160.765 1455.94 Q158.959 1459.48 158.959 1466.61 Q158.959 1473.71 160.765 1477.28 Q162.594 1480.82 166.205 1480.82 Q169.839 1480.82 171.644 1477.28 Q173.473 1473.71 173.473 1466.61 Q173.473 1459.48 171.644 1455.94 Q169.839 1452.37 166.205 1452.37 M166.205 1448.67 Q172.015 1448.67 175.07 1453.27 Q178.149 1457.86 178.149 1466.61 Q178.149 1475.33 175.07 1479.94 Q172.015 1484.52 166.205 1484.52 Q160.395 1484.52 157.316 1479.94 Q154.26 1475.33 154.26 1466.61 Q154.26 1457.86 157.316 1453.27 Q160.395 1448.67 166.205 1448.67 Z" fill="#000000" fill-rule="evenodd" fill-opacity="1" /><path clip-path="url(#clip410)" d="M 0 0 M584.661 1479.92 L600.98 1479.92 L600.98 1483.85 L579.036 1483.85 L579.036 1479.92 Q581.698 1477.16 586.281 1472.53 Q590.888 1467.88 592.068 1466.54 Q594.314 1464.01 595.193 1462.28 Q596.096 1460.52 596.096 1458.83 Q596.096 1456.07 594.152 1454.34 Q592.23 1452.6 589.128 1452.6 Q586.929 1452.6 584.476 1453.37 Q582.045 1454.13 579.267 1455.68 L579.267 1450.96 Q582.091 1449.82 584.545 1449.25 Q586.999 1448.67 589.036 1448.67 Q594.406 1448.67 597.601 1451.35 Q600.795 1454.04 600.795 1458.53 Q600.795 1460.66 599.985 1462.58 Q599.198 1464.48 597.091 1467.07 Q596.513 1467.74 593.411 1470.96 Q590.309 1474.15 584.661 1479.92 Z" fill="#000000" fill-rule="evenodd" fill-opacity="1" /><path clip-path="url(#clip410)" d="M 0 0 M616.05 1452.37 Q612.438 1452.37 610.61 1455.94 Q608.804 1459.48 608.804 1466.61 Q608.804 1473.71 610.61 1477.28 Q612.438 1480.82 616.05 1480.82 Q619.684 1480.82 621.489 1477.28 Q623.318 1473.71 623.318 1466.61 Q623.318 1459.48 621.489 1455.94 Q619.684 1452.37 616.05 1452.37 M616.05 1448.67 Q621.86 1448.67 624.915 1453.27 Q627.994 1457.86 627.994 1466.61 Q627.994 1475.33 624.915 1479.94 Q621.86 1484.52 616.05 1484.52 Q610.239 1484.52 607.161 1479.94 Q604.105 1475.33 604.105 1466.61 Q604.105 1457.86 607.161 1453.27 Q610.239 1448.67 616.05 1448.67 Z" fill="#000000" fill-rule="evenodd" fill-opacity="1" /><path clip-path="url(#clip410)" d="M 0 0 M1030.33 1453.37 L1018.52 1471.81 L1030.33 1471.81 L1030.33 1453.37 M1029.1 1449.29 L1034.98 1449.29 L1034.98 1471.81 L1039.91 1471.81 L1039.91 1475.7 L1034.98 1475.7 L1034.98 1483.85 L1030.33 1483.85 L1030.33 1475.7 L1014.73 1475.7 L1014.73 1471.19 L1029.1 1449.29 Z" fill="#000000" fill-rule="evenodd" fill-opacity="1" /><path clip-path="url(#clip410)" d="M 0 0 M1054.98 1452.37 Q1051.37 1452.37 1049.54 1455.94 Q1047.73 1459.48 1047.73 1466.61 Q1047.73 1473.71 1049.54 1477.28 Q1051.37 1480.82 1054.98 1480.82 Q1058.61 1480.82 1060.42 1477.28 Q1062.25 1473.71 1062.25 1466.61 Q1062.25 1459.48 1060.42 1455.94 Q1058.61 1452.37 1054.98 1452.37 M1054.98 1448.67 Q1060.79 1448.67 1063.85 1453.27 Q1066.92 1457.86 1066.92 1466.61 Q1066.92 1475.33 1063.85 1479.94 Q1060.79 1484.52 1054.98 1484.52 Q1049.17 1484.52 1046.09 1479.94 Q1043.04 1475.33 1043.04 1466.61 Q1043.04 1457.86 1046.09 1453.27 Q1049.17 1448.67 1054.98 1448.67 Z" fill="#000000" fill-rule="evenodd" fill-opacity="1" /><path clip-path="url(#clip410)" d="M 0 0 M1465.03 1464.71 Q1461.89 1464.71 1460.03 1466.86 Q1458.2 1469.01 1458.2 1472.76 Q1458.2 1476.49 1460.03 1478.67 Q1461.89 1480.82 1465.03 1480.82 Q1468.18 1480.82 1470.01 1478.67 Q1471.86 1476.49 1471.86 1472.76 Q1471.86 1469.01 1470.01 1466.86 Q1468.18 1464.71 1465.03 1464.71 M1474.32 1450.06 L1474.32 1454.31 Q1472.56 1453.48 1470.75 1453.04 Q1468.97 1452.6 1467.21 1452.6 Q1462.58 1452.6 1460.13 1455.73 Q1457.7 1458.85 1457.35 1465.17 Q1458.71 1463.16 1460.77 1462.09 Q1462.83 1461 1465.31 1461 Q1470.52 1461 1473.53 1464.18 Q1476.56 1467.32 1476.56 1472.76 Q1476.56 1478.09 1473.41 1481.31 Q1470.27 1484.52 1465.03 1484.52 Q1459.04 1484.52 1455.87 1479.94 Q1452.7 1475.33 1452.7 1466.61 Q1452.7 1458.41 1456.58 1453.55 Q1460.47 1448.67 1467.02 1448.67 Q1468.78 1448.67 1470.57 1449.01 Q1472.37 1449.36 1474.32 1450.06 Z" fill="#000000" fill-rule="evenodd" fill-opacity="1" /><path clip-path="url(#clip410)" d="M 0 0 M1491.63 1452.37 Q1488.02 1452.37 1486.19 1455.94 Q1484.39 1459.48 1484.39 1466.61 Q1484.39 1473.71 1486.19 1477.28 Q1488.02 1480.82 1491.63 1480.82 Q1495.26 1480.82 1497.07 1477.28 Q1498.9 1473.71 1498.9 1466.61 Q1498.9 1459.48 1497.07 1455.94 Q1495.26 1452.37 1491.63 1452.37 M1491.63 1448.67 Q1497.44 1448.67 1500.5 1453.27 Q1503.58 1457.86 1503.58 1466.61 Q1503.58 1475.33 1500.5 1479.94 Q1497.44 1484.52 1491.63 1484.52 Q1485.82 1484.52 1482.74 1479.94 Q1479.69 1475.33 1479.69 1466.61 Q1479.69 1457.86 1482.74 1453.27 Q1485.82 1448.67 1491.63 1448.67 Z" fill="#000000" fill-rule="evenodd" fill-opacity="1" /><path clip-path="url(#clip410)" d="M 0 0 M1901.94 1467.44 Q1898.61 1467.44 1896.68 1469.22 Q1894.79 1471 1894.79 1474.13 Q1894.79 1477.25 1896.68 1479.04 Q1898.61 1480.82 1901.94 1480.82 Q1905.27 1480.82 1907.19 1479.04 Q1909.11 1477.23 1909.11 1474.13 Q1909.11 1471 1907.19 1469.22 Q1905.3 1467.44 1901.94 1467.44 M1897.26 1465.45 Q1894.25 1464.71 1892.56 1462.65 Q1890.9 1460.59 1890.9 1457.63 Q1890.9 1453.48 1893.84 1451.07 Q1896.8 1448.67 1901.94 1448.67 Q1907.1 1448.67 1910.04 1451.07 Q1912.98 1453.48 1912.98 1457.63 Q1912.98 1460.59 1911.29 1462.65 Q1909.62 1464.71 1906.64 1465.45 Q1910.02 1466.24 1911.89 1468.53 Q1913.79 1470.82 1913.79 1474.13 Q1913.79 1479.15 1910.71 1481.84 Q1907.66 1484.52 1901.94 1484.52 Q1896.22 1484.52 1893.14 1481.84 Q1890.09 1479.15 1890.09 1474.13 Q1890.09 1470.82 1891.99 1468.53 Q1893.88 1466.24 1897.26 1465.45 M1895.55 1458.06 Q1895.55 1460.75 1897.22 1462.25 Q1898.91 1463.76 1901.94 1463.76 Q1904.95 1463.76 1906.64 1462.25 Q1908.35 1460.75 1908.35 1458.06 Q1908.35 1455.38 1906.64 1453.88 Q1904.95 1452.37 1901.94 1452.37 Q1898.91 1452.37 1897.22 1453.88 Q1895.55 1455.38 1895.55 1458.06 Z" fill="#000000" fill-rule="evenodd" fill-opacity="1" /><path clip-path="url(#clip410)" d="M 0 0 M1928.86 1452.37 Q1925.25 1452.37 1923.42 1455.94 Q1921.61 1459.48 1921.61 1466.61 Q1921.61 1473.71 1923.42 1477.28 Q1925.25 1480.82 1928.86 1480.82 Q1932.49 1480.82 1934.3 1477.28 Q1936.13 1473.71 1936.13 1466.61 Q1936.13 1459.48 1934.3 1455.94 Q1932.49 1452.37 1928.86 1452.37 M1928.86 1448.67 Q1934.67 1448.67 1937.73 1453.27 Q1940.8 1457.86 1940.8 1466.61 Q1940.8 1475.33 1937.73 1479.94 Q1934.67 1484.52 1928.86 1484.52 Q1923.05 1484.52 1919.97 1479.94 Q1916.92 1475.33 1916.92 1466.61 Q1916.92 1457.86 1919.97 1453.27 Q1923.05 1448.67 1928.86 1448.67 Z" fill="#000000" fill-rule="evenodd" fill-opacity="1" /><path clip-path="url(#clip410)" d="M 0 0 M2316.12 1479.92 L2323.76 1479.92 L2323.76 1453.55 L2315.45 1455.22 L2315.45 1450.96 L2323.72 1449.29 L2328.39 1449.29 L2328.39 1479.92 L2336.03 1479.92 L2336.03 1483.85 L2316.12 1483.85 L2316.12 1479.92 Z" fill="#000000" fill-rule="evenodd" fill-opacity="1" /><path clip-path="url(#clip410)" d="M 0 0 M2351.1 1452.37 Q2347.49 1452.37 2345.66 1455.94 Q2343.86 1459.48 2343.86 1466.61 Q2343.86 1473.71 2345.66 1477.28 Q2347.49 1480.82 2351.1 1480.82 Q2354.74 1480.82 2356.54 1477.28 Q2358.37 1473.71 2358.37 1466.61 Q2358.37 1459.48 2356.54 1455.94 Q2354.74 1452.37 2351.1 1452.37 M2351.1 1448.67 Q2356.91 1448.67 2359.97 1453.27 Q2363.05 1457.86 2363.05 1466.61 Q2363.05 1475.33 2359.97 1479.94 Q2356.91 1484.52 2351.1 1484.52 Q2345.29 1484.52 2342.21 1479.94 Q2339.16 1475.33 2339.16 1466.61 Q2339.16 1457.86 2342.21 1453.27 Q2345.29 1448.67 2351.1 1448.67 Z" fill="#000000" fill-rule="evenodd" fill-opacity="1" /><path clip-path="url(#clip410)" d="M 0 0 M2378.11 1452.37 Q2374.5 1452.37 2372.67 1455.94 Q2370.87 1459.48 2370.87 1466.61 Q2370.87 1473.71 2372.67 1477.28 Q2374.5 1480.82 2378.11 1480.82 Q2381.75 1480.82 2383.55 1477.28 Q2385.38 1473.71 2385.38 1466.61 Q2385.38 1459.48 2383.55 1455.94 Q2381.75 1452.37 2378.11 1452.37 M2378.11 1448.67 Q2383.92 1448.67 2386.98 1453.27 Q2390.06 1457.86 2390.06 1466.61 Q2390.06 1475.33 2386.98 1479.94 Q2383.92 1484.52 2378.11 1484.52 Q2372.3 1484.52 2369.23 1479.94 Q2366.17 1475.33 2366.17 1466.61 Q2366.17 1457.86 2369.23 1453.27 Q2372.3 1448.67 2378.11 1448.67 Z" fill="#000000" fill-rule="evenodd" fill-opacity="1" /><path clip-path="url(#clip410)" d="M 0 0 M1258.54 1522.27 L1258.54 1532.4 L1270.6 1532.4 L1270.6 1536.95 L1258.54 1536.95 L1258.54 1556.3 Q1258.54 1560.66 1259.72 1561.9 Q1260.93 1563.14 1264.59 1563.14 L1270.6 1563.14 L1270.6 1568.04 L1264.59 1568.04 Q1257.81 1568.04 1255.23 1565.53 Q1252.65 1562.98 1252.65 1556.3 L1252.65 1536.95 L1248.36 1536.95 L1248.36 1532.4 L1252.65 1532.4 L1252.65 1522.27 L1258.54 1522.27 Z" fill="#000000" fill-rule="evenodd" fill-opacity="1" /><polyline clip-path="url(#clip412)" style="stroke:#000000; stroke-width:2; stroke-opacity:0.1; fill:none" points="
  166.205,1386.63 2352.76,1386.63 
  "/>
<polyline clip-path="url(#clip412)" style="stroke:#000000; stroke-width:2; stroke-opacity:0.1; fill:none" points="
  166.205,1147.44 2352.76,1147.44 
  "/>
<polyline clip-path="url(#clip412)" style="stroke:#000000; stroke-width:2; stroke-opacity:0.1; fill:none" points="
  166.205,908.253 2352.76,908.253 
  "/>
<polyline clip-path="url(#clip412)" style="stroke:#000000; stroke-width:2; stroke-opacity:0.1; fill:none" points="
  166.205,669.065 2352.76,669.065 
  "/>
<polyline clip-path="url(#clip412)" style="stroke:#000000; stroke-width:2; stroke-opacity:0.1; fill:none" points="
  166.205,429.876 2352.76,429.876 
  "/>
<polyline clip-path="url(#clip412)" style="stroke:#000000; stroke-width:2; stroke-opacity:0.1; fill:none" points="
  166.205,190.688 2352.76,190.688 
  "/>
<polyline clip-path="url(#clip410)" style="stroke:#000000; stroke-width:4; stroke-opacity:1; fill:none" points="
  166.205,1423.18 166.205,47.2441 
  "/>
<polyline clip-path="url(#clip410)" style="stroke:#000000; stroke-width:4; stroke-opacity:1; fill:none" points="
  166.205,1386.63 192.443,1386.63 
  "/>
<polyline clip-path="url(#clip410)" style="stroke:#000000; stroke-width:4; stroke-opacity:1; fill:none" points="
  166.205,1147.44 192.443,1147.44 
  "/>
<polyline clip-path="url(#clip410)" style="stroke:#000000; stroke-width:4; stroke-opacity:1; fill:none" points="
  166.205,908.253 192.443,908.253 
  "/>
<polyline clip-path="url(#clip410)" style="stroke:#000000; stroke-width:4; stroke-opacity:1; fill:none" points="
  166.205,669.065 192.443,669.065 
  "/>
<polyline clip-path="url(#clip410)" style="stroke:#000000; stroke-width:4; stroke-opacity:1; fill:none" points="
  166.205,429.876 192.443,429.876 
  "/>
<polyline clip-path="url(#clip410)" style="stroke:#000000; stroke-width:4; stroke-opacity:1; fill:none" points="
  166.205,190.688 192.443,190.688 
  "/>
<path clip-path="url(#clip410)" d="M 0 0 M118.26 1372.43 Q114.649 1372.43 112.82 1375.99 Q111.015 1379.54 111.015 1386.66 Q111.015 1393.77 112.82 1397.34 Q114.649 1400.88 118.26 1400.88 Q121.895 1400.88 123.7 1397.34 Q125.529 1393.77 125.529 1386.66 Q125.529 1379.54 123.7 1375.99 Q121.895 1372.43 118.26 1372.43 M118.26 1368.73 Q124.07 1368.73 127.126 1373.33 Q130.205 1377.91 130.205 1386.66 Q130.205 1395.39 127.126 1400 Q124.07 1404.58 118.26 1404.58 Q112.45 1404.58 109.371 1400 Q106.316 1395.39 106.316 1386.66 Q106.316 1377.91 109.371 1373.33 Q112.45 1368.73 118.26 1368.73 Z" fill="#000000" fill-rule="evenodd" fill-opacity="1" /><path clip-path="url(#clip410)" d="M 0 0 M56.2699 1160.79 L63.9087 1160.79 L63.9087 1134.42 L55.5986 1136.09 L55.5986 1131.83 L63.8624 1130.16 L68.5383 1130.16 L68.5383 1160.79 L76.1772 1160.79 L76.1772 1164.72 L56.2699 1164.72 L56.2699 1160.79 Z" fill="#000000" fill-rule="evenodd" fill-opacity="1" /><path clip-path="url(#clip410)" d="M 0 0 M91.2465 1133.24 Q87.6354 1133.24 85.8068 1136.81 Q84.0012 1140.35 84.0012 1147.48 Q84.0012 1154.58 85.8068 1158.15 Q87.6354 1161.69 91.2465 1161.69 Q94.8808 1161.69 96.6863 1158.15 Q98.515 1154.58 98.515 1147.48 Q98.515 1140.35 96.6863 1136.81 Q94.8808 1133.24 91.2465 1133.24 M91.2465 1129.54 Q97.0567 1129.54 100.112 1134.14 Q103.191 1138.73 103.191 1147.48 Q103.191 1156.2 100.112 1160.81 Q97.0567 1165.39 91.2465 1165.39 Q85.4364 1165.39 82.3577 1160.81 Q79.3022 1156.2 79.3022 1147.48 Q79.3022 1138.73 82.3577 1134.14 Q85.4364 1129.54 91.2465 1129.54 Z" fill="#000000" fill-rule="evenodd" fill-opacity="1" /><path clip-path="url(#clip410)" d="M 0 0 M118.26 1133.24 Q114.649 1133.24 112.82 1136.81 Q111.015 1140.35 111.015 1147.48 Q111.015 1154.58 112.82 1158.15 Q114.649 1161.69 118.26 1161.69 Q121.895 1161.69 123.7 1158.15 Q125.529 1154.58 125.529 1147.48 Q125.529 1140.35 123.7 1136.81 Q121.895 1133.24 118.26 1133.24 M118.26 1129.54 Q124.07 1129.54 127.126 1134.14 Q130.205 1138.73 130.205 1147.48 Q130.205 1156.2 127.126 1160.81 Q124.07 1165.39 118.26 1165.39 Q112.45 1165.39 109.371 1160.81 Q106.316 1156.2 106.316 1147.48 Q106.316 1138.73 109.371 1134.14 Q112.45 1129.54 118.26 1129.54 Z" fill="#000000" fill-rule="evenodd" fill-opacity="1" /><path clip-path="url(#clip410)" d="M 0 0 M59.8578 921.598 L76.1772 921.598 L76.1772 925.533 L54.2328 925.533 L54.2328 921.598 Q56.8949 918.844 61.4782 914.214 Q66.0846 909.561 67.2652 908.219 Q69.5105 905.695 70.3902 903.959 Q71.2929 902.2 71.2929 900.51 Q71.2929 897.756 69.3485 896.02 Q67.4272 894.283 64.3254 894.283 Q62.1263 894.283 59.6726 895.047 Q57.2421 895.811 54.4643 897.362 L54.4643 892.64 Q57.2884 891.506 59.7421 890.927 Q62.1958 890.348 64.2328 890.348 Q69.6031 890.348 72.7976 893.033 Q75.992 895.719 75.992 900.209 Q75.992 902.339 75.1818 904.26 Q74.3948 906.158 72.2883 908.751 Q71.7096 909.422 68.6078 912.64 Q65.5059 915.834 59.8578 921.598 Z" fill="#000000" fill-rule="evenodd" fill-opacity="1" /><path clip-path="url(#clip410)" d="M 0 0 M91.2465 894.052 Q87.6354 894.052 85.8068 897.617 Q84.0012 901.158 84.0012 908.288 Q84.0012 915.394 85.8068 918.959 Q87.6354 922.501 91.2465 922.501 Q94.8808 922.501 96.6863 918.959 Q98.515 915.394 98.515 908.288 Q98.515 901.158 96.6863 897.617 Q94.8808 894.052 91.2465 894.052 M91.2465 890.348 Q97.0567 890.348 100.112 894.955 Q103.191 899.538 103.191 908.288 Q103.191 917.015 100.112 921.621 Q97.0567 926.205 91.2465 926.205 Q85.4364 926.205 82.3577 921.621 Q79.3022 917.015 79.3022 908.288 Q79.3022 899.538 82.3577 894.955 Q85.4364 890.348 91.2465 890.348 Z" fill="#000000" fill-rule="evenodd" fill-opacity="1" /><path clip-path="url(#clip410)" d="M 0 0 M118.26 894.052 Q114.649 894.052 112.82 897.617 Q111.015 901.158 111.015 908.288 Q111.015 915.394 112.82 918.959 Q114.649 922.501 118.26 922.501 Q121.895 922.501 123.7 918.959 Q125.529 915.394 125.529 908.288 Q125.529 901.158 123.7 897.617 Q121.895 894.052 118.26 894.052 M118.26 890.348 Q124.07 890.348 127.126 894.955 Q130.205 899.538 130.205 908.288 Q130.205 917.015 127.126 921.621 Q124.07 926.205 118.26 926.205 Q112.45 926.205 109.371 921.621 Q106.316 917.015 106.316 908.288 Q106.316 899.538 109.371 894.955 Q112.45 890.348 118.26 890.348 Z" fill="#000000" fill-rule="evenodd" fill-opacity="1" /><path clip-path="url(#clip410)" d="M 0 0 M69.0476 667.711 Q72.404 668.428 74.279 670.697 Q76.1772 672.965 76.1772 676.299 Q76.1772 681.414 72.6587 684.215 Q69.1402 687.016 62.6587 687.016 Q60.4828 687.016 58.168 686.576 Q55.8764 686.16 53.4227 685.303 L53.4227 680.789 Q55.3671 681.924 57.6819 682.502 Q59.9967 683.081 62.5198 683.081 Q66.918 683.081 69.2096 681.345 Q71.5244 679.609 71.5244 676.299 Q71.5244 673.243 69.3717 671.53 Q67.242 669.794 63.4226 669.794 L59.3949 669.794 L59.3949 665.951 L63.6078 665.951 Q67.0569 665.951 68.8855 664.586 Q70.7142 663.197 70.7142 660.604 Q70.7142 657.942 68.8161 656.53 Q66.9411 655.095 63.4226 655.095 Q61.5013 655.095 59.3023 655.512 Q57.1032 655.928 54.4643 656.808 L54.4643 652.641 Q57.1264 651.901 59.4412 651.53 Q61.7791 651.16 63.8393 651.16 Q69.1633 651.16 72.2652 653.59 Q75.367 655.998 75.367 660.118 Q75.367 662.989 73.7235 664.979 Q72.08 666.947 69.0476 667.711 Z" fill="#000000" fill-rule="evenodd" fill-opacity="1" /><path clip-path="url(#clip410)" d="M 0 0 M91.2465 654.864 Q87.6354 654.864 85.8068 658.428 Q84.0012 661.97 84.0012 669.1 Q84.0012 676.206 85.8068 679.771 Q87.6354 683.312 91.2465 683.312 Q94.8808 683.312 96.6863 679.771 Q98.515 676.206 98.515 669.1 Q98.515 661.97 96.6863 658.428 Q94.8808 654.864 91.2465 654.864 M91.2465 651.16 Q97.0567 651.16 100.112 655.766 Q103.191 660.35 103.191 669.1 Q103.191 677.826 100.112 682.433 Q97.0567 687.016 91.2465 687.016 Q85.4364 687.016 82.3577 682.433 Q79.3022 677.826 79.3022 669.1 Q79.3022 660.35 82.3577 655.766 Q85.4364 651.16 91.2465 651.16 Z" fill="#000000" fill-rule="evenodd" fill-opacity="1" /><path clip-path="url(#clip410)" d="M 0 0 M118.26 654.864 Q114.649 654.864 112.82 658.428 Q111.015 661.97 111.015 669.1 Q111.015 676.206 112.82 679.771 Q114.649 683.312 118.26 683.312 Q121.895 683.312 123.7 679.771 Q125.529 676.206 125.529 669.1 Q125.529 661.97 123.7 658.428 Q121.895 654.864 118.26 654.864 M118.26 651.16 Q124.07 651.16 127.126 655.766 Q130.205 660.35 130.205 669.1 Q130.205 677.826 127.126 682.433 Q124.07 687.016 118.26 687.016 Q112.45 687.016 109.371 682.433 Q106.316 677.826 106.316 669.1 Q106.316 660.35 109.371 655.766 Q112.45 651.16 118.26 651.16 Z" fill="#000000" fill-rule="evenodd" fill-opacity="1" /><path clip-path="url(#clip410)" d="M 0 0 M66.5939 416.67 L54.7884 435.119 L66.5939 435.119 L66.5939 416.67 M65.367 412.596 L71.2466 412.596 L71.2466 435.119 L76.1772 435.119 L76.1772 439.008 L71.2466 439.008 L71.2466 447.156 L66.5939 447.156 L66.5939 439.008 L50.9921 439.008 L50.9921 434.494 L65.367 412.596 Z" fill="#000000" fill-rule="evenodd" fill-opacity="1" /><path clip-path="url(#clip410)" d="M 0 0 M91.2465 415.675 Q87.6354 415.675 85.8068 419.24 Q84.0012 422.782 84.0012 429.911 Q84.0012 437.018 85.8068 440.582 Q87.6354 444.124 91.2465 444.124 Q94.8808 444.124 96.6863 440.582 Q98.515 437.018 98.515 429.911 Q98.515 422.782 96.6863 419.24 Q94.8808 415.675 91.2465 415.675 M91.2465 411.971 Q97.0567 411.971 100.112 416.578 Q103.191 421.161 103.191 429.911 Q103.191 438.638 100.112 443.244 Q97.0567 447.828 91.2465 447.828 Q85.4364 447.828 82.3577 443.244 Q79.3022 438.638 79.3022 429.911 Q79.3022 421.161 82.3577 416.578 Q85.4364 411.971 91.2465 411.971 Z" fill="#000000" fill-rule="evenodd" fill-opacity="1" /><path clip-path="url(#clip410)" d="M 0 0 M118.26 415.675 Q114.649 415.675 112.82 419.24 Q111.015 422.782 111.015 429.911 Q111.015 437.018 112.82 440.582 Q114.649 444.124 118.26 444.124 Q121.895 444.124 123.7 440.582 Q125.529 437.018 125.529 429.911 Q125.529 422.782 123.7 419.24 Q121.895 415.675 118.26 415.675 M118.26 411.971 Q124.07 411.971 127.126 416.578 Q130.205 421.161 130.205 429.911 Q130.205 438.638 127.126 443.244 Q124.07 447.828 118.26 447.828 Q112.45 447.828 109.371 443.244 Q106.316 438.638 106.316 429.911 Q106.316 421.161 109.371 416.578 Q112.45 411.971 118.26 411.971 Z" fill="#000000" fill-rule="evenodd" fill-opacity="1" /><path clip-path="url(#clip410)" d="M 0 0 M55.2745 173.408 L73.6309 173.408 L73.6309 177.343 L59.5569 177.343 L59.5569 185.815 Q60.5754 185.468 61.5939 185.306 Q62.6124 185.121 63.6309 185.121 Q69.418 185.121 72.7976 188.292 Q76.1772 191.463 76.1772 196.88 Q76.1772 202.459 72.705 205.561 Q69.2328 208.639 62.9134 208.639 Q60.7374 208.639 58.4689 208.269 Q56.2236 207.899 53.8162 207.158 L53.8162 202.459 Q55.8995 203.593 58.1217 204.149 Q60.3439 204.704 62.8208 204.704 Q66.8254 204.704 69.1633 202.598 Q71.5013 200.491 71.5013 196.88 Q71.5013 193.269 69.1633 191.163 Q66.8254 189.056 62.8208 189.056 Q60.9458 189.056 59.0708 189.473 Q57.2189 189.889 55.2745 190.769 L55.2745 173.408 Z" fill="#000000" fill-rule="evenodd" fill-opacity="1" /><path clip-path="url(#clip410)" d="M 0 0 M91.2465 176.487 Q87.6354 176.487 85.8068 180.052 Q84.0012 183.593 84.0012 190.723 Q84.0012 197.829 85.8068 201.394 Q87.6354 204.936 91.2465 204.936 Q94.8808 204.936 96.6863 201.394 Q98.515 197.829 98.515 190.723 Q98.515 183.593 96.6863 180.052 Q94.8808 176.487 91.2465 176.487 M91.2465 172.783 Q97.0567 172.783 100.112 177.389 Q103.191 181.973 103.191 190.723 Q103.191 199.45 100.112 204.056 Q97.0567 208.639 91.2465 208.639 Q85.4364 208.639 82.3577 204.056 Q79.3022 199.45 79.3022 190.723 Q79.3022 181.973 82.3577 177.389 Q85.4364 172.783 91.2465 172.783 Z" fill="#000000" fill-rule="evenodd" fill-opacity="1" /><path clip-path="url(#clip410)" d="M 0 0 M118.26 176.487 Q114.649 176.487 112.82 180.052 Q111.015 183.593 111.015 190.723 Q111.015 197.829 112.82 201.394 Q114.649 204.936 118.26 204.936 Q121.895 204.936 123.7 201.394 Q125.529 197.829 125.529 190.723 Q125.529 183.593 123.7 180.052 Q121.895 176.487 118.26 176.487 M118.26 172.783 Q124.07 172.783 127.126 177.389 Q130.205 181.973 130.205 190.723 Q130.205 199.45 127.126 204.056 Q124.07 208.639 118.26 208.639 Q112.45 208.639 109.371 204.056 Q106.316 199.45 106.316 190.723 Q106.316 181.973 109.371 177.389 Q112.45 172.783 118.26 172.783 Z" fill="#000000" fill-rule="evenodd" fill-opacity="1" /><polyline clip-path="url(#clip412)" style="stroke:#009af9; stroke-width:8; stroke-opacity:1; fill:none" points="
  166.205,1384.24 168.391,1364.19 170.578,1349.34 172.764,1338.32 174.951,1330.13 177.137,1324.02 179.324,1319.44 181.511,1315.99 183.697,1313.37 185.884,1311.35 
  188.07,1309.79 190.257,1308.55 192.443,1307.56 194.63,1306.74 196.816,1306.06 199.003,1305.48 201.189,1304.97 203.376,1304.51 205.563,1304.08 207.749,1303.69 
  209.936,1303.32 212.122,1302.96 214.309,1302.6 216.495,1302.26 218.682,1301.92 220.868,1301.58 223.055,1301.24 225.242,1300.9 227.428,1300.55 229.615,1300.21 
  231.801,1299.86 233.988,1299.5 236.174,1299.15 238.361,1298.78 240.547,1298.42 242.734,1298.05 244.921,1297.67 247.107,1297.29 249.294,1296.9 251.48,1296.5 
  253.667,1296.1 255.853,1295.7 258.04,1295.28 260.226,1294.86 262.413,1294.43 264.599,1294 266.786,1293.56 268.973,1293.11 271.159,1292.66 273.346,1292.19 
  275.532,1291.71 277.719,1291.21 279.905,1290.71 282.092,1290.22 284.278,1289.72 286.465,1289.22 288.652,1288.69 290.838,1288.13 293.025,1287.56 295.211,1286.99 
  297.398,1286.42 299.584,1285.85 301.771,1285.26 303.957,1284.63 306.144,1283.98 308.33,1283.33 310.517,1282.67 312.704,1282 314.89,1281.31 317.077,1280.59 
  319.263,1279.85 321.45,1279.1 323.636,1278.32 325.823,1277.53 328.009,1276.71 330.196,1275.87 332.383,1275 334.569,1274.1 336.756,1273.17 338.942,1272.22 
  341.129,1271.23 343.315,1270.21 345.502,1269.14 347.688,1268.04 349.875,1266.9 352.062,1265.72 354.248,1264.48 356.435,1263.18 358.621,1261.82 360.808,1260.4 
  362.994,1258.91 365.181,1257.34 367.367,1255.7 369.554,1253.97 371.74,1252.15 373.927,1250.21 376.114,1248.13 378.3,1245.89 380.487,1243.48 382.673,1240.88 
  384.86,1238.06 387.046,1235.02 389.233,1231.78 391.419,1228.23 393.606,1224.24 395.793,1219.68 397.979,1214.45 400.166,1208.44 402.352,1201.58 404.539,1193.82 
  406.725,1184.99 408.912,1174.63 411.098,1162.4 413.285,1148.19 415.472,1132.08 417.658,1113.83 419.845,1093.28 422.031,1070.69 424.218,1046.64 426.404,1020.82 
  428.591,993.256 430.777,964.921 432.964,936.377 435.15,908.574 437.337,883.086 439.524,860.887 441.71,842.398 443.897,826.062 446.083,812.661 448.27,802.74 
  450.456,797.462 452.643,800.588 454.829,812.82 457.016,832.841 459.203,858.018 461.389,886.168 463.576,915.639 465.762,945.331 467.949,974.484 470.135,1002.65 
  472.322,1029.53 474.508,1054.84 476.695,1078.58 478.881,1100.59 481.068,1120.88 483.255,1139.46 485.441,1156.32 487.628,1171.58 489.814,1185.27 492.001,1197.47 
  494.187,1208.32 496.374,1217.87 498.56,1226.25 500.747,1233.56 502.934,1239.9 505.12,1245.36 507.307,1250.05 509.493,1254.03 511.68,1257.4 513.866,1260.23 
  516.053,1262.57 518.239,1264.5 520.426,1266.05 522.613,1267.28 524.799,1268.23 526.986,1268.93 529.172,1269.41 531.359,1269.7 533.545,1269.82 535.732,1269.79 
  537.918,1269.62 540.105,1269.32 542.291,1268.92 544.478,1268.41 546.665,1267.81 548.851,1267.11 551.038,1266.32 553.224,1265.46 555.411,1264.5 557.597,1263.46 
  559.784,1262.34 561.97,1261.12 564.157,1259.81 566.344,1258.4 568.53,1256.9 570.717,1255.29 572.903,1253.54 575.09,1251.63 577.276,1249.53 579.463,1247.25 
  581.649,1244.75 583.836,1242.02 586.023,1239.06 588.209,1235.77 590.396,1232.05 592.582,1227.77 594.769,1222.85 596.955,1217.21 599.142,1210.79 601.328,1203.33 
  603.515,1194.42 605.701,1183.88 607.888,1171.73 610.075,1157.88 612.261,1142.08 614.448,1124.63 616.634,1106.35 618.821,1087.44 621.007,1067.91 623.194,1048.49 
  625.38,1029.51 627.567,1010.5 629.754,991.855 631.94,974.107 634.127,957.402 636.313,942.268 638.5,929.246 640.686,918.334 642.873,909.448 645.059,902.498 
  647.246,897.454 649.432,894.529 651.619,894.11 653.806,897.198 655.992,904.352 658.179,915.02 660.365,929.203 662.552,945.917 664.738,964.491 666.925,984.213 
  669.111,1004.45 671.298,1024.77 673.485,1044.87 675.671,1064.45 677.858,1083.06 680.044,1100.8 682.231,1117.67 684.417,1133.41 686.604,1148.03 688.79,1161.51 
  690.977,1173.82 693.164,1185.06 695.35,1195.27 697.537,1204.45 699.723,1212.7 701.91,1220.07 704.096,1226.6 706.283,1232.39 708.469,1237.49 710.656,1241.94 
  712.842,1245.81 715.029,1249.18 717.216,1252.06 719.402,1254.51 721.589,1256.58 723.775,1258.31 725.962,1259.73 728.148,1260.86 730.335,1261.75 732.521,1262.4 
  734.708,1262.85 736.895,1263.11 739.081,1263.2 741.268,1263.14 743.454,1262.93 745.641,1262.58 747.827,1262.1 750.014,1261.5 752.2,1260.77 754.387,1259.93 
  756.573,1258.97 758.76,1257.89 760.947,1256.69 763.133,1255.36 765.32,1253.89 767.506,1252.27 769.693,1250.53 771.879,1248.6 774.066,1246.45 776.252,1244.03 
  778.439,1241.31 780.626,1238.27 782.812,1234.88 784.999,1231.13 787.185,1226.97 789.372,1222.1 791.558,1216.34 793.745,1209.55 795.931,1201.73 798.118,1192.88 
  800.305,1182.57 802.491,1170.56 804.678,1157.03 806.864,1142.48 809.051,1126.81 811.237,1110.2 813.424,1093.64 815.61,1077.69 817.797,1061.76 819.983,1046.14 
  822.17,1031.3 824.357,1016.84 826.543,1002.91 828.73,989.889 830.916,977.899 833.103,967.12 835.289,957.855 837.476,950.146 839.662,943.646 841.849,938.477 
  844.036,934.852 846.222,932.775 848.409,932.645 850.595,934.917 852.782,939.932 854.968,947.828 857.155,958.448 859.341,971.245 861.528,985.756 863.715,1001.54 
  865.901,1018.11 868.088,1035.08 870.274,1052.17 872.461,1068.98 874.647,1085.35 876.834,1101.21 879.02,1116.31 881.207,1130.55 883.393,1143.99 885.58,1156.5 
  887.767,1168.04 889.953,1178.72 892.14,1188.48 894.326,1197.34 896.513,1205.41 898.699,1212.69 900.886,1219.2 903.072,1225.04 905.259,1230.24 907.446,1234.84 
  909.632,1238.89 911.819,1242.45 914.005,1245.55 916.192,1248.23 918.378,1250.53 920.565,1252.49 922.751,1254.13 924.938,1255.48 927.124,1256.56 929.311,1257.42 
  931.498,1258.05 933.684,1258.47 935.871,1258.71 938.057,1258.78 940.244,1258.68 942.43,1258.43 944.617,1258.03 946.803,1257.49 948.99,1256.81 951.177,1255.99 
  953.363,1255.04 955.55,1253.94 957.736,1252.69 959.923,1251.28 962.109,1249.7 964.296,1247.94 966.482,1246.01 968.669,1243.87 970.856,1241.43 973.042,1238.67 
  975.229,1235.52 977.415,1231.97 979.602,1227.99 981.788,1223.6 983.975,1218.56 986.161,1212.55 988.348,1205.39 990.534,1197.13 992.721,1187.94 994.908,1177.57 
  997.094,1165.71 999.281,1152.54 1001.47,1138.69 1003.65,1124.33 1005.84,1109.4 1008.03,1094.5 1010.21,1080.43 1012.4,1066.65 1014.59,1053.09 1016.77,1040.2 
  1018.96,1027.79 1021.15,1015.81 1023.33,1004.53 1025.52,994.147 1027.71,984.676 1029.89,976.274 1032.08,969.19 1034.27,963.189 1036.45,958.107 1038.64,954.362 
  1040.83,952.048 1043.01,951.261 1045.2,952.509 1047.38,956.091 1049.57,962.001 1051.76,970.282 1053.94,980.823 1056.13,993.032 1058.32,1006.56 1060.5,1021.16 
  1062.69,1036.33 1064.88,1051.76 1067.06,1067.3 1069.25,1082.57 1071.44,1097.34 1073.62,1111.67 1075.81,1125.38 1078,1138.29 1080.18,1150.44 1082.37,1161.81 
  1084.56,1172.3 1086.74,1181.98 1088.93,1190.89 1091.12,1199 1093.3,1206.35 1095.49,1213.03 1097.68,1219.04 1099.86,1224.4 1102.05,1229.21 1104.24,1233.48 
  1106.42,1237.25 1108.61,1240.56 1110.79,1243.46 1112.98,1245.97 1115.17,1248.13 1117.35,1249.96 1119.54,1251.5 1121.73,1252.77 1123.91,1253.78 1126.1,1254.57 
  1128.29,1255.14 1130.47,1255.52 1132.66,1255.71 1134.85,1255.72 1137.03,1255.56 1139.22,1255.25 1141.41,1254.78 1143.59,1254.16 1145.78,1253.39 1147.97,1252.46 
  1150.15,1251.38 1152.34,1250.14 1154.53,1248.74 1156.71,1247.16 1158.9,1245.36 1161.09,1243.31 1163.27,1240.98 1165.46,1238.37 1167.65,1235.45 1169.83,1232.21 
  1172.02,1228.59 1174.2,1224.39 1176.39,1219.47 1178.58,1213.76 1180.76,1207.27 1182.95,1200 1185.14,1191.62 1187.32,1181.93 1189.51,1171.02 1191.7,1159.28 
  1193.88,1146.7 1196.07,1133.19 1198.26,1119.27 1200.44,1105.9 1202.63,1092.74 1204.82,1079.62 1207,1067.05 1209.19,1055.13 1211.38,1043.45 1213.56,1032.16 
  1215.75,1021.49 1217.94,1011.37 1220.12,1001.92 1222.31,993.41 1224.5,985.9 1226.68,979.219 1228.87,973.513 1231.06,969.039 1233.24,965.585 1235.43,963.323 
  1237.61,962.821 1239.8,964.131 1241.99,967.405 1244.17,973.029 1246.36,980.794 1248.55,990.382 1250.73,1001.66 1252.92,1014.28 1255.11,1027.8 1257.29,1041.95 
  1259.48,1056.48 1261.67,1071.01 1263.85,1085.34 1266.04,1099.46 1268.23,1113.07 1270.41,1126.03 1272.6,1138.4 1274.79,1150.08 1276.97,1160.95 1279.16,1171.08 
  1281.35,1180.48 1283.53,1189.09 1285.72,1196.96 1287.91,1204.18 1290.09,1210.7 1292.28,1216.58 1294.47,1221.89 1296.65,1226.65 1298.84,1230.87 1301.02,1234.62 
  1303.21,1237.94 1305.4,1240.84 1307.58,1243.37 1309.77,1245.55 1311.96,1247.42 1314.14,1248.99 1316.33,1250.29 1318.52,1251.33 1320.7,1252.16 1322.89,1252.76 
  1325.08,1253.16 1327.26,1253.37 1329.45,1253.4 1331.64,1253.26 1333.82,1252.95 1336.01,1252.48 1338.2,1251.84 1340.38,1251.05 1342.57,1250.09 1344.76,1248.98 
  1346.94,1247.68 1349.13,1246.19 1351.32,1244.48 1353.5,1242.54 1355.69,1240.35 1357.88,1237.89 1360.06,1235.16 1362.25,1232.09 1364.43,1228.54 1366.62,1224.43 
  1368.81,1219.71 1370.99,1214.36 1373.18,1208.37 1375.37,1201.49 1377.55,1193.48 1379.74,1184.35 1381.93,1174.3 1384.11,1163.46 1386.3,1151.55 1388.49,1138.76 
  1390.67,1125.89 1392.86,1113.42 1395.05,1100.81 1397.23,1088.23 1399.42,1076.46 1401.61,1065.13 1403.79,1053.96 1405.98,1043.22 1408.17,1033 1410.35,1023.17 
  1412.54,1013.87 1414.73,1005.4 1416.91,997.684 1419.1,990.696 1421.29,984.681 1423.47,979.74 1425.66,975.624 1427.84,972.594 1430.03,971.142 1432.22,971.173 
  1434.4,972.947 1436.59,976.922 1438.78,982.872 1440.96,990.66 1443.15,1000.3 1445.34,1011.39 1447.52,1023.57 1449.71,1036.62 1451.9,1050.21 1454.08,1064.01 
  1456.27,1077.85 1458.46,1091.61 1460.64,1104.96 1462.83,1117.79 1465.02,1130.18 1467.2,1141.94 1469.39,1152.96 1471.58,1163.32 1473.76,1172.98 1475.95,1181.87 
  1478.14,1190.05 1480.32,1197.59 1482.51,1204.45 1484.7,1210.65 1486.88,1216.3 1489.07,1221.37 1491.25,1225.91 1493.44,1229.96 1495.63,1233.57 1497.81,1236.75 
  1500,1239.53 1502.19,1241.97 1504.37,1244.07 1506.56,1245.86 1508.75,1247.36 1510.93,1248.61 1513.12,1249.61 1515.31,1250.39 1517.49,1250.94 1519.68,1251.3 
  1521.87,1251.47 1524.05,1251.45 1526.24,1251.26 1528.43,1250.9 1530.61,1250.37 1532.8,1249.67 1534.99,1248.81 1537.17,1247.77 1539.36,1246.55 1541.55,1245.12 
  1543.73,1243.49 1545.92,1241.63 1548.11,1239.53 1550.29,1237.2 1552.48,1234.55 1554.66,1231.5 1556.85,1227.98 1559.04,1223.95 1561.22,1219.4 1563.41,1214.33 
  1565.6,1208.55 1567.78,1201.82 1569.97,1194.06 1572.16,1185.39 1574.34,1176.01 1576.53,1165.64 1578.72,1154.15 1580.9,1141.98 1583.09,1130 1585.28,1118 
  1587.46,1105.87 1589.65,1094.1 1591.84,1082.85 1594.02,1071.84 1596.21,1061.14 1598.4,1050.9 1600.58,1040.98 1602.77,1031.41 1604.96,1022.39 1607.14,1014.01 
  1609.33,1006.22 1611.52,999.137 1613.7,993.049 1615.89,987.795 1618.07,983.281 1620.26,979.941 1622.45,977.944 1624.63,977.213 1626.82,978.189 1629.01,981.161 
  1631.19,985.919 1633.38,992.543 1635.57,1001.05 1637.75,1011 1639.94,1022.15 1642.13,1034.31 1644.31,1047.11 1646.5,1060.27 1648.69,1073.64 1650.87,1086.97 
  1653.06,1099.97 1655.25,1112.62 1657.43,1124.91 1659.62,1136.58 1661.81,1147.61 1663.99,1158.05 1666.18,1167.78 1668.37,1176.79 1670.55,1185.15 1672.74,1192.86 
  1674.93,1199.88 1677.11,1206.29 1679.3,1212.13 1681.48,1217.4 1683.67,1222.12 1685.86,1226.38 1688.04,1230.18 1690.23,1233.53 1692.42,1236.49 1694.6,1239.1 
  1696.79,1241.36 1698.98,1243.3 1701.16,1244.94 1703.35,1246.33 1705.54,1247.46 1707.72,1248.35 1709.91,1249.01 1712.1,1249.47 1714.28,1249.74 1716.47,1249.81 
  1718.66,1249.7 1720.84,1249.42 1723.03,1248.96 1725.22,1248.33 1727.4,1247.52 1729.59,1246.53 1731.78,1245.35 1733.96,1243.97 1736.15,1242.39 1738.34,1240.58 
  1740.52,1238.56 1742.71,1236.25 1744.89,1233.58 1747.08,1230.5 1749.27,1226.99 1751.45,1223.03 1753.64,1218.64 1755.83,1213.73 1758.01,1207.99 1760.2,1201.25 
  1762.39,1193.57 1764.57,1185.17 1766.76,1176.08 1768.95,1165.98 1771.13,1155 1773.32,1143.64 1775.51,1132.19 1777.69,1120.49 1779.88,1108.74 1782.07,1097.54 
  1784.25,1086.76 1786.44,1076.13 1788.63,1065.81 1790.81,1055.98 1793,1046.41 1795.19,1037.12 1797.37,1028.36 1799.56,1020.16 1801.74,1012.45 1803.93,1005.41 
  1806.12,999.309 1808.3,993.953 1810.49,989.295 1812.68,985.793 1814.86,983.549 1817.05,982.462 1819.24,982.992 1821.42,985.414 1823.61,989.507 1825.8,995.405 
  1827.98,1003.15 1830.17,1012.33 1832.36,1022.75 1834.54,1034.23 1836.73,1046.4 1838.92,1059.02 1841.1,1071.91 1843.29,1084.83 1845.48,1097.5 1847.66,1109.9 
  1849.85,1121.98 1852.04,1133.51 1854.22,1144.43 1856.41,1154.8 1858.6,1164.52 1860.78,1173.52 1862.97,1181.91 1865.15,1189.67 1867.34,1196.77 1869.53,1203.25 
  1871.71,1209.18 1873.9,1214.54 1876.09,1219.37 1878.27,1223.72 1880.46,1227.62 1882.65,1231.08 1884.83,1234.13 1887.02,1236.84 1889.21,1239.2 1891.39,1241.23 
  1893.58,1242.96 1895.77,1244.42 1897.95,1245.63 1900.14,1246.59 1902.33,1247.33 1904.51,1247.85 1906.7,1248.18 1908.89,1248.31 1911.07,1248.25 1913.26,1248 
  1915.45,1247.58 1917.63,1246.98 1919.82,1246.21 1922.01,1245.24 1924.19,1244.08 1926.38,1242.72 1928.56,1241.14 1930.75,1239.34 1932.94,1237.31 1935.12,1234.99 
  1937.31,1232.29 1939.5,1229.19 1941.68,1225.65 1943.87,1221.67 1946.06,1217.28 1948.24,1212.34 1950.43,1206.56 1952.62,1199.83 1954.8,1192.22 1956.99,1183.98 
  1959.18,1175.03 1961.36,1165.14 1963.55,1154.46 1965.74,1143.51 1967.92,1132.48 1970.11,1121.21 1972.3,1109.92 1974.48,1099.18 1976.67,1088.81 1978.86,1078.56 
  1981.04,1068.63 1983.23,1059.15 1985.42,1049.89 1987.6,1040.9 1989.79,1032.39 1991.97,1024.41 1994.16,1016.88 1996.35,1009.96 1998.53,1003.94 2000.72,998.634 
  2002.91,993.998 2005.09,990.489 2007.28,988.212 2009.47,987.039 2011.65,987.413 2013.84,989.615 2016.03,993.408 2018.21,998.926 2020.4,1006.24 2022.59,1014.95 
  2024.77,1024.88 2026.96,1035.87 2029.15,1047.57 2031.33,1059.74 2033.52,1072.21 2035.71,1084.76 2037.89,1097.11 2040.08,1109.2 2042.27,1121.02 2044.45,1132.34 
  2046.64,1143.07 2048.83,1153.29 2051.01,1162.89 2053.2,1171.81 2055.38,1180.11 2057.57,1187.83 2059.76,1194.89 2061.94,1201.35 2064.13,1207.28 2066.32,1212.65 
  2068.5,1217.49 2070.69,1221.86 2072.88,1225.79 2075.06,1229.29 2077.25,1232.37 2079.44,1235.11 2081.62,1237.51 2083.81,1239.58 2086,1241.34 2088.18,1242.84 
  2090.37,1244.09 2092.56,1245.09 2094.74,1245.85 2096.93,1246.4 2099.12,1246.75 2101.3,1246.9 2103.49,1246.86 2105.68,1246.64 2107.86,1246.22 2110.05,1245.63 
  2112.24,1244.85 2114.42,1243.88 2116.61,1242.71 2118.79,1241.33 2120.98,1239.72 2123.17,1237.88 2125.35,1235.82 2127.54,1233.45 2129.73,1230.71 2131.91,1227.55 
  2134.1,1223.93 2136.29,1219.85 2138.47,1215.33 2140.66,1210.31 2142.85,1204.47 2145.03,1197.67 2147.22,1190 2149.41,1181.72 2151.59,1172.85 2153.78,1163.13 
  2155.97,1152.68 2158.15,1142.01 2160.34,1131.34 2162.53,1120.5 2164.71,1109.65 2166.9,1099.32 2169.09,1089.34 2171.27,1079.49 2173.46,1069.9 2175.65,1060.75 
  2177.83,1051.81 2180.02,1043.11 2182.2,1034.88 2184.39,1027.16 2186.58,1019.87 2188.76,1013.13 2190.95,1007.28 2193.14,1002.15 2195.32,997.675 2197.51,994.28 
  2199.7,992.152 2201.88,991.119 2204.07,991.554 2206.26,993.799 2208.44,997.587 2210.63,1002.99 2212.82,1010.14 2215,1018.63 2217.19,1028.27 2219.38,1038.94 
  2221.56,1050.31 2223.75,1062.12 2225.94,1074.23 2228.12,1086.45 2230.31,1098.47 2232.5,1110.23 2234.68,1121.75 2236.87,1132.81 2239.06,1143.3 2241.24,1153.27 
  2243.43,1162.68 2245.61,1171.43 2247.8,1179.57 2249.99,1187.15 2252.17,1194.11 2254.36,1200.46 2256.55,1206.3 2258.73,1211.61 2260.92,1216.4 2263.11,1220.71 
  2265.29,1224.6 2267.48,1228.07 2269.67,1231.14 2271.85,1233.85 2274.04,1236.23 2276.23,1238.3 2278.41,1240.06 2280.6,1241.55 2282.79,1242.79 2284.97,1243.78 
  2287.16,1244.55 2289.35,1245.09 2291.53,1245.43 2293.72,1245.58 2295.91,1245.53 2298.09,1245.29 2300.28,1244.86 2302.47,1244.24 2304.65,1243.43 2306.84,1242.43 
  2309.02,1241.22 2311.21,1239.79 2313.4,1238.13 2315.58,1236.21 2317.77,1234.04 2319.96,1231.59 2322.14,1228.78 2324.33,1225.52 2326.52,1221.77 2328.7,1217.52 
  2330.89,1212.77 2333.08,1207.58 2335.26,1201.64 2337.45,1194.75 2339.64,1186.92 2341.82,1178.45 2344.01,1169.58 2346.2,1160.01 2348.38,1149.77 2350.57,1139.3 
  2352.76,1128.87 
  "/>
<polyline clip-path="url(#clip412)" style="stroke:#e26f46; stroke-width:8; stroke-opacity:1; fill:none" points="
  166.205,1384.24 168.391,1381.66 170.578,1375.62 172.764,1367.02 174.951,1356.56 177.137,1344.72 179.324,1331.88 181.511,1318.31 183.697,1304.21 185.884,1289.74 
  188.07,1275 190.257,1260.06 192.443,1245 194.63,1229.84 196.816,1214.63 199.003,1199.38 201.189,1184.11 203.376,1168.84 205.563,1153.58 207.749,1138.33 
  209.936,1123.1 212.122,1107.89 214.309,1092.71 216.495,1077.55 218.682,1062.43 220.868,1047.34 223.055,1032.28 225.242,1017.26 227.428,1002.28 229.615,987.331 
  231.801,972.422 233.988,957.551 236.174,942.72 238.361,927.929 240.547,913.18 242.734,898.473 244.921,883.809 247.107,869.188 249.294,854.611 251.48,840.079 
  253.667,825.593 255.853,811.154 258.04,796.765 260.226,782.424 262.413,768.13 264.599,753.886 266.786,739.691 268.973,725.548 271.159,711.458 273.346,697.427 
  275.532,683.459 277.719,669.55 279.905,655.693 282.092,641.884 284.278,628.127 286.465,614.43 288.652,600.809 290.838,587.271 293.025,573.799 295.211,560.384 
  297.398,547.025 299.584,533.731 301.771,520.519 303.957,507.397 306.144,494.352 308.33,481.38 310.517,468.483 312.704,455.668 314.89,442.942 317.077,430.31 
  319.263,417.769 321.45,405.32 323.636,392.966 325.823,380.711 328.009,368.56 330.196,356.52 332.383,344.592 334.569,332.779 336.756,321.085 338.942,309.516 
  341.129,298.076 343.315,286.771 345.502,275.609 347.688,264.594 349.875,253.732 352.062,243.033 354.248,232.507 356.435,222.164 358.621,212.015 360.808,202.07 
  362.994,192.34 365.181,182.837 367.367,173.573 369.554,164.56 371.74,155.824 373.927,147.393 376.114,139.3 378.3,131.577 380.487,124.26 382.673,117.386 
  384.86,110.995 387.046,105.125 389.233,99.7889 391.419,95.1071 393.606,91.2414 395.793,88.355 397.979,86.6137 400.166,86.1857 402.352,87.2414 404.539,89.9537 
  406.725,94.5844 408.912,101.703 411.098,111.804 413.285,125.195 415.472,142.031 417.658,162.722 419.845,187.649 422.031,216.743 424.218,249.662 426.404,286.858 
  428.591,328.431 430.777,373.597 432.964,421.832 435.15,472.133 437.337,522.812 439.524,572.594 441.71,620.673 443.897,668.329 446.083,714.555 448.27,758.506 
  450.456,798.566 452.643,830.365 454.829,852.284 457.016,864.78 459.203,869.836 461.389,869.236 463.576,864.425 465.762,856.428 467.949,846.022 470.135,833.731 
  472.322,819.979 474.508,805.178 476.695,789.503 478.881,773.26 481.068,756.627 483.255,739.762 485.441,722.842 487.628,705.92 489.814,689.12 492.001,672.508 
  494.187,656.106 496.374,639.978 498.56,624.129 500.747,608.558 502.934,593.287 505.12,578.299 507.307,563.58 509.493,549.129 511.68,534.93 513.866,520.961 
  516.053,507.216 518.239,493.681 520.426,480.339 522.613,467.181 524.799,454.199 526.986,441.384 529.172,428.728 531.359,416.225 533.545,403.874 535.732,391.67 
  537.918,379.613 540.105,367.701 542.291,355.937 544.478,344.323 546.665,332.86 548.851,321.555 551.038,310.411 553.224,299.435 555.411,288.635 557.597,278.019 
  559.784,267.599 561.97,257.387 564.157,247.394 566.344,237.634 568.53,228.115 570.717,218.868 572.903,209.926 575.09,201.325 577.276,193.099 579.463,185.285 
  581.649,177.921 583.836,171.046 586.023,164.702 588.209,158.996 590.396,154.079 592.582,150.104 594.769,147.223 596.955,145.587 599.142,145.344 601.328,146.847 
  603.515,150.604 605.701,156.951 607.888,166.044 610.075,178.149 612.261,193.685 614.448,212.521 616.634,233.993 618.821,257.974 621.007,284.473 623.194,312.795 
  625.38,342.636 627.567,374.39 629.754,407.654 631.94,441.861 634.127,476.746 636.313,511.649 638.5,545.877 640.686,579.176 642.873,611.412 645.059,642.52 
  647.246,672.327 649.432,700.418 651.619,726.158 653.806,748.27 655.992,765.84 658.179,778.977 660.365,787.355 662.552,791.647 664.738,792.308 666.925,789.904 
  669.111,784.98 671.298,777.938 673.485,769.11 675.671,758.818 677.858,747.56 680.044,735.353 682.231,722.291 684.417,708.737 686.604,694.779 688.79,680.555 
  690.977,666.216 693.164,651.759 695.35,637.273 697.537,622.841 699.723,608.467 701.91,594.196 704.096,580.069 706.283,566.074 708.469,552.221 710.656,538.536 
  712.842,525.011 715.029,511.64 717.216,498.435 719.402,485.396 721.589,472.509 723.775,459.777 725.962,447.201 728.148,434.781 730.335,422.509 732.521,410.387 
  734.708,398.416 736.895,386.599 739.081,374.936 741.268,363.428 743.454,352.08 745.641,340.897 747.827,329.885 750.014,319.051 752.2,308.404 754.387,297.953 
  756.573,287.709 758.76,277.688 760.947,267.905 763.133,258.38 765.32,249.132 767.506,240.18 769.693,231.537 771.879,223.26 774.066,215.41 776.252,208.047 
  778.439,201.233 780.626,195.028 782.812,189.493 784.999,184.68 787.185,180.701 789.372,177.868 791.558,176.455 793.745,176.664 795.931,178.627 798.118,182.484 
  800.305,188.764 802.491,197.849 804.678,209.717 806.864,224.05 809.051,241.016 811.237,260.497 813.424,281.579 815.61,303.734 817.797,327.435 819.983,352.393 
  822.17,378.113 824.357,404.911 826.543,432.602 828.73,460.737 830.916,489.095 833.103,517.372 835.289,545.149 837.476,572.236 839.662,598.796 841.849,624.592 
  844.036,649.306 846.222,672.76 848.409,694.382 850.595,713.493 852.782,729.502 854.968,741.991 857.155,750.826 859.341,756.305 861.528,758.698 863.715,758.307 
  865.901,755.5 868.088,750.611 870.274,743.917 872.461,735.783 874.647,726.437 876.834,715.984 879.02,704.749 881.207,692.897 883.393,680.467 885.58,667.679 
  887.767,654.639 889.953,641.361 892.14,627.979 894.326,614.559 896.513,601.092 898.699,587.651 900.886,574.281 903.072,560.968 905.259,547.74 907.446,534.629 
  909.632,521.631 911.819,508.74 914.005,495.98 916.192,483.355 918.378,470.857 920.565,458.489 922.751,446.261 924.938,434.175 927.124,422.226 929.311,410.418 
  931.498,398.757 933.684,387.247 935.871,375.892 938.057,364.693 940.244,353.659 942.43,342.796 944.617,332.114 946.803,321.622 948.99,311.33 951.177,301.251 
  953.363,291.4 955.55,281.795 957.736,272.458 959.923,263.412 962.109,254.684 964.296,246.301 966.482,238.279 968.669,230.686 970.856,223.601 973.042,217.105 
  975.229,211.273 977.415,206.181 979.602,201.9 981.788,198.466 983.975,196.163 986.161,195.381 988.348,196.359 990.534,199.193 992.721,203.853 994.908,210.693 
  997.094,220.129 999.281,232.1 1001.47,246.132 1003.65,262.111 1005.84,280.1 1008.03,299.517 1010.21,319.592 1012.4,340.777 1014.59,363.078 1016.77,386.054 
  1018.96,409.821 1021.15,434.365 1023.33,459.373 1025.52,484.585 1027.71,509.866 1029.89,534.965 1032.08,559.543 1034.27,583.692 1036.45,607.446 1038.64,630.314 
  1040.83,652.067 1043.01,672.445 1045.2,690.771 1047.38,706.532 1049.57,719.479 1051.76,729.339 1053.94,736.01 1056.13,739.866 1058.32,741.102 1060.5,739.874 
  1062.69,736.577 1064.88,731.478 1067.06,724.74 1069.25,716.72 1071.44,707.686 1073.62,697.641 1075.81,686.823 1078,675.468 1080.18,663.612 1082.37,651.373 
  1084.56,638.916 1086.74,626.259 1088.93,613.443 1091.12,600.579 1093.3,587.693 1095.49,574.782 1097.68,561.914 1099.86,549.115 1102.05,536.368 1104.24,523.7 
  1106.42,511.138 1108.61,498.679 1110.79,486.317 1112.98,474.073 1115.17,461.955 1117.35,449.959 1119.54,438.085 1121.73,426.345 1123.91,414.745 1126.1,403.286 
  1128.29,391.968 1130.47,380.803 1132.66,369.797 1134.85,358.957 1137.03,348.291 1139.22,337.806 1141.41,327.516 1143.59,317.433 1145.78,307.571 1147.97,297.947 
  1150.15,288.582 1152.34,279.49 1154.53,270.69 1156.71,262.227 1158.9,254.15 1161.09,246.51 1163.27,239.355 1165.46,232.736 1167.65,226.704 1169.83,221.302 
  1172.02,216.64 1174.2,212.946 1176.39,210.41 1178.58,209.175 1180.76,209.333 1182.95,210.987 1185.14,214.532 1187.32,220.281 1189.51,228.259 1191.7,238.232 
  1193.88,250.274 1196.07,264.531 1198.26,280.532 1200.44,297.405 1202.63,315.39 1204.82,334.629 1207,354.595 1209.19,375.17 1211.38,396.663 1213.56,418.916 
  1215.75,441.657 1217.94,464.884 1220.12,488.417 1222.31,511.913 1224.5,535.226 1226.68,558.399 1228.87,581.204 1231.06,603.31 1233.24,624.791 1235.43,645.353 
  1237.61,664.311 1239.8,681.419 1241.99,696.322 1244.17,708.442 1246.36,717.755 1248.55,724.359 1250.73,728.229 1252.92,729.577 1255.11,728.698 1257.29,725.803 
  1259.48,721.106 1261.67,714.953 1263.85,707.536 1266.04,698.923 1268.23,689.423 1270.41,679.245 1272.6,668.389 1274.79,657.029 1276.97,645.342 1279.16,633.346 
  1281.35,621.108 1283.53,608.757 1285.72,596.316 1287.91,583.786 1290.09,571.254 1292.28,558.751 1294.47,546.258 1296.65,533.816 1298.84,521.456 1301.02,509.174 
  1303.21,496.966 1305.4,484.861 1307.58,472.869 1309.77,460.983 1311.96,449.207 1314.14,437.556 1316.33,426.037 1318.52,414.65 1320.7,403.397 1322.89,392.289 
  1325.08,381.336 1327.26,370.544 1329.45,359.918 1331.64,349.469 1333.82,339.21 1336.01,329.153 1338.2,319.313 1340.38,309.706 1342.57,300.347 1344.76,291.256 
  1346.94,282.464 1349.13,274.007 1351.32,265.924 1353.5,258.254 1355.69,251.041 1357.88,244.327 1360.06,238.15 1362.25,232.615 1364.43,227.879 1366.62,224.077 
  1368.81,221.319 1370.99,219.695 1373.18,219.294 1375.37,220.432 1377.55,223.425 1379.74,228.39 1381.93,235.235 1384.11,243.95 1386.3,254.869 1388.49,267.86 
  1390.67,282.216 1392.86,297.495 1395.05,314.149 1397.23,331.993 1399.42,350.274 1401.61,369.277 1403.79,389.234 1405.98,409.859 1408.17,431.023 1410.35,452.795 
  1412.54,474.977 1414.73,497.244 1416.91,519.568 1419.1,541.878 1421.29,563.87 1423.47,585.355 1425.66,606.455 1427.84,626.815 1430.03,645.843 1432.22,663.457 
  1434.4,679.228 1436.59,692.529 1438.78,703.355 1440.96,711.639 1443.15,717.208 1445.34,720.293 1447.52,721.113 1449.71,719.807 1451.9,716.625 1454.08,711.856 
  1456.27,705.66 1458.46,698.177 1460.64,689.741 1462.83,680.507 1465.02,670.456 1467.2,659.833 1469.39,648.798 1471.58,637.362 1473.76,625.633 1475.95,613.741 
  1478.14,601.693 1480.32,589.512 1482.51,577.296 1484.7,565.07 1486.88,552.82 1489.07,540.6 1491.25,528.443 1493.44,516.337 1495.63,504.291 1497.81,492.334 
  1500,480.478 1502.19,468.711 1504.37,457.047 1506.56,445.5 1508.75,434.079 1510.93,422.777 1513.12,411.605 1515.31,400.575 1517.49,389.695 1519.68,378.97 
  1521.87,368.406 1524.05,358.016 1526.24,347.813 1528.43,337.809 1530.61,328.018 1532.8,318.456 1534.99,309.14 1537.17,300.093 1539.36,291.345 1541.55,282.926 
  1543.73,274.869 1545.92,267.213 1548.11,259.995 1550.29,253.243 1552.48,247.057 1554.66,241.554 1556.85,236.838 1559.04,232.997 1561.22,230.106 1563.41,228.234 
  1565.6,227.622 1567.78,228.579 1569.97,231.265 1572.16,235.686 1574.34,241.755 1576.53,249.815 1578.72,260.051 1580.9,272.107 1583.09,285.229 1585.28,299.587 
  1587.46,315.262 1589.65,331.772 1591.84,348.931 1594.02,366.953 1596.21,385.745 1598.4,405.133 1600.58,425.208 1602.77,445.901 1604.96,466.98 1607.14,488.297 
  1609.33,509.83 1611.52,531.382 1613.7,552.619 1615.89,573.595 1618.07,594.296 1620.26,614.222 1622.45,633.089 1624.63,650.815 1626.82,666.823 1629.01,680.654 
  1631.19,692.3 1633.38,701.503 1635.57,708.08 1637.75,712.284 1639.94,714.222 1642.13,713.989 1644.31,711.871 1646.5,708.087 1648.69,702.772 1650.87,696.164 
  1653.06,688.555 1655.25,680.007 1657.43,670.586 1659.62,660.573 1661.81,650.072 1663.99,639.093 1666.18,627.806 1668.37,616.309 1670.55,604.588 1672.74,592.721 
  1674.93,580.796 1677.11,568.818 1679.3,556.794 1681.48,544.79 1683.67,532.827 1685.86,520.889 1688.04,509.004 1690.23,497.201 1692.42,485.483 1694.6,473.84 
  1696.79,462.296 1698.98,450.866 1701.16,439.55 1703.35,428.346 1705.54,417.27 1707.72,406.332 1709.91,395.541 1712.1,384.898 1714.28,374.415 1716.47,364.105 
  1718.66,353.98 1720.84,344.053 1723.03,334.337 1725.22,324.847 1727.4,315.606 1729.59,306.635 1731.78,297.962 1733.96,289.615 1736.15,281.628 1738.34,274.027 
  1740.52,266.843 1742.71,260.168 1744.89,254.094 1747.08,248.705 1749.27,244.073 1751.45,240.262 1753.64,237.312 1755.83,235.364 1758.01,234.782 1760.2,235.79 
  1762.39,238.44 1764.57,242.613 1766.76,248.398 1768.95,256.139 1771.13,265.796 1773.32,276.959 1775.51,289.375 1777.69,303.198 1779.88,318.213 1782.07,333.842 
  1784.25,350.167 1786.44,367.395 1788.63,385.349 1790.81,403.84 1793,423.045 1795.19,442.895 1797.37,463.134 1799.56,483.671 1801.74,504.493 1803.93,525.383 
  1806.12,546.006 1808.3,566.461 1810.49,586.695 1812.68,606.191 1814.86,624.732 1817.05,642.269 1819.24,658.218 1821.42,672.146 1823.61,684.065 1825.8,693.671 
  1827.98,700.758 1830.17,705.558 1832.36,708.136 1834.54,708.562 1836.73,707.106 1838.92,703.966 1841.1,699.275 1843.29,693.267 1845.48,686.216 1847.66,678.185 
  1849.85,669.252 1852.04,659.693 1854.22,649.611 1856.41,639.015 1858.6,628.077 1860.78,616.901 1862.97,605.478 1865.15,593.881 1867.34,582.204 1869.53,570.458 
  1871.71,558.646 1873.9,546.837 1876.09,535.057 1878.27,523.29 1880.46,511.563 1882.65,499.909 1884.83,488.333 1887.02,476.824 1889.21,465.406 1891.39,454.097 
  1893.58,442.898 1895.77,431.806 1897.95,420.837 1900.14,410.005 1902.33,399.317 1904.51,388.776 1906.7,378.393 1908.89,368.182 1911.07,358.156 1913.26,348.329 
  1915.45,338.713 1917.63,329.325 1919.82,320.188 1922.01,311.324 1924.19,302.76 1926.38,294.526 1928.56,286.656 1930.75,279.175 1932.94,272.118 1935.12,265.582 
  1937.31,259.657 1939.5,254.422 1941.68,249.946 1943.87,246.288 1946.06,243.484 1948.24,241.707 1950.43,241.294 1952.62,242.434 1954.8,245.149 1956.99,249.307 
  1959.18,255.056 1961.36,262.682 1963.55,272.102 1965.74,282.895 1967.92,294.889 1970.11,308.23 1972.3,322.686 1974.48,337.711 1976.67,353.444 1978.86,370.062 
  1981.04,387.375 1983.23,405.22 1985.42,423.772 1987.6,442.968 1989.79,462.554 1991.97,482.455 1994.16,502.674 1996.35,522.991 1998.53,543.071 2000.72,563.011 
  2002.91,582.754 2005.09,601.786 2007.28,619.894 2009.47,637.055 2011.65,652.708 2013.84,666.425 2016.03,678.237 2018.21,687.852 2020.4,695.043 2022.59,700.027 
  2024.77,702.857 2026.96,703.583 2029.15,702.459 2031.33,699.67 2033.52,695.345 2035.71,689.7 2037.89,683.002 2040.08,675.329 2042.27,666.736 2044.45,657.496 
  2046.64,647.728 2048.83,637.432 2051.01,626.766 2053.2,615.849 2055.38,604.681 2057.57,593.313 2059.76,581.851 2061.94,570.316 2064.13,558.699 2066.32,547.069 
  2068.5,535.461 2070.69,523.864 2072.88,512.292 2075.06,500.785 2077.25,489.353 2079.44,477.985 2081.62,466.699 2083.81,455.517 2086,444.444 2088.18,433.477 
  2090.37,422.629 2092.56,411.915 2094.74,401.345 2096.93,390.923 2099.12,380.659 2101.3,370.566 2103.49,360.661 2105.68,350.957 2107.86,341.468 2110.05,332.21 
  2112.24,323.207 2114.42,314.483 2116.61,306.066 2118.79,297.988 2120.98,290.283 2123.17,282.986 2125.35,276.118 2127.54,269.773 2129.73,264.053 2131.91,259.044 
  2134.1,254.819 2136.29,251.438 2138.47,248.935 2140.66,247.442 2142.85,247.306 2145.03,248.727 2147.22,251.722 2149.41,256.132 2151.59,262.027 2153.78,269.702 
  2155.97,279.084 2158.15,289.754 2160.34,301.515 2162.53,314.521 2164.71,328.582 2166.9,343.211 2169.09,358.517 2171.27,374.672 2173.46,391.524 2175.65,408.897 
  2177.83,426.954 2180.02,445.645 2182.2,464.729 2184.39,484.102 2186.58,503.796 2188.76,523.618 2190.95,543.208 2193.14,562.626 2195.32,581.853 2197.51,600.395 
  2199.7,617.967 2201.88,634.589 2204.07,649.768 2206.26,663.023 2208.44,674.424 2210.63,683.735 2212.82,690.698 2215,695.526 2217.19,698.284 2219.38,699.008 
  2221.56,697.931 2223.75,695.238 2225.94,691.057 2228.12,685.563 2230.31,679.033 2232.5,671.573 2234.68,663.194 2236.87,654.152 2239.06,644.594 2241.24,634.526 
  2243.43,624.062 2245.61,613.344 2247.8,602.392 2249.99,591.218 2252.17,579.937 2254.36,568.588 2256.55,557.155 2258.73,545.69 2260.92,534.243 2263.11,522.814 
  2265.29,511.397 2267.48,500.035 2269.67,488.747 2271.85,477.528 2274.04,466.381 2276.23,455.333 2278.41,444.395 2280.6,433.567 2282.79,422.852 2284.97,412.27 
  2287.16,401.833 2289.35,391.549 2291.53,381.423 2293.72,371.471 2295.91,361.709 2298.09,352.152 2300.28,342.818 2302.47,333.722 2304.65,324.886 2306.84,316.337 
  2309.02,308.106 2311.21,300.228 2313.4,292.741 2315.58,285.683 2317.77,279.088 2319.96,273.001 2322.14,267.546 2324.33,262.834 2326.52,258.953 2328.7,255.971 
  2330.89,253.932 2333.08,252.869 2335.26,253.11 2337.45,254.931 2339.64,258.384 2341.82,263.298 2344.01,269.509 2346.2,277.353 2348.38,286.834 2350.57,297.579 
  2352.76,309.346 
  "/>
<path clip-path="url(#clip410)" d="
M1931.6 1377.32 L2279.87 1377.32 L2279.87 1195.88 L1931.6 1195.88  Z
  " fill="#ffffff" fill-rule="evenodd" fill-opacity="1"/>
<polyline clip-path="url(#clip410)" style="stroke:#000000; stroke-width:4; stroke-opacity:1; fill:none" points="
  1931.6,1377.32 2279.87,1377.32 2279.87,1195.88 1931.6,1195.88 1931.6,1377.32 
  "/>
<polyline clip-path="url(#clip410)" style="stroke:#009af9; stroke-width:4; stroke-opacity:1; fill:none" points="
  1955.89,1256.36 2101.66,1256.36 
  "/>
<path clip-path="url(#clip410)" d="M 0 0 M2125.96 1283.5 L2125.96 1247.71 L2130.22 1247.71 L2130.22 1263.82 Q2130.22 1267.18 2131.81 1268.89 Q2133.41 1270.6 2136.54 1270.6 Q2139.96 1270.6 2141.67 1268.66 Q2143.41 1266.71 2143.41 1262.83 L2143.41 1247.71 L2147.67 1247.71 L2147.67 1267.66 Q2147.67 1269.05 2148.06 1269.72 Q2148.48 1270.37 2149.34 1270.37 Q2149.55 1270.37 2149.92 1270.26 Q2150.29 1270.12 2150.93 1269.84 L2150.93 1273.26 Q2149.98 1273.8 2149.13 1274.05 Q2148.3 1274.31 2147.48 1274.31 Q2145.89 1274.31 2144.94 1273.4 Q2143.99 1272.5 2143.64 1270.65 Q2142.49 1272.48 2140.8 1273.4 Q2139.13 1274.31 2136.86 1274.31 Q2134.5 1274.31 2132.83 1273.4 Q2131.19 1272.5 2130.22 1270.7 L2130.22 1283.5 L2125.96 1283.5 Z" fill="#000000" fill-rule="evenodd" fill-opacity="1" /><path clip-path="url(#clip410)" d="M 0 0 M2154.55 1271.09 L2159.27 1271.09 L2159.27 1256.95 L2154.11 1257.89 L2154.11 1255.21 L2159.43 1254.31 L2162.6 1254.31 L2162.6 1271.09 L2167.35 1271.09 L2167.35 1273.64 L2154.55 1273.64 L2154.55 1271.09 Z" fill="#000000" fill-rule="evenodd" fill-opacity="1" /><path clip-path="url(#clip410)" d="M 0 0 M2180.54 1257.96 Q2179.38 1255.97 2177.05 1255.97 Q2174.71 1255.97 2173.55 1257.96 Q2172.37 1259.95 2172.37 1263.94 Q2172.37 1267.94 2173.55 1269.93 Q2174.71 1271.92 2177.05 1271.92 Q2179.38 1271.92 2180.54 1269.93 Q2181.72 1267.94 2181.72 1263.94 Q2181.72 1259.95 2180.54 1257.96 M2177.05 1253.91 Q2180.77 1253.91 2182.74 1256.48 Q2184.71 1259.05 2184.71 1263.94 Q2184.71 1268.84 2182.74 1271.41 Q2180.77 1273.98 2177.05 1273.98 Q2173.3 1273.98 2171.33 1271.41 Q2169.36 1268.84 2169.36 1263.94 Q2169.36 1259.05 2171.33 1256.48 Q2173.3 1253.91 2177.05 1253.91 Z" fill="#000000" fill-rule="evenodd" fill-opacity="1" /><path clip-path="url(#clip410)" d="M 0 0 M2199.41 1237.66 Q2196.3 1242.99 2194.8 1248.2 Q2193.29 1253.4 2193.29 1258.75 Q2193.29 1264.1 2194.8 1269.35 Q2196.33 1274.58 2199.41 1279.89 L2195.7 1279.89 Q2192.23 1274.45 2190.49 1269.19 Q2188.78 1263.94 2188.78 1258.75 Q2188.78 1253.59 2190.49 1248.36 Q2192.21 1243.13 2195.7 1237.66 L2199.41 1237.66 Z" fill="#000000" fill-rule="evenodd" fill-opacity="1" /><path clip-path="url(#clip410)" d="M 0 0 M2208.09 1240.35 L2208.09 1247.71 L2216.86 1247.71 L2216.86 1251.02 L2208.09 1251.02 L2208.09 1265.09 Q2208.09 1268.26 2208.94 1269.17 Q2209.82 1270.07 2212.48 1270.07 L2216.86 1270.07 L2216.86 1273.64 L2212.48 1273.64 Q2207.55 1273.64 2205.68 1271.81 Q2203.8 1269.95 2203.8 1265.09 L2203.8 1251.02 L2200.68 1251.02 L2200.68 1247.71 L2203.8 1247.71 L2203.8 1240.35 L2208.09 1240.35 Z" fill="#000000" fill-rule="evenodd" fill-opacity="1" /><path clip-path="url(#clip410)" d="M 0 0 M2220.66 1237.66 L2224.36 1237.66 Q2227.83 1243.13 2229.54 1248.36 Q2231.28 1253.59 2231.28 1258.75 Q2231.28 1263.94 2229.54 1269.19 Q2227.83 1274.45 2224.36 1279.89 L2220.66 1279.89 Q2223.73 1274.58 2225.24 1269.35 Q2226.77 1264.1 2226.77 1258.75 Q2226.77 1253.4 2225.24 1248.2 Q2223.73 1242.99 2220.66 1237.66 Z" fill="#000000" fill-rule="evenodd" fill-opacity="1" /><polyline clip-path="url(#clip410)" style="stroke:#e26f46; stroke-width:4; stroke-opacity:1; fill:none" points="
  1955.89,1316.84 2101.66,1316.84 
  "/>
<path clip-path="url(#clip410)" d="M 0 0 M2125.96 1343.98 L2125.96 1308.19 L2130.22 1308.19 L2130.22 1324.3 Q2130.22 1327.66 2131.81 1329.37 Q2133.41 1331.08 2136.54 1331.08 Q2139.96 1331.08 2141.67 1329.14 Q2143.41 1327.19 2143.41 1323.31 L2143.41 1308.19 L2147.67 1308.19 L2147.67 1328.14 Q2147.67 1329.53 2148.06 1330.2 Q2148.48 1330.85 2149.34 1330.85 Q2149.55 1330.85 2149.92 1330.74 Q2150.29 1330.6 2150.93 1330.32 L2150.93 1333.74 Q2149.98 1334.28 2149.13 1334.53 Q2148.3 1334.79 2147.48 1334.79 Q2145.89 1334.79 2144.94 1333.88 Q2143.99 1332.98 2143.64 1331.13 Q2142.49 1332.96 2140.8 1333.88 Q2139.13 1334.79 2136.86 1334.79 Q2134.5 1334.79 2132.83 1333.88 Q2131.19 1332.98 2130.22 1331.18 L2130.22 1343.98 L2125.96 1343.98 Z" fill="#000000" fill-rule="evenodd" fill-opacity="1" /><path clip-path="url(#clip410)" d="M 0 0 M2164.13 1318.44 Q2162.97 1316.45 2160.63 1316.45 Q2158.3 1316.45 2157.14 1318.44 Q2155.96 1320.43 2155.96 1324.42 Q2155.96 1328.42 2157.14 1330.41 Q2158.3 1332.4 2160.63 1332.4 Q2162.97 1332.4 2164.13 1330.41 Q2165.31 1328.42 2165.31 1324.42 Q2165.31 1320.43 2164.13 1318.44 M2160.63 1314.39 Q2164.36 1314.39 2166.33 1316.96 Q2168.3 1319.53 2168.3 1324.42 Q2168.3 1329.32 2166.33 1331.89 Q2164.36 1334.46 2160.63 1334.46 Q2156.88 1334.46 2154.92 1331.89 Q2152.95 1329.32 2152.95 1324.42 Q2152.95 1319.53 2154.92 1316.96 Q2156.88 1314.39 2160.63 1314.39 Z" fill="#000000" fill-rule="evenodd" fill-opacity="1" /><path clip-path="url(#clip410)" d="M 0 0 M2171.91 1331.57 L2176.63 1331.57 L2176.63 1317.43 L2171.47 1318.37 L2171.47 1315.69 L2176.79 1314.79 L2179.96 1314.79 L2179.96 1331.57 L2184.71 1331.57 L2184.71 1334.12 L2171.91 1334.12 L2171.91 1331.57 Z" fill="#000000" fill-rule="evenodd" fill-opacity="1" /><path clip-path="url(#clip410)" d="M 0 0 M2199.41 1298.14 Q2196.3 1303.47 2194.8 1308.68 Q2193.29 1313.88 2193.29 1319.23 Q2193.29 1324.58 2194.8 1329.83 Q2196.33 1335.06 2199.41 1340.37 L2195.7 1340.37 Q2192.23 1334.93 2190.49 1329.67 Q2188.78 1324.42 2188.78 1319.23 Q2188.78 1314.07 2190.49 1308.84 Q2192.21 1303.61 2195.7 1298.14 L2199.41 1298.14 Z" fill="#000000" fill-rule="evenodd" fill-opacity="1" /><path clip-path="url(#clip410)" d="M 0 0 M2208.09 1300.83 L2208.09 1308.19 L2216.86 1308.19 L2216.86 1311.5 L2208.09 1311.5 L2208.09 1325.57 Q2208.09 1328.74 2208.94 1329.65 Q2209.82 1330.55 2212.48 1330.55 L2216.86 1330.55 L2216.86 1334.12 L2212.48 1334.12 Q2207.55 1334.12 2205.68 1332.29 Q2203.8 1330.43 2203.8 1325.57 L2203.8 1311.5 L2200.68 1311.5 L2200.68 1308.19 L2203.8 1308.19 L2203.8 1300.83 L2208.09 1300.83 Z" fill="#000000" fill-rule="evenodd" fill-opacity="1" /><path clip-path="url(#clip410)" d="M 0 0 M2220.66 1298.14 L2224.36 1298.14 Q2227.83 1303.61 2229.54 1308.84 Q2231.28 1314.07 2231.28 1319.23 Q2231.28 1324.42 2229.54 1329.67 Q2227.83 1334.93 2224.36 1340.37 L2220.66 1340.37 Q2223.73 1335.06 2225.24 1329.83 Q2226.77 1324.58 2226.77 1319.23 Q2226.77 1313.88 2225.24 1308.68 Q2223.73 1303.47 2220.66 1298.14 Z" fill="#000000" fill-rule="evenodd" fill-opacity="1" /></svg>
