<?xml version="1.0" encoding="utf-8"?>
<svg xmlns="http://www.w3.org/2000/svg" xmlns:xlink="http://www.w3.org/1999/xlink" width="600" height="400" viewBox="0 0 2400 1600">
<defs>
  <clipPath id="clip930">
    <rect x="0" y="0" width="2400" height="1600"/>
  </clipPath>
</defs>
<path clip-path="url(#clip930)" d="
M0 1600 L2400 1600 L2400 0 L0 0  Z
  " fill="#ffffff" fill-rule="evenodd" fill-opacity="1"/>
<defs>
  <clipPath id="clip931">
    <rect x="480" y="0" width="1681" height="1600"/>
  </clipPath>
</defs>
<path clip-path="url(#clip930)" d="
M196.714 1423.18 L2352.76 1423.18 L2352.76 47.2441 L196.714 47.2441  Z
  " fill="#ffffff" fill-rule="evenodd" fill-opacity="1"/>
<defs>
  <clipPath id="clip932">
    <rect x="196" y="47" width="2157" height="1377"/>
  </clipPath>
</defs>
<polyline clip-path="url(#clip932)" style="stroke:#000000; stroke-width:2; stroke-opacity:0.1; fill:none" points="
  196.714,1423.18 196.714,47.2441 
  "/>
<polyline clip-path="url(#clip932)" style="stroke:#000000; stroke-width:2; stroke-opacity:0.1; fill:none" points="
  627.922,1423.18 627.922,47.2441 
  "/>
<polyline clip-path="url(#clip932)" style="stroke:#000000; stroke-width:2; stroke-opacity:0.1; fill:none" points="
  1059.13,1423.18 1059.13,47.2441 
  "/>
<polyline clip-path="url(#clip932)" style="stroke:#000000; stroke-width:2; stroke-opacity:0.1; fill:none" points="
  1490.34,1423.18 1490.34,47.2441 
  "/>
<polyline clip-path="url(#clip932)" style="stroke:#000000; stroke-width:2; stroke-opacity:0.1; fill:none" points="
  1921.55,1423.18 1921.55,47.2441 
  "/>
<polyline clip-path="url(#clip932)" style="stroke:#000000; stroke-width:2; stroke-opacity:0.1; fill:none" points="
  2352.76,1423.18 2352.76,47.2441 
  "/>
<polyline clip-path="url(#clip930)" style="stroke:#000000; stroke-width:4; stroke-opacity:1; fill:none" points="
  196.714,1423.18 2352.76,1423.18 
  "/>
<polyline clip-path="url(#clip930)" style="stroke:#000000; stroke-width:4; stroke-opacity:1; fill:none" points="
  196.714,1423.18 196.714,1406.67 
  "/>
<polyline clip-path="url(#clip930)" style="stroke:#000000; stroke-width:4; stroke-opacity:1; fill:none" points="
  627.922,1423.18 627.922,1406.67 
  "/>
<polyline clip-path="url(#clip930)" style="stroke:#000000; stroke-width:4; stroke-opacity:1; fill:none" points="
  1059.13,1423.18 1059.13,1406.67 
  "/>
<polyline clip-path="url(#clip930)" style="stroke:#000000; stroke-width:4; stroke-opacity:1; fill:none" points="
  1490.34,1423.18 1490.34,1406.67 
  "/>
<polyline clip-path="url(#clip930)" style="stroke:#000000; stroke-width:4; stroke-opacity:1; fill:none" points="
  1921.55,1423.18 1921.55,1406.67 
  "/>
<polyline clip-path="url(#clip930)" style="stroke:#000000; stroke-width:4; stroke-opacity:1; fill:none" points="
  2352.76,1423.18 2352.76,1406.67 
  "/>
<path clip-path="url(#clip930)" d="M 0 0 M196.714 1452.37 Q193.103 1452.37 191.274 1455.94 Q189.468 1459.48 189.468 1466.61 Q189.468 1473.71 191.274 1477.28 Q193.103 1480.82 196.714 1480.82 Q200.348 1480.82 202.154 1477.28 Q203.982 1473.71 203.982 1466.61 Q203.982 1459.48 202.154 1455.94 Q200.348 1452.37 196.714 1452.37 M196.714 1448.67 Q202.524 1448.67 205.579 1453.27 Q208.658 1457.86 208.658 1466.61 Q208.658 1475.33 205.579 1479.94 Q202.524 1484.52 196.714 1484.52 Q190.904 1484.52 187.825 1479.94 Q184.769 1475.33 184.769 1466.61 Q184.769 1457.86 187.825 1453.27 Q190.904 1448.67 196.714 1448.67 Z" fill="#000000" fill-rule="evenodd" fill-opacity="1" /><path clip-path="url(#clip930)" d="M 0 0 M609.068 1479.92 L625.387 1479.92 L625.387 1483.85 L603.443 1483.85 L603.443 1479.92 Q606.105 1477.16 610.688 1472.53 Q615.295 1467.88 616.475 1466.54 Q618.721 1464.01 619.6 1462.28 Q620.503 1460.52 620.503 1458.83 Q620.503 1456.07 618.559 1454.34 Q616.638 1452.6 613.536 1452.6 Q611.337 1452.6 608.883 1453.37 Q606.452 1454.13 603.675 1455.68 L603.675 1450.96 Q606.499 1449.82 608.952 1449.25 Q611.406 1448.67 613.443 1448.67 Q618.813 1448.67 622.008 1451.35 Q625.202 1454.04 625.202 1458.53 Q625.202 1460.66 624.392 1462.58 Q623.605 1464.48 621.499 1467.07 Q620.92 1467.74 617.818 1470.96 Q614.716 1474.15 609.068 1479.92 Z" fill="#000000" fill-rule="evenodd" fill-opacity="1" /><path clip-path="url(#clip930)" d="M 0 0 M640.457 1452.37 Q636.846 1452.37 635.017 1455.94 Q633.212 1459.48 633.212 1466.61 Q633.212 1473.71 635.017 1477.28 Q636.846 1480.82 640.457 1480.82 Q644.091 1480.82 645.897 1477.28 Q647.725 1473.71 647.725 1466.61 Q647.725 1459.48 645.897 1455.94 Q644.091 1452.37 640.457 1452.37 M640.457 1448.67 Q646.267 1448.67 649.323 1453.27 Q652.401 1457.86 652.401 1466.61 Q652.401 1475.33 649.323 1479.94 Q646.267 1484.52 640.457 1484.52 Q634.647 1484.52 631.568 1479.94 Q628.512 1475.33 628.512 1466.61 Q628.512 1457.86 631.568 1453.27 Q634.647 1448.67 640.457 1448.67 Z" fill="#000000" fill-rule="evenodd" fill-opacity="1" /><path clip-path="url(#clip930)" d="M 0 0 M1048.63 1453.37 L1036.83 1471.81 L1048.63 1471.81 L1048.63 1453.37 M1047.41 1449.29 L1053.29 1449.29 L1053.29 1471.81 L1058.22 1471.81 L1058.22 1475.7 L1053.29 1475.7 L1053.29 1483.85 L1048.63 1483.85 L1048.63 1475.7 L1033.03 1475.7 L1033.03 1471.19 L1047.41 1449.29 Z" fill="#000000" fill-rule="evenodd" fill-opacity="1" /><path clip-path="url(#clip930)" d="M 0 0 M1073.29 1452.37 Q1069.67 1452.37 1067.85 1455.94 Q1066.04 1459.48 1066.04 1466.61 Q1066.04 1473.71 1067.85 1477.28 Q1069.67 1480.82 1073.29 1480.82 Q1076.92 1480.82 1078.73 1477.28 Q1080.55 1473.71 1080.55 1466.61 Q1080.55 1459.48 1078.73 1455.94 Q1076.92 1452.37 1073.29 1452.37 M1073.29 1448.67 Q1079.1 1448.67 1082.15 1453.27 Q1085.23 1457.86 1085.23 1466.61 Q1085.23 1475.33 1082.15 1479.94 Q1079.1 1484.52 1073.29 1484.52 Q1067.48 1484.52 1064.4 1479.94 Q1061.34 1475.33 1061.34 1466.61 Q1061.34 1457.86 1064.4 1453.27 Q1067.48 1448.67 1073.29 1448.67 Z" fill="#000000" fill-rule="evenodd" fill-opacity="1" /><path clip-path="url(#clip930)" d="M 0 0 M1477.24 1464.71 Q1474.09 1464.71 1472.24 1466.86 Q1470.41 1469.01 1470.41 1472.76 Q1470.41 1476.49 1472.24 1478.67 Q1474.09 1480.82 1477.24 1480.82 Q1480.39 1480.82 1482.21 1478.67 Q1484.07 1476.49 1484.07 1472.76 Q1484.07 1469.01 1482.21 1466.86 Q1480.39 1464.71 1477.24 1464.71 M1486.52 1450.06 L1486.52 1454.31 Q1484.76 1453.48 1482.95 1453.04 Q1481.17 1452.6 1479.41 1452.6 Q1474.78 1452.6 1472.33 1455.73 Q1469.9 1458.85 1469.55 1465.17 Q1470.92 1463.16 1472.98 1462.09 Q1475.04 1461 1477.52 1461 Q1482.72 1461 1485.73 1464.18 Q1488.76 1467.32 1488.76 1472.76 Q1488.76 1478.09 1485.62 1481.31 Q1482.47 1484.52 1477.24 1484.52 Q1471.24 1484.52 1468.07 1479.94 Q1464.9 1475.33 1464.9 1466.61 Q1464.9 1458.41 1468.79 1453.55 Q1472.68 1448.67 1479.23 1448.67 Q1480.99 1448.67 1482.77 1449.01 Q1484.58 1449.36 1486.52 1450.06 Z" fill="#000000" fill-rule="evenodd" fill-opacity="1" /><path clip-path="url(#clip930)" d="M 0 0 M1503.83 1452.37 Q1500.22 1452.37 1498.39 1455.94 Q1496.59 1459.48 1496.59 1466.61 Q1496.59 1473.71 1498.39 1477.28 Q1500.22 1480.82 1503.83 1480.82 Q1507.47 1480.82 1509.27 1477.28 Q1511.1 1473.71 1511.1 1466.61 Q1511.1 1459.48 1509.27 1455.94 Q1507.47 1452.37 1503.83 1452.37 M1503.83 1448.67 Q1509.64 1448.67 1512.7 1453.27 Q1515.78 1457.86 1515.78 1466.61 Q1515.78 1475.33 1512.7 1479.94 Q1509.64 1484.52 1503.83 1484.52 Q1498.02 1484.52 1494.95 1479.94 Q1491.89 1475.33 1491.89 1466.61 Q1491.89 1457.86 1494.95 1453.27 Q1498.02 1448.67 1503.83 1448.67 Z" fill="#000000" fill-rule="evenodd" fill-opacity="1" /><path clip-path="url(#clip930)" d="M 0 0 M1908.04 1467.44 Q1904.71 1467.44 1902.79 1469.22 Q1900.89 1471 1900.89 1474.13 Q1900.89 1477.25 1902.79 1479.04 Q1904.71 1480.82 1908.04 1480.82 Q1911.37 1480.82 1913.3 1479.04 Q1915.22 1477.23 1915.22 1474.13 Q1915.22 1471 1913.3 1469.22 Q1911.4 1467.44 1908.04 1467.44 M1903.36 1465.45 Q1900.36 1464.71 1898.67 1462.65 Q1897 1460.59 1897 1457.63 Q1897 1453.48 1899.94 1451.07 Q1902.9 1448.67 1908.04 1448.67 Q1913.2 1448.67 1916.14 1451.07 Q1919.08 1453.48 1919.08 1457.63 Q1919.08 1460.59 1917.39 1462.65 Q1915.73 1464.71 1912.74 1465.45 Q1916.12 1466.24 1917.99 1468.53 Q1919.89 1470.82 1919.89 1474.13 Q1919.89 1479.15 1916.81 1481.84 Q1913.76 1484.52 1908.04 1484.52 Q1902.32 1484.52 1899.24 1481.84 Q1896.19 1479.15 1896.19 1474.13 Q1896.19 1470.82 1898.09 1468.53 Q1899.99 1466.24 1903.36 1465.45 M1901.65 1458.06 Q1901.65 1460.75 1903.32 1462.25 Q1905.01 1463.76 1908.04 1463.76 Q1911.05 1463.76 1912.74 1462.25 Q1914.45 1460.75 1914.45 1458.06 Q1914.45 1455.38 1912.74 1453.88 Q1911.05 1452.37 1908.04 1452.37 Q1905.01 1452.37 1903.32 1453.88 Q1901.65 1455.38 1901.65 1458.06 Z" fill="#000000" fill-rule="evenodd" fill-opacity="1" /><path clip-path="url(#clip930)" d="M 0 0 M1934.96 1452.37 Q1931.35 1452.37 1929.52 1455.94 Q1927.72 1459.48 1927.72 1466.61 Q1927.72 1473.71 1929.52 1477.28 Q1931.35 1480.82 1934.96 1480.82 Q1938.6 1480.82 1940.4 1477.28 Q1942.23 1473.71 1942.23 1466.61 Q1942.23 1459.48 1940.4 1455.94 Q1938.6 1452.37 1934.96 1452.37 M1934.96 1448.67 Q1940.77 1448.67 1943.83 1453.27 Q1946.91 1457.86 1946.91 1466.61 Q1946.91 1475.33 1943.83 1479.94 Q1940.77 1484.52 1934.96 1484.52 Q1929.15 1484.52 1926.07 1479.94 Q1923.02 1475.33 1923.02 1466.61 Q1923.02 1457.86 1926.07 1453.27 Q1929.15 1448.67 1934.96 1448.67 Z" fill="#000000" fill-rule="evenodd" fill-opacity="1" /><path clip-path="url(#clip930)" d="M 0 0 M2316.12 1479.92 L2323.76 1479.92 L2323.76 1453.55 L2315.45 1455.22 L2315.45 1450.96 L2323.72 1449.29 L2328.39 1449.29 L2328.39 1479.92 L2336.03 1479.92 L2336.03 1483.85 L2316.12 1483.85 L2316.12 1479.92 Z" fill="#000000" fill-rule="evenodd" fill-opacity="1" /><path clip-path="url(#clip930)" d="M 0 0 M2351.1 1452.37 Q2347.49 1452.37 2345.66 1455.94 Q2343.86 1459.48 2343.86 1466.61 Q2343.86 1473.71 2345.66 1477.28 Q2347.49 1480.82 2351.1 1480.82 Q2354.74 1480.82 2356.54 1477.28 Q2358.37 1473.71 2358.37 1466.61 Q2358.37 1459.48 2356.54 1455.94 Q2354.74 1452.37 2351.1 1452.37 M2351.1 1448.67 Q2356.91 1448.67 2359.97 1453.27 Q2363.05 1457.86 2363.05 1466.61 Q2363.05 1475.33 2359.97 1479.94 Q2356.91 1484.52 2351.1 1484.52 Q2345.29 1484.52 2342.21 1479.94 Q2339.16 1475.33 2339.16 1466.61 Q2339.16 1457.86 2342.21 1453.27 Q2345.29 1448.67 2351.1 1448.67 Z" fill="#000000" fill-rule="evenodd" fill-opacity="1" /><path clip-path="url(#clip930)" d="M 0 0 M2378.11 1452.37 Q2374.5 1452.37 2372.67 1455.94 Q2370.87 1459.48 2370.87 1466.61 Q2370.87 1473.71 2372.67 1477.28 Q2374.5 1480.82 2378.11 1480.82 Q2381.75 1480.82 2383.55 1477.28 Q2385.38 1473.71 2385.38 1466.61 Q2385.38 1459.48 2383.55 1455.94 Q2381.75 1452.37 2378.11 1452.37 M2378.11 1448.67 Q2383.92 1448.67 2386.98 1453.27 Q2390.06 1457.86 2390.06 1466.61 Q2390.06 1475.33 2386.98 1479.94 Q2383.92 1484.52 2378.11 1484.52 Q2372.3 1484.52 2369.23 1479.94 Q2366.17 1475.33 2366.17 1466.61 Q2366.17 1457.86 2369.23 1453.27 Q2372.3 1448.67 2378.11 1448.67 Z" fill="#000000" fill-rule="evenodd" fill-opacity="1" /><path clip-path="url(#clip930)" d="M 0 0 M1273.8 1522.27 L1273.8 1532.4 L1285.86 1532.4 L1285.86 1536.95 L1273.8 1536.95 L1273.8 1556.3 Q1273.8 1560.66 1274.97 1561.9 Q1276.18 1563.14 1279.84 1563.14 L1285.86 1563.14 L1285.86 1568.04 L1279.84 1568.04 Q1273.06 1568.04 1270.49 1565.53 Q1267.91 1562.98 1267.91 1556.3 L1267.91 1536.95 L1263.61 1536.95 L1263.61 1532.4 L1267.91 1532.4 L1267.91 1522.27 L1273.8 1522.27 Z" fill="#000000" fill-rule="evenodd" fill-opacity="1" /><polyline clip-path="url(#clip932)" style="stroke:#000000; stroke-width:2; stroke-opacity:0.1; fill:none" points="
  196.714,1206.61 2352.76,1206.61 
  "/>
<polyline clip-path="url(#clip932)" style="stroke:#000000; stroke-width:2; stroke-opacity:0.1; fill:none" points="
  196.714,877.776 2352.76,877.776 
  "/>
<polyline clip-path="url(#clip932)" style="stroke:#000000; stroke-width:2; stroke-opacity:0.1; fill:none" points="
  196.714,548.94 2352.76,548.94 
  "/>
<polyline clip-path="url(#clip932)" style="stroke:#000000; stroke-width:2; stroke-opacity:0.1; fill:none" points="
  196.714,220.105 2352.76,220.105 
  "/>
<polyline clip-path="url(#clip930)" style="stroke:#000000; stroke-width:4; stroke-opacity:1; fill:none" points="
  196.714,1423.18 196.714,47.2441 
  "/>
<polyline clip-path="url(#clip930)" style="stroke:#000000; stroke-width:4; stroke-opacity:1; fill:none" points="
  196.714,1206.61 222.586,1206.61 
  "/>
<polyline clip-path="url(#clip930)" style="stroke:#000000; stroke-width:4; stroke-opacity:1; fill:none" points="
  196.714,877.776 222.586,877.776 
  "/>
<polyline clip-path="url(#clip930)" style="stroke:#000000; stroke-width:4; stroke-opacity:1; fill:none" points="
  196.714,548.94 222.586,548.94 
  "/>
<polyline clip-path="url(#clip930)" style="stroke:#000000; stroke-width:4; stroke-opacity:1; fill:none" points="
  196.714,220.105 222.586,220.105 
  "/>
<path clip-path="url(#clip930)" d="M 0 0 M50.9921 1207.06 L80.6679 1207.06 L80.6679 1211 L50.9921 1211 L50.9921 1207.06 Z" fill="#000000" fill-rule="evenodd" fill-opacity="1" /><path clip-path="url(#clip930)" d="M 0 0 M85.7836 1189.33 L104.14 1189.33 L104.14 1193.27 L90.066 1193.27 L90.066 1201.74 Q91.0845 1201.39 92.103 1201.23 Q93.1215 1201.04 94.14 1201.04 Q99.927 1201.04 103.307 1204.21 Q106.686 1207.39 106.686 1212.8 Q106.686 1218.38 103.214 1221.48 Q99.7419 1224.56 93.4225 1224.56 Q91.2465 1224.56 88.978 1224.19 Q86.7327 1223.82 84.3253 1223.08 L84.3253 1218.38 Q86.4086 1219.52 88.6308 1220.07 Q90.853 1220.63 93.3299 1220.63 Q97.3345 1220.63 99.6724 1218.52 Q102.01 1216.41 102.01 1212.8 Q102.01 1209.19 99.6724 1207.09 Q97.3345 1204.98 93.3299 1204.98 Q91.4549 1204.98 89.5799 1205.4 Q87.728 1205.81 85.7836 1206.69 L85.7836 1189.33 Z" fill="#000000" fill-rule="evenodd" fill-opacity="1" /><path clip-path="url(#clip930)" d="M 0 0 M121.756 1192.41 Q118.145 1192.41 116.316 1195.97 Q114.51 1199.52 114.51 1206.65 Q114.51 1213.75 116.316 1217.32 Q118.145 1220.86 121.756 1220.86 Q125.39 1220.86 127.195 1217.32 Q129.024 1213.75 129.024 1206.65 Q129.024 1199.52 127.195 1195.97 Q125.39 1192.41 121.756 1192.41 M121.756 1188.71 Q127.566 1188.71 130.621 1193.31 Q133.7 1197.9 133.7 1206.65 Q133.7 1215.37 130.621 1219.98 Q127.566 1224.56 121.756 1224.56 Q115.945 1224.56 112.867 1219.98 Q109.811 1215.37 109.811 1206.65 Q109.811 1197.9 112.867 1193.31 Q115.945 1188.71 121.756 1188.71 Z" fill="#000000" fill-rule="evenodd" fill-opacity="1" /><path clip-path="url(#clip930)" d="M 0 0 M148.769 1192.41 Q145.158 1192.41 143.33 1195.97 Q141.524 1199.52 141.524 1206.65 Q141.524 1213.75 143.33 1217.32 Q145.158 1220.86 148.769 1220.86 Q152.404 1220.86 154.209 1217.32 Q156.038 1213.75 156.038 1206.65 Q156.038 1199.52 154.209 1195.97 Q152.404 1192.41 148.769 1192.41 M148.769 1188.71 Q154.58 1188.71 157.635 1193.31 Q160.714 1197.9 160.714 1206.65 Q160.714 1215.37 157.635 1219.98 Q154.58 1224.56 148.769 1224.56 Q142.959 1224.56 139.881 1219.98 Q136.825 1215.37 136.825 1206.65 Q136.825 1197.9 139.881 1193.31 Q142.959 1188.71 148.769 1188.71 Z" fill="#000000" fill-rule="evenodd" fill-opacity="1" /><path clip-path="url(#clip930)" d="M 0 0 M148.769 863.574 Q145.158 863.574 143.33 867.139 Q141.524 870.681 141.524 877.81 Q141.524 884.917 143.33 888.482 Q145.158 892.023 148.769 892.023 Q152.404 892.023 154.209 888.482 Q156.038 884.917 156.038 877.81 Q156.038 870.681 154.209 867.139 Q152.404 863.574 148.769 863.574 M148.769 859.871 Q154.58 859.871 157.635 864.477 Q160.714 869.06 160.714 877.81 Q160.714 886.537 157.635 891.144 Q154.58 895.727 148.769 895.727 Q142.959 895.727 139.881 891.144 Q136.825 886.537 136.825 877.81 Q136.825 869.06 139.881 864.477 Q142.959 859.871 148.769 859.871 Z" fill="#000000" fill-rule="evenodd" fill-opacity="1" /><path clip-path="url(#clip930)" d="M 0 0 M85.7836 531.66 L104.14 531.66 L104.14 535.596 L90.066 535.596 L90.066 544.068 Q91.0845 543.721 92.103 543.559 Q93.1215 543.373 94.14 543.373 Q99.927 543.373 103.307 546.545 Q106.686 549.716 106.686 555.133 Q106.686 560.711 103.214 563.813 Q99.7419 566.892 93.4225 566.892 Q91.2465 566.892 88.978 566.521 Q86.7327 566.151 84.3253 565.41 L84.3253 560.711 Q86.4086 561.846 88.6308 562.401 Q90.853 562.957 93.3299 562.957 Q97.3345 562.957 99.6724 560.85 Q102.01 558.744 102.01 555.133 Q102.01 551.521 99.6724 549.415 Q97.3345 547.309 93.3299 547.309 Q91.4549 547.309 89.5799 547.725 Q87.728 548.142 85.7836 549.021 L85.7836 531.66 Z" fill="#000000" fill-rule="evenodd" fill-opacity="1" /><path clip-path="url(#clip930)" d="M 0 0 M121.756 534.739 Q118.145 534.739 116.316 538.304 Q114.51 541.846 114.51 548.975 Q114.51 556.082 116.316 559.646 Q118.145 563.188 121.756 563.188 Q125.39 563.188 127.195 559.646 Q129.024 556.082 129.024 548.975 Q129.024 541.846 127.195 538.304 Q125.39 534.739 121.756 534.739 M121.756 531.035 Q127.566 531.035 130.621 535.642 Q133.7 540.225 133.7 548.975 Q133.7 557.702 130.621 562.308 Q127.566 566.892 121.756 566.892 Q115.945 566.892 112.867 562.308 Q109.811 557.702 109.811 548.975 Q109.811 540.225 112.867 535.642 Q115.945 531.035 121.756 531.035 Z" fill="#000000" fill-rule="evenodd" fill-opacity="1" /><path clip-path="url(#clip930)" d="M 0 0 M148.769 534.739 Q145.158 534.739 143.33 538.304 Q141.524 541.846 141.524 548.975 Q141.524 556.082 143.33 559.646 Q145.158 563.188 148.769 563.188 Q152.404 563.188 154.209 559.646 Q156.038 556.082 156.038 548.975 Q156.038 541.846 154.209 538.304 Q152.404 534.739 148.769 534.739 M148.769 531.035 Q154.58 531.035 157.635 535.642 Q160.714 540.225 160.714 548.975 Q160.714 557.702 157.635 562.308 Q154.58 566.892 148.769 566.892 Q142.959 566.892 139.881 562.308 Q136.825 557.702 136.825 548.975 Q136.825 540.225 139.881 535.642 Q142.959 531.035 148.769 531.035 Z" fill="#000000" fill-rule="evenodd" fill-opacity="1" /><path clip-path="url(#clip930)" d="M 0 0 M59.7652 233.45 L67.4041 233.45 L67.4041 207.085 L59.0939 208.751 L59.0939 204.492 L67.3578 202.825 L72.0337 202.825 L72.0337 233.45 L79.6725 233.45 L79.6725 237.385 L59.7652 237.385 L59.7652 233.45 Z" fill="#000000" fill-rule="evenodd" fill-opacity="1" /><path clip-path="url(#clip930)" d="M 0 0 M94.7419 205.904 Q91.1308 205.904 89.3021 209.469 Q87.4966 213.011 87.4966 220.14 Q87.4966 227.247 89.3021 230.811 Q91.1308 234.353 94.7419 234.353 Q98.3761 234.353 100.182 230.811 Q102.01 227.247 102.01 220.14 Q102.01 213.011 100.182 209.469 Q98.3761 205.904 94.7419 205.904 M94.7419 202.2 Q100.552 202.2 103.608 206.807 Q106.686 211.39 106.686 220.14 Q106.686 228.867 103.608 233.473 Q100.552 238.057 94.7419 238.057 Q88.9317 238.057 85.8531 233.473 Q82.7975 228.867 82.7975 220.14 Q82.7975 211.39 85.8531 206.807 Q88.9317 202.2 94.7419 202.2 Z" fill="#000000" fill-rule="evenodd" fill-opacity="1" /><path clip-path="url(#clip930)" d="M 0 0 M121.756 205.904 Q118.145 205.904 116.316 209.469 Q114.51 213.011 114.51 220.14 Q114.51 227.247 116.316 230.811 Q118.145 234.353 121.756 234.353 Q125.39 234.353 127.195 230.811 Q129.024 227.247 129.024 220.14 Q129.024 213.011 127.195 209.469 Q125.39 205.904 121.756 205.904 M121.756 202.2 Q127.566 202.2 130.621 206.807 Q133.7 211.39 133.7 220.14 Q133.7 228.867 130.621 233.473 Q127.566 238.057 121.756 238.057 Q115.945 238.057 112.867 233.473 Q109.811 228.867 109.811 220.14 Q109.811 211.39 112.867 206.807 Q115.945 202.2 121.756 202.2 Z" fill="#000000" fill-rule="evenodd" fill-opacity="1" /><path clip-path="url(#clip930)" d="M 0 0 M148.769 205.904 Q145.158 205.904 143.33 209.469 Q141.524 213.011 141.524 220.14 Q141.524 227.247 143.33 230.811 Q145.158 234.353 148.769 234.353 Q152.404 234.353 154.209 230.811 Q156.038 227.247 156.038 220.14 Q156.038 213.011 154.209 209.469 Q152.404 205.904 148.769 205.904 M148.769 202.2 Q154.58 202.2 157.635 206.807 Q160.714 211.39 160.714 220.14 Q160.714 228.867 157.635 233.473 Q154.58 238.057 148.769 238.057 Q142.959 238.057 139.881 233.473 Q136.825 228.867 136.825 220.14 Q136.825 211.39 139.881 206.807 Q142.959 202.2 148.769 202.2 Z" fill="#000000" fill-rule="evenodd" fill-opacity="1" /><polyline clip-path="url(#clip932)" style="stroke:#009af9; stroke-width:8; stroke-opacity:1; fill:none" points="
  196.714,877.118 198.87,871.606 201.026,867.52 203.182,864.485 205.338,862.222 207.494,860.522 209.65,859.235 211.806,858.248 213.962,857.479 216.118,856.87 
  218.274,856.377 220.43,855.968 222.586,855.621 224.742,855.317 226.898,855.046 229.054,854.798 231.21,854.565 233.366,854.343 235.523,854.127 237.679,853.915 
  239.835,853.705 241.991,853.495 244.147,853.283 246.303,853.069 248.459,852.85 250.615,852.627 252.771,852.399 254.927,852.166 257.083,851.925 259.239,851.678 
  261.395,851.423 263.551,851.16 265.707,850.888 267.863,850.607 270.019,850.316 272.175,850.015 274.331,849.701 276.487,849.376 278.643,849.037 280.799,848.685 
  282.955,848.318 285.111,847.934 287.268,847.532 289.424,847.112 291.58,846.67 293.736,846.207 295.892,845.72 298.048,845.207 300.204,844.665 302.36,844.091 
  304.516,843.482 306.672,842.833 308.828,842.141 310.984,841.402 313.14,840.611 315.296,839.762 317.452,838.848 319.608,837.86 321.764,836.787 323.92,835.619 
  326.076,834.357 328.232,832.976 330.388,831.445 332.544,829.74 334.7,827.84 336.856,825.727 339.013,823.392 341.169,820.827 343.325,818.03 345.481,815.001 
  347.637,811.767 349.793,808.449 351.949,805.202 354.105,802.21 356.261,799.681 358.417,797.841 360.573,796.83 362.729,796.698 364.885,797.411 367.041,798.856 
  369.197,800.832 371.353,803.101 373.509,805.504 375.665,807.906 377.821,810.195 379.977,812.279 382.133,814.097 384.289,815.628 386.445,816.86 388.602,817.787 
  390.758,818.404 392.914,818.712 395.07,818.746 397.226,818.446 399.382,817.752 401.538,816.634 403.694,815.093 405.85,813.158 408.006,810.855 410.162,808.123 
  412.318,805.187 414.474,802.24 416.63,799.4 418.786,797.199 420.942,796.262 423.098,796.372 425.254,797.596 427.41,799.821 429.566,802.305 431.722,805.04 
  433.878,807.736 436.034,810.3 438.19,812.441 440.347,814.726 442.503,816.9 444.659,818.846 446.815,820.628 448.971,822.288 451.127,823.839 453.283,825.29 
  455.439,826.646 457.595,827.909 459.751,829.083 461.907,830.164 464.063,831.15 466.219,832.033 468.375,832.802 470.531,833.439 472.687,833.921 474.843,834.212 
  476.999,834.267 479.155,834.029 481.311,833.442 483.467,832.348 485.623,830.491 487.779,827.517 489.935,822.848 492.092,815.303 494.248,802.413 496.404,780.28 
  498.56,746.034 500.716,717.21 502.872,721.545 505.028,744.836 507.184,765.884 509.34,780.436 511.496,790.559 513.652,798.031 515.808,803.873 517.964,808.612 
  520.12,812.647 522.276,816.161 524.432,819.373 526.588,822.225 528.744,824.881 530.9,827.372 533.056,829.716 535.212,831.983 537.368,834.173 539.524,836.308 
  541.681,838.457 543.837,840.535 545.993,842.633 548.149,844.699 550.305,846.801 552.461,848.936 554.617,851.051 556.773,853.192 558.929,855.349 561.085,857.438 
  563.241,859.498 565.397,861.469 567.553,863.314 569.709,864.989 571.865,866.451 574.021,867.67 576.177,868.624 578.333,869.291 580.489,869.669 582.645,869.757 
  584.801,869.554 586.957,869.046 589.113,868.191 591.269,866.868 593.426,864.747 595.582,860.847 597.738,850.096 599.894,641.66 602.05,86.1857 604.206,157.912 
  606.362,222.86 608.518,281.69 610.674,334.947 612.83,383.153 614.986,426.9 617.142,466.495 619.298,502.392 621.454,534.956 623.61,564.514 625.766,591.311 
  627.922,615.614 630.078,637.708 632.234,657.78 634.39,676.029 636.546,692.622 638.702,707.714 640.858,721.446 643.014,733.969 645.171,745.362 647.327,755.754 
  649.483,765.226 651.639,773.859 653.795,781.729 655.951,788.902 658.107,795.428 660.263,801.367 662.419,806.761 664.575,811.657 666.731,816.086 668.887,820.088 
  671.043,823.696 673.199,826.937 675.355,829.839 677.511,832.43 679.667,834.733 681.823,836.775 683.979,838.575 686.135,840.156 688.291,841.539 690.447,842.742 
  692.603,843.782 694.759,844.673 696.916,845.432 699.072,846.073 701.228,846.604 703.384,847.039 705.54,847.386 707.696,847.652 709.852,847.847 712.008,847.975 
  714.164,848.042 716.32,848.051 718.476,848.008 720.632,847.914 722.788,847.771 724.944,847.583 727.1,847.348 729.256,847.069 731.412,846.744 733.568,846.372 
  735.724,845.957 737.88,845.488 740.036,844.972 742.192,844.401 744.348,843.773 746.505,843.083 748.661,842.328 750.817,841.501 752.973,840.598 755.129,839.61 
  757.285,838.533 759.441,837.357 761.597,836.078 763.753,834.689 765.909,833.181 768.065,831.558 770.221,829.82 772.377,827.972 774.533,826.037 776.689,824.041 
  778.845,822.023 781.001,820.038 783.157,818.156 785.313,816.451 787.469,815 789.625,813.872 791.781,813.119 793.937,812.77 796.093,812.828 798.25,813.273 
  800.406,814.066 802.562,815.154 804.718,816.477 806.874,817.979 809.03,819.609 811.186,821.313 813.342,823.049 815.498,824.786 817.654,826.495 819.81,828.153 
  821.966,829.742 824.122,831.252 826.278,832.674 828.434,834.003 830.59,835.234 832.746,836.368 834.902,837.404 837.058,838.346 839.214,839.194 841.37,839.952 
  843.526,840.625 845.682,841.215 847.838,841.727 849.995,842.165 852.151,842.532 854.307,842.832 856.463,843.068 858.619,843.244 860.775,843.361 862.931,843.423 
  865.087,843.431 867.243,843.388 869.399,843.293 871.555,843.149 873.711,842.957 875.867,842.715 878.023,842.424 880.179,842.085 882.335,841.694 884.491,841.252 
  886.647,840.76 888.803,840.21 890.959,839.602 893.115,838.941 895.271,838.215 897.427,837.422 899.583,836.573 901.74,835.649 903.896,834.654 906.052,833.603 
  908.208,832.473 910.364,831.283 912.52,830.047 914.676,828.746 916.832,827.433 918.988,826.098 921.144,824.772 923.3,823.503 925.456,822.288 927.612,821.205 
  929.768,820.254 931.924,819.489 934.08,818.929 936.236,818.59 938.392,818.491 940.548,818.618 942.704,818.973 944.86,819.528 947.016,820.264 949.172,821.152 
  951.329,822.158 953.485,823.264 955.641,824.43 957.797,825.631 959.953,826.86 962.109,828.077 964.265,829.282 966.421,830.452 968.577,831.576 970.733,832.654 
  972.889,833.668 975.045,834.623 977.201,835.513 979.357,836.332 981.513,837.086 983.669,837.77 985.825,838.387 987.981,838.939 990.137,839.425 992.293,839.848 
  994.449,840.212 996.605,840.515 998.761,840.761 1000.92,840.954 1003.07,841.092 1005.23,841.177 1007.39,841.214 1009.54,841.201 1011.7,841.138 1013.85,841.029 
  1016.01,840.873 1018.17,840.671 1020.32,840.42 1022.48,840.122 1024.63,839.778 1026.79,839.385 1028.95,838.942 1031.1,838.447 1033.26,837.901 1035.41,837.304 
  1037.57,836.651 1039.73,835.94 1041.88,835.171 1044.04,834.347 1046.19,833.469 1048.35,832.532 1050.51,831.538 1052.66,830.495 1054.82,829.417 1056.97,828.309 
  1059.13,827.177 1061.29,826.037 1063.44,824.919 1065.6,823.854 1067.75,822.856 1069.91,821.943 1072.07,821.149 1074.22,820.515 1076.38,820.054 1078.53,819.768 
  1080.69,819.665 1082.85,819.757 1085,820.04 1087.16,820.489 1089.32,821.086 1091.47,821.814 1093.63,822.653 1095.78,823.576 1097.94,824.559 1100.1,825.581 
  1102.25,826.625 1104.41,827.673 1106.56,828.71 1108.72,829.725 1110.88,830.709 1113.03,831.651 1115.19,832.546 1117.34,833.385 1119.5,834.166 1121.66,834.889 
  1123.81,835.554 1125.97,836.159 1128.12,836.701 1130.28,837.182 1132.44,837.603 1134.59,837.968 1136.75,838.276 1138.9,838.528 1141.06,838.725 1143.22,838.868 
  1145.37,838.96 1147.53,839.001 1149.68,838.993 1151.84,838.936 1154,838.832 1156.15,838.679 1158.31,838.48 1160.46,838.233 1162.62,837.938 1164.78,837.595 
  1166.93,837.202 1169.09,836.76 1171.24,836.266 1173.4,835.72 1175.56,835.119 1177.71,834.462 1179.87,833.748 1182.03,832.974 1184.18,832.14 1186.34,831.244 
  1188.49,830.288 1190.65,829.271 1192.81,828.197 1194.96,827.07 1197.12,825.901 1199.27,824.7 1201.43,823.484 1203.59,822.269 1205.74,821.08 1207.9,819.951 
  1210.05,818.913 1212.21,817.994 1214.37,817.219 1216.52,816.611 1218.68,816.19 1220.83,815.968 1222.99,815.935 1225.15,816.083 1227.3,816.401 1229.46,816.874 
  1231.61,817.479 1233.77,818.186 1235.93,818.962 1238.08,819.762 1240.24,820.553 1242.39,821.317 1244.55,822.032 1246.71,822.679 1248.86,823.238 1251.02,823.691 
  1253.17,824.021 1255.33,824.211 1257.49,824.247 1259.64,824.111 1261.8,823.786 1263.95,823.249 1266.11,822.476 1268.27,821.442 1270.42,820.128 1272.58,818.612 
  1274.73,816.744 1276.89,814.395 1279.05,811.535 1281.2,808.232 1283.36,804.648 1285.52,801.047 1287.67,797.788 1289.83,795.324 1291.98,793.894 1294.14,793.576 
  1296.3,794.392 1298.45,796.193 1300.61,798.673 1302.76,801.567 1304.92,804.653 1307.08,807.752 1309.23,810.732 1311.39,813.517 1313.54,816.067 1315.7,818.363 
  1317.86,820.398 1320.01,822.183 1322.17,823.743 1324.32,825.085 1326.48,826.208 1328.64,827.11 1330.79,827.789 1332.95,828.234 1335.1,828.419 1337.26,828.324 
  1339.42,827.917 1341.57,827.139 1343.73,825.902 1345.88,824.105 1348.04,821.743 1350.2,818.362 1352.35,813.548 1354.51,807.114 1356.66,799.097 1358.82,789.746 
  1360.98,780.499 1363.13,773.833 1365.29,771.555 1367.44,773.808 1369.6,779.233 1371.76,785.944 1373.91,792.885 1376.07,799.338 1378.22,804.876 1380.38,809.574 
  1382.54,813.635 1384.69,817.093 1386.85,820.141 1389.01,822.872 1391.16,825.331 1393.32,827.579 1395.47,829.647 1397.63,831.553 1399.79,833.306 1401.94,834.93 
  1404.1,836.418 1406.25,837.759 1408.41,838.956 1410.57,839.997 1412.72,840.868 1414.88,841.551 1417.03,842.023 1419.19,842.254 1421.35,842.206 1423.5,841.823 
  1425.66,841.017 1427.81,839.634 1429.97,837.519 1432.13,834.254 1434.28,829.027 1436.44,820.422 1438.59,804.729 1440.75,774.987 1442.91,730.839 1445.06,709.735 
  1447.22,719.132 1449.37,737.21 1451.53,755.81 1453.69,772.284 1455.84,785.474 1458,795.386 1460.15,802.768 1462.31,808.475 1464.47,813.105 1466.62,817.017 
  1468.78,820.435 1470.93,823.511 1473.09,826.318 1475.25,828.944 1477.4,831.385 1479.56,833.707 1481.71,835.927 1483.87,838.022 1486.03,840.054 1488.18,841.978 
  1490.34,843.819 1492.5,845.556 1494.65,847.18 1496.81,848.673 1498.96,850.019 1501.12,851.195 1503.28,852.181 1505.43,852.957 1507.59,853.504 1509.74,853.802 
  1511.9,853.832 1514.06,853.566 1516.21,852.964 1518.37,851.958 1520.52,850.417 1522.68,848.112 1524.84,844.61 1526.99,838.705 1529.15,827.567 1531.3,799.657 
  1533.46,709.484 1535.62,635.902 1537.77,653.506 1539.93,676.468 1542.08,698.468 1544.24,719.202 1546.4,738.444 1548.55,755.781 1550.71,770.736 1552.86,783.035 
  1555.02,792.798 1557.18,800.48 1559.33,806.624 1561.49,811.662 1563.64,815.93 1565.8,819.654 1567.96,822.97 1570.11,825.95 1572.27,828.741 1574.42,831.295 
  1576.58,833.669 1578.74,835.883 1580.89,837.948 1583.05,839.869 1585.2,841.634 1587.36,843.243 1589.52,844.683 1591.67,845.942 1593.83,847.01 1595.99,847.874 
  1598.14,848.522 1600.3,848.944 1602.45,849.127 1604.61,849.059 1606.77,848.717 1608.92,848.071 1611.08,847.071 1613.23,845.629 1615.39,843.577 1617.55,840.708 
  1619.7,836.498 1621.86,829.859 1624.01,818.65 1626.17,796.911 1628.33,754.642 1630.48,709.927 1632.64,708.731 1634.79,728.048 1636.95,750.101 1639.11,769.789 
  1641.26,784.866 1643.42,795.279 1645.57,802.574 1647.73,808.028 1649.89,812.428 1652.04,816.14 1654.2,819.386 1656.35,822.295 1658.51,824.956 1660.67,827.431 
  1662.82,829.763 1664.98,831.979 1667.13,834.001 1669.29,836.314 1671.45,838.251 1673.6,840.201 1675.76,842.136 1677.91,844.035 1680.07,845.899 1682.23,847.727 
  1684.38,849.51 1686.54,851.228 1688.69,852.852 1690.85,854.358 1693.01,855.726 1695.16,856.918 1697.32,857.906 1699.48,858.667 1701.63,859.173 1703.79,859.41 
  1705.94,859.352 1708.1,858.974 1710.26,858.225 1712.41,857.015 1714.57,855.136 1716.72,852.223 1718.88,847.191 1721.04,836.704 1723.19,803.266 1725.35,584.069 
  1727.5,530.178 1729.66,553.115 1731.82,579.623 1733.97,604.896 1736.13,628.094 1738.28,649.206 1740.44,668.38 1742.6,685.787 1744.75,701.589 1746.91,715.938 
  1749.06,728.967 1751.22,740.801 1753.38,751.551 1755.53,761.316 1757.69,770.187 1759.84,778.244 1762,785.562 1764.16,792.203 1766.31,798.227 1768.47,803.688 
  1770.62,808.633 1772.78,813.102 1774.94,817.136 1777.09,820.768 1779.25,824.033 1781.4,826.957 1783.56,829.569 1785.72,831.894 1787.87,833.956 1790.03,835.776 
  1792.18,837.376 1794.34,838.774 1796.5,839.99 1798.65,841.04 1800.81,841.94 1802.97,842.704 1805.12,843.346 1807.28,843.877 1809.43,844.308 1811.59,844.648 
  1813.75,844.907 1815.9,845.092 1818.06,845.208 1820.21,845.263 1822.37,845.259 1824.53,845.202 1826.68,845.094 1828.84,844.939 1830.99,844.737 1833.15,844.49 
  1835.31,844.198 1837.46,843.862 1839.62,843.481 1841.77,843.055 1843.93,842.58 1846.09,842.056 1848.24,841.478 1850.4,840.843 1852.55,840.146 1854.71,839.381 
  1856.87,838.543 1859.02,837.624 1861.18,836.616 1863.33,835.507 1865.49,834.287 1867.65,832.948 1869.8,831.471 1871.96,829.838 1874.11,828.04 1876.27,826.073 
  1878.43,823.94 1880.58,821.652 1882.74,819.217 1884.89,816.684 1887.05,814.18 1889.21,811.83 1891.36,809.754 1893.52,808.064 1895.67,806.87 1897.83,806.266 
  1899.99,806.259 1902.14,806.819 1904.3,807.886 1906.46,809.369 1908.61,811.14 1910.77,813.046 1912.92,815.005 1915.08,816.951 1917.24,818.825 1919.39,820.588 
  1921.55,822.214 1923.7,823.683 1925.86,824.977 1928.02,826.085 1930.17,826.997 1932.33,827.703 1934.48,828.194 1936.64,828.454 1938.8,828.468 1940.95,828.216 
  1943.11,827.665 1945.26,826.773 1947.42,825.484 1949.58,823.741 1951.73,821.492 1953.89,818.517 1956.04,814.659 1958.2,809.862 1960.36,804.169 1962.51,797.707 
  1964.67,791.173 1966.82,785.81 1968.98,782.577 1971.14,782.085 1973.29,784.182 1975.45,788.159 1977.6,793.151 1979.76,798.337 1981.92,803.402 1984.07,808.14 
  1986.23,812.345 1988.38,815.976 1990.54,819.139 1992.7,821.898 1994.85,824.34 1997.01,826.507 1999.16,828.437 2001.32,830.164 2003.48,831.706 2005.63,833.073 
  2007.79,834.27 2009.95,835.296 2012.1,836.143 2014.26,836.8 2016.41,837.249 2018.57,837.465 2020.73,837.418 2022.88,837.057 2025.04,836.307 2027.19,835.045 
  2029.35,833.139 2031.51,830.328 2033.66,826.08 2035.82,819.588 2037.97,809.417 2040.13,793.096 2042.29,769.171 2044.44,745.386 2046.6,737.507 2048.75,745.175 
  2050.91,759.147 2053.07,773.63 2055.22,786.066 2057.38,795.781 2059.53,803.053 2061.69,808.593 2063.85,813.063 2066,816.858 2068.16,820.156 2070.31,823.093 
  2072.47,825.792 2074.63,828.279 2076.78,830.651 2078.94,832.842 2081.09,834.986 2083.25,837.001 2085.41,838.945 2087.56,840.824 2089.72,842.609 2091.87,844.331 
  2094.03,845.949 2096.19,847.475 2098.34,848.876 2100.5,850.144 2102.66,851.251 2104.81,852.179 2106.97,852.903 2109.12,853.402 2111.28,853.65 2113.44,853.619 
  2115.59,853.271 2117.75,852.541 2119.9,851.329 2122.06,849.45 2124.22,846.485 2126.37,841.669 2128.53,832.6 2130.68,811.506 2132.84,738.159 2135,623.168 
  2137.15,633.814 2139.31,655.184 2141.46,675.344 2143.62,693.938 2145.78,710.961 2147.93,726.431 2150.09,740.38 2152.24,752.849 2154.4,763.908 2156.56,773.646 
  2158.71,782.18 2160.87,789.637 2163.02,796.156 2165.18,801.864 2167.34,806.884 2169.49,811.316 2171.65,815.249 2173.8,818.752 2175.96,821.878 2178.12,824.674 
  2180.27,827.173 2182.43,829.398 2184.58,831.373 2186.74,833.116 2188.9,834.637 2191.05,835.951 2193.21,837.071 2195.36,838.006 2197.52,838.765 2199.68,839.361 
  2201.83,839.803 2203.99,840.098 2206.15,840.256 2208.3,840.281 2210.46,840.182 2212.61,839.96 2214.77,839.618 2216.93,839.155 2219.08,838.571 2221.24,837.86 
  2223.39,837.013 2225.55,836.02 2227.71,834.863 2229.86,833.524 2232.02,831.977 2234.17,830.188 2236.33,828.119 2238.49,825.725 2240.64,822.98 2242.8,819.801 
  2244.95,816.129 2247.11,812.009 2249.27,807.579 2251.42,803.081 2253.58,798.884 2255.73,795.586 2257.89,793.642 2260.05,793.256 2262.2,794.373 2264.36,796.732 
  2266.51,799.953 2268.67,803.654 2270.83,807.501 2272.98,811.212 2275.14,814.645 2277.29,817.75 2279.45,820.503 2281.61,822.915 2283.76,825.025 2285.92,826.874 
  2288.07,828.477 2290.23,829.856 2292.39,831.043 2294.54,832.058 2296.7,832.886 2298.85,833.522 2301.01,833.951 2303.17,834.136 2305.32,834.058 2307.48,833.672 
  2309.64,832.885 2311.79,831.563 2313.95,829.518 2316.1,826.476 2318.26,821.853 2320.42,814.63 2322.57,803.35 2324.73,785.954 2326.88,762.779 2329.04,744.634 
  2331.2,742.645 2333.35,753.623 2335.51,768.82 2337.66,782.554 2339.82,792.782 2341.98,800.298 2344.13,805.903 2346.29,810.442 2348.44,814.252 2350.6,817.56 
  2352.76,820.447 
  "/>
<polyline clip-path="url(#clip932)" style="stroke:#e26f46; stroke-width:8; stroke-opacity:1; fill:none" points="
  196.714,877.118 198.87,876.408 201.026,874.749 203.182,872.391 205.338,869.526 207.494,866.293 209.65,862.796 211.806,859.113 213.962,855.297 216.118,851.391 
  218.274,847.423 220.43,843.416 222.586,839.386 224.742,835.343 226.898,831.297 229.054,827.254 231.21,823.22 233.366,819.198 235.523,815.191 237.679,811.201 
  239.835,807.231 241.991,803.282 244.147,799.356 246.303,795.454 248.459,791.577 250.615,787.727 252.771,783.905 254.927,780.111 257.083,776.347 259.239,772.615 
  261.395,768.916 263.551,765.251 265.707,761.621 267.863,758.028 270.019,754.473 272.175,750.959 274.331,747.487 276.487,744.06 278.643,740.678 280.799,737.345 
  282.955,734.063 285.111,730.835 287.268,727.664 289.424,724.553 291.58,721.506 293.736,718.527 295.892,715.618 298.048,712.785 300.204,710.034 302.36,707.371 
  304.516,704.802 306.672,702.335 308.828,699.979 310.984,697.741 313.14,695.631 315.296,693.661 317.452,691.845 319.608,690.198 321.764,688.74 323.92,687.487 
  326.076,686.451 328.232,685.665 330.388,685.176 332.544,685.023 334.7,685.246 336.856,685.88 339.013,686.958 341.169,688.509 343.325,690.559 345.481,693.133 
  347.637,696.221 349.793,699.724 351.949,703.492 354.105,707.322 356.261,710.968 358.417,714.14 360.573,716.618 362.729,718.274 364.885,719.061 367.041,719.017 
  369.197,718.27 371.353,717.005 373.509,715.369 375.665,713.498 377.821,711.507 379.977,709.5 382.133,707.561 384.289,705.742 386.445,704.083 388.602,702.622 
  390.758,701.395 392.914,700.431 395.07,699.731 397.226,699.382 399.382,699.472 401.538,700.067 403.694,701.208 405.85,702.913 408.006,705.206 410.162,708.174 
  412.318,711.644 414.474,715.435 416.63,719.395 418.786,722.962 420.942,725.446 423.098,726.917 425.254,727.199 427.41,726.317 429.566,724.929 431.722,723.031 
  433.878,720.901 436.034,718.642 438.19,716.552 440.347,714.099 442.503,711.544 444.659,709.016 446.815,706.465 448.971,703.863 451.127,701.208 453.283,698.502 
  455.439,695.75 457.595,692.959 459.751,690.135 461.907,687.291 464.063,684.438 466.219,681.595 468.375,678.785 470.531,676.036 472.687,673.387 474.843,670.889 
  476.999,668.609 479.155,666.629 481.311,665.04 483.467,664.042 485.623,663.952 487.779,665.214 489.935,668.545 492.092,675.351 494.248,688.49 496.404,712.583 
  498.56,751.639 500.716,788.707 502.872,793.906 505.028,778.532 507.184,763.074 509.34,752.35 511.496,744.847 513.652,739.131 515.808,734.388 517.964,730.221 
  520.12,726.32 522.276,722.561 524.432,718.77 526.588,715.039 528.744,711.228 530.9,707.325 533.056,703.326 535.212,699.174 537.368,694.875 539.524,690.415 
  541.681,685.728 543.837,680.902 545.993,675.847 548.149,670.616 550.305,665.139 552.461,659.418 554.617,653.505 556.773,647.352 558.929,640.97 561.085,634.443 
  563.241,627.736 565.397,620.916 567.553,614.031 569.709,607.141 571.865,600.305 574.021,593.579 576.177,587.009 578.333,580.645 580.489,574.517 582.645,568.656 
  584.801,563.092 586.957,557.868 589.113,553.059 591.269,548.825 593.426,545.557 595.582,544.354 597.738,550.646 599.894,759.035 602.05,1384.24 604.206,1381.45 
  606.362,1378.61 608.518,1375.7 610.674,1372.77 612.83,1369.82 614.986,1366.74 617.142,1363.64 619.298,1360.47 621.454,1357.21 623.61,1353.86 625.766,1350.45 
  627.922,1346.98 630.078,1343.4 632.234,1339.74 634.39,1335.99 636.546,1332.15 638.702,1328.23 640.858,1324.23 643.014,1320.13 645.171,1315.96 647.327,1311.71 
  649.483,1307.38 651.639,1302.98 653.795,1298.53 655.951,1294.02 658.107,1289.47 660.263,1284.89 662.419,1280.29 664.575,1275.67 666.731,1271.05 668.887,1266.43 
  671.043,1261.83 673.199,1257.26 675.355,1252.72 677.511,1248.21 679.667,1243.75 681.823,1239.33 683.979,1234.96 686.135,1230.64 688.291,1226.37 690.447,1222.16 
  692.603,1217.99 694.759,1213.88 696.916,1209.81 699.072,1205.8 701.228,1201.83 703.384,1197.91 705.54,1194.05 707.696,1190.23 709.852,1186.46 712.008,1182.74 
  714.164,1179.07 716.32,1175.46 718.476,1171.9 720.632,1168.4 722.788,1164.96 724.944,1161.58 727.1,1158.27 729.256,1155.02 731.412,1151.86 733.568,1148.78 
  735.724,1145.78 737.88,1142.87 740.036,1140.07 742.192,1137.37 744.348,1134.79 746.505,1132.34 748.661,1130.02 750.817,1127.86 752.973,1125.86 755.129,1124.03 
  757.285,1122.4 759.441,1120.98 761.597,1119.79 763.753,1118.84 765.909,1118.16 768.065,1117.74 770.221,1117.61 772.377,1117.77 774.533,1118.2 776.689,1118.9 
  778.845,1119.81 781.001,1120.9 783.157,1122.07 785.313,1123.25 787.469,1124.33 789.625,1125.22 791.781,1125.83 793.937,1126.08 796.093,1125.95 798.25,1125.4 
  800.406,1124.45 802.562,1123.1 804.718,1121.4 806.874,1119.38 809.03,1117.07 811.186,1114.52 813.342,1111.77 815.498,1108.84 817.654,1105.77 819.81,1102.58 
  821.966,1099.29 824.122,1095.93 826.278,1092.51 828.434,1089.05 830.59,1085.56 832.746,1082.05 834.902,1078.52 837.058,1074.99 839.214,1071.47 841.37,1067.95 
  843.526,1064.45 845.682,1060.97 847.838,1057.51 849.995,1054.08 852.151,1050.68 854.307,1047.31 856.463,1043.98 858.619,1040.69 860.775,1037.44 862.931,1034.24 
  865.087,1031.09 867.243,1027.99 869.399,1024.95 871.555,1021.97 873.711,1019.06 875.867,1016.22 878.023,1013.45 880.179,1010.77 882.335,1008.17 884.491,1005.67 
  886.647,1003.26 888.803,1000.96 890.959,998.777 893.115,996.712 895.271,994.781 897.427,992.992 899.583,991.342 901.74,989.855 903.896,988.535 906.052,987.373 
  908.208,986.4 910.364,985.602 912.52,984.973 914.676,984.534 916.832,984.239 918.988,984.098 921.144,984.082 923.3,984.139 925.456,984.265 927.612,984.376 
  929.768,984.456 931.924,984.436 934.08,984.278 936.236,983.944 938.392,983.392 940.548,982.612 942.704,981.58 944.86,980.302 947.016,978.779 949.172,977.022 
  951.329,975.052 953.485,972.877 955.641,970.528 957.797,968.024 959.953,965.372 962.109,962.608 964.265,959.737 966.421,956.78 968.577,953.755 970.733,950.666 
  972.889,947.536 975.045,944.367 977.201,941.171 979.357,937.96 981.513,934.735 983.669,931.508 985.825,928.284 987.981,925.065 990.137,921.862 992.293,918.675 
  994.449,915.509 996.605,912.37 998.761,909.26 1000.92,906.182 1003.07,903.143 1005.23,900.144 1007.39,897.189 1009.54,894.281 1011.7,891.427 1013.85,888.629 
  1016.01,885.89 1018.17,883.216 1020.32,880.612 1022.48,878.083 1024.63,875.633 1026.79,873.268 1028.95,870.996 1031.1,868.821 1033.26,866.75 1035.41,864.788 
  1037.57,862.944 1039.73,861.226 1041.88,859.639 1044.04,858.187 1046.19,856.876 1048.35,855.713 1050.51,854.704 1052.66,853.845 1054.82,853.129 1056.97,852.552 
  1059.13,852.111 1061.29,851.79 1063.44,851.56 1065.6,851.389 1067.75,851.255 1069.91,851.129 1072.07,850.969 1074.22,850.722 1076.38,850.358 1078.53,849.856 
  1080.69,849.188 1082.85,848.326 1085,847.257 1087.16,845.984 1089.32,844.509 1091.47,842.838 1093.63,840.978 1095.78,838.945 1097.94,836.757 1100.1,834.428 
  1102.25,831.975 1104.41,829.412 1106.56,826.756 1108.72,824.02 1110.88,821.216 1113.03,818.356 1115.19,815.452 1117.34,812.517 1119.5,809.558 1121.66,806.582 
  1123.81,803.596 1125.97,800.606 1128.12,797.621 1130.28,794.646 1132.44,791.686 1134.59,788.743 1136.75,785.823 1138.9,782.931 1141.06,780.073 1143.22,777.25 
  1145.37,774.468 1147.53,771.729 1149.68,769.037 1151.84,766.398 1154,763.815 1156.15,761.292 1158.31,758.835 1160.46,756.447 1162.62,754.133 1164.78,751.9 
  1166.93,749.753 1169.09,747.697 1171.24,745.74 1173.4,743.888 1175.56,742.147 1177.71,740.526 1179.87,739.03 1182.03,737.667 1184.18,736.446 1186.34,735.373 
  1188.49,734.453 1190.65,733.693 1192.81,733.095 1194.96,732.659 1197.12,732.381 1199.27,732.251 1201.43,732.258 1203.59,732.386 1205.74,732.607 1207.9,732.885 
  1210.05,733.18 1212.21,733.455 1214.37,733.671 1216.52,733.792 1218.68,733.778 1220.83,733.594 1222.99,733.229 1225.15,732.675 1227.3,731.927 1229.46,730.989 
  1231.61,729.871 1233.77,728.589 1235.93,727.167 1238.08,725.637 1240.24,724.032 1242.39,722.376 1244.55,720.694 1246.71,719.012 1248.86,717.356 1251.02,715.756 
  1253.17,714.239 1255.33,712.836 1257.49,711.576 1259.64,710.492 1261.8,709.621 1263.95,709.006 1266.11,708.692 1268.27,708.731 1270.42,709.163 1272.58,709.925 
  1274.73,711.219 1276.89,713.228 1279.05,716.024 1281.2,719.57 1283.36,723.72 1285.52,728.22 1287.67,732.704 1289.83,736.7 1291.98,739.875 1294.14,742.023 
  1296.3,743.018 1298.45,742.905 1300.61,741.888 1302.76,740.183 1304.92,737.988 1307.08,735.472 1309.23,732.767 1311.39,729.972 1313.54,727.145 1315.7,724.329 
  1317.86,721.553 1320.01,718.833 1322.17,716.173 1324.32,713.589 1326.48,711.102 1328.64,708.732 1330.79,706.506 1332.95,704.458 1335.1,702.639 1337.26,701.092 
  1339.42,699.882 1341.57,699.106 1343.73,698.891 1345.88,699.385 1348.04,700.659 1350.2,703.244 1352.35,707.662 1354.51,714.24 1356.66,723.11 1358.82,734.202 
  1360.98,746.141 1363.13,756.331 1365.29,762.585 1367.44,764.296 1369.6,762.439 1371.76,758.666 1373.91,753.981 1376.07,749.122 1378.22,744.569 1380.38,740.341 
  1382.54,736.319 1384.69,732.52 1386.85,728.806 1389.01,725.123 1391.16,721.452 1393.32,717.758 1395.47,714.028 1397.63,710.261 1399.79,706.462 1401.94,702.627 
  1404.1,698.774 1406.25,694.922 1408.41,691.09 1410.57,687.301 1412.72,683.585 1414.88,679.981 1417.03,676.53 1419.19,673.283 1421.35,670.307 1423.5,667.686 
  1425.66,665.547 1427.81,664.092 1429.97,663.537 1432.13,664.402 1434.28,667.652 1436.44,674.948 1438.59,690.499 1440.75,722.304 1442.91,772.343 1445.06,802.961 
  1447.22,803.464 1449.37,793.793 1451.53,781.733 1453.69,770.032 1455.84,760.126 1458,752.345 1460.15,746.238 1462.31,741.158 1464.47,736.644 1466.62,732.422 
  1468.78,728.329 1470.93,724.254 1473.09,720.153 1475.25,715.964 1477.4,711.705 1479.56,707.328 1481.71,702.827 1483.87,698.234 1486.03,693.499 1488.18,688.673 
  1490.34,683.743 1492.5,678.737 1494.65,673.676 1496.81,668.59 1498.96,663.509 1501.12,658.472 1503.28,653.516 1505.43,648.682 1507.59,644.012 1509.74,639.547 
  1511.9,635.333 1514.06,631.428 1516.21,627.901 1518.37,624.858 1520.52,622.476 1522.68,621.046 1524.84,621.097 1526.99,624.014 1529.15,632.965 1531.3,660.481 
  1533.46,755.561 1535.62,844.451 1537.77,843.73 1539.93,835.466 1542.08,825.91 1544.24,815.482 1546.4,804.545 1548.55,793.679 1550.71,783.579 1552.86,774.77 
  1555.02,767.397 1557.18,761.236 1559.33,755.927 1561.49,751.168 1563.64,746.715 1565.8,742.409 1567.96,738.159 1570.11,733.927 1572.27,729.605 1574.42,725.249 
  1576.58,720.826 1578.74,716.334 1580.89,711.776 1583.05,707.166 1585.2,702.524 1587.36,697.872 1589.52,693.234 1591.67,688.643 1593.83,684.127 1595.99,679.718 
  1598.14,675.449 1600.3,671.354 1602.45,667.465 1604.61,663.823 1606.77,660.474 1608.92,657.479 1611.08,654.919 1613.23,652.923 1615.39,651.71 1617.55,651.551 
  1619.7,653.087 1621.86,657.589 1624.01,667.519 1626.17,689.554 1628.33,735.242 1630.48,788.187 1632.64,799.966 1634.79,790.072 1636.95,775.309 1639.11,760.793 
  1641.26,749.141 1643.42,740.886 1645.57,734.878 1647.73,730.084 1649.89,725.857 1652.04,721.914 1654.2,718.092 1656.35,714.299 1658.51,710.477 1660.67,706.584 
  1662.82,702.591 1664.98,698.489 1667.13,694.357 1669.29,689.737 1671.45,685.278 1673.6,680.609 1675.76,675.759 1677.91,670.752 1680.07,665.592 1682.23,660.282 
  1684.38,654.838 1686.54,649.283 1688.69,643.656 1690.85,637.988 1693.01,632.316 1695.16,626.691 1697.32,621.161 1699.48,615.771 1701.63,610.571 1703.79,605.604 
  1705.94,600.922 1708.1,596.582 1710.26,592.668 1712.41,589.313 1714.57,586.778 1716.72,585.509 1718.88,586.748 1721.04,594.165 1723.19,626.425 1725.35,854.512 
  1727.5,936.066 1729.66,940.241 1731.82,938.296 1733.97,934.981 1736.13,931.317 1738.28,927.524 1740.44,923.656 1742.6,919.727 1744.75,915.745 1746.91,911.709 
  1749.06,907.625 1751.22,903.494 1753.38,899.319 1755.53,895.103 1757.69,890.851 1759.84,886.567 1762,882.254 1764.16,877.92 1766.31,873.57 1768.47,869.209 
  1770.62,864.846 1772.78,860.487 1774.94,856.139 1777.09,851.808 1779.25,847.502 1781.4,843.226 1783.56,838.986 1785.72,834.787 1787.87,830.631 1790.03,826.523 
  1792.18,822.465 1794.34,818.458 1796.5,814.504 1798.65,810.602 1800.81,806.752 1802.97,802.956 1805.12,799.212 1807.28,795.519 1809.43,791.879 1811.59,788.291 
  1813.75,784.754 1815.9,781.27 1818.06,777.839 1820.21,774.461 1822.37,771.139 1824.53,767.874 1826.68,764.667 1828.84,761.522 1830.99,758.44 1833.15,755.427 
  1835.31,752.484 1837.46,749.618 1839.62,746.832 1841.77,744.132 1843.93,741.525 1846.09,739.018 1848.24,736.62 1850.4,734.339 1852.55,732.187 1854.71,730.176 
  1856.87,728.317 1859.02,726.628 1861.18,725.124 1863.33,723.827 1865.49,722.758 1867.65,721.935 1869.8,721.39 1871.96,721.157 1874.11,721.262 1876.27,721.724 
  1878.43,722.555 1880.58,723.762 1882.74,725.35 1884.89,727.28 1887.05,729.435 1889.21,731.683 1891.36,733.887 1893.52,735.898 1895.67,737.561 1897.83,738.715 
  1899.99,739.294 1902.14,739.277 1904.3,738.676 1906.46,737.541 1908.61,735.958 1910.77,734.047 1912.92,731.889 1915.08,729.548 1917.24,727.084 1919.39,724.548 
  1921.55,721.98 1923.7,719.416 1925.86,716.889 1928.02,714.427 1930.17,712.06 1932.33,709.817 1934.48,707.73 1936.64,705.836 1938.8,704.173 1940.95,702.788 
  1943.11,701.742 1945.26,701.111 1947.42,700.987 1949.58,701.466 1951.73,702.651 1953.89,704.826 1956.04,708.223 1958.2,712.985 1960.36,719.161 1962.51,726.72 
  1964.67,735.005 1966.82,742.732 1968.98,748.781 1971.14,752.268 1973.29,753.078 1975.45,751.695 1977.6,748.843 1979.76,745.269 1981.92,741.306 1984.07,737.199 
  1986.23,733.179 1988.38,729.331 1990.54,725.61 1992.7,721.995 1994.85,718.439 1997.01,714.929 1999.16,711.45 2001.32,707.992 2003.48,704.557 2005.63,701.15 
  2007.79,697.785 2009.95,694.48 2012.1,691.261 2014.26,688.156 2016.41,685.203 2018.57,682.449 2020.73,679.95 2022.88,677.785 2025.04,676.066 2027.19,674.956 
  2029.35,674.642 2031.51,675.464 2033.66,678.083 2035.82,683.478 2037.97,693.358 2040.13,710.693 2042.29,737.651 2044.44,766.983 2046.6,782.083 2048.75,781.564 
  2050.91,773.6 2053.07,763.672 2055.22,754.428 2057.38,746.801 2059.53,740.773 2061.69,735.838 2063.85,731.478 2066,727.383 2068.16,723.432 2070.31,719.531 
  2072.47,715.587 2074.63,711.594 2076.78,707.476 2078.94,703.308 2081.09,698.975 2083.25,694.56 2085.41,690.018 2087.56,685.352 2089.72,680.595 2091.87,675.727 
  2094.03,670.795 2096.19,665.798 2098.34,660.779 2100.5,655.76 2102.66,650.782 2104.81,645.882 2106.97,641.103 2109.12,636.488 2111.28,632.086 2113.44,627.951 
  2115.59,624.154 2117.75,620.791 2119.9,618.004 2122.06,616.039 2124.22,615.396 2126.37,616.979 2128.53,623.486 2130.68,643.402 2132.84,719.655 2135,848.934 
  2137.15,856.946 2139.31,852.322 2141.46,846.824 2143.62,840.953 2145.78,834.873 2147.93,828.721 2150.09,822.621 2152.24,816.679 2154.4,810.971 2156.56,805.545 
  2158.71,800.412 2160.87,795.556 2163.02,790.942 2165.18,786.527 2167.34,782.265 2169.49,778.119 2171.65,774.055 2173.8,770.05 2175.96,766.089 2178.12,762.164 
  2180.27,758.272 2182.43,754.416 2184.58,750.601 2186.74,746.834 2188.9,743.124 2191.05,739.479 2193.21,735.908 2195.36,732.419 2197.52,729.02 2199.68,725.717 
  2201.83,722.517 2203.99,719.426 2206.15,716.451 2208.3,713.598 2210.46,710.875 2212.61,708.29 2214.77,705.853 2216.93,703.576 2219.08,701.474 2221.24,699.563 
  2223.39,697.866 2225.55,696.408 2227.71,695.219 2229.86,694.336 2232.02,693.807 2234.17,693.687 2236.33,694.04 2238.49,694.941 2240.64,696.442 2242.8,698.677 
  2244.95,701.753 2247.11,705.671 2249.27,710.32 2251.42,715.484 2253.58,720.806 2255.73,725.602 2257.89,729.288 2260.05,731.53 2262.2,732.238 2264.36,731.53 
  2266.51,729.678 2268.67,727.002 2270.83,723.803 2272.98,720.356 2275.14,716.826 2277.29,713.299 2279.45,709.832 2281.61,706.449 2283.76,703.142 2285.92,699.9 
  2288.07,696.73 2290.23,693.631 2292.39,690.594 2294.54,687.624 2296.7,684.748 2298.85,681.99 2301.01,679.387 2303.17,676.995 2305.32,674.858 2307.48,673.054 
  2309.64,671.712 2311.79,671.012 2313.95,671.198 2316.1,672.625 2318.26,676.006 2320.42,682.584 2322.57,694.134 2324.73,713.207 2326.88,740.117 2329.04,764.199 
  2331.2,773.17 2333.35,768.643 2335.51,758.534 2337.66,748.41 2339.82,740.58 2341.98,734.587 2344.13,729.856 2346.29,725.692 2348.44,721.845 2350.6,718.148 
  2352.76,714.559 
  "/>
<path clip-path="url(#clip930)" d="
M1936 274.549 L2280.89 274.549 L2280.89 93.1086 L1936 93.1086  Z
  " fill="#ffffff" fill-rule="evenodd" fill-opacity="1"/>
<polyline clip-path="url(#clip930)" style="stroke:#000000; stroke-width:4; stroke-opacity:1; fill:none" points="
  1936,274.549 2280.89,274.549 2280.89,93.1086 1936,93.1086 1936,274.549 
  "/>
<polyline clip-path="url(#clip930)" style="stroke:#009af9; stroke-width:4; stroke-opacity:1; fill:none" points="
  1959.96,153.589 2103.7,153.589 
  "/>
<path clip-path="url(#clip930)" d="M 0 0 M2127.65 180.73 L2127.65 144.943 L2131.91 144.943 L2131.91 161.054 Q2131.91 164.41 2133.51 166.123 Q2135.11 167.836 2138.23 167.836 Q2141.66 167.836 2143.37 165.892 Q2145.11 163.947 2145.11 160.058 L2145.11 144.943 L2149.37 144.943 L2149.37 164.896 Q2149.37 166.285 2149.76 166.957 Q2150.18 167.605 2151.03 167.605 Q2151.24 167.605 2151.61 167.489 Q2151.98 167.35 2152.63 167.072 L2152.63 170.498 Q2151.68 171.031 2150.82 171.285 Q2149.99 171.54 2149.18 171.54 Q2147.58 171.54 2146.63 170.637 Q2145.68 169.734 2145.34 167.883 Q2144.18 169.711 2142.49 170.637 Q2140.82 171.54 2138.55 171.54 Q2136.19 171.54 2134.53 170.637 Q2132.88 169.734 2131.91 167.929 L2131.91 180.73 L2127.65 180.73 Z" fill="#000000" fill-rule="evenodd" fill-opacity="1" /><path clip-path="url(#clip930)" d="M 0 0 M2156.24 168.322 L2160.96 168.322 L2160.96 154.179 L2155.8 155.128 L2155.8 152.443 L2161.12 151.54 L2164.3 151.54 L2164.3 168.322 L2169.04 168.322 L2169.04 170.869 L2156.24 170.869 L2156.24 168.322 Z" fill="#000000" fill-rule="evenodd" fill-opacity="1" /><path clip-path="url(#clip930)" d="M 0 0 M2182.24 155.197 Q2181.08 153.207 2178.74 153.207 Q2176.4 153.207 2175.24 155.197 Q2174.06 157.188 2174.06 161.17 Q2174.06 165.174 2175.24 167.165 Q2176.4 169.156 2178.74 169.156 Q2181.08 169.156 2182.24 167.165 Q2183.42 165.174 2183.42 161.17 Q2183.42 157.188 2182.24 155.197 M2178.74 151.147 Q2182.47 151.147 2184.43 153.716 Q2186.4 156.285 2186.4 161.17 Q2186.4 166.077 2184.43 168.646 Q2182.47 171.216 2178.74 171.216 Q2174.99 171.216 2173.02 168.646 Q2171.05 166.077 2171.05 161.17 Q2171.05 156.285 2173.02 153.716 Q2174.99 151.147 2178.74 151.147 Z" fill="#000000" fill-rule="evenodd" fill-opacity="1" /><path clip-path="url(#clip930)" d="M 0 0 M2201.1 134.897 Q2198 140.221 2196.49 145.429 Q2194.99 150.637 2194.99 155.984 Q2194.99 161.332 2196.49 166.586 Q2198.02 171.818 2201.1 177.119 L2197.4 177.119 Q2193.93 171.679 2192.19 166.424 Q2190.48 161.17 2190.48 155.984 Q2190.48 150.822 2192.19 145.591 Q2193.9 140.36 2197.4 134.897 L2201.1 134.897 Z" fill="#000000" fill-rule="evenodd" fill-opacity="1" /><path clip-path="url(#clip930)" d="M 0 0 M2209.78 137.582 L2209.78 144.943 L2218.55 144.943 L2218.55 148.253 L2209.78 148.253 L2209.78 162.327 Q2209.78 165.498 2210.64 166.401 Q2211.52 167.304 2214.18 167.304 L2218.55 167.304 L2218.55 170.869 L2214.18 170.869 Q2209.25 170.869 2207.37 169.04 Q2205.5 167.188 2205.5 162.327 L2205.5 148.253 L2202.37 148.253 L2202.37 144.943 L2205.5 144.943 L2205.5 137.582 L2209.78 137.582 Z" fill="#000000" fill-rule="evenodd" fill-opacity="1" /><path clip-path="url(#clip930)" d="M 0 0 M2222.35 134.897 L2226.05 134.897 Q2229.53 140.36 2231.24 145.591 Q2232.98 150.822 2232.98 155.984 Q2232.98 161.17 2231.24 166.424 Q2229.53 171.679 2226.05 177.119 L2222.35 177.119 Q2225.43 171.818 2226.93 166.586 Q2228.46 161.332 2228.46 155.984 Q2228.46 150.637 2226.93 145.429 Q2225.43 140.221 2222.35 134.897 Z" fill="#000000" fill-rule="evenodd" fill-opacity="1" /><polyline clip-path="url(#clip930)" style="stroke:#e26f46; stroke-width:4; stroke-opacity:1; fill:none" points="
  1959.96,214.069 2103.7,214.069 
  "/>
<path clip-path="url(#clip930)" d="M 0 0 M2127.65 241.21 L2127.65 205.423 L2131.91 205.423 L2131.91 221.534 Q2131.91 224.89 2133.51 226.603 Q2135.11 228.316 2138.23 228.316 Q2141.66 228.316 2143.37 226.372 Q2145.11 224.427 2145.11 220.538 L2145.11 205.423 L2149.37 205.423 L2149.37 225.376 Q2149.37 226.765 2149.76 227.437 Q2150.18 228.085 2151.03 228.085 Q2151.24 228.085 2151.61 227.969 Q2151.98 227.83 2152.63 227.552 L2152.63 230.978 Q2151.68 231.511 2150.82 231.765 Q2149.99 232.02 2149.18 232.02 Q2147.58 232.02 2146.63 231.117 Q2145.68 230.214 2145.34 228.363 Q2144.18 230.191 2142.49 231.117 Q2140.82 232.02 2138.55 232.02 Q2136.19 232.02 2134.53 231.117 Q2132.88 230.214 2131.91 228.409 L2131.91 241.21 L2127.65 241.21 Z" fill="#000000" fill-rule="evenodd" fill-opacity="1" /><path clip-path="url(#clip930)" d="M 0 0 M2165.82 215.677 Q2164.67 213.687 2162.33 213.687 Q2159.99 213.687 2158.83 215.677 Q2157.65 217.668 2157.65 221.65 Q2157.65 225.654 2158.83 227.645 Q2159.99 229.636 2162.33 229.636 Q2164.67 229.636 2165.82 227.645 Q2167 225.654 2167 221.65 Q2167 217.668 2165.82 215.677 M2162.33 211.627 Q2166.05 211.627 2168.02 214.196 Q2169.99 216.765 2169.99 221.65 Q2169.99 226.557 2168.02 229.126 Q2166.05 231.696 2162.33 231.696 Q2158.58 231.696 2156.61 229.126 Q2154.64 226.557 2154.64 221.65 Q2154.64 216.765 2156.61 214.196 Q2158.58 211.627 2162.33 211.627 Z" fill="#000000" fill-rule="evenodd" fill-opacity="1" /><path clip-path="url(#clip930)" d="M 0 0 M2173.6 228.802 L2178.32 228.802 L2178.32 214.659 L2173.16 215.608 L2173.16 212.923 L2178.49 212.02 L2181.66 212.02 L2181.66 228.802 L2186.4 228.802 L2186.4 231.349 L2173.6 231.349 L2173.6 228.802 Z" fill="#000000" fill-rule="evenodd" fill-opacity="1" /><path clip-path="url(#clip930)" d="M 0 0 M2201.1 195.377 Q2198 200.701 2196.49 205.909 Q2194.99 211.117 2194.99 216.464 Q2194.99 221.812 2196.49 227.066 Q2198.02 232.298 2201.1 237.599 L2197.4 237.599 Q2193.93 232.159 2192.19 226.904 Q2190.48 221.65 2190.48 216.464 Q2190.48 211.302 2192.19 206.071 Q2193.9 200.84 2197.4 195.377 L2201.1 195.377 Z" fill="#000000" fill-rule="evenodd" fill-opacity="1" /><path clip-path="url(#clip930)" d="M 0 0 M2209.78 198.062 L2209.78 205.423 L2218.55 205.423 L2218.55 208.733 L2209.78 208.733 L2209.78 222.807 Q2209.78 225.978 2210.64 226.881 Q2211.52 227.784 2214.18 227.784 L2218.55 227.784 L2218.55 231.349 L2214.18 231.349 Q2209.25 231.349 2207.37 229.52 Q2205.5 227.668 2205.5 222.807 L2205.5 208.733 L2202.37 208.733 L2202.37 205.423 L2205.5 205.423 L2205.5 198.062 L2209.78 198.062 Z" fill="#000000" fill-rule="evenodd" fill-opacity="1" /><path clip-path="url(#clip930)" d="M 0 0 M2222.35 195.377 L2226.05 195.377 Q2229.53 200.84 2231.24 206.071 Q2232.98 211.302 2232.98 216.464 Q2232.98 221.65 2231.24 226.904 Q2229.53 232.159 2226.05 237.599 L2222.35 237.599 Q2225.43 232.298 2226.93 227.066 Q2228.46 221.812 2228.46 216.464 Q2228.46 211.117 2226.93 205.909 Q2225.43 200.701 2222.35 195.377 Z" fill="#000000" fill-rule="evenodd" fill-opacity="1" /></svg>
