<?xml version="1.0" encoding="utf-8"?>
<svg xmlns="http://www.w3.org/2000/svg" xmlns:xlink="http://www.w3.org/1999/xlink" width="600" height="400" viewBox="0 0 2400 1600">
<defs>
  <clipPath id="clip650">
    <rect x="0" y="0" width="2400" height="1600"/>
  </clipPath>
</defs>
<path clip-path="url(#clip650)" d="
M0 1600 L2400 1600 L2400 0 L0 0  Z
  " fill="#ffffff" fill-rule="evenodd" fill-opacity="1"/>
<defs>
  <clipPath id="clip651">
    <rect x="480" y="0" width="1681" height="1600"/>
  </clipPath>
</defs>
<path clip-path="url(#clip650)" d="
M224.866 1423.18 L2352.76 1423.18 L2352.76 47.2441 L224.866 47.2441  Z
  " fill="#ffffff" fill-rule="evenodd" fill-opacity="1"/>
<defs>
  <clipPath id="clip652">
    <rect x="224" y="47" width="2129" height="1377"/>
  </clipPath>
</defs>
<polyline clip-path="url(#clip652)" style="stroke:#000000; stroke-width:2; stroke-opacity:0.1; fill:none" points="
  224.866,1423.18 224.866,47.2441 
  "/>
<polyline clip-path="url(#clip652)" style="stroke:#000000; stroke-width:2; stroke-opacity:0.1; fill:none" points="
  579.515,1423.18 579.515,47.2441 
  "/>
<polyline clip-path="url(#clip652)" style="stroke:#000000; stroke-width:2; stroke-opacity:0.1; fill:none" points="
  934.163,1423.18 934.163,47.2441 
  "/>
<polyline clip-path="url(#clip652)" style="stroke:#000000; stroke-width:2; stroke-opacity:0.1; fill:none" points="
  1288.81,1423.18 1288.81,47.2441 
  "/>
<polyline clip-path="url(#clip652)" style="stroke:#000000; stroke-width:2; stroke-opacity:0.1; fill:none" points="
  1643.46,1423.18 1643.46,47.2441 
  "/>
<polyline clip-path="url(#clip652)" style="stroke:#000000; stroke-width:2; stroke-opacity:0.1; fill:none" points="
  1998.11,1423.18 1998.11,47.2441 
  "/>
<polyline clip-path="url(#clip652)" style="stroke:#000000; stroke-width:2; stroke-opacity:0.1; fill:none" points="
  2352.76,1423.18 2352.76,47.2441 
  "/>
<polyline clip-path="url(#clip650)" style="stroke:#000000; stroke-width:4; stroke-opacity:1; fill:none" points="
  224.866,1423.18 2352.76,1423.18 
  "/>
<polyline clip-path="url(#clip650)" style="stroke:#000000; stroke-width:4; stroke-opacity:1; fill:none" points="
  224.866,1423.18 224.866,1406.67 
  "/>
<polyline clip-path="url(#clip650)" style="stroke:#000000; stroke-width:4; stroke-opacity:1; fill:none" points="
  579.515,1423.18 579.515,1406.67 
  "/>
<polyline clip-path="url(#clip650)" style="stroke:#000000; stroke-width:4; stroke-opacity:1; fill:none" points="
  934.163,1423.18 934.163,1406.67 
  "/>
<polyline clip-path="url(#clip650)" style="stroke:#000000; stroke-width:4; stroke-opacity:1; fill:none" points="
  1288.81,1423.18 1288.81,1406.67 
  "/>
<polyline clip-path="url(#clip650)" style="stroke:#000000; stroke-width:4; stroke-opacity:1; fill:none" points="
  1643.46,1423.18 1643.46,1406.67 
  "/>
<polyline clip-path="url(#clip650)" style="stroke:#000000; stroke-width:4; stroke-opacity:1; fill:none" points="
  1998.11,1423.18 1998.11,1406.67 
  "/>
<polyline clip-path="url(#clip650)" style="stroke:#000000; stroke-width:4; stroke-opacity:1; fill:none" points="
  2352.76,1423.18 2352.76,1406.67 
  "/>
<path clip-path="url(#clip650)" d="M 0 0 M224.866 1452.37 Q221.255 1452.37 219.426 1455.94 Q217.621 1459.48 217.621 1466.61 Q217.621 1473.71 219.426 1477.28 Q221.255 1480.82 224.866 1480.82 Q228.5 1480.82 230.306 1477.28 Q232.135 1473.71 232.135 1466.61 Q232.135 1459.48 230.306 1455.94 Q228.5 1452.37 224.866 1452.37 M224.866 1448.67 Q230.676 1448.67 233.732 1453.27 Q236.811 1457.86 236.811 1466.61 Q236.811 1475.33 233.732 1479.94 Q230.676 1484.52 224.866 1484.52 Q219.056 1484.52 215.977 1479.94 Q212.922 1475.33 212.922 1466.61 Q212.922 1457.86 215.977 1453.27 Q219.056 1448.67 224.866 1448.67 Z" fill="#000000" fill-rule="evenodd" fill-opacity="1" /><path clip-path="url(#clip650)" d="M 0 0 M574.167 1479.92 L590.487 1479.92 L590.487 1483.85 L568.542 1483.85 L568.542 1479.92 Q571.204 1477.16 575.788 1472.53 Q580.394 1467.88 581.575 1466.54 Q583.82 1464.01 584.7 1462.28 Q585.602 1460.52 585.602 1458.83 Q585.602 1456.07 583.658 1454.34 Q581.737 1452.6 578.635 1452.6 Q576.436 1452.6 573.982 1453.37 Q571.552 1454.13 568.774 1455.68 L568.774 1450.96 Q571.598 1449.82 574.052 1449.25 Q576.505 1448.67 578.542 1448.67 Q583.913 1448.67 587.107 1451.35 Q590.301 1454.04 590.301 1458.53 Q590.301 1460.66 589.491 1462.58 Q588.704 1464.48 586.598 1467.07 Q586.019 1467.74 582.917 1470.96 Q579.815 1474.15 574.167 1479.92 Z" fill="#000000" fill-rule="evenodd" fill-opacity="1" /><path clip-path="url(#clip650)" d="M 0 0 M937.172 1453.37 L925.367 1471.81 L937.172 1471.81 L937.172 1453.37 M935.945 1449.29 L941.825 1449.29 L941.825 1471.81 L946.755 1471.81 L946.755 1475.7 L941.825 1475.7 L941.825 1483.85 L937.172 1483.85 L937.172 1475.7 L921.57 1475.7 L921.57 1471.19 L935.945 1449.29 Z" fill="#000000" fill-rule="evenodd" fill-opacity="1" /><path clip-path="url(#clip650)" d="M 0 0 M1289.22 1464.71 Q1286.07 1464.71 1284.22 1466.86 Q1282.39 1469.01 1282.39 1472.76 Q1282.39 1476.49 1284.22 1478.67 Q1286.07 1480.82 1289.22 1480.82 Q1292.36 1480.82 1294.19 1478.67 Q1296.04 1476.49 1296.04 1472.76 Q1296.04 1469.01 1294.19 1466.86 Q1292.36 1464.71 1289.22 1464.71 M1298.5 1450.06 L1298.5 1454.31 Q1296.74 1453.48 1294.93 1453.04 Q1293.15 1452.6 1291.39 1452.6 Q1286.76 1452.6 1284.31 1455.73 Q1281.88 1458.85 1281.53 1465.17 Q1282.9 1463.16 1284.96 1462.09 Q1287.02 1461 1289.49 1461 Q1294.7 1461 1297.71 1464.18 Q1300.74 1467.32 1300.74 1472.76 Q1300.74 1478.09 1297.6 1481.31 Q1294.45 1484.52 1289.22 1484.52 Q1283.22 1484.52 1280.05 1479.94 Q1276.88 1475.33 1276.88 1466.61 Q1276.88 1458.41 1280.77 1453.55 Q1284.66 1448.67 1291.21 1448.67 Q1292.97 1448.67 1294.75 1449.01 Q1296.55 1449.36 1298.5 1450.06 Z" fill="#000000" fill-rule="evenodd" fill-opacity="1" /><path clip-path="url(#clip650)" d="M 0 0 M1643.46 1467.44 Q1640.13 1467.44 1638.2 1469.22 Q1636.31 1471 1636.31 1474.13 Q1636.31 1477.25 1638.2 1479.04 Q1640.13 1480.82 1643.46 1480.82 Q1646.79 1480.82 1648.71 1479.04 Q1650.64 1477.23 1650.64 1474.13 Q1650.64 1471 1648.71 1469.22 Q1646.82 1467.44 1643.46 1467.44 M1638.78 1465.45 Q1635.77 1464.71 1634.08 1462.65 Q1632.42 1460.59 1632.42 1457.63 Q1632.42 1453.48 1635.36 1451.07 Q1638.32 1448.67 1643.46 1448.67 Q1648.62 1448.67 1651.56 1451.07 Q1654.5 1453.48 1654.5 1457.63 Q1654.5 1460.59 1652.81 1462.65 Q1651.14 1464.71 1648.16 1465.45 Q1651.54 1466.24 1653.41 1468.53 Q1655.31 1470.82 1655.31 1474.13 Q1655.31 1479.15 1652.23 1481.84 Q1649.18 1484.52 1643.46 1484.52 Q1637.74 1484.52 1634.66 1481.84 Q1631.61 1479.15 1631.61 1474.13 Q1631.61 1470.82 1633.51 1468.53 Q1635.4 1466.24 1638.78 1465.45 M1637.07 1458.06 Q1637.07 1460.75 1638.74 1462.25 Q1640.43 1463.76 1643.46 1463.76 Q1646.47 1463.76 1648.16 1462.25 Q1649.87 1460.75 1649.87 1458.06 Q1649.87 1455.38 1648.16 1453.88 Q1646.47 1452.37 1643.46 1452.37 Q1640.43 1452.37 1638.74 1453.88 Q1637.07 1455.38 1637.07 1458.06 Z" fill="#000000" fill-rule="evenodd" fill-opacity="1" /><path clip-path="url(#clip650)" d="M 0 0 M1974.98 1479.92 L1982.62 1479.92 L1982.62 1453.55 L1974.31 1455.22 L1974.31 1450.96 L1982.58 1449.29 L1987.25 1449.29 L1987.25 1479.92 L1994.89 1479.92 L1994.89 1483.85 L1974.98 1483.85 L1974.98 1479.92 Z" fill="#000000" fill-rule="evenodd" fill-opacity="1" /><path clip-path="url(#clip650)" d="M 0 0 M2009.96 1452.37 Q2006.35 1452.37 2004.52 1455.94 Q2002.71 1459.48 2002.71 1466.61 Q2002.71 1473.71 2004.52 1477.28 Q2006.35 1480.82 2009.96 1480.82 Q2013.59 1480.82 2015.4 1477.28 Q2017.23 1473.71 2017.23 1466.61 Q2017.23 1459.48 2015.4 1455.94 Q2013.59 1452.37 2009.96 1452.37 M2009.96 1448.67 Q2015.77 1448.67 2018.83 1453.27 Q2021.9 1457.86 2021.9 1466.61 Q2021.9 1475.33 2018.83 1479.94 Q2015.77 1484.52 2009.96 1484.52 Q2004.15 1484.52 2001.07 1479.94 Q1998.02 1475.33 1998.02 1466.61 Q1998.02 1457.86 2001.07 1453.27 Q2004.15 1448.67 2009.96 1448.67 Z" fill="#000000" fill-rule="evenodd" fill-opacity="1" /><path clip-path="url(#clip650)" d="M 0 0 M2330.43 1479.92 L2338.07 1479.92 L2338.07 1453.55 L2329.76 1455.22 L2329.76 1450.96 L2338.02 1449.29 L2342.7 1449.29 L2342.7 1479.92 L2350.34 1479.92 L2350.34 1483.85 L2330.43 1483.85 L2330.43 1479.92 Z" fill="#000000" fill-rule="evenodd" fill-opacity="1" /><path clip-path="url(#clip650)" d="M 0 0 M2359.43 1479.92 L2375.75 1479.92 L2375.75 1483.85 L2353.81 1483.85 L2353.81 1479.92 Q2356.47 1477.16 2361.05 1472.53 Q2365.66 1467.88 2366.84 1466.54 Q2369.09 1464.01 2369.97 1462.28 Q2370.87 1460.52 2370.87 1458.83 Q2370.87 1456.07 2368.92 1454.34 Q2367 1452.6 2363.9 1452.6 Q2361.7 1452.6 2359.25 1453.37 Q2356.82 1454.13 2354.04 1455.68 L2354.04 1450.96 Q2356.86 1449.82 2359.32 1449.25 Q2361.77 1448.67 2363.81 1448.67 Q2369.18 1448.67 2372.37 1451.35 Q2375.57 1454.04 2375.57 1458.53 Q2375.57 1460.66 2374.76 1462.58 Q2373.97 1464.48 2371.86 1467.07 Q2371.29 1467.74 2368.18 1470.96 Q2365.08 1474.15 2359.43 1479.92 Z" fill="#000000" fill-rule="evenodd" fill-opacity="1" /><path clip-path="url(#clip650)" d="M 0 0 M1155.31 1520.52 L1195.51 1520.52 L1195.51 1525.93 L1178.64 1525.93 L1178.64 1568.04 L1172.18 1568.04 L1172.18 1525.93 L1155.31 1525.93 L1155.31 1520.52 Z" fill="#000000" fill-rule="evenodd" fill-opacity="1" /><path clip-path="url(#clip650)" d="M 0 0 M1199.64 1532.4 L1205.5 1532.4 L1205.5 1568.04 L1199.64 1568.04 L1199.64 1532.4 M1199.64 1518.52 L1205.5 1518.52 L1205.5 1525.93 L1199.64 1525.93 L1199.64 1518.52 Z" fill="#000000" fill-rule="evenodd" fill-opacity="1" /><path clip-path="url(#clip650)" d="M 0 0 M1239.4 1539.24 Q1241.59 1535.29 1244.65 1533.41 Q1247.7 1531.54 1251.84 1531.54 Q1257.41 1531.54 1260.44 1535.45 Q1263.46 1539.33 1263.46 1546.53 L1263.46 1568.04 L1257.57 1568.04 L1257.57 1546.72 Q1257.57 1541.59 1255.76 1539.11 Q1253.94 1536.63 1250.22 1536.63 Q1245.67 1536.63 1243.03 1539.65 Q1240.38 1542.68 1240.38 1547.9 L1240.38 1568.04 L1234.5 1568.04 L1234.5 1546.72 Q1234.5 1541.56 1232.68 1539.11 Q1230.87 1536.63 1227.08 1536.63 Q1222.59 1536.63 1219.95 1539.68 Q1217.31 1542.71 1217.31 1547.9 L1217.31 1568.04 L1211.42 1568.04 L1211.42 1532.4 L1217.31 1532.4 L1217.31 1537.93 Q1219.31 1534.66 1222.11 1533.1 Q1224.92 1531.54 1228.77 1531.54 Q1232.65 1531.54 1235.36 1533.51 Q1238.09 1535.48 1239.4 1539.24 Z" fill="#000000" fill-rule="evenodd" fill-opacity="1" /><path clip-path="url(#clip650)" d="M 0 0 M1300.09 1548.76 L1300.09 1551.62 L1273.17 1551.62 Q1273.55 1557.67 1276.8 1560.85 Q1280.07 1564 1285.9 1564 Q1289.27 1564 1292.42 1563.17 Q1295.61 1562.35 1298.73 1560.69 L1298.73 1566.23 Q1295.57 1567.57 1292.26 1568.27 Q1288.95 1568.97 1285.55 1568.97 Q1277.02 1568.97 1272.02 1564 Q1267.06 1559.04 1267.06 1550.57 Q1267.06 1541.82 1271.77 1536.69 Q1276.51 1531.54 1284.53 1531.54 Q1291.72 1531.54 1295.89 1536.18 Q1300.09 1540.8 1300.09 1548.76 M1294.24 1547.04 Q1294.17 1542.23 1291.53 1539.37 Q1288.92 1536.5 1284.59 1536.5 Q1279.69 1536.5 1276.73 1539.27 Q1273.8 1542.04 1273.36 1547.07 L1294.24 1547.04 Z" fill="#000000" fill-rule="evenodd" fill-opacity="1" /><path clip-path="url(#clip650)" d="M 0 0 M1326.42 1518.52 L1339.91 1518.52 L1339.91 1523.07 L1332.27 1523.07 L1332.27 1572.09 L1339.91 1572.09 L1339.91 1576.64 L1326.42 1576.64 L1326.42 1518.52 Z" fill="#000000" fill-rule="evenodd" fill-opacity="1" /><path clip-path="url(#clip650)" d="M 0 0 M1375.69 1546.53 L1375.69 1568.04 L1369.83 1568.04 L1369.83 1546.72 Q1369.83 1541.66 1367.86 1539.14 Q1365.88 1536.63 1361.94 1536.63 Q1357.19 1536.63 1354.46 1539.65 Q1351.72 1542.68 1351.72 1547.9 L1351.72 1568.04 L1345.83 1568.04 L1345.83 1518.52 L1351.72 1518.52 L1351.72 1537.93 Q1353.82 1534.72 1356.65 1533.13 Q1359.52 1531.54 1363.24 1531.54 Q1369.39 1531.54 1372.54 1535.36 Q1375.69 1539.14 1375.69 1546.53 Z" fill="#000000" fill-rule="evenodd" fill-opacity="1" /><path clip-path="url(#clip650)" d="M 0 0 M1402.49 1537.87 Q1401.5 1537.3 1400.32 1537.04 Q1399.18 1536.76 1397.78 1536.76 Q1392.81 1536.76 1390.14 1540 Q1387.5 1543.22 1387.5 1549.27 L1387.5 1568.04 L1381.61 1568.04 L1381.61 1532.4 L1387.5 1532.4 L1387.5 1537.93 Q1389.34 1534.69 1392.3 1533.13 Q1395.26 1531.54 1399.49 1531.54 Q1400.1 1531.54 1400.83 1531.63 Q1401.56 1531.7 1402.45 1531.85 L1402.49 1537.87 Z" fill="#000000" fill-rule="evenodd" fill-opacity="1" /><path clip-path="url(#clip650)" d="M 0 0 M1422.32 1518.52 L1422.32 1576.64 L1408.82 1576.64 L1408.82 1572.09 L1416.43 1572.09 L1416.43 1523.07 L1408.82 1523.07 L1408.82 1518.52 L1422.32 1518.52 Z" fill="#000000" fill-rule="evenodd" fill-opacity="1" /><polyline clip-path="url(#clip652)" style="stroke:#000000; stroke-width:2; stroke-opacity:0.1; fill:none" points="
  224.866,1384.24 2352.76,1384.24 
  "/>
<polyline clip-path="url(#clip652)" style="stroke:#000000; stroke-width:2; stroke-opacity:0.1; fill:none" points="
  224.866,1115.05 2352.76,1115.05 
  "/>
<polyline clip-path="url(#clip652)" style="stroke:#000000; stroke-width:2; stroke-opacity:0.1; fill:none" points="
  224.866,845.861 2352.76,845.861 
  "/>
<polyline clip-path="url(#clip652)" style="stroke:#000000; stroke-width:2; stroke-opacity:0.1; fill:none" points="
  224.866,576.672 2352.76,576.672 
  "/>
<polyline clip-path="url(#clip652)" style="stroke:#000000; stroke-width:2; stroke-opacity:0.1; fill:none" points="
  224.866,307.484 2352.76,307.484 
  "/>
<polyline clip-path="url(#clip650)" style="stroke:#000000; stroke-width:4; stroke-opacity:1; fill:none" points="
  224.866,1423.18 224.866,47.2441 
  "/>
<polyline clip-path="url(#clip650)" style="stroke:#000000; stroke-width:4; stroke-opacity:1; fill:none" points="
  224.866,1384.24 250.401,1384.24 
  "/>
<polyline clip-path="url(#clip650)" style="stroke:#000000; stroke-width:4; stroke-opacity:1; fill:none" points="
  224.866,1115.05 250.401,1115.05 
  "/>
<polyline clip-path="url(#clip650)" style="stroke:#000000; stroke-width:4; stroke-opacity:1; fill:none" points="
  224.866,845.861 250.401,845.861 
  "/>
<polyline clip-path="url(#clip650)" style="stroke:#000000; stroke-width:4; stroke-opacity:1; fill:none" points="
  224.866,576.672 250.401,576.672 
  "/>
<polyline clip-path="url(#clip650)" style="stroke:#000000; stroke-width:4; stroke-opacity:1; fill:none" points="
  224.866,307.484 250.401,307.484 
  "/>
<path clip-path="url(#clip650)" d="M 0 0 M176.922 1370.04 Q173.311 1370.04 171.482 1373.6 Q169.677 1377.14 169.677 1384.27 Q169.677 1391.38 171.482 1394.94 Q173.311 1398.49 176.922 1398.49 Q180.556 1398.49 182.362 1394.94 Q184.19 1391.38 184.19 1384.27 Q184.19 1377.14 182.362 1373.6 Q180.556 1370.04 176.922 1370.04 M176.922 1366.33 Q182.732 1366.33 185.788 1370.94 Q188.866 1375.52 188.866 1384.27 Q188.866 1393 185.788 1397.61 Q182.732 1402.19 176.922 1402.19 Q171.112 1402.19 168.033 1397.61 Q164.977 1393 164.977 1384.27 Q164.977 1375.52 168.033 1370.94 Q171.112 1366.33 176.922 1366.33 Z" fill="#000000" fill-rule="evenodd" fill-opacity="1" /><path clip-path="url(#clip650)" d="M 0 0 M146.529 1128.39 L162.848 1128.39 L162.848 1132.33 L140.904 1132.33 L140.904 1128.39 Q143.566 1125.64 148.149 1121.01 Q152.755 1116.36 153.936 1115.01 Q156.181 1112.49 157.061 1110.76 Q157.964 1109 157.964 1107.31 Q157.964 1104.55 156.019 1102.82 Q154.098 1101.08 150.996 1101.08 Q148.797 1101.08 146.343 1101.84 Q143.913 1102.61 141.135 1104.16 L141.135 1099.44 Q143.959 1098.3 146.413 1097.72 Q148.866 1097.14 150.903 1097.14 Q156.274 1097.14 159.468 1099.83 Q162.663 1102.51 162.663 1107.01 Q162.663 1109.14 161.852 1111.06 Q161.065 1112.95 158.959 1115.55 Q158.38 1116.22 155.278 1119.44 Q152.177 1122.63 146.529 1128.39 Z" fill="#000000" fill-rule="evenodd" fill-opacity="1" /><path clip-path="url(#clip650)" d="M 0 0 M167.964 1097.77 L186.32 1097.77 L186.32 1101.7 L172.246 1101.7 L172.246 1110.18 Q173.264 1109.83 174.283 1109.67 Q175.301 1109.48 176.32 1109.48 Q182.107 1109.48 185.487 1112.65 Q188.866 1115.83 188.866 1121.24 Q188.866 1126.82 185.394 1129.92 Q181.922 1133 175.602 1133 Q173.427 1133 171.158 1132.63 Q168.913 1132.26 166.505 1131.52 L166.505 1126.82 Q168.589 1127.95 170.811 1128.51 Q173.033 1129.07 175.51 1129.07 Q179.514 1129.07 181.852 1126.96 Q184.19 1124.85 184.19 1121.24 Q184.19 1117.63 181.852 1115.52 Q179.514 1113.42 175.51 1113.42 Q173.635 1113.42 171.76 1113.83 Q169.908 1114.25 167.964 1115.13 L167.964 1097.77 Z" fill="#000000" fill-rule="evenodd" fill-opacity="1" /><path clip-path="url(#clip650)" d="M 0 0 M140.95 828.581 L159.306 828.581 L159.306 832.516 L145.232 832.516 L145.232 840.988 Q146.251 840.641 147.269 840.479 Q148.288 840.294 149.306 840.294 Q155.093 840.294 158.473 843.465 Q161.852 846.636 161.852 852.053 Q161.852 857.632 158.38 860.733 Q154.908 863.812 148.589 863.812 Q146.413 863.812 144.144 863.442 Q141.899 863.071 139.492 862.331 L139.492 857.632 Q141.575 858.766 143.797 859.321 Q146.019 859.877 148.496 859.877 Q152.501 859.877 154.839 857.771 Q157.177 855.664 157.177 852.053 Q157.177 848.442 154.839 846.335 Q152.501 844.229 148.496 844.229 Q146.621 844.229 144.746 844.646 Q142.894 845.062 140.95 845.942 L140.95 828.581 Z" fill="#000000" fill-rule="evenodd" fill-opacity="1" /><path clip-path="url(#clip650)" d="M 0 0 M176.922 831.66 Q173.311 831.66 171.482 835.224 Q169.677 838.766 169.677 845.896 Q169.677 853.002 171.482 856.567 Q173.311 860.108 176.922 860.108 Q180.556 860.108 182.362 856.567 Q184.19 853.002 184.19 845.896 Q184.19 838.766 182.362 835.224 Q180.556 831.66 176.922 831.66 M176.922 827.956 Q182.732 827.956 185.788 832.562 Q188.866 837.146 188.866 845.896 Q188.866 854.622 185.788 859.229 Q182.732 863.812 176.922 863.812 Q171.112 863.812 168.033 859.229 Q164.977 854.622 164.977 845.896 Q164.977 837.146 168.033 832.562 Q171.112 827.956 176.922 827.956 Z" fill="#000000" fill-rule="evenodd" fill-opacity="1" /><path clip-path="url(#clip650)" d="M 0 0 M140.626 559.392 L162.848 559.392 L162.848 561.383 L150.302 593.952 L145.417 593.952 L157.223 563.327 L140.626 563.327 L140.626 559.392 Z" fill="#000000" fill-rule="evenodd" fill-opacity="1" /><path clip-path="url(#clip650)" d="M 0 0 M167.964 559.392 L186.32 559.392 L186.32 563.327 L172.246 563.327 L172.246 571.8 Q173.264 571.452 174.283 571.29 Q175.301 571.105 176.32 571.105 Q182.107 571.105 185.487 574.276 Q188.866 577.448 188.866 582.864 Q188.866 588.443 185.394 591.545 Q181.922 594.623 175.602 594.623 Q173.427 594.623 171.158 594.253 Q168.913 593.883 166.505 593.142 L166.505 588.443 Q168.589 589.577 170.811 590.133 Q173.033 590.688 175.51 590.688 Q179.514 590.688 181.852 588.582 Q184.19 586.475 184.19 582.864 Q184.19 579.253 181.852 577.147 Q179.514 575.04 175.51 575.04 Q173.635 575.04 171.76 575.457 Q169.908 575.874 167.964 576.753 L167.964 559.392 Z" fill="#000000" fill-rule="evenodd" fill-opacity="1" /><path clip-path="url(#clip650)" d="M 0 0 M114.931 320.828 L122.57 320.828 L122.57 294.463 L114.26 296.129 L114.26 291.87 L122.524 290.204 L127.2 290.204 L127.2 320.828 L134.839 320.828 L134.839 324.764 L114.931 324.764 L114.931 320.828 Z" fill="#000000" fill-rule="evenodd" fill-opacity="1" /><path clip-path="url(#clip650)" d="M 0 0 M149.908 293.282 Q146.297 293.282 144.468 296.847 Q142.663 300.389 142.663 307.518 Q142.663 314.625 144.468 318.189 Q146.297 321.731 149.908 321.731 Q153.542 321.731 155.348 318.189 Q157.177 314.625 157.177 307.518 Q157.177 300.389 155.348 296.847 Q153.542 293.282 149.908 293.282 M149.908 289.579 Q155.718 289.579 158.774 294.185 Q161.852 298.768 161.852 307.518 Q161.852 316.245 158.774 320.851 Q155.718 325.435 149.908 325.435 Q144.098 325.435 141.019 320.851 Q137.964 316.245 137.964 307.518 Q137.964 298.768 141.019 294.185 Q144.098 289.579 149.908 289.579 Z" fill="#000000" fill-rule="evenodd" fill-opacity="1" /><path clip-path="url(#clip650)" d="M 0 0 M176.922 293.282 Q173.311 293.282 171.482 296.847 Q169.677 300.389 169.677 307.518 Q169.677 314.625 171.482 318.189 Q173.311 321.731 176.922 321.731 Q180.556 321.731 182.362 318.189 Q184.19 314.625 184.19 307.518 Q184.19 300.389 182.362 296.847 Q180.556 293.282 176.922 293.282 M176.922 289.579 Q182.732 289.579 185.788 294.185 Q188.866 298.768 188.866 307.518 Q188.866 316.245 185.788 320.851 Q182.732 325.435 176.922 325.435 Q171.112 325.435 168.033 320.851 Q164.977 316.245 164.977 307.518 Q164.977 298.768 168.033 294.185 Q171.112 289.579 176.922 289.579 Z" fill="#000000" fill-rule="evenodd" fill-opacity="1" /><path clip-path="url(#clip650)" d="M 0 0 M22.818 1127.15 L46.4666 1135.87 L46.4666 1118.4 L22.818 1127.15 M16.4842 1130.78 L16.4842 1123.49 L64.0042 1105.38 L64.0042 1112.06 L51.8138 1116.39 L51.8138 1137.81 L64.0042 1142.14 L64.0042 1148.92 L16.4842 1130.78 Z" fill="#000000" fill-rule="evenodd" fill-opacity="1" /><path clip-path="url(#clip650)" d="M 0 0 M29.7248 1074.73 L35.1993 1074.73 Q33.8307 1077.21 33.1623 1079.72 Q32.4621 1082.21 32.4621 1084.75 Q32.4621 1090.45 36.0905 1093.6 Q39.6872 1096.75 46.212 1096.75 Q52.7369 1096.75 56.3653 1093.6 Q59.9619 1090.45 59.9619 1084.75 Q59.9619 1082.21 59.2935 1079.72 Q58.5933 1077.21 57.2247 1074.73 L62.6355 1074.73 Q63.7814 1077.18 64.3543 1079.82 Q64.9272 1082.43 64.9272 1085.39 Q64.9272 1093.44 59.8664 1098.18 Q54.8057 1102.93 46.212 1102.93 Q37.491 1102.93 32.4939 1098.15 Q27.4968 1093.35 27.4968 1085.01 Q27.4968 1082.3 28.0697 1079.72 Q28.6108 1077.15 29.7248 1074.73 Z" fill="#000000" fill-rule="evenodd" fill-opacity="1" /><path clip-path="url(#clip650)" d="M 0 0 M18.2347 1062.79 L28.3562 1062.79 L28.3562 1050.73 L32.9077 1050.73 L32.9077 1062.79 L52.2594 1062.79 Q56.6199 1062.79 57.8613 1061.61 Q59.1026 1060.4 59.1026 1056.74 L59.1026 1050.73 L64.0042 1050.73 L64.0042 1056.74 Q64.0042 1063.52 61.4897 1066.1 Q58.9434 1068.68 52.2594 1068.68 L32.9077 1068.68 L32.9077 1072.98 L28.3562 1072.98 L28.3562 1068.68 L18.2347 1068.68 L18.2347 1062.79 Z" fill="#000000" fill-rule="evenodd" fill-opacity="1" /><path clip-path="url(#clip650)" d="M 0 0 M28.3562 1044.59 L28.3562 1038.73 L64.0042 1038.73 L64.0042 1044.59 L28.3562 1044.59 M14.479 1044.59 L14.479 1038.73 L21.895 1038.73 L21.895 1044.59 L14.479 1044.59 Z" fill="#000000" fill-rule="evenodd" fill-opacity="1" /><path clip-path="url(#clip650)" d="M 0 0 M28.3562 1036.79 L28.3562 1030.58 L58.275 1019.44 L28.3562 1008.3 L28.3562 1002.09 L64.0042 1015.46 L64.0042 1023.42 L28.3562 1036.79 Z" fill="#000000" fill-rule="evenodd" fill-opacity="1" /><path clip-path="url(#clip650)" d="M 0 0 M46.0847 979.751 Q46.0847 986.848 47.7079 989.586 Q49.3312 992.323 53.2461 992.323 Q56.3653 992.323 58.2114 990.286 Q60.0256 988.217 60.0256 984.684 Q60.0256 979.814 56.5881 976.886 Q53.1188 973.926 47.3897 973.926 L46.0847 973.926 L46.0847 979.751 M43.6657 968.07 L64.0042 968.07 L64.0042 973.926 L58.5933 973.926 Q61.8398 975.931 63.3994 978.923 Q64.9272 981.915 64.9272 986.244 Q64.9272 991.718 61.8716 994.965 Q58.7843 998.179 53.6281 998.179 Q47.6125 998.179 44.5569 994.169 Q41.5014 990.127 41.5014 982.138 L41.5014 973.926 L40.9285 973.926 Q36.8862 973.926 34.6901 976.6 Q32.4621 979.241 32.4621 984.047 Q32.4621 987.103 33.1941 989.999 Q33.9262 992.896 35.3903 995.569 L29.9795 995.569 Q28.7381 992.355 28.1334 989.331 Q27.4968 986.307 27.4968 983.443 Q27.4968 975.708 31.5072 971.889 Q35.5176 968.07 43.6657 968.07 Z" fill="#000000" fill-rule="evenodd" fill-opacity="1" /><path clip-path="url(#clip650)" d="M 0 0 M18.2347 956.134 L28.3562 956.134 L28.3562 944.071 L32.9077 944.071 L32.9077 956.134 L52.2594 956.134 Q56.6199 956.134 57.8613 954.956 Q59.1026 953.747 59.1026 950.086 L59.1026 944.071 L64.0042 944.071 L64.0042 950.086 Q64.0042 956.866 61.4897 959.444 Q58.9434 962.022 52.2594 962.022 L32.9077 962.022 L32.9077 966.319 L28.3562 966.319 L28.3562 962.022 L18.2347 962.022 L18.2347 956.134 Z" fill="#000000" fill-rule="evenodd" fill-opacity="1" /><path clip-path="url(#clip650)" d="M 0 0 M32.4621 924.114 Q32.4621 928.825 36.1542 931.562 Q39.8145 934.299 46.212 934.299 Q52.6095 934.299 56.3017 931.594 Q59.9619 928.857 59.9619 924.114 Q59.9619 919.436 56.2698 916.698 Q52.5777 913.961 46.212 913.961 Q39.8781 913.961 36.186 916.698 Q32.4621 919.436 32.4621 924.114 M27.4968 924.114 Q27.4968 916.475 32.4621 912.115 Q37.4273 907.754 46.212 907.754 Q54.9649 907.754 59.9619 912.115 Q64.9272 916.475 64.9272 924.114 Q64.9272 931.785 59.9619 936.145 Q54.9649 940.474 46.212 940.474 Q37.4273 940.474 32.4621 936.145 Q27.4968 931.785 27.4968 924.114 Z" fill="#000000" fill-rule="evenodd" fill-opacity="1" /><path clip-path="url(#clip650)" d="M 0 0 M33.8307 880.955 Q33.2578 881.942 33.0032 883.119 Q32.7167 884.265 32.7167 885.665 Q32.7167 890.631 35.9632 893.304 Q39.1779 895.946 45.2253 895.946 L64.0042 895.946 L64.0042 901.834 L28.3562 901.834 L28.3562 895.946 L33.8944 895.946 Q30.6479 894.1 29.0883 891.14 Q27.4968 888.18 27.4968 883.947 Q27.4968 883.342 27.5923 882.61 Q27.656 881.878 27.8151 880.987 L33.8307 880.955 Z" fill="#000000" fill-rule="evenodd" fill-opacity="1" /><path clip-path="url(#clip650)" d="M 0 0 M29.4065 831.366 L34.9447 831.366 Q33.6716 833.849 33.035 836.522 Q32.3984 839.196 32.3984 842.06 Q32.3984 846.421 33.7352 848.617 Q35.072 850.781 37.7456 850.781 Q39.7826 850.781 40.9603 849.222 Q42.1061 847.662 43.1565 842.952 L43.6021 840.946 Q44.9389 834.708 47.3897 832.098 Q49.8086 829.456 54.1691 829.456 Q59.1344 829.456 62.0308 833.403 Q64.9272 837.318 64.9272 844.193 Q64.9272 847.057 64.3543 850.177 Q63.8132 853.264 62.6992 856.701 L56.6518 856.701 Q58.3387 853.455 59.198 850.304 Q60.0256 847.153 60.0256 844.066 Q60.0256 839.928 58.6251 837.7 Q57.1929 835.472 54.6147 835.472 Q52.2276 835.472 50.9545 837.095 Q49.6813 838.687 48.5037 844.129 L48.0262 846.166 Q46.8804 851.609 44.5251 854.028 Q42.138 856.447 38.0002 856.447 Q32.9713 856.447 30.2341 852.882 Q27.4968 849.317 27.4968 842.761 Q27.4968 839.514 27.9743 836.65 Q28.4517 833.785 29.4065 831.366 Z" fill="#000000" fill-rule="evenodd" fill-opacity="1" /><path clip-path="url(#clip650)" d="M 0 0 M18.2347 817.521 L28.3562 817.521 L28.3562 805.458 L32.9077 805.458 L32.9077 817.521 L52.2594 817.521 Q56.6199 817.521 57.8613 816.343 Q59.1026 815.133 59.1026 811.473 L59.1026 805.458 L64.0042 805.458 L64.0042 811.473 Q64.0042 818.253 61.4897 820.831 Q58.9434 823.409 52.2594 823.409 L32.9077 823.409 L32.9077 827.706 L28.3562 827.706 L28.3562 823.409 L18.2347 823.409 L18.2347 817.521 Z" fill="#000000" fill-rule="evenodd" fill-opacity="1" /><path clip-path="url(#clip650)" d="M 0 0 M46.0847 783.114 Q46.0847 790.212 47.7079 792.949 Q49.3312 795.686 53.2461 795.686 Q56.3653 795.686 58.2114 793.649 Q60.0256 791.58 60.0256 788.047 Q60.0256 783.178 56.5881 780.249 Q53.1188 777.289 47.3897 777.289 L46.0847 777.289 L46.0847 783.114 M43.6657 771.433 L64.0042 771.433 L64.0042 777.289 L58.5933 777.289 Q61.8398 779.294 63.3994 782.286 Q64.9272 785.278 64.9272 789.607 Q64.9272 795.081 61.8716 798.328 Q58.7843 801.543 53.6281 801.543 Q47.6125 801.543 44.5569 797.532 Q41.5014 793.49 41.5014 785.501 L41.5014 777.289 L40.9285 777.289 Q36.8862 777.289 34.6901 779.963 Q32.4621 782.605 32.4621 787.411 Q32.4621 790.466 33.1941 793.363 Q33.9262 796.259 35.3903 798.933 L29.9795 798.933 Q28.7381 795.718 28.1334 792.694 Q27.4968 789.671 27.4968 786.806 Q27.4968 779.072 31.5072 775.252 Q35.5176 771.433 43.6657 771.433 Z" fill="#000000" fill-rule="evenodd" fill-opacity="1" /><path clip-path="url(#clip650)" d="M 0 0 M42.4881 735.658 L64.0042 735.658 L64.0042 741.514 L42.679 741.514 Q37.6183 741.514 35.1038 743.487 Q32.5894 745.461 32.5894 749.407 Q32.5894 754.15 35.6131 756.887 Q38.6368 759.624 43.8567 759.624 L64.0042 759.624 L64.0042 765.513 L28.3562 765.513 L28.3562 759.624 L33.8944 759.624 Q30.6797 757.524 29.0883 754.691 Q27.4968 751.826 27.4968 748.103 Q27.4968 741.96 31.3163 738.809 Q35.1038 735.658 42.4881 735.658 Z" fill="#000000" fill-rule="evenodd" fill-opacity="1" /><path clip-path="url(#clip650)" d="M 0 0 M33.7671 706.057 L14.479 706.057 L14.479 700.201 L64.0042 700.201 L64.0042 706.057 L58.657 706.057 Q61.8398 707.903 63.3994 710.736 Q64.9272 713.537 64.9272 717.483 Q64.9272 723.945 59.771 728.019 Q54.6147 732.061 46.212 732.061 Q37.8093 732.061 32.6531 728.019 Q27.4968 723.945 27.4968 717.483 Q27.4968 713.537 29.0564 710.736 Q30.5842 707.903 33.7671 706.057 M46.212 726.014 Q52.6732 726.014 56.3653 723.372 Q60.0256 720.698 60.0256 716.051 Q60.0256 711.404 56.3653 708.731 Q52.6732 706.057 46.212 706.057 Q39.7508 706.057 36.0905 708.731 Q32.3984 711.404 32.3984 716.051 Q32.3984 720.698 36.0905 723.372 Q39.7508 726.014 46.212 726.014 Z" fill="#000000" fill-rule="evenodd" fill-opacity="1" /><path clip-path="url(#clip650)" d="M 0 0 M46.0847 677.857 Q46.0847 684.955 47.7079 687.692 Q49.3312 690.429 53.2461 690.429 Q56.3653 690.429 58.2114 688.392 Q60.0256 686.323 60.0256 682.79 Q60.0256 677.921 56.5881 674.992 Q53.1188 672.032 47.3897 672.032 L46.0847 672.032 L46.0847 677.857 M43.6657 666.176 L64.0042 666.176 L64.0042 672.032 L58.5933 672.032 Q61.8398 674.038 63.3994 677.029 Q64.9272 680.021 64.9272 684.35 Q64.9272 689.824 61.8716 693.071 Q58.7843 696.286 53.6281 696.286 Q47.6125 696.286 44.5569 692.275 Q41.5014 688.233 41.5014 680.244 L41.5014 672.032 L40.9285 672.032 Q36.8862 672.032 34.6901 674.706 Q32.4621 677.348 32.4621 682.154 Q32.4621 685.209 33.1941 688.106 Q33.9262 691.002 35.3903 693.676 L29.9795 693.676 Q28.7381 690.461 28.1334 687.437 Q27.4968 684.414 27.4968 681.549 Q27.4968 673.815 31.5072 669.995 Q35.5176 666.176 43.6657 666.176 Z" fill="#000000" fill-rule="evenodd" fill-opacity="1" /><path clip-path="url(#clip650)" d="M 0 0 M33.8307 639.376 Q33.2578 640.363 33.0032 641.541 Q32.7167 642.686 32.7167 644.087 Q32.7167 649.052 35.9632 651.726 Q39.1779 654.367 45.2253 654.367 L64.0042 654.367 L64.0042 660.256 L28.3562 660.256 L28.3562 654.367 L33.8944 654.367 Q30.6479 652.521 29.0883 649.561 Q27.4968 646.601 27.4968 642.368 Q27.4968 641.763 27.5923 641.031 Q27.656 640.299 27.8151 639.408 L33.8307 639.376 Z" fill="#000000" fill-rule="evenodd" fill-opacity="1" /><path clip-path="url(#clip650)" d="M 0 0 M33.7671 610.922 L14.479 610.922 L14.479 605.065 L64.0042 605.065 L64.0042 610.922 L58.657 610.922 Q61.8398 612.768 63.3994 615.6 Q64.9272 618.401 64.9272 622.348 Q64.9272 628.809 59.771 632.883 Q54.6147 636.925 46.212 636.925 Q37.8093 636.925 32.6531 632.883 Q27.4968 628.809 27.4968 622.348 Q27.4968 618.401 29.0564 615.6 Q30.5842 612.768 33.7671 610.922 M46.212 630.878 Q52.6732 630.878 56.3653 628.236 Q60.0256 625.563 60.0256 620.916 Q60.0256 616.269 56.3653 613.595 Q52.6732 610.922 46.212 610.922 Q39.7508 610.922 36.0905 613.595 Q32.3984 616.269 32.3984 620.916 Q32.3984 625.563 36.0905 628.236 Q39.7508 630.878 46.212 630.878 Z" fill="#000000" fill-rule="evenodd" fill-opacity="1" /><path clip-path="url(#clip650)" d="M 0 0 M33.7671 554.744 L14.479 554.744 L14.479 548.888 L64.0042 548.888 L64.0042 554.744 L58.657 554.744 Q61.8398 556.59 63.3994 559.423 Q64.9272 562.224 64.9272 566.171 Q64.9272 572.632 59.771 576.706 Q54.6147 580.748 46.212 580.748 Q37.8093 580.748 32.6531 576.706 Q27.4968 572.632 27.4968 566.171 Q27.4968 562.224 29.0564 559.423 Q30.5842 556.59 33.7671 554.744 M46.212 574.701 Q52.6732 574.701 56.3653 572.059 Q60.0256 569.385 60.0256 564.738 Q60.0256 560.091 56.3653 557.418 Q52.6732 554.744 46.212 554.744 Q39.7508 554.744 36.0905 557.418 Q32.3984 560.091 32.3984 564.738 Q32.3984 569.385 36.0905 572.059 Q39.7508 574.701 46.212 574.701 Z" fill="#000000" fill-rule="evenodd" fill-opacity="1" /><path clip-path="url(#clip650)" d="M 0 0 M44.7161 512.253 L47.5806 512.253 L47.5806 539.18 Q53.6281 538.798 56.8109 535.552 Q59.9619 532.273 59.9619 526.449 Q59.9619 523.075 59.1344 519.924 Q58.3069 516.741 56.6518 513.622 L62.1899 513.622 Q63.5267 516.773 64.227 520.083 Q64.9272 523.393 64.9272 526.799 Q64.9272 535.329 59.9619 540.326 Q54.9967 545.291 46.5303 545.291 Q37.7774 545.291 32.6531 540.58 Q27.4968 535.838 27.4968 527.817 Q27.4968 520.624 32.1438 516.454 Q36.7589 512.253 44.7161 512.253 M42.9973 518.11 Q38.1912 518.173 35.3266 520.815 Q32.4621 523.425 32.4621 527.754 Q32.4621 532.655 35.2312 535.615 Q38.0002 538.543 43.0292 538.989 L42.9973 518.11 Z" fill="#000000" fill-rule="evenodd" fill-opacity="1" /><path clip-path="url(#clip650)" d="M 0 0 M28.3562 510.312 L28.3562 504.105 L58.275 492.965 L28.3562 481.825 L28.3562 475.618 L64.0042 488.986 L64.0042 496.944 L28.3562 510.312 Z" fill="#000000" fill-rule="evenodd" fill-opacity="1" /><path clip-path="url(#clip650)" d="M 0 0 M28.3562 469.476 L28.3562 463.619 L64.0042 463.619 L64.0042 469.476 L28.3562 469.476 M14.479 469.476 L14.479 463.619 L21.895 463.619 L21.895 469.476 L14.479 469.476 Z" fill="#000000" fill-rule="evenodd" fill-opacity="1" /><path clip-path="url(#clip650)" d="M 0 0 M46.0847 441.275 Q46.0847 448.373 47.7079 451.11 Q49.3312 453.848 53.2461 453.848 Q56.3653 453.848 58.2114 451.811 Q60.0256 449.742 60.0256 446.209 Q60.0256 441.339 56.5881 438.411 Q53.1188 435.451 47.3897 435.451 L46.0847 435.451 L46.0847 441.275 M43.6657 429.594 L64.0042 429.594 L64.0042 435.451 L58.5933 435.451 Q61.8398 437.456 63.3994 440.448 Q64.9272 443.44 64.9272 447.768 Q64.9272 453.243 61.8716 456.49 Q58.7843 459.704 53.6281 459.704 Q47.6125 459.704 44.5569 455.694 Q41.5014 451.652 41.5014 443.663 L41.5014 435.451 L40.9285 435.451 Q36.8862 435.451 34.6901 438.124 Q32.4621 440.766 32.4621 445.572 Q32.4621 448.628 33.1941 451.524 Q33.9262 454.421 35.3903 457.094 L29.9795 457.094 Q28.7381 453.88 28.1334 450.856 Q27.4968 447.832 27.4968 444.968 Q27.4968 437.233 31.5072 433.414 Q35.5176 429.594 43.6657 429.594 Z" fill="#000000" fill-rule="evenodd" fill-opacity="1" /><path clip-path="url(#clip650)" d="M 0 0 M18.2347 417.659 L28.3562 417.659 L28.3562 405.596 L32.9077 405.596 L32.9077 417.659 L52.2594 417.659 Q56.6199 417.659 57.8613 416.481 Q59.1026 415.272 59.1026 411.611 L59.1026 405.596 L64.0042 405.596 L64.0042 411.611 Q64.0042 418.391 61.4897 420.969 Q58.9434 423.547 52.2594 423.547 L32.9077 423.547 L32.9077 427.844 L28.3562 427.844 L28.3562 423.547 L18.2347 423.547 L18.2347 417.659 Z" fill="#000000" fill-rule="evenodd" fill-opacity="1" /><path clip-path="url(#clip650)" d="M 0 0 M28.3562 399.453 L28.3562 393.596 L64.0042 393.596 L64.0042 399.453 L28.3562 399.453 M14.479 399.453 L14.479 393.596 L21.895 393.596 L21.895 399.453 L14.479 399.453 Z" fill="#000000" fill-rule="evenodd" fill-opacity="1" /><path clip-path="url(#clip650)" d="M 0 0 M32.4621 373.64 Q32.4621 378.35 36.1542 381.088 Q39.8145 383.825 46.212 383.825 Q52.6095 383.825 56.3017 381.12 Q59.9619 378.382 59.9619 373.64 Q59.9619 368.961 56.2698 366.224 Q52.5777 363.487 46.212 363.487 Q39.8781 363.487 36.186 366.224 Q32.4621 368.961 32.4621 373.64 M27.4968 373.64 Q27.4968 366.001 32.4621 361.64 Q37.4273 357.28 46.212 357.28 Q54.9649 357.28 59.9619 361.64 Q64.9272 366.001 64.9272 373.64 Q64.9272 381.311 59.9619 385.671 Q54.9649 390 46.212 390 Q37.4273 390 32.4621 385.671 Q27.4968 381.311 27.4968 373.64 Z" fill="#000000" fill-rule="evenodd" fill-opacity="1" /><path clip-path="url(#clip650)" d="M 0 0 M42.4881 321.505 L64.0042 321.505 L64.0042 327.361 L42.679 327.361 Q37.6183 327.361 35.1038 329.335 Q32.5894 331.308 32.5894 335.255 Q32.5894 339.997 35.6131 342.734 Q38.6368 345.472 43.8567 345.472 L64.0042 345.472 L64.0042 351.36 L28.3562 351.36 L28.3562 345.472 L33.8944 345.472 Q30.6797 343.371 29.0883 340.538 Q27.4968 337.674 27.4968 333.95 Q27.4968 327.807 31.3163 324.656 Q35.1038 321.505 42.4881 321.505 Z" fill="#000000" fill-rule="evenodd" fill-opacity="1" /><polyline clip-path="url(#clip652)" style="stroke:#009af9; stroke-width:8; stroke-opacity:1; fill:none" points="
  224.866,1384.24 242.599,801.21 260.331,318.628 278.063,108.395 295.796,100.438 313.528,176.366 331.261,272.323 348.993,366.7 366.726,454.181 384.458,533.943 
  402.19,606.191 419.923,671.325 437.655,729.785 455.388,781.99 473.12,828.327 490.852,869.145 508.585,904.754 526.317,935.432 544.05,961.432 561.782,982.987 
  579.515,1000.32 597.247,1013.68 614.979,1023.29 632.712,1029.41 650.444,1032.33 668.177,1032.32 685.909,1029.68 703.641,1024.7 721.374,1017.64 739.106,1008.78 
  756.839,998.338 774.571,986.539 792.303,973.57 810.036,959.598 827.768,944.773 845.501,929.226 863.233,913.081 880.966,896.455 898.698,879.457 916.43,862.193 
  934.163,844.767 951.895,827.275 969.628,809.824 987.36,792.51 1005.09,775.423 1022.82,758.651 1040.56,742.275 1058.29,726.378 1076.02,711.033 1093.75,696.311 
  1111.49,682.275 1129.22,668.984 1146.95,656.487 1164.68,644.828 1182.42,634.042 1200.15,624.153 1217.88,615.175 1235.61,607.116 1253.35,599.968 1271.08,593.719 
  1288.81,588.344 1306.54,583.811 1324.28,580.081 1342.01,577.109 1359.74,574.843 1377.47,573.23 1395.21,572.213 1412.94,571.734 1430.67,571.734 1448.4,572.155 
  1466.14,572.94 1483.87,574.035 1501.6,575.389 1519.33,576.951 1537.06,578.678 1554.8,580.528 1572.53,582.463 1590.26,584.449 1607.99,586.456 1625.73,588.458 
  1643.46,590.431 1661.19,592.358 1678.92,594.22 1696.66,596.006 1714.39,597.704 1732.12,599.306 1749.85,600.807 1767.59,602.202 1785.32,603.489 1803.05,604.668 
  1820.78,605.74 1838.52,606.705 1856.25,607.568 1873.98,608.331 1891.71,608.998 1909.45,609.574 1927.18,610.065 1944.91,610.475 1962.64,610.81 1980.38,611.075 
  1998.11,611.277 2015.84,611.421 2033.57,611.511 2051.3,611.554 2069.04,611.555 2086.77,611.519 2104.5,611.45 2122.23,611.353 2139.97,611.232 2157.7,611.091 
  2175.43,610.934 2193.16,610.765 2210.9,610.586 2228.63,610.401 2246.36,610.211 2264.09,610.02 2281.83,609.83 2299.56,609.642 2317.29,609.458 2335.02,609.279 
  2352.76,609.107 
  "/>
<polyline clip-path="url(#clip652)" style="stroke:#e26f46; stroke-width:8; stroke-opacity:1; fill:none" points="
  224.866,1384.24 242.599,801.239 260.331,319.685 278.063,112.997 295.796,108.061 313.528,185.557 331.261,281.778 348.993,375.481 366.726,461.942 384.458,540.609 
  402.19,611.763 419.923,675.824 437.655,733.231 455.388,784.405 473.12,829.728 490.852,869.553 508.585,904.195 526.317,933.942 544.05,959.06 561.782,979.802 
  579.515,996.418 597.247,1009.16 614.979,1018.3 632.712,1024.1 650.444,1026.85 668.177,1026.84 685.909,1024.36 703.641,1019.68 721.374,1013.08 739.106,1004.79 
  756.839,995.039 774.571,984.035 792.303,971.949 810.036,958.938 827.768,945.131 845.501,930.643 863.233,915.566 880.966,899.983 898.698,883.961 916.43,867.563 
  934.163,850.843 951.895,833.853 969.628,816.646 987.36,799.273 1005.09,781.788 1022.82,764.248 1040.56,746.712 1058.29,729.243 1076.02,711.907 1093.75,694.77 
  1111.49,677.901 1129.22,661.367 1146.95,645.235 1164.68,629.568 1182.42,614.427 1200.15,599.866 1217.88,585.934 1235.61,572.674 1253.35,560.121 1271.08,548.304 
  1288.81,537.242 1306.54,526.95 1324.28,517.434 1342.01,508.692 1359.74,500.718 1377.47,493.5 1395.21,487.021 1412.94,481.258 1430.67,476.188 1448.4,471.781 
  1466.14,468.007 1483.87,464.834 1501.6,462.227 1519.33,460.151 1537.06,458.572 1554.8,457.454 1572.53,456.762 1590.26,456.46 1607.99,456.514 1625.73,456.891 
  1643.46,457.558 1661.19,458.485 1678.92,459.64 1696.66,460.996 1714.39,462.524 1732.12,464.199 1749.85,465.997 1767.59,467.894 1785.32,469.869 1803.05,471.901 
  1820.78,473.973 1838.52,476.066 1856.25,478.165 1873.98,480.256 1891.71,482.326 1909.45,484.363 1927.18,486.356 1944.91,488.297 1962.64,490.176 1980.38,491.988 
  1998.11,493.726 2015.84,495.385 2033.57,496.962 2051.3,498.452 2069.04,499.855 2086.77,501.167 2104.5,502.389 2122.23,503.52 2139.97,504.561 2157.7,505.512 
  2175.43,506.376 2193.16,507.153 2210.9,507.847 2228.63,508.46 2246.36,508.994 2264.09,509.453 2281.83,509.841 2299.56,510.161 2317.29,510.416 2335.02,510.61 
  2352.76,510.748 
  "/>
<polyline clip-path="url(#clip652)" style="stroke:#808080; stroke-width:8; stroke-opacity:1; fill:none" stroke-dasharray="32, 20" points="
  224.866,1384.24 242.599,805.25 260.331,326.244 278.063,105.964 295.796,86.1857 313.528,151.502 331.261,248.048 348.993,343.091 366.726,430.023 384.458,510.027 
  402.19,582.791 419.923,650.13 437.655,706.232 455.388,757.082 473.12,800.663 490.852,840.053 508.585,872.661 526.317,898.978 544.05,919.819 561.782,934.277 
  579.515,951.816 597.247,962.213 614.979,969.214 632.712,973.839 650.444,975.204 668.177,977.224 685.909,977.564 703.641,971.032 721.374,962.492 739.106,955.224 
  756.839,945.209 774.571,935.754 792.303,925.494 810.036,915.775 827.768,905.088 845.501,892.567 863.233,881.471 880.966,873.038 898.698,860.822 916.43,843.343 
  934.163,818.714 951.895,794.319 969.628,777.224 987.36,763.767 1005.09,753.517 1022.82,742.906 1040.56,727.021 1058.29,715.259 1076.02,705.446 1093.75,701.609 
  1111.49,688.621 1129.22,673.186 1146.95,657.48 1164.68,646.417 1182.42,637.756 1200.15,627.448 1217.88,610.736 1235.61,592.918 1253.35,581.28 1271.08,576.114 
  1288.81,573.283 1306.54,565.295 1324.28,553.052 1342.01,542.252 1359.74,522.297 1377.47,506.36 1395.21,495.901 1412.94,488.539 1430.67,482.833 1448.4,485.278 
  1466.14,484.609 1483.87,481.002 1501.6,474.993 1519.33,470.862 1537.06,459.846 1554.8,452.977 1572.53,443.483 1590.26,444.684 1607.99,442.067 1625.73,443.784 
  1643.46,444.115 1661.19,446.698 1678.92,442.73 1696.66,435.787 1714.39,428.611 1732.12,424.061 1749.85,429.795 1767.59,437.236 1785.32,442.385 1803.05,440.156 
  1820.78,441.776 1838.52,447.754 1856.25,454.341 1873.98,450.74 1891.71,446.329 1909.45,445.308 1927.18,443.335 1944.91,434.03 1962.64,427.195 1980.38,430.722 
  1998.11,435.463 2015.84,440.703 2033.57,445.532 2051.3,452.23 2069.04,457.203 2086.77,459.516 2104.5,458.559 2122.23,457.866 2139.97,460.88 2157.7,469.4 
  2175.43,478.64 2193.16,478.738 2210.9,469.832 2228.63,465.693 2246.36,463.953 2264.09,458.666 2281.83,451.436 2299.56,447.296 2317.29,444.526 2335.02,440.56 
  2352.76,439.01 
  "/>
<path clip-path="url(#clip650)" d="
M1390.19 335.029 L2281.83 335.029 L2281.83 93.1086 L1390.19 93.1086  Z
  " fill="#ffffff" fill-rule="evenodd" fill-opacity="1"/>
<polyline clip-path="url(#clip650)" style="stroke:#000000; stroke-width:4; stroke-opacity:1; fill:none" points="
  1390.19,335.029 2281.83,335.029 2281.83,93.1086 1390.19,93.1086 1390.19,335.029 
  "/>
<polyline clip-path="url(#clip650)" style="stroke:#009af9; stroke-width:4; stroke-opacity:1; fill:none" points="
  1413.83,153.589 1555.69,153.589 
  "/>
<path clip-path="url(#clip650)" d="M 0 0 M1598.25 148.878 L1598.25 134.85 L1602.51 134.85 L1602.51 170.869 L1598.25 170.869 L1598.25 166.98 Q1596.9 169.295 1594.84 170.429 Q1592.81 171.54 1589.94 171.54 Q1585.24 171.54 1582.27 167.79 Q1579.33 164.04 1579.33 157.929 Q1579.33 151.818 1582.27 148.068 Q1585.24 144.318 1589.94 144.318 Q1592.81 144.318 1594.84 145.452 Q1596.9 146.563 1598.25 148.878 M1583.73 157.929 Q1583.73 162.628 1585.65 165.313 Q1587.6 167.975 1590.98 167.975 Q1594.36 167.975 1596.3 165.313 Q1598.25 162.628 1598.25 157.929 Q1598.25 153.23 1596.3 150.568 Q1594.36 147.883 1590.98 147.883 Q1587.6 147.883 1585.65 150.568 Q1583.73 153.23 1583.73 157.929 Z" fill="#000000" fill-rule="evenodd" fill-opacity="1" /><path clip-path="url(#clip650)" d="M 0 0 M1629.15 156.841 L1629.15 158.924 L1609.57 158.924 Q1609.84 163.322 1612.21 165.637 Q1614.59 167.929 1618.83 167.929 Q1621.28 167.929 1623.57 167.327 Q1625.89 166.725 1628.15 165.521 L1628.15 169.549 Q1625.86 170.521 1623.46 171.031 Q1621.05 171.54 1618.57 171.54 Q1612.37 171.54 1608.73 167.929 Q1605.12 164.318 1605.12 158.16 Q1605.12 151.795 1608.55 148.068 Q1612 144.318 1617.83 144.318 Q1623.06 144.318 1626.09 147.697 Q1629.15 151.054 1629.15 156.841 M1624.89 155.591 Q1624.84 152.096 1622.92 150.012 Q1621.02 147.929 1617.88 147.929 Q1614.31 147.929 1612.16 149.943 Q1610.03 151.957 1609.71 155.614 L1624.89 155.591 Z" fill="#000000" fill-rule="evenodd" fill-opacity="1" /><path clip-path="url(#clip650)" d="M 0 0 M1648.64 148.924 Q1647.92 148.508 1647.07 148.322 Q1646.23 148.114 1645.21 148.114 Q1641.6 148.114 1639.66 150.475 Q1637.74 152.813 1637.74 157.211 L1637.74 170.869 L1633.46 170.869 L1633.46 144.943 L1637.74 144.943 L1637.74 148.971 Q1639.08 146.609 1641.23 145.475 Q1643.39 144.318 1646.46 144.318 Q1646.9 144.318 1647.44 144.387 Q1647.97 144.434 1648.62 144.549 L1648.64 148.924 Z" fill="#000000" fill-rule="evenodd" fill-opacity="1" /><path clip-path="url(#clip650)" d="M 0 0 M1653.11 144.943 L1657.37 144.943 L1657.37 170.869 L1653.11 170.869 L1653.11 144.943 M1653.11 134.85 L1657.37 134.85 L1657.37 140.244 L1653.11 140.244 L1653.11 134.85 Z" fill="#000000" fill-rule="evenodd" fill-opacity="1" /><path clip-path="url(#clip650)" d="M 0 0 M1658.78 144.943 L1663.29 144.943 L1671.39 166.702 L1679.5 144.943 L1684.01 144.943 L1674.29 170.869 L1668.5 170.869 L1658.78 144.943 Z" fill="#000000" fill-rule="evenodd" fill-opacity="1" /><path clip-path="url(#clip650)" d="M 0 0 M1700.26 157.836 Q1695.1 157.836 1693.11 159.017 Q1691.12 160.197 1691.12 163.045 Q1691.12 165.313 1692.6 166.656 Q1694.1 167.975 1696.67 167.975 Q1700.21 167.975 1702.34 165.475 Q1704.5 162.952 1704.5 158.785 L1704.5 157.836 L1700.26 157.836 M1708.76 156.077 L1708.76 170.869 L1704.5 170.869 L1704.5 166.933 Q1703.04 169.295 1700.86 170.429 Q1698.69 171.54 1695.54 171.54 Q1691.56 171.54 1689.2 169.318 Q1686.86 167.072 1686.86 163.322 Q1686.86 158.947 1689.77 156.725 Q1692.71 154.503 1698.52 154.503 L1704.5 154.503 L1704.5 154.086 Q1704.5 151.147 1702.55 149.549 Q1700.63 147.929 1697.14 147.929 Q1694.91 147.929 1692.81 148.461 Q1690.7 148.994 1688.76 150.059 L1688.76 146.123 Q1691.09 145.221 1693.29 144.781 Q1695.49 144.318 1697.58 144.318 Q1703.2 144.318 1705.98 147.234 Q1708.76 150.151 1708.76 156.077 Z" fill="#000000" fill-rule="evenodd" fill-opacity="1" /><path clip-path="url(#clip650)" d="M 0 0 M1717.44 137.582 L1717.44 144.943 L1726.21 144.943 L1726.21 148.253 L1717.44 148.253 L1717.44 162.327 Q1717.44 165.498 1718.29 166.401 Q1719.17 167.304 1721.83 167.304 L1726.21 167.304 L1726.21 170.869 L1721.83 170.869 Q1716.9 170.869 1715.03 169.04 Q1713.15 167.188 1713.15 162.327 L1713.15 148.253 L1710.03 148.253 L1710.03 144.943 L1713.15 144.943 L1713.15 137.582 L1717.44 137.582 Z" fill="#000000" fill-rule="evenodd" fill-opacity="1" /><path clip-path="url(#clip650)" d="M 0 0 M1730.68 144.943 L1734.94 144.943 L1734.94 170.869 L1730.68 170.869 L1730.68 144.943 M1730.68 134.85 L1734.94 134.85 L1734.94 140.244 L1730.68 140.244 L1730.68 134.85 Z" fill="#000000" fill-rule="evenodd" fill-opacity="1" /><path clip-path="url(#clip650)" d="M 0 0 M1736.35 144.943 L1740.86 144.943 L1748.96 166.702 L1757.07 144.943 L1761.58 144.943 L1751.86 170.869 L1746.07 170.869 L1736.35 144.943 Z" fill="#000000" fill-rule="evenodd" fill-opacity="1" /><path clip-path="url(#clip650)" d="M 0 0 M1788.22 156.841 L1788.22 158.924 L1768.64 158.924 Q1768.92 163.322 1771.28 165.637 Q1773.66 167.929 1777.9 167.929 Q1780.35 167.929 1782.64 167.327 Q1784.96 166.725 1787.23 165.521 L1787.23 169.549 Q1784.94 170.521 1782.53 171.031 Q1780.12 171.54 1777.64 171.54 Q1771.44 171.54 1767.81 167.929 Q1764.2 164.318 1764.2 158.16 Q1764.2 151.795 1767.62 148.068 Q1771.07 144.318 1776.9 144.318 Q1782.13 144.318 1785.17 147.697 Q1788.22 151.054 1788.22 156.841 M1783.96 155.591 Q1783.92 152.096 1782 150.012 Q1780.1 147.929 1776.95 147.929 Q1773.38 147.929 1771.23 149.943 Q1769.1 151.957 1768.78 155.614 L1783.96 155.591 Z" fill="#000000" fill-rule="evenodd" fill-opacity="1" /><path clip-path="url(#clip650)" d="M 0 0 M1827.94 149.92 Q1829.54 147.049 1831.76 145.684 Q1833.99 144.318 1837 144.318 Q1841.05 144.318 1843.25 147.165 Q1845.44 149.989 1845.44 155.221 L1845.44 170.869 L1841.16 170.869 L1841.16 155.359 Q1841.16 151.633 1839.84 149.827 Q1838.52 148.022 1835.82 148.022 Q1832.5 148.022 1830.58 150.221 Q1828.66 152.42 1828.66 156.216 L1828.66 170.869 L1824.38 170.869 L1824.38 155.359 Q1824.38 151.609 1823.06 149.827 Q1821.74 148.022 1818.99 148.022 Q1815.72 148.022 1813.8 150.244 Q1811.88 152.443 1811.88 156.216 L1811.88 170.869 L1807.6 170.869 L1807.6 144.943 L1811.88 144.943 L1811.88 148.971 Q1813.34 146.586 1815.38 145.452 Q1817.41 144.318 1820.21 144.318 Q1823.04 144.318 1825 145.753 Q1827 147.188 1827.94 149.92 Z" fill="#000000" fill-rule="evenodd" fill-opacity="1" /><path clip-path="url(#clip650)" d="M 0 0 M1861.69 157.836 Q1856.53 157.836 1854.54 159.017 Q1852.55 160.197 1852.55 163.045 Q1852.55 165.313 1854.03 166.656 Q1855.54 167.975 1858.11 167.975 Q1861.65 167.975 1863.78 165.475 Q1865.93 162.952 1865.93 158.785 L1865.93 157.836 L1861.69 157.836 M1870.19 156.077 L1870.19 170.869 L1865.93 170.869 L1865.93 166.933 Q1864.47 169.295 1862.3 170.429 Q1860.12 171.54 1856.97 171.54 Q1852.99 171.54 1850.63 169.318 Q1848.29 167.072 1848.29 163.322 Q1848.29 158.947 1851.21 156.725 Q1854.15 154.503 1859.96 154.503 L1865.93 154.503 L1865.93 154.086 Q1865.93 151.147 1863.99 149.549 Q1862.06 147.929 1858.57 147.929 Q1856.35 147.929 1854.24 148.461 Q1852.13 148.994 1850.19 150.059 L1850.19 146.123 Q1852.53 145.221 1854.73 144.781 Q1856.93 144.318 1859.01 144.318 Q1864.63 144.318 1867.41 147.234 Q1870.19 150.151 1870.19 156.077 Z" fill="#000000" fill-rule="evenodd" fill-opacity="1" /><path clip-path="url(#clip650)" d="M 0 0 M1878.87 137.582 L1878.87 144.943 L1887.64 144.943 L1887.64 148.253 L1878.87 148.253 L1878.87 162.327 Q1878.87 165.498 1879.73 166.401 Q1880.61 167.304 1883.27 167.304 L1887.64 167.304 L1887.64 170.869 L1883.27 170.869 Q1878.34 170.869 1876.46 169.04 Q1874.59 167.188 1874.59 162.327 L1874.59 148.253 L1871.46 148.253 L1871.46 144.943 L1874.59 144.943 L1874.59 137.582 L1878.87 137.582 Z" fill="#000000" fill-rule="evenodd" fill-opacity="1" /><path clip-path="url(#clip650)" d="M 0 0 M1910.77 145.938 L1910.77 149.92 Q1908.96 148.924 1907.13 148.438 Q1905.33 147.929 1903.48 147.929 Q1899.33 147.929 1897.04 150.568 Q1894.75 153.184 1894.75 157.929 Q1894.75 162.674 1897.04 165.313 Q1899.33 167.929 1903.48 167.929 Q1905.33 167.929 1907.13 167.443 Q1908.96 166.933 1910.77 165.938 L1910.77 169.873 Q1908.99 170.707 1907.06 171.123 Q1905.17 171.54 1903.01 171.54 Q1897.16 171.54 1893.71 167.859 Q1890.26 164.179 1890.26 157.929 Q1890.26 151.586 1893.73 147.952 Q1897.23 144.318 1903.29 144.318 Q1905.26 144.318 1907.13 144.735 Q1909.01 145.128 1910.77 145.938 Z" fill="#000000" fill-rule="evenodd" fill-opacity="1" /><path clip-path="url(#clip650)" d="M 0 0 M1936.79 155.221 L1936.79 170.869 L1932.53 170.869 L1932.53 155.359 Q1932.53 151.679 1931.09 149.85 Q1929.66 148.022 1926.79 148.022 Q1923.34 148.022 1921.35 150.221 Q1919.36 152.42 1919.36 156.216 L1919.36 170.869 L1915.07 170.869 L1915.07 134.85 L1919.36 134.85 L1919.36 148.971 Q1920.88 146.633 1922.94 145.475 Q1925.03 144.318 1927.74 144.318 Q1932.2 144.318 1934.5 147.096 Q1936.79 149.85 1936.79 155.221 Z" fill="#000000" fill-rule="evenodd" fill-opacity="1" /><path clip-path="url(#clip650)" d="M 0 0 M1941.25 144.943 L1945.51 144.943 L1945.51 170.869 L1941.25 170.869 L1941.25 144.943 M1941.25 134.85 L1945.51 134.85 L1945.51 140.244 L1941.25 140.244 L1941.25 134.85 Z" fill="#000000" fill-rule="evenodd" fill-opacity="1" /><path clip-path="url(#clip650)" d="M 0 0 M1971.53 155.221 L1971.53 170.869 L1967.27 170.869 L1967.27 155.359 Q1967.27 151.679 1965.84 149.85 Q1964.4 148.022 1961.53 148.022 Q1958.08 148.022 1956.09 150.221 Q1954.1 152.42 1954.1 156.216 L1954.1 170.869 L1949.82 170.869 L1949.82 144.943 L1954.1 144.943 L1954.1 148.971 Q1955.63 146.633 1957.69 145.475 Q1959.77 144.318 1962.48 144.318 Q1966.95 144.318 1969.24 147.096 Q1971.53 149.85 1971.53 155.221 Z" fill="#000000" fill-rule="evenodd" fill-opacity="1" /><path clip-path="url(#clip650)" d="M 0 0 M1993.06 157.605 Q1993.06 152.975 1991.14 150.429 Q1989.24 147.883 1985.79 147.883 Q1982.37 147.883 1980.44 150.429 Q1978.55 152.975 1978.55 157.605 Q1978.55 162.211 1980.44 164.758 Q1982.37 167.304 1985.79 167.304 Q1989.24 167.304 1991.14 164.758 Q1993.06 162.211 1993.06 157.605 M1997.32 167.651 Q1997.32 174.271 1994.38 177.489 Q1991.44 180.73 1985.37 180.73 Q1983.13 180.73 1981.14 180.382 Q1979.15 180.058 1977.27 179.364 L1977.27 175.22 Q1979.15 176.239 1980.98 176.725 Q1982.81 177.211 1984.7 177.211 Q1988.89 177.211 1990.98 175.012 Q1993.06 172.836 1993.06 168.415 L1993.06 166.308 Q1991.74 168.6 1989.68 169.734 Q1987.62 170.869 1984.75 170.869 Q1979.98 170.869 1977.06 167.234 Q1974.15 163.6 1974.15 157.605 Q1974.15 151.586 1977.06 147.952 Q1979.98 144.318 1984.75 144.318 Q1987.62 144.318 1989.68 145.452 Q1991.74 146.586 1993.06 148.878 L1993.06 144.943 L1997.32 144.943 L1997.32 167.651 Z" fill="#000000" fill-rule="evenodd" fill-opacity="1" /><polyline clip-path="url(#clip650)" style="stroke:#e26f46; stroke-width:4; stroke-opacity:1; fill:none" points="
  1413.83,214.069 1555.69,214.069 
  "/>
<path clip-path="url(#clip650)" d="M 0 0 M1599.84 206.418 L1599.84 210.4 Q1598.04 209.404 1596.21 208.918 Q1594.4 208.409 1592.55 208.409 Q1588.41 208.409 1586.12 211.048 Q1583.83 213.664 1583.83 218.409 Q1583.83 223.154 1586.12 225.793 Q1588.41 228.409 1592.55 228.409 Q1594.4 228.409 1596.21 227.923 Q1598.04 227.413 1599.84 226.418 L1599.84 230.353 Q1598.06 231.187 1596.14 231.603 Q1594.24 232.02 1592.09 232.02 Q1586.23 232.02 1582.78 228.339 Q1579.33 224.659 1579.33 218.409 Q1579.33 212.066 1582.81 208.432 Q1586.3 204.798 1592.37 204.798 Q1594.33 204.798 1596.21 205.215 Q1598.08 205.608 1599.84 206.418 Z" fill="#000000" fill-rule="evenodd" fill-opacity="1" /><path clip-path="url(#clip650)" d="M 0 0 M1614.36 208.409 Q1610.93 208.409 1608.94 211.094 Q1606.95 213.756 1606.95 218.409 Q1606.95 223.062 1608.92 225.747 Q1610.91 228.409 1614.36 228.409 Q1617.76 228.409 1619.75 225.724 Q1621.74 223.038 1621.74 218.409 Q1621.74 213.802 1619.75 211.117 Q1617.76 208.409 1614.36 208.409 M1614.36 204.798 Q1619.91 204.798 1623.08 208.409 Q1626.26 212.02 1626.26 218.409 Q1626.26 224.775 1623.08 228.409 Q1619.91 232.02 1614.36 232.02 Q1608.78 232.02 1605.61 228.409 Q1602.46 224.775 1602.46 218.409 Q1602.46 212.02 1605.61 208.409 Q1608.78 204.798 1614.36 204.798 Z" fill="#000000" fill-rule="evenodd" fill-opacity="1" /><path clip-path="url(#clip650)" d="M 0 0 M1652.27 215.701 L1652.27 231.349 L1648.02 231.349 L1648.02 215.839 Q1648.02 212.159 1646.58 210.33 Q1645.14 208.502 1642.27 208.502 Q1638.83 208.502 1636.83 210.701 Q1634.84 212.9 1634.84 216.696 L1634.84 231.349 L1630.56 231.349 L1630.56 205.423 L1634.84 205.423 L1634.84 209.451 Q1636.37 207.113 1638.43 205.955 Q1640.52 204.798 1643.22 204.798 Q1647.69 204.798 1649.98 207.576 Q1652.27 210.33 1652.27 215.701 Z" fill="#000000" fill-rule="evenodd" fill-opacity="1" /><path clip-path="url(#clip650)" d="M 0 0 M1673.8 209.358 L1673.8 195.33 L1678.06 195.33 L1678.06 231.349 L1673.8 231.349 L1673.8 227.46 Q1672.46 229.775 1670.4 230.909 Q1668.36 232.02 1665.49 232.02 Q1660.79 232.02 1657.83 228.27 Q1654.89 224.52 1654.89 218.409 Q1654.89 212.298 1657.83 208.548 Q1660.79 204.798 1665.49 204.798 Q1668.36 204.798 1670.4 205.932 Q1672.46 207.043 1673.8 209.358 M1659.29 218.409 Q1659.29 223.108 1661.21 225.793 Q1663.15 228.455 1666.53 228.455 Q1669.91 228.455 1671.86 225.793 Q1673.8 223.108 1673.8 218.409 Q1673.8 213.71 1671.86 211.048 Q1669.91 208.363 1666.53 208.363 Q1663.15 208.363 1661.21 211.048 Q1659.29 213.71 1659.29 218.409 Z" fill="#000000" fill-rule="evenodd" fill-opacity="1" /><path clip-path="url(#clip650)" d="M 0 0 M1682.53 205.423 L1686.79 205.423 L1686.79 231.349 L1682.53 231.349 L1682.53 205.423 M1682.53 195.33 L1686.79 195.33 L1686.79 200.724 L1682.53 200.724 L1682.53 195.33 Z" fill="#000000" fill-rule="evenodd" fill-opacity="1" /><path clip-path="url(#clip650)" d="M 0 0 M1695.47 198.062 L1695.47 205.423 L1704.24 205.423 L1704.24 208.733 L1695.47 208.733 L1695.47 222.807 Q1695.47 225.978 1696.33 226.881 Q1697.2 227.784 1699.87 227.784 L1704.24 227.784 L1704.24 231.349 L1699.87 231.349 Q1694.94 231.349 1693.06 229.52 Q1691.19 227.668 1691.19 222.807 L1691.19 208.733 L1688.06 208.733 L1688.06 205.423 L1691.19 205.423 L1691.19 198.062 L1695.47 198.062 Z" fill="#000000" fill-rule="evenodd" fill-opacity="1" /><path clip-path="url(#clip650)" d="M 0 0 M1708.71 205.423 L1712.97 205.423 L1712.97 231.349 L1708.71 231.349 L1708.71 205.423 M1708.71 195.33 L1712.97 195.33 L1712.97 200.724 L1708.71 200.724 L1708.71 195.33 Z" fill="#000000" fill-rule="evenodd" fill-opacity="1" /><path clip-path="url(#clip650)" d="M 0 0 M1727.48 208.409 Q1724.06 208.409 1722.07 211.094 Q1720.07 213.756 1720.07 218.409 Q1720.07 223.062 1722.04 225.747 Q1724.03 228.409 1727.48 228.409 Q1730.89 228.409 1732.88 225.724 Q1734.87 223.038 1734.87 218.409 Q1734.87 213.802 1732.88 211.117 Q1730.89 208.409 1727.48 208.409 M1727.48 204.798 Q1733.04 204.798 1736.21 208.409 Q1739.38 212.02 1739.38 218.409 Q1739.38 224.775 1736.21 228.409 Q1733.04 232.02 1727.48 232.02 Q1721.9 232.02 1718.73 228.409 Q1715.58 224.775 1715.58 218.409 Q1715.58 212.02 1718.73 208.409 Q1721.9 204.798 1727.48 204.798 Z" fill="#000000" fill-rule="evenodd" fill-opacity="1" /><path clip-path="url(#clip650)" d="M 0 0 M1765.4 215.701 L1765.4 231.349 L1761.14 231.349 L1761.14 215.839 Q1761.14 212.159 1759.7 210.33 Q1758.27 208.502 1755.4 208.502 Q1751.95 208.502 1749.96 210.701 Q1747.97 212.9 1747.97 216.696 L1747.97 231.349 L1743.69 231.349 L1743.69 205.423 L1747.97 205.423 L1747.97 209.451 Q1749.5 207.113 1751.56 205.955 Q1753.64 204.798 1756.35 204.798 Q1760.82 204.798 1763.11 207.576 Q1765.4 210.33 1765.4 215.701 Z" fill="#000000" fill-rule="evenodd" fill-opacity="1" /><path clip-path="url(#clip650)" d="M 0 0 M1781.65 218.316 Q1776.49 218.316 1774.5 219.497 Q1772.51 220.677 1772.51 223.525 Q1772.51 225.793 1773.99 227.136 Q1775.49 228.455 1778.06 228.455 Q1781.6 228.455 1783.73 225.955 Q1785.88 223.432 1785.88 219.265 L1785.88 218.316 L1781.65 218.316 M1790.14 216.557 L1790.14 231.349 L1785.88 231.349 L1785.88 227.413 Q1784.43 229.775 1782.25 230.909 Q1780.07 232.02 1776.93 232.02 Q1772.95 232.02 1770.58 229.798 Q1768.25 227.552 1768.25 223.802 Q1768.25 219.427 1771.16 217.205 Q1774.1 214.983 1779.91 214.983 L1785.88 214.983 L1785.88 214.566 Q1785.88 211.627 1783.94 210.029 Q1782.02 208.409 1778.52 208.409 Q1776.3 208.409 1774.2 208.941 Q1772.09 209.474 1770.14 210.539 L1770.14 206.603 Q1772.48 205.701 1774.68 205.261 Q1776.88 204.798 1778.96 204.798 Q1784.59 204.798 1787.37 207.714 Q1790.14 210.631 1790.14 216.557 Z" fill="#000000" fill-rule="evenodd" fill-opacity="1" /><path clip-path="url(#clip650)" d="M 0 0 M1794.61 195.33 L1798.87 195.33 L1798.87 231.349 L1794.61 231.349 L1794.61 195.33 Z" fill="#000000" fill-rule="evenodd" fill-opacity="1" /><path clip-path="url(#clip650)" d="M 0 0 M1835.47 209.358 L1835.47 195.33 L1839.73 195.33 L1839.73 231.349 L1835.47 231.349 L1835.47 227.46 Q1834.13 229.775 1832.07 230.909 Q1830.03 232.02 1827.16 232.02 Q1822.46 232.02 1819.5 228.27 Q1816.56 224.52 1816.56 218.409 Q1816.56 212.298 1819.5 208.548 Q1822.46 204.798 1827.16 204.798 Q1830.03 204.798 1832.07 205.932 Q1834.13 207.043 1835.47 209.358 M1820.95 218.409 Q1820.95 223.108 1822.88 225.793 Q1824.82 228.455 1828.2 228.455 Q1831.58 228.455 1833.52 225.793 Q1835.47 223.108 1835.47 218.409 Q1835.47 213.71 1833.52 211.048 Q1831.58 208.363 1828.2 208.363 Q1824.82 208.363 1822.88 211.048 Q1820.95 213.71 1820.95 218.409 Z" fill="#000000" fill-rule="evenodd" fill-opacity="1" /><path clip-path="url(#clip650)" d="M 0 0 M1866.37 217.321 L1866.37 219.404 L1846.79 219.404 Q1847.07 223.802 1849.43 226.117 Q1851.81 228.409 1856.05 228.409 Q1858.5 228.409 1860.79 227.807 Q1863.11 227.205 1865.38 226.001 L1865.38 230.029 Q1863.08 231.001 1860.68 231.511 Q1858.27 232.02 1855.79 232.02 Q1849.59 232.02 1845.95 228.409 Q1842.34 224.798 1842.34 218.64 Q1842.34 212.275 1845.77 208.548 Q1849.22 204.798 1855.05 204.798 Q1860.28 204.798 1863.31 208.177 Q1866.37 211.534 1866.37 217.321 M1862.11 216.071 Q1862.06 212.576 1860.14 210.492 Q1858.25 208.409 1855.1 208.409 Q1851.53 208.409 1849.38 210.423 Q1847.25 212.437 1846.93 216.094 L1862.11 216.071 Z" fill="#000000" fill-rule="evenodd" fill-opacity="1" /><path clip-path="url(#clip650)" d="M 0 0 M1885.86 209.404 Q1885.14 208.988 1884.29 208.802 Q1883.45 208.594 1882.44 208.594 Q1878.82 208.594 1876.88 210.955 Q1874.96 213.293 1874.96 217.691 L1874.96 231.349 L1870.68 231.349 L1870.68 205.423 L1874.96 205.423 L1874.96 209.451 Q1876.3 207.089 1878.45 205.955 Q1880.61 204.798 1883.69 204.798 Q1884.13 204.798 1884.66 204.867 Q1885.19 204.914 1885.84 205.029 L1885.86 209.404 Z" fill="#000000" fill-rule="evenodd" fill-opacity="1" /><path clip-path="url(#clip650)" d="M 0 0 M1890.33 205.423 L1894.59 205.423 L1894.59 231.349 L1890.33 231.349 L1890.33 205.423 M1890.33 195.33 L1894.59 195.33 L1894.59 200.724 L1890.33 200.724 L1890.33 195.33 Z" fill="#000000" fill-rule="evenodd" fill-opacity="1" /><path clip-path="url(#clip650)" d="M 0 0 M1896 205.423 L1900.51 205.423 L1908.62 227.182 L1916.72 205.423 L1921.23 205.423 L1911.51 231.349 L1905.72 231.349 L1896 205.423 Z" fill="#000000" fill-rule="evenodd" fill-opacity="1" /><path clip-path="url(#clip650)" d="M 0 0 M1937.48 218.316 Q1932.32 218.316 1930.33 219.497 Q1928.34 220.677 1928.34 223.525 Q1928.34 225.793 1929.82 227.136 Q1931.32 228.455 1933.89 228.455 Q1937.43 228.455 1939.56 225.955 Q1941.72 223.432 1941.72 219.265 L1941.72 218.316 L1937.48 218.316 M1945.98 216.557 L1945.98 231.349 L1941.72 231.349 L1941.72 227.413 Q1940.26 229.775 1938.08 230.909 Q1935.91 232.02 1932.76 232.02 Q1928.78 232.02 1926.42 229.798 Q1924.08 227.552 1924.08 223.802 Q1924.08 219.427 1927 217.205 Q1929.93 214.983 1935.75 214.983 L1941.72 214.983 L1941.72 214.566 Q1941.72 211.627 1939.77 210.029 Q1937.85 208.409 1934.36 208.409 Q1932.13 208.409 1930.03 208.941 Q1927.92 209.474 1925.98 210.539 L1925.98 206.603 Q1928.31 205.701 1930.51 205.261 Q1932.71 204.798 1934.8 204.798 Q1940.42 204.798 1943.2 207.714 Q1945.98 210.631 1945.98 216.557 Z" fill="#000000" fill-rule="evenodd" fill-opacity="1" /><path clip-path="url(#clip650)" d="M 0 0 M1954.66 198.062 L1954.66 205.423 L1963.43 205.423 L1963.43 208.733 L1954.66 208.733 L1954.66 222.807 Q1954.66 225.978 1955.51 226.881 Q1956.39 227.784 1959.06 227.784 L1963.43 227.784 L1963.43 231.349 L1959.06 231.349 Q1954.12 231.349 1952.25 229.52 Q1950.37 227.668 1950.37 222.807 L1950.37 208.733 L1947.25 208.733 L1947.25 205.423 L1950.37 205.423 L1950.37 198.062 L1954.66 198.062 Z" fill="#000000" fill-rule="evenodd" fill-opacity="1" /><path clip-path="url(#clip650)" d="M 0 0 M1967.9 205.423 L1972.16 205.423 L1972.16 231.349 L1967.9 231.349 L1967.9 205.423 M1967.9 195.33 L1972.16 195.33 L1972.16 200.724 L1967.9 200.724 L1967.9 195.33 Z" fill="#000000" fill-rule="evenodd" fill-opacity="1" /><path clip-path="url(#clip650)" d="M 0 0 M1973.57 205.423 L1978.08 205.423 L1986.18 227.182 L1994.29 205.423 L1998.8 205.423 L1989.08 231.349 L1983.29 231.349 L1973.57 205.423 Z" fill="#000000" fill-rule="evenodd" fill-opacity="1" /><path clip-path="url(#clip650)" d="M 0 0 M2025.44 217.321 L2025.44 219.404 L2005.86 219.404 Q2006.14 223.802 2008.5 226.117 Q2010.88 228.409 2015.12 228.409 Q2017.57 228.409 2019.87 227.807 Q2022.18 227.205 2024.45 226.001 L2024.45 230.029 Q2022.16 231.001 2019.75 231.511 Q2017.34 232.02 2014.87 232.02 Q2008.66 232.02 2005.03 228.409 Q2001.42 224.798 2001.42 218.64 Q2001.42 212.275 2004.84 208.548 Q2008.29 204.798 2014.12 204.798 Q2019.36 204.798 2022.39 208.177 Q2025.44 211.534 2025.44 217.321 M2021.18 216.071 Q2021.14 212.576 2019.22 210.492 Q2017.32 208.409 2014.17 208.409 Q2010.61 208.409 2008.45 210.423 Q2006.32 212.437 2006 216.094 L2021.18 216.071 Z" fill="#000000" fill-rule="evenodd" fill-opacity="1" /><path clip-path="url(#clip650)" d="M 0 0 M2065.17 210.4 Q2066.76 207.529 2068.99 206.164 Q2071.21 204.798 2074.22 204.798 Q2078.27 204.798 2080.47 207.645 Q2082.67 210.469 2082.67 215.701 L2082.67 231.349 L2078.38 231.349 L2078.38 215.839 Q2078.38 212.113 2077.06 210.307 Q2075.74 208.502 2073.04 208.502 Q2069.73 208.502 2067.8 210.701 Q2065.88 212.9 2065.88 216.696 L2065.88 231.349 L2061.6 231.349 L2061.6 215.839 Q2061.6 212.089 2060.28 210.307 Q2058.96 208.502 2056.21 208.502 Q2052.94 208.502 2051.02 210.724 Q2049.1 212.923 2049.1 216.696 L2049.1 231.349 L2044.82 231.349 L2044.82 205.423 L2049.1 205.423 L2049.1 209.451 Q2050.56 207.066 2052.6 205.932 Q2054.63 204.798 2057.43 204.798 Q2060.26 204.798 2062.23 206.233 Q2064.22 207.668 2065.17 210.4 Z" fill="#000000" fill-rule="evenodd" fill-opacity="1" /><path clip-path="url(#clip650)" d="M 0 0 M2098.92 218.316 Q2093.75 218.316 2091.76 219.497 Q2089.77 220.677 2089.77 223.525 Q2089.77 225.793 2091.25 227.136 Q2092.76 228.455 2095.33 228.455 Q2098.87 228.455 2101 225.955 Q2103.15 223.432 2103.15 219.265 L2103.15 218.316 L2098.92 218.316 M2107.41 216.557 L2107.41 231.349 L2103.15 231.349 L2103.15 227.413 Q2101.69 229.775 2099.52 230.909 Q2097.34 232.02 2094.19 232.02 Q2090.21 232.02 2087.85 229.798 Q2085.51 227.552 2085.51 223.802 Q2085.51 219.427 2088.43 217.205 Q2091.37 214.983 2097.18 214.983 L2103.15 214.983 L2103.15 214.566 Q2103.15 211.627 2101.21 210.029 Q2099.29 208.409 2095.79 208.409 Q2093.57 208.409 2091.46 208.941 Q2089.36 209.474 2087.41 210.539 L2087.41 206.603 Q2089.75 205.701 2091.95 205.261 Q2094.15 204.798 2096.23 204.798 Q2101.86 204.798 2104.63 207.714 Q2107.41 210.631 2107.41 216.557 Z" fill="#000000" fill-rule="evenodd" fill-opacity="1" /><path clip-path="url(#clip650)" d="M 0 0 M2116.09 198.062 L2116.09 205.423 L2124.86 205.423 L2124.86 208.733 L2116.09 208.733 L2116.09 222.807 Q2116.09 225.978 2116.95 226.881 Q2117.83 227.784 2120.49 227.784 L2124.86 227.784 L2124.86 231.349 L2120.49 231.349 Q2115.56 231.349 2113.68 229.52 Q2111.81 227.668 2111.81 222.807 L2111.81 208.733 L2108.68 208.733 L2108.68 205.423 L2111.81 205.423 L2111.81 198.062 L2116.09 198.062 Z" fill="#000000" fill-rule="evenodd" fill-opacity="1" /><path clip-path="url(#clip650)" d="M 0 0 M2147.99 206.418 L2147.99 210.4 Q2146.18 209.404 2144.36 208.918 Q2142.55 208.409 2140.7 208.409 Q2136.55 208.409 2134.26 211.048 Q2131.97 213.664 2131.97 218.409 Q2131.97 223.154 2134.26 225.793 Q2136.55 228.409 2140.7 228.409 Q2142.55 228.409 2144.36 227.923 Q2146.18 227.413 2147.99 226.418 L2147.99 230.353 Q2146.21 231.187 2144.29 231.603 Q2142.39 232.02 2140.23 232.02 Q2134.38 232.02 2130.93 228.339 Q2127.48 224.659 2127.48 218.409 Q2127.48 212.066 2130.95 208.432 Q2134.45 204.798 2140.51 204.798 Q2142.48 204.798 2144.36 205.215 Q2146.23 205.608 2147.99 206.418 Z" fill="#000000" fill-rule="evenodd" fill-opacity="1" /><path clip-path="url(#clip650)" d="M 0 0 M2174.01 215.701 L2174.01 231.349 L2169.75 231.349 L2169.75 215.839 Q2169.75 212.159 2168.31 210.33 Q2166.88 208.502 2164.01 208.502 Q2160.56 208.502 2158.57 210.701 Q2156.58 212.9 2156.58 216.696 L2156.58 231.349 L2152.29 231.349 L2152.29 195.33 L2156.58 195.33 L2156.58 209.451 Q2158.11 207.113 2160.17 205.955 Q2162.25 204.798 2164.96 204.798 Q2169.42 204.798 2171.72 207.576 Q2174.01 210.33 2174.01 215.701 Z" fill="#000000" fill-rule="evenodd" fill-opacity="1" /><path clip-path="url(#clip650)" d="M 0 0 M2178.48 205.423 L2182.73 205.423 L2182.73 231.349 L2178.48 231.349 L2178.48 205.423 M2178.48 195.33 L2182.73 195.33 L2182.73 200.724 L2178.48 200.724 L2178.48 195.33 Z" fill="#000000" fill-rule="evenodd" fill-opacity="1" /><path clip-path="url(#clip650)" d="M 0 0 M2208.75 215.701 L2208.75 231.349 L2204.49 231.349 L2204.49 215.839 Q2204.49 212.159 2203.06 210.33 Q2201.62 208.502 2198.75 208.502 Q2195.3 208.502 2193.31 210.701 Q2191.32 212.9 2191.32 216.696 L2191.32 231.349 L2187.04 231.349 L2187.04 205.423 L2191.32 205.423 L2191.32 209.451 Q2192.85 207.113 2194.91 205.955 Q2196.99 204.798 2199.7 204.798 Q2204.17 204.798 2206.46 207.576 Q2208.75 210.33 2208.75 215.701 Z" fill="#000000" fill-rule="evenodd" fill-opacity="1" /><path clip-path="url(#clip650)" d="M 0 0 M2230.28 218.085 Q2230.28 213.455 2228.36 210.909 Q2226.46 208.363 2223.01 208.363 Q2219.59 208.363 2217.66 210.909 Q2215.77 213.455 2215.77 218.085 Q2215.77 222.691 2217.66 225.238 Q2219.59 227.784 2223.01 227.784 Q2226.46 227.784 2228.36 225.238 Q2230.28 222.691 2230.28 218.085 M2234.54 228.131 Q2234.54 234.751 2231.6 237.969 Q2228.66 241.21 2222.6 241.21 Q2220.35 241.21 2218.36 240.862 Q2216.37 240.538 2214.49 239.844 L2214.49 235.7 Q2216.37 236.719 2218.2 237.205 Q2220.03 237.691 2221.92 237.691 Q2226.11 237.691 2228.2 235.492 Q2230.28 233.316 2230.28 228.895 L2230.28 226.788 Q2228.96 229.08 2226.9 230.214 Q2224.84 231.349 2221.97 231.349 Q2217.2 231.349 2214.29 227.714 Q2211.37 224.08 2211.37 218.085 Q2211.37 212.066 2214.29 208.432 Q2217.2 204.798 2221.97 204.798 Q2224.84 204.798 2226.9 205.932 Q2228.96 207.066 2230.28 209.358 L2230.28 205.423 L2234.54 205.423 L2234.54 228.131 Z" fill="#000000" fill-rule="evenodd" fill-opacity="1" /><polyline clip-path="url(#clip650)" style="stroke:#808080; stroke-width:4; stroke-opacity:1; fill:none" stroke-dasharray="16, 10" points="
  1413.83,274.549 1555.69,274.549 
  "/>
<path clip-path="url(#clip650)" d="M 0 0 M1601.58 258.403 L1601.58 262.963 Q1598.92 261.69 1596.56 261.065 Q1594.2 260.44 1592 260.44 Q1588.18 260.44 1586.09 261.921 Q1584.03 263.403 1584.03 266.134 Q1584.03 268.426 1585.4 269.607 Q1586.79 270.764 1590.63 271.482 L1593.46 272.06 Q1598.69 273.056 1601.16 275.579 Q1603.66 278.079 1603.66 282.292 Q1603.66 287.315 1600.28 289.907 Q1596.93 292.5 1590.42 292.5 Q1587.97 292.5 1585.19 291.944 Q1582.44 291.389 1579.47 290.301 L1579.47 285.486 Q1582.32 287.083 1585.05 287.893 Q1587.78 288.704 1590.42 288.704 Q1594.43 288.704 1596.6 287.13 Q1598.78 285.556 1598.78 282.639 Q1598.78 280.093 1597.21 278.657 Q1595.65 277.222 1592.09 276.505 L1589.24 275.949 Q1584.01 274.907 1581.67 272.685 Q1579.33 270.463 1579.33 266.505 Q1579.33 261.921 1582.55 259.282 Q1585.79 256.644 1591.46 256.644 Q1593.9 256.644 1596.42 257.083 Q1598.94 257.523 1601.58 258.403 Z" fill="#000000" fill-rule="evenodd" fill-opacity="1" /><path clip-path="url(#clip650)" d="M 0 0 M1629.03 258.403 L1629.03 262.963 Q1626.37 261.69 1624.01 261.065 Q1621.65 260.44 1619.45 260.44 Q1615.63 260.44 1613.55 261.921 Q1611.49 263.403 1611.49 266.134 Q1611.49 268.426 1612.85 269.607 Q1614.24 270.764 1618.08 271.482 L1620.91 272.06 Q1626.14 273.056 1628.62 275.579 Q1631.12 278.079 1631.12 282.292 Q1631.12 287.315 1627.74 289.907 Q1624.38 292.5 1617.88 292.5 Q1615.42 292.5 1612.64 291.944 Q1609.89 291.389 1606.93 290.301 L1606.93 285.486 Q1609.77 287.083 1612.51 287.893 Q1615.24 288.704 1617.88 288.704 Q1621.88 288.704 1624.06 287.13 Q1626.23 285.556 1626.23 282.639 Q1626.23 280.093 1624.66 278.657 Q1623.11 277.222 1619.54 276.505 L1616.7 275.949 Q1611.46 274.907 1609.13 272.685 Q1606.79 270.463 1606.79 266.505 Q1606.79 261.921 1610.01 259.282 Q1613.25 256.644 1618.92 256.644 Q1621.35 256.644 1623.87 257.083 Q1626.39 257.523 1629.03 258.403 Z" fill="#000000" fill-rule="evenodd" fill-opacity="1" /><path clip-path="url(#clip650)" d="M 0 0 M1648.2 261.875 L1641.86 279.074 L1654.57 279.074 L1648.2 261.875 M1645.56 257.269 L1650.86 257.269 L1664.03 291.829 L1659.17 291.829 L1656.02 282.963 L1640.45 282.963 L1637.3 291.829 L1632.37 291.829 L1645.56 257.269 Z" fill="#000000" fill-rule="evenodd" fill-opacity="1" /></svg>
