<?xml version="1.0" encoding="utf-8"?>
<svg xmlns="http://www.w3.org/2000/svg" xmlns:xlink="http://www.w3.org/1999/xlink" width="600" height="400" viewBox="0 0 2400 1600">
<defs>
  <clipPath id="clip570">
    <rect x="0" y="0" width="2400" height="1600"/>
  </clipPath>
</defs>
<path clip-path="url(#clip570)" d="
M0 1600 L2400 1600 L2400 0 L0 0  Z
  " fill="#ffffff" fill-rule="evenodd" fill-opacity="1"/>
<defs>
  <clipPath id="clip571">
    <rect x="480" y="0" width="1681" height="1600"/>
  </clipPath>
</defs>
<path clip-path="url(#clip570)" d="
M224.866 1423.18 L2352.76 1423.18 L2352.76 47.2441 L224.866 47.2441  Z
  " fill="#ffffff" fill-rule="evenodd" fill-opacity="1"/>
<defs>
  <clipPath id="clip572">
    <rect x="224" y="47" width="2129" height="1377"/>
  </clipPath>
</defs>
<polyline clip-path="url(#clip572)" style="stroke:#000000; stroke-width:2; stroke-opacity:0.1; fill:none" points="
  224.866,1423.18 224.866,47.2441 
  "/>
<polyline clip-path="url(#clip572)" style="stroke:#000000; stroke-width:2; stroke-opacity:0.1; fill:none" points="
  579.515,1423.18 579.515,47.2441 
  "/>
<polyline clip-path="url(#clip572)" style="stroke:#000000; stroke-width:2; stroke-opacity:0.1; fill:none" points="
  934.163,1423.18 934.163,47.2441 
  "/>
<polyline clip-path="url(#clip572)" style="stroke:#000000; stroke-width:2; stroke-opacity:0.1; fill:none" points="
  1288.81,1423.18 1288.81,47.2441 
  "/>
<polyline clip-path="url(#clip572)" style="stroke:#000000; stroke-width:2; stroke-opacity:0.1; fill:none" points="
  1643.46,1423.18 1643.46,47.2441 
  "/>
<polyline clip-path="url(#clip572)" style="stroke:#000000; stroke-width:2; stroke-opacity:0.1; fill:none" points="
  1998.11,1423.18 1998.11,47.2441 
  "/>
<polyline clip-path="url(#clip572)" style="stroke:#000000; stroke-width:2; stroke-opacity:0.1; fill:none" points="
  2352.76,1423.18 2352.76,47.2441 
  "/>
<polyline clip-path="url(#clip570)" style="stroke:#000000; stroke-width:4; stroke-opacity:1; fill:none" points="
  224.866,1423.18 2352.76,1423.18 
  "/>
<polyline clip-path="url(#clip570)" style="stroke:#000000; stroke-width:4; stroke-opacity:1; fill:none" points="
  224.866,1423.18 224.866,1406.67 
  "/>
<polyline clip-path="url(#clip570)" style="stroke:#000000; stroke-width:4; stroke-opacity:1; fill:none" points="
  579.515,1423.18 579.515,1406.67 
  "/>
<polyline clip-path="url(#clip570)" style="stroke:#000000; stroke-width:4; stroke-opacity:1; fill:none" points="
  934.163,1423.18 934.163,1406.67 
  "/>
<polyline clip-path="url(#clip570)" style="stroke:#000000; stroke-width:4; stroke-opacity:1; fill:none" points="
  1288.81,1423.18 1288.81,1406.67 
  "/>
<polyline clip-path="url(#clip570)" style="stroke:#000000; stroke-width:4; stroke-opacity:1; fill:none" points="
  1643.46,1423.18 1643.46,1406.67 
  "/>
<polyline clip-path="url(#clip570)" style="stroke:#000000; stroke-width:4; stroke-opacity:1; fill:none" points="
  1998.11,1423.18 1998.11,1406.67 
  "/>
<polyline clip-path="url(#clip570)" style="stroke:#000000; stroke-width:4; stroke-opacity:1; fill:none" points="
  2352.76,1423.18 2352.76,1406.67 
  "/>
<path clip-path="url(#clip570)" d="M 0 0 M224.866 1452.37 Q221.255 1452.37 219.426 1455.94 Q217.621 1459.48 217.621 1466.61 Q217.621 1473.71 219.426 1477.28 Q221.255 1480.82 224.866 1480.82 Q228.5 1480.82 230.306 1477.28 Q232.135 1473.71 232.135 1466.61 Q232.135 1459.48 230.306 1455.94 Q228.5 1452.37 224.866 1452.37 M224.866 1448.67 Q230.676 1448.67 233.732 1453.27 Q236.811 1457.86 236.811 1466.61 Q236.811 1475.33 233.732 1479.94 Q230.676 1484.52 224.866 1484.52 Q219.056 1484.52 215.977 1479.94 Q212.922 1475.33 212.922 1466.61 Q212.922 1457.86 215.977 1453.27 Q219.056 1448.67 224.866 1448.67 Z" fill="#000000" fill-rule="evenodd" fill-opacity="1" /><path clip-path="url(#clip570)" d="M 0 0 M574.167 1479.92 L590.487 1479.92 L590.487 1483.85 L568.542 1483.85 L568.542 1479.92 Q571.204 1477.16 575.788 1472.53 Q580.394 1467.88 581.575 1466.54 Q583.82 1464.01 584.7 1462.28 Q585.602 1460.52 585.602 1458.83 Q585.602 1456.07 583.658 1454.34 Q581.737 1452.6 578.635 1452.6 Q576.436 1452.6 573.982 1453.37 Q571.552 1454.13 568.774 1455.68 L568.774 1450.96 Q571.598 1449.82 574.052 1449.25 Q576.505 1448.67 578.542 1448.67 Q583.913 1448.67 587.107 1451.35 Q590.301 1454.04 590.301 1458.53 Q590.301 1460.66 589.491 1462.58 Q588.704 1464.48 586.598 1467.07 Q586.019 1467.74 582.917 1470.96 Q579.815 1474.15 574.167 1479.92 Z" fill="#000000" fill-rule="evenodd" fill-opacity="1" /><path clip-path="url(#clip570)" d="M 0 0 M937.172 1453.37 L925.367 1471.81 L937.172 1471.81 L937.172 1453.37 M935.945 1449.29 L941.825 1449.29 L941.825 1471.81 L946.755 1471.81 L946.755 1475.7 L941.825 1475.7 L941.825 1483.85 L937.172 1483.85 L937.172 1475.7 L921.57 1475.7 L921.57 1471.19 L935.945 1449.29 Z" fill="#000000" fill-rule="evenodd" fill-opacity="1" /><path clip-path="url(#clip570)" d="M 0 0 M1289.22 1464.71 Q1286.07 1464.71 1284.22 1466.86 Q1282.39 1469.01 1282.39 1472.76 Q1282.39 1476.49 1284.22 1478.67 Q1286.07 1480.82 1289.22 1480.82 Q1292.36 1480.82 1294.19 1478.67 Q1296.04 1476.49 1296.04 1472.76 Q1296.04 1469.01 1294.19 1466.86 Q1292.36 1464.71 1289.22 1464.71 M1298.5 1450.06 L1298.5 1454.31 Q1296.74 1453.48 1294.93 1453.04 Q1293.15 1452.6 1291.39 1452.6 Q1286.76 1452.6 1284.31 1455.73 Q1281.88 1458.85 1281.53 1465.17 Q1282.9 1463.16 1284.96 1462.09 Q1287.02 1461 1289.49 1461 Q1294.7 1461 1297.71 1464.18 Q1300.74 1467.32 1300.74 1472.76 Q1300.74 1478.09 1297.6 1481.31 Q1294.45 1484.52 1289.22 1484.52 Q1283.22 1484.52 1280.05 1479.94 Q1276.88 1475.33 1276.88 1466.61 Q1276.88 1458.41 1280.77 1453.55 Q1284.66 1448.67 1291.21 1448.67 Q1292.97 1448.67 1294.75 1449.01 Q1296.55 1449.36 1298.5 1450.06 Z" fill="#000000" fill-rule="evenodd" fill-opacity="1" /><path clip-path="url(#clip570)" d="M 0 0 M1643.46 1467.44 Q1640.13 1467.44 1638.2 1469.22 Q1636.31 1471 1636.31 1474.13 Q1636.31 1477.25 1638.2 1479.04 Q1640.13 1480.82 1643.46 1480.82 Q1646.79 1480.82 1648.71 1479.04 Q1650.64 1477.23 1650.64 1474.13 Q1650.64 1471 1648.71 1469.22 Q1646.82 1467.44 1643.46 1467.44 M1638.78 1465.45 Q1635.77 1464.71 1634.08 1462.65 Q1632.42 1460.59 1632.42 1457.63 Q1632.42 1453.48 1635.36 1451.07 Q1638.32 1448.67 1643.46 1448.67 Q1648.62 1448.67 1651.56 1451.07 Q1654.5 1453.48 1654.5 1457.63 Q1654.5 1460.59 1652.81 1462.65 Q1651.14 1464.71 1648.16 1465.45 Q1651.54 1466.24 1653.41 1468.53 Q1655.31 1470.82 1655.31 1474.13 Q1655.31 1479.15 1652.23 1481.84 Q1649.18 1484.52 1643.46 1484.52 Q1637.74 1484.52 1634.66 1481.84 Q1631.61 1479.15 1631.61 1474.13 Q1631.61 1470.82 1633.51 1468.53 Q1635.4 1466.24 1638.78 1465.45 M1637.07 1458.06 Q1637.07 1460.75 1638.74 1462.25 Q1640.43 1463.76 1643.46 1463.76 Q1646.47 1463.76 1648.16 1462.25 Q1649.87 1460.75 1649.87 1458.06 Q1649.87 1455.38 1648.16 1453.88 Q1646.47 1452.37 1643.46 1452.37 Q1640.43 1452.37 1638.74 1453.88 Q1637.07 1455.38 1637.07 1458.06 Z" fill="#000000" fill-rule="evenodd" fill-opacity="1" /><path clip-path="url(#clip570)" d="M 0 0 M1974.98 1479.92 L1982.62 1479.92 L1982.62 1453.55 L1974.31 1455.22 L1974.31 1450.96 L1982.58 1449.29 L1987.25 1449.29 L1987.25 1479.92 L1994.89 1479.92 L1994.89 1483.85 L1974.98 1483.85 L1974.98 1479.92 Z" fill="#000000" fill-rule="evenodd" fill-opacity="1" /><path clip-path="url(#clip570)" d="M 0 0 M2009.96 1452.37 Q2006.35 1452.37 2004.52 1455.94 Q2002.71 1459.48 2002.71 1466.61 Q2002.71 1473.71 2004.52 1477.28 Q2006.35 1480.82 2009.96 1480.82 Q2013.59 1480.82 2015.4 1477.28 Q2017.23 1473.71 2017.23 1466.61 Q2017.23 1459.48 2015.4 1455.94 Q2013.59 1452.37 2009.96 1452.37 M2009.96 1448.67 Q2015.77 1448.67 2018.83 1453.27 Q2021.9 1457.86 2021.9 1466.61 Q2021.9 1475.33 2018.83 1479.94 Q2015.77 1484.52 2009.96 1484.52 Q2004.15 1484.52 2001.07 1479.94 Q1998.02 1475.33 1998.02 1466.61 Q1998.02 1457.86 2001.07 1453.27 Q2004.15 1448.67 2009.96 1448.67 Z" fill="#000000" fill-rule="evenodd" fill-opacity="1" /><path clip-path="url(#clip570)" d="M 0 0 M2330.43 1479.92 L2338.07 1479.92 L2338.07 1453.55 L2329.76 1455.22 L2329.76 1450.96 L2338.02 1449.29 L2342.7 1449.29 L2342.7 1479.92 L2350.34 1479.92 L2350.34 1483.85 L2330.43 1483.85 L2330.43 1479.92 Z" fill="#000000" fill-rule="evenodd" fill-opacity="1" /><path clip-path="url(#clip570)" d="M 0 0 M2359.43 1479.92 L2375.75 1479.92 L2375.75 1483.85 L2353.81 1483.85 L2353.81 1479.92 Q2356.47 1477.16 2361.05 1472.53 Q2365.66 1467.88 2366.84 1466.54 Q2369.09 1464.01 2369.97 1462.28 Q2370.87 1460.52 2370.87 1458.83 Q2370.87 1456.07 2368.92 1454.34 Q2367 1452.6 2363.9 1452.6 Q2361.7 1452.6 2359.25 1453.37 Q2356.82 1454.13 2354.04 1455.68 L2354.04 1450.96 Q2356.86 1449.82 2359.32 1449.25 Q2361.77 1448.67 2363.81 1448.67 Q2369.18 1448.67 2372.37 1451.35 Q2375.57 1454.04 2375.57 1458.53 Q2375.57 1460.66 2374.76 1462.58 Q2373.97 1464.48 2371.86 1467.07 Q2371.29 1467.74 2368.18 1470.96 Q2365.08 1474.15 2359.43 1479.92 Z" fill="#000000" fill-rule="evenodd" fill-opacity="1" /><path clip-path="url(#clip570)" d="M 0 0 M1155.31 1520.52 L1195.51 1520.52 L1195.51 1525.93 L1178.64 1525.93 L1178.64 1568.04 L1172.18 1568.04 L1172.18 1525.93 L1155.31 1525.93 L1155.31 1520.52 Z" fill="#000000" fill-rule="evenodd" fill-opacity="1" /><path clip-path="url(#clip570)" d="M 0 0 M1199.64 1532.4 L1205.5 1532.4 L1205.5 1568.04 L1199.64 1568.04 L1199.64 1532.4 M1199.64 1518.52 L1205.5 1518.52 L1205.5 1525.93 L1199.64 1525.93 L1199.64 1518.52 Z" fill="#000000" fill-rule="evenodd" fill-opacity="1" /><path clip-path="url(#clip570)" d="M 0 0 M1239.4 1539.24 Q1241.59 1535.29 1244.65 1533.41 Q1247.7 1531.54 1251.84 1531.54 Q1257.41 1531.54 1260.44 1535.45 Q1263.46 1539.33 1263.46 1546.53 L1263.46 1568.04 L1257.57 1568.04 L1257.57 1546.72 Q1257.57 1541.59 1255.76 1539.11 Q1253.94 1536.63 1250.22 1536.63 Q1245.67 1536.63 1243.03 1539.65 Q1240.38 1542.68 1240.38 1547.9 L1240.38 1568.04 L1234.5 1568.04 L1234.5 1546.72 Q1234.5 1541.56 1232.68 1539.11 Q1230.87 1536.63 1227.08 1536.63 Q1222.59 1536.63 1219.95 1539.68 Q1217.31 1542.71 1217.31 1547.9 L1217.31 1568.04 L1211.42 1568.04 L1211.42 1532.4 L1217.31 1532.4 L1217.31 1537.93 Q1219.31 1534.66 1222.11 1533.1 Q1224.92 1531.54 1228.77 1531.54 Q1232.65 1531.54 1235.36 1533.51 Q1238.09 1535.48 1239.4 1539.24 Z" fill="#000000" fill-rule="evenodd" fill-opacity="1" /><path clip-path="url(#clip570)" d="M 0 0 M1300.09 1548.76 L1300.09 1551.62 L1273.17 1551.62 Q1273.55 1557.67 1276.8 1560.85 Q1280.07 1564 1285.9 1564 Q1289.27 1564 1292.42 1563.17 Q1295.61 1562.35 1298.73 1560.69 L1298.73 1566.23 Q1295.57 1567.57 1292.26 1568.27 Q1288.95 1568.97 1285.55 1568.97 Q1277.02 1568.97 1272.02 1564 Q1267.06 1559.04 1267.06 1550.57 Q1267.06 1541.82 1271.77 1536.69 Q1276.51 1531.54 1284.53 1531.54 Q1291.72 1531.54 1295.89 1536.18 Q1300.09 1540.8 1300.09 1548.76 M1294.24 1547.04 Q1294.17 1542.23 1291.53 1539.37 Q1288.92 1536.5 1284.59 1536.5 Q1279.69 1536.5 1276.73 1539.27 Q1273.8 1542.04 1273.36 1547.07 L1294.24 1547.04 Z" fill="#000000" fill-rule="evenodd" fill-opacity="1" /><path clip-path="url(#clip570)" d="M 0 0 M1326.42 1518.52 L1339.91 1518.52 L1339.91 1523.07 L1332.27 1523.07 L1332.27 1572.09 L1339.91 1572.09 L1339.91 1576.64 L1326.42 1576.64 L1326.42 1518.52 Z" fill="#000000" fill-rule="evenodd" fill-opacity="1" /><path clip-path="url(#clip570)" d="M 0 0 M1375.69 1546.53 L1375.69 1568.04 L1369.83 1568.04 L1369.83 1546.72 Q1369.83 1541.66 1367.86 1539.14 Q1365.88 1536.63 1361.94 1536.63 Q1357.19 1536.63 1354.46 1539.65 Q1351.72 1542.68 1351.72 1547.9 L1351.72 1568.04 L1345.83 1568.04 L1345.83 1518.52 L1351.72 1518.52 L1351.72 1537.93 Q1353.82 1534.72 1356.65 1533.13 Q1359.52 1531.54 1363.24 1531.54 Q1369.39 1531.54 1372.54 1535.36 Q1375.69 1539.14 1375.69 1546.53 Z" fill="#000000" fill-rule="evenodd" fill-opacity="1" /><path clip-path="url(#clip570)" d="M 0 0 M1402.49 1537.87 Q1401.5 1537.3 1400.32 1537.04 Q1399.18 1536.76 1397.78 1536.76 Q1392.81 1536.76 1390.14 1540 Q1387.5 1543.22 1387.5 1549.27 L1387.5 1568.04 L1381.61 1568.04 L1381.61 1532.4 L1387.5 1532.4 L1387.5 1537.93 Q1389.34 1534.69 1392.3 1533.13 Q1395.26 1531.54 1399.49 1531.54 Q1400.1 1531.54 1400.83 1531.63 Q1401.56 1531.7 1402.45 1531.85 L1402.49 1537.87 Z" fill="#000000" fill-rule="evenodd" fill-opacity="1" /><path clip-path="url(#clip570)" d="M 0 0 M1422.32 1518.52 L1422.32 1576.64 L1408.82 1576.64 L1408.82 1572.09 L1416.43 1572.09 L1416.43 1523.07 L1408.82 1523.07 L1408.82 1518.52 L1422.32 1518.52 Z" fill="#000000" fill-rule="evenodd" fill-opacity="1" /><polyline clip-path="url(#clip572)" style="stroke:#000000; stroke-width:2; stroke-opacity:0.1; fill:none" points="
  224.866,1391.23 2352.76,1391.23 
  "/>
<polyline clip-path="url(#clip572)" style="stroke:#000000; stroke-width:2; stroke-opacity:0.1; fill:none" points="
  224.866,1041.8 2352.76,1041.8 
  "/>
<polyline clip-path="url(#clip572)" style="stroke:#000000; stroke-width:2; stroke-opacity:0.1; fill:none" points="
  224.866,692.364 2352.76,692.364 
  "/>
<polyline clip-path="url(#clip572)" style="stroke:#000000; stroke-width:2; stroke-opacity:0.1; fill:none" points="
  224.866,342.933 2352.76,342.933 
  "/>
<polyline clip-path="url(#clip570)" style="stroke:#000000; stroke-width:4; stroke-opacity:1; fill:none" points="
  224.866,1423.18 224.866,47.2441 
  "/>
<polyline clip-path="url(#clip570)" style="stroke:#000000; stroke-width:4; stroke-opacity:1; fill:none" points="
  224.866,1391.23 250.401,1391.23 
  "/>
<polyline clip-path="url(#clip570)" style="stroke:#000000; stroke-width:4; stroke-opacity:1; fill:none" points="
  224.866,1041.8 250.401,1041.8 
  "/>
<polyline clip-path="url(#clip570)" style="stroke:#000000; stroke-width:4; stroke-opacity:1; fill:none" points="
  224.866,692.364 250.401,692.364 
  "/>
<polyline clip-path="url(#clip570)" style="stroke:#000000; stroke-width:4; stroke-opacity:1; fill:none" points="
  224.866,342.933 250.401,342.933 
  "/>
<path clip-path="url(#clip570)" d="M 0 0 M176.922 1377.03 Q173.311 1377.03 171.482 1380.59 Q169.677 1384.13 169.677 1391.26 Q169.677 1398.37 171.482 1401.93 Q173.311 1405.47 176.922 1405.47 Q180.556 1405.47 182.362 1401.93 Q184.19 1398.37 184.19 1391.26 Q184.19 1384.13 182.362 1380.59 Q180.556 1377.03 176.922 1377.03 M176.922 1373.32 Q182.732 1373.32 185.788 1377.93 Q188.866 1382.51 188.866 1391.26 Q188.866 1399.99 185.788 1404.59 Q182.732 1409.18 176.922 1409.18 Q171.112 1409.18 168.033 1404.59 Q164.977 1399.99 164.977 1391.26 Q164.977 1382.51 168.033 1377.93 Q171.112 1373.32 176.922 1373.32 Z" fill="#000000" fill-rule="evenodd" fill-opacity="1" /><path clip-path="url(#clip570)" d="M 0 0 M140.95 1024.52 L159.306 1024.52 L159.306 1028.45 L145.232 1028.45 L145.232 1036.92 Q146.251 1036.58 147.269 1036.41 Q148.288 1036.23 149.306 1036.23 Q155.093 1036.23 158.473 1039.4 Q161.852 1042.57 161.852 1047.99 Q161.852 1053.57 158.38 1056.67 Q154.908 1059.75 148.589 1059.75 Q146.413 1059.75 144.144 1059.38 Q141.899 1059.01 139.492 1058.27 L139.492 1053.57 Q141.575 1054.7 143.797 1055.26 Q146.019 1055.81 148.496 1055.81 Q152.501 1055.81 154.839 1053.71 Q157.177 1051.6 157.177 1047.99 Q157.177 1044.38 154.839 1042.27 Q152.501 1040.16 148.496 1040.16 Q146.621 1040.16 144.746 1040.58 Q142.894 1041 140.95 1041.88 L140.95 1024.52 Z" fill="#000000" fill-rule="evenodd" fill-opacity="1" /><path clip-path="url(#clip570)" d="M 0 0 M176.922 1027.59 Q173.311 1027.59 171.482 1031.16 Q169.677 1034.7 169.677 1041.83 Q169.677 1048.94 171.482 1052.5 Q173.311 1056.04 176.922 1056.04 Q180.556 1056.04 182.362 1052.5 Q184.19 1048.94 184.19 1041.83 Q184.19 1034.7 182.362 1031.16 Q180.556 1027.59 176.922 1027.59 M176.922 1023.89 Q182.732 1023.89 185.788 1028.5 Q188.866 1033.08 188.866 1041.83 Q188.866 1050.56 185.788 1055.16 Q182.732 1059.75 176.922 1059.75 Q171.112 1059.75 168.033 1055.16 Q164.977 1050.56 164.977 1041.83 Q164.977 1033.08 168.033 1028.5 Q171.112 1023.89 176.922 1023.89 Z" fill="#000000" fill-rule="evenodd" fill-opacity="1" /><path clip-path="url(#clip570)" d="M 0 0 M114.931 705.709 L122.57 705.709 L122.57 679.343 L114.26 681.01 L114.26 676.751 L122.524 675.084 L127.2 675.084 L127.2 705.709 L134.839 705.709 L134.839 709.644 L114.931 709.644 L114.931 705.709 Z" fill="#000000" fill-rule="evenodd" fill-opacity="1" /><path clip-path="url(#clip570)" d="M 0 0 M149.908 678.163 Q146.297 678.163 144.468 681.727 Q142.663 685.269 142.663 692.399 Q142.663 699.505 144.468 703.07 Q146.297 706.612 149.908 706.612 Q153.542 706.612 155.348 703.07 Q157.177 699.505 157.177 692.399 Q157.177 685.269 155.348 681.727 Q153.542 678.163 149.908 678.163 M149.908 674.459 Q155.718 674.459 158.774 679.065 Q161.852 683.649 161.852 692.399 Q161.852 701.126 158.774 705.732 Q155.718 710.315 149.908 710.315 Q144.098 710.315 141.019 705.732 Q137.964 701.126 137.964 692.399 Q137.964 683.649 141.019 679.065 Q144.098 674.459 149.908 674.459 Z" fill="#000000" fill-rule="evenodd" fill-opacity="1" /><path clip-path="url(#clip570)" d="M 0 0 M176.922 678.163 Q173.311 678.163 171.482 681.727 Q169.677 685.269 169.677 692.399 Q169.677 699.505 171.482 703.07 Q173.311 706.612 176.922 706.612 Q180.556 706.612 182.362 703.07 Q184.19 699.505 184.19 692.399 Q184.19 685.269 182.362 681.727 Q180.556 678.163 176.922 678.163 M176.922 674.459 Q182.732 674.459 185.788 679.065 Q188.866 683.649 188.866 692.399 Q188.866 701.126 185.788 705.732 Q182.732 710.315 176.922 710.315 Q171.112 710.315 168.033 705.732 Q164.977 701.126 164.977 692.399 Q164.977 683.649 168.033 679.065 Q171.112 674.459 176.922 674.459 Z" fill="#000000" fill-rule="evenodd" fill-opacity="1" /><path clip-path="url(#clip570)" d="M 0 0 M115.927 356.277 L123.566 356.277 L123.566 329.912 L115.256 331.578 L115.256 327.319 L123.519 325.653 L128.195 325.653 L128.195 356.277 L135.834 356.277 L135.834 360.213 L115.927 360.213 L115.927 356.277 Z" fill="#000000" fill-rule="evenodd" fill-opacity="1" /><path clip-path="url(#clip570)" d="M 0 0 M140.95 325.653 L159.306 325.653 L159.306 329.588 L145.232 329.588 L145.232 338.06 Q146.251 337.713 147.269 337.551 Q148.288 337.365 149.306 337.365 Q155.093 337.365 158.473 340.537 Q161.852 343.708 161.852 349.125 Q161.852 354.703 158.38 357.805 Q154.908 360.884 148.589 360.884 Q146.413 360.884 144.144 360.513 Q141.899 360.143 139.492 359.402 L139.492 354.703 Q141.575 355.838 143.797 356.393 Q146.019 356.949 148.496 356.949 Q152.501 356.949 154.839 354.842 Q157.177 352.736 157.177 349.125 Q157.177 345.514 154.839 343.407 Q152.501 341.301 148.496 341.301 Q146.621 341.301 144.746 341.717 Q142.894 342.134 140.95 343.014 L140.95 325.653 Z" fill="#000000" fill-rule="evenodd" fill-opacity="1" /><path clip-path="url(#clip570)" d="M 0 0 M176.922 328.731 Q173.311 328.731 171.482 332.296 Q169.677 335.838 169.677 342.967 Q169.677 350.074 171.482 353.638 Q173.311 357.18 176.922 357.18 Q180.556 357.18 182.362 353.638 Q184.19 350.074 184.19 342.967 Q184.19 335.838 182.362 332.296 Q180.556 328.731 176.922 328.731 M176.922 325.028 Q182.732 325.028 185.788 329.634 Q188.866 334.217 188.866 342.967 Q188.866 351.694 185.788 356.301 Q182.732 360.884 176.922 360.884 Q171.112 360.884 168.033 356.301 Q164.977 351.694 164.977 342.967 Q164.977 334.217 168.033 329.634 Q171.112 325.028 176.922 325.028 Z" fill="#000000" fill-rule="evenodd" fill-opacity="1" /><path clip-path="url(#clip570)" d="M 0 0 M22.818 1017.29 L46.4666 1026.01 L46.4666 1008.54 L22.818 1017.29 M16.4842 1020.92 L16.4842 1013.63 L64.0042 995.522 L64.0042 1002.21 L51.8138 1006.53 L51.8138 1027.95 L64.0042 1032.28 L64.0042 1039.06 L16.4842 1020.92 Z" fill="#000000" fill-rule="evenodd" fill-opacity="1" /><path clip-path="url(#clip570)" d="M 0 0 M29.7248 964.871 L35.1993 964.871 Q33.8307 967.353 33.1623 969.868 Q32.4621 972.35 32.4621 974.897 Q32.4621 980.594 36.0905 983.745 Q39.6872 986.896 46.212 986.896 Q52.7369 986.896 56.3653 983.745 Q59.9619 980.594 59.9619 974.897 Q59.9619 972.35 59.2935 969.868 Q58.5933 967.353 57.2247 964.871 L62.6355 964.871 Q63.7814 967.322 64.3543 969.963 Q64.9272 972.573 64.9272 975.533 Q64.9272 983.586 59.8664 988.328 Q54.8057 993.071 46.212 993.071 Q37.491 993.071 32.4939 988.297 Q27.4968 983.49 27.4968 975.151 Q27.4968 972.446 28.0697 969.868 Q28.6108 967.29 29.7248 964.871 Z" fill="#000000" fill-rule="evenodd" fill-opacity="1" /><path clip-path="url(#clip570)" d="M 0 0 M18.2347 952.935 L28.3562 952.935 L28.3562 940.872 L32.9077 940.872 L32.9077 952.935 L52.2594 952.935 Q56.6199 952.935 57.8613 951.757 Q59.1026 950.548 59.1026 946.888 L59.1026 940.872 L64.0042 940.872 L64.0042 946.888 Q64.0042 953.667 61.4897 956.245 Q58.9434 958.823 52.2594 958.823 L32.9077 958.823 L32.9077 963.12 L28.3562 963.12 L28.3562 958.823 L18.2347 958.823 L18.2347 952.935 Z" fill="#000000" fill-rule="evenodd" fill-opacity="1" /><path clip-path="url(#clip570)" d="M 0 0 M28.3562 934.729 L28.3562 928.873 L64.0042 928.873 L64.0042 934.729 L28.3562 934.729 M14.479 934.729 L14.479 928.873 L21.895 928.873 L21.895 934.729 L14.479 934.729 Z" fill="#000000" fill-rule="evenodd" fill-opacity="1" /><path clip-path="url(#clip570)" d="M 0 0 M28.3562 926.931 L28.3562 920.725 L58.275 909.585 L28.3562 898.445 L28.3562 892.238 L64.0042 905.606 L64.0042 913.563 L28.3562 926.931 Z" fill="#000000" fill-rule="evenodd" fill-opacity="1" /><path clip-path="url(#clip570)" d="M 0 0 M46.0847 869.894 Q46.0847 876.992 47.7079 879.729 Q49.3312 882.467 53.2461 882.467 Q56.3653 882.467 58.2114 880.43 Q60.0256 878.361 60.0256 874.828 Q60.0256 869.958 56.5881 867.03 Q53.1188 864.07 47.3897 864.07 L46.0847 864.07 L46.0847 869.894 M43.6657 858.213 L64.0042 858.213 L64.0042 864.07 L58.5933 864.07 Q61.8398 866.075 63.3994 869.067 Q64.9272 872.059 64.9272 876.387 Q64.9272 881.862 61.8716 885.108 Q58.7843 888.323 53.6281 888.323 Q47.6125 888.323 44.5569 884.313 Q41.5014 880.271 41.5014 872.282 L41.5014 864.07 L40.9285 864.07 Q36.8862 864.07 34.6901 866.743 Q32.4621 869.385 32.4621 874.191 Q32.4621 877.247 33.1941 880.143 Q33.9262 883.04 35.3903 885.713 L29.9795 885.713 Q28.7381 882.499 28.1334 879.475 Q27.4968 876.451 27.4968 873.587 Q27.4968 865.852 31.5072 862.033 Q35.5176 858.213 43.6657 858.213 Z" fill="#000000" fill-rule="evenodd" fill-opacity="1" /><path clip-path="url(#clip570)" d="M 0 0 M18.2347 846.278 L28.3562 846.278 L28.3562 834.215 L32.9077 834.215 L32.9077 846.278 L52.2594 846.278 Q56.6199 846.278 57.8613 845.1 Q59.1026 843.89 59.1026 840.23 L59.1026 834.215 L64.0042 834.215 L64.0042 840.23 Q64.0042 847.01 61.4897 849.588 Q58.9434 852.166 52.2594 852.166 L32.9077 852.166 L32.9077 856.463 L28.3562 856.463 L28.3562 852.166 L18.2347 852.166 L18.2347 846.278 Z" fill="#000000" fill-rule="evenodd" fill-opacity="1" /><path clip-path="url(#clip570)" d="M 0 0 M32.4621 814.258 Q32.4621 818.969 36.1542 821.706 Q39.8145 824.443 46.212 824.443 Q52.6095 824.443 56.3017 821.738 Q59.9619 819.001 59.9619 814.258 Q59.9619 809.579 56.2698 806.842 Q52.5777 804.105 46.212 804.105 Q39.8781 804.105 36.186 806.842 Q32.4621 809.579 32.4621 814.258 M27.4968 814.258 Q27.4968 806.619 32.4621 802.259 Q37.4273 797.898 46.212 797.898 Q54.9649 797.898 59.9619 802.259 Q64.9272 806.619 64.9272 814.258 Q64.9272 821.929 59.9619 826.289 Q54.9649 830.618 46.212 830.618 Q37.4273 830.618 32.4621 826.289 Q27.4968 821.929 27.4968 814.258 Z" fill="#000000" fill-rule="evenodd" fill-opacity="1" /><path clip-path="url(#clip570)" d="M 0 0 M33.8307 771.099 Q33.2578 772.085 33.0032 773.263 Q32.7167 774.409 32.7167 775.809 Q32.7167 780.775 35.9632 783.448 Q39.1779 786.09 45.2253 786.09 L64.0042 786.09 L64.0042 791.978 L28.3562 791.978 L28.3562 786.09 L33.8944 786.09 Q30.6479 784.244 29.0883 781.284 Q27.4968 778.324 27.4968 774.091 Q27.4968 773.486 27.5923 772.754 Q27.656 772.022 27.8151 771.13 L33.8307 771.099 Z" fill="#000000" fill-rule="evenodd" fill-opacity="1" /><path clip-path="url(#clip570)" d="M 0 0 M35.1993 716.481 Q31.2526 714.285 29.3747 711.229 Q27.4968 708.174 27.4968 704.036 Q27.4968 698.466 31.4117 695.442 Q35.2948 692.419 42.4881 692.419 L64.0042 692.419 L64.0042 698.307 L42.679 698.307 Q37.5546 698.307 35.072 700.121 Q32.5894 701.935 32.5894 705.659 Q32.5894 710.211 35.6131 712.852 Q38.6368 715.494 43.8567 715.494 L64.0042 715.494 L64.0042 721.382 L42.679 721.382 Q37.5228 721.382 35.072 723.197 Q32.5894 725.011 32.5894 728.799 Q32.5894 733.286 35.6449 735.928 Q38.6686 738.57 43.8567 738.57 L64.0042 738.57 L64.0042 744.458 L28.3562 744.458 L28.3562 738.57 L33.8944 738.57 Q30.616 736.565 29.0564 733.764 Q27.4968 730.963 27.4968 727.112 Q27.4968 723.229 29.4702 720.523 Q31.4436 717.786 35.1993 716.481 Z" fill="#000000" fill-rule="evenodd" fill-opacity="1" /><path clip-path="url(#clip570)" d="M 0 0 M44.7161 655.784 L47.5806 655.784 L47.5806 682.711 Q53.6281 682.329 56.8109 679.082 Q59.9619 675.804 59.9619 669.979 Q59.9619 666.606 59.1344 663.455 Q58.3069 660.272 56.6518 657.152 L62.1899 657.152 Q63.5267 660.304 64.227 663.614 Q64.9272 666.924 64.9272 670.33 Q64.9272 678.86 59.9619 683.857 Q54.9967 688.822 46.5303 688.822 Q37.7774 688.822 32.6531 684.111 Q27.4968 679.369 27.4968 671.348 Q27.4968 664.155 32.1438 659.985 Q36.7589 655.784 44.7161 655.784 M42.9973 661.64 Q38.1912 661.704 35.3266 664.346 Q32.4621 666.956 32.4621 671.284 Q32.4621 676.186 35.2312 679.146 Q38.0002 682.074 43.0292 682.52 L42.9973 661.64 Z" fill="#000000" fill-rule="evenodd" fill-opacity="1" /><path clip-path="url(#clip570)" d="M 0 0 M46.0847 633.44 Q46.0847 640.538 47.7079 643.275 Q49.3312 646.013 53.2461 646.013 Q56.3653 646.013 58.2114 643.975 Q60.0256 641.907 60.0256 638.374 Q60.0256 633.504 56.5881 630.576 Q53.1188 627.616 47.3897 627.616 L46.0847 627.616 L46.0847 633.44 M43.6657 621.759 L64.0042 621.759 L64.0042 627.616 L58.5933 627.616 Q61.8398 629.621 63.3994 632.613 Q64.9272 635.605 64.9272 639.933 Q64.9272 645.408 61.8716 648.654 Q58.7843 651.869 53.6281 651.869 Q47.6125 651.869 44.5569 647.859 Q41.5014 643.816 41.5014 635.827 L41.5014 627.616 L40.9285 627.616 Q36.8862 627.616 34.6901 630.289 Q32.4621 632.931 32.4621 637.737 Q32.4621 640.793 33.1941 643.689 Q33.9262 646.585 35.3903 649.259 L29.9795 649.259 Q28.7381 646.044 28.1334 643.021 Q27.4968 639.997 27.4968 637.132 Q27.4968 629.398 31.5072 625.579 Q35.5176 621.759 43.6657 621.759 Z" fill="#000000" fill-rule="evenodd" fill-opacity="1" /><path clip-path="url(#clip570)" d="M 0 0 M42.4881 585.984 L64.0042 585.984 L64.0042 591.84 L42.679 591.84 Q37.6183 591.84 35.1038 593.814 Q32.5894 595.787 32.5894 599.734 Q32.5894 604.476 35.6131 607.214 Q38.6368 609.951 43.8567 609.951 L64.0042 609.951 L64.0042 615.839 L28.3562 615.839 L28.3562 609.951 L33.8944 609.951 Q30.6797 607.85 29.0883 605.017 Q27.4968 602.153 27.4968 598.429 Q27.4968 592.286 31.3163 589.135 Q35.1038 585.984 42.4881 585.984 Z" fill="#000000" fill-rule="evenodd" fill-opacity="1" /><path clip-path="url(#clip570)" d="M 0 0 M14.479 559.121 L14.479 553.264 L64.0042 553.264 L64.0042 559.121 L14.479 559.121 Z" fill="#000000" fill-rule="evenodd" fill-opacity="1" /><path clip-path="url(#clip570)" d="M 0 0 M44.7161 516.63 L47.5806 516.63 L47.5806 543.556 Q53.6281 543.175 56.8109 539.928 Q59.9619 536.65 59.9619 530.825 Q59.9619 527.451 59.1344 524.3 Q58.3069 521.117 56.6518 517.998 L62.1899 517.998 Q63.5267 521.149 64.227 524.459 Q64.9272 527.77 64.9272 531.175 Q64.9272 539.705 59.9619 544.702 Q54.9967 549.668 46.5303 549.668 Q37.7774 549.668 32.6531 544.957 Q27.4968 540.214 27.4968 532.194 Q27.4968 525 32.1438 520.831 Q36.7589 516.63 44.7161 516.63 M42.9973 522.486 Q38.1912 522.55 35.3266 525.191 Q32.4621 527.801 32.4621 532.13 Q32.4621 537.032 35.2312 539.992 Q38.0002 542.92 43.0292 543.365 L42.9973 522.486 Z" fill="#000000" fill-rule="evenodd" fill-opacity="1" /><path clip-path="url(#clip570)" d="M 0 0 M28.3562 514.688 L28.3562 508.481 L58.275 497.341 L28.3562 486.201 L28.3562 479.995 L64.0042 493.363 L64.0042 501.32 L28.3562 514.688 Z" fill="#000000" fill-rule="evenodd" fill-opacity="1" /><path clip-path="url(#clip570)" d="M 0 0 M44.7161 443.36 L47.5806 443.36 L47.5806 470.287 Q53.6281 469.905 56.8109 466.659 Q59.9619 463.38 59.9619 457.556 Q59.9619 454.182 59.1344 451.031 Q58.3069 447.848 56.6518 444.729 L62.1899 444.729 Q63.5267 447.88 64.227 451.19 Q64.9272 454.5 64.9272 457.906 Q64.9272 466.436 59.9619 471.433 Q54.9967 476.398 46.5303 476.398 Q37.7774 476.398 32.6531 471.688 Q27.4968 466.945 27.4968 458.924 Q27.4968 451.731 32.1438 447.562 Q36.7589 443.36 44.7161 443.36 M42.9973 449.217 Q38.1912 449.28 35.3266 451.922 Q32.4621 454.532 32.4621 458.861 Q32.4621 463.762 35.2312 466.722 Q38.0002 469.651 43.0292 470.096 L42.9973 449.217 Z" fill="#000000" fill-rule="evenodd" fill-opacity="1" /><path clip-path="url(#clip570)" d="M 0 0 M14.479 437.217 L14.479 431.361 L64.0042 431.361 L64.0042 437.217 L14.479 437.217 Z" fill="#000000" fill-rule="evenodd" fill-opacity="1" /><polyline clip-path="url(#clip572)" style="stroke:#009af9; stroke-width:8; stroke-opacity:1; fill:none" points="
  224.866,1384.24 242.599,447.266 260.331,113.409 278.063,96.986 295.796,174.778 313.528,270.864 331.261,364.465 348.993,451.242 366.726,530.736 384.458,603.269 
  402.19,669.31 419.923,729.346 437.655,783.852 455.388,833.279 473.12,878.047 490.852,918.547 508.585,955.139 526.317,988.154 544.05,1017.89 561.782,1044.63 
  579.515,1068.63 597.247,1090.11 614.979,1109.28 632.712,1126.32 650.444,1141.43 668.177,1154.73 685.909,1166.39 703.641,1176.53 721.374,1185.26 739.106,1192.69 
  756.839,1198.92 774.571,1204.04 792.303,1208.12 810.036,1211.24 827.768,1213.47 845.501,1214.87 863.233,1215.5 880.966,1215.43 898.698,1214.71 916.43,1213.39 
  934.163,1211.53 951.895,1209.18 969.628,1206.38 987.36,1203.21 1005.09,1199.69 1022.82,1195.89 1040.56,1191.85 1058.29,1187.62 1076.02,1183.26 1093.75,1178.8 
  1111.49,1174.3 1129.22,1169.8 1146.95,1165.34 1164.68,1160.96 1182.42,1156.69 1200.15,1152.58 1217.88,1148.65 1235.61,1144.92 1253.35,1141.42 1271.08,1138.16 
  1288.81,1135.16 1306.54,1132.41 1324.28,1129.94 1342.01,1127.72 1359.74,1125.77 1377.47,1124.07 1395.21,1122.61 1412.94,1121.39 1430.67,1120.39 1448.4,1119.6 
  1466.14,1118.99 1483.87,1118.56 1501.6,1118.29 1519.33,1118.16 1537.06,1118.16 1554.8,1118.26 1572.53,1118.46 1590.26,1118.75 1607.99,1119.1 1625.73,1119.51 
  1643.46,1119.96 1661.19,1120.45 1678.92,1120.96 1696.66,1121.48 1714.39,1122.02 1732.12,1122.55 1749.85,1123.09 1767.59,1123.61 1785.32,1124.12 1803.05,1124.61 
  1820.78,1125.08 1838.52,1125.53 1856.25,1125.95 1873.98,1126.35 1891.71,1126.71 1909.45,1127.06 1927.18,1127.37 1944.91,1127.66 1962.64,1127.91 1980.38,1128.15 
  1998.11,1128.35 2015.84,1128.53 2033.57,1128.69 2051.3,1128.82 2069.04,1128.94 2086.77,1129.03 2104.5,1129.11 2122.23,1129.16 2139.97,1129.2 2157.7,1129.23 
  2175.43,1129.25 2193.16,1129.25 2210.9,1129.24 2228.63,1129.23 2246.36,1129.2 2264.09,1129.17 2281.83,1129.14 2299.56,1129.09 2317.29,1129.05 2335.02,1129 
  2352.76,1128.95 
  "/>
<polyline clip-path="url(#clip572)" style="stroke:#e26f46; stroke-width:8; stroke-opacity:1; fill:none" points="
  224.866,1384.24 242.599,447.266 260.331,113.622 278.063,98.1397 295.796,176.916 313.528,273.484 331.261,367.033 348.993,453.492 366.726,532.587 384.458,604.71 
  402.19,670.354 419.923,730.018 437.655,784.182 455.388,833.297 473.12,877.786 490.852,918.039 508.585,954.416 526.317,987.245 544.05,1016.83 561.782,1043.44 
  579.515,1067.34 597.247,1088.75 614.979,1107.87 632.712,1124.9 650.444,1140 668.177,1153.34 685.909,1165.05 703.641,1175.26 721.374,1184.09 739.106,1191.64 
  756.839,1198.02 774.571,1203.3 792.303,1207.57 810.036,1210.9 827.768,1213.36 845.501,1215 863.233,1215.89 880.966,1216.07 898.698,1215.59 916.43,1214.5 
  934.163,1212.83 951.895,1210.63 969.628,1207.93 987.36,1204.77 1005.09,1201.19 1022.82,1197.23 1040.56,1192.91 1058.29,1188.29 1076.02,1183.4 1093.75,1178.27 
  1111.49,1172.95 1129.22,1167.47 1146.95,1161.88 1164.68,1156.22 1182.42,1150.51 1200.15,1144.81 1217.88,1139.14 1235.61,1133.54 1253.35,1128.04 1271.08,1122.68 
  1288.81,1117.48 1306.54,1112.46 1324.28,1107.64 1342.01,1103.05 1359.74,1098.7 1377.47,1094.6 1395.21,1090.75 1412.94,1087.17 1430.67,1083.87 1448.4,1080.83 
  1466.14,1078.06 1483.87,1075.56 1501.6,1073.32 1519.33,1071.34 1537.06,1069.61 1554.8,1068.11 1572.53,1066.84 1590.26,1065.78 1607.99,1064.94 1625.73,1064.28 
  1643.46,1063.8 1661.19,1063.5 1678.92,1063.35 1696.66,1063.34 1714.39,1063.46 1732.12,1063.69 1749.85,1064.04 1767.59,1064.47 1785.32,1064.99 1803.05,1065.58 
  1820.78,1066.24 1838.52,1066.94 1856.25,1067.69 1873.98,1068.47 1891.71,1069.27 1909.45,1070.1 1927.18,1070.93 1944.91,1071.77 1962.64,1072.61 1980.38,1073.44 
  1998.11,1074.25 2015.84,1075.06 2033.57,1075.84 2051.3,1076.6 2069.04,1077.34 2086.77,1078.04 2104.5,1078.72 2122.23,1079.36 2139.97,1079.97 2157.7,1080.54 
  2175.43,1081.08 2193.16,1081.59 2210.9,1082.05 2228.63,1082.49 2246.36,1082.88 2264.09,1083.24 2281.83,1083.57 2299.56,1083.86 2317.29,1084.12 2335.02,1084.35 
  2352.76,1084.55 
  "/>
<polyline clip-path="url(#clip572)" style="stroke:#808080; stroke-width:8; stroke-opacity:1; fill:none" stroke-dasharray="32, 20" points="
  224.866,1384.24 242.599,442.326 260.331,106.439 278.063,86.1857 295.796,161.723 313.528,257.68 331.261,353.153 348.993,440.641 366.726,520.511 384.458,592.655 
  402.19,659.127 419.923,720.07 437.655,774.387 455.388,824.051 473.12,868.112 490.852,908.123 508.585,944.557 526.317,977.072 544.05,1006.12 561.782,1033.15 
  579.515,1057.64 597.247,1078.47 614.979,1097.93 632.712,1115.71 650.444,1130.65 668.177,1144.72 685.909,1156.33 703.641,1166.37 721.374,1174.96 739.106,1182.08 
  756.839,1188.2 774.571,1193.74 792.303,1198.33 810.036,1200.82 827.768,1203.17 845.501,1204.97 863.233,1206.65 880.966,1207.08 898.698,1205.74 916.43,1204.51 
  934.163,1201.06 951.895,1197.39 969.628,1195 987.36,1192.29 1005.09,1190.04 1022.82,1186.2 1040.56,1182.11 1058.29,1178.78 1076.02,1175.64 1093.75,1172.13 
  1111.49,1167.03 1129.22,1161.1 1146.95,1156.86 1164.68,1153.85 1182.42,1149.61 1200.15,1144.92 1217.88,1139.01 1235.61,1132.15 1253.35,1127.93 1271.08,1126.01 
  1288.81,1123.36 1306.54,1118.68 1324.28,1113.72 1342.01,1108.31 1359.74,1100.27 1377.47,1094.16 1395.21,1090.01 1412.94,1085.17 1430.67,1082.1 1448.4,1081.01 
  1466.14,1077.37 1483.87,1075.7 1501.6,1072.64 1519.33,1068.82 1537.06,1063.85 1554.8,1060.33 1572.53,1056.95 1590.26,1054.66 1607.99,1053 1625.73,1051.97 
  1643.46,1050.26 1661.19,1050.26 1678.92,1049.83 1696.66,1046.91 1714.39,1044.67 1732.12,1044.13 1749.85,1044.72 1767.59,1044.8 1785.32,1045.79 1803.05,1045.43 
  1820.78,1045.68 1838.52,1046.74 1856.25,1046.81 1873.98,1045.97 1891.71,1045.74 1909.45,1045.8 1927.18,1045.88 1944.91,1045.59 1962.64,1045.77 1980.38,1046.46 
  1998.11,1045.9 2015.84,1045.93 2033.57,1047.38 2051.3,1049.26 2069.04,1050.3 2086.77,1050.94 2104.5,1052.24 2122.23,1054.68 2139.97,1057.13 2157.7,1059.43 
  2175.43,1061.66 2193.16,1061.71 2210.9,1060.86 2228.63,1061.02 2246.36,1059.97 2264.09,1058.14 2281.83,1054.77 2299.56,1053.2 2317.29,1051.5 2335.02,1049.16 
  2352.76,1048.82 
  "/>
<path clip-path="url(#clip570)" d="
M1390.19 335.029 L2281.83 335.029 L2281.83 93.1086 L1390.19 93.1086  Z
  " fill="#ffffff" fill-rule="evenodd" fill-opacity="1"/>
<polyline clip-path="url(#clip570)" style="stroke:#000000; stroke-width:4; stroke-opacity:1; fill:none" points="
  1390.19,335.029 2281.83,335.029 2281.83,93.1086 1390.19,93.1086 1390.19,335.029 
  "/>
<polyline clip-path="url(#clip570)" style="stroke:#009af9; stroke-width:4; stroke-opacity:1; fill:none" points="
  1413.83,153.589 1555.69,153.589 
  "/>
<path clip-path="url(#clip570)" d="M 0 0 M1598.25 148.878 L1598.25 134.85 L1602.51 134.85 L1602.51 170.869 L1598.25 170.869 L1598.25 166.98 Q1596.9 169.295 1594.84 170.429 Q1592.81 171.54 1589.94 171.54 Q1585.24 171.54 1582.27 167.79 Q1579.33 164.04 1579.33 157.929 Q1579.33 151.818 1582.27 148.068 Q1585.24 144.318 1589.94 144.318 Q1592.81 144.318 1594.84 145.452 Q1596.9 146.563 1598.25 148.878 M1583.73 157.929 Q1583.73 162.628 1585.65 165.313 Q1587.6 167.975 1590.98 167.975 Q1594.36 167.975 1596.3 165.313 Q1598.25 162.628 1598.25 157.929 Q1598.25 153.23 1596.3 150.568 Q1594.36 147.883 1590.98 147.883 Q1587.6 147.883 1585.65 150.568 Q1583.73 153.23 1583.73 157.929 Z" fill="#000000" fill-rule="evenodd" fill-opacity="1" /><path clip-path="url(#clip570)" d="M 0 0 M1629.15 156.841 L1629.15 158.924 L1609.57 158.924 Q1609.84 163.322 1612.21 165.637 Q1614.59 167.929 1618.83 167.929 Q1621.28 167.929 1623.57 167.327 Q1625.89 166.725 1628.15 165.521 L1628.15 169.549 Q1625.86 170.521 1623.46 171.031 Q1621.05 171.54 1618.57 171.54 Q1612.37 171.54 1608.73 167.929 Q1605.12 164.318 1605.12 158.16 Q1605.12 151.795 1608.55 148.068 Q1612 144.318 1617.83 144.318 Q1623.06 144.318 1626.09 147.697 Q1629.15 151.054 1629.15 156.841 M1624.89 155.591 Q1624.84 152.096 1622.92 150.012 Q1621.02 147.929 1617.88 147.929 Q1614.31 147.929 1612.16 149.943 Q1610.03 151.957 1609.71 155.614 L1624.89 155.591 Z" fill="#000000" fill-rule="evenodd" fill-opacity="1" /><path clip-path="url(#clip570)" d="M 0 0 M1648.64 148.924 Q1647.92 148.508 1647.07 148.322 Q1646.23 148.114 1645.21 148.114 Q1641.6 148.114 1639.66 150.475 Q1637.74 152.813 1637.74 157.211 L1637.74 170.869 L1633.46 170.869 L1633.46 144.943 L1637.74 144.943 L1637.74 148.971 Q1639.08 146.609 1641.23 145.475 Q1643.39 144.318 1646.46 144.318 Q1646.9 144.318 1647.44 144.387 Q1647.97 144.434 1648.62 144.549 L1648.64 148.924 Z" fill="#000000" fill-rule="evenodd" fill-opacity="1" /><path clip-path="url(#clip570)" d="M 0 0 M1653.11 144.943 L1657.37 144.943 L1657.37 170.869 L1653.11 170.869 L1653.11 144.943 M1653.11 134.85 L1657.37 134.85 L1657.37 140.244 L1653.11 140.244 L1653.11 134.85 Z" fill="#000000" fill-rule="evenodd" fill-opacity="1" /><path clip-path="url(#clip570)" d="M 0 0 M1658.78 144.943 L1663.29 144.943 L1671.39 166.702 L1679.5 144.943 L1684.01 144.943 L1674.29 170.869 L1668.5 170.869 L1658.78 144.943 Z" fill="#000000" fill-rule="evenodd" fill-opacity="1" /><path clip-path="url(#clip570)" d="M 0 0 M1700.26 157.836 Q1695.1 157.836 1693.11 159.017 Q1691.12 160.197 1691.12 163.045 Q1691.12 165.313 1692.6 166.656 Q1694.1 167.975 1696.67 167.975 Q1700.21 167.975 1702.34 165.475 Q1704.5 162.952 1704.5 158.785 L1704.5 157.836 L1700.26 157.836 M1708.76 156.077 L1708.76 170.869 L1704.5 170.869 L1704.5 166.933 Q1703.04 169.295 1700.86 170.429 Q1698.69 171.54 1695.54 171.54 Q1691.56 171.54 1689.2 169.318 Q1686.86 167.072 1686.86 163.322 Q1686.86 158.947 1689.77 156.725 Q1692.71 154.503 1698.52 154.503 L1704.5 154.503 L1704.5 154.086 Q1704.5 151.147 1702.55 149.549 Q1700.63 147.929 1697.14 147.929 Q1694.91 147.929 1692.81 148.461 Q1690.7 148.994 1688.76 150.059 L1688.76 146.123 Q1691.09 145.221 1693.29 144.781 Q1695.49 144.318 1697.58 144.318 Q1703.2 144.318 1705.98 147.234 Q1708.76 150.151 1708.76 156.077 Z" fill="#000000" fill-rule="evenodd" fill-opacity="1" /><path clip-path="url(#clip570)" d="M 0 0 M1717.44 137.582 L1717.44 144.943 L1726.21 144.943 L1726.21 148.253 L1717.44 148.253 L1717.44 162.327 Q1717.44 165.498 1718.29 166.401 Q1719.17 167.304 1721.83 167.304 L1726.21 167.304 L1726.21 170.869 L1721.83 170.869 Q1716.9 170.869 1715.03 169.04 Q1713.15 167.188 1713.15 162.327 L1713.15 148.253 L1710.03 148.253 L1710.03 144.943 L1713.15 144.943 L1713.15 137.582 L1717.44 137.582 Z" fill="#000000" fill-rule="evenodd" fill-opacity="1" /><path clip-path="url(#clip570)" d="M 0 0 M1730.68 144.943 L1734.94 144.943 L1734.94 170.869 L1730.68 170.869 L1730.68 144.943 M1730.68 134.85 L1734.94 134.85 L1734.94 140.244 L1730.68 140.244 L1730.68 134.85 Z" fill="#000000" fill-rule="evenodd" fill-opacity="1" /><path clip-path="url(#clip570)" d="M 0 0 M1736.35 144.943 L1740.86 144.943 L1748.96 166.702 L1757.07 144.943 L1761.58 144.943 L1751.86 170.869 L1746.07 170.869 L1736.35 144.943 Z" fill="#000000" fill-rule="evenodd" fill-opacity="1" /><path clip-path="url(#clip570)" d="M 0 0 M1788.22 156.841 L1788.22 158.924 L1768.64 158.924 Q1768.92 163.322 1771.28 165.637 Q1773.66 167.929 1777.9 167.929 Q1780.35 167.929 1782.64 167.327 Q1784.96 166.725 1787.23 165.521 L1787.23 169.549 Q1784.94 170.521 1782.53 171.031 Q1780.12 171.54 1777.64 171.54 Q1771.44 171.54 1767.81 167.929 Q1764.2 164.318 1764.2 158.16 Q1764.2 151.795 1767.62 148.068 Q1771.07 144.318 1776.9 144.318 Q1782.13 144.318 1785.17 147.697 Q1788.22 151.054 1788.22 156.841 M1783.96 155.591 Q1783.92 152.096 1782 150.012 Q1780.1 147.929 1776.95 147.929 Q1773.38 147.929 1771.23 149.943 Q1769.1 151.957 1768.78 155.614 L1783.96 155.591 Z" fill="#000000" fill-rule="evenodd" fill-opacity="1" /><path clip-path="url(#clip570)" d="M 0 0 M1827.94 149.92 Q1829.54 147.049 1831.76 145.684 Q1833.99 144.318 1837 144.318 Q1841.05 144.318 1843.25 147.165 Q1845.44 149.989 1845.44 155.221 L1845.44 170.869 L1841.16 170.869 L1841.16 155.359 Q1841.16 151.633 1839.84 149.827 Q1838.52 148.022 1835.82 148.022 Q1832.5 148.022 1830.58 150.221 Q1828.66 152.42 1828.66 156.216 L1828.66 170.869 L1824.38 170.869 L1824.38 155.359 Q1824.38 151.609 1823.06 149.827 Q1821.74 148.022 1818.99 148.022 Q1815.72 148.022 1813.8 150.244 Q1811.88 152.443 1811.88 156.216 L1811.88 170.869 L1807.6 170.869 L1807.6 144.943 L1811.88 144.943 L1811.88 148.971 Q1813.34 146.586 1815.38 145.452 Q1817.41 144.318 1820.21 144.318 Q1823.04 144.318 1825 145.753 Q1827 147.188 1827.94 149.92 Z" fill="#000000" fill-rule="evenodd" fill-opacity="1" /><path clip-path="url(#clip570)" d="M 0 0 M1861.69 157.836 Q1856.53 157.836 1854.54 159.017 Q1852.55 160.197 1852.55 163.045 Q1852.55 165.313 1854.03 166.656 Q1855.54 167.975 1858.11 167.975 Q1861.65 167.975 1863.78 165.475 Q1865.93 162.952 1865.93 158.785 L1865.93 157.836 L1861.69 157.836 M1870.19 156.077 L1870.19 170.869 L1865.93 170.869 L1865.93 166.933 Q1864.47 169.295 1862.3 170.429 Q1860.12 171.54 1856.97 171.54 Q1852.99 171.54 1850.63 169.318 Q1848.29 167.072 1848.29 163.322 Q1848.29 158.947 1851.21 156.725 Q1854.15 154.503 1859.96 154.503 L1865.93 154.503 L1865.93 154.086 Q1865.93 151.147 1863.99 149.549 Q1862.06 147.929 1858.57 147.929 Q1856.35 147.929 1854.24 148.461 Q1852.13 148.994 1850.19 150.059 L1850.19 146.123 Q1852.53 145.221 1854.73 144.781 Q1856.93 144.318 1859.01 144.318 Q1864.63 144.318 1867.41 147.234 Q1870.19 150.151 1870.19 156.077 Z" fill="#000000" fill-rule="evenodd" fill-opacity="1" /><path clip-path="url(#clip570)" d="M 0 0 M1878.87 137.582 L1878.87 144.943 L1887.64 144.943 L1887.64 148.253 L1878.87 148.253 L1878.87 162.327 Q1878.87 165.498 1879.73 166.401 Q1880.61 167.304 1883.27 167.304 L1887.64 167.304 L1887.64 170.869 L1883.27 170.869 Q1878.34 170.869 1876.46 169.04 Q1874.59 167.188 1874.59 162.327 L1874.59 148.253 L1871.46 148.253 L1871.46 144.943 L1874.59 144.943 L1874.59 137.582 L1878.87 137.582 Z" fill="#000000" fill-rule="evenodd" fill-opacity="1" /><path clip-path="url(#clip570)" d="M 0 0 M1910.77 145.938 L1910.77 149.92 Q1908.96 148.924 1907.13 148.438 Q1905.33 147.929 1903.48 147.929 Q1899.33 147.929 1897.04 150.568 Q1894.75 153.184 1894.75 157.929 Q1894.75 162.674 1897.04 165.313 Q1899.33 167.929 1903.48 167.929 Q1905.33 167.929 1907.13 167.443 Q1908.96 166.933 1910.77 165.938 L1910.77 169.873 Q1908.99 170.707 1907.06 171.123 Q1905.17 171.54 1903.01 171.54 Q1897.16 171.54 1893.71 167.859 Q1890.26 164.179 1890.26 157.929 Q1890.26 151.586 1893.73 147.952 Q1897.23 144.318 1903.29 144.318 Q1905.26 144.318 1907.13 144.735 Q1909.01 145.128 1910.77 145.938 Z" fill="#000000" fill-rule="evenodd" fill-opacity="1" /><path clip-path="url(#clip570)" d="M 0 0 M1936.79 155.221 L1936.79 170.869 L1932.53 170.869 L1932.53 155.359 Q1932.53 151.679 1931.09 149.85 Q1929.66 148.022 1926.79 148.022 Q1923.34 148.022 1921.35 150.221 Q1919.36 152.42 1919.36 156.216 L1919.36 170.869 L1915.07 170.869 L1915.07 134.85 L1919.36 134.85 L1919.36 148.971 Q1920.88 146.633 1922.94 145.475 Q1925.03 144.318 1927.74 144.318 Q1932.2 144.318 1934.5 147.096 Q1936.79 149.85 1936.79 155.221 Z" fill="#000000" fill-rule="evenodd" fill-opacity="1" /><path clip-path="url(#clip570)" d="M 0 0 M1941.25 144.943 L1945.51 144.943 L1945.51 170.869 L1941.25 170.869 L1941.25 144.943 M1941.25 134.85 L1945.51 134.85 L1945.51 140.244 L1941.25 140.244 L1941.25 134.85 Z" fill="#000000" fill-rule="evenodd" fill-opacity="1" /><path clip-path="url(#clip570)" d="M 0 0 M1971.53 155.221 L1971.53 170.869 L1967.27 170.869 L1967.27 155.359 Q1967.27 151.679 1965.84 149.85 Q1964.4 148.022 1961.53 148.022 Q1958.08 148.022 1956.09 150.221 Q1954.1 152.42 1954.1 156.216 L1954.1 170.869 L1949.82 170.869 L1949.82 144.943 L1954.1 144.943 L1954.1 148.971 Q1955.63 146.633 1957.69 145.475 Q1959.77 144.318 1962.48 144.318 Q1966.95 144.318 1969.24 147.096 Q1971.53 149.85 1971.53 155.221 Z" fill="#000000" fill-rule="evenodd" fill-opacity="1" /><path clip-path="url(#clip570)" d="M 0 0 M1993.06 157.605 Q1993.06 152.975 1991.14 150.429 Q1989.24 147.883 1985.79 147.883 Q1982.37 147.883 1980.44 150.429 Q1978.55 152.975 1978.55 157.605 Q1978.55 162.211 1980.44 164.758 Q1982.37 167.304 1985.79 167.304 Q1989.24 167.304 1991.14 164.758 Q1993.06 162.211 1993.06 157.605 M1997.32 167.651 Q1997.32 174.271 1994.38 177.489 Q1991.44 180.73 1985.37 180.73 Q1983.13 180.73 1981.14 180.382 Q1979.15 180.058 1977.27 179.364 L1977.27 175.22 Q1979.15 176.239 1980.98 176.725 Q1982.81 177.211 1984.7 177.211 Q1988.89 177.211 1990.98 175.012 Q1993.06 172.836 1993.06 168.415 L1993.06 166.308 Q1991.74 168.6 1989.68 169.734 Q1987.62 170.869 1984.75 170.869 Q1979.98 170.869 1977.06 167.234 Q1974.15 163.6 1974.15 157.605 Q1974.15 151.586 1977.06 147.952 Q1979.98 144.318 1984.75 144.318 Q1987.62 144.318 1989.68 145.452 Q1991.74 146.586 1993.06 148.878 L1993.06 144.943 L1997.32 144.943 L1997.32 167.651 Z" fill="#000000" fill-rule="evenodd" fill-opacity="1" /><polyline clip-path="url(#clip570)" style="stroke:#e26f46; stroke-width:4; stroke-opacity:1; fill:none" points="
  1413.83,214.069 1555.69,214.069 
  "/>
<path clip-path="url(#clip570)" d="M 0 0 M1599.84 206.418 L1599.84 210.4 Q1598.04 209.404 1596.21 208.918 Q1594.4 208.409 1592.55 208.409 Q1588.41 208.409 1586.12 211.048 Q1583.83 213.664 1583.83 218.409 Q1583.83 223.154 1586.12 225.793 Q1588.41 228.409 1592.55 228.409 Q1594.4 228.409 1596.21 227.923 Q1598.04 227.413 1599.84 226.418 L1599.84 230.353 Q1598.06 231.187 1596.14 231.603 Q1594.24 232.02 1592.09 232.02 Q1586.23 232.02 1582.78 228.339 Q1579.33 224.659 1579.33 218.409 Q1579.33 212.066 1582.81 208.432 Q1586.3 204.798 1592.37 204.798 Q1594.33 204.798 1596.21 205.215 Q1598.08 205.608 1599.84 206.418 Z" fill="#000000" fill-rule="evenodd" fill-opacity="1" /><path clip-path="url(#clip570)" d="M 0 0 M1614.36 208.409 Q1610.93 208.409 1608.94 211.094 Q1606.95 213.756 1606.95 218.409 Q1606.95 223.062 1608.92 225.747 Q1610.91 228.409 1614.36 228.409 Q1617.76 228.409 1619.75 225.724 Q1621.74 223.038 1621.74 218.409 Q1621.74 213.802 1619.75 211.117 Q1617.76 208.409 1614.36 208.409 M1614.36 204.798 Q1619.91 204.798 1623.08 208.409 Q1626.26 212.02 1626.26 218.409 Q1626.26 224.775 1623.08 228.409 Q1619.91 232.02 1614.36 232.02 Q1608.78 232.02 1605.61 228.409 Q1602.46 224.775 1602.46 218.409 Q1602.46 212.02 1605.61 208.409 Q1608.78 204.798 1614.36 204.798 Z" fill="#000000" fill-rule="evenodd" fill-opacity="1" /><path clip-path="url(#clip570)" d="M 0 0 M1652.27 215.701 L1652.27 231.349 L1648.02 231.349 L1648.02 215.839 Q1648.02 212.159 1646.58 210.33 Q1645.14 208.502 1642.27 208.502 Q1638.83 208.502 1636.83 210.701 Q1634.84 212.9 1634.84 216.696 L1634.84 231.349 L1630.56 231.349 L1630.56 205.423 L1634.84 205.423 L1634.84 209.451 Q1636.37 207.113 1638.43 205.955 Q1640.52 204.798 1643.22 204.798 Q1647.69 204.798 1649.98 207.576 Q1652.27 210.33 1652.27 215.701 Z" fill="#000000" fill-rule="evenodd" fill-opacity="1" /><path clip-path="url(#clip570)" d="M 0 0 M1673.8 209.358 L1673.8 195.33 L1678.06 195.33 L1678.06 231.349 L1673.8 231.349 L1673.8 227.46 Q1672.46 229.775 1670.4 230.909 Q1668.36 232.02 1665.49 232.02 Q1660.79 232.02 1657.83 228.27 Q1654.89 224.52 1654.89 218.409 Q1654.89 212.298 1657.83 208.548 Q1660.79 204.798 1665.49 204.798 Q1668.36 204.798 1670.4 205.932 Q1672.46 207.043 1673.8 209.358 M1659.29 218.409 Q1659.29 223.108 1661.21 225.793 Q1663.15 228.455 1666.53 228.455 Q1669.91 228.455 1671.86 225.793 Q1673.8 223.108 1673.8 218.409 Q1673.8 213.71 1671.86 211.048 Q1669.91 208.363 1666.53 208.363 Q1663.15 208.363 1661.21 211.048 Q1659.29 213.71 1659.29 218.409 Z" fill="#000000" fill-rule="evenodd" fill-opacity="1" /><path clip-path="url(#clip570)" d="M 0 0 M1682.53 205.423 L1686.79 205.423 L1686.79 231.349 L1682.53 231.349 L1682.53 205.423 M1682.53 195.33 L1686.79 195.33 L1686.79 200.724 L1682.53 200.724 L1682.53 195.33 Z" fill="#000000" fill-rule="evenodd" fill-opacity="1" /><path clip-path="url(#clip570)" d="M 0 0 M1695.47 198.062 L1695.47 205.423 L1704.24 205.423 L1704.24 208.733 L1695.47 208.733 L1695.47 222.807 Q1695.47 225.978 1696.33 226.881 Q1697.2 227.784 1699.87 227.784 L1704.24 227.784 L1704.24 231.349 L1699.87 231.349 Q1694.94 231.349 1693.06 229.52 Q1691.19 227.668 1691.19 222.807 L1691.19 208.733 L1688.06 208.733 L1688.06 205.423 L1691.19 205.423 L1691.19 198.062 L1695.47 198.062 Z" fill="#000000" fill-rule="evenodd" fill-opacity="1" /><path clip-path="url(#clip570)" d="M 0 0 M1708.71 205.423 L1712.97 205.423 L1712.97 231.349 L1708.71 231.349 L1708.71 205.423 M1708.71 195.33 L1712.97 195.33 L1712.97 200.724 L1708.71 200.724 L1708.71 195.33 Z" fill="#000000" fill-rule="evenodd" fill-opacity="1" /><path clip-path="url(#clip570)" d="M 0 0 M1727.48 208.409 Q1724.06 208.409 1722.07 211.094 Q1720.07 213.756 1720.07 218.409 Q1720.07 223.062 1722.04 225.747 Q1724.03 228.409 1727.48 228.409 Q1730.89 228.409 1732.88 225.724 Q1734.87 223.038 1734.87 218.409 Q1734.87 213.802 1732.88 211.117 Q1730.89 208.409 1727.48 208.409 M1727.48 204.798 Q1733.04 204.798 1736.21 208.409 Q1739.38 212.02 1739.38 218.409 Q1739.38 224.775 1736.21 228.409 Q1733.04 232.02 1727.48 232.02 Q1721.9 232.02 1718.73 228.409 Q1715.58 224.775 1715.58 218.409 Q1715.58 212.02 1718.73 208.409 Q1721.9 204.798 1727.48 204.798 Z" fill="#000000" fill-rule="evenodd" fill-opacity="1" /><path clip-path="url(#clip570)" d="M 0 0 M1765.4 215.701 L1765.4 231.349 L1761.14 231.349 L1761.14 215.839 Q1761.14 212.159 1759.7 210.33 Q1758.27 208.502 1755.4 208.502 Q1751.95 208.502 1749.96 210.701 Q1747.97 212.9 1747.97 216.696 L1747.97 231.349 L1743.69 231.349 L1743.69 205.423 L1747.97 205.423 L1747.97 209.451 Q1749.5 207.113 1751.56 205.955 Q1753.64 204.798 1756.35 204.798 Q1760.82 204.798 1763.11 207.576 Q1765.4 210.33 1765.4 215.701 Z" fill="#000000" fill-rule="evenodd" fill-opacity="1" /><path clip-path="url(#clip570)" d="M 0 0 M1781.65 218.316 Q1776.49 218.316 1774.5 219.497 Q1772.51 220.677 1772.51 223.525 Q1772.51 225.793 1773.99 227.136 Q1775.49 228.455 1778.06 228.455 Q1781.6 228.455 1783.73 225.955 Q1785.88 223.432 1785.88 219.265 L1785.88 218.316 L1781.65 218.316 M1790.14 216.557 L1790.14 231.349 L1785.88 231.349 L1785.88 227.413 Q1784.43 229.775 1782.25 230.909 Q1780.07 232.02 1776.93 232.02 Q1772.95 232.02 1770.58 229.798 Q1768.25 227.552 1768.25 223.802 Q1768.25 219.427 1771.16 217.205 Q1774.1 214.983 1779.91 214.983 L1785.88 214.983 L1785.88 214.566 Q1785.88 211.627 1783.94 210.029 Q1782.02 208.409 1778.52 208.409 Q1776.3 208.409 1774.2 208.941 Q1772.09 209.474 1770.14 210.539 L1770.14 206.603 Q1772.48 205.701 1774.68 205.261 Q1776.88 204.798 1778.96 204.798 Q1784.59 204.798 1787.37 207.714 Q1790.14 210.631 1790.14 216.557 Z" fill="#000000" fill-rule="evenodd" fill-opacity="1" /><path clip-path="url(#clip570)" d="M 0 0 M1794.61 195.33 L1798.87 195.33 L1798.87 231.349 L1794.61 231.349 L1794.61 195.33 Z" fill="#000000" fill-rule="evenodd" fill-opacity="1" /><path clip-path="url(#clip570)" d="M 0 0 M1835.47 209.358 L1835.47 195.33 L1839.73 195.33 L1839.73 231.349 L1835.47 231.349 L1835.47 227.46 Q1834.13 229.775 1832.07 230.909 Q1830.03 232.02 1827.16 232.02 Q1822.46 232.02 1819.5 228.27 Q1816.56 224.52 1816.56 218.409 Q1816.56 212.298 1819.5 208.548 Q1822.46 204.798 1827.16 204.798 Q1830.03 204.798 1832.07 205.932 Q1834.13 207.043 1835.47 209.358 M1820.95 218.409 Q1820.95 223.108 1822.88 225.793 Q1824.82 228.455 1828.2 228.455 Q1831.58 228.455 1833.52 225.793 Q1835.47 223.108 1835.47 218.409 Q1835.47 213.71 1833.52 211.048 Q1831.58 208.363 1828.2 208.363 Q1824.82 208.363 1822.88 211.048 Q1820.95 213.71 1820.95 218.409 Z" fill="#000000" fill-rule="evenodd" fill-opacity="1" /><path clip-path="url(#clip570)" d="M 0 0 M1866.37 217.321 L1866.37 219.404 L1846.79 219.404 Q1847.07 223.802 1849.43 226.117 Q1851.81 228.409 1856.05 228.409 Q1858.5 228.409 1860.79 227.807 Q1863.11 227.205 1865.38 226.001 L1865.38 230.029 Q1863.08 231.001 1860.68 231.511 Q1858.27 232.02 1855.79 232.02 Q1849.59 232.02 1845.95 228.409 Q1842.34 224.798 1842.34 218.64 Q1842.34 212.275 1845.77 208.548 Q1849.22 204.798 1855.05 204.798 Q1860.28 204.798 1863.31 208.177 Q1866.37 211.534 1866.37 217.321 M1862.11 216.071 Q1862.06 212.576 1860.14 210.492 Q1858.25 208.409 1855.1 208.409 Q1851.53 208.409 1849.38 210.423 Q1847.25 212.437 1846.93 216.094 L1862.11 216.071 Z" fill="#000000" fill-rule="evenodd" fill-opacity="1" /><path clip-path="url(#clip570)" d="M 0 0 M1885.86 209.404 Q1885.14 208.988 1884.29 208.802 Q1883.45 208.594 1882.44 208.594 Q1878.82 208.594 1876.88 210.955 Q1874.96 213.293 1874.96 217.691 L1874.96 231.349 L1870.68 231.349 L1870.68 205.423 L1874.96 205.423 L1874.96 209.451 Q1876.3 207.089 1878.45 205.955 Q1880.61 204.798 1883.69 204.798 Q1884.13 204.798 1884.66 204.867 Q1885.19 204.914 1885.84 205.029 L1885.86 209.404 Z" fill="#000000" fill-rule="evenodd" fill-opacity="1" /><path clip-path="url(#clip570)" d="M 0 0 M1890.33 205.423 L1894.59 205.423 L1894.59 231.349 L1890.33 231.349 L1890.33 205.423 M1890.33 195.33 L1894.59 195.33 L1894.59 200.724 L1890.33 200.724 L1890.33 195.33 Z" fill="#000000" fill-rule="evenodd" fill-opacity="1" /><path clip-path="url(#clip570)" d="M 0 0 M1896 205.423 L1900.51 205.423 L1908.62 227.182 L1916.72 205.423 L1921.23 205.423 L1911.51 231.349 L1905.72 231.349 L1896 205.423 Z" fill="#000000" fill-rule="evenodd" fill-opacity="1" /><path clip-path="url(#clip570)" d="M 0 0 M1937.48 218.316 Q1932.32 218.316 1930.33 219.497 Q1928.34 220.677 1928.34 223.525 Q1928.34 225.793 1929.82 227.136 Q1931.32 228.455 1933.89 228.455 Q1937.43 228.455 1939.56 225.955 Q1941.72 223.432 1941.72 219.265 L1941.72 218.316 L1937.48 218.316 M1945.98 216.557 L1945.98 231.349 L1941.72 231.349 L1941.72 227.413 Q1940.26 229.775 1938.08 230.909 Q1935.91 232.02 1932.76 232.02 Q1928.78 232.02 1926.42 229.798 Q1924.08 227.552 1924.08 223.802 Q1924.08 219.427 1927 217.205 Q1929.93 214.983 1935.75 214.983 L1941.72 214.983 L1941.72 214.566 Q1941.72 211.627 1939.77 210.029 Q1937.85 208.409 1934.36 208.409 Q1932.13 208.409 1930.03 208.941 Q1927.92 209.474 1925.98 210.539 L1925.98 206.603 Q1928.31 205.701 1930.51 205.261 Q1932.71 204.798 1934.8 204.798 Q1940.42 204.798 1943.2 207.714 Q1945.98 210.631 1945.98 216.557 Z" fill="#000000" fill-rule="evenodd" fill-opacity="1" /><path clip-path="url(#clip570)" d="M 0 0 M1954.66 198.062 L1954.66 205.423 L1963.43 205.423 L1963.43 208.733 L1954.66 208.733 L1954.66 222.807 Q1954.66 225.978 1955.51 226.881 Q1956.39 227.784 1959.06 227.784 L1963.43 227.784 L1963.43 231.349 L1959.06 231.349 Q1954.12 231.349 1952.25 229.52 Q1950.37 227.668 1950.37 222.807 L1950.37 208.733 L1947.25 208.733 L1947.25 205.423 L1950.37 205.423 L1950.37 198.062 L1954.66 198.062 Z" fill="#000000" fill-rule="evenodd" fill-opacity="1" /><path clip-path="url(#clip570)" d="M 0 0 M1967.9 205.423 L1972.16 205.423 L1972.16 231.349 L1967.9 231.349 L1967.9 205.423 M1967.9 195.33 L1972.16 195.33 L1972.16 200.724 L1967.9 200.724 L1967.9 195.33 Z" fill="#000000" fill-rule="evenodd" fill-opacity="1" /><path clip-path="url(#clip570)" d="M 0 0 M1973.57 205.423 L1978.08 205.423 L1986.18 227.182 L1994.29 205.423 L1998.8 205.423 L1989.08 231.349 L1983.29 231.349 L1973.57 205.423 Z" fill="#000000" fill-rule="evenodd" fill-opacity="1" /><path clip-path="url(#clip570)" d="M 0 0 M2025.44 217.321 L2025.44 219.404 L2005.86 219.404 Q2006.14 223.802 2008.5 226.117 Q2010.88 228.409 2015.12 228.409 Q2017.57 228.409 2019.87 227.807 Q2022.18 227.205 2024.45 226.001 L2024.45 230.029 Q2022.16 231.001 2019.75 231.511 Q2017.34 232.02 2014.87 232.02 Q2008.66 232.02 2005.03 228.409 Q2001.42 224.798 2001.42 218.64 Q2001.42 212.275 2004.84 208.548 Q2008.29 204.798 2014.12 204.798 Q2019.36 204.798 2022.39 208.177 Q2025.44 211.534 2025.44 217.321 M2021.18 216.071 Q2021.14 212.576 2019.22 210.492 Q2017.32 208.409 2014.17 208.409 Q2010.61 208.409 2008.45 210.423 Q2006.32 212.437 2006 216.094 L2021.18 216.071 Z" fill="#000000" fill-rule="evenodd" fill-opacity="1" /><path clip-path="url(#clip570)" d="M 0 0 M2065.17 210.4 Q2066.76 207.529 2068.99 206.164 Q2071.21 204.798 2074.22 204.798 Q2078.27 204.798 2080.47 207.645 Q2082.67 210.469 2082.67 215.701 L2082.67 231.349 L2078.38 231.349 L2078.38 215.839 Q2078.38 212.113 2077.06 210.307 Q2075.74 208.502 2073.04 208.502 Q2069.73 208.502 2067.8 210.701 Q2065.88 212.9 2065.88 216.696 L2065.88 231.349 L2061.6 231.349 L2061.6 215.839 Q2061.6 212.089 2060.28 210.307 Q2058.96 208.502 2056.21 208.502 Q2052.94 208.502 2051.02 210.724 Q2049.1 212.923 2049.1 216.696 L2049.1 231.349 L2044.82 231.349 L2044.82 205.423 L2049.1 205.423 L2049.1 209.451 Q2050.56 207.066 2052.6 205.932 Q2054.63 204.798 2057.43 204.798 Q2060.26 204.798 2062.23 206.233 Q2064.22 207.668 2065.17 210.4 Z" fill="#000000" fill-rule="evenodd" fill-opacity="1" /><path clip-path="url(#clip570)" d="M 0 0 M2098.92 218.316 Q2093.75 218.316 2091.76 219.497 Q2089.77 220.677 2089.77 223.525 Q2089.77 225.793 2091.25 227.136 Q2092.76 228.455 2095.33 228.455 Q2098.87 228.455 2101 225.955 Q2103.15 223.432 2103.15 219.265 L2103.15 218.316 L2098.92 218.316 M2107.41 216.557 L2107.41 231.349 L2103.15 231.349 L2103.15 227.413 Q2101.69 229.775 2099.52 230.909 Q2097.34 232.02 2094.19 232.02 Q2090.21 232.02 2087.85 229.798 Q2085.51 227.552 2085.51 223.802 Q2085.51 219.427 2088.43 217.205 Q2091.37 214.983 2097.18 214.983 L2103.15 214.983 L2103.15 214.566 Q2103.15 211.627 2101.21 210.029 Q2099.29 208.409 2095.79 208.409 Q2093.57 208.409 2091.46 208.941 Q2089.36 209.474 2087.41 210.539 L2087.41 206.603 Q2089.75 205.701 2091.95 205.261 Q2094.15 204.798 2096.23 204.798 Q2101.86 204.798 2104.63 207.714 Q2107.41 210.631 2107.41 216.557 Z" fill="#000000" fill-rule="evenodd" fill-opacity="1" /><path clip-path="url(#clip570)" d="M 0 0 M2116.09 198.062 L2116.09 205.423 L2124.86 205.423 L2124.86 208.733 L2116.09 208.733 L2116.09 222.807 Q2116.09 225.978 2116.95 226.881 Q2117.83 227.784 2120.49 227.784 L2124.86 227.784 L2124.86 231.349 L2120.49 231.349 Q2115.56 231.349 2113.68 229.52 Q2111.81 227.668 2111.81 222.807 L2111.81 208.733 L2108.68 208.733 L2108.68 205.423 L2111.81 205.423 L2111.81 198.062 L2116.09 198.062 Z" fill="#000000" fill-rule="evenodd" fill-opacity="1" /><path clip-path="url(#clip570)" d="M 0 0 M2147.99 206.418 L2147.99 210.4 Q2146.18 209.404 2144.36 208.918 Q2142.55 208.409 2140.7 208.409 Q2136.55 208.409 2134.26 211.048 Q2131.97 213.664 2131.97 218.409 Q2131.97 223.154 2134.26 225.793 Q2136.55 228.409 2140.7 228.409 Q2142.55 228.409 2144.36 227.923 Q2146.18 227.413 2147.99 226.418 L2147.99 230.353 Q2146.21 231.187 2144.29 231.603 Q2142.39 232.02 2140.23 232.02 Q2134.38 232.02 2130.93 228.339 Q2127.48 224.659 2127.48 218.409 Q2127.48 212.066 2130.95 208.432 Q2134.45 204.798 2140.51 204.798 Q2142.48 204.798 2144.36 205.215 Q2146.23 205.608 2147.99 206.418 Z" fill="#000000" fill-rule="evenodd" fill-opacity="1" /><path clip-path="url(#clip570)" d="M 0 0 M2174.01 215.701 L2174.01 231.349 L2169.75 231.349 L2169.75 215.839 Q2169.75 212.159 2168.31 210.33 Q2166.88 208.502 2164.01 208.502 Q2160.56 208.502 2158.57 210.701 Q2156.58 212.9 2156.58 216.696 L2156.58 231.349 L2152.29 231.349 L2152.29 195.33 L2156.58 195.33 L2156.58 209.451 Q2158.11 207.113 2160.17 205.955 Q2162.25 204.798 2164.96 204.798 Q2169.42 204.798 2171.72 207.576 Q2174.01 210.33 2174.01 215.701 Z" fill="#000000" fill-rule="evenodd" fill-opacity="1" /><path clip-path="url(#clip570)" d="M 0 0 M2178.48 205.423 L2182.73 205.423 L2182.73 231.349 L2178.48 231.349 L2178.48 205.423 M2178.48 195.33 L2182.73 195.33 L2182.73 200.724 L2178.48 200.724 L2178.48 195.33 Z" fill="#000000" fill-rule="evenodd" fill-opacity="1" /><path clip-path="url(#clip570)" d="M 0 0 M2208.75 215.701 L2208.75 231.349 L2204.49 231.349 L2204.49 215.839 Q2204.49 212.159 2203.06 210.33 Q2201.62 208.502 2198.75 208.502 Q2195.3 208.502 2193.31 210.701 Q2191.32 212.9 2191.32 216.696 L2191.32 231.349 L2187.04 231.349 L2187.04 205.423 L2191.32 205.423 L2191.32 209.451 Q2192.85 207.113 2194.91 205.955 Q2196.99 204.798 2199.7 204.798 Q2204.17 204.798 2206.46 207.576 Q2208.75 210.33 2208.75 215.701 Z" fill="#000000" fill-rule="evenodd" fill-opacity="1" /><path clip-path="url(#clip570)" d="M 0 0 M2230.28 218.085 Q2230.28 213.455 2228.36 210.909 Q2226.46 208.363 2223.01 208.363 Q2219.59 208.363 2217.66 210.909 Q2215.77 213.455 2215.77 218.085 Q2215.77 222.691 2217.66 225.238 Q2219.59 227.784 2223.01 227.784 Q2226.46 227.784 2228.36 225.238 Q2230.28 222.691 2230.28 218.085 M2234.54 228.131 Q2234.54 234.751 2231.6 237.969 Q2228.66 241.21 2222.6 241.21 Q2220.35 241.21 2218.36 240.862 Q2216.37 240.538 2214.49 239.844 L2214.49 235.7 Q2216.37 236.719 2218.2 237.205 Q2220.03 237.691 2221.92 237.691 Q2226.11 237.691 2228.2 235.492 Q2230.28 233.316 2230.28 228.895 L2230.28 226.788 Q2228.96 229.08 2226.9 230.214 Q2224.84 231.349 2221.97 231.349 Q2217.2 231.349 2214.29 227.714 Q2211.37 224.08 2211.37 218.085 Q2211.37 212.066 2214.29 208.432 Q2217.2 204.798 2221.97 204.798 Q2224.84 204.798 2226.9 205.932 Q2228.96 207.066 2230.28 209.358 L2230.28 205.423 L2234.54 205.423 L2234.54 228.131 Z" fill="#000000" fill-rule="evenodd" fill-opacity="1" /><polyline clip-path="url(#clip570)" style="stroke:#808080; stroke-width:4; stroke-opacity:1; fill:none" stroke-dasharray="16, 10" points="
  1413.83,274.549 1555.69,274.549 
  "/>
<path clip-path="url(#clip570)" d="M 0 0 M1601.58 258.403 L1601.58 262.963 Q1598.92 261.69 1596.56 261.065 Q1594.2 260.44 1592 260.44 Q1588.18 260.44 1586.09 261.921 Q1584.03 263.403 1584.03 266.134 Q1584.03 268.426 1585.4 269.607 Q1586.79 270.764 1590.63 271.482 L1593.46 272.06 Q1598.69 273.056 1601.16 275.579 Q1603.66 278.079 1603.66 282.292 Q1603.66 287.315 1600.28 289.907 Q1596.93 292.5 1590.42 292.5 Q1587.97 292.5 1585.19 291.944 Q1582.44 291.389 1579.47 290.301 L1579.47 285.486 Q1582.32 287.083 1585.05 287.893 Q1587.78 288.704 1590.42 288.704 Q1594.43 288.704 1596.6 287.13 Q1598.78 285.556 1598.78 282.639 Q1598.78 280.093 1597.21 278.657 Q1595.65 277.222 1592.09 276.505 L1589.24 275.949 Q1584.01 274.907 1581.67 272.685 Q1579.33 270.463 1579.33 266.505 Q1579.33 261.921 1582.55 259.282 Q1585.79 256.644 1591.46 256.644 Q1593.9 256.644 1596.42 257.083 Q1598.94 257.523 1601.58 258.403 Z" fill="#000000" fill-rule="evenodd" fill-opacity="1" /><path clip-path="url(#clip570)" d="M 0 0 M1629.03 258.403 L1629.03 262.963 Q1626.37 261.69 1624.01 261.065 Q1621.65 260.44 1619.45 260.44 Q1615.63 260.44 1613.55 261.921 Q1611.49 263.403 1611.49 266.134 Q1611.49 268.426 1612.85 269.607 Q1614.24 270.764 1618.08 271.482 L1620.91 272.06 Q1626.14 273.056 1628.62 275.579 Q1631.12 278.079 1631.12 282.292 Q1631.12 287.315 1627.74 289.907 Q1624.38 292.5 1617.88 292.5 Q1615.42 292.5 1612.64 291.944 Q1609.89 291.389 1606.93 290.301 L1606.93 285.486 Q1609.77 287.083 1612.51 287.893 Q1615.24 288.704 1617.88 288.704 Q1621.88 288.704 1624.06 287.13 Q1626.23 285.556 1626.23 282.639 Q1626.23 280.093 1624.66 278.657 Q1623.11 277.222 1619.54 276.505 L1616.7 275.949 Q1611.46 274.907 1609.13 272.685 Q1606.79 270.463 1606.79 266.505 Q1606.79 261.921 1610.01 259.282 Q1613.25 256.644 1618.92 256.644 Q1621.35 256.644 1623.87 257.083 Q1626.39 257.523 1629.03 258.403 Z" fill="#000000" fill-rule="evenodd" fill-opacity="1" /><path clip-path="url(#clip570)" d="M 0 0 M1648.2 261.875 L1641.86 279.074 L1654.57 279.074 L1648.2 261.875 M1645.56 257.269 L1650.86 257.269 L1664.03 291.829 L1659.17 291.829 L1656.02 282.963 L1640.45 282.963 L1637.3 291.829 L1632.37 291.829 L1645.56 257.269 Z" fill="#000000" fill-rule="evenodd" fill-opacity="1" /></svg>
