<?xml version="1.0" encoding="utf-8" standalone="no"?>
<!DOCTYPE svg PUBLIC "-//W3C//DTD SVG 1.1//EN"
  "http://www.w3.org/Graphics/SVG/1.1/DTD/svg11.dtd">
<!-- Created with matplotlib (http://matplotlib.org/) -->
<svg height="267.631875pt" version="1.1" viewBox="0 0 505.905812 267.631875" width="505.905812pt" xmlns="http://www.w3.org/2000/svg" xmlns:xlink="http://www.w3.org/1999/xlink">
 <defs>
  <style type="text/css">
*{stroke-linecap:butt;stroke-linejoin:round;}
  </style>
 </defs>
 <g id="figure_1">
  <g id="patch_1">
   <path d="M 0 267.631875 
L 505.905812 267.631875 
L 505.905812 0 
L 0 0 
z
" style="fill:#ffffff;"/>
  </g>
  <g id="axes_1">
   <g id="patch_2">
    <path d="M 42.53875 228.14 
L 488.93875 228.14 
L 488.93875 10.7 
L 42.53875 10.7 
z
" style="fill:#ffffff;"/>
   </g>
   <g id="matplotlib.axis_1">
    <g id="xtick_1">
     <g id="line2d_1">
      <defs>
       <path d="M 0 0 
L 0 3.5 
" id="m73d20af840" style="stroke:#000000;stroke-width:0.8;"/>
      </defs>
      <g>
       <use style="stroke:#000000;stroke-width:0.8;" x="42.53875" xlink:href="#m73d20af840" y="228.14"/>
      </g>
     </g>
     <g id="text_1">
      <!-- 0 -->
      <defs>
       <path d="M 31.78125 66.40625 
Q 24.171875 66.40625 20.328125 58.90625 
Q 16.5 51.421875 16.5 36.375 
Q 16.5 21.390625 20.328125 13.890625 
Q 24.171875 6.390625 31.78125 6.390625 
Q 39.453125 6.390625 43.28125 13.890625 
Q 47.125 21.390625 47.125 36.375 
Q 47.125 51.421875 43.28125 58.90625 
Q 39.453125 66.40625 31.78125 66.40625 
z
M 31.78125 74.21875 
Q 44.046875 74.21875 50.515625 64.515625 
Q 56.984375 54.828125 56.984375 36.375 
Q 56.984375 17.96875 50.515625 8.265625 
Q 44.046875 -1.421875 31.78125 -1.421875 
Q 19.53125 -1.421875 13.0625 8.265625 
Q 6.59375 17.96875 6.59375 36.375 
Q 6.59375 54.828125 13.0625 64.515625 
Q 19.53125 74.21875 31.78125 74.21875 
z
" id="DejaVuSans-30"/>
      </defs>
      <g transform="translate(39.3575 242.738437)scale(0.1 -0.1)">
       <use xlink:href="#DejaVuSans-30"/>
      </g>
     </g>
    </g>
    <g id="xtick_2">
     <g id="line2d_2">
      <g>
       <use style="stroke:#000000;stroke-width:0.8;" x="98.366664" xlink:href="#m73d20af840" y="228.14"/>
      </g>
     </g>
     <g id="text_2">
      <!-- 25 -->
      <defs>
       <path d="M 19.1875 8.296875 
L 53.609375 8.296875 
L 53.609375 0 
L 7.328125 0 
L 7.328125 8.296875 
Q 12.9375 14.109375 22.625 23.890625 
Q 32.328125 33.6875 34.8125 36.53125 
Q 39.546875 41.84375 41.421875 45.53125 
Q 43.3125 49.21875 43.3125 52.78125 
Q 43.3125 58.59375 39.234375 62.25 
Q 35.15625 65.921875 28.609375 65.921875 
Q 23.96875 65.921875 18.8125 64.3125 
Q 13.671875 62.703125 7.8125 59.421875 
L 7.8125 69.390625 
Q 13.765625 71.78125 18.9375 73 
Q 24.125 74.21875 28.421875 74.21875 
Q 39.75 74.21875 46.484375 68.546875 
Q 53.21875 62.890625 53.21875 53.421875 
Q 53.21875 48.921875 51.53125 44.890625 
Q 49.859375 40.875 45.40625 35.40625 
Q 44.1875 33.984375 37.640625 27.21875 
Q 31.109375 20.453125 19.1875 8.296875 
z
" id="DejaVuSans-32"/>
       <path d="M 10.796875 72.90625 
L 49.515625 72.90625 
L 49.515625 64.59375 
L 19.828125 64.59375 
L 19.828125 46.734375 
Q 21.96875 47.46875 24.109375 47.828125 
Q 26.265625 48.1875 28.421875 48.1875 
Q 40.625 48.1875 47.75 41.5 
Q 54.890625 34.8125 54.890625 23.390625 
Q 54.890625 11.625 47.5625 5.09375 
Q 40.234375 -1.421875 26.90625 -1.421875 
Q 22.3125 -1.421875 17.546875 -0.640625 
Q 12.796875 0.140625 7.71875 1.703125 
L 7.71875 11.625 
Q 12.109375 9.234375 16.796875 8.0625 
Q 21.484375 6.890625 26.703125 6.890625 
Q 35.15625 6.890625 40.078125 11.328125 
Q 45.015625 15.765625 45.015625 23.390625 
Q 45.015625 31 40.078125 35.4375 
Q 35.15625 39.890625 26.703125 39.890625 
Q 22.75 39.890625 18.8125 39.015625 
Q 14.890625 38.140625 10.796875 36.28125 
z
" id="DejaVuSans-35"/>
      </defs>
      <g transform="translate(92.004164 242.738437)scale(0.1 -0.1)">
       <use xlink:href="#DejaVuSans-32"/>
       <use x="63.623047" xlink:href="#DejaVuSans-35"/>
      </g>
     </g>
    </g>
    <g id="xtick_3">
     <g id="line2d_3">
      <g>
       <use style="stroke:#000000;stroke-width:0.8;" x="154.194578" xlink:href="#m73d20af840" y="228.14"/>
      </g>
     </g>
     <g id="text_3">
      <!-- 50 -->
      <g transform="translate(147.832078 242.738437)scale(0.1 -0.1)">
       <use xlink:href="#DejaVuSans-35"/>
       <use x="63.623047" xlink:href="#DejaVuSans-30"/>
      </g>
     </g>
    </g>
    <g id="xtick_4">
     <g id="line2d_4">
      <g>
       <use style="stroke:#000000;stroke-width:0.8;" x="210.022492" xlink:href="#m73d20af840" y="228.14"/>
      </g>
     </g>
     <g id="text_4">
      <!-- 75 -->
      <defs>
       <path d="M 8.203125 72.90625 
L 55.078125 72.90625 
L 55.078125 68.703125 
L 28.609375 0 
L 18.3125 0 
L 43.21875 64.59375 
L 8.203125 64.59375 
z
" id="DejaVuSans-37"/>
      </defs>
      <g transform="translate(203.659992 242.738437)scale(0.1 -0.1)">
       <use xlink:href="#DejaVuSans-37"/>
       <use x="63.623047" xlink:href="#DejaVuSans-35"/>
      </g>
     </g>
    </g>
    <g id="xtick_5">
     <g id="line2d_5">
      <g>
       <use style="stroke:#000000;stroke-width:0.8;" x="265.850406" xlink:href="#m73d20af840" y="228.14"/>
      </g>
     </g>
     <g id="text_5">
      <!-- 100 -->
      <defs>
       <path d="M 12.40625 8.296875 
L 28.515625 8.296875 
L 28.515625 63.921875 
L 10.984375 60.40625 
L 10.984375 69.390625 
L 28.421875 72.90625 
L 38.28125 72.90625 
L 38.28125 8.296875 
L 54.390625 8.296875 
L 54.390625 0 
L 12.40625 0 
z
" id="DejaVuSans-31"/>
      </defs>
      <g transform="translate(256.306656 242.738437)scale(0.1 -0.1)">
       <use xlink:href="#DejaVuSans-31"/>
       <use x="63.623047" xlink:href="#DejaVuSans-30"/>
       <use x="127.246094" xlink:href="#DejaVuSans-30"/>
      </g>
     </g>
    </g>
    <g id="xtick_6">
     <g id="line2d_6">
      <g>
       <use style="stroke:#000000;stroke-width:0.8;" x="321.67832" xlink:href="#m73d20af840" y="228.14"/>
      </g>
     </g>
     <g id="text_6">
      <!-- 125 -->
      <g transform="translate(312.13457 242.738437)scale(0.1 -0.1)">
       <use xlink:href="#DejaVuSans-31"/>
       <use x="63.623047" xlink:href="#DejaVuSans-32"/>
       <use x="127.246094" xlink:href="#DejaVuSans-35"/>
      </g>
     </g>
    </g>
    <g id="xtick_7">
     <g id="line2d_7">
      <g>
       <use style="stroke:#000000;stroke-width:0.8;" x="377.506234" xlink:href="#m73d20af840" y="228.14"/>
      </g>
     </g>
     <g id="text_7">
      <!-- 150 -->
      <g transform="translate(367.962484 242.738437)scale(0.1 -0.1)">
       <use xlink:href="#DejaVuSans-31"/>
       <use x="63.623047" xlink:href="#DejaVuSans-35"/>
       <use x="127.246094" xlink:href="#DejaVuSans-30"/>
      </g>
     </g>
    </g>
    <g id="xtick_8">
     <g id="line2d_8">
      <g>
       <use style="stroke:#000000;stroke-width:0.8;" x="433.334148" xlink:href="#m73d20af840" y="228.14"/>
      </g>
     </g>
     <g id="text_8">
      <!-- 175 -->
      <g transform="translate(423.790398 242.738437)scale(0.1 -0.1)">
       <use xlink:href="#DejaVuSans-31"/>
       <use x="63.623047" xlink:href="#DejaVuSans-37"/>
       <use x="127.246094" xlink:href="#DejaVuSans-35"/>
      </g>
     </g>
    </g>
    <g id="xtick_9">
     <g id="line2d_9">
      <g>
       <use style="stroke:#000000;stroke-width:0.8;" x="489.162062" xlink:href="#m73d20af840" y="228.14"/>
      </g>
     </g>
     <g id="text_9">
      <!-- 200 -->
      <g transform="translate(479.618312 242.738437)scale(0.1 -0.1)">
       <use xlink:href="#DejaVuSans-32"/>
       <use x="63.623047" xlink:href="#DejaVuSans-30"/>
       <use x="127.246094" xlink:href="#DejaVuSans-30"/>
      </g>
     </g>
    </g>
    <g id="text_10">
     <!-- Time [h] -->
     <defs>
      <path d="M -0.296875 72.90625 
L 61.375 72.90625 
L 61.375 64.59375 
L 35.5 64.59375 
L 35.5 0 
L 25.59375 0 
L 25.59375 64.59375 
L -0.296875 64.59375 
z
" id="DejaVuSans-54"/>
      <path d="M 9.421875 54.6875 
L 18.40625 54.6875 
L 18.40625 0 
L 9.421875 0 
z
M 9.421875 75.984375 
L 18.40625 75.984375 
L 18.40625 64.59375 
L 9.421875 64.59375 
z
" id="DejaVuSans-69"/>
      <path d="M 52 44.1875 
Q 55.375 50.25 60.0625 53.125 
Q 64.75 56 71.09375 56 
Q 79.640625 56 84.28125 50.015625 
Q 88.921875 44.046875 88.921875 33.015625 
L 88.921875 0 
L 79.890625 0 
L 79.890625 32.71875 
Q 79.890625 40.578125 77.09375 44.375 
Q 74.3125 48.1875 68.609375 48.1875 
Q 61.625 48.1875 57.5625 43.546875 
Q 53.515625 38.921875 53.515625 30.90625 
L 53.515625 0 
L 44.484375 0 
L 44.484375 32.71875 
Q 44.484375 40.625 41.703125 44.40625 
Q 38.921875 48.1875 33.109375 48.1875 
Q 26.21875 48.1875 22.15625 43.53125 
Q 18.109375 38.875 18.109375 30.90625 
L 18.109375 0 
L 9.078125 0 
L 9.078125 54.6875 
L 18.109375 54.6875 
L 18.109375 46.1875 
Q 21.1875 51.21875 25.484375 53.609375 
Q 29.78125 56 35.6875 56 
Q 41.65625 56 45.828125 52.96875 
Q 50 49.953125 52 44.1875 
z
" id="DejaVuSans-6d"/>
      <path d="M 56.203125 29.59375 
L 56.203125 25.203125 
L 14.890625 25.203125 
Q 15.484375 15.921875 20.484375 11.0625 
Q 25.484375 6.203125 34.421875 6.203125 
Q 39.59375 6.203125 44.453125 7.46875 
Q 49.3125 8.734375 54.109375 11.28125 
L 54.109375 2.78125 
Q 49.265625 0.734375 44.1875 -0.34375 
Q 39.109375 -1.421875 33.890625 -1.421875 
Q 20.796875 -1.421875 13.15625 6.1875 
Q 5.515625 13.8125 5.515625 26.8125 
Q 5.515625 40.234375 12.765625 48.109375 
Q 20.015625 56 32.328125 56 
Q 43.359375 56 49.78125 48.890625 
Q 56.203125 41.796875 56.203125 29.59375 
z
M 47.21875 32.234375 
Q 47.125 39.59375 43.09375 43.984375 
Q 39.0625 48.390625 32.421875 48.390625 
Q 24.90625 48.390625 20.390625 44.140625 
Q 15.875 39.890625 15.1875 32.171875 
z
" id="DejaVuSans-65"/>
      <path id="DejaVuSans-20"/>
      <path d="M 8.59375 75.984375 
L 29.296875 75.984375 
L 29.296875 69 
L 17.578125 69 
L 17.578125 -6.203125 
L 29.296875 -6.203125 
L 29.296875 -13.1875 
L 8.59375 -13.1875 
z
" id="DejaVuSans-5b"/>
      <path d="M 54.890625 33.015625 
L 54.890625 0 
L 45.90625 0 
L 45.90625 32.71875 
Q 45.90625 40.484375 42.875 44.328125 
Q 39.84375 48.1875 33.796875 48.1875 
Q 26.515625 48.1875 22.3125 43.546875 
Q 18.109375 38.921875 18.109375 30.90625 
L 18.109375 0 
L 9.078125 0 
L 9.078125 75.984375 
L 18.109375 75.984375 
L 18.109375 46.1875 
Q 21.34375 51.125 25.703125 53.5625 
Q 30.078125 56 35.796875 56 
Q 45.21875 56 50.046875 50.171875 
Q 54.890625 44.34375 54.890625 33.015625 
z
" id="DejaVuSans-68"/>
      <path d="M 30.421875 75.984375 
L 30.421875 -13.1875 
L 9.71875 -13.1875 
L 9.71875 -6.203125 
L 21.390625 -6.203125 
L 21.390625 69 
L 9.71875 69 
L 9.71875 75.984375 
z
" id="DejaVuSans-5d"/>
     </defs>
     <g transform="translate(240.4825 257.93625)scale(0.12 -0.12)">
      <use xlink:href="#DejaVuSans-54"/>
      <use x="61.037109" xlink:href="#DejaVuSans-69"/>
      <use x="88.820312" xlink:href="#DejaVuSans-6d"/>
      <use x="186.232422" xlink:href="#DejaVuSans-65"/>
      <use x="247.755859" xlink:href="#DejaVuSans-20"/>
      <use x="279.542969" xlink:href="#DejaVuSans-5b"/>
      <use x="318.556641" xlink:href="#DejaVuSans-68"/>
      <use x="381.935547" xlink:href="#DejaVuSans-5d"/>
     </g>
    </g>
   </g>
   <g id="matplotlib.axis_2">
    <g id="ytick_1">
     <g id="line2d_10">
      <defs>
       <path d="M 0 0 
L -3.5 0 
" id="m69f55228ad" style="stroke:#000000;stroke-width:0.8;"/>
      </defs>
      <g>
       <use style="stroke:#000000;stroke-width:0.8;" x="42.53875" xlink:href="#m69f55228ad" y="197.502409"/>
      </g>
     </g>
     <g id="text_11">
      <!-- 30 -->
      <defs>
       <path d="M 40.578125 39.3125 
Q 47.65625 37.796875 51.625 33 
Q 55.609375 28.21875 55.609375 21.1875 
Q 55.609375 10.40625 48.1875 4.484375 
Q 40.765625 -1.421875 27.09375 -1.421875 
Q 22.515625 -1.421875 17.65625 -0.515625 
Q 12.796875 0.390625 7.625 2.203125 
L 7.625 11.71875 
Q 11.71875 9.328125 16.59375 8.109375 
Q 21.484375 6.890625 26.8125 6.890625 
Q 36.078125 6.890625 40.9375 10.546875 
Q 45.796875 14.203125 45.796875 21.1875 
Q 45.796875 27.640625 41.28125 31.265625 
Q 36.765625 34.90625 28.71875 34.90625 
L 20.21875 34.90625 
L 20.21875 43.015625 
L 29.109375 43.015625 
Q 36.375 43.015625 40.234375 45.921875 
Q 44.09375 48.828125 44.09375 54.296875 
Q 44.09375 59.90625 40.109375 62.90625 
Q 36.140625 65.921875 28.71875 65.921875 
Q 24.65625 65.921875 20.015625 65.03125 
Q 15.375 64.15625 9.8125 62.3125 
L 9.8125 71.09375 
Q 15.4375 72.65625 20.34375 73.4375 
Q 25.25 74.21875 29.59375 74.21875 
Q 40.828125 74.21875 47.359375 69.109375 
Q 53.90625 64.015625 53.90625 55.328125 
Q 53.90625 49.265625 50.4375 45.09375 
Q 46.96875 40.921875 40.578125 39.3125 
z
" id="DejaVuSans-33"/>
      </defs>
      <g transform="translate(22.81375 201.301628)scale(0.1 -0.1)">
       <use xlink:href="#DejaVuSans-33"/>
       <use x="63.623047" xlink:href="#DejaVuSans-30"/>
      </g>
     </g>
    </g>
    <g id="ytick_2">
     <g id="line2d_11">
      <g>
       <use style="stroke:#000000;stroke-width:0.8;" x="42.53875" xlink:href="#m69f55228ad" y="153.272716"/>
      </g>
     </g>
     <g id="text_12">
      <!-- 40 -->
      <defs>
       <path d="M 37.796875 64.3125 
L 12.890625 25.390625 
L 37.796875 25.390625 
z
M 35.203125 72.90625 
L 47.609375 72.90625 
L 47.609375 25.390625 
L 58.015625 25.390625 
L 58.015625 17.1875 
L 47.609375 17.1875 
L 47.609375 0 
L 37.796875 0 
L 37.796875 17.1875 
L 4.890625 17.1875 
L 4.890625 26.703125 
z
" id="DejaVuSans-34"/>
      </defs>
      <g transform="translate(22.81375 157.071935)scale(0.1 -0.1)">
       <use xlink:href="#DejaVuSans-34"/>
       <use x="63.623047" xlink:href="#DejaVuSans-30"/>
      </g>
     </g>
    </g>
    <g id="ytick_3">
     <g id="line2d_12">
      <g>
       <use style="stroke:#000000;stroke-width:0.8;" x="42.53875" xlink:href="#m69f55228ad" y="109.043023"/>
      </g>
     </g>
     <g id="text_13">
      <!-- 50 -->
      <g transform="translate(22.81375 112.842242)scale(0.1 -0.1)">
       <use xlink:href="#DejaVuSans-35"/>
       <use x="63.623047" xlink:href="#DejaVuSans-30"/>
      </g>
     </g>
    </g>
    <g id="ytick_4">
     <g id="line2d_13">
      <g>
       <use style="stroke:#000000;stroke-width:0.8;" x="42.53875" xlink:href="#m69f55228ad" y="64.81333"/>
      </g>
     </g>
     <g id="text_14">
      <!-- 60 -->
      <defs>
       <path d="M 33.015625 40.375 
Q 26.375 40.375 22.484375 35.828125 
Q 18.609375 31.296875 18.609375 23.390625 
Q 18.609375 15.53125 22.484375 10.953125 
Q 26.375 6.390625 33.015625 6.390625 
Q 39.65625 6.390625 43.53125 10.953125 
Q 47.40625 15.53125 47.40625 23.390625 
Q 47.40625 31.296875 43.53125 35.828125 
Q 39.65625 40.375 33.015625 40.375 
z
M 52.59375 71.296875 
L 52.59375 62.3125 
Q 48.875 64.0625 45.09375 64.984375 
Q 41.3125 65.921875 37.59375 65.921875 
Q 27.828125 65.921875 22.671875 59.328125 
Q 17.53125 52.734375 16.796875 39.40625 
Q 19.671875 43.65625 24.015625 45.921875 
Q 28.375 48.1875 33.59375 48.1875 
Q 44.578125 48.1875 50.953125 41.515625 
Q 57.328125 34.859375 57.328125 23.390625 
Q 57.328125 12.15625 50.6875 5.359375 
Q 44.046875 -1.421875 33.015625 -1.421875 
Q 20.359375 -1.421875 13.671875 8.265625 
Q 6.984375 17.96875 6.984375 36.375 
Q 6.984375 53.65625 15.1875 63.9375 
Q 23.390625 74.21875 37.203125 74.21875 
Q 40.921875 74.21875 44.703125 73.484375 
Q 48.484375 72.75 52.59375 71.296875 
z
" id="DejaVuSans-36"/>
      </defs>
      <g transform="translate(22.81375 68.612548)scale(0.1 -0.1)">
       <use xlink:href="#DejaVuSans-36"/>
       <use x="63.623047" xlink:href="#DejaVuSans-30"/>
      </g>
     </g>
    </g>
    <g id="ytick_5">
     <g id="line2d_14">
      <g>
       <use style="stroke:#000000;stroke-width:0.8;" x="42.53875" xlink:href="#m69f55228ad" y="20.583636"/>
      </g>
     </g>
     <g id="text_15">
      <!-- 70 -->
      <g transform="translate(22.81375 24.382855)scale(0.1 -0.1)">
       <use xlink:href="#DejaVuSans-37"/>
       <use x="63.623047" xlink:href="#DejaVuSans-30"/>
      </g>
     </g>
    </g>
    <g id="text_16">
     <!-- Mean p53 molecule number -->
     <defs>
      <path d="M 9.8125 72.90625 
L 24.515625 72.90625 
L 43.109375 23.296875 
L 61.8125 72.90625 
L 76.515625 72.90625 
L 76.515625 0 
L 66.890625 0 
L 66.890625 64.015625 
L 48.09375 14.015625 
L 38.1875 14.015625 
L 19.390625 64.015625 
L 19.390625 0 
L 9.8125 0 
z
" id="DejaVuSans-4d"/>
      <path d="M 34.28125 27.484375 
Q 23.390625 27.484375 19.1875 25 
Q 14.984375 22.515625 14.984375 16.5 
Q 14.984375 11.71875 18.140625 8.90625 
Q 21.296875 6.109375 26.703125 6.109375 
Q 34.1875 6.109375 38.703125 11.40625 
Q 43.21875 16.703125 43.21875 25.484375 
L 43.21875 27.484375 
z
M 52.203125 31.203125 
L 52.203125 0 
L 43.21875 0 
L 43.21875 8.296875 
Q 40.140625 3.328125 35.546875 0.953125 
Q 30.953125 -1.421875 24.3125 -1.421875 
Q 15.921875 -1.421875 10.953125 3.296875 
Q 6 8.015625 6 15.921875 
Q 6 25.140625 12.171875 29.828125 
Q 18.359375 34.515625 30.609375 34.515625 
L 43.21875 34.515625 
L 43.21875 35.40625 
Q 43.21875 41.609375 39.140625 45 
Q 35.0625 48.390625 27.6875 48.390625 
Q 23 48.390625 18.546875 47.265625 
Q 14.109375 46.140625 10.015625 43.890625 
L 10.015625 52.203125 
Q 14.9375 54.109375 19.578125 55.046875 
Q 24.21875 56 28.609375 56 
Q 40.484375 56 46.34375 49.84375 
Q 52.203125 43.703125 52.203125 31.203125 
z
" id="DejaVuSans-61"/>
      <path d="M 54.890625 33.015625 
L 54.890625 0 
L 45.90625 0 
L 45.90625 32.71875 
Q 45.90625 40.484375 42.875 44.328125 
Q 39.84375 48.1875 33.796875 48.1875 
Q 26.515625 48.1875 22.3125 43.546875 
Q 18.109375 38.921875 18.109375 30.90625 
L 18.109375 0 
L 9.078125 0 
L 9.078125 54.6875 
L 18.109375 54.6875 
L 18.109375 46.1875 
Q 21.34375 51.125 25.703125 53.5625 
Q 30.078125 56 35.796875 56 
Q 45.21875 56 50.046875 50.171875 
Q 54.890625 44.34375 54.890625 33.015625 
z
" id="DejaVuSans-6e"/>
      <path d="M 18.109375 8.203125 
L 18.109375 -20.796875 
L 9.078125 -20.796875 
L 9.078125 54.6875 
L 18.109375 54.6875 
L 18.109375 46.390625 
Q 20.953125 51.265625 25.265625 53.625 
Q 29.59375 56 35.59375 56 
Q 45.5625 56 51.78125 48.09375 
Q 58.015625 40.1875 58.015625 27.296875 
Q 58.015625 14.40625 51.78125 6.484375 
Q 45.5625 -1.421875 35.59375 -1.421875 
Q 29.59375 -1.421875 25.265625 0.953125 
Q 20.953125 3.328125 18.109375 8.203125 
z
M 48.6875 27.296875 
Q 48.6875 37.203125 44.609375 42.84375 
Q 40.53125 48.484375 33.40625 48.484375 
Q 26.265625 48.484375 22.1875 42.84375 
Q 18.109375 37.203125 18.109375 27.296875 
Q 18.109375 17.390625 22.1875 11.75 
Q 26.265625 6.109375 33.40625 6.109375 
Q 40.53125 6.109375 44.609375 11.75 
Q 48.6875 17.390625 48.6875 27.296875 
z
" id="DejaVuSans-70"/>
      <path d="M 30.609375 48.390625 
Q 23.390625 48.390625 19.1875 42.75 
Q 14.984375 37.109375 14.984375 27.296875 
Q 14.984375 17.484375 19.15625 11.84375 
Q 23.34375 6.203125 30.609375 6.203125 
Q 37.796875 6.203125 41.984375 11.859375 
Q 46.1875 17.53125 46.1875 27.296875 
Q 46.1875 37.015625 41.984375 42.703125 
Q 37.796875 48.390625 30.609375 48.390625 
z
M 30.609375 56 
Q 42.328125 56 49.015625 48.375 
Q 55.71875 40.765625 55.71875 27.296875 
Q 55.71875 13.875 49.015625 6.21875 
Q 42.328125 -1.421875 30.609375 -1.421875 
Q 18.84375 -1.421875 12.171875 6.21875 
Q 5.515625 13.875 5.515625 27.296875 
Q 5.515625 40.765625 12.171875 48.375 
Q 18.84375 56 30.609375 56 
z
" id="DejaVuSans-6f"/>
      <path d="M 9.421875 75.984375 
L 18.40625 75.984375 
L 18.40625 0 
L 9.421875 0 
z
" id="DejaVuSans-6c"/>
      <path d="M 48.78125 52.59375 
L 48.78125 44.1875 
Q 44.96875 46.296875 41.140625 47.34375 
Q 37.3125 48.390625 33.40625 48.390625 
Q 24.65625 48.390625 19.8125 42.84375 
Q 14.984375 37.3125 14.984375 27.296875 
Q 14.984375 17.28125 19.8125 11.734375 
Q 24.65625 6.203125 33.40625 6.203125 
Q 37.3125 6.203125 41.140625 7.25 
Q 44.96875 8.296875 48.78125 10.40625 
L 48.78125 2.09375 
Q 45.015625 0.34375 40.984375 -0.53125 
Q 36.96875 -1.421875 32.421875 -1.421875 
Q 20.0625 -1.421875 12.78125 6.34375 
Q 5.515625 14.109375 5.515625 27.296875 
Q 5.515625 40.671875 12.859375 48.328125 
Q 20.21875 56 33.015625 56 
Q 37.15625 56 41.109375 55.140625 
Q 45.0625 54.296875 48.78125 52.59375 
z
" id="DejaVuSans-63"/>
      <path d="M 8.5 21.578125 
L 8.5 54.6875 
L 17.484375 54.6875 
L 17.484375 21.921875 
Q 17.484375 14.15625 20.5 10.265625 
Q 23.53125 6.390625 29.59375 6.390625 
Q 36.859375 6.390625 41.078125 11.03125 
Q 45.3125 15.671875 45.3125 23.6875 
L 45.3125 54.6875 
L 54.296875 54.6875 
L 54.296875 0 
L 45.3125 0 
L 45.3125 8.40625 
Q 42.046875 3.421875 37.71875 1 
Q 33.40625 -1.421875 27.6875 -1.421875 
Q 18.265625 -1.421875 13.375 4.4375 
Q 8.5 10.296875 8.5 21.578125 
z
M 31.109375 56 
z
" id="DejaVuSans-75"/>
      <path d="M 48.6875 27.296875 
Q 48.6875 37.203125 44.609375 42.84375 
Q 40.53125 48.484375 33.40625 48.484375 
Q 26.265625 48.484375 22.1875 42.84375 
Q 18.109375 37.203125 18.109375 27.296875 
Q 18.109375 17.390625 22.1875 11.75 
Q 26.265625 6.109375 33.40625 6.109375 
Q 40.53125 6.109375 44.609375 11.75 
Q 48.6875 17.390625 48.6875 27.296875 
z
M 18.109375 46.390625 
Q 20.953125 51.265625 25.265625 53.625 
Q 29.59375 56 35.59375 56 
Q 45.5625 56 51.78125 48.09375 
Q 58.015625 40.1875 58.015625 27.296875 
Q 58.015625 14.40625 51.78125 6.484375 
Q 45.5625 -1.421875 35.59375 -1.421875 
Q 29.59375 -1.421875 25.265625 0.953125 
Q 20.953125 3.328125 18.109375 8.203125 
L 18.109375 0 
L 9.078125 0 
L 9.078125 75.984375 
L 18.109375 75.984375 
z
" id="DejaVuSans-62"/>
      <path d="M 41.109375 46.296875 
Q 39.59375 47.171875 37.8125 47.578125 
Q 36.03125 48 33.890625 48 
Q 26.265625 48 22.1875 43.046875 
Q 18.109375 38.09375 18.109375 28.8125 
L 18.109375 0 
L 9.078125 0 
L 9.078125 54.6875 
L 18.109375 54.6875 
L 18.109375 46.1875 
Q 20.953125 51.171875 25.484375 53.578125 
Q 30.03125 56 36.53125 56 
Q 37.453125 56 38.578125 55.875 
Q 39.703125 55.765625 41.0625 55.515625 
z
" id="DejaVuSans-72"/>
     </defs>
     <g transform="translate(16.318125 203.684375)rotate(-90)scale(0.12 -0.12)">
      <use xlink:href="#DejaVuSans-4d"/>
      <use x="86.279297" xlink:href="#DejaVuSans-65"/>
      <use x="147.802734" xlink:href="#DejaVuSans-61"/>
      <use x="209.082031" xlink:href="#DejaVuSans-6e"/>
      <use x="272.460938" xlink:href="#DejaVuSans-20"/>
      <use x="304.248047" xlink:href="#DejaVuSans-70"/>
      <use x="367.724609" xlink:href="#DejaVuSans-35"/>
      <use x="431.347656" xlink:href="#DejaVuSans-33"/>
      <use x="494.970703" xlink:href="#DejaVuSans-20"/>
      <use x="526.757812" xlink:href="#DejaVuSans-6d"/>
      <use x="624.169922" xlink:href="#DejaVuSans-6f"/>
      <use x="685.351562" xlink:href="#DejaVuSans-6c"/>
      <use x="713.134766" xlink:href="#DejaVuSans-65"/>
      <use x="774.658203" xlink:href="#DejaVuSans-63"/>
      <use x="829.638672" xlink:href="#DejaVuSans-75"/>
      <use x="893.017578" xlink:href="#DejaVuSans-6c"/>
      <use x="920.800781" xlink:href="#DejaVuSans-65"/>
      <use x="982.324219" xlink:href="#DejaVuSans-20"/>
      <use x="1014.111328" xlink:href="#DejaVuSans-6e"/>
      <use x="1077.490234" xlink:href="#DejaVuSans-75"/>
      <use x="1140.869141" xlink:href="#DejaVuSans-6d"/>
      <use x="1238.28125" xlink:href="#DejaVuSans-62"/>
      <use x="1301.757812" xlink:href="#DejaVuSans-65"/>
      <use x="1363.28125" xlink:href="#DejaVuSans-72"/>
     </g>
    </g>
   </g>
   <g id="line2d_15">
    <path clip-path="url(#pb99578df1b)" d="M 42.53875 20.583636 
L 42.985373 27.526841 
L 43.208685 28.842165 
L 43.431997 29.231729 
L 43.655308 29.005658 
L 44.548555 26.586407 
L 44.771867 26.454565 
L 44.995178 26.753655 
L 45.21849 27.564654 
L 45.665113 30.952462 
L 46.111736 36.916326 
L 46.781671 50.799401 
L 47.451606 70.088792 
L 48.568165 110.705342 
L 50.354658 178.179918 
L 51.247905 202.86794 
L 51.694528 211.173162 
L 52.141151 216.335094 
L 52.364463 217.673769 
L 52.587775 218.167085 
L 52.811086 217.812882 
L 53.034398 216.616736 
L 53.481021 211.757473 
L 53.927644 203.774384 
L 54.597579 186.598452 
L 55.490826 156.241038 
L 58.170566 58.291891 
L 58.840501 42.864622 
L 59.287124 36.280194 
L 59.733747 32.966578 
L 59.957059 32.580704 
L 60.180371 33.05028 
L 60.403682 34.369871 
L 60.850306 39.507584 
L 61.296929 47.813702 
L 61.966864 65.532802 
L 62.860111 96.623919 
L 65.316539 188.895502 
L 65.986474 205.790539 
L 66.433097 213.302109 
L 66.87972 217.466805 
L 67.103032 218.256364 
L 67.326344 218.185329 
L 67.549655 217.268194 
L 67.996279 212.9774 
L 68.442902 205.598908 
L 69.112837 189.336314 
L 70.006084 159.987794 
L 72.909135 55.64255 
L 73.57907 41.407127 
L 74.025693 35.690884 
L 74.249005 34.056378 
L 74.472317 33.261139 
L 74.695628 33.313207 
L 74.91894 34.212846 
L 75.365563 38.517249 
L 75.812187 46.022779 
L 76.482122 62.663964 
L 77.375368 92.669775 
L 80.055108 191.01592 
L 80.725043 206.057064 
L 81.171666 212.081155 
L 81.61829 214.684556 
L 81.841601 214.714846 
L 82.064913 213.927307 
L 82.511536 210.015784 
L 82.95816 203.194065 
L 83.628095 188.086574 
L 84.521341 160.627665 
L 87.424393 60.788097 
L 88.094328 46.637766 
L 88.540951 40.736794 
L 88.987574 37.935655 
L 89.210886 37.735938 
L 89.434198 38.342433 
L 89.657509 39.750491 
L 90.104133 44.914641 
L 90.550756 53.043974 
L 91.220691 70.12621 
L 92.113938 99.73397 
L 94.347054 178.943471 
L 95.016989 195.306197 
L 95.463612 202.575687 
L 95.910236 206.636605 
L 96.133547 207.457667 
L 96.356859 207.497036 
L 96.580171 206.781252 
L 97.026794 203.213308 
L 97.473417 197.00843 
L 98.143352 183.305073 
L 99.036599 158.424684 
L 102.162962 62.452706 
L 102.832897 51.188341 
L 103.27952 47.019128 
L 103.502832 46.004802 
L 103.726144 45.718641 
L 103.949455 46.164623 
L 104.172767 47.339129 
L 104.61939 51.825516 
L 105.066014 59.016672 
L 105.735949 74.276364 
L 106.629195 100.900703 
L 108.862312 172.323727 
L 109.532247 186.964436 
L 109.97887 193.435582 
L 110.425493 197.033608 
L 110.648805 197.754801 
L 110.872117 197.777326 
L 111.095428 197.12831 
L 111.542052 193.92506 
L 111.988675 188.387212 
L 112.65861 176.235438 
L 113.551857 154.319238 
L 116.67822 70.303821 
L 117.348155 60.467851 
L 117.794778 56.83186 
L 118.01809 55.949743 
L 118.241401 55.704613 
L 118.464713 56.099251 
L 118.688025 57.130091 
L 119.134648 61.057858 
L 119.581271 67.343819 
L 120.251206 80.662898 
L 121.144453 103.85176 
L 123.377569 165.437523 
L 124.047504 177.828066 
L 124.494128 183.248755 
L 124.940751 186.220444 
L 125.164063 186.789262 
L 125.387374 186.76686 
L 125.610686 186.170777 
L 126.057309 183.347505 
L 126.503933 178.512725 
L 127.173868 167.972872 
L 128.067114 149.14631 
L 130.970166 81.925809 
L 131.640101 72.467504 
L 132.086724 68.531872 
L 132.533347 66.671692 
L 132.756659 66.544362 
L 132.979971 66.955428 
L 133.203282 67.901142 
L 133.649906 71.356159 
L 134.096529 76.77985 
L 134.766464 88.139329 
L 135.65971 107.706162 
L 137.669515 154.440527 
L 138.33945 165.660492 
L 138.786074 170.916066 
L 139.232697 174.197774 
L 139.456009 175.083143 
L 139.67932 175.47022 
L 139.902632 175.369558 
L 140.125944 174.795126 
L 140.572567 172.294866 
L 141.01919 168.131231 
L 141.689125 159.192118 
L 142.582372 143.453259 
L 145.262112 92.062656 
L 145.932047 83.635369 
L 146.37867 79.879353 
L 146.825293 77.779495 
L 147.048605 77.376489 
L 147.271917 77.410619 
L 147.495228 77.881163 
L 147.941852 80.108044 
L 148.388475 83.969681 
L 149.05841 92.481884 
L 149.951656 107.673667 
L 152.184773 148.811933 
L 152.854708 157.329968 
L 153.301331 161.219123 
L 153.747955 163.550858 
L 153.971266 164.124032 
L 154.194578 164.305997 
L 154.41789 164.104362 
L 154.641201 163.52961 
L 155.087825 161.31518 
L 155.534448 157.792807 
L 156.204383 150.412886 
L 157.097629 137.687899 
L 159.554058 100.371698 
L 160.223993 93.396394 
L 160.670616 90.165693 
L 161.117239 88.209635 
L 161.340551 87.732253 
L 161.563863 87.594687 
L 161.787174 87.797202 
L 162.010486 88.337303 
L 162.457109 90.402604 
L 162.903732 93.704666 
L 163.573667 100.669435 
L 164.466914 112.677176 
L 166.476719 140.99522 
L 167.146654 147.726165 
L 167.816589 152.06078 
L 168.263212 153.490992 
L 168.486524 153.761757 
L 168.709836 153.740107 
L 168.933147 153.432532 
L 169.379771 151.994466 
L 169.826394 149.536074 
L 170.496329 144.196379 
L 171.389575 134.782157 
L 173.846004 106.696972 
L 174.515939 101.37406 
L 174.962562 98.878253 
L 175.409185 97.328691 
L 175.632497 96.925686 
L 175.855809 96.774899 
L 176.07912 96.876586 
L 176.302432 97.228548 
L 176.749055 98.662441 
L 177.195678 101.010886 
L 177.865613 106.015002 
L 178.75886 114.666093 
L 180.768665 135.01181 
L 181.4386 139.855403 
L 182.108535 143.006673 
L 182.555158 144.077953 
L 182.77847 144.299336 
L 183.001782 144.313305 
L 183.225093 144.12358 
L 183.671716 143.155637 
L 184.11834 141.454886 
L 184.788275 137.711311 
L 185.681521 131.058734 
L 188.13795 111.23909 
L 188.807885 107.543345 
L 189.254508 105.836823 
L 189.701131 104.805208 
L 189.924443 104.55294 
L 190.147755 104.478409 
L 190.371066 104.581028 
L 190.817689 105.306663 
L 191.264313 106.687979 
L 191.934248 109.836299 
L 192.827494 115.51143 
L 195.060611 130.616812 
L 195.730546 133.701113 
L 196.400481 135.635027 
L 196.847104 136.239082 
L 197.070416 136.334187 
L 197.293727 136.293447 
L 197.740351 135.816912 
L 198.186974 134.843672 
L 198.856909 132.561318 
L 199.750156 128.334002 
L 202.429896 114.219223 
L 203.099831 111.95566 
L 203.546454 110.97305 
L 203.993077 110.450746 
L 204.4397 110.400692 
L 204.886324 110.814923 
L 205.332947 111.665785 
L 206.002882 113.654775 
L 206.896129 117.269755 
L 208.905934 125.991514 
L 209.575869 128.086121 
L 210.245804 129.469687 
L 210.692427 129.964923 
L 211.13905 130.117259 
L 211.585673 129.938526 
L 212.032297 129.44974 
L 212.702232 128.19916 
L 213.595478 125.763602 
L 215.381972 119.729406 
L 216.49853 116.472925 
L 217.168465 115.134721 
L 217.615088 114.578375 
L 218.061711 114.31549 
L 218.508335 114.352577 
L 218.954958 114.682388 
L 219.401581 115.283953 
L 220.071516 116.61869 
L 221.188075 119.57474 
L 222.527945 123.162653 
L 223.19788 124.526829 
L 223.867815 125.435109 
L 224.314438 125.762861 
L 224.761061 125.869793 
L 225.207684 125.767652 
L 225.654308 125.475292 
L 226.324243 124.731603 
L 227.217489 123.305951 
L 229.227294 119.375305 
L 230.343853 117.532614 
L 231.013788 116.789973 
L 231.683722 116.41284 
L 232.130346 116.386561 
L 232.576969 116.544303 
L 233.246904 117.108587 
L 233.916839 118.008513 
L 235.033397 119.959523 
L 236.373267 122.234061 
L 237.043202 123.02111 
L 237.713137 123.45063 
L 238.159761 123.52294 
L 238.606384 123.429638 
L 239.276319 123.015321 
L 240.169565 122.079274 
L 243.742552 117.703037 
L 244.635799 117.135117 
L 245.305733 116.962195 
L 245.975668 117.032895 
L 246.645603 117.355555 
L 247.315538 117.915999 
L 248.208785 118.955606 
L 250.441902 121.72869 
L 251.111837 122.180905 
L 251.781772 122.315844 
L 252.451706 122.11683 
L 253.121641 121.617505 
L 254.014888 120.61821 
L 256.471316 117.656484 
L 257.364563 116.985766 
L 258.25781 116.631252 
L 258.927744 116.572581 
L 259.597679 116.686502 
L 260.490926 117.097432 
L 261.384173 117.781802 
L 262.724043 119.175816 
L 264.287224 120.783509 
L 264.957159 121.222546 
L 265.627094 121.402152 
L 266.297029 121.282486 
L 266.966964 120.866545 
L 267.860211 119.939882 
L 270.539951 116.704704 
L 271.433197 116.097864 
L 272.103132 115.873892 
L 272.773067 115.834638 
L 273.666314 116.030545 
L 274.55956 116.462972 
L 275.676119 117.274993 
L 277.462612 118.960601 
L 278.57917 119.929326 
L 279.472417 120.400863 
L 280.142352 120.476791 
L 280.812287 120.275476 
L 281.482222 119.803492 
L 282.375468 118.842563 
L 284.831897 115.923002 
L 285.725143 115.321813 
L 286.395078 115.107876 
L 287.065013 115.081314 
L 287.95826 115.28765 
L 289.074818 115.838119 
L 290.414688 116.807279 
L 293.541051 119.312598 
L 294.210986 119.532789 
L 294.880921 119.512176 
L 295.550856 119.2281 
L 296.220791 118.696775 
L 297.337349 117.427971 
L 299.123843 115.345916 
L 300.017089 114.678479 
L 300.687024 114.409263 
L 301.356959 114.329637 
L 302.250206 114.471244 
L 303.366764 114.943013 
L 304.706634 115.808273 
L 306.716439 117.45761 
L 307.832997 118.267445 
L 308.726244 118.628222 
L 309.396179 118.641672 
L 310.066114 118.401159 
L 310.736049 117.915822 
L 311.629295 116.977076 
L 313.862412 114.455272 
L 314.755658 113.853632 
L 315.425593 113.626919 
L 316.31884 113.598214 
L 317.212087 113.819424 
L 318.328645 114.347658 
L 319.668515 115.250569 
L 322.794878 117.600729 
L 323.464813 117.810554 
L 324.134748 117.791062 
L 324.804683 117.519108 
L 325.474618 117.009558 
L 326.591176 115.792536 
L 328.377669 113.797246 
L 329.270916 113.154341 
L 330.164163 112.841965 
L 331.057409 112.831647 
L 331.950656 113.060081 
L 333.067214 113.593464 
L 334.407084 114.510133 
L 337.533447 116.855938 
L 338.203382 117.041381 
L 338.873317 116.990952 
L 339.543252 116.687327 
L 340.213187 116.151742 
L 341.329745 114.916349 
L 342.892927 113.161302 
L 343.786174 112.468798 
L 344.67942 112.096319 
L 345.572667 112.027512 
L 346.465914 112.208573 
L 347.582472 112.705076 
L 348.922342 113.608588 
L 352.272017 116.156287 
L 352.941952 116.316795 
L 353.611887 116.233465 
L 354.281822 115.894984 
L 355.175068 115.101468 
L 358.301431 111.801521 
L 359.194678 111.36323 
L 360.087925 111.232199 
L 360.981171 111.364912 
L 361.874418 111.711618 
L 362.990976 112.389671 
L 364.330846 113.476586 
L 366.340651 115.151942 
L 367.233898 115.570322 
L 367.903833 115.623361 
L 368.573768 115.416842 
L 369.243702 114.959774 
L 370.136949 114.050776 
L 372.593377 111.334297 
L 373.486624 110.748781 
L 374.379871 110.474984 
L 375.273117 110.490166 
L 376.166364 110.752089 
L 377.282922 111.365058 
L 378.622792 112.427336 
L 381.07922 114.553183 
L 381.749155 114.885203 
L 382.41909 114.989961 
L 383.089025 114.832629 
L 383.75896 114.41637 
L 384.652207 113.538896 
L 387.331947 110.542132 
L 388.225193 109.960722 
L 389.11844 109.693179 
L 390.011686 109.721097 
L 390.904933 110.007069 
L 391.79818 110.511852 
L 392.914738 111.392158 
L 396.041101 114.123491 
L 396.711036 114.364629 
L 397.380971 114.350643 
L 398.050906 114.064664 
L 398.720841 113.530962 
L 399.837399 112.269558 
L 401.623893 110.171881 
L 402.517139 109.436324 
L 403.410386 109.012603 
L 404.080321 108.903863 
L 404.973567 109.018831 
L 405.866814 109.397427 
L 406.983372 110.17975 
L 408.323242 111.442588 
L 410.109735 113.164297 
L 411.002982 113.704273 
L 411.672917 113.837396 
L 412.342852 113.695101 
L 413.012787 113.280615 
L 413.906034 112.38544 
L 417.032397 108.828553 
L 417.925643 108.32094 
L 418.595578 108.158114 
L 419.265513 108.176761 
L 420.15876 108.461511 
L 421.052007 109.006355 
L 422.168565 109.979567 
L 425.294928 113.008395 
L 425.964863 113.288347 
L 426.634798 113.298484 
L 427.304733 113.021276 
L 427.974668 112.480631 
L 428.867915 111.459836 
L 431.324343 108.459111 
L 432.217589 107.778068 
L 432.887524 107.489842 
L 433.557459 107.397517 
L 434.227394 107.49416 
L 435.120641 107.89216 
L 436.013888 108.555498 
L 437.130446 109.667232 
L 439.586874 112.275525 
L 440.256809 112.69959 
L 440.926744 112.867647 
L 441.596679 112.742647 
L 442.266614 112.327305 
L 443.159861 111.402297 
L 446.509535 107.338521 
L 447.402782 106.816786 
L 448.072717 106.666525 
L 448.742652 106.72121 
L 449.412587 106.96896 
L 450.305834 107.56671 
L 451.422392 108.658331 
L 454.548755 112.070217 
L 455.21869 112.39796 
L 455.888625 112.434393 
L 456.55856 112.162403 
L 457.228495 111.60685 
L 458.121741 110.534792 
L 460.801481 107.013034 
L 461.694728 106.297778 
L 462.364663 106.007836 
L 463.034598 105.939971 
L 463.704533 106.089231 
L 464.374468 106.43993 
L 465.267714 107.179053 
L 466.384273 108.433369 
L 468.840701 111.397403 
L 469.510636 111.888331 
L 470.180571 112.096932 
L 470.850506 111.985135 
L 471.520441 111.557071 
L 472.190376 110.859608 
L 473.306934 109.320936 
L 475.093427 106.806161 
L 475.986674 105.889618 
L 476.656609 105.445498 
L 477.326544 105.235302 
L 477.996479 105.264057 
L 478.666414 105.521721 
L 479.55966 106.182812 
L 480.452907 107.139869 
L 482.016089 109.22846 
L 483.355959 110.91001 
L 484.025894 111.48186 
L 484.695829 111.764835 
L 485.142452 111.76929 
L 485.812387 111.494818 
L 486.482322 110.912816 
L 487.375568 109.773976 
L 488.93875 107.375325 
L 488.93875 107.375325 
" style="fill:none;stroke:#1f77b4;stroke-linecap:square;stroke-width:1.5;"/>
   </g>
   <g id="line2d_16">
    <path clip-path="url(#pb99578df1b)" d="M 42.53875 20.583636 
L 42.985373 27.526841 
L 43.208685 28.842165 
L 43.431997 29.231728 
L 43.655308 29.005657 
L 44.548555 26.586394 
L 44.771867 26.454546 
L 44.995178 26.753628 
L 45.21849 27.564615 
L 45.665113 30.952387 
L 46.111736 36.916194 
L 46.781671 50.799108 
L 47.451606 70.088149 
L 48.568165 110.702551 
L 50.354658 178.110316 
L 51.024593 197.354996 
L 51.694528 210.191617 
L 52.141151 214.421427 
L 52.364463 215.174988 
L 52.587775 215.055623 
L 52.811086 214.110288 
L 53.257709 209.925453 
L 53.704333 202.926017 
L 54.374268 187.670801 
L 55.267514 160.044232 
L 58.170566 60.020108 
L 58.840501 45.989518 
L 59.287124 40.200694 
L 59.733747 37.533057 
L 59.957059 37.406629 
L 60.180371 38.090159 
L 60.403682 39.57812 
L 60.850306 44.908353 
L 61.296929 53.207573 
L 61.966864 70.540168 
L 62.860111 100.441762 
L 64.869916 172.262206 
L 65.539851 187.792184 
L 65.986474 193.459175 
L 66.433097 195.743206 
L 66.656409 195.854351 
L 66.87972 195.381436 
L 67.326344 192.87349 
L 67.772967 188.43781 
L 68.442902 178.426834 
L 69.112837 164.831887 
L 70.229395 136.450428 
L 72.2392 84.173837 
L 72.909135 71.672103 
L 73.57907 63.559617 
L 74.025693 60.94114 
L 74.249005 60.514114 
L 74.472317 60.682774 
L 74.695628 61.445866 
L 75.142252 64.722526 
L 75.588875 70.22325 
L 76.25881 82.169328 
L 77.152057 103.271187 
L 78.93855 148.398295 
L 79.608485 160.014225 
L 80.055108 165.062326 
L 80.501731 168.08249 
L 80.948355 169.312777 
L 81.171666 169.318016 
L 81.394978 168.933722 
L 81.841601 167.03723 
L 82.288225 163.718288 
L 82.95816 156.367001 
L 83.851406 143.177089 
L 86.754458 96.398658 
L 87.424393 89.748829 
L 87.871016 86.913414 
L 88.317639 85.475911 
L 88.540951 85.297609 
L 88.764263 85.481404 
L 88.987574 86.024176 
L 89.434198 88.155875 
L 89.880821 91.593646 
L 90.550756 98.832011 
L 91.667314 114.283039 
L 92.783873 129.335276 
L 93.453808 136.216758 
L 94.123742 141.075235 
L 94.570366 143.238549 
L 95.016989 144.571799 
L 95.240301 144.927216 
L 95.463612 145.073175 
L 95.686924 145.008003 
L 95.910236 144.730771 
L 96.356859 143.543544 
L 96.803482 141.539568 
L 97.473417 137.16588 
L 98.366664 129.477989 
L 100.376469 111.471858 
L 101.046404 107.243114 
L 101.716339 104.520886 
L 102.162962 103.623556 
L 102.386274 103.455335 
L 102.609585 103.471712 
L 102.832897 103.668338 
L 103.27952 104.574419 
L 103.726144 106.096068 
L 104.396079 109.27745 
L 106.629195 121.1697 
L 107.29913 123.541131 
L 107.969065 125.295009 
L 108.639 126.567867 
L 109.308935 127.388144 
L 109.755558 127.646412 
L 110.202182 127.630919 
L 110.648805 127.306251 
L 111.095428 126.649478 
L 111.765363 125.044637 
L 112.65861 121.958799 
L 114.445103 115.20302 
L 115.115038 113.485845 
L 115.561661 112.76891 
L 116.008285 112.417126 
L 116.454908 112.420867 
L 116.901531 112.746814 
L 117.571466 113.716171 
L 120.027895 118.077415 
L 120.69783 118.555903 
L 121.367765 118.730848 
L 123.377569 119.02865 
L 124.940751 119.473193 
L 125.610686 119.408372 
L 126.280621 119.047733 
L 126.950556 118.382917 
L 129.406984 115.405578 
L 130.076919 115.147485 
L 130.523542 115.183467 
L 131.193477 115.507597 
L 132.310036 116.450413 
L 133.203282 117.136675 
L 133.873217 117.401548 
L 134.543152 117.40039 
L 135.436399 117.085649 
L 136.776269 116.533157 
L 137.669515 116.45653 
L 138.562762 116.645853 
L 140.125944 117.084965 
L 140.795879 117.081079 
L 141.689125 116.805265 
L 144.145553 115.701453 
L 144.815488 115.707171 
L 145.708735 115.973903 
L 147.71854 116.772897 
L 148.611787 116.79261 
L 149.505033 116.553187 
L 151.514838 115.889989 
L 152.408085 115.872218 
L 153.747955 116.143196 
L 155.087825 116.360838 
L 155.981071 116.298422 
L 159.330746 115.775737 
L 160.670616 116.07528 
L 162.233798 116.405489 
L 163.350356 116.362092 
L 165.136849 115.941176 
L 166.476719 115.75333 
L 167.816589 115.838174 
L 170.049705 116.025484 
L 171.836199 115.838897 
L 173.39938 115.753451 
L 174.962562 115.950471 
L 176.972367 116.207546 
L 178.312237 116.119737 
L 181.4386 115.746103 
L 189.254508 115.891835 
L 191.710936 116.105977 
L 193.497429 115.983695 
L 196.400481 115.750225 
L 202.876519 115.79856 
L 206.896129 116.050041 
L 209.79918 115.824561 
L 212.702232 115.716423 
L 216.945153 115.76336 
L 221.634698 116.035047 
L 224.761061 115.814645 
L 228.110736 115.668121 
L 231.013788 115.722203 
L 236.596579 116.029714 
L 239.722942 115.797244 
L 243.072617 115.633054 
L 245.752357 115.722702 
L 250.888525 116.052997 
L 253.344953 115.899899 
L 257.364563 115.612163 
L 259.820991 115.666733 
L 266.073717 116.057095 
L 268.753457 115.830441 
L 271.879821 115.590111 
L 274.112937 115.624839 
L 277.2393 115.952392 
L 279.695728 116.09586 
L 281.928845 115.998697 
L 287.511636 115.552135 
L 289.744753 115.697296 
L 294.210986 116.119143 
L 296.220791 116.051614 
L 302.920141 115.547745 
L 305.153257 115.785487 
L 308.27962 116.12622 
L 310.289425 116.120557 
L 312.522542 115.867397 
L 315.648905 115.516598 
L 317.65871 115.523875 
L 319.891827 115.79309 
L 322.794878 116.146507 
L 324.804683 116.15908 
L 326.814488 115.93074 
L 330.164163 115.494144 
L 332.173968 115.483531 
L 334.183773 115.72723 
L 337.533447 116.182848 
L 339.319941 116.201008 
L 341.106434 116.002759 
L 345.126044 115.442068 
L 346.912537 115.453567 
L 348.69903 115.690815 
L 352.048705 116.205797 
L 353.835198 116.246315 
L 355.621691 116.046086 
L 359.864613 115.399218 
L 361.651106 115.421703 
L 363.437599 115.692185 
L 366.563963 116.228645 
L 368.350456 116.294928 
L 369.913637 116.13332 
L 375.049806 115.334044 
L 376.612987 115.413558 
L 378.39948 115.744896 
L 381.07922 116.250394 
L 382.865713 116.347126 
L 384.428895 116.189697 
L 390.011686 115.2812 
L 391.574868 115.416954 
L 393.807985 115.917232 
L 396.041101 116.329167 
L 397.604283 116.397224 
L 398.944153 116.252792 
L 401.177269 115.727043 
L 403.187074 115.328607 
L 404.750256 115.22608 
L 406.090126 115.349254 
L 407.876619 115.768453 
L 410.333047 116.325438 
L 411.896229 116.46118 
L 413.236099 116.361291 
L 414.79928 116.006246 
L 417.702332 115.30255 
L 419.265513 115.164174 
L 420.605383 115.274756 
L 422.168565 115.652832 
L 425.071616 116.387276 
L 426.634798 116.524923 
L 427.974668 116.401102 
L 429.53785 116.001673 
L 432.217589 115.277933 
L 433.780771 115.099045 
L 435.120641 115.193444 
L 436.683823 115.588072 
L 439.586874 116.414298 
L 441.150056 116.594176 
L 442.266614 116.522836 
L 443.606484 116.209237 
L 447.402782 115.126488 
L 448.742652 115.023383 
L 449.85921 115.143622 
L 451.19908 115.514358 
L 454.325443 116.487313 
L 455.665313 116.667302 
L 456.781872 116.615568 
L 458.121741 116.294732 
L 462.141351 115.043768 
L 463.481221 114.943441 
L 464.59778 115.091074 
L 465.937649 115.511513 
L 468.840701 116.516015 
L 470.180571 116.742643 
L 471.297129 116.716107 
L 472.413687 116.465073 
L 474.423492 115.699229 
L 476.209986 115.100087 
L 477.549856 114.865923 
L 478.666414 114.89973 
L 479.782972 115.170347 
L 481.792777 115.980946 
L 483.57927 116.603533 
L 484.91914 116.8408 
L 486.035698 116.79413 
L 487.152257 116.501191 
L 488.93875 115.752601 
L 488.93875 115.752601 
" style="fill:none;stroke:#ff7f0e;stroke-linecap:square;stroke-width:1.5;"/>
   </g>
   <g id="line2d_17">
    <path clip-path="url(#pb99578df1b)" d="M 42.53875 20.583636 
L 42.985373 27.526841 
L 43.208685 28.842165 
L 43.431997 29.231729 
L 43.655308 29.005658 
L 44.548555 26.586402 
L 44.771867 26.454558 
L 44.995178 26.753645 
L 45.21849 27.564639 
L 45.665113 30.952435 
L 46.111736 36.91628 
L 46.781671 50.799299 
L 47.451606 70.088575 
L 48.568165 110.704444 
L 50.354658 178.161783 
L 51.024593 197.569599 
L 51.694528 210.976594 
L 52.141151 215.96265 
L 52.364463 217.189787 
L 52.587775 217.562509 
L 52.811086 217.086003 
L 53.034398 215.774043 
L 53.481021 210.729063 
L 53.927644 202.646098 
L 54.597579 185.479527 
L 55.490826 155.338239 
L 58.170566 58.62159 
L 58.840501 43.507914 
L 59.287124 37.10531 
L 59.733747 33.937007 
L 59.957059 33.608631 
L 60.180371 34.124996 
L 60.403682 35.482238 
L 60.850306 40.664927 
L 61.296929 48.973194 
L 61.966864 66.613979 
L 62.860111 97.450858 
L 65.316539 187.898013 
L 65.986474 203.31894 
L 66.433097 209.334272 
L 66.656409 210.981892 
L 66.87972 211.747439 
L 67.103032 211.677019 
L 67.326344 210.828031 
L 67.772967 206.984463 
L 68.21959 200.503646 
L 68.889525 186.340267 
L 69.782772 160.587455 
L 72.909135 60.023326 
L 73.57907 48.031876 
L 74.025693 43.519179 
L 74.249005 42.381227 
L 74.472317 42.00608 
L 74.695628 42.397769 
L 74.91894 43.553412 
L 75.365563 48.109361 
L 75.812187 55.511647 
L 76.482122 71.338693 
L 77.375368 99.118933 
L 79.608485 173.817688 
L 80.27842 188.408476 
L 80.725043 194.266118 
L 81.171666 196.940532 
L 81.394978 197.173182 
L 81.61829 196.736584 
L 81.841601 195.678814 
L 82.288225 191.85392 
L 82.734848 185.952838 
L 83.404783 173.67255 
L 84.29803 152.149298 
L 87.201081 75.537895 
L 87.871016 64.779699 
L 88.317639 60.324308 
L 88.764263 58.248381 
L 88.987574 58.130991 
L 89.210886 58.630949 
L 89.434198 59.744064 
L 89.880821 63.765821 
L 90.327444 70.04608 
L 90.997379 83.164684 
L 91.890626 105.726076 
L 93.900431 158.825845 
L 94.570366 170.691639 
L 95.016989 175.756807 
L 95.463612 178.468331 
L 95.686924 178.980009 
L 95.910236 178.962763 
L 96.133547 178.443861 
L 96.580171 176.00613 
L 97.026794 171.865793 
L 97.696729 162.889359 
L 98.589976 146.912826 
L 101.493027 89.531867 
L 102.162962 81.235527 
L 102.609585 77.679024 
L 103.056209 75.860869 
L 103.27952 75.626489 
L 103.502832 75.845729 
L 103.726144 76.516066 
L 104.172767 79.178408 
L 104.61939 83.507442 
L 105.289325 92.7303 
L 106.182572 108.731242 
L 108.192377 146.047123 
L 108.862312 154.395858 
L 109.308935 158.107194 
L 109.755558 160.279646 
L 109.97887 160.798765 
L 110.202182 160.951136 
L 110.425493 160.747539 
L 110.648805 160.200646 
L 111.095428 158.1333 
L 111.542052 154.874792 
L 112.211987 148.07852 
L 113.105233 136.435072 
L 115.561661 102.805518 
L 116.231596 96.606652 
L 116.67822 93.755896 
L 117.124843 92.046014 
L 117.348155 91.637435 
L 117.571466 91.530758 
L 117.794778 91.725438 
L 118.01809 92.218042 
L 118.464713 94.067419 
L 118.911336 96.990474 
L 119.581271 103.081681 
L 120.69783 116.11365 
L 122.037699 131.773848 
L 122.707634 137.824723 
L 123.377569 142.07762 
L 123.824193 143.814022 
L 124.270816 144.66412 
L 124.494128 144.764556 
L 124.717439 144.653549 
L 124.940751 144.335979 
L 125.387374 143.103838 
L 125.833998 141.125779 
L 126.503933 136.951624 
L 127.397179 129.75855 
L 129.630296 111.001531 
L 130.300231 107.139009 
L 130.746854 105.351661 
L 131.193477 104.259997 
L 131.416789 103.983837 
L 131.640101 103.888445 
L 131.863412 103.972198 
L 132.310036 104.660989 
L 132.756659 105.999077 
L 133.426594 109.040006 
L 134.319841 114.403437 
L 136.106334 125.40725 
L 136.776269 128.42954 
L 137.446204 130.552166 
L 137.892827 131.451344 
L 138.33945 131.940293 
L 138.786074 132.024337 
L 139.232697 131.712058 
L 139.67932 131.016735 
L 140.349255 129.305411 
L 141.01919 126.907828 
L 142.135748 121.955573 
L 143.475618 116.055747 
L 144.145553 113.801274 
L 144.815488 112.304526 
L 145.262112 111.785976 
L 145.708735 111.661968 
L 146.155358 111.918818 
L 146.601982 112.523125 
L 147.271917 113.964489 
L 148.388475 117.184941 
L 149.505033 120.343996 
L 150.39828 122.192175 
L 151.068215 123.074797 
L 151.73815 123.565297 
L 152.408085 123.728576 
L 153.07802 123.613114 
L 153.747955 123.238126 
L 154.41789 122.604753 
L 155.311136 121.367719 
L 156.427694 119.336394 
L 157.990876 116.492255 
L 158.660811 115.67644 
L 159.107434 115.357698 
L 159.554058 115.237869 
L 160.000681 115.316568 
L 160.447304 115.579582 
L 161.117239 116.255788 
L 163.796979 119.45681 
L 164.466914 119.735181 
L 165.136849 119.751225 
L 166.030096 119.512522 
L 168.709836 118.645956 
L 170.049705 118.143059 
L 171.166264 117.466222 
L 172.729445 116.451977 
L 173.39938 116.222307 
L 174.069315 116.216611 
L 174.73925 116.440682 
L 175.632497 117.007645 
L 177.195678 118.065234 
L 177.865613 118.27309 
L 178.535548 118.253687 
L 179.428795 117.921231 
L 181.661912 116.818058 
L 182.555158 116.682906 
L 185.904833 116.515579 
L 187.914638 115.992091 
L 188.807885 116.054612 
L 189.701131 116.362157 
L 191.710936 117.207274 
L 192.380871 117.260474 
L 193.050806 117.131708 
L 193.944053 116.729206 
L 195.730546 115.808454 
L 196.623793 115.612998 
L 197.740351 115.663478 
L 199.750156 115.859246 
L 201.090026 115.666203 
L 202.653207 115.457579 
L 203.546454 115.560932 
L 204.886324 116.00252 
L 206.226194 116.398388 
L 207.11944 116.404973 
L 208.012687 116.156661 
L 211.13905 114.959593 
L 212.255608 114.983751 
L 214.488725 115.176561 
L 216.275218 114.986661 
L 217.391777 114.955409 
L 218.508335 115.150736 
L 221.188075 115.804777 
L 222.081321 115.715069 
L 223.19788 115.339938 
L 225.207684 114.594433 
L 226.324243 114.47443 
L 228.334048 114.614094 
L 229.897229 114.59074 
L 231.907034 114.542367 
L 233.246904 114.792537 
L 235.480021 115.324953 
L 236.373267 115.316459 
L 237.489826 115.056414 
L 240.392877 114.167629 
L 241.732747 114.12552 
L 245.082422 114.167777 
L 246.645603 114.250777 
L 248.208785 114.596732 
L 249.995278 114.984371 
L 251.111837 114.975178 
L 252.228395 114.726537 
L 255.131446 113.903316 
L 256.471316 113.827136 
L 260.714238 113.943581 
L 262.277419 114.245914 
L 264.733848 114.763679 
L 265.850406 114.734304 
L 267.190276 114.425285 
L 269.870016 113.696801 
L 271.433197 113.585695 
L 274.55956 113.658291 
L 276.122742 113.907189 
L 279.472417 114.613955 
L 280.588975 114.569178 
L 281.928845 114.264244 
L 284.608585 113.533829 
L 286.171767 113.384063 
L 288.404883 113.408501 
L 289.968065 113.611974 
L 292.201181 114.179312 
L 293.764363 114.486974 
L 294.880921 114.509614 
L 295.997479 114.33423 
L 298.230596 113.668367 
L 299.793778 113.324735 
L 301.580271 113.191359 
L 303.366764 113.279161 
L 304.929946 113.579641 
L 308.502932 114.442849 
L 309.61949 114.451487 
L 310.95936 114.208254 
L 315.202282 113.107462 
L 316.765463 113.042534 
L 318.328645 113.199434 
L 319.891827 113.597384 
L 322.571566 114.34458 
L 323.911436 114.454439 
L 325.027995 114.330761 
L 326.367865 113.955788 
L 329.047604 113.129371 
L 330.610786 112.921636 
L 331.950656 112.938621 
L 333.290526 113.167035 
L 335.077019 113.733403 
L 337.086824 114.323112 
L 338.426694 114.467806 
L 339.543252 114.36819 
L 340.883122 113.998429 
L 344.009485 112.977232 
L 345.349355 112.795692 
L 346.689225 112.828834 
L 348.029095 113.108022 
L 350.0389 113.828642 
L 351.825393 114.365348 
L 352.941952 114.500919 
L 354.05851 114.426222 
L 355.175068 114.139198 
L 359.41799 112.743858 
L 360.75786 112.66625 
L 361.874418 112.809069 
L 363.214288 113.223144 
L 366.563963 114.426482 
L 367.680521 114.558799 
L 368.797079 114.464104 
L 369.913637 114.143089 
L 374.156559 112.62511 
L 375.273117 112.544027 
L 376.389675 112.676247 
L 377.506234 113.022292 
L 381.525844 114.548356 
L 382.642402 114.630586 
L 383.75896 114.460787 
L 384.875518 114.059596 
L 388.225193 112.648031 
L 389.341752 112.444396 
L 390.45831 112.461662 
L 391.574868 112.726616 
L 392.914738 113.306991 
L 395.371166 114.414535 
L 396.487724 114.679162 
L 397.604283 114.699001 
L 398.720841 114.441715 
L 400.060711 113.840441 
L 402.517139 112.671115 
L 403.633697 112.371583 
L 404.750256 112.303189 
L 405.643502 112.444713 
L 406.760061 112.858407 
L 410.77967 114.710326 
L 411.896229 114.828045 
L 412.789475 114.708611 
L 413.906034 114.297995 
L 415.915839 113.186429 
L 417.47902 112.469319 
L 418.595578 112.198551 
L 419.488825 112.175144 
L 420.382072 112.349074 
L 421.49863 112.82524 
L 425.294928 114.778678 
L 426.188175 114.940185 
L 427.081421 114.901183 
L 427.974668 114.646211 
L 429.091226 114.075838 
L 431.994278 112.41931 
L 433.110836 112.083469 
L 434.004083 112.021895 
L 434.897329 112.177718 
L 435.790576 112.547176 
L 437.130446 113.367553 
L 439.140251 114.5749 
L 440.256809 114.979063 
L 441.150056 115.087465 
L 442.043302 114.965707 
L 442.936549 114.611883 
L 444.276419 113.776237 
L 446.286224 112.489199 
L 447.402782 112.026953 
L 448.296029 111.867065 
L 449.189275 111.937496 
L 450.082522 112.252031 
L 451.19908 112.923577 
L 453.87882 114.713523 
L 454.995378 115.139803 
L 455.888625 115.239701 
L 456.781872 115.083528 
L 457.675118 114.675054 
L 459.014988 113.744914 
L 461.024793 112.344993 
L 462.141351 111.851455 
L 463.034598 111.693685 
L 463.927845 111.79506 
L 464.821091 112.164872 
L 465.937649 112.9211 
L 468.394078 114.743447 
L 469.510636 115.256811 
L 470.403883 115.411229 
L 471.297129 115.28675 
L 472.190376 114.879584 
L 473.306934 114.074633 
L 475.763362 112.183592 
L 476.879921 111.6585 
L 477.773167 111.506251 
L 478.443102 111.581295 
L 479.336349 111.94284 
L 480.452907 112.73656 
L 483.355959 115.046997 
L 484.249205 115.45435 
L 485.142452 115.600201 
L 485.812387 115.507351 
L 486.705633 115.108754 
L 487.822192 114.262091 
L 488.93875 113.252011 
L 488.93875 113.252011 
" style="fill:none;stroke:#2ca02c;stroke-linecap:square;stroke-width:1.5;"/>
   </g>
   <g id="patch_3">
    <path d="M 42.53875 228.14 
L 42.53875 10.7 
" style="fill:none;stroke:#000000;stroke-linecap:square;stroke-linejoin:miter;stroke-width:0.8;"/>
   </g>
   <g id="patch_4">
    <path d="M 488.93875 228.14 
L 488.93875 10.7 
" style="fill:none;stroke:#000000;stroke-linecap:square;stroke-linejoin:miter;stroke-width:0.8;"/>
   </g>
   <g id="patch_5">
    <path d="M 42.53875 228.14 
L 488.93875 228.14 
" style="fill:none;stroke:#000000;stroke-linecap:square;stroke-linejoin:miter;stroke-width:0.8;"/>
   </g>
   <g id="patch_6">
    <path d="M 42.53875 10.7 
L 488.93875 10.7 
" style="fill:none;stroke:#000000;stroke-linecap:square;stroke-linejoin:miter;stroke-width:0.8;"/>
   </g>
   <g id="legend_1">
    <g id="patch_7">
     <path d="M 377.26 73.14125 
L 480.53875 73.14125 
Q 482.93875 73.14125 482.93875 70.74125 
L 482.93875 19.1 
Q 482.93875 16.7 480.53875 16.7 
L 377.26 16.7 
Q 374.86 16.7 374.86 19.1 
L 374.86 70.74125 
Q 374.86 73.14125 377.26 73.14125 
z
" style="fill:#ffffff;opacity:0.8;stroke:#cccccc;stroke-linejoin:miter;"/>
    </g>
    <g id="line2d_18">
     <path d="M 379.66 26.418125 
L 403.66 26.418125 
" style="fill:none;stroke:#1f77b4;stroke-linecap:square;stroke-width:1.5;"/>
    </g>
    <g id="line2d_19"/>
    <g id="text_17">
     <!-- normal -->
     <g transform="translate(413.26 30.618125)scale(0.12 -0.12)">
      <use xlink:href="#DejaVuSans-6e"/>
      <use x="63.378906" xlink:href="#DejaVuSans-6f"/>
      <use x="124.560547" xlink:href="#DejaVuSans-72"/>
      <use x="165.658203" xlink:href="#DejaVuSans-6d"/>
      <use x="263.070312" xlink:href="#DejaVuSans-61"/>
      <use x="324.349609" xlink:href="#DejaVuSans-6c"/>
     </g>
    </g>
    <g id="line2d_20">
     <path d="M 379.66 44.031875 
L 403.66 44.031875 
" style="fill:none;stroke:#ff7f0e;stroke-linecap:square;stroke-width:1.5;"/>
    </g>
    <g id="line2d_21"/>
    <g id="text_18">
     <!-- log-normal -->
     <defs>
      <path d="M 45.40625 27.984375 
Q 45.40625 37.75 41.375 43.109375 
Q 37.359375 48.484375 30.078125 48.484375 
Q 22.859375 48.484375 18.828125 43.109375 
Q 14.796875 37.75 14.796875 27.984375 
Q 14.796875 18.265625 18.828125 12.890625 
Q 22.859375 7.515625 30.078125 7.515625 
Q 37.359375 7.515625 41.375 12.890625 
Q 45.40625 18.265625 45.40625 27.984375 
z
M 54.390625 6.78125 
Q 54.390625 -7.171875 48.1875 -13.984375 
Q 42 -20.796875 29.203125 -20.796875 
Q 24.46875 -20.796875 20.265625 -20.09375 
Q 16.0625 -19.390625 12.109375 -17.921875 
L 12.109375 -9.1875 
Q 16.0625 -11.328125 19.921875 -12.34375 
Q 23.78125 -13.375 27.78125 -13.375 
Q 36.625 -13.375 41.015625 -8.765625 
Q 45.40625 -4.15625 45.40625 5.171875 
L 45.40625 9.625 
Q 42.625 4.78125 38.28125 2.390625 
Q 33.9375 0 27.875 0 
Q 17.828125 0 11.671875 7.65625 
Q 5.515625 15.328125 5.515625 27.984375 
Q 5.515625 40.671875 11.671875 48.328125 
Q 17.828125 56 27.875 56 
Q 33.9375 56 38.28125 53.609375 
Q 42.625 51.21875 45.40625 46.390625 
L 45.40625 54.6875 
L 54.390625 54.6875 
z
" id="DejaVuSans-67"/>
      <path d="M 4.890625 31.390625 
L 31.203125 31.390625 
L 31.203125 23.390625 
L 4.890625 23.390625 
z
" id="DejaVuSans-2d"/>
     </defs>
     <g transform="translate(413.26 48.231875)scale(0.12 -0.12)">
      <use xlink:href="#DejaVuSans-6c"/>
      <use x="27.783203" xlink:href="#DejaVuSans-6f"/>
      <use x="88.964844" xlink:href="#DejaVuSans-67"/>
      <use x="152.441406" xlink:href="#DejaVuSans-2d"/>
      <use x="188.525391" xlink:href="#DejaVuSans-6e"/>
      <use x="251.904297" xlink:href="#DejaVuSans-6f"/>
      <use x="313.085938" xlink:href="#DejaVuSans-72"/>
      <use x="354.183594" xlink:href="#DejaVuSans-6d"/>
      <use x="451.595703" xlink:href="#DejaVuSans-61"/>
      <use x="512.875" xlink:href="#DejaVuSans-6c"/>
     </g>
    </g>
    <g id="line2d_22">
     <path d="M 379.66 61.645625 
L 403.66 61.645625 
" style="fill:none;stroke:#2ca02c;stroke-linecap:square;stroke-width:1.5;"/>
    </g>
    <g id="line2d_23"/>
    <g id="text_19">
     <!-- gamma -->
     <g transform="translate(413.26 65.845625)scale(0.12 -0.12)">
      <use xlink:href="#DejaVuSans-67"/>
      <use x="63.476562" xlink:href="#DejaVuSans-61"/>
      <use x="124.755859" xlink:href="#DejaVuSans-6d"/>
      <use x="222.167969" xlink:href="#DejaVuSans-6d"/>
      <use x="319.580078" xlink:href="#DejaVuSans-61"/>
     </g>
    </g>
   </g>
  </g>
 </g>
 <defs>
  <clipPath id="pb99578df1b">
   <rect height="217.44" width="446.4" x="42.53875" y="10.7"/>
  </clipPath>
 </defs>
</svg>
