<?xml version="1.0" encoding="utf-8"?>
<svg xmlns="http://www.w3.org/2000/svg" xmlns:xlink="http://www.w3.org/1999/xlink" width="600" height="400" viewBox="0 0 2400 1600">
<defs>
  <clipPath id="clip160">
    <rect x="0" y="0" width="2400" height="1600"/>
  </clipPath>
</defs>
<path clip-path="url(#clip160)" d="
M0 1600 L2400 1600 L2400 0 L0 0  Z
  " fill="#ffffff" fill-rule="evenodd" fill-opacity="1"/>
<defs>
  <clipPath id="clip161">
    <rect x="480" y="0" width="1681" height="1600"/>
  </clipPath>
</defs>
<path clip-path="url(#clip160)" d="
M287.366 1423.18 L2352.76 1423.18 L2352.76 47.2441 L287.366 47.2441  Z
  " fill="#ffffff" fill-rule="evenodd" fill-opacity="1"/>
<defs>
  <clipPath id="clip162">
    <rect x="287" y="47" width="2066" height="1377"/>
  </clipPath>
</defs>
<polyline clip-path="url(#clip160)" style="stroke:#000000; stroke-linecap:butt; stroke-linejoin:round; stroke-width:4; stroke-opacity:1; fill:none" points="
  287.366,1423.18 2352.76,1423.18 
  "/>
<polyline clip-path="url(#clip160)" style="stroke:#000000; stroke-linecap:butt; stroke-linejoin:round; stroke-width:4; stroke-opacity:1; fill:none" points="
  345.82,1423.18 345.82,1404.28 
  "/>
<polyline clip-path="url(#clip160)" style="stroke:#000000; stroke-linecap:butt; stroke-linejoin:round; stroke-width:4; stroke-opacity:1; fill:none" points="
  832.941,1423.18 832.941,1404.28 
  "/>
<polyline clip-path="url(#clip160)" style="stroke:#000000; stroke-linecap:butt; stroke-linejoin:round; stroke-width:4; stroke-opacity:1; fill:none" points="
  1320.06,1423.18 1320.06,1404.28 
  "/>
<polyline clip-path="url(#clip160)" style="stroke:#000000; stroke-linecap:butt; stroke-linejoin:round; stroke-width:4; stroke-opacity:1; fill:none" points="
  1807.18,1423.18 1807.18,1404.28 
  "/>
<polyline clip-path="url(#clip160)" style="stroke:#000000; stroke-linecap:butt; stroke-linejoin:round; stroke-width:4; stroke-opacity:1; fill:none" points="
  2294.3,1423.18 2294.3,1404.28 
  "/>
<path clip-path="url(#clip160)" d="M293.043 1454.1 Q289.432 1454.1 287.603 1457.66 Q285.798 1461.2 285.798 1468.33 Q285.798 1475.44 287.603 1479.01 Q289.432 1482.55 293.043 1482.55 Q296.677 1482.55 298.483 1479.01 Q300.311 1475.44 300.311 1468.33 Q300.311 1461.2 298.483 1457.66 Q296.677 1454.1 293.043 1454.1 M293.043 1450.39 Q298.853 1450.39 301.909 1455 Q304.987 1459.58 304.987 1468.33 Q304.987 1477.06 301.909 1481.67 Q298.853 1486.25 293.043 1486.25 Q287.233 1486.25 284.154 1481.67 Q281.098 1477.06 281.098 1468.33 Q281.098 1459.58 284.154 1455 Q287.233 1450.39 293.043 1450.39 Z" fill="#000000" fill-rule="evenodd" fill-opacity="1" /><path clip-path="url(#clip160)" d="M313.205 1479.7 L318.089 1479.7 L318.089 1485.58 L313.205 1485.58 L313.205 1479.7 Z" fill="#000000" fill-rule="evenodd" fill-opacity="1" /><path clip-path="url(#clip160)" d="M338.274 1454.1 Q334.663 1454.1 332.834 1457.66 Q331.029 1461.2 331.029 1468.33 Q331.029 1475.44 332.834 1479.01 Q334.663 1482.55 338.274 1482.55 Q341.908 1482.55 343.714 1479.01 Q345.543 1475.44 345.543 1468.33 Q345.543 1461.2 343.714 1457.66 Q341.908 1454.1 338.274 1454.1 M338.274 1450.39 Q344.084 1450.39 347.14 1455 Q350.218 1459.58 350.218 1468.33 Q350.218 1477.06 347.14 1481.67 Q344.084 1486.25 338.274 1486.25 Q332.464 1486.25 329.385 1481.67 Q326.33 1477.06 326.33 1468.33 Q326.33 1459.58 329.385 1455 Q332.464 1450.39 338.274 1450.39 Z" fill="#000000" fill-rule="evenodd" fill-opacity="1" /><path clip-path="url(#clip160)" d="M368.436 1454.1 Q364.825 1454.1 362.996 1457.66 Q361.191 1461.2 361.191 1468.33 Q361.191 1475.44 362.996 1479.01 Q364.825 1482.55 368.436 1482.55 Q372.07 1482.55 373.876 1479.01 Q375.704 1475.44 375.704 1468.33 Q375.704 1461.2 373.876 1457.66 Q372.07 1454.1 368.436 1454.1 M368.436 1450.39 Q374.246 1450.39 377.302 1455 Q380.38 1459.58 380.38 1468.33 Q380.38 1477.06 377.302 1481.67 Q374.246 1486.25 368.436 1486.25 Q362.626 1486.25 359.547 1481.67 Q356.492 1477.06 356.492 1468.33 Q356.492 1459.58 359.547 1455 Q362.626 1450.39 368.436 1450.39 Z" fill="#000000" fill-rule="evenodd" fill-opacity="1" /><path clip-path="url(#clip160)" d="M398.598 1454.1 Q394.987 1454.1 393.158 1457.66 Q391.353 1461.2 391.353 1468.33 Q391.353 1475.44 393.158 1479.01 Q394.987 1482.55 398.598 1482.55 Q402.232 1482.55 404.038 1479.01 Q405.866 1475.44 405.866 1468.33 Q405.866 1461.2 404.038 1457.66 Q402.232 1454.1 398.598 1454.1 M398.598 1450.39 Q404.408 1450.39 407.464 1455 Q410.542 1459.58 410.542 1468.33 Q410.542 1477.06 407.464 1481.67 Q404.408 1486.25 398.598 1486.25 Q392.788 1486.25 389.709 1481.67 Q386.653 1477.06 386.653 1468.33 Q386.653 1459.58 389.709 1455 Q392.788 1450.39 398.598 1450.39 Z" fill="#000000" fill-rule="evenodd" fill-opacity="1" /><path clip-path="url(#clip160)" d="M780.661 1454.1 Q777.05 1454.1 775.221 1457.66 Q773.415 1461.2 773.415 1468.33 Q773.415 1475.44 775.221 1479.01 Q777.05 1482.55 780.661 1482.55 Q784.295 1482.55 786.101 1479.01 Q787.929 1475.44 787.929 1468.33 Q787.929 1461.2 786.101 1457.66 Q784.295 1454.1 780.661 1454.1 M780.661 1450.39 Q786.471 1450.39 789.527 1455 Q792.605 1459.58 792.605 1468.33 Q792.605 1477.06 789.527 1481.67 Q786.471 1486.25 780.661 1486.25 Q774.851 1486.25 771.772 1481.67 Q768.716 1477.06 768.716 1468.33 Q768.716 1459.58 771.772 1455 Q774.851 1450.39 780.661 1450.39 Z" fill="#000000" fill-rule="evenodd" fill-opacity="1" /><path clip-path="url(#clip160)" d="M800.823 1479.7 L805.707 1479.7 L805.707 1485.58 L800.823 1485.58 L800.823 1479.7 Z" fill="#000000" fill-rule="evenodd" fill-opacity="1" /><path clip-path="url(#clip160)" d="M825.892 1454.1 Q822.281 1454.1 820.452 1457.66 Q818.647 1461.2 818.647 1468.33 Q818.647 1475.44 820.452 1479.01 Q822.281 1482.55 825.892 1482.55 Q829.526 1482.55 831.332 1479.01 Q833.161 1475.44 833.161 1468.33 Q833.161 1461.2 831.332 1457.66 Q829.526 1454.1 825.892 1454.1 M825.892 1450.39 Q831.702 1450.39 834.758 1455 Q837.836 1459.58 837.836 1468.33 Q837.836 1477.06 834.758 1481.67 Q831.702 1486.25 825.892 1486.25 Q820.082 1486.25 817.003 1481.67 Q813.948 1477.06 813.948 1468.33 Q813.948 1459.58 817.003 1455 Q820.082 1450.39 825.892 1450.39 Z" fill="#000000" fill-rule="evenodd" fill-opacity="1" /><path clip-path="url(#clip160)" d="M850.082 1481.64 L866.401 1481.64 L866.401 1485.58 L844.457 1485.58 L844.457 1481.64 Q847.119 1478.89 851.702 1474.26 Q856.309 1469.61 857.489 1468.27 Q859.734 1465.74 860.614 1464.01 Q861.517 1462.25 861.517 1460.56 Q861.517 1457.8 859.572 1456.07 Q857.651 1454.33 854.549 1454.33 Q852.35 1454.33 849.897 1455.09 Q847.466 1455.86 844.688 1457.41 L844.688 1452.69 Q847.512 1451.55 849.966 1450.97 Q852.42 1450.39 854.457 1450.39 Q859.827 1450.39 863.021 1453.08 Q866.216 1455.77 866.216 1460.26 Q866.216 1462.39 865.406 1464.31 Q864.619 1466.2 862.512 1468.8 Q861.934 1469.47 858.832 1472.69 Q855.73 1475.88 850.082 1481.64 Z" fill="#000000" fill-rule="evenodd" fill-opacity="1" /><path clip-path="url(#clip160)" d="M876.262 1451.02 L894.619 1451.02 L894.619 1454.96 L880.545 1454.96 L880.545 1463.43 Q881.563 1463.08 882.582 1462.92 Q883.6 1462.73 884.619 1462.73 Q890.406 1462.73 893.785 1465.9 Q897.165 1469.08 897.165 1474.49 Q897.165 1480.07 893.693 1483.17 Q890.22 1486.25 883.901 1486.25 Q881.725 1486.25 879.457 1485.88 Q877.211 1485.51 874.804 1484.77 L874.804 1480.07 Q876.887 1481.2 879.109 1481.76 Q881.332 1482.32 883.808 1482.32 Q887.813 1482.32 890.151 1480.21 Q892.489 1478.1 892.489 1474.49 Q892.489 1470.88 890.151 1468.77 Q887.813 1466.67 883.808 1466.67 Q881.933 1466.67 880.058 1467.08 Q878.207 1467.5 876.262 1468.38 L876.262 1451.02 Z" fill="#000000" fill-rule="evenodd" fill-opacity="1" /><path clip-path="url(#clip160)" d="M1267.28 1454.1 Q1263.67 1454.1 1261.84 1457.66 Q1260.04 1461.2 1260.04 1468.33 Q1260.04 1475.44 1261.84 1479.01 Q1263.67 1482.55 1267.28 1482.55 Q1270.92 1482.55 1272.72 1479.01 Q1274.55 1475.44 1274.55 1468.33 Q1274.55 1461.2 1272.72 1457.66 Q1270.92 1454.1 1267.28 1454.1 M1267.28 1450.39 Q1273.09 1450.39 1276.15 1455 Q1279.23 1459.58 1279.23 1468.33 Q1279.23 1477.06 1276.15 1481.67 Q1273.09 1486.25 1267.28 1486.25 Q1261.47 1486.25 1258.39 1481.67 Q1255.34 1477.06 1255.34 1468.33 Q1255.34 1459.58 1258.39 1455 Q1261.47 1450.39 1267.28 1450.39 Z" fill="#000000" fill-rule="evenodd" fill-opacity="1" /><path clip-path="url(#clip160)" d="M1287.45 1479.7 L1292.33 1479.7 L1292.33 1485.58 L1287.45 1485.58 L1287.45 1479.7 Z" fill="#000000" fill-rule="evenodd" fill-opacity="1" /><path clip-path="url(#clip160)" d="M1312.51 1454.1 Q1308.9 1454.1 1307.07 1457.66 Q1305.27 1461.2 1305.27 1468.33 Q1305.27 1475.44 1307.07 1479.01 Q1308.9 1482.55 1312.51 1482.55 Q1316.15 1482.55 1317.95 1479.01 Q1319.78 1475.44 1319.78 1468.33 Q1319.78 1461.2 1317.95 1457.66 Q1316.15 1454.1 1312.51 1454.1 M1312.51 1450.39 Q1318.32 1450.39 1321.38 1455 Q1324.46 1459.58 1324.46 1468.33 Q1324.46 1477.06 1321.38 1481.67 Q1318.32 1486.25 1312.51 1486.25 Q1306.7 1486.25 1303.63 1481.67 Q1300.57 1477.06 1300.57 1468.33 Q1300.57 1459.58 1303.63 1455 Q1306.7 1450.39 1312.51 1450.39 Z" fill="#000000" fill-rule="evenodd" fill-opacity="1" /><path clip-path="url(#clip160)" d="M1332.72 1451.02 L1351.08 1451.02 L1351.08 1454.96 L1337.01 1454.96 L1337.01 1463.43 Q1338.02 1463.08 1339.04 1462.92 Q1340.06 1462.73 1341.08 1462.73 Q1346.87 1462.73 1350.25 1465.9 Q1353.63 1469.08 1353.63 1474.49 Q1353.63 1480.07 1350.15 1483.17 Q1346.68 1486.25 1340.36 1486.25 Q1338.19 1486.25 1335.92 1485.88 Q1333.67 1485.51 1331.26 1484.77 L1331.26 1480.07 Q1333.35 1481.2 1335.57 1481.76 Q1337.79 1482.32 1340.27 1482.32 Q1344.27 1482.32 1346.61 1480.21 Q1348.95 1478.1 1348.95 1474.49 Q1348.95 1470.88 1346.61 1468.77 Q1344.27 1466.67 1340.27 1466.67 Q1338.39 1466.67 1336.52 1467.08 Q1334.67 1467.5 1332.72 1468.38 L1332.72 1451.02 Z" fill="#000000" fill-rule="evenodd" fill-opacity="1" /><path clip-path="url(#clip160)" d="M1372.84 1454.1 Q1369.23 1454.1 1367.4 1457.66 Q1365.59 1461.2 1365.59 1468.33 Q1365.59 1475.44 1367.4 1479.01 Q1369.23 1482.55 1372.84 1482.55 Q1376.47 1482.55 1378.28 1479.01 Q1380.11 1475.44 1380.11 1468.33 Q1380.11 1461.2 1378.28 1457.66 Q1376.47 1454.1 1372.84 1454.1 M1372.84 1450.39 Q1378.65 1450.39 1381.7 1455 Q1384.78 1459.58 1384.78 1468.33 Q1384.78 1477.06 1381.7 1481.67 Q1378.65 1486.25 1372.84 1486.25 Q1367.03 1486.25 1363.95 1481.67 Q1360.89 1477.06 1360.89 1468.33 Q1360.89 1459.58 1363.95 1455 Q1367.03 1450.39 1372.84 1450.39 Z" fill="#000000" fill-rule="evenodd" fill-opacity="1" /><path clip-path="url(#clip160)" d="M1754.9 1454.1 Q1751.29 1454.1 1749.46 1457.66 Q1747.66 1461.2 1747.66 1468.33 Q1747.66 1475.44 1749.46 1479.01 Q1751.29 1482.55 1754.9 1482.55 Q1758.54 1482.55 1760.34 1479.01 Q1762.17 1475.44 1762.17 1468.33 Q1762.17 1461.2 1760.34 1457.66 Q1758.54 1454.1 1754.9 1454.1 M1754.9 1450.39 Q1760.71 1450.39 1763.77 1455 Q1766.85 1459.58 1766.85 1468.33 Q1766.85 1477.06 1763.77 1481.67 Q1760.71 1486.25 1754.9 1486.25 Q1749.09 1486.25 1746.01 1481.67 Q1742.96 1477.06 1742.96 1468.33 Q1742.96 1459.58 1746.01 1455 Q1749.09 1450.39 1754.9 1450.39 Z" fill="#000000" fill-rule="evenodd" fill-opacity="1" /><path clip-path="url(#clip160)" d="M1775.06 1479.7 L1779.95 1479.7 L1779.95 1485.58 L1775.06 1485.58 L1775.06 1479.7 Z" fill="#000000" fill-rule="evenodd" fill-opacity="1" /><path clip-path="url(#clip160)" d="M1800.13 1454.1 Q1796.52 1454.1 1794.69 1457.66 Q1792.89 1461.2 1792.89 1468.33 Q1792.89 1475.44 1794.69 1479.01 Q1796.52 1482.55 1800.13 1482.55 Q1803.77 1482.55 1805.57 1479.01 Q1807.4 1475.44 1807.4 1468.33 Q1807.4 1461.2 1805.57 1457.66 Q1803.77 1454.1 1800.13 1454.1 M1800.13 1450.39 Q1805.94 1450.39 1809 1455 Q1812.08 1459.58 1812.08 1468.33 Q1812.08 1477.06 1809 1481.67 Q1805.94 1486.25 1800.13 1486.25 Q1794.32 1486.25 1791.24 1481.67 Q1788.19 1477.06 1788.19 1468.33 Q1788.19 1459.58 1791.24 1455 Q1794.32 1450.39 1800.13 1450.39 Z" fill="#000000" fill-rule="evenodd" fill-opacity="1" /><path clip-path="url(#clip160)" d="M1819.11 1451.02 L1841.34 1451.02 L1841.34 1453.01 L1828.79 1485.58 L1823.91 1485.58 L1835.71 1454.96 L1819.11 1454.96 L1819.11 1451.02 Z" fill="#000000" fill-rule="evenodd" fill-opacity="1" /><path clip-path="url(#clip160)" d="M1850.5 1451.02 L1868.86 1451.02 L1868.86 1454.96 L1854.79 1454.96 L1854.79 1463.43 Q1855.8 1463.08 1856.82 1462.92 Q1857.84 1462.73 1858.86 1462.73 Q1864.65 1462.73 1868.03 1465.9 Q1871.41 1469.08 1871.41 1474.49 Q1871.41 1480.07 1867.93 1483.17 Q1864.46 1486.25 1858.14 1486.25 Q1855.97 1486.25 1853.7 1485.88 Q1851.45 1485.51 1849.04 1484.77 L1849.04 1480.07 Q1851.13 1481.2 1853.35 1481.76 Q1855.57 1482.32 1858.05 1482.32 Q1862.05 1482.32 1864.39 1480.21 Q1866.73 1478.1 1866.73 1474.49 Q1866.73 1470.88 1864.39 1468.77 Q1862.05 1466.67 1858.05 1466.67 Q1856.17 1466.67 1854.3 1467.08 Q1852.45 1467.5 1850.5 1468.38 L1850.5 1451.02 Z" fill="#000000" fill-rule="evenodd" fill-opacity="1" /><path clip-path="url(#clip160)" d="M2241.52 1454.1 Q2237.91 1454.1 2236.08 1457.66 Q2234.28 1461.2 2234.28 1468.33 Q2234.28 1475.44 2236.08 1479.01 Q2237.91 1482.55 2241.52 1482.55 Q2245.16 1482.55 2246.96 1479.01 Q2248.79 1475.44 2248.79 1468.33 Q2248.79 1461.2 2246.96 1457.66 Q2245.16 1454.1 2241.52 1454.1 M2241.52 1450.39 Q2247.33 1450.39 2250.39 1455 Q2253.47 1459.58 2253.47 1468.33 Q2253.47 1477.06 2250.39 1481.67 Q2247.33 1486.25 2241.52 1486.25 Q2235.71 1486.25 2232.64 1481.67 Q2229.58 1477.06 2229.58 1468.33 Q2229.58 1459.58 2232.64 1455 Q2235.71 1450.39 2241.52 1450.39 Z" fill="#000000" fill-rule="evenodd" fill-opacity="1" /><path clip-path="url(#clip160)" d="M2261.69 1479.7 L2266.57 1479.7 L2266.57 1485.58 L2261.69 1485.58 L2261.69 1479.7 Z" fill="#000000" fill-rule="evenodd" fill-opacity="1" /><path clip-path="url(#clip160)" d="M2277.57 1481.64 L2285.2 1481.64 L2285.2 1455.28 L2276.89 1456.95 L2276.89 1452.69 L2285.16 1451.02 L2289.83 1451.02 L2289.83 1481.64 L2297.47 1481.64 L2297.47 1485.58 L2277.57 1485.58 L2277.57 1481.64 Z" fill="#000000" fill-rule="evenodd" fill-opacity="1" /><path clip-path="url(#clip160)" d="M2316.92 1454.1 Q2313.31 1454.1 2311.48 1457.66 Q2309.67 1461.2 2309.67 1468.33 Q2309.67 1475.44 2311.48 1479.01 Q2313.31 1482.55 2316.92 1482.55 Q2320.55 1482.55 2322.36 1479.01 Q2324.19 1475.44 2324.19 1468.33 Q2324.19 1461.2 2322.36 1457.66 Q2320.55 1454.1 2316.92 1454.1 M2316.92 1450.39 Q2322.73 1450.39 2325.78 1455 Q2328.86 1459.58 2328.86 1468.33 Q2328.86 1477.06 2325.78 1481.67 Q2322.73 1486.25 2316.92 1486.25 Q2311.11 1486.25 2308.03 1481.67 Q2304.97 1477.06 2304.97 1468.33 Q2304.97 1459.58 2308.03 1455 Q2311.11 1450.39 2316.92 1450.39 Z" fill="#000000" fill-rule="evenodd" fill-opacity="1" /><path clip-path="url(#clip160)" d="M2347.08 1454.1 Q2343.47 1454.1 2341.64 1457.66 Q2339.83 1461.2 2339.83 1468.33 Q2339.83 1475.44 2341.64 1479.01 Q2343.47 1482.55 2347.08 1482.55 Q2350.71 1482.55 2352.52 1479.01 Q2354.35 1475.44 2354.35 1468.33 Q2354.35 1461.2 2352.52 1457.66 Q2350.71 1454.1 2347.08 1454.1 M2347.08 1450.39 Q2352.89 1450.39 2355.94 1455 Q2359.02 1459.58 2359.02 1468.33 Q2359.02 1477.06 2355.94 1481.67 Q2352.89 1486.25 2347.08 1486.25 Q2341.27 1486.25 2338.19 1481.67 Q2335.13 1477.06 2335.13 1468.33 Q2335.13 1459.58 2338.19 1455 Q2341.27 1450.39 2347.08 1450.39 Z" fill="#000000" fill-rule="evenodd" fill-opacity="1" /><path clip-path="url(#clip160)" d="M1259.22 1522.27 L1259.22 1532.4 L1271.28 1532.4 L1271.28 1536.95 L1259.22 1536.95 L1259.22 1556.3 Q1259.22 1560.66 1260.4 1561.9 Q1261.61 1563.14 1265.27 1563.14 L1271.28 1563.14 L1271.28 1568.04 L1265.27 1568.04 Q1258.49 1568.04 1255.91 1565.53 Q1253.33 1562.98 1253.33 1556.3 L1253.33 1536.95 L1249.04 1536.95 L1249.04 1532.4 L1253.33 1532.4 L1253.33 1522.27 L1259.22 1522.27 Z" fill="#000000" fill-rule="evenodd" fill-opacity="1" /><path clip-path="url(#clip160)" d="M1278.99 1532.4 L1284.84 1532.4 L1284.84 1568.04 L1278.99 1568.04 L1278.99 1532.4 M1278.99 1518.52 L1284.84 1518.52 L1284.84 1525.93 L1278.99 1525.93 L1278.99 1518.52 Z" fill="#000000" fill-rule="evenodd" fill-opacity="1" /><path clip-path="url(#clip160)" d="M1324.85 1539.24 Q1327.05 1535.29 1330.1 1533.41 Q1333.16 1531.54 1337.3 1531.54 Q1342.87 1531.54 1345.89 1535.45 Q1348.91 1539.33 1348.91 1546.53 L1348.91 1568.04 L1343.03 1568.04 L1343.03 1546.72 Q1343.03 1541.59 1341.21 1539.11 Q1339.4 1536.63 1335.67 1536.63 Q1331.12 1536.63 1328.48 1539.65 Q1325.84 1542.68 1325.84 1547.9 L1325.84 1568.04 L1319.95 1568.04 L1319.95 1546.72 Q1319.95 1541.56 1318.14 1539.11 Q1316.32 1536.63 1312.53 1536.63 Q1308.05 1536.63 1305.4 1539.68 Q1302.76 1542.71 1302.76 1547.9 L1302.76 1568.04 L1296.87 1568.04 L1296.87 1532.4 L1302.76 1532.4 L1302.76 1537.93 Q1304.77 1534.66 1307.57 1533.1 Q1310.37 1531.54 1314.22 1531.54 Q1318.1 1531.54 1320.81 1533.51 Q1323.55 1535.48 1324.85 1539.24 Z" fill="#000000" fill-rule="evenodd" fill-opacity="1" /><path clip-path="url(#clip160)" d="M1391.09 1548.76 L1391.09 1551.62 L1364.16 1551.62 Q1364.54 1557.67 1367.79 1560.85 Q1371.07 1564 1376.89 1564 Q1380.26 1564 1383.42 1563.17 Q1386.6 1562.35 1389.72 1560.69 L1389.72 1566.23 Q1386.57 1567.57 1383.26 1568.27 Q1379.95 1568.97 1376.54 1568.97 Q1368.01 1568.97 1363.01 1564 Q1358.05 1559.04 1358.05 1550.57 Q1358.05 1541.82 1362.76 1536.69 Q1367.5 1531.54 1375.52 1531.54 Q1382.72 1531.54 1386.88 1536.18 Q1391.09 1540.8 1391.09 1548.76 M1385.23 1547.04 Q1385.17 1542.23 1382.52 1539.37 Q1379.91 1536.5 1375.59 1536.5 Q1370.68 1536.5 1367.72 1539.27 Q1364.8 1542.04 1364.35 1547.07 L1385.23 1547.04 Z" fill="#000000" fill-rule="evenodd" fill-opacity="1" /><polyline clip-path="url(#clip160)" style="stroke:#000000; stroke-linecap:butt; stroke-linejoin:round; stroke-width:4; stroke-opacity:1; fill:none" points="
  287.366,1423.18 287.366,47.2441 
  "/>
<polyline clip-path="url(#clip160)" style="stroke:#000000; stroke-linecap:butt; stroke-linejoin:round; stroke-width:4; stroke-opacity:1; fill:none" points="
  287.366,1381.29 306.264,1381.29 
  "/>
<polyline clip-path="url(#clip160)" style="stroke:#000000; stroke-linecap:butt; stroke-linejoin:round; stroke-width:4; stroke-opacity:1; fill:none" points="
  287.366,1058.32 306.264,1058.32 
  "/>
<polyline clip-path="url(#clip160)" style="stroke:#000000; stroke-linecap:butt; stroke-linejoin:round; stroke-width:4; stroke-opacity:1; fill:none" points="
  287.366,735.349 306.264,735.349 
  "/>
<polyline clip-path="url(#clip160)" style="stroke:#000000; stroke-linecap:butt; stroke-linejoin:round; stroke-width:4; stroke-opacity:1; fill:none" points="
  287.366,412.382 306.264,412.382 
  "/>
<polyline clip-path="url(#clip160)" style="stroke:#000000; stroke-linecap:butt; stroke-linejoin:round; stroke-width:4; stroke-opacity:1; fill:none" points="
  287.366,89.4137 306.264,89.4137 
  "/>
<path clip-path="url(#clip160)" d="M114.26 1381.74 L143.936 1381.74 L143.936 1385.67 L114.26 1385.67 L114.26 1381.74 Z" fill="#000000" fill-rule="evenodd" fill-opacity="1" /><path clip-path="url(#clip160)" d="M164.028 1367.08 Q160.417 1367.08 158.589 1370.65 Q156.783 1374.19 156.783 1381.32 Q156.783 1388.43 158.589 1391.99 Q160.417 1395.53 164.028 1395.53 Q167.663 1395.53 169.468 1391.99 Q171.297 1388.43 171.297 1381.32 Q171.297 1374.19 169.468 1370.65 Q167.663 1367.08 164.028 1367.08 M164.028 1363.38 Q169.839 1363.38 172.894 1367.99 Q175.973 1372.57 175.973 1381.32 Q175.973 1390.05 172.894 1394.65 Q169.839 1399.24 164.028 1399.24 Q158.218 1399.24 155.14 1394.65 Q152.084 1390.05 152.084 1381.32 Q152.084 1372.57 155.14 1367.99 Q158.218 1363.38 164.028 1363.38 Z" fill="#000000" fill-rule="evenodd" fill-opacity="1" /><path clip-path="url(#clip160)" d="M184.19 1392.69 L189.075 1392.69 L189.075 1398.57 L184.19 1398.57 L184.19 1392.69 Z" fill="#000000" fill-rule="evenodd" fill-opacity="1" /><path clip-path="url(#clip160)" d="M200.07 1394.63 L207.709 1394.63 L207.709 1368.26 L199.399 1369.93 L199.399 1365.67 L207.662 1364.01 L212.338 1364.01 L212.338 1394.63 L219.977 1394.63 L219.977 1398.57 L200.07 1398.57 L200.07 1394.63 Z" fill="#000000" fill-rule="evenodd" fill-opacity="1" /><path clip-path="url(#clip160)" d="M239.422 1367.08 Q235.81 1367.08 233.982 1370.65 Q232.176 1374.19 232.176 1381.32 Q232.176 1388.43 233.982 1391.99 Q235.81 1395.53 239.422 1395.53 Q243.056 1395.53 244.861 1391.99 Q246.69 1388.43 246.69 1381.32 Q246.69 1374.19 244.861 1370.65 Q243.056 1367.08 239.422 1367.08 M239.422 1363.38 Q245.232 1363.38 248.287 1367.99 Q251.366 1372.57 251.366 1381.32 Q251.366 1390.05 248.287 1394.65 Q245.232 1399.24 239.422 1399.24 Q233.611 1399.24 230.533 1394.65 Q227.477 1390.05 227.477 1381.32 Q227.477 1372.57 230.533 1367.99 Q233.611 1363.38 239.422 1363.38 Z" fill="#000000" fill-rule="evenodd" fill-opacity="1" /><path clip-path="url(#clip160)" d="M115.256 1058.77 L144.931 1058.77 L144.931 1062.7 L115.256 1062.7 L115.256 1058.77 Z" fill="#000000" fill-rule="evenodd" fill-opacity="1" /><path clip-path="url(#clip160)" d="M165.024 1044.12 Q161.413 1044.12 159.584 1047.68 Q157.778 1051.22 157.778 1058.35 Q157.778 1065.46 159.584 1069.02 Q161.413 1072.56 165.024 1072.56 Q168.658 1072.56 170.464 1069.02 Q172.292 1065.46 172.292 1058.35 Q172.292 1051.22 170.464 1047.68 Q168.658 1044.12 165.024 1044.12 M165.024 1040.41 Q170.834 1040.41 173.889 1045.02 Q176.968 1049.6 176.968 1058.35 Q176.968 1067.08 173.889 1071.69 Q170.834 1076.27 165.024 1076.27 Q159.214 1076.27 156.135 1071.69 Q153.079 1067.08 153.079 1058.35 Q153.079 1049.6 156.135 1045.02 Q159.214 1040.41 165.024 1040.41 Z" fill="#000000" fill-rule="evenodd" fill-opacity="1" /><path clip-path="url(#clip160)" d="M185.186 1069.72 L190.07 1069.72 L190.07 1075.6 L185.186 1075.6 L185.186 1069.72 Z" fill="#000000" fill-rule="evenodd" fill-opacity="1" /><path clip-path="url(#clip160)" d="M210.255 1044.12 Q206.644 1044.12 204.815 1047.68 Q203.01 1051.22 203.01 1058.35 Q203.01 1065.46 204.815 1069.02 Q206.644 1072.56 210.255 1072.56 Q213.889 1072.56 215.695 1069.02 Q217.523 1065.46 217.523 1058.35 Q217.523 1051.22 215.695 1047.68 Q213.889 1044.12 210.255 1044.12 M210.255 1040.41 Q216.065 1040.41 219.121 1045.02 Q222.199 1049.6 222.199 1058.35 Q222.199 1067.08 219.121 1071.69 Q216.065 1076.27 210.255 1076.27 Q204.445 1076.27 201.366 1071.69 Q198.311 1067.08 198.311 1058.35 Q198.311 1049.6 201.366 1045.02 Q204.445 1040.41 210.255 1040.41 Z" fill="#000000" fill-rule="evenodd" fill-opacity="1" /><path clip-path="url(#clip160)" d="M230.463 1041.04 L248.82 1041.04 L248.82 1044.97 L234.746 1044.97 L234.746 1053.44 Q235.764 1053.1 236.783 1052.94 Q237.801 1052.75 238.82 1052.75 Q244.607 1052.75 247.986 1055.92 Q251.366 1059.09 251.366 1064.51 Q251.366 1070.09 247.894 1073.19 Q244.421 1076.27 238.102 1076.27 Q235.926 1076.27 233.658 1075.9 Q231.412 1075.53 229.005 1074.79 L229.005 1070.09 Q231.088 1071.22 233.31 1071.78 Q235.533 1072.33 238.009 1072.33 Q242.014 1072.33 244.352 1070.23 Q246.69 1068.12 246.69 1064.51 Q246.69 1060.9 244.352 1058.79 Q242.014 1056.69 238.009 1056.69 Q236.135 1056.69 234.26 1057.1 Q232.408 1057.52 230.463 1058.4 L230.463 1041.04 Z" fill="#000000" fill-rule="evenodd" fill-opacity="1" /><path clip-path="url(#clip160)" d="M164.028 721.148 Q160.417 721.148 158.589 724.713 Q156.783 728.255 156.783 735.384 Q156.783 742.491 158.589 746.055 Q160.417 749.597 164.028 749.597 Q167.663 749.597 169.468 746.055 Q171.297 742.491 171.297 735.384 Q171.297 728.255 169.468 724.713 Q167.663 721.148 164.028 721.148 M164.028 717.444 Q169.839 717.444 172.894 722.051 Q175.973 726.634 175.973 735.384 Q175.973 744.111 172.894 748.717 Q169.839 753.301 164.028 753.301 Q158.218 753.301 155.14 748.717 Q152.084 744.111 152.084 735.384 Q152.084 726.634 155.14 722.051 Q158.218 717.444 164.028 717.444 Z" fill="#000000" fill-rule="evenodd" fill-opacity="1" /><path clip-path="url(#clip160)" d="M184.19 746.75 L189.075 746.75 L189.075 752.629 L184.19 752.629 L184.19 746.75 Z" fill="#000000" fill-rule="evenodd" fill-opacity="1" /><path clip-path="url(#clip160)" d="M209.26 721.148 Q205.649 721.148 203.82 724.713 Q202.014 728.255 202.014 735.384 Q202.014 742.491 203.82 746.055 Q205.649 749.597 209.26 749.597 Q212.894 749.597 214.699 746.055 Q216.528 742.491 216.528 735.384 Q216.528 728.255 214.699 724.713 Q212.894 721.148 209.26 721.148 M209.26 717.444 Q215.07 717.444 218.125 722.051 Q221.204 726.634 221.204 735.384 Q221.204 744.111 218.125 748.717 Q215.07 753.301 209.26 753.301 Q203.449 753.301 200.371 748.717 Q197.315 744.111 197.315 735.384 Q197.315 726.634 200.371 722.051 Q203.449 717.444 209.26 717.444 Z" fill="#000000" fill-rule="evenodd" fill-opacity="1" /><path clip-path="url(#clip160)" d="M239.422 721.148 Q235.81 721.148 233.982 724.713 Q232.176 728.255 232.176 735.384 Q232.176 742.491 233.982 746.055 Q235.81 749.597 239.422 749.597 Q243.056 749.597 244.861 746.055 Q246.69 742.491 246.69 735.384 Q246.69 728.255 244.861 724.713 Q243.056 721.148 239.422 721.148 M239.422 717.444 Q245.232 717.444 248.287 722.051 Q251.366 726.634 251.366 735.384 Q251.366 744.111 248.287 748.717 Q245.232 753.301 239.422 753.301 Q233.611 753.301 230.533 748.717 Q227.477 744.111 227.477 735.384 Q227.477 726.634 230.533 722.051 Q233.611 717.444 239.422 717.444 Z" fill="#000000" fill-rule="evenodd" fill-opacity="1" /><path clip-path="url(#clip160)" d="M165.024 398.18 Q161.413 398.18 159.584 401.745 Q157.778 405.287 157.778 412.416 Q157.778 419.523 159.584 423.088 Q161.413 426.629 165.024 426.629 Q168.658 426.629 170.464 423.088 Q172.292 419.523 172.292 412.416 Q172.292 405.287 170.464 401.745 Q168.658 398.18 165.024 398.18 M165.024 394.477 Q170.834 394.477 173.889 399.083 Q176.968 403.666 176.968 412.416 Q176.968 421.143 173.889 425.75 Q170.834 430.333 165.024 430.333 Q159.214 430.333 156.135 425.75 Q153.079 421.143 153.079 412.416 Q153.079 403.666 156.135 399.083 Q159.214 394.477 165.024 394.477 Z" fill="#000000" fill-rule="evenodd" fill-opacity="1" /><path clip-path="url(#clip160)" d="M185.186 423.782 L190.07 423.782 L190.07 429.662 L185.186 429.662 L185.186 423.782 Z" fill="#000000" fill-rule="evenodd" fill-opacity="1" /><path clip-path="url(#clip160)" d="M210.255 398.18 Q206.644 398.18 204.815 401.745 Q203.01 405.287 203.01 412.416 Q203.01 419.523 204.815 423.088 Q206.644 426.629 210.255 426.629 Q213.889 426.629 215.695 423.088 Q217.523 419.523 217.523 412.416 Q217.523 405.287 215.695 401.745 Q213.889 398.18 210.255 398.18 M210.255 394.477 Q216.065 394.477 219.121 399.083 Q222.199 403.666 222.199 412.416 Q222.199 421.143 219.121 425.75 Q216.065 430.333 210.255 430.333 Q204.445 430.333 201.366 425.75 Q198.311 421.143 198.311 412.416 Q198.311 403.666 201.366 399.083 Q204.445 394.477 210.255 394.477 Z" fill="#000000" fill-rule="evenodd" fill-opacity="1" /><path clip-path="url(#clip160)" d="M230.463 395.102 L248.82 395.102 L248.82 399.037 L234.746 399.037 L234.746 407.509 Q235.764 407.162 236.783 407 Q237.801 406.814 238.82 406.814 Q244.607 406.814 247.986 409.986 Q251.366 413.157 251.366 418.574 Q251.366 424.152 247.894 427.254 Q244.421 430.333 238.102 430.333 Q235.926 430.333 233.658 429.962 Q231.412 429.592 229.005 428.851 L229.005 424.152 Q231.088 425.287 233.31 425.842 Q235.533 426.398 238.009 426.398 Q242.014 426.398 244.352 424.291 Q246.69 422.185 246.69 418.574 Q246.69 414.963 244.352 412.856 Q242.014 410.75 238.009 410.75 Q236.135 410.75 234.26 411.166 Q232.408 411.583 230.463 412.463 L230.463 395.102 Z" fill="#000000" fill-rule="evenodd" fill-opacity="1" /><path clip-path="url(#clip160)" d="M164.028 75.2124 Q160.417 75.2124 158.589 78.7772 Q156.783 82.3188 156.783 89.4484 Q156.783 96.5549 158.589 100.12 Q160.417 103.661 164.028 103.661 Q167.663 103.661 169.468 100.12 Q171.297 96.5549 171.297 89.4484 Q171.297 82.3188 169.468 78.7772 Q167.663 75.2124 164.028 75.2124 M164.028 71.5087 Q169.839 71.5087 172.894 76.1152 Q175.973 80.6985 175.973 89.4484 Q175.973 98.1752 172.894 102.782 Q169.839 107.365 164.028 107.365 Q158.218 107.365 155.14 102.782 Q152.084 98.1752 152.084 89.4484 Q152.084 80.6985 155.14 76.1152 Q158.218 71.5087 164.028 71.5087 Z" fill="#000000" fill-rule="evenodd" fill-opacity="1" /><path clip-path="url(#clip160)" d="M184.19 100.814 L189.075 100.814 L189.075 106.694 L184.19 106.694 L184.19 100.814 Z" fill="#000000" fill-rule="evenodd" fill-opacity="1" /><path clip-path="url(#clip160)" d="M200.07 102.759 L207.709 102.759 L207.709 76.3929 L199.399 78.0596 L199.399 73.8004 L207.662 72.1337 L212.338 72.1337 L212.338 102.759 L219.977 102.759 L219.977 106.694 L200.07 106.694 L200.07 102.759 Z" fill="#000000" fill-rule="evenodd" fill-opacity="1" /><path clip-path="url(#clip160)" d="M239.422 75.2124 Q235.81 75.2124 233.982 78.7772 Q232.176 82.3188 232.176 89.4484 Q232.176 96.5549 233.982 100.12 Q235.81 103.661 239.422 103.661 Q243.056 103.661 244.861 100.12 Q246.69 96.5549 246.69 89.4484 Q246.69 82.3188 244.861 78.7772 Q243.056 75.2124 239.422 75.2124 M239.422 71.5087 Q245.232 71.5087 248.287 76.1152 Q251.366 80.6985 251.366 89.4484 Q251.366 98.1752 248.287 102.782 Q245.232 107.365 239.422 107.365 Q233.611 107.365 230.533 102.782 Q227.477 98.1752 227.477 89.4484 Q227.477 80.6985 230.533 76.1152 Q233.611 71.5087 239.422 71.5087 Z" fill="#000000" fill-rule="evenodd" fill-opacity="1" /><path clip-path="url(#clip160)" d="M43.5702 787.172 L14.5426 778.196 L14.5426 772.786 L43.5702 781.761 L72.5979 772.786 L72.5979 778.196 L43.5702 787.172 Z" fill="#000000" fill-rule="evenodd" fill-opacity="1" /><path clip-path="url(#clip160)" d="M28.3562 731.79 L45.7028 744.681 L64.0042 731.122 L64.0042 738.029 L49.9996 748.405 L64.0042 758.781 L64.0042 765.688 L45.3526 751.842 L28.3562 764.51 L28.3562 757.603 L41.0558 748.15 L28.3562 738.697 L28.3562 731.79 Z" fill="#000000" fill-rule="evenodd" fill-opacity="1" /><path clip-path="url(#clip160)" d="M60.503 724.024 L60.503 717.531 L41.0558 717.531 L42.3608 724.629 L38.6686 724.629 L37.4273 717.308 L37.4273 712.948 L60.503 712.948 L60.503 706.423 L64.0042 706.423 L64.0042 724.024 L60.503 724.024 Z" fill="#000000" fill-rule="evenodd" fill-opacity="1" /><path clip-path="url(#clip160)" d="M43.5702 683.252 L72.5979 692.228 L72.5979 697.638 L43.5702 688.663 L14.5426 697.638 L14.5426 692.228 L43.5702 683.252 Z" fill="#000000" fill-rule="evenodd" fill-opacity="1" /><polyline clip-path="url(#clip162)" style="stroke:#009af9; stroke-linecap:butt; stroke-linejoin:round; stroke-width:8; stroke-opacity:1; fill:none" points="
  345.82,89.4137 347.769,89.808 349.717,91.1195 351.666,93.3463 353.614,96.4854 355.563,100.532 357.511,105.481 359.46,111.325 361.408,118.055 363.357,125.663 
  365.305,134.136 367.254,143.465 369.202,153.634 371.151,164.63 373.099,176.436 375.048,189.037 376.996,202.415 378.945,216.55 380.893,231.421 382.841,247.01 
  384.79,263.292 386.738,280.245 388.687,297.844 390.635,316.066 392.584,334.883 394.532,354.27 396.481,374.198 398.429,394.64 400.378,415.566 402.326,436.946 
  404.275,458.751 406.223,480.949 408.172,503.508 410.12,526.397 412.069,549.583 414.017,573.034 415.966,596.715 417.914,620.594 419.863,644.636 421.811,668.806 
  423.76,693.072 425.708,717.398 427.657,741.75 429.605,766.093 431.554,790.392 433.502,814.614 435.45,838.723 437.399,862.685 439.347,886.467 441.296,910.034 
  443.244,933.354 445.193,956.392 447.141,979.116 449.09,1001.49 451.038,1023.5 452.987,1045.09 454.935,1066.24 456.884,1086.92 458.832,1107.1 460.781,1126.76 
  462.729,1145.85 464.678,1164.37 466.626,1182.27 468.575,1199.55 470.523,1216.16 472.472,1232.09 474.42,1247.31 476.369,1261.81 478.317,1275.55 480.266,1288.53 
  482.214,1300.73 484.162,1312.12 486.111,1322.69 488.059,1332.43 490.008,1341.32 491.956,1349.35 493.905,1356.5 495.853,1362.78 497.802,1368.16 499.75,1372.64 
  501.699,1376.22 503.647,1378.89 505.596,1380.64 507.544,1381.48 509.493,1381.4 511.441,1380.4 513.39,1378.48 515.338,1375.65 517.287,1371.91 519.235,1367.27 
  521.184,1361.73 523.132,1355.29 525.081,1347.98 527.029,1339.8 528.978,1330.75 530.926,1320.87 532.875,1310.15 534.823,1298.61 536.771,1286.27 538.72,1273.15 
  540.668,1259.27 542.617,1244.64 544.565,1229.28 546.514,1213.23 548.462,1196.49 550.411,1179.1 552.359,1161.08 554.308,1142.46 556.256,1123.26 558.205,1103.5 
  560.153,1083.22 562.102,1062.45 564.05,1041.21 565.999,1019.54 567.947,997.463 569.896,975.013 571.844,952.223 573.793,929.124 575.741,905.75 577.69,882.133 
  579.638,858.308 581.587,834.309 583.535,810.168 585.484,785.921 587.432,761.602 589.38,737.245 591.329,712.885 593.277,688.556 595.226,664.294 597.174,640.133 
  599.123,616.106 601.071,592.249 603.02,568.594 604.968,545.177 606.917,522.03 608.865,499.186 610.814,476.677 612.762,454.535 614.711,432.792 616.659,411.478 
  618.608,390.625 620.556,370.26 622.505,350.414 624.453,331.115 626.402,312.39 628.35,294.266 630.299,276.77 632.247,259.924 634.196,243.754 636.144,228.282 
  638.093,213.53 640.041,199.52 641.989,186.27 643.938,173.8 645.886,162.128 647.835,151.27 649.783,141.242 651.732,132.058 653.68,123.731 655.629,116.274 
  657.577,109.696 659.526,104.007 661.474,99.2155 663.423,95.3271 665.371,92.3478 667.32,90.2818 669.268,89.1322 671.217,88.9007 673.165,89.5878 675.114,91.1926 
  677.062,93.7128 679.011,97.1449 680.959,101.484 682.908,106.724 684.856,112.857 686.805,119.874 688.753,127.765 690.701,136.52 692.65,146.126 694.598,156.569 
  696.547,167.834 698.495,179.906 700.444,192.767 702.392,206.4 704.341,220.784 706.289,235.9 708.238,251.725 710.186,268.237 712.135,285.413 714.083,303.229 
  716.032,321.658 717.98,340.675 719.929,360.253 721.877,380.365 723.826,400.981 725.774,422.073 727.723,443.611 729.671,465.563 731.62,487.899 733.568,510.586 
  735.517,533.593 737.465,556.887 739.414,580.434 741.362,604.201 743.31,628.155 745.259,652.262 747.207,676.486 749.156,700.795 751.104,725.154 753.053,749.527 
  755.001,773.88 756.95,798.179 758.898,822.389 760.847,846.476 762.795,870.404 764.744,894.141 766.692,917.652 768.641,940.904 770.589,963.865 772.538,986.501 
  774.486,1008.78 776.435,1030.67 778.383,1052.15 780.332,1073.17 782.28,1093.71 784.229,1113.75 786.177,1133.24 788.126,1152.17 790.074,1170.51 792.023,1188.23 
  793.971,1205.31 795.919,1221.72 797.868,1237.44 799.816,1252.44 801.765,1266.71 803.713,1280.23 805.662,1292.97 807.61,1304.93 809.559,1316.07 811.507,1326.38 
  813.456,1335.86 815.404,1344.48 817.353,1352.24 819.301,1359.12 821.25,1365.12 823.198,1370.22 825.147,1374.42 827.095,1377.71 829.044,1380.08 830.992,1381.55 
  832.941,1382.09 834.889,1381.72 836.838,1380.42 838.786,1378.21 840.735,1375.09 842.683,1371.06 844.632,1366.12 846.58,1360.29 848.528,1353.57 850.477,1345.97 
  852.425,1337.51 854.374,1328.19 856.322,1318.02 858.271,1307.03 860.219,1295.23 862.168,1282.63 864.116,1269.25 866.065,1255.11 868.013,1240.24 869.962,1224.64 
  871.91,1208.36 873.859,1191.4 875.807,1173.79 877.756,1155.56 879.704,1136.73 881.653,1117.33 883.601,1097.39 885.55,1076.93 887.498,1055.99 889.447,1034.59 
  891.395,1012.77 893.344,990.552 895.292,967.972 897.24,945.061 899.189,921.851 901.137,898.376 903.086,874.67 905.034,850.766 906.983,826.698 908.931,802.5 
  910.88,778.206 912.828,753.85 914.777,729.468 916.725,705.094 918.674,680.762 920.622,656.508 922.571,632.366 924.519,608.369 926.468,584.553 928.416,560.952 
  930.365,537.598 932.313,514.525 934.262,491.765 936.21,469.351 938.159,447.314 940.107,425.687 942.056,404.499 944.004,383.781 945.953,363.561 947.901,343.87 
  949.849,324.736 951.798,306.184 953.746,288.243 955.695,270.937 957.643,254.291 959.592,238.328 961.54,223.07 963.489,208.541 965.437,194.759 967.386,181.746 
  969.334,169.518 971.283,158.094 973.231,147.49 975.18,137.722 977.128,128.802 979.077,120.745 981.025,113.561 982.974,107.261 984.922,101.853 986.871,97.3453 
  988.819,93.7436 990.768,91.0532 992.716,89.2778 994.665,88.4203 996.613,88.4818 998.562,89.4625 1000.51,91.3611 1002.46,94.1749 1004.41,97.8999 1006.36,102.531 
  1008.3,108.061 1010.25,114.483 1012.2,121.786 1014.15,129.961 1016.1,138.997 1018.05,148.879 1019.99,159.595 1021.94,171.129 1023.89,183.464 1025.84,196.585 
  1027.79,210.47 1029.74,225.103 1031.69,240.46 1033.63,256.52 1035.58,273.261 1037.53,290.659 1039.48,308.688 1041.43,327.323 1043.38,346.539 1045.33,366.306 
  1047.27,386.598 1049.22,407.387 1051.17,428.641 1053.12,450.332 1055.07,472.429 1057.02,494.899 1058.96,517.711 1060.91,540.833 1062.86,564.231 1064.81,587.872 
  1066.76,611.723 1068.71,635.749 1070.66,659.917 1072.6,684.192 1074.55,708.54 1076.5,732.927 1078.45,757.318 1080.4,781.678 1082.35,805.973 1084.29,830.167 
  1086.24,854.227 1088.19,878.118 1090.14,901.807 1092.09,925.259 1094.04,948.441 1095.99,971.321 1097.93,993.865 1099.88,1016.04 1101.83,1037.82 1103.78,1059.17 
  1105.73,1080.06 1107.68,1100.46 1109.62,1120.34 1111.57,1139.68 1113.52,1158.44 1115.47,1176.6 1117.42,1194.13 1119.37,1211.01 1121.32,1227.22 1123.26,1242.73 
  1125.21,1257.51 1127.16,1271.56 1129.11,1284.84 1131.06,1297.34 1133.01,1309.04 1134.96,1319.93 1136.9,1329.99 1138.85,1339.21 1140.8,1347.56 1142.75,1355.05 
  1144.7,1361.65 1146.65,1367.37 1148.59,1372.19 1150.54,1376.1 1152.49,1379.1 1154.44,1381.19 1156.39,1382.36 1158.34,1382.61 1160.29,1381.94 1162.23,1380.36 
  1164.18,1377.85 1166.13,1374.44 1168.08,1370.11 1170.03,1364.88 1171.98,1358.76 1173.92,1351.75 1175.87,1343.87 1177.82,1335.12 1179.77,1325.52 1181.72,1315.09 
  1183.67,1303.82 1185.62,1291.75 1187.56,1278.89 1189.51,1265.26 1191.46,1250.88 1193.41,1235.76 1195.36,1219.93 1197.31,1203.41 1199.26,1186.22 1201.2,1168.4 
  1203.15,1149.96 1205.1,1130.93 1207.05,1111.34 1209,1091.21 1210.95,1070.58 1212.89,1049.47 1214.84,1027.92 1216.79,1005.95 1218.74,983.594 1220.69,960.885 
  1222.64,937.856 1224.59,914.539 1226.53,890.967 1228.48,867.173 1230.43,843.193 1232.38,819.059 1234.33,794.806 1236.28,770.468 1238.22,746.081 1240.17,721.678 
  1242.12,697.293 1244.07,672.963 1246.02,648.72 1247.97,624.601 1249.92,600.638 1251.86,576.867 1253.81,553.32 1255.76,530.033 1257.71,507.037 1259.66,484.365 
  1261.61,462.05 1263.55,440.122 1265.5,418.614 1267.45,397.556 1269.4,376.977 1271.35,356.907 1273.3,337.374 1275.25,318.406 1277.19,300.03 1279.14,282.273 
  1281.09,265.16 1283.04,248.715 1284.99,232.962 1286.94,217.923 1288.89,203.618 1290.83,190.069 1292.78,177.294 1294.73,165.311 1296.68,154.138 1298.63,143.791 
  1300.58,134.284 1302.52,125.63 1304.47,117.843 1306.42,110.934 1308.37,104.912 1310.32,99.7863 1312.27,95.5634 1314.22,92.2496 1316.16,89.8494 1318.11,88.3661 
  1320.06,87.8017 1322.01,88.1571 1323.96,89.4319 1325.91,91.6245 1327.85,94.7317 1329.8,98.7493 1331.75,103.672 1333.7,109.492 1335.65,116.201 1337.6,123.791 
  1339.55,132.249 1341.49,141.564 1343.44,151.722 1345.39,162.71 1347.34,174.512 1349.29,187.11 1351.24,200.487 1353.19,214.624 1355.13,229.502 1357.08,245.099 
  1359.03,261.393 1360.98,278.36 1362.93,295.977 1364.88,314.218 1366.82,333.058 1368.77,352.469 1370.72,372.424 1372.67,392.895 1374.62,413.853 1376.57,435.267 
  1378.52,457.108 1380.46,479.345 1382.41,501.946 1384.36,524.88 1386.31,548.113 1388.26,571.612 1390.21,595.343 1392.15,619.274 1394.1,643.37 1396.05,667.597 
  1398,691.919 1399.95,716.304 1401.9,740.716 1403.85,765.12 1405.79,789.483 1407.74,813.769 1409.69,837.944 1411.64,861.974 1413.59,885.824 1415.54,909.461 
  1417.48,932.85 1419.43,955.959 1421.38,978.755 1423.33,1001.2 1425.28,1023.28 1427.23,1044.94 1429.18,1066.16 1431.12,1086.92 1433.07,1107.17 1435.02,1126.9 
  1436.97,1146.07 1438.92,1164.66 1440.87,1182.64 1442.82,1199.98 1444.76,1216.66 1446.71,1232.66 1448.66,1247.95 1450.61,1262.51 1452.56,1276.33 1454.51,1289.38 
  1456.45,1301.63 1458.4,1313.09 1460.35,1323.72 1462.3,1333.52 1464.25,1342.47 1466.2,1350.56 1468.15,1357.77 1470.09,1364.1 1472.04,1369.53 1473.99,1374.06 
  1475.94,1377.69 1477.89,1380.4 1479.84,1382.2 1481.78,1383.08 1483.73,1383.04 1485.68,1382.07 1487.63,1380.19 1489.58,1377.39 1491.53,1373.68 1493.48,1369.07 
  1495.42,1363.55 1497.37,1357.14 1499.32,1349.85 1501.27,1341.68 1503.22,1332.65 1505.17,1322.77 1507.12,1312.06 1509.06,1300.53 1511.01,1288.2 1512.96,1275.08 
  1514.91,1261.19 1516.86,1246.56 1518.81,1231.2 1520.75,1215.13 1522.7,1198.38 1524.65,1180.98 1526.6,1162.94 1528.55,1144.29 1530.5,1125.06 1532.45,1105.28 
  1534.39,1084.98 1536.34,1064.17 1538.29,1042.9 1540.24,1021.19 1542.19,999.077 1544.14,976.586 1546.08,953.753 1548.03,930.609 1549.98,907.187 1551.93,883.521 
  1553.88,859.645 1555.83,835.592 1557.78,811.397 1559.72,787.093 1561.67,762.715 1563.62,738.298 1565.57,713.877 1567.52,689.485 1569.47,665.158 1571.41,640.931 
  1573.36,616.838 1575.31,592.913 1577.26,569.19 1579.21,545.704 1581.16,522.486 1583.11,499.571 1585.05,476.991 1587,454.777 1588.95,432.962 1590.9,411.576 
  1592.85,390.649 1594.8,370.212 1596.75,350.293 1598.69,330.922 1600.64,312.125 1602.59,293.93 1604.54,276.362 1606.49,259.446 1608.44,243.206 1610.38,227.664 
  1612.33,212.844 1614.28,198.766 1616.23,185.45 1618.18,172.915 1620.13,161.179 1622.08,150.258 1624.02,140.169 1625.97,130.926 1627.92,122.541 1629.87,115.028 
  1631.82,108.395 1633.77,102.654 1635.71,97.8113 1637.66,93.8743 1639.61,90.8484 1641.56,88.7378 1643.51,87.5459 1645.46,87.2743 1647.41,87.9235 1649.35,89.4928 
  1651.3,91.98 1653.25,95.3815 1655.2,99.6926 1657.15,104.907 1659.1,111.017 1661.05,118.014 1662.99,125.888 1664.94,134.628 1666.89,144.221 1668.84,154.654 
  1670.79,165.913 1672.74,177.98 1674.68,190.84 1676.63,204.474 1678.58,218.862 1680.53,233.985 1682.48,249.82 1684.43,266.344 1686.38,283.535 1688.32,301.368 
  1690.27,319.818 1692.22,338.858 1694.17,358.462 1696.12,378.601 1698.07,399.248 1700.01,420.372 1701.96,441.945 1703.91,463.935 1705.86,486.312 1707.81,509.041 
  1709.76,532.093 1711.71,555.433 1713.65,579.029 1715.6,602.847 1717.55,626.854 1719.5,651.015 1721.45,675.295 1723.4,699.662 1725.34,724.08 1727.29,748.514 
  1729.24,772.93 1731.19,797.293 1733.14,821.568 1735.09,845.721 1737.04,869.717 1738.98,893.522 1740.93,917.103 1742.88,940.425 1744.83,963.456 1746.78,986.164 
  1748.73,1008.52 1750.68,1030.48 1752.62,1052.02 1754.57,1073.12 1756.52,1093.73 1758.47,1113.84 1760.42,1133.41 1762.37,1152.41 1764.31,1170.82 1766.26,1188.62 
  1768.21,1205.76 1770.16,1222.24 1772.11,1238.03 1774.06,1253.11 1776.01,1267.45 1777.95,1281.03 1779.9,1293.84 1781.85,1305.85 1783.8,1317.06 1785.75,1327.44 
  1787.7,1336.97 1789.64,1345.65 1791.59,1353.47 1793.54,1360.41 1795.49,1366.45 1797.44,1371.61 1799.39,1375.85 1801.34,1379.19 1803.28,1381.61 1805.23,1383.12 
  1807.18,1383.71 1809.13,1383.37 1811.08,1382.11 1813.03,1379.94 1814.98,1376.85 1816.92,1372.84 1818.87,1367.93 1820.82,1362.12 1822.77,1355.42 1824.72,1347.84 
  1826.67,1339.39 1828.61,1330.09 1830.56,1319.93 1832.51,1308.95 1834.46,1297.15 1836.41,1284.55 1838.36,1271.18 1840.31,1257.04 1842.25,1242.16 1844.2,1226.55 
  1846.15,1210.25 1848.1,1193.28 1850.05,1175.66 1852,1157.41 1853.94,1138.56 1855.89,1119.13 1857.84,1099.16 1859.79,1078.68 1861.74,1057.71 1863.69,1036.27 
  1865.64,1014.41 1867.58,992.155 1869.53,969.532 1871.48,946.577 1873.43,923.321 1875.38,899.799 1877.33,876.042 1879.27,852.086 1881.22,827.964 1883.17,803.71 
  1885.12,779.358 1887.07,754.944 1889.02,730.502 1890.97,706.065 1892.91,681.67 1894.86,657.351 1896.81,633.143 1898.76,609.08 1900.71,585.195 1902.66,561.525 
  1904.61,538.101 1906.55,514.957 1908.5,492.126 1910.45,469.641 1912.4,447.532 1914.35,425.833 1916.3,404.572 1918.24,383.782 1920.19,363.49 1922.14,343.726 
  1924.09,324.518 1926.04,305.895 1927.99,287.882 1929.94,270.504 1931.88,253.788 1933.83,237.755 1935.78,222.429 1937.73,207.831 1939.68,193.983 1941.63,180.903 
  1943.57,168.611 1945.52,157.124 1947.47,146.458 1949.42,136.628 1951.37,127.65 1953.32,119.535 1955.27,112.295 1957.21,105.941 1959.16,100.481 1961.11,95.9231 
  1963.06,92.2735 1965.01,89.5373 1966.96,87.7184 1968.91,86.8193 1970.85,86.8416 1972.8,87.7852 1974.75,89.649 1976.7,92.4304 1978.65,96.1256 1980.6,100.729 
  1982.54,106.235 1984.49,112.634 1986.44,119.918 1988.39,128.077 1990.34,137.098 1992.29,146.969 1994.24,157.676 1996.18,169.204 1998.13,181.537 2000.08,194.656 
  2002.03,208.544 2003.98,223.181 2005.93,238.546 2007.87,254.617 2009.82,271.371 2011.77,288.785 2013.72,306.833 2015.67,325.49 2017.62,344.729 2019.57,364.523 
  2021.51,384.844 2023.46,405.663 2025.41,426.951 2027.36,448.678 2029.31,470.813 2031.26,493.324 2033.2,516.179 2035.15,539.346 2037.1,562.791 2039.05,586.482 
  2041,610.384 2042.95,634.464 2044.9,658.688 2046.84,683.02 2048.79,707.426 2050.74,731.873 2052.69,756.325 2054.64,780.748 2056.59,805.107 2058.54,829.367 
  2060.48,853.494 2062.43,877.453 2064.38,901.21 2066.33,924.732 2068.28,947.985 2070.23,970.935 2072.17,993.551 2074.12,1015.8 2076.07,1037.65 2078.02,1059.07 
  2079.97,1080.04 2081.92,1100.51 2083.87,1120.46 2085.81,1139.87 2087.76,1158.71 2089.71,1176.94 2091.66,1194.54 2093.61,1211.49 2095.56,1227.77 2097.5,1243.35 
  2099.45,1258.2 2101.4,1272.31 2103.35,1285.66 2105.3,1298.23 2107.25,1309.99 2109.2,1320.95 2111.14,1331.07 2113.09,1340.34 2115.04,1348.75 2116.99,1356.3 
  2118.94,1362.96 2120.89,1368.72 2122.84,1373.59 2124.78,1377.55 2126.73,1380.6 2128.68,1382.73 2130.63,1383.95 2132.58,1384.24 2134.53,1383.61 2136.47,1382.06 
  2138.42,1379.59 2140.37,1376.2 2142.32,1371.9 2144.27,1366.7 2146.22,1360.6 2148.17,1353.62 2150.11,1345.75 2152.06,1337.02 2154.01,1327.43 2155.96,1317 
  2157.91,1305.75 2159.86,1293.68 2161.8,1280.82 2163.75,1267.19 2165.7,1252.8 2167.65,1237.67 2169.6,1221.83 2171.55,1205.3 2173.5,1188.1 2175.44,1170.26 
  2177.39,1151.8 2179.34,1132.75 2181.29,1113.13 2183.24,1092.98 2185.19,1072.32 2187.14,1051.18 2189.08,1029.59 2191.03,1007.58 2192.98,985.184 2194.93,962.433 
  2196.88,939.359 2198.83,915.994 2200.77,892.374 2202.72,868.53 2204.67,844.496 2206.62,820.307 2208.57,795.998 2210.52,771.602 2212.47,747.155 2214.41,722.691 
  2216.36,698.244 2218.31,673.85 2220.26,649.542 2222.21,625.356 2224.16,601.326 2226.1,577.487 2228.05,553.871 2230,530.513 2231.95,507.446 2233.9,484.703 
  2235.85,462.316 2237.8,440.316 2239.74,418.736 2241.69,397.605 2243.64,376.953 2245.59,356.81 2247.54,337.205 2249.49,318.165 2251.43,299.717 2253.38,281.888 
  2255.33,264.704 2257.28,248.189 2259.23,232.366 2261.18,217.257 2263.13,202.885 2265.07,189.269 2267.02,176.429 2268.97,164.382 2270.92,153.146 2272.87,142.737 
  2274.82,133.17 2276.77,124.458 2278.71,116.614 2280.66,109.65 2282.61,103.574 2284.56,98.3967 2286.51,94.1242 2288.46,90.7628 2290.4,88.3172 2292.35,86.7908 
  2294.3,86.1857 
  "/>
<polyline clip-path="url(#clip162)" style="stroke:#ff0000; stroke-linecap:butt; stroke-linejoin:round; stroke-width:8; stroke-opacity:1; fill:none" stroke-dasharray="32, 20" points="
  345.82,89.4137 347.769,89.8086 349.717,91.1224 351.666,93.3525 353.614,96.4953 355.563,100.545 357.511,105.496 359.46,111.342 361.408,118.071 363.357,125.678 
  365.305,134.15 367.254,143.478 369.202,153.646 371.151,164.644 373.099,176.453 375.048,189.058 376.996,202.443 378.945,216.581 380.893,231.457 382.841,247.049 
  384.79,263.336 386.738,280.296 388.687,297.901 390.635,316.123 392.584,334.951 394.532,354.341 396.481,374.275 398.429,394.729 400.378,415.667 402.326,437.057 
  404.275,458.874 406.223,481.083 408.172,503.652 410.12,526.547 412.069,549.743 414.017,573.213 415.966,596.904 417.914,620.792 419.863,644.857 421.811,669.037 
  423.76,693.324 425.708,717.663 427.657,742.031 429.605,766.393 431.554,790.701 433.502,814.937 435.45,839.077 437.399,863.044 439.347,886.869 441.296,910.464 
  443.244,933.79 445.193,956.88 447.141,979.589 449.09,1002.03 451.038,1024 452.987,1045.65 454.935,1066.77 456.884,1087.51 458.832,1107.67 460.781,1127.33 
  462.729,1146.46 464.678,1164.96 466.626,1182.86 468.575,1200.13 470.523,1216.74 472.472,1232.66 474.42,1247.88 476.369,1262.38 478.317,1276.11 480.266,1289.08 
  482.214,1301.26 484.162,1312.63 486.111,1323.18 488.059,1332.9 490.008,1341.76 491.956,1349.76 493.905,1356.89 495.853,1363.13 497.802,1368.48 499.75,1372.92 
  501.699,1376.46 503.647,1379.09 505.596,1380.8 507.544,1381.6 509.493,1381.48 511.441,1380.43 513.39,1378.47 515.338,1375.6 517.287,1371.82 519.235,1367.13 
  521.184,1361.55 523.132,1355.08 525.081,1347.72 527.029,1339.5 528.978,1330.42 530.926,1320.51 532.875,1309.76 534.823,1298.19 536.771,1285.83 538.72,1272.69 
  540.668,1258.78 542.617,1244.12 544.565,1228.75 546.514,1212.67 548.462,1195.91 550.411,1178.5 552.359,1160.45 554.308,1141.81 556.256,1122.58 558.205,1102.8 
  560.153,1082.5 562.102,1061.71 564.05,1040.45 565.999,1018.75 567.947,996.655 569.896,974.184 571.844,951.374 573.793,928.255 575.741,904.854 577.69,881.213 
  579.638,857.369 581.587,833.342 583.535,809.183 585.484,784.914 587.432,760.577 589.38,736.202 591.329,711.826 593.277,687.488 595.226,663.212 597.174,639.044 
  599.123,615.013 601.071,591.123 603.02,567.467 604.968,544.037 606.917,520.867 608.865,498.034 610.814,475.493 612.762,453.375 614.711,431.603 616.659,410.32 
  618.608,389.444 620.556,369.113 622.505,349.274 624.453,329.975 626.402,311.289 628.35,293.191 630.299,275.713 632.247,258.893 634.196,242.757 636.144,227.327 
  638.093,212.614 640.041,198.639 641.989,185.442 643.938,173.017 645.886,161.396 647.835,150.591 649.783,140.621 651.732,131.495 653.68,123.232 655.629,115.84 
  657.577,109.327 659.526,103.702 661.474,98.9726 663.423,95.1466 665.371,92.2286 667.32,90.2252 669.268,89.1384 671.217,88.9688 673.165,89.7166 675.114,91.3812 
  677.062,93.9607 679.011,97.4511 680.959,101.846 682.908,107.142 684.856,113.329 686.805,120.398 688.753,128.341 690.701,137.147 692.65,146.802 694.598,157.294 
  696.547,168.608 698.495,180.728 700.444,193.638 702.392,207.317 704.341,221.744 706.289,236.901 708.238,252.768 710.186,269.322 712.135,286.538 714.083,304.393 
  716.032,322.859 717.98,341.912 719.929,361.523 721.877,381.673 723.826,402.325 725.774,423.453 727.723,445.025 729.671,467.01 731.62,489.376 733.568,512.09 
  735.517,535.121 737.465,558.439 739.414,582.015 741.362,605.808 743.31,629.783 745.259,653.917 747.207,678.161 749.156,702.492 751.104,726.865 753.053,751.253 
  755.001,775.62 756.95,799.927 758.898,824.142 760.847,848.245 762.795,872.177 764.744,895.928 766.692,919.442 768.641,942.698 770.589,965.663 772.538,988.285 
  774.486,1010.57 776.435,1032.44 778.383,1053.9 780.332,1074.9 782.28,1095.42 784.229,1115.42 786.177,1134.87 788.126,1153.77 790.074,1172.08 792.023,1189.75 
  793.971,1206.78 795.919,1223.13 797.868,1238.79 799.816,1253.73 801.765,1267.94 803.713,1281.38 805.662,1294.05 807.61,1305.93 809.559,1316.99 811.507,1327.23 
  813.456,1336.62 815.404,1345.17 817.353,1352.84 819.301,1359.63 821.25,1365.54 823.198,1370.55 825.147,1374.66 827.095,1377.86 829.044,1380.14 830.992,1381.51 
  832.941,1381.96 834.889,1381.49 836.838,1380.1 838.786,1377.8 840.735,1374.58 842.683,1370.45 844.632,1365.41 846.58,1359.48 848.528,1352.67 850.477,1344.97 
  852.425,1336.41 854.374,1327 856.322,1316.75 858.271,1305.66 860.219,1293.77 862.168,1281.09 864.116,1267.62 866.065,1253.41 868.013,1238.45 869.962,1222.77 
  871.91,1206.41 873.859,1189.37 875.807,1171.68 877.756,1153.37 879.704,1134.48 881.653,1115.01 883.601,1094.99 885.55,1074.48 887.498,1053.47 889.447,1032.02 
  891.395,1010.14 893.344,987.867 895.292,965.232 897.24,942.266 899.189,919.009 901.137,895.496 903.086,871.747 905.034,847.801 906.983,823.7 908.931,799.462 
  910.88,775.14 912.828,750.755 914.777,726.349 916.725,701.957 918.674,677.606 920.622,653.34 922.571,629.192 924.519,605.172 926.468,581.343 928.416,557.748 
  930.365,534.379 932.313,511.332 934.262,488.575 936.21,466.182 938.159,444.167 940.107,422.567 942.056,401.409 944.004,380.735 945.953,360.538 947.901,340.911 
  949.849,321.834 951.798,303.328 953.746,285.46 955.695,268.227 957.643,251.658 959.592,235.777 961.54,220.604 963.489,206.17 965.437,192.491 967.386,179.578 
  969.334,167.458 971.283,156.147 973.231,145.659 975.18,136.011 977.128,127.215 979.077,119.283 981.025,112.229 982.974,106.061 984.922,100.787 986.871,96.4156 
  988.819,92.9516 990.768,90.4019 992.716,88.7692 994.665,88.0542 996.613,88.2585 998.562,89.3827 1000.51,91.4226 1002.46,94.3784 1004.41,98.2477 1006.36,103.023 
  1008.3,108.698 1010.25,115.263 1012.2,122.709 1014.15,131.026 1016.1,140.202 1018.05,150.224 1019.99,161.079 1021.94,172.751 1023.89,185.221 1025.84,198.472 
  1027.79,212.486 1029.74,227.245 1031.69,242.726 1033.63,258.907 1035.58,275.766 1037.53,293.281 1039.48,311.423 1041.43,330.169 1043.38,349.49 1045.33,369.36 
  1047.27,389.755 1049.22,410.64 1051.17,431.988 1053.12,453.768 1055.07,475.947 1057.02,498.496 1058.96,521.383 1060.91,544.571 1062.86,568.035 1064.81,591.741 
  1066.76,615.648 1068.71,639.73 1070.66,663.95 1072.6,688.271 1074.55,712.66 1076.5,737.08 1078.45,761.498 1080.4,785.879 1082.35,810.188 1084.29,834.386 
  1086.24,858.46 1088.19,882.366 1090.14,906.047 1092.09,929.502 1094.04,952.668 1095.99,975.529 1097.93,998.064 1099.88,1020.2 1101.83,1041.95 1103.78,1063.24 
  1105.73,1084.09 1107.68,1104.42 1109.62,1124.23 1111.57,1143.5 1113.52,1162.18 1115.47,1180.24 1117.42,1197.68 1119.37,1214.46 1121.32,1230.56 1123.26,1245.95 
  1125.21,1260.62 1127.16,1274.54 1129.11,1287.69 1131.06,1300.05 1133.01,1311.61 1134.96,1322.35 1136.9,1332.26 1138.85,1341.31 1140.8,1349.5 1142.75,1356.82 
  1144.7,1363.25 1146.65,1368.79 1148.59,1373.42 1150.54,1377.15 1152.49,1379.98 1154.44,1381.88 1156.39,1382.87 1158.34,1382.94 1160.29,1382.09 1162.23,1380.32 
  1164.18,1377.63 1166.13,1374.03 1168.08,1369.52 1170.03,1364.11 1171.98,1357.81 1173.92,1350.62 1175.87,1342.56 1177.82,1333.64 1179.77,1323.86 1181.72,1313.26 
  1183.67,1301.83 1185.62,1289.6 1187.56,1276.58 1189.51,1262.79 1191.46,1248.26 1193.41,1232.99 1195.36,1217.02 1197.31,1200.36 1199.26,1183.04 1201.2,1165.09 
  1203.15,1146.53 1205.1,1127.37 1207.05,1107.67 1209,1087.43 1210.95,1066.69 1212.89,1045.48 1214.84,1023.83 1216.79,1001.77 1218.74,979.33 1220.69,956.544 
  1222.64,933.439 1224.59,910.054 1226.53,886.42 1228.48,862.568 1230.43,838.532 1232.38,814.35 1234.33,790.05 1236.28,765.676 1238.22,741.255 1240.17,716.827 
  1242.12,692.429 1244.07,668.091 1246.02,643.846 1247.97,619.734 1249.92,595.766 1251.86,572.005 1253.81,548.493 1255.76,525.21 1257.71,502.27 1259.66,479.623 
  1261.61,457.376 1263.55,435.499 1265.5,414.075 1267.45,393.078 1269.4,372.611 1271.35,352.615 1273.3,333.196 1275.25,314.346 1277.19,296.082 1279.14,278.445 
  1281.09,261.466 1283.04,245.163 1284.99,229.559 1286.94,214.675 1288.89,200.532 1290.83,187.144 1292.78,174.537 1294.73,162.728 1296.68,151.731 1298.63,141.565 
  1300.58,132.242 1302.52,123.776 1304.47,116.176 1306.42,109.459 1308.37,103.632 1310.32,98.7041 1312.27,94.6794 1314.22,91.5635 1316.16,89.3614 1318.11,88.0762 
  1320.06,87.7119 1322.01,88.2672 1323.96,89.7421 1325.91,92.134 1327.85,95.4389 1329.8,99.6517 1331.75,104.767 1333.7,110.78 1335.65,117.681 1337.6,125.461 
  1339.55,134.109 1341.49,143.61 1343.44,153.95 1345.39,165.116 1347.34,177.095 1349.29,189.866 1351.24,203.412 1353.19,217.713 1355.13,232.75 1357.08,248.502 
  1359.03,264.947 1360.98,282.062 1362.93,299.82 1364.88,318.197 1366.82,337.17 1368.77,356.709 1370.72,376.784 1372.67,397.378 1374.62,418.448 1376.57,439.969 
  1378.52,461.913 1380.46,484.246 1382.41,506.935 1384.36,529.944 1386.31,553.251 1388.26,576.819 1390.21,600.618 1392.15,624.606 1394.1,648.757 1396.05,673.026 
  1398,697.389 1399.95,721.804 1401.9,746.239 1403.85,770.661 1405.79,795.029 1407.74,819.315 1409.69,843.489 1411.64,867.504 1413.59,891.353 1415.54,914.964 
  1417.48,938.322 1419.43,961.4 1421.38,984.135 1423.33,1006.55 1425.28,1028.54 1427.23,1050.15 1429.18,1071.27 1431.12,1091.95 1433.07,1112.11 1435.02,1131.72 
  1436.97,1150.79 1438.92,1169.26 1440.87,1187.09 1442.82,1204.3 1444.76,1220.83 1446.71,1236.68 1448.66,1251.81 1450.61,1266.2 1452.56,1279.84 1454.51,1292.7 
  1456.45,1304.76 1458.4,1316.03 1460.35,1326.46 1462.3,1336.05 1464.25,1344.79 1466.2,1352.66 1468.15,1359.66 1470.09,1365.78 1472.04,1371 1473.99,1375.31 
  1475.94,1378.72 1477.89,1381.21 1479.84,1382.79 1481.78,1383.44 1483.73,1383.18 1485.68,1382 1487.63,1379.89 1489.58,1376.87 1491.53,1372.94 1493.48,1368.11 
  1495.42,1362.37 1497.37,1355.75 1499.32,1348.24 1501.27,1339.86 1503.22,1330.63 1505.17,1320.54 1507.12,1309.63 1509.06,1297.9 1511.01,1285.37 1512.96,1272.06 
  1514.91,1257.99 1516.86,1243.18 1518.81,1227.65 1520.75,1211.42 1522.7,1194.51 1524.65,1176.95 1526.6,1158.75 1528.55,1139.96 1530.5,1120.59 1532.45,1100.68 
  1534.39,1080.24 1536.34,1059.32 1538.29,1037.93 1540.24,1016.11 1542.19,993.9 1544.14,971.319 1546.08,948.401 1548.03,925.179 1549.98,901.685 1551.93,877.953 
  1553.88,854.019 1555.83,829.915 1557.78,805.675 1559.72,781.337 1561.67,756.931 1563.62,732.497 1565.57,708.069 1567.52,683.681 1569.47,659.37 1571.41,635.166 
  1573.36,611.091 1575.31,587.191 1577.26,563.51 1579.21,540.068 1581.16,516.899 1583.11,494.045 1585.05,471.528 1587,449.396 1588.95,427.657 1590.9,406.372 
  1592.85,385.544 1594.8,365.227 1596.75,345.432 1598.69,326.182 1600.64,307.53 1602.59,289.482 1604.54,272.068 1606.49,255.314 1608.44,239.248 1610.38,223.89 
  1612.33,209.261 1614.28,195.379 1616.23,182.27 1618.18,169.947 1620.13,158.428 1622.08,147.729 1624.02,137.866 1625.97,128.854 1627.92,120.708 1629.87,113.433 
  1631.82,107.045 1633.77,101.553 1635.71,96.9617 1637.66,93.2761 1639.61,90.4979 1641.56,88.6368 1643.51,87.6985 1645.46,87.6792 1647.41,88.58 1649.35,90.4026 
  1651.3,93.1431 1653.25,96.7943 1655.2,101.352 1657.15,106.81 1659.1,113.161 1661.05,120.399 1662.99,128.512 1664.94,137.486 1666.89,147.309 1668.84,157.967 
  1670.79,169.448 1672.74,181.735 1674.68,194.805 1676.63,208.644 1678.58,223.227 1680.53,238.539 1682.48,254.559 1684.43,271.266 1686.38,288.633 1688.32,306.634 
  1690.27,325.244 1692.22,344.439 1694.17,364.189 1696.12,384.467 1698.07,405.244 1700.01,426.493 1701.96,448.181 1703.91,470.28 1705.86,492.759 1707.81,515.582 
  1709.76,538.719 1711.71,562.129 1713.65,585.789 1715.6,609.668 1717.55,633.716 1719.5,657.917 1721.45,682.224 1723.4,706.61 1725.34,731.031 1727.29,755.46 
  1729.24,779.862 1731.19,804.193 1733.14,828.438 1735.09,852.55 1737.04,876.496 1738.98,900.266 1740.93,923.772 1742.88,947.03 1744.83,969.977 1746.78,992.588 
  1748.73,1014.85 1750.68,1036.69 1752.62,1058.13 1754.57,1079.08 1756.52,1099.56 1758.47,1119.52 1760.42,1138.91 1762.37,1157.75 1764.31,1175.98 1766.26,1193.59 
  1768.21,1210.54 1770.16,1226.81 1772.11,1242.39 1774.06,1257.24 1776.01,1271.36 1777.95,1284.71 1779.9,1297.27 1781.85,1309.03 1783.8,1319.99 1785.75,1330.11 
  1787.7,1339.38 1789.64,1347.79 1791.59,1355.33 1793.54,1361.99 1795.49,1367.76 1797.44,1372.63 1799.39,1376.6 1801.34,1379.66 1803.28,1381.8 1805.23,1383.02 
  1807.18,1383.32 1809.13,1382.7 1811.08,1381.16 1813.03,1378.71 1814.98,1375.34 1816.92,1371.06 1818.87,1365.88 1820.82,1359.81 1822.77,1352.84 1824.72,1345.01 
  1826.67,1336.3 1828.61,1326.75 1830.56,1316.35 1832.51,1305.12 1834.46,1293.09 1836.41,1280.26 1838.36,1266.66 1840.31,1252.3 1842.25,1237.22 1844.2,1221.42 
  1846.15,1204.92 1848.1,1187.76 1850.05,1169.96 1852,1151.54 1853.94,1132.53 1855.89,1112.95 1857.84,1092.84 1859.79,1072.22 1861.74,1051.11 1863.69,1029.57 
  1865.64,1007.6 1867.58,985.245 1869.53,962.534 1871.48,939.496 1873.43,916.166 1875.38,892.583 1877.33,868.775 1879.27,844.772 1881.22,820.624 1883.17,796.343 
  1885.12,771.985 1887.07,747.567 1889.02,723.133 1890.97,698.717 1892.91,674.343 1894.86,650.067 1896.81,625.907 1898.76,601.87 1900.71,578.057 1902.66,554.444 
  1904.61,531.085 1906.55,508.055 1908.5,485.295 1910.45,462.946 1912.4,440.933 1914.35,419.389 1916.3,398.248 1918.24,377.631 1920.19,357.493 1922.14,337.909 
  1924.09,318.895 1926.04,300.46 1927.99,282.652 1929.94,265.492 1931.88,249.004 1933.83,233.206 1935.78,218.123 1937.73,203.774 1939.68,190.183 1941.63,177.362 
  1943.57,165.339 1945.52,154.125 1947.47,143.734 1949.42,134.184 1951.37,125.49 1953.32,117.664 1955.27,110.714 1957.21,104.651 1959.16,99.4858 1961.11,95.2233 
  1963.06,91.8677 1965.01,89.4233 1966.96,87.896 1968.91,87.2887 1970.85,87.6013 1972.8,88.8343 1974.75,90.9838 1976.7,94.0492 1978.65,98.0255 1980.6,102.909 
  1982.54,108.692 1984.49,115.368 1986.44,122.925 1988.39,131.352 1990.34,140.635 1992.29,150.763 1994.24,161.721 1996.18,173.495 1998.13,186.068 2000.08,199.42 
  2002.03,213.536 2003.98,228.394 2005.93,243.973 2007.87,260.25 2009.82,277.204 2011.77,294.811 2013.72,313.045 2015.67,331.883 2017.62,351.295 2019.57,371.25 
  2021.51,391.73 2023.46,412.7 2025.41,434.126 2027.36,455.98 2029.31,478.233 2031.26,500.85 2033.2,523.798 2035.15,547.056 2037.1,570.584 2039.05,594.346 
  2041,618.308 2042.95,642.445 2044.9,666.706 2046.84,691.073 2048.79,715.497 2050.74,739.954 2052.69,764.403 2054.64,788.807 2056.59,813.14 2058.54,837.36 
  2060.48,861.438 2062.43,885.361 2064.38,909.038 2066.33,932.488 2068.28,955.663 2070.23,978.5 2072.17,1001.03 2074.12,1023.13 2076.07,1044.88 2078.02,1066.13 
  2079.97,1086.96 2081.92,1107.26 2083.87,1127.04 2085.81,1146.27 2087.76,1164.9 2089.71,1182.92 2091.66,1200.32 2093.61,1217.05 2095.56,1233.09 2097.5,1248.42 
  2099.45,1263.03 2101.4,1276.88 2103.35,1289.96 2105.3,1302.25 2107.25,1313.74 2109.2,1324.4 2111.14,1334.23 2113.09,1343.21 2115.04,1351.33 2116.99,1358.57 
  2118.94,1364.92 2120.89,1370.38 2122.84,1374.94 2124.78,1378.59 2126.73,1381.32 2128.68,1383.14 2130.63,1384.04 2132.58,1384.02 2134.53,1383.07 2136.47,1381.21 
  2138.42,1378.43 2140.37,1374.73 2142.32,1370.13 2144.27,1364.63 2146.22,1358.23 2148.17,1350.95 2150.11,1342.8 2152.06,1333.78 2154.01,1323.92 2155.96,1313.22 
  2157.91,1301.7 2159.86,1289.37 2161.8,1276.26 2163.75,1262.38 2165.7,1247.74 2167.65,1232.39 2169.6,1216.32 2171.55,1199.57 2173.5,1182.16 2175.44,1164.11 
  2177.39,1145.46 2179.34,1126.23 2181.29,1106.44 2183.24,1086.12 2185.19,1065.29 2187.14,1044.01 2189.08,1022.28 2191.03,1000.14 2192.98,977.628 2194.93,954.772 
  2196.88,931.606 2198.83,908.155 2200.77,884.459 2202.72,860.553 2204.67,836.466 2206.62,812.236 2208.57,787.895 2210.52,763.48 2212.47,739.028 2214.41,714.569 
  2216.36,690.144 2218.31,665.785 2220.26,641.512 2222.21,617.387 2224.16,593.406 2226.1,569.624 2228.05,546.108 2230,522.814 2231.95,499.865 2233.9,477.213 
  2235.85,454.953 2237.8,433.07 2239.74,411.637 2241.69,390.645 2243.64,370.163 2245.59,350.184 2247.54,330.754 2249.49,311.906 2251.43,293.662 2253.38,276.048 
  2255.33,259.084 2257.28,242.801 2259.23,227.219 2261.18,212.355 2263.13,198.236 2265.07,184.885 2267.02,172.313 2268.97,160.545 2270.92,149.593 2272.87,139.474 
  2274.82,130.2 2276.77,121.787 2278.71,114.245 2280.66,107.589 2282.61,101.824 2284.56,96.959 2286.51,93.0019 2288.46,89.9586 2290.4,87.8305 2292.35,86.6235 
  2294.3,86.339 
  "/>
<path clip-path="url(#clip160)" d="
M1964.03 248.629 L2283.91 248.629 L2283.91 93.1086 L1964.03 93.1086  Z
  " fill="#000000" fill-rule="evenodd" fill-opacity="0"/>
<polyline clip-path="url(#clip160)" style="stroke:#000000; stroke-linecap:butt; stroke-linejoin:round; stroke-width:4; stroke-opacity:1; fill:none" points="
  1964.03,248.629 2283.91,248.629 2283.91,93.1086 1964.03,93.1086 1964.03,248.629 
  "/>
<polyline clip-path="url(#clip160)" style="stroke:#009af9; stroke-linecap:butt; stroke-linejoin:round; stroke-width:4; stroke-opacity:1; fill:none" points="
  1986.98,144.949 2124.67,144.949 
  "/>
<path clip-path="url(#clip160)" d="M2147.62 127.669 L2154.59 127.669 L2163.41 151.187 L2172.27 127.669 L2179.24 127.669 L2179.24 162.229 L2174.68 162.229 L2174.68 131.882 L2165.77 155.585 L2161.07 155.585 L2152.16 131.882 L2152.16 162.229 L2147.62 162.229 L2147.62 127.669 Z" fill="#000000" fill-rule="evenodd" fill-opacity="1" /><path clip-path="url(#clip160)" d="M2200.07 132.275 L2193.73 149.474 L2206.44 149.474 L2200.07 132.275 M2197.43 127.669 L2202.73 127.669 L2215.91 162.229 L2211.04 162.229 L2207.9 153.363 L2192.32 153.363 L2189.17 162.229 L2184.24 162.229 L2197.43 127.669 Z" fill="#000000" fill-rule="evenodd" fill-opacity="1" /><polyline clip-path="url(#clip160)" style="stroke:#ff0000; stroke-linecap:butt; stroke-linejoin:round; stroke-width:4; stroke-opacity:1; fill:none" stroke-dasharray="16, 10" points="
  1986.98,196.789 2124.67,196.789 
  "/>
<path clip-path="url(#clip160)" d="M2169.86 180.643 L2169.86 185.203 Q2167.2 183.93 2164.84 183.305 Q2162.48 182.68 2160.28 182.68 Q2156.46 182.68 2154.38 184.161 Q2152.32 185.643 2152.32 188.374 Q2152.32 190.666 2153.68 191.847 Q2155.07 193.004 2158.92 193.722 L2161.74 194.3 Q2166.97 195.296 2169.45 197.819 Q2171.95 200.319 2171.95 204.532 Q2171.95 209.555 2168.57 212.147 Q2165.21 214.74 2158.71 214.74 Q2156.25 214.74 2153.48 214.184 Q2150.72 213.629 2147.76 212.541 L2147.76 207.726 Q2150.61 209.323 2153.34 210.133 Q2156.07 210.944 2158.71 210.944 Q2162.71 210.944 2164.89 209.37 Q2167.06 207.796 2167.06 204.879 Q2167.06 202.333 2165.49 200.897 Q2163.94 199.462 2160.37 198.745 L2157.53 198.189 Q2152.29 197.147 2149.96 194.925 Q2147.62 192.703 2147.62 188.745 Q2147.62 184.161 2150.84 181.522 Q2154.08 178.884 2159.75 178.884 Q2162.18 178.884 2164.7 179.323 Q2167.23 179.763 2169.86 180.643 Z" fill="#000000" fill-rule="evenodd" fill-opacity="1" /><path clip-path="url(#clip160)" d="M2183.92 183.351 L2183.92 210.226 L2189.56 210.226 Q2196.72 210.226 2200.03 206.985 Q2203.36 203.745 2203.36 196.754 Q2203.36 189.809 2200.03 186.592 Q2196.72 183.351 2189.56 183.351 L2183.92 183.351 M2179.24 179.509 L2188.85 179.509 Q2198.89 179.509 2203.59 183.698 Q2208.29 187.865 2208.29 196.754 Q2208.29 205.689 2203.57 209.879 Q2198.85 214.069 2188.85 214.069 L2179.24 214.069 L2179.24 179.509 Z" fill="#000000" fill-rule="evenodd" fill-opacity="1" /><path clip-path="url(#clip160)" d="M2215.74 179.509 L2237.6 179.509 L2237.6 183.444 L2220.42 183.444 L2220.42 193.675 L2236.88 193.675 L2236.88 197.61 L2220.42 197.61 L2220.42 210.133 L2238.01 210.133 L2238.01 214.069 L2215.74 214.069 L2215.74 179.509 Z" fill="#000000" fill-rule="evenodd" fill-opacity="1" /></svg>
