<?xml version="1.0" encoding="utf-8"?>
<svg xmlns="http://www.w3.org/2000/svg" xmlns:xlink="http://www.w3.org/1999/xlink" width="600" height="400" viewBox="0 0 2400 1600">
<defs>
  <clipPath id="clip830">
    <rect x="0" y="0" width="2400" height="1600"/>
  </clipPath>
</defs>
<path clip-path="url(#clip830)" d="
M0 1600 L2400 1600 L2400 0 L0 0  Z
  " fill="#ffffff" fill-rule="evenodd" fill-opacity="1"/>
<defs>
  <clipPath id="clip831">
    <rect x="480" y="0" width="1681" height="1600"/>
  </clipPath>
</defs>
<path clip-path="url(#clip830)" d="
M209.441 1418.86 L2352.76 1418.86 L2352.76 47.2441 L209.441 47.2441  Z
  " fill="#ffffff" fill-rule="evenodd" fill-opacity="1"/>
<defs>
  <clipPath id="clip832">
    <rect x="209" y="47" width="2144" height="1373"/>
  </clipPath>
</defs>
<polyline clip-path="url(#clip832)" style="stroke:#000000; stroke-linecap:butt; stroke-linejoin:round; stroke-width:2; stroke-opacity:0.1; fill:none" points="
  209.441,1418.86 209.441,47.2441 
  "/>
<polyline clip-path="url(#clip832)" style="stroke:#000000; stroke-linecap:butt; stroke-linejoin:round; stroke-width:2; stroke-opacity:0.1; fill:none" points="
  923.879,1418.86 923.879,47.2441 
  "/>
<polyline clip-path="url(#clip832)" style="stroke:#000000; stroke-linecap:butt; stroke-linejoin:round; stroke-width:2; stroke-opacity:0.1; fill:none" points="
  1638.32,1418.86 1638.32,47.2441 
  "/>
<polyline clip-path="url(#clip832)" style="stroke:#000000; stroke-linecap:butt; stroke-linejoin:round; stroke-width:2; stroke-opacity:0.1; fill:none" points="
  2352.76,1418.86 2352.76,47.2441 
  "/>
<polyline clip-path="url(#clip830)" style="stroke:#000000; stroke-linecap:butt; stroke-linejoin:round; stroke-width:4; stroke-opacity:1; fill:none" points="
  209.441,1418.86 2352.76,1418.86 
  "/>
<polyline clip-path="url(#clip830)" style="stroke:#000000; stroke-linecap:butt; stroke-linejoin:round; stroke-width:4; stroke-opacity:1; fill:none" points="
  209.441,1418.86 209.441,1402.4 
  "/>
<polyline clip-path="url(#clip830)" style="stroke:#000000; stroke-linecap:butt; stroke-linejoin:round; stroke-width:4; stroke-opacity:1; fill:none" points="
  923.879,1418.86 923.879,1402.4 
  "/>
<polyline clip-path="url(#clip830)" style="stroke:#000000; stroke-linecap:butt; stroke-linejoin:round; stroke-width:4; stroke-opacity:1; fill:none" points="
  1638.32,1418.86 1638.32,1402.4 
  "/>
<polyline clip-path="url(#clip830)" style="stroke:#000000; stroke-linecap:butt; stroke-linejoin:round; stroke-width:4; stroke-opacity:1; fill:none" points="
  2352.76,1418.86 2352.76,1402.4 
  "/>
<path clip-path="url(#clip830)" d="M209.441 1448.05 Q205.83 1448.05 204.001 1451.62 Q202.196 1455.16 202.196 1462.29 Q202.196 1469.39 204.001 1472.96 Q205.83 1476.5 209.441 1476.5 Q213.075 1476.5 214.881 1472.96 Q216.709 1469.39 216.709 1462.29 Q216.709 1455.16 214.881 1451.62 Q213.075 1448.05 209.441 1448.05 M209.441 1444.35 Q215.251 1444.35 218.307 1448.95 Q221.385 1453.54 221.385 1462.29 Q221.385 1471.01 218.307 1475.62 Q215.251 1480.2 209.441 1480.2 Q203.631 1480.2 200.552 1475.62 Q197.497 1471.01 197.497 1462.29 Q197.497 1453.54 200.552 1448.95 Q203.631 1444.35 209.441 1444.35 Z" fill="#000000" fill-rule="evenodd" fill-opacity="1" /><path clip-path="url(#clip830)" d="M914.157 1444.97 L932.513 1444.97 L932.513 1448.91 L918.439 1448.91 L918.439 1457.38 Q919.458 1457.03 920.477 1456.87 Q921.495 1456.68 922.514 1456.68 Q928.301 1456.68 931.68 1459.86 Q935.06 1463.03 935.06 1468.44 Q935.06 1474.02 931.588 1477.12 Q928.115 1480.2 921.796 1480.2 Q919.62 1480.2 917.352 1479.83 Q915.106 1479.46 912.699 1478.72 L912.699 1474.02 Q914.782 1475.16 917.004 1475.71 Q919.227 1476.27 921.703 1476.27 Q925.708 1476.27 928.046 1474.16 Q930.384 1472.06 930.384 1468.44 Q930.384 1464.83 928.046 1462.73 Q925.708 1460.62 921.703 1460.62 Q919.828 1460.62 917.953 1461.04 Q916.102 1461.45 914.157 1462.33 L914.157 1444.97 Z" fill="#000000" fill-rule="evenodd" fill-opacity="1" /><path clip-path="url(#clip830)" d="M1613.01 1475.6 L1620.64 1475.6 L1620.64 1449.23 L1612.33 1450.9 L1612.33 1446.64 L1620.6 1444.97 L1625.27 1444.97 L1625.27 1475.6 L1632.91 1475.6 L1632.91 1479.53 L1613.01 1479.53 L1613.01 1475.6 Z" fill="#000000" fill-rule="evenodd" fill-opacity="1" /><path clip-path="url(#clip830)" d="M1652.36 1448.05 Q1648.75 1448.05 1646.92 1451.62 Q1645.11 1455.16 1645.11 1462.29 Q1645.11 1469.39 1646.92 1472.96 Q1648.75 1476.5 1652.36 1476.5 Q1655.99 1476.5 1657.8 1472.96 Q1659.63 1469.39 1659.63 1462.29 Q1659.63 1455.16 1657.8 1451.62 Q1655.99 1448.05 1652.36 1448.05 M1652.36 1444.35 Q1658.17 1444.35 1661.22 1448.95 Q1664.3 1453.54 1664.3 1462.29 Q1664.3 1471.01 1661.22 1475.62 Q1658.17 1480.2 1652.36 1480.2 Q1646.55 1480.2 1643.47 1475.62 Q1640.41 1471.01 1640.41 1462.29 Q1640.41 1453.54 1643.47 1448.95 Q1646.55 1444.35 1652.36 1444.35 Z" fill="#000000" fill-rule="evenodd" fill-opacity="1" /><path clip-path="url(#clip830)" d="M2327.94 1475.6 L2335.58 1475.6 L2335.58 1449.23 L2327.27 1450.9 L2327.27 1446.64 L2335.53 1444.97 L2340.21 1444.97 L2340.21 1475.6 L2347.85 1475.6 L2347.85 1479.53 L2327.94 1479.53 L2327.94 1475.6 Z" fill="#000000" fill-rule="evenodd" fill-opacity="1" /><path clip-path="url(#clip830)" d="M2357.34 1444.97 L2375.7 1444.97 L2375.7 1448.91 L2361.62 1448.91 L2361.62 1457.38 Q2362.64 1457.03 2363.66 1456.87 Q2364.68 1456.68 2365.7 1456.68 Q2371.48 1456.68 2374.86 1459.86 Q2378.24 1463.03 2378.24 1468.44 Q2378.24 1474.02 2374.77 1477.12 Q2371.3 1480.2 2364.98 1480.2 Q2362.8 1480.2 2360.53 1479.83 Q2358.29 1479.46 2355.88 1478.72 L2355.88 1474.02 Q2357.96 1475.16 2360.19 1475.71 Q2362.41 1476.27 2364.89 1476.27 Q2368.89 1476.27 2371.23 1474.16 Q2373.57 1472.06 2373.57 1468.44 Q2373.57 1464.83 2371.23 1462.73 Q2368.89 1460.62 2364.89 1460.62 Q2363.01 1460.62 2361.14 1461.04 Q2359.28 1461.45 2357.34 1462.33 L2357.34 1444.97 Z" fill="#000000" fill-rule="evenodd" fill-opacity="1" /><path clip-path="url(#clip830)" d="M1214.73 1518.98 L1214.73 1530.02 L1227.89 1530.02 L1227.89 1534.98 L1214.73 1534.98 L1214.73 1556.1 Q1214.73 1560.85 1216.01 1562.21 Q1217.33 1563.56 1221.32 1563.56 L1227.89 1563.56 L1227.89 1568.91 L1221.32 1568.91 Q1213.93 1568.91 1211.12 1566.16 Q1208.3 1563.39 1208.3 1556.1 L1208.3 1534.98 L1203.62 1534.98 L1203.62 1530.02 L1208.3 1530.02 L1208.3 1518.98 L1214.73 1518.98 Z" fill="#000000" fill-rule="evenodd" fill-opacity="1" /><path clip-path="url(#clip830)" d="M1236.29 1530.02 L1242.68 1530.02 L1242.68 1568.91 L1236.29 1568.91 L1236.29 1530.02 M1236.29 1514.88 L1242.68 1514.88 L1242.68 1522.97 L1236.29 1522.97 L1236.29 1514.88 Z" fill="#000000" fill-rule="evenodd" fill-opacity="1" /><path clip-path="url(#clip830)" d="M1286.32 1537.48 Q1288.72 1533.18 1292.05 1531.13 Q1295.39 1529.08 1299.9 1529.08 Q1305.98 1529.08 1309.28 1533.35 Q1312.57 1537.59 1312.57 1545.44 L1312.57 1568.91 L1306.15 1568.91 L1306.15 1545.64 Q1306.15 1540.05 1304.17 1537.35 Q1302.19 1534.64 1298.13 1534.64 Q1293.16 1534.64 1290.28 1537.94 Q1287.4 1541.23 1287.4 1546.93 L1287.4 1568.91 L1280.98 1568.91 L1280.98 1545.64 Q1280.98 1540.02 1279 1537.35 Q1277.02 1534.64 1272.89 1534.64 Q1267.99 1534.64 1265.11 1537.97 Q1262.23 1541.27 1262.23 1546.93 L1262.23 1568.91 L1255.8 1568.91 L1255.8 1530.02 L1262.23 1530.02 L1262.23 1536.06 Q1264.41 1532.48 1267.47 1530.78 Q1270.53 1529.08 1274.73 1529.08 Q1278.96 1529.08 1281.91 1531.23 Q1284.9 1533.39 1286.32 1537.48 Z" fill="#000000" fill-rule="evenodd" fill-opacity="1" /><path clip-path="url(#clip830)" d="M1358.58 1547.87 L1358.58 1550.99 L1329.21 1550.99 Q1329.62 1557.59 1333.16 1561.06 Q1336.74 1564.5 1343.09 1564.5 Q1346.78 1564.5 1350.21 1563.6 Q1353.68 1562.69 1357.09 1560.89 L1357.09 1566.93 Q1353.65 1568.39 1350.04 1569.15 Q1346.43 1569.91 1342.71 1569.91 Q1333.41 1569.91 1327.96 1564.5 Q1322.54 1559.08 1322.54 1549.85 Q1322.54 1540.3 1327.68 1534.71 Q1332.85 1529.08 1341.6 1529.08 Q1349.45 1529.08 1354 1534.15 Q1358.58 1539.19 1358.58 1547.87 M1352.19 1545.99 Q1352.12 1540.75 1349.24 1537.62 Q1346.39 1534.5 1341.67 1534.5 Q1336.32 1534.5 1333.09 1537.52 Q1329.9 1540.54 1329.41 1546.03 L1352.19 1545.99 Z" fill="#000000" fill-rule="evenodd" fill-opacity="1" /><polyline clip-path="url(#clip832)" style="stroke:#000000; stroke-linecap:butt; stroke-linejoin:round; stroke-width:2; stroke-opacity:0.1; fill:none" points="
  209.441,1380.04 2352.76,1380.04 
  "/>
<polyline clip-path="url(#clip832)" style="stroke:#000000; stroke-linecap:butt; stroke-linejoin:round; stroke-width:2; stroke-opacity:0.1; fill:none" points="
  209.441,1121.07 2352.76,1121.07 
  "/>
<polyline clip-path="url(#clip832)" style="stroke:#000000; stroke-linecap:butt; stroke-linejoin:round; stroke-width:2; stroke-opacity:0.1; fill:none" points="
  209.441,862.106 2352.76,862.106 
  "/>
<polyline clip-path="url(#clip832)" style="stroke:#000000; stroke-linecap:butt; stroke-linejoin:round; stroke-width:2; stroke-opacity:0.1; fill:none" points="
  209.441,603.138 2352.76,603.138 
  "/>
<polyline clip-path="url(#clip832)" style="stroke:#000000; stroke-linecap:butt; stroke-linejoin:round; stroke-width:2; stroke-opacity:0.1; fill:none" points="
  209.441,344.171 2352.76,344.171 
  "/>
<polyline clip-path="url(#clip832)" style="stroke:#000000; stroke-linecap:butt; stroke-linejoin:round; stroke-width:2; stroke-opacity:0.1; fill:none" points="
  209.441,85.2036 2352.76,85.2036 
  "/>
<polyline clip-path="url(#clip830)" style="stroke:#000000; stroke-linecap:butt; stroke-linejoin:round; stroke-width:4; stroke-opacity:1; fill:none" points="
  209.441,1418.86 209.441,47.2441 
  "/>
<polyline clip-path="url(#clip830)" style="stroke:#000000; stroke-linecap:butt; stroke-linejoin:round; stroke-width:4; stroke-opacity:1; fill:none" points="
  209.441,1380.04 235.161,1380.04 
  "/>
<polyline clip-path="url(#clip830)" style="stroke:#000000; stroke-linecap:butt; stroke-linejoin:round; stroke-width:4; stroke-opacity:1; fill:none" points="
  209.441,1121.07 235.161,1121.07 
  "/>
<polyline clip-path="url(#clip830)" style="stroke:#000000; stroke-linecap:butt; stroke-linejoin:round; stroke-width:4; stroke-opacity:1; fill:none" points="
  209.441,862.106 235.161,862.106 
  "/>
<polyline clip-path="url(#clip830)" style="stroke:#000000; stroke-linecap:butt; stroke-linejoin:round; stroke-width:4; stroke-opacity:1; fill:none" points="
  209.441,603.138 235.161,603.138 
  "/>
<polyline clip-path="url(#clip830)" style="stroke:#000000; stroke-linecap:butt; stroke-linejoin:round; stroke-width:4; stroke-opacity:1; fill:none" points="
  209.441,344.171 235.161,344.171 
  "/>
<polyline clip-path="url(#clip830)" style="stroke:#000000; stroke-linecap:butt; stroke-linejoin:round; stroke-width:4; stroke-opacity:1; fill:none" points="
  209.441,85.2036 235.161,85.2036 
  "/>
<path clip-path="url(#clip830)" d="M161.497 1365.84 Q157.886 1365.84 156.057 1369.4 Q154.251 1372.95 154.251 1380.08 Q154.251 1387.18 156.057 1390.75 Q157.886 1394.29 161.497 1394.29 Q165.131 1394.29 166.936 1390.75 Q168.765 1387.18 168.765 1380.08 Q168.765 1372.95 166.936 1369.4 Q165.131 1365.84 161.497 1365.84 M161.497 1362.14 Q167.307 1362.14 170.362 1366.74 Q173.441 1371.33 173.441 1380.08 Q173.441 1388.8 170.362 1393.41 Q167.307 1397.99 161.497 1397.99 Q155.686 1397.99 152.608 1393.41 Q149.552 1388.8 149.552 1380.08 Q149.552 1371.33 152.608 1366.74 Q155.686 1362.14 161.497 1362.14 Z" fill="#000000" fill-rule="evenodd" fill-opacity="1" /><path clip-path="url(#clip830)" d="M122.145 1134.42 L129.784 1134.42 L129.784 1108.05 L121.474 1109.72 L121.474 1105.46 L129.738 1103.79 L134.413 1103.79 L134.413 1134.42 L142.052 1134.42 L142.052 1138.35 L122.145 1138.35 L122.145 1134.42 Z" fill="#000000" fill-rule="evenodd" fill-opacity="1" /><path clip-path="url(#clip830)" d="M161.497 1106.87 Q157.886 1106.87 156.057 1110.44 Q154.251 1113.98 154.251 1121.11 Q154.251 1128.21 156.057 1131.78 Q157.886 1135.32 161.497 1135.32 Q165.131 1135.32 166.936 1131.78 Q168.765 1128.21 168.765 1121.11 Q168.765 1113.98 166.936 1110.44 Q165.131 1106.87 161.497 1106.87 M161.497 1103.17 Q167.307 1103.17 170.362 1107.77 Q173.441 1112.36 173.441 1121.11 Q173.441 1129.83 170.362 1134.44 Q167.307 1139.02 161.497 1139.02 Q155.686 1139.02 152.608 1134.44 Q149.552 1129.83 149.552 1121.11 Q149.552 1112.36 152.608 1107.77 Q155.686 1103.17 161.497 1103.17 Z" fill="#000000" fill-rule="evenodd" fill-opacity="1" /><path clip-path="url(#clip830)" d="M125.363 875.451 L141.682 875.451 L141.682 879.386 L119.738 879.386 L119.738 875.451 Q122.4 872.696 126.983 868.066 Q131.589 863.414 132.77 862.071 Q135.015 859.548 135.895 857.812 Q136.798 856.053 136.798 854.363 Q136.798 851.608 134.853 849.872 Q132.932 848.136 129.83 848.136 Q127.631 848.136 125.177 848.9 Q122.747 849.664 119.969 851.215 L119.969 846.492 Q122.793 845.358 125.247 844.779 Q127.7 844.201 129.738 844.201 Q135.108 844.201 138.302 846.886 Q141.497 849.571 141.497 854.062 Q141.497 856.191 140.687 858.113 Q139.899 860.011 137.793 862.603 Q137.214 863.275 134.112 866.492 Q131.011 869.687 125.363 875.451 Z" fill="#000000" fill-rule="evenodd" fill-opacity="1" /><path clip-path="url(#clip830)" d="M161.497 847.904 Q157.886 847.904 156.057 851.469 Q154.251 855.011 154.251 862.14 Q154.251 869.247 156.057 872.812 Q157.886 876.353 161.497 876.353 Q165.131 876.353 166.936 872.812 Q168.765 869.247 168.765 862.14 Q168.765 855.011 166.936 851.469 Q165.131 847.904 161.497 847.904 M161.497 844.201 Q167.307 844.201 170.362 848.807 Q173.441 853.391 173.441 862.14 Q173.441 870.867 170.362 875.474 Q167.307 880.057 161.497 880.057 Q155.686 880.057 152.608 875.474 Q149.552 870.867 149.552 862.14 Q149.552 853.391 152.608 848.807 Q155.686 844.201 161.497 844.201 Z" fill="#000000" fill-rule="evenodd" fill-opacity="1" /><path clip-path="url(#clip830)" d="M135.501 601.784 Q138.858 602.502 140.733 604.77 Q142.631 607.039 142.631 610.372 Q142.631 615.488 139.112 618.289 Q135.594 621.09 129.113 621.09 Q126.937 621.09 124.622 620.65 Q122.33 620.233 119.876 619.377 L119.876 614.863 Q121.821 615.997 124.136 616.576 Q126.45 617.155 128.974 617.155 Q133.372 617.155 135.663 615.418 Q137.978 613.682 137.978 610.372 Q137.978 607.317 135.825 605.604 Q133.696 603.868 129.876 603.868 L125.849 603.868 L125.849 600.025 L130.062 600.025 Q133.511 600.025 135.339 598.659 Q137.168 597.27 137.168 594.678 Q137.168 592.016 135.27 590.604 Q133.395 589.169 129.876 589.169 Q127.955 589.169 125.756 589.585 Q123.557 590.002 120.918 590.882 L120.918 586.715 Q123.58 585.974 125.895 585.604 Q128.233 585.233 130.293 585.233 Q135.617 585.233 138.719 587.664 Q141.821 590.071 141.821 594.192 Q141.821 597.062 140.177 599.053 Q138.534 601.02 135.501 601.784 Z" fill="#000000" fill-rule="evenodd" fill-opacity="1" /><path clip-path="url(#clip830)" d="M161.497 588.937 Q157.886 588.937 156.057 592.502 Q154.251 596.044 154.251 603.173 Q154.251 610.28 156.057 613.844 Q157.886 617.386 161.497 617.386 Q165.131 617.386 166.936 613.844 Q168.765 610.28 168.765 603.173 Q168.765 596.044 166.936 592.502 Q165.131 588.937 161.497 588.937 M161.497 585.233 Q167.307 585.233 170.362 589.84 Q173.441 594.423 173.441 603.173 Q173.441 611.9 170.362 616.506 Q167.307 621.09 161.497 621.09 Q155.686 621.09 152.608 616.506 Q149.552 611.9 149.552 603.173 Q149.552 594.423 152.608 589.84 Q155.686 585.233 161.497 585.233 Z" fill="#000000" fill-rule="evenodd" fill-opacity="1" /><path clip-path="url(#clip830)" d="M134.182 330.965 L122.376 349.414 L134.182 349.414 L134.182 330.965 M132.955 326.891 L138.835 326.891 L138.835 349.414 L143.765 349.414 L143.765 353.303 L138.835 353.303 L138.835 361.451 L134.182 361.451 L134.182 353.303 L118.58 353.303 L118.58 348.789 L132.955 326.891 Z" fill="#000000" fill-rule="evenodd" fill-opacity="1" /><path clip-path="url(#clip830)" d="M161.497 329.97 Q157.886 329.97 156.057 333.534 Q154.251 337.076 154.251 344.206 Q154.251 351.312 156.057 354.877 Q157.886 358.419 161.497 358.419 Q165.131 358.419 166.936 354.877 Q168.765 351.312 168.765 344.206 Q168.765 337.076 166.936 333.534 Q165.131 329.97 161.497 329.97 M161.497 326.266 Q167.307 326.266 170.362 330.872 Q173.441 335.456 173.441 344.206 Q173.441 352.933 170.362 357.539 Q167.307 362.122 161.497 362.122 Q155.686 362.122 152.608 357.539 Q149.552 352.933 149.552 344.206 Q149.552 335.456 152.608 330.872 Q155.686 326.266 161.497 326.266 Z" fill="#000000" fill-rule="evenodd" fill-opacity="1" /><path clip-path="url(#clip830)" d="M121.381 67.9236 L139.737 67.9236 L139.737 71.8588 L125.663 71.8588 L125.663 80.331 Q126.682 79.9837 127.7 79.8217 Q128.719 79.6365 129.738 79.6365 Q135.525 79.6365 138.904 82.8078 Q142.284 85.9791 142.284 91.3957 Q142.284 96.9744 138.812 100.076 Q135.339 103.155 129.02 103.155 Q126.844 103.155 124.575 102.785 Q122.33 102.414 119.923 101.673 L119.923 96.9744 Q122.006 98.1086 124.228 98.6642 Q126.45 99.2198 128.927 99.2198 Q132.932 99.2198 135.27 97.1133 Q137.608 95.0068 137.608 91.3957 Q137.608 87.7846 135.27 85.6782 Q132.932 83.5717 128.927 83.5717 Q127.052 83.5717 125.177 83.9884 Q123.326 84.405 121.381 85.2846 L121.381 67.9236 Z" fill="#000000" fill-rule="evenodd" fill-opacity="1" /><path clip-path="url(#clip830)" d="M161.497 71.0023 Q157.886 71.0023 156.057 74.5671 Q154.251 78.1088 154.251 85.2383 Q154.251 92.3448 156.057 95.9096 Q157.886 99.4512 161.497 99.4512 Q165.131 99.4512 166.936 95.9096 Q168.765 92.3448 168.765 85.2383 Q168.765 78.1088 166.936 74.5671 Q165.131 71.0023 161.497 71.0023 M161.497 67.2986 Q167.307 67.2986 170.362 71.9051 Q173.441 76.4884 173.441 85.2383 Q173.441 93.9651 170.362 98.5716 Q167.307 103.155 161.497 103.155 Q155.686 103.155 152.608 98.5716 Q149.552 93.9651 149.552 85.2383 Q149.552 76.4884 152.608 71.9051 Q155.686 67.2986 161.497 67.2986 Z" fill="#000000" fill-rule="evenodd" fill-opacity="1" /><path clip-path="url(#clip830)" d="M44.7366 777.01 L13.0701 767.218 L13.0701 761.316 L44.7366 771.107 L76.4031 761.316 L76.4031 767.218 L44.7366 777.01 Z" fill="#000000" fill-rule="evenodd" fill-opacity="1" /><path clip-path="url(#clip830)" d="M61.1949 742.739 L81.8197 742.739 L81.8197 749.163 L28.1395 749.163 L28.1395 742.739 L34.0422 742.739 Q30.57 740.726 28.9034 737.67 Q27.202 734.58 27.202 730.309 Q27.202 723.226 32.827 718.816 Q38.4519 714.372 47.6185 714.372 Q56.7852 714.372 62.4101 718.816 Q68.0351 723.226 68.0351 730.309 Q68.0351 734.58 66.3684 737.67 Q64.6671 740.726 61.1949 742.739 M47.6185 721.003 Q40.57 721.003 36.5769 723.92 Q32.5492 726.802 32.5492 731.871 Q32.5492 736.941 36.5769 739.857 Q40.57 742.739 47.6185 742.739 Q54.6671 742.739 58.6949 739.857 Q62.6879 736.941 62.6879 731.871 Q62.6879 726.802 58.6949 723.92 Q54.6671 721.003 47.6185 721.003 Z" fill="#000000" fill-rule="evenodd" fill-opacity="1" /><path clip-path="url(#clip830)" d="M44.7366 689.094 L76.4031 698.885 L76.4031 704.788 L44.7366 694.997 L13.0701 704.788 L13.0701 698.885 L44.7366 689.094 Z" fill="#000000" fill-rule="evenodd" fill-opacity="1" /><polyline clip-path="url(#clip832)" style="stroke:#009af9; stroke-linecap:butt; stroke-linejoin:round; stroke-width:4; stroke-opacity:1; fill:none" points="
  209.441,1380.01 223.73,1232.19 238.019,1098.62 252.307,978.129 266.596,869.611 280.885,772.055 295.174,684.523 309.462,606.144 323.751,536.117 338.04,473.719 
  352.329,418.262 366.617,369.132 380.906,325.743 395.195,287.564 409.484,254.1 423.772,224.902 438.061,199.556 452.35,177.685 466.639,158.945 480.928,143.014 
  495.216,129.606 509.505,118.468 523.794,109.345 538.083,102.015 552.371,96.2946 566.66,92.0153 580.949,88.9848 595.238,87.0656 609.526,86.1311 623.815,86.0634 
  638.104,86.7403 652.393,88.0663 666.681,89.9476 680.97,92.3016 695.259,95.0667 709.548,98.1665 723.837,101.536 738.125,105.128 752.414,108.905 766.703,112.817 
  780.992,116.827 795.28,120.907 809.569,125.031 823.858,129.174 838.147,133.315 852.435,137.438 866.724,141.526 881.013,145.565 895.302,149.544 909.591,153.456 
  923.879,157.289 938.168,161.036 952.457,164.689 966.746,168.249 981.034,171.709 995.323,175.063 1009.61,178.312 1023.9,181.457 1038.19,184.494 1052.48,187.424 
  1066.77,190.249 1081.06,192.969 1095.34,195.585 1109.63,198.094 1123.92,200.502 1138.21,202.813 1152.5,205.031 1166.79,207.162 1181.08,209.208 1195.37,211.154 
  1209.65,213.015 1223.94,214.797 1238.23,216.503 1252.52,218.138 1266.81,219.708 1281.1,221.197 1295.39,222.618 1309.68,223.976 1323.96,225.272 1338.25,226.511 
  1352.54,227.696 1366.83,228.824 1381.12,229.897 1395.41,230.919 1409.7,231.892 1423.99,232.819 1438.27,233.702 1452.56,234.541 1466.85,235.339 1481.14,236.098 
  1495.43,236.819 1509.72,237.504 1524.01,238.154 1538.3,238.771 1552.58,239.356 1566.87,239.911 1581.16,240.437 1595.45,240.936 1609.74,241.41 1624.03,241.859 
  1638.32,242.286 1652.61,242.689 1666.9,243.072 1681.18,243.434 1695.47,243.777 1709.76,244.102 1724.05,244.408 1738.34,244.698 1752.63,244.975 1766.92,245.236 
  1781.21,245.483 1795.49,245.717 1809.78,245.939 1824.07,246.148 1838.36,246.346 1852.65,246.533 1866.94,246.709 1881.23,246.875 1895.52,247.033 1909.8,247.183 
  1924.09,247.325 1938.38,247.459 1952.67,247.586 1966.96,247.705 1981.25,247.817 1995.54,247.923 2009.83,248.021 2024.11,248.114 2038.4,248.201 2052.69,248.286 
  2066.98,248.365 2081.27,248.44 2095.56,248.511 2109.85,248.577 2124.14,248.639 2138.42,248.697 2152.71,248.751 2167,248.8 2181.29,248.847 2195.58,248.894 
  2209.87,248.938 2224.16,248.979 2238.45,249.018 2252.73,249.054 2267.02,249.088 2281.31,249.12 2295.6,249.15 2309.89,249.177 2324.18,249.202 2338.47,249.224 
  2352.76,249.244 
  "/>
<polyline clip-path="url(#clip832)" style="stroke:#e26f46; stroke-linecap:butt; stroke-linejoin:round; stroke-width:4; stroke-opacity:1; fill:none" points="
  209.441,1380.04 223.73,1232.23 238.019,1098.73 252.307,978.341 266.596,869.958 280.885,772.558 295.174,685.196 309.462,606.999 323.751,537.163 338.04,474.946 
  352.329,419.665 366.617,370.689 380.906,327.438 395.195,289.38 409.484,256.026 423.772,226.925 438.061,201.666 452.35,179.872 466.639,161.196 480.928,145.323 
  495.216,131.965 509.505,120.859 523.794,111.764 538.083,104.462 552.371,98.7554 566.66,94.4627 580.949,91.4208 595.238,89.4816 609.526,88.5109 623.815,88.3873 
  638.104,89.0006 652.393,90.2529 666.681,92.0537 680.97,94.326 695.259,96.9961 709.548,100.002 723.837,103.286 738.125,106.796 752.414,110.488 766.703,114.321 
  780.992,118.258 795.28,122.267 809.569,126.32 823.858,130.395 838.147,134.468 852.435,138.52 866.724,142.54 881.013,146.513 895.302,150.424 909.591,154.268 
  923.879,158.035 938.168,161.711 952.457,165.297 966.746,168.789 981.034,172.188 995.323,175.482 1009.61,178.669 1023.9,181.753 1038.19,184.738 1052.48,187.628 
  1066.77,190.408 1081.06,193.088 1095.34,195.669 1109.63,198.154 1123.92,200.546 1138.21,202.843 1152.5,205.048 1166.79,207.164 1181.08,209.19 1195.37,211.129 
  1209.65,212.988 1223.94,214.765 1238.23,216.462 1252.52,218.081 1266.81,219.626 1281.1,221.1 1295.39,222.506 1309.68,223.845 1323.96,225.12 1338.25,226.334 
  1352.54,227.49 1366.83,228.59 1381.12,229.638 1395.41,230.635 1409.7,231.581 1423.99,232.481 1438.27,233.337 1452.56,234.15 1466.85,234.923 1481.14,235.657 
  1495.43,236.357 1509.72,237.021 1524.01,237.65 1538.3,238.248 1552.58,238.816 1566.87,239.355 1581.16,239.866 1595.45,240.352 1609.74,240.813 1624.03,241.25 
  1638.32,241.665 1652.61,242.058 1666.9,242.431 1681.18,242.784 1695.47,243.118 1709.76,243.435 1724.05,243.734 1738.34,244.018 1752.63,244.287 1766.92,244.542 
  1781.21,244.783 1795.49,245.01 1809.78,245.226 1824.07,245.429 1838.36,245.621 1852.65,245.803 1866.94,245.975 1881.23,246.138 1895.52,246.292 1909.8,246.437 
  1924.09,246.575 1938.38,246.705 1952.67,246.828 1966.96,246.945 1981.25,247.055 1995.54,247.159 2009.83,247.257 2024.11,247.35 2038.4,247.439 2052.69,247.523 
  2066.98,247.602 2081.27,247.677 2095.56,247.749 2109.85,247.817 2124.14,247.881 2138.42,247.943 2152.71,248.001 2167,248.057 2181.29,248.11 2195.58,248.161 
  2209.87,248.208 2224.16,248.254 2238.45,248.297 2252.73,248.337 2267.02,248.375 2281.31,248.411 2295.6,248.444 2309.89,248.475 2324.18,248.505 2338.47,248.532 
  2352.76,248.558 
  "/>
<path clip-path="url(#clip830)" d="
M1948.47 1373.14 L2281.31 1373.14 L2281.31 1217.62 L1948.47 1217.62  Z
  " fill="#ffffff" fill-rule="evenodd" fill-opacity="1"/>
<polyline clip-path="url(#clip830)" style="stroke:#000000; stroke-linecap:butt; stroke-linejoin:round; stroke-width:4; stroke-opacity:1; fill:none" points="
  1948.47,1373.14 2281.31,1373.14 2281.31,1217.62 1948.47,1217.62 1948.47,1373.14 
  "/>
<polyline clip-path="url(#clip830)" style="stroke:#009af9; stroke-linecap:butt; stroke-linejoin:round; stroke-width:4; stroke-opacity:1; fill:none" points="
  1972.28,1269.46 2115.17,1269.46 
  "/>
<path clip-path="url(#clip830)" d="M2138.98 1252.18 L2143.66 1252.18 L2143.66 1282.8 L2160.49 1282.8 L2160.49 1286.74 L2138.98 1286.74 L2138.98 1252.18 Z" fill="#000000" fill-rule="evenodd" fill-opacity="1" /><path clip-path="url(#clip830)" d="M2165.4 1252.18 L2172.36 1252.18 L2181.18 1275.7 L2190.05 1252.18 L2197.02 1252.18 L2197.02 1286.74 L2192.46 1286.74 L2192.46 1256.39 L2183.54 1280.1 L2178.85 1280.1 L2169.93 1256.39 L2169.93 1286.74 L2165.4 1286.74 L2165.4 1252.18 Z" fill="#000000" fill-rule="evenodd" fill-opacity="1" /><path clip-path="url(#clip830)" d="M2217.85 1256.79 L2211.51 1273.98 L2224.22 1273.98 L2217.85 1256.79 M2215.21 1252.18 L2220.51 1252.18 L2233.68 1286.74 L2228.82 1286.74 L2225.67 1277.87 L2210.1 1277.87 L2206.95 1286.74 L2202.02 1286.74 L2215.21 1252.18 Z" fill="#000000" fill-rule="evenodd" fill-opacity="1" /><polyline clip-path="url(#clip830)" style="stroke:#e26f46; stroke-linecap:butt; stroke-linejoin:round; stroke-width:4; stroke-opacity:1; fill:none" points="
  1972.28,1321.3 2115.17,1321.3 
  "/>
<path clip-path="url(#clip830)" d="M2138.98 1304.02 L2158.85 1304.02 L2158.85 1307.95 L2143.66 1307.95 L2143.66 1318.14 L2157.36 1318.14 L2157.36 1322.07 L2143.66 1322.07 L2143.66 1338.58 L2138.98 1338.58 L2138.98 1304.02 Z" fill="#000000" fill-rule="evenodd" fill-opacity="1" /><path clip-path="url(#clip830)" d="M2186.14 1305.15 L2186.14 1309.71 Q2183.47 1308.44 2181.11 1307.82 Q2178.75 1307.19 2176.55 1307.19 Q2172.73 1307.19 2170.65 1308.67 Q2168.59 1310.15 2168.59 1312.89 Q2168.59 1315.18 2169.96 1316.36 Q2171.35 1317.51 2175.19 1318.23 L2178.01 1318.81 Q2183.24 1319.81 2185.72 1322.33 Q2188.22 1324.83 2188.22 1329.04 Q2188.22 1334.07 2184.84 1336.66 Q2181.48 1339.25 2174.98 1339.25 Q2172.53 1339.25 2169.75 1338.7 Q2166.99 1338.14 2164.03 1337.05 L2164.03 1332.24 Q2166.88 1333.83 2169.61 1334.64 Q2172.34 1335.45 2174.98 1335.45 Q2178.98 1335.45 2181.16 1333.88 Q2183.34 1332.31 2183.34 1329.39 Q2183.34 1326.84 2181.76 1325.41 Q2180.21 1323.97 2176.65 1323.26 L2173.8 1322.7 Q2168.57 1321.66 2166.23 1319.44 Q2163.89 1317.21 2163.89 1313.26 Q2163.89 1308.67 2167.11 1306.03 Q2170.35 1303.39 2176.02 1303.39 Q2178.45 1303.39 2180.97 1303.83 Q2183.5 1304.27 2186.14 1305.15 Z" fill="#000000" fill-rule="evenodd" fill-opacity="1" /><path clip-path="url(#clip830)" d="M2200.19 1307.86 L2200.19 1320.85 L2206.07 1320.85 Q2209.33 1320.85 2211.11 1319.16 Q2212.9 1317.47 2212.9 1314.34 Q2212.9 1311.24 2211.11 1309.55 Q2209.33 1307.86 2206.07 1307.86 L2200.19 1307.86 M2195.51 1304.02 L2206.07 1304.02 Q2211.88 1304.02 2214.84 1306.66 Q2217.83 1309.27 2217.83 1314.34 Q2217.83 1319.46 2214.84 1322.07 Q2211.88 1324.69 2206.07 1324.69 L2200.19 1324.69 L2200.19 1338.58 L2195.51 1338.58 L2195.51 1304.02 Z" fill="#000000" fill-rule="evenodd" fill-opacity="1" /></svg>
