<?xml version="1.0" encoding="utf-8" standalone="no"?>
<!DOCTYPE svg PUBLIC "-//W3C//DTD SVG 1.1//EN"
  "http://www.w3.org/Graphics/SVG/1.1/DTD/svg11.dtd">
<!-- Created with matplotlib (http://matplotlib.org/) -->
<svg height="267.631875pt" version="1.1" viewBox="0 0 505.905812 267.631875" width="505.905812pt" xmlns="http://www.w3.org/2000/svg" xmlns:xlink="http://www.w3.org/1999/xlink">
 <defs>
  <style type="text/css">
*{stroke-linecap:butt;stroke-linejoin:round;}
  </style>
 </defs>
 <g id="figure_1">
  <g id="patch_1">
   <path d="M 0 267.631875 
L 505.905812 267.631875 
L 505.905812 0 
L 0 0 
z
" style="fill:#ffffff;"/>
  </g>
  <g id="axes_1">
   <g id="patch_2">
    <path d="M 42.53875 228.14 
L 488.93875 228.14 
L 488.93875 10.7 
L 42.53875 10.7 
z
" style="fill:#ffffff;"/>
   </g>
   <g id="matplotlib.axis_1">
    <g id="xtick_1">
     <g id="line2d_1">
      <defs>
       <path d="M 0 0 
L 0 3.5 
" id="m90baa3cbbf" style="stroke:#000000;stroke-width:0.8;"/>
      </defs>
      <g>
       <use style="stroke:#000000;stroke-width:0.8;" x="42.53875" xlink:href="#m90baa3cbbf" y="228.14"/>
      </g>
     </g>
     <g id="text_1">
      <!-- 0 -->
      <defs>
       <path d="M 31.78125 66.40625 
Q 24.171875 66.40625 20.328125 58.90625 
Q 16.5 51.421875 16.5 36.375 
Q 16.5 21.390625 20.328125 13.890625 
Q 24.171875 6.390625 31.78125 6.390625 
Q 39.453125 6.390625 43.28125 13.890625 
Q 47.125 21.390625 47.125 36.375 
Q 47.125 51.421875 43.28125 58.90625 
Q 39.453125 66.40625 31.78125 66.40625 
z
M 31.78125 74.21875 
Q 44.046875 74.21875 50.515625 64.515625 
Q 56.984375 54.828125 56.984375 36.375 
Q 56.984375 17.96875 50.515625 8.265625 
Q 44.046875 -1.421875 31.78125 -1.421875 
Q 19.53125 -1.421875 13.0625 8.265625 
Q 6.59375 17.96875 6.59375 36.375 
Q 6.59375 54.828125 13.0625 64.515625 
Q 19.53125 74.21875 31.78125 74.21875 
z
" id="DejaVuSans-30"/>
      </defs>
      <g transform="translate(39.3575 242.738437)scale(0.1 -0.1)">
       <use xlink:href="#DejaVuSans-30"/>
      </g>
     </g>
    </g>
    <g id="xtick_2">
     <g id="line2d_2">
      <g>
       <use style="stroke:#000000;stroke-width:0.8;" x="98.366664" xlink:href="#m90baa3cbbf" y="228.14"/>
      </g>
     </g>
     <g id="text_2">
      <!-- 25 -->
      <defs>
       <path d="M 19.1875 8.296875 
L 53.609375 8.296875 
L 53.609375 0 
L 7.328125 0 
L 7.328125 8.296875 
Q 12.9375 14.109375 22.625 23.890625 
Q 32.328125 33.6875 34.8125 36.53125 
Q 39.546875 41.84375 41.421875 45.53125 
Q 43.3125 49.21875 43.3125 52.78125 
Q 43.3125 58.59375 39.234375 62.25 
Q 35.15625 65.921875 28.609375 65.921875 
Q 23.96875 65.921875 18.8125 64.3125 
Q 13.671875 62.703125 7.8125 59.421875 
L 7.8125 69.390625 
Q 13.765625 71.78125 18.9375 73 
Q 24.125 74.21875 28.421875 74.21875 
Q 39.75 74.21875 46.484375 68.546875 
Q 53.21875 62.890625 53.21875 53.421875 
Q 53.21875 48.921875 51.53125 44.890625 
Q 49.859375 40.875 45.40625 35.40625 
Q 44.1875 33.984375 37.640625 27.21875 
Q 31.109375 20.453125 19.1875 8.296875 
z
" id="DejaVuSans-32"/>
       <path d="M 10.796875 72.90625 
L 49.515625 72.90625 
L 49.515625 64.59375 
L 19.828125 64.59375 
L 19.828125 46.734375 
Q 21.96875 47.46875 24.109375 47.828125 
Q 26.265625 48.1875 28.421875 48.1875 
Q 40.625 48.1875 47.75 41.5 
Q 54.890625 34.8125 54.890625 23.390625 
Q 54.890625 11.625 47.5625 5.09375 
Q 40.234375 -1.421875 26.90625 -1.421875 
Q 22.3125 -1.421875 17.546875 -0.640625 
Q 12.796875 0.140625 7.71875 1.703125 
L 7.71875 11.625 
Q 12.109375 9.234375 16.796875 8.0625 
Q 21.484375 6.890625 26.703125 6.890625 
Q 35.15625 6.890625 40.078125 11.328125 
Q 45.015625 15.765625 45.015625 23.390625 
Q 45.015625 31 40.078125 35.4375 
Q 35.15625 39.890625 26.703125 39.890625 
Q 22.75 39.890625 18.8125 39.015625 
Q 14.890625 38.140625 10.796875 36.28125 
z
" id="DejaVuSans-35"/>
      </defs>
      <g transform="translate(92.004164 242.738437)scale(0.1 -0.1)">
       <use xlink:href="#DejaVuSans-32"/>
       <use x="63.623047" xlink:href="#DejaVuSans-35"/>
      </g>
     </g>
    </g>
    <g id="xtick_3">
     <g id="line2d_3">
      <g>
       <use style="stroke:#000000;stroke-width:0.8;" x="154.194578" xlink:href="#m90baa3cbbf" y="228.14"/>
      </g>
     </g>
     <g id="text_3">
      <!-- 50 -->
      <g transform="translate(147.832078 242.738437)scale(0.1 -0.1)">
       <use xlink:href="#DejaVuSans-35"/>
       <use x="63.623047" xlink:href="#DejaVuSans-30"/>
      </g>
     </g>
    </g>
    <g id="xtick_4">
     <g id="line2d_4">
      <g>
       <use style="stroke:#000000;stroke-width:0.8;" x="210.022492" xlink:href="#m90baa3cbbf" y="228.14"/>
      </g>
     </g>
     <g id="text_4">
      <!-- 75 -->
      <defs>
       <path d="M 8.203125 72.90625 
L 55.078125 72.90625 
L 55.078125 68.703125 
L 28.609375 0 
L 18.3125 0 
L 43.21875 64.59375 
L 8.203125 64.59375 
z
" id="DejaVuSans-37"/>
      </defs>
      <g transform="translate(203.659992 242.738437)scale(0.1 -0.1)">
       <use xlink:href="#DejaVuSans-37"/>
       <use x="63.623047" xlink:href="#DejaVuSans-35"/>
      </g>
     </g>
    </g>
    <g id="xtick_5">
     <g id="line2d_5">
      <g>
       <use style="stroke:#000000;stroke-width:0.8;" x="265.850406" xlink:href="#m90baa3cbbf" y="228.14"/>
      </g>
     </g>
     <g id="text_5">
      <!-- 100 -->
      <defs>
       <path d="M 12.40625 8.296875 
L 28.515625 8.296875 
L 28.515625 63.921875 
L 10.984375 60.40625 
L 10.984375 69.390625 
L 28.421875 72.90625 
L 38.28125 72.90625 
L 38.28125 8.296875 
L 54.390625 8.296875 
L 54.390625 0 
L 12.40625 0 
z
" id="DejaVuSans-31"/>
      </defs>
      <g transform="translate(256.306656 242.738437)scale(0.1 -0.1)">
       <use xlink:href="#DejaVuSans-31"/>
       <use x="63.623047" xlink:href="#DejaVuSans-30"/>
       <use x="127.246094" xlink:href="#DejaVuSans-30"/>
      </g>
     </g>
    </g>
    <g id="xtick_6">
     <g id="line2d_6">
      <g>
       <use style="stroke:#000000;stroke-width:0.8;" x="321.67832" xlink:href="#m90baa3cbbf" y="228.14"/>
      </g>
     </g>
     <g id="text_6">
      <!-- 125 -->
      <g transform="translate(312.13457 242.738437)scale(0.1 -0.1)">
       <use xlink:href="#DejaVuSans-31"/>
       <use x="63.623047" xlink:href="#DejaVuSans-32"/>
       <use x="127.246094" xlink:href="#DejaVuSans-35"/>
      </g>
     </g>
    </g>
    <g id="xtick_7">
     <g id="line2d_7">
      <g>
       <use style="stroke:#000000;stroke-width:0.8;" x="377.506234" xlink:href="#m90baa3cbbf" y="228.14"/>
      </g>
     </g>
     <g id="text_7">
      <!-- 150 -->
      <g transform="translate(367.962484 242.738437)scale(0.1 -0.1)">
       <use xlink:href="#DejaVuSans-31"/>
       <use x="63.623047" xlink:href="#DejaVuSans-35"/>
       <use x="127.246094" xlink:href="#DejaVuSans-30"/>
      </g>
     </g>
    </g>
    <g id="xtick_8">
     <g id="line2d_8">
      <g>
       <use style="stroke:#000000;stroke-width:0.8;" x="433.334148" xlink:href="#m90baa3cbbf" y="228.14"/>
      </g>
     </g>
     <g id="text_8">
      <!-- 175 -->
      <g transform="translate(423.790398 242.738437)scale(0.1 -0.1)">
       <use xlink:href="#DejaVuSans-31"/>
       <use x="63.623047" xlink:href="#DejaVuSans-37"/>
       <use x="127.246094" xlink:href="#DejaVuSans-35"/>
      </g>
     </g>
    </g>
    <g id="xtick_9">
     <g id="line2d_9">
      <g>
       <use style="stroke:#000000;stroke-width:0.8;" x="489.162062" xlink:href="#m90baa3cbbf" y="228.14"/>
      </g>
     </g>
     <g id="text_9">
      <!-- 200 -->
      <g transform="translate(479.618312 242.738437)scale(0.1 -0.1)">
       <use xlink:href="#DejaVuSans-32"/>
       <use x="63.623047" xlink:href="#DejaVuSans-30"/>
       <use x="127.246094" xlink:href="#DejaVuSans-30"/>
      </g>
     </g>
    </g>
    <g id="text_10">
     <!-- Time [h] -->
     <defs>
      <path d="M -0.296875 72.90625 
L 61.375 72.90625 
L 61.375 64.59375 
L 35.5 64.59375 
L 35.5 0 
L 25.59375 0 
L 25.59375 64.59375 
L -0.296875 64.59375 
z
" id="DejaVuSans-54"/>
      <path d="M 9.421875 54.6875 
L 18.40625 54.6875 
L 18.40625 0 
L 9.421875 0 
z
M 9.421875 75.984375 
L 18.40625 75.984375 
L 18.40625 64.59375 
L 9.421875 64.59375 
z
" id="DejaVuSans-69"/>
      <path d="M 52 44.1875 
Q 55.375 50.25 60.0625 53.125 
Q 64.75 56 71.09375 56 
Q 79.640625 56 84.28125 50.015625 
Q 88.921875 44.046875 88.921875 33.015625 
L 88.921875 0 
L 79.890625 0 
L 79.890625 32.71875 
Q 79.890625 40.578125 77.09375 44.375 
Q 74.3125 48.1875 68.609375 48.1875 
Q 61.625 48.1875 57.5625 43.546875 
Q 53.515625 38.921875 53.515625 30.90625 
L 53.515625 0 
L 44.484375 0 
L 44.484375 32.71875 
Q 44.484375 40.625 41.703125 44.40625 
Q 38.921875 48.1875 33.109375 48.1875 
Q 26.21875 48.1875 22.15625 43.53125 
Q 18.109375 38.875 18.109375 30.90625 
L 18.109375 0 
L 9.078125 0 
L 9.078125 54.6875 
L 18.109375 54.6875 
L 18.109375 46.1875 
Q 21.1875 51.21875 25.484375 53.609375 
Q 29.78125 56 35.6875 56 
Q 41.65625 56 45.828125 52.96875 
Q 50 49.953125 52 44.1875 
z
" id="DejaVuSans-6d"/>
      <path d="M 56.203125 29.59375 
L 56.203125 25.203125 
L 14.890625 25.203125 
Q 15.484375 15.921875 20.484375 11.0625 
Q 25.484375 6.203125 34.421875 6.203125 
Q 39.59375 6.203125 44.453125 7.46875 
Q 49.3125 8.734375 54.109375 11.28125 
L 54.109375 2.78125 
Q 49.265625 0.734375 44.1875 -0.34375 
Q 39.109375 -1.421875 33.890625 -1.421875 
Q 20.796875 -1.421875 13.15625 6.1875 
Q 5.515625 13.8125 5.515625 26.8125 
Q 5.515625 40.234375 12.765625 48.109375 
Q 20.015625 56 32.328125 56 
Q 43.359375 56 49.78125 48.890625 
Q 56.203125 41.796875 56.203125 29.59375 
z
M 47.21875 32.234375 
Q 47.125 39.59375 43.09375 43.984375 
Q 39.0625 48.390625 32.421875 48.390625 
Q 24.90625 48.390625 20.390625 44.140625 
Q 15.875 39.890625 15.1875 32.171875 
z
" id="DejaVuSans-65"/>
      <path id="DejaVuSans-20"/>
      <path d="M 8.59375 75.984375 
L 29.296875 75.984375 
L 29.296875 69 
L 17.578125 69 
L 17.578125 -6.203125 
L 29.296875 -6.203125 
L 29.296875 -13.1875 
L 8.59375 -13.1875 
z
" id="DejaVuSans-5b"/>
      <path d="M 54.890625 33.015625 
L 54.890625 0 
L 45.90625 0 
L 45.90625 32.71875 
Q 45.90625 40.484375 42.875 44.328125 
Q 39.84375 48.1875 33.796875 48.1875 
Q 26.515625 48.1875 22.3125 43.546875 
Q 18.109375 38.921875 18.109375 30.90625 
L 18.109375 0 
L 9.078125 0 
L 9.078125 75.984375 
L 18.109375 75.984375 
L 18.109375 46.1875 
Q 21.34375 51.125 25.703125 53.5625 
Q 30.078125 56 35.796875 56 
Q 45.21875 56 50.046875 50.171875 
Q 54.890625 44.34375 54.890625 33.015625 
z
" id="DejaVuSans-68"/>
      <path d="M 30.421875 75.984375 
L 30.421875 -13.1875 
L 9.71875 -13.1875 
L 9.71875 -6.203125 
L 21.390625 -6.203125 
L 21.390625 69 
L 9.71875 69 
L 9.71875 75.984375 
z
" id="DejaVuSans-5d"/>
     </defs>
     <g transform="translate(240.4825 257.93625)scale(0.12 -0.12)">
      <use xlink:href="#DejaVuSans-54"/>
      <use x="61.037109" xlink:href="#DejaVuSans-69"/>
      <use x="88.820312" xlink:href="#DejaVuSans-6d"/>
      <use x="186.232422" xlink:href="#DejaVuSans-65"/>
      <use x="247.755859" xlink:href="#DejaVuSans-20"/>
      <use x="279.542969" xlink:href="#DejaVuSans-5b"/>
      <use x="318.556641" xlink:href="#DejaVuSans-68"/>
      <use x="381.935547" xlink:href="#DejaVuSans-5d"/>
     </g>
    </g>
   </g>
   <g id="matplotlib.axis_2">
    <g id="ytick_1">
     <g id="line2d_10">
      <defs>
       <path d="M 0 0 
L -3.5 0 
" id="me9c23a09fc" style="stroke:#000000;stroke-width:0.8;"/>
      </defs>
      <g>
       <use style="stroke:#000000;stroke-width:0.8;" x="42.53875" xlink:href="#me9c23a09fc" y="206.413235"/>
      </g>
     </g>
     <g id="text_11">
      <!-- 20 -->
      <g transform="translate(22.81375 210.212454)scale(0.1 -0.1)">
       <use xlink:href="#DejaVuSans-32"/>
       <use x="63.623047" xlink:href="#DejaVuSans-30"/>
      </g>
     </g>
    </g>
    <g id="ytick_2">
     <g id="line2d_11">
      <g>
       <use style="stroke:#000000;stroke-width:0.8;" x="42.53875" xlink:href="#me9c23a09fc" y="180.735628"/>
      </g>
     </g>
     <g id="text_12">
      <!-- 30 -->
      <defs>
       <path d="M 40.578125 39.3125 
Q 47.65625 37.796875 51.625 33 
Q 55.609375 28.21875 55.609375 21.1875 
Q 55.609375 10.40625 48.1875 4.484375 
Q 40.765625 -1.421875 27.09375 -1.421875 
Q 22.515625 -1.421875 17.65625 -0.515625 
Q 12.796875 0.390625 7.625 2.203125 
L 7.625 11.71875 
Q 11.71875 9.328125 16.59375 8.109375 
Q 21.484375 6.890625 26.8125 6.890625 
Q 36.078125 6.890625 40.9375 10.546875 
Q 45.796875 14.203125 45.796875 21.1875 
Q 45.796875 27.640625 41.28125 31.265625 
Q 36.765625 34.90625 28.71875 34.90625 
L 20.21875 34.90625 
L 20.21875 43.015625 
L 29.109375 43.015625 
Q 36.375 43.015625 40.234375 45.921875 
Q 44.09375 48.828125 44.09375 54.296875 
Q 44.09375 59.90625 40.109375 62.90625 
Q 36.140625 65.921875 28.71875 65.921875 
Q 24.65625 65.921875 20.015625 65.03125 
Q 15.375 64.15625 9.8125 62.3125 
L 9.8125 71.09375 
Q 15.4375 72.65625 20.34375 73.4375 
Q 25.25 74.21875 29.59375 74.21875 
Q 40.828125 74.21875 47.359375 69.109375 
Q 53.90625 64.015625 53.90625 55.328125 
Q 53.90625 49.265625 50.4375 45.09375 
Q 46.96875 40.921875 40.578125 39.3125 
z
" id="DejaVuSans-33"/>
      </defs>
      <g transform="translate(22.81375 184.534847)scale(0.1 -0.1)">
       <use xlink:href="#DejaVuSans-33"/>
       <use x="63.623047" xlink:href="#DejaVuSans-30"/>
      </g>
     </g>
    </g>
    <g id="ytick_3">
     <g id="line2d_12">
      <g>
       <use style="stroke:#000000;stroke-width:0.8;" x="42.53875" xlink:href="#me9c23a09fc" y="155.058021"/>
      </g>
     </g>
     <g id="text_13">
      <!-- 40 -->
      <defs>
       <path d="M 37.796875 64.3125 
L 12.890625 25.390625 
L 37.796875 25.390625 
z
M 35.203125 72.90625 
L 47.609375 72.90625 
L 47.609375 25.390625 
L 58.015625 25.390625 
L 58.015625 17.1875 
L 47.609375 17.1875 
L 47.609375 0 
L 37.796875 0 
L 37.796875 17.1875 
L 4.890625 17.1875 
L 4.890625 26.703125 
z
" id="DejaVuSans-34"/>
      </defs>
      <g transform="translate(22.81375 158.85724)scale(0.1 -0.1)">
       <use xlink:href="#DejaVuSans-34"/>
       <use x="63.623047" xlink:href="#DejaVuSans-30"/>
      </g>
     </g>
    </g>
    <g id="ytick_4">
     <g id="line2d_13">
      <g>
       <use style="stroke:#000000;stroke-width:0.8;" x="42.53875" xlink:href="#me9c23a09fc" y="129.380415"/>
      </g>
     </g>
     <g id="text_14">
      <!-- 50 -->
      <g transform="translate(22.81375 133.179634)scale(0.1 -0.1)">
       <use xlink:href="#DejaVuSans-35"/>
       <use x="63.623047" xlink:href="#DejaVuSans-30"/>
      </g>
     </g>
    </g>
    <g id="ytick_5">
     <g id="line2d_14">
      <g>
       <use style="stroke:#000000;stroke-width:0.8;" x="42.53875" xlink:href="#me9c23a09fc" y="103.702808"/>
      </g>
     </g>
     <g id="text_15">
      <!-- 60 -->
      <defs>
       <path d="M 33.015625 40.375 
Q 26.375 40.375 22.484375 35.828125 
Q 18.609375 31.296875 18.609375 23.390625 
Q 18.609375 15.53125 22.484375 10.953125 
Q 26.375 6.390625 33.015625 6.390625 
Q 39.65625 6.390625 43.53125 10.953125 
Q 47.40625 15.53125 47.40625 23.390625 
Q 47.40625 31.296875 43.53125 35.828125 
Q 39.65625 40.375 33.015625 40.375 
z
M 52.59375 71.296875 
L 52.59375 62.3125 
Q 48.875 64.0625 45.09375 64.984375 
Q 41.3125 65.921875 37.59375 65.921875 
Q 27.828125 65.921875 22.671875 59.328125 
Q 17.53125 52.734375 16.796875 39.40625 
Q 19.671875 43.65625 24.015625 45.921875 
Q 28.375 48.1875 33.59375 48.1875 
Q 44.578125 48.1875 50.953125 41.515625 
Q 57.328125 34.859375 57.328125 23.390625 
Q 57.328125 12.15625 50.6875 5.359375 
Q 44.046875 -1.421875 33.015625 -1.421875 
Q 20.359375 -1.421875 13.671875 8.265625 
Q 6.984375 17.96875 6.984375 36.375 
Q 6.984375 53.65625 15.1875 63.9375 
Q 23.390625 74.21875 37.203125 74.21875 
Q 40.921875 74.21875 44.703125 73.484375 
Q 48.484375 72.75 52.59375 71.296875 
z
" id="DejaVuSans-36"/>
      </defs>
      <g transform="translate(22.81375 107.502027)scale(0.1 -0.1)">
       <use xlink:href="#DejaVuSans-36"/>
       <use x="63.623047" xlink:href="#DejaVuSans-30"/>
      </g>
     </g>
    </g>
    <g id="ytick_6">
     <g id="line2d_15">
      <g>
       <use style="stroke:#000000;stroke-width:0.8;" x="42.53875" xlink:href="#me9c23a09fc" y="78.025201"/>
      </g>
     </g>
     <g id="text_16">
      <!-- 70 -->
      <g transform="translate(22.81375 81.82442)scale(0.1 -0.1)">
       <use xlink:href="#DejaVuSans-37"/>
       <use x="63.623047" xlink:href="#DejaVuSans-30"/>
      </g>
     </g>
    </g>
    <g id="ytick_7">
     <g id="line2d_16">
      <g>
       <use style="stroke:#000000;stroke-width:0.8;" x="42.53875" xlink:href="#me9c23a09fc" y="52.347595"/>
      </g>
     </g>
     <g id="text_17">
      <!-- 80 -->
      <defs>
       <path d="M 31.78125 34.625 
Q 24.75 34.625 20.71875 30.859375 
Q 16.703125 27.09375 16.703125 20.515625 
Q 16.703125 13.921875 20.71875 10.15625 
Q 24.75 6.390625 31.78125 6.390625 
Q 38.8125 6.390625 42.859375 10.171875 
Q 46.921875 13.96875 46.921875 20.515625 
Q 46.921875 27.09375 42.890625 30.859375 
Q 38.875 34.625 31.78125 34.625 
z
M 21.921875 38.8125 
Q 15.578125 40.375 12.03125 44.71875 
Q 8.5 49.078125 8.5 55.328125 
Q 8.5 64.0625 14.71875 69.140625 
Q 20.953125 74.21875 31.78125 74.21875 
Q 42.671875 74.21875 48.875 69.140625 
Q 55.078125 64.0625 55.078125 55.328125 
Q 55.078125 49.078125 51.53125 44.71875 
Q 48 40.375 41.703125 38.8125 
Q 48.828125 37.15625 52.796875 32.3125 
Q 56.78125 27.484375 56.78125 20.515625 
Q 56.78125 9.90625 50.3125 4.234375 
Q 43.84375 -1.421875 31.78125 -1.421875 
Q 19.734375 -1.421875 13.25 4.234375 
Q 6.78125 9.90625 6.78125 20.515625 
Q 6.78125 27.484375 10.78125 32.3125 
Q 14.796875 37.15625 21.921875 38.8125 
z
M 18.3125 54.390625 
Q 18.3125 48.734375 21.84375 45.5625 
Q 25.390625 42.390625 31.78125 42.390625 
Q 38.140625 42.390625 41.71875 45.5625 
Q 45.3125 48.734375 45.3125 54.390625 
Q 45.3125 60.0625 41.71875 63.234375 
Q 38.140625 66.40625 31.78125 66.40625 
Q 25.390625 66.40625 21.84375 63.234375 
Q 18.3125 60.0625 18.3125 54.390625 
z
" id="DejaVuSans-38"/>
      </defs>
      <g transform="translate(22.81375 56.146814)scale(0.1 -0.1)">
       <use xlink:href="#DejaVuSans-38"/>
       <use x="63.623047" xlink:href="#DejaVuSans-30"/>
      </g>
     </g>
    </g>
    <g id="ytick_8">
     <g id="line2d_17">
      <g>
       <use style="stroke:#000000;stroke-width:0.8;" x="42.53875" xlink:href="#me9c23a09fc" y="26.669988"/>
      </g>
     </g>
     <g id="text_18">
      <!-- 90 -->
      <defs>
       <path d="M 10.984375 1.515625 
L 10.984375 10.5 
Q 14.703125 8.734375 18.5 7.8125 
Q 22.3125 6.890625 25.984375 6.890625 
Q 35.75 6.890625 40.890625 13.453125 
Q 46.046875 20.015625 46.78125 33.40625 
Q 43.953125 29.203125 39.59375 26.953125 
Q 35.25 24.703125 29.984375 24.703125 
Q 19.046875 24.703125 12.671875 31.3125 
Q 6.296875 37.9375 6.296875 49.421875 
Q 6.296875 60.640625 12.9375 67.421875 
Q 19.578125 74.21875 30.609375 74.21875 
Q 43.265625 74.21875 49.921875 64.515625 
Q 56.59375 54.828125 56.59375 36.375 
Q 56.59375 19.140625 48.40625 8.859375 
Q 40.234375 -1.421875 26.421875 -1.421875 
Q 22.703125 -1.421875 18.890625 -0.6875 
Q 15.09375 0.046875 10.984375 1.515625 
z
M 30.609375 32.421875 
Q 37.25 32.421875 41.125 36.953125 
Q 45.015625 41.5 45.015625 49.421875 
Q 45.015625 57.28125 41.125 61.84375 
Q 37.25 66.40625 30.609375 66.40625 
Q 23.96875 66.40625 20.09375 61.84375 
Q 16.21875 57.28125 16.21875 49.421875 
Q 16.21875 41.5 20.09375 36.953125 
Q 23.96875 32.421875 30.609375 32.421875 
z
" id="DejaVuSans-39"/>
      </defs>
      <g transform="translate(22.81375 30.469207)scale(0.1 -0.1)">
       <use xlink:href="#DejaVuSans-39"/>
       <use x="63.623047" xlink:href="#DejaVuSans-30"/>
      </g>
     </g>
    </g>
    <g id="text_19">
     <!-- Mean p53 molecule number -->
     <defs>
      <path d="M 9.8125 72.90625 
L 24.515625 72.90625 
L 43.109375 23.296875 
L 61.8125 72.90625 
L 76.515625 72.90625 
L 76.515625 0 
L 66.890625 0 
L 66.890625 64.015625 
L 48.09375 14.015625 
L 38.1875 14.015625 
L 19.390625 64.015625 
L 19.390625 0 
L 9.8125 0 
z
" id="DejaVuSans-4d"/>
      <path d="M 34.28125 27.484375 
Q 23.390625 27.484375 19.1875 25 
Q 14.984375 22.515625 14.984375 16.5 
Q 14.984375 11.71875 18.140625 8.90625 
Q 21.296875 6.109375 26.703125 6.109375 
Q 34.1875 6.109375 38.703125 11.40625 
Q 43.21875 16.703125 43.21875 25.484375 
L 43.21875 27.484375 
z
M 52.203125 31.203125 
L 52.203125 0 
L 43.21875 0 
L 43.21875 8.296875 
Q 40.140625 3.328125 35.546875 0.953125 
Q 30.953125 -1.421875 24.3125 -1.421875 
Q 15.921875 -1.421875 10.953125 3.296875 
Q 6 8.015625 6 15.921875 
Q 6 25.140625 12.171875 29.828125 
Q 18.359375 34.515625 30.609375 34.515625 
L 43.21875 34.515625 
L 43.21875 35.40625 
Q 43.21875 41.609375 39.140625 45 
Q 35.0625 48.390625 27.6875 48.390625 
Q 23 48.390625 18.546875 47.265625 
Q 14.109375 46.140625 10.015625 43.890625 
L 10.015625 52.203125 
Q 14.9375 54.109375 19.578125 55.046875 
Q 24.21875 56 28.609375 56 
Q 40.484375 56 46.34375 49.84375 
Q 52.203125 43.703125 52.203125 31.203125 
z
" id="DejaVuSans-61"/>
      <path d="M 54.890625 33.015625 
L 54.890625 0 
L 45.90625 0 
L 45.90625 32.71875 
Q 45.90625 40.484375 42.875 44.328125 
Q 39.84375 48.1875 33.796875 48.1875 
Q 26.515625 48.1875 22.3125 43.546875 
Q 18.109375 38.921875 18.109375 30.90625 
L 18.109375 0 
L 9.078125 0 
L 9.078125 54.6875 
L 18.109375 54.6875 
L 18.109375 46.1875 
Q 21.34375 51.125 25.703125 53.5625 
Q 30.078125 56 35.796875 56 
Q 45.21875 56 50.046875 50.171875 
Q 54.890625 44.34375 54.890625 33.015625 
z
" id="DejaVuSans-6e"/>
      <path d="M 18.109375 8.203125 
L 18.109375 -20.796875 
L 9.078125 -20.796875 
L 9.078125 54.6875 
L 18.109375 54.6875 
L 18.109375 46.390625 
Q 20.953125 51.265625 25.265625 53.625 
Q 29.59375 56 35.59375 56 
Q 45.5625 56 51.78125 48.09375 
Q 58.015625 40.1875 58.015625 27.296875 
Q 58.015625 14.40625 51.78125 6.484375 
Q 45.5625 -1.421875 35.59375 -1.421875 
Q 29.59375 -1.421875 25.265625 0.953125 
Q 20.953125 3.328125 18.109375 8.203125 
z
M 48.6875 27.296875 
Q 48.6875 37.203125 44.609375 42.84375 
Q 40.53125 48.484375 33.40625 48.484375 
Q 26.265625 48.484375 22.1875 42.84375 
Q 18.109375 37.203125 18.109375 27.296875 
Q 18.109375 17.390625 22.1875 11.75 
Q 26.265625 6.109375 33.40625 6.109375 
Q 40.53125 6.109375 44.609375 11.75 
Q 48.6875 17.390625 48.6875 27.296875 
z
" id="DejaVuSans-70"/>
      <path d="M 30.609375 48.390625 
Q 23.390625 48.390625 19.1875 42.75 
Q 14.984375 37.109375 14.984375 27.296875 
Q 14.984375 17.484375 19.15625 11.84375 
Q 23.34375 6.203125 30.609375 6.203125 
Q 37.796875 6.203125 41.984375 11.859375 
Q 46.1875 17.53125 46.1875 27.296875 
Q 46.1875 37.015625 41.984375 42.703125 
Q 37.796875 48.390625 30.609375 48.390625 
z
M 30.609375 56 
Q 42.328125 56 49.015625 48.375 
Q 55.71875 40.765625 55.71875 27.296875 
Q 55.71875 13.875 49.015625 6.21875 
Q 42.328125 -1.421875 30.609375 -1.421875 
Q 18.84375 -1.421875 12.171875 6.21875 
Q 5.515625 13.875 5.515625 27.296875 
Q 5.515625 40.765625 12.171875 48.375 
Q 18.84375 56 30.609375 56 
z
" id="DejaVuSans-6f"/>
      <path d="M 9.421875 75.984375 
L 18.40625 75.984375 
L 18.40625 0 
L 9.421875 0 
z
" id="DejaVuSans-6c"/>
      <path d="M 48.78125 52.59375 
L 48.78125 44.1875 
Q 44.96875 46.296875 41.140625 47.34375 
Q 37.3125 48.390625 33.40625 48.390625 
Q 24.65625 48.390625 19.8125 42.84375 
Q 14.984375 37.3125 14.984375 27.296875 
Q 14.984375 17.28125 19.8125 11.734375 
Q 24.65625 6.203125 33.40625 6.203125 
Q 37.3125 6.203125 41.140625 7.25 
Q 44.96875 8.296875 48.78125 10.40625 
L 48.78125 2.09375 
Q 45.015625 0.34375 40.984375 -0.53125 
Q 36.96875 -1.421875 32.421875 -1.421875 
Q 20.0625 -1.421875 12.78125 6.34375 
Q 5.515625 14.109375 5.515625 27.296875 
Q 5.515625 40.671875 12.859375 48.328125 
Q 20.21875 56 33.015625 56 
Q 37.15625 56 41.109375 55.140625 
Q 45.0625 54.296875 48.78125 52.59375 
z
" id="DejaVuSans-63"/>
      <path d="M 8.5 21.578125 
L 8.5 54.6875 
L 17.484375 54.6875 
L 17.484375 21.921875 
Q 17.484375 14.15625 20.5 10.265625 
Q 23.53125 6.390625 29.59375 6.390625 
Q 36.859375 6.390625 41.078125 11.03125 
Q 45.3125 15.671875 45.3125 23.6875 
L 45.3125 54.6875 
L 54.296875 54.6875 
L 54.296875 0 
L 45.3125 0 
L 45.3125 8.40625 
Q 42.046875 3.421875 37.71875 1 
Q 33.40625 -1.421875 27.6875 -1.421875 
Q 18.265625 -1.421875 13.375 4.4375 
Q 8.5 10.296875 8.5 21.578125 
z
M 31.109375 56 
z
" id="DejaVuSans-75"/>
      <path d="M 48.6875 27.296875 
Q 48.6875 37.203125 44.609375 42.84375 
Q 40.53125 48.484375 33.40625 48.484375 
Q 26.265625 48.484375 22.1875 42.84375 
Q 18.109375 37.203125 18.109375 27.296875 
Q 18.109375 17.390625 22.1875 11.75 
Q 26.265625 6.109375 33.40625 6.109375 
Q 40.53125 6.109375 44.609375 11.75 
Q 48.6875 17.390625 48.6875 27.296875 
z
M 18.109375 46.390625 
Q 20.953125 51.265625 25.265625 53.625 
Q 29.59375 56 35.59375 56 
Q 45.5625 56 51.78125 48.09375 
Q 58.015625 40.1875 58.015625 27.296875 
Q 58.015625 14.40625 51.78125 6.484375 
Q 45.5625 -1.421875 35.59375 -1.421875 
Q 29.59375 -1.421875 25.265625 0.953125 
Q 20.953125 3.328125 18.109375 8.203125 
L 18.109375 0 
L 9.078125 0 
L 9.078125 75.984375 
L 18.109375 75.984375 
z
" id="DejaVuSans-62"/>
      <path d="M 41.109375 46.296875 
Q 39.59375 47.171875 37.8125 47.578125 
Q 36.03125 48 33.890625 48 
Q 26.265625 48 22.1875 43.046875 
Q 18.109375 38.09375 18.109375 28.8125 
L 18.109375 0 
L 9.078125 0 
L 9.078125 54.6875 
L 18.109375 54.6875 
L 18.109375 46.1875 
Q 20.953125 51.171875 25.484375 53.578125 
Q 30.03125 56 36.53125 56 
Q 37.453125 56 38.578125 55.875 
Q 39.703125 55.765625 41.0625 55.515625 
z
" id="DejaVuSans-72"/>
     </defs>
     <g transform="translate(16.318125 203.684375)rotate(-90)scale(0.12 -0.12)">
      <use xlink:href="#DejaVuSans-4d"/>
      <use x="86.279297" xlink:href="#DejaVuSans-65"/>
      <use x="147.802734" xlink:href="#DejaVuSans-61"/>
      <use x="209.082031" xlink:href="#DejaVuSans-6e"/>
      <use x="272.460938" xlink:href="#DejaVuSans-20"/>
      <use x="304.248047" xlink:href="#DejaVuSans-70"/>
      <use x="367.724609" xlink:href="#DejaVuSans-35"/>
      <use x="431.347656" xlink:href="#DejaVuSans-33"/>
      <use x="494.970703" xlink:href="#DejaVuSans-20"/>
      <use x="526.757812" xlink:href="#DejaVuSans-6d"/>
      <use x="624.169922" xlink:href="#DejaVuSans-6f"/>
      <use x="685.351562" xlink:href="#DejaVuSans-6c"/>
      <use x="713.134766" xlink:href="#DejaVuSans-65"/>
      <use x="774.658203" xlink:href="#DejaVuSans-63"/>
      <use x="829.638672" xlink:href="#DejaVuSans-75"/>
      <use x="893.017578" xlink:href="#DejaVuSans-6c"/>
      <use x="920.800781" xlink:href="#DejaVuSans-65"/>
      <use x="982.324219" xlink:href="#DejaVuSans-20"/>
      <use x="1014.111328" xlink:href="#DejaVuSans-6e"/>
      <use x="1077.490234" xlink:href="#DejaVuSans-75"/>
      <use x="1140.869141" xlink:href="#DejaVuSans-6d"/>
      <use x="1238.28125" xlink:href="#DejaVuSans-62"/>
      <use x="1301.757812" xlink:href="#DejaVuSans-65"/>
      <use x="1363.28125" xlink:href="#DejaVuSans-72"/>
     </g>
    </g>
   </g>
   <g id="line2d_18">
    <path clip-path="url(#pea2c732b56)" d="M 42.53875 78.025201 
L 42.985373 82.056038 
L 43.208685 82.819534 
L 43.431997 83.045644 
L 43.655308 82.91437 
L 44.548555 81.509647 
L 44.771867 81.433093 
L 44.995178 81.606831 
L 45.21849 82.077739 
L 45.665113 84.044549 
L 46.111736 87.506865 
L 46.781671 95.566457 
L 47.451606 106.76452 
L 48.568165 130.337165 
L 50.131346 164.60294 
L 50.801281 174.375221 
L 51.247905 177.919194 
L 51.694528 179.794159 
L 51.91784 180.200068 
L 52.141151 180.263211 
L 52.364463 179.985147 
L 52.587775 179.36932 
L 53.034398 177.15392 
L 53.481021 173.704689 
L 54.150956 166.514948 
L 55.044203 154.067233 
L 57.947254 110.62517 
L 58.617189 104.546034 
L 59.063813 102.029498 
L 59.510436 100.860144 
L 59.733747 100.795952 
L 59.957059 101.081238 
L 60.180371 101.713332 
L 60.626994 103.989628 
L 61.073617 107.535062 
L 61.743552 114.884473 
L 64.199981 145.182135 
L 65.093227 152.213927 
L 65.763162 155.741076 
L 66.209786 157.011416 
L 66.433097 157.288388 
L 66.656409 157.32145 
L 66.87972 157.113804 
L 67.326344 156.014815 
L 67.772967 154.10826 
L 68.442902 150.096821 
L 70.006084 138.453265 
L 71.122642 130.826255 
L 72.015889 126.26678 
L 72.685824 124.060197 
L 73.132447 123.235797 
L 73.57907 122.943457 
L 73.802382 122.993586 
L 74.249005 123.462897 
L 74.695628 124.368218 
L 75.365563 126.315137 
L 77.821992 134.078438 
L 79.385173 138.321333 
L 80.055108 139.620366 
L 80.501731 140.175744 
L 80.948355 140.44094 
L 81.394978 140.405483 
L 81.841601 140.084137 
L 82.511536 139.153025 
L 83.404783 137.380255 
L 84.967965 134.183026 
L 85.861211 132.902363 
L 86.531146 132.320396 
L 87.201081 132.053043 
L 87.871016 132.047096 
L 88.764263 132.306901 
L 92.337249 133.878929 
L 94.793677 134.964477 
L 95.686924 135.140414 
L 96.580171 135.115966 
L 97.696729 134.849629 
L 100.599781 134.001035 
L 101.93965 133.897378 
L 104.172767 134.016234 
L 108.415688 134.226755 
L 111.542052 134.225631 
L 115.784973 134.127226 
L 123.377569 134.227484 
L 128.737049 134.036851 
L 132.533347 134.264375 
L 135.65971 134.396914 
L 138.33945 134.235843 
L 142.805683 133.956451 
L 145.485423 134.110833 
L 150.621591 134.458473 
L 153.07802 134.262164 
L 157.320941 133.8871 
L 159.554058 134.0093 
L 165.583472 134.524701 
L 167.816589 134.292316 
L 171.836199 133.809932 
L 173.622692 133.882261 
L 176.302432 134.252997 
L 178.982172 134.620818 
L 180.545353 134.598325 
L 182.555158 134.327421 
L 186.574768 133.71449 
L 188.13795 133.775268 
L 190.371066 134.124022 
L 193.720741 134.728002 
L 195.060611 134.721333 
L 196.847104 134.461175 
L 201.536649 133.592047 
L 203.099831 133.699225 
L 205.109635 134.105194 
L 208.235999 134.836733 
L 209.575869 134.867916 
L 211.13905 134.633919 
L 213.148855 134.084997 
L 215.15866 133.55548 
L 216.49853 133.447372 
L 217.8384 133.579172 
L 219.624893 134.015345 
L 222.974568 134.99089 
L 224.091126 135.041422 
L 225.430996 134.84923 
L 226.994178 134.389796 
L 230.120541 133.361845 
L 231.237099 133.271707 
L 232.353657 133.389951 
L 233.916839 133.81405 
L 238.159761 135.232862 
L 239.276319 135.189918 
L 240.616189 134.863101 
L 242.17937 134.228381 
L 244.412487 133.283008 
L 245.529045 133.069181 
L 246.645603 133.119132 
L 247.762162 133.392733 
L 249.102032 133.937689 
L 252.228395 135.359043 
L 253.121641 135.484498 
L 254.014888 135.412798 
L 255.131446 135.097284 
L 256.471316 134.474345 
L 259.374368 132.992008 
L 260.267614 132.809333 
L 261.160861 132.836957 
L 262.277419 133.128657 
L 263.393978 133.639082 
L 265.403783 134.885523 
L 266.743652 135.558544 
L 267.636899 135.762888 
L 268.530146 135.725514 
L 269.423392 135.479337 
L 270.539951 134.942335 
L 272.103132 133.893467 
L 273.666314 132.906661 
L 274.55956 132.567425 
L 275.452807 132.478573 
L 276.346054 132.638983 
L 277.462612 133.117821 
L 278.57917 133.850909 
L 281.25891 135.777343 
L 282.152157 136.087557 
L 283.045403 136.102252 
L 283.93865 135.852592 
L 284.831897 135.391904 
L 285.948455 134.567233 
L 288.404883 132.596621 
L 289.29813 132.186731 
L 289.968065 132.081226 
L 290.638 132.154088 
L 291.531246 132.487804 
L 292.424493 133.049376 
L 293.541051 134.0158 
L 295.774168 136.015035 
L 296.667414 136.464377 
L 297.337349 136.567074 
L 298.007284 136.472876 
L 298.900531 136.091957 
L 299.793778 135.458458 
L 301.133647 134.146497 
L 302.920141 132.379467 
L 303.813387 131.802207 
L 304.483322 131.607131 
L 305.153257 131.633497 
L 305.823192 131.859913 
L 306.716439 132.428036 
L 307.609685 133.266262 
L 310.95936 136.779668 
L 311.629295 137.057577 
L 312.29923 137.085506 
L 312.969165 136.889614 
L 313.862412 136.331581 
L 314.755658 135.466261 
L 316.31884 133.50265 
L 317.65871 131.923092 
L 318.551957 131.223985 
L 319.221892 130.995367 
L 319.891827 131.038282 
L 320.561762 131.326394 
L 321.231696 131.830543 
L 322.124943 132.80643 
L 323.464813 134.696467 
L 325.027995 136.799037 
L 325.69793 137.411455 
L 326.367865 137.731437 
L 327.0378 137.746424 
L 327.707734 137.494193 
L 328.377669 137.007039 
L 329.270916 136.012285 
L 330.387474 134.352648 
L 332.397279 131.339595 
L 333.067214 130.653404 
L 333.737149 130.273513 
L 334.407084 130.231101 
L 335.077019 130.5027 
L 335.746954 131.05289 
L 336.416889 131.862914 
L 337.310136 133.279014 
L 339.766564 137.477111 
L 340.436499 138.212847 
L 341.106434 138.579837 
L 341.553057 138.615889 
L 342.222992 138.39347 
L 342.892927 137.873679 
L 343.562862 137.066975 
L 344.456109 135.597549 
L 347.35916 130.268915 
L 348.029095 129.552137 
L 348.475718 129.295519 
L 348.922342 129.224679 
L 349.368965 129.332741 
L 350.0389 129.80513 
L 350.708835 130.623789 
L 351.602082 132.195502 
L 353.165263 135.654792 
L 354.281822 137.971239 
L 354.951757 138.991711 
L 355.621691 139.568529 
L 356.068315 139.695666 
L 356.514938 139.632387 
L 356.961561 139.396264 
L 357.631496 138.733322 
L 358.301431 137.706929 
L 359.194678 135.852618 
L 362.097729 129.213529 
L 362.767664 128.341494 
L 363.214288 128.036402 
L 363.660911 127.960685 
L 364.107534 128.106777 
L 364.554158 128.46304 
L 365.224093 129.370782 
L 365.894028 130.695223 
L 367.010586 133.583936 
L 369.020391 139.030144 
L 369.690326 140.252403 
L 370.136949 140.774235 
L 370.583572 141.041094 
L 371.030196 141.065712 
L 371.476819 140.869541 
L 371.923442 140.462614 
L 372.593377 139.456703 
L 373.263312 137.995567 
L 374.379871 134.833502 
L 376.389675 128.844649 
L 377.05961 127.411789 
L 377.729545 126.551826 
L 378.176169 126.331246 
L 378.622792 126.391099 
L 379.069415 126.721666 
L 379.516039 127.313637 
L 380.185974 128.669528 
L 381.07922 131.228717 
L 382.642402 136.750066 
L 383.75896 140.419419 
L 384.428895 141.94625 
L 384.875518 142.557211 
L 385.322142 142.853099 
L 385.768765 142.849779 
L 386.215388 142.582585 
L 386.662012 142.058233 
L 387.331947 140.767655 
L 388.001882 138.897833 
L 389.11844 134.868838 
L 391.128245 127.272953 
L 391.79818 125.498961 
L 392.244803 124.717402 
L 392.691426 124.288106 
L 393.13805 124.213268 
L 393.584673 124.484512 
L 394.031296 125.091917 
L 394.701231 126.609581 
L 395.371166 128.787206 
L 396.487724 133.4406 
L 398.497529 142.259711 
L 399.167464 144.135414 
L 399.614088 144.837734 
L 400.060711 145.147825 
L 400.507334 145.122304 
L 400.953958 144.785539 
L 401.400581 144.12683 
L 401.847204 143.125263 
L 402.517139 140.971609 
L 403.410386 137.119996 
L 406.090126 124.392031 
L 406.760061 122.490767 
L 407.206684 121.764689 
L 407.653307 121.484569 
L 408.099931 121.643846 
L 408.546554 122.232761 
L 408.993177 123.240658 
L 409.663112 125.492997 
L 410.556359 129.63273 
L 411.896229 137.210875 
L 413.236099 144.661113 
L 413.682722 146.339111 
L 414.129345 147.390388 
L 414.575969 147.91105 
L 415.022592 148.026154 
L 415.469215 147.793068 
L 415.915839 147.194618 
L 416.362462 146.180436 
L 417.032397 143.811582 
L 417.702332 140.497802 
L 418.81889 133.590901 
L 420.382072 123.759147 
L 421.052007 120.671028 
L 421.49863 119.248509 
L 421.945253 118.381899 
L 422.391877 118.076919 
L 422.615188 118.132741 
L 423.061812 118.653654 
L 423.508435 119.708213 
L 424.17837 122.235779 
L 424.848305 125.743323 
L 425.964863 133.04231 
L 428.19798 148.891107 
L 428.644603 150.397471 
L 429.091226 151.110389 
L 429.53785 151.360747 
L 429.984473 151.247692 
L 430.431096 150.839653 
L 430.877719 149.945862 
L 431.324343 148.476213 
L 431.994278 145.203303 
L 432.664213 140.700301 
L 434.004083 129.605891 
L 435.120641 120.879818 
L 435.790576 117.055248 
L 436.237199 115.321604 
L 436.683823 114.28424 
L 436.907134 114.030815 
L 437.130446 113.953325 
L 437.353758 114.050229 
L 437.800381 114.759247 
L 438.247004 116.134047 
L 438.916939 119.345901 
L 439.810186 125.35464 
L 440.926744 134.566286 
L 442.266614 147.542885 
L 442.936549 153.015276 
L 443.383172 154.363773 
L 443.829796 154.766134 
L 444.276419 154.821897 
L 444.723042 154.682421 
L 445.169665 154.25681 
L 445.616289 153.388218 
L 446.062912 151.960736 
L 446.509535 149.725771 
L 447.17947 144.829089 
L 448.072717 136.013999 
L 449.85921 117.798626 
L 450.529145 113.042634 
L 451.19908 110.171524 
L 451.645703 109.376055 
L 451.869015 109.334006 
L 452.092327 109.456725 
L 452.315638 109.759755 
L 452.762262 110.979607 
L 453.208885 113.078885 
L 453.87882 117.53699 
L 454.772067 125.239223 
L 456.111937 139.015701 
L 457.005183 150.287355 
L 457.451807 156.097991 
L 457.675118 157.804818 
L 457.89843 158.33433 
L 458.121741 158.407025 
L 459.908235 157.682233 
L 460.354858 157.166858 
L 460.801481 156.061568 
L 461.248105 154.02197 
L 461.694728 150.764655 
L 462.364663 143.592402 
L 465.044403 110.753869 
L 465.714338 106.341993 
L 466.160961 104.643725 
L 466.384273 104.190418 
L 466.607584 104.015379 
L 466.830896 104.114479 
L 467.054208 104.474501 
L 467.500831 105.949784 
L 467.947454 108.391343 
L 468.617389 113.636622 
L 469.510636 122.684198 
L 470.850506 138.707382 
L 471.520441 148.438144 
L 472.413687 163.224192 
L 472.636999 162.954796 
L 473.530246 161.046166 
L 473.976869 160.637939 
L 474.423492 160.607031 
L 475.316739 160.819867 
L 475.540051 160.675554 
L 475.763362 160.327715 
L 475.986674 159.690804 
L 476.433297 157.153983 
L 476.879921 152.433422 
L 477.549856 142.219266 
L 479.113037 116.341322 
L 479.782972 107.911206 
L 480.452907 101.937036 
L 480.89953 99.473399 
L 481.346154 98.276356 
L 481.569465 98.160302 
L 481.792777 98.365416 
L 482.016089 98.888435 
L 482.462712 100.858243 
L 482.909335 103.970527 
L 483.57927 110.418669 
L 484.695829 124.204723 
L 485.812387 140.253017 
L 486.482322 152.35452 
L 487.152257 169.23053 
L 488.268815 163.702171 
L 488.715438 162.732738 
L 488.93875 162.586407 
L 488.93875 162.586407 
" style="fill:none;stroke:#1f77b4;stroke-linecap:square;stroke-width:1.5;"/>
   </g>
   <g id="line2d_19">
    <path clip-path="url(#pea2c732b56)" d="M 42.53875 78.025201 
L 42.985373 82.056038 
L 43.208685 82.819534 
L 43.431997 83.045644 
L 43.655308 82.91437 
L 44.548555 81.50965 
L 44.771867 81.433099 
L 44.995178 81.60684 
L 45.21849 82.077754 
L 45.665113 84.044584 
L 46.111736 87.506955 
L 46.781671 95.566794 
L 47.451606 106.765078 
L 48.568165 130.342971 
L 50.354658 169.376502 
L 51.024593 180.120472 
L 51.471216 184.779058 
L 51.91784 187.078908 
L 52.141151 187.41661 
L 52.364463 187.292077 
L 52.587775 186.753996 
L 53.034398 184.562397 
L 53.481021 180.998858 
L 54.150956 173.291097 
L 55.044203 159.242293 
L 56.830696 125.011801 
L 57.947254 106.321661 
L 58.617189 98.389467 
L 59.063813 94.912386 
L 59.510436 93.044347 
L 59.733747 92.738459 
L 59.957059 92.856852 
L 60.180371 93.398815 
L 60.626994 95.731061 
L 61.073617 99.651796 
L 61.743552 108.182521 
L 62.636799 123.316618 
L 64.423292 155.922175 
L 65.093227 163.864508 
L 65.539851 167.090386 
L 65.986474 168.926827 
L 66.209786 169.387216 
L 66.433097 169.561983 
L 66.656409 169.460481 
L 66.87972 169.089965 
L 67.326344 167.573833 
L 67.772967 165.093688 
L 68.442902 159.818232 
L 69.336149 150.658354 
L 72.015889 121.10068 
L 72.685824 116.088037 
L 73.132447 113.760564 
L 73.57907 112.345795 
L 73.802382 111.997767 
L 74.025693 111.893934 
L 74.249005 112.034782 
L 74.472317 112.418341 
L 74.91894 113.893052 
L 75.365563 116.25061 
L 76.035498 121.185526 
L 77.375368 133.696302 
L 78.268615 141.35134 
L 79.161862 146.987783 
L 79.831797 149.809836 
L 80.27842 150.992625 
L 80.725043 151.586301 
L 80.948355 151.652035 
L 81.171666 151.557782 
L 81.61829 150.894827 
L 82.064913 149.631222 
L 82.734848 146.774579 
L 83.851406 140.436847 
L 85.414588 131.611265 
L 86.084523 128.786243 
L 86.754458 126.83781 
L 87.201081 126.077983 
L 87.647704 125.761889 
L 88.094328 125.87984 
L 88.540951 126.401957 
L 88.987574 127.276247 
L 89.657509 129.078333 
L 91.667314 134.927929 
L 92.560561 136.724829 
L 93.453808 138.079872 
L 94.347054 139.018253 
L 95.016989 139.353408 
L 95.463612 139.352644 
L 95.910236 139.151684 
L 96.356859 138.747637 
L 97.026794 137.796677 
L 98.143352 135.628924 
L 99.259911 133.484491 
L 99.929846 132.537897 
L 100.599781 131.96962 
L 101.046404 131.815019 
L 101.493027 131.831131 
L 102.162962 132.128747 
L 103.056209 132.862631 
L 104.61939 134.192384 
L 105.512637 134.596955 
L 106.405884 134.733419 
L 109.085623 134.722038 
L 110.425493 134.604781 
L 111.542052 134.289083 
L 113.99848 133.412411 
L 114.891726 133.374196 
L 115.784973 133.556352 
L 117.348155 134.176201 
L 118.688025 134.608905 
L 119.581271 134.690678 
L 120.69783 134.547573 
L 126.057309 133.375549 
L 127.620491 133.31292 
L 128.960361 133.499941 
L 130.523542 134.000066 
L 132.533347 134.66424 
L 133.649906 134.824398 
L 134.766464 134.751739 
L 135.883022 134.457602 
L 140.125944 133.061183 
L 141.465814 132.965262 
L 142.582372 133.104785 
L 143.69893 133.455686 
L 147.71854 134.985918 
L 148.835098 135.045914 
L 149.951656 134.836521 
L 151.068215 134.384615 
L 154.41789 132.854966 
L 155.534448 132.643868 
L 156.427694 132.659173 
L 157.320941 132.86172 
L 158.437499 133.356998 
L 161.787174 135.117669 
L 162.903732 135.359547 
L 163.796979 135.331583 
L 164.690226 135.082916 
L 165.806784 134.498377 
L 168.933147 132.607915 
L 170.049705 132.283979 
L 170.942952 132.261239 
L 171.836199 132.481601 
L 172.729445 132.937033 
L 174.292627 134.072092 
L 175.855809 135.147434 
L 176.972367 135.637081 
L 177.865613 135.782762 
L 178.75886 135.661911 
L 179.652107 135.258845 
L 180.768665 134.441995 
L 183.225093 132.473582 
L 184.11834 132.010072 
L 185.011586 131.786014 
L 185.681521 131.806215 
L 186.351456 132.004379 
L 187.244703 132.535889 
L 188.361261 133.512063 
L 190.371066 135.35874 
L 191.264313 135.93286 
L 192.157559 136.2506 
L 192.827494 136.283559 
L 193.497429 136.11574 
L 194.167364 135.744885 
L 195.060611 134.985883 
L 198.410286 131.722651 
L 199.303532 131.295687 
L 199.973467 131.197671 
L 200.643402 131.318356 
L 201.313337 131.665788 
L 202.206584 132.444409 
L 203.546454 134.022377 
L 205.109635 135.79554 
L 206.002882 136.505079 
L 206.672817 136.825282 
L 207.342752 136.924874 
L 208.012687 136.773669 
L 208.682622 136.364512 
L 209.575869 135.468318 
L 210.915738 133.693786 
L 212.47892 131.724808 
L 213.372167 130.938684 
L 214.042102 130.59022 
L 214.712037 130.49147 
L 215.381972 130.670827 
L 216.051907 131.132889 
L 216.945153 132.136882 
L 218.285023 134.137996 
L 219.624893 136.078724 
L 220.51814 137.040843 
L 221.188075 137.507914 
L 221.85801 137.704791 
L 222.527945 137.589605 
L 223.19788 137.148279 
L 223.867815 136.407512 
L 224.761061 135.068734 
L 227.217489 131.086763 
L 228.110736 130.125229 
L 228.780671 129.714543 
L 229.450606 129.624493 
L 229.897229 129.758577 
L 230.567164 130.254192 
L 231.237099 131.078218 
L 232.130346 132.576085 
L 234.586774 137.059075 
L 235.480021 138.128694 
L 236.149956 138.577932 
L 236.596579 138.675347 
L 237.043202 138.595727 
L 237.489826 138.33447 
L 238.159761 137.614033 
L 238.829695 136.549004 
L 239.946254 134.278404 
L 241.732747 130.644085 
L 242.625994 129.344132 
L 243.295929 128.744442 
L 243.742552 128.55927 
L 244.189175 128.561954 
L 244.635799 128.75933 
L 245.082422 129.150977 
L 245.752357 130.082996 
L 246.645603 131.861862 
L 249.548655 138.346362 
L 250.21859 139.268636 
L 250.888525 139.787814 
L 251.335148 139.874645 
L 251.781772 139.739157 
L 252.228395 139.378719 
L 252.89833 138.433812 
L 253.568265 137.066888 
L 254.684823 134.199878 
L 256.248005 130.178579 
L 257.141251 128.441222 
L 257.811186 127.58934 
L 258.25781 127.283193 
L 258.704433 127.207219 
L 259.151056 127.370319 
L 259.597679 127.773395 
L 260.267614 128.81177 
L 260.937549 130.314997 
L 262.054108 133.509951 
L 263.617289 138.056457 
L 264.510536 140.013584 
L 265.180471 140.963782 
L 265.627094 141.294605 
L 266.073717 141.358691 
L 266.520341 141.145743 
L 266.966964 140.655015 
L 267.636899 139.421374 
L 268.306834 137.670807 
L 269.646704 133.29752 
L 270.986574 129.066865 
L 271.879821 126.950505 
L 272.549756 125.949521 
L 272.996379 125.616696 
L 273.443002 125.572325 
L 273.889625 125.82373 
L 274.336249 126.369647 
L 275.006184 127.716922 
L 275.676119 129.626655 
L 276.792677 133.637826 
L 278.355859 139.29362 
L 279.249105 141.694308 
L 279.91904 142.812452 
L 280.365663 143.168069 
L 280.812287 143.18944 
L 281.25891 142.86882 
L 281.705533 142.206556 
L 282.375468 140.600421 
L 283.268715 137.510846 
L 286.171767 126.220815 
L 286.841701 124.602151 
L 287.288325 123.910886 
L 287.734948 123.563171 
L 288.181571 123.574217 
L 288.628195 123.949158 
L 289.074818 124.683836 
L 289.744753 126.426528 
L 290.414688 128.843025 
L 291.531246 133.849368 
L 293.094428 140.891891 
L 293.764363 143.212822 
L 294.434298 144.788445 
L 294.880921 145.353584 
L 295.327544 145.509256 
L 295.774168 145.249913 
L 296.220791 144.5733 
L 296.667414 143.483043 
L 297.337349 141.124976 
L 298.230596 136.952405 
L 300.463712 125.784232 
L 301.133647 123.350546 
L 301.803582 121.729609 
L 302.250206 121.167496 
L 302.696829 121.045361 
L 303.143452 121.370033 
L 303.590076 122.137182 
L 304.036699 123.33161 
L 304.706634 125.858824 
L 305.599881 130.327342 
L 308.27962 144.95057 
L 308.949555 147.134581 
L 309.396179 147.969012 
L 309.842802 148.294482 
L 310.066114 148.270057 
L 310.512737 147.850899 
L 310.95936 146.933514 
L 311.405984 145.514244 
L 312.075919 142.52268 
L 312.969165 137.273104 
L 315.202282 123.448119 
L 315.872217 120.547478 
L 316.542152 118.69637 
L 316.988775 118.115917 
L 317.212087 118.029771 
L 317.435398 118.080839 
L 317.882022 118.59263 
L 318.328645 119.639328 
L 318.99858 122.153036 
L 319.668515 125.659387 
L 320.785073 133.049996 
L 322.794878 146.906241 
L 323.464813 149.899151 
L 323.911436 151.045808 
L 324.35806 151.540798 
L 324.581371 151.566386 
L 324.804683 151.452747 
L 325.251306 150.814265 
L 325.69793 149.613325 
L 326.144553 147.826652 
L 326.814488 144.073315 
L 327.707734 137.515024 
L 329.717539 121.945782 
L 330.387474 118.150293 
L 331.057409 115.621077 
L 331.504033 114.729588 
L 331.727344 114.532532 
L 331.950656 114.502701 
L 332.173968 114.639824 
L 332.620591 115.408757 
L 333.067214 116.81626 
L 333.737149 120.032605 
L 334.630396 126.039612 
L 335.746954 135.353089 
L 337.533447 150.63193 
L 337.980071 153.118461 
L 338.426694 154.565702 
L 338.873317 155.142136 
L 339.096629 155.182224 
L 339.319941 155.080979 
L 339.766564 154.468807 
L 340.213187 153.282462 
L 340.659811 151.455747 
L 341.329745 147.397614 
L 342.222992 139.788032 
L 344.456109 118.761 
L 345.126044 114.356787 
L 345.795979 111.549801 
L 346.242602 110.655701 
L 346.465914 110.51043 
L 346.689225 110.566642 
L 346.912537 110.822846 
L 347.35916 111.922704 
L 347.805784 113.771859 
L 348.475718 117.815628 
L 349.368965 125.11908 
L 350.485523 136.263934 
L 352.495328 156.842547 
L 352.941952 158.449215 
L 353.165263 158.770319 
L 353.388575 158.89367 
L 353.611887 158.869922 
L 354.05851 158.459082 
L 354.505133 157.630692 
L 354.951757 156.248764 
L 355.39838 154.146169 
L 356.068315 149.370221 
L 356.73825 142.72047 
L 359.41799 113.304523 
L 360.087925 108.934996 
L 360.534548 107.140011 
L 360.981171 106.290027 
L 361.204483 106.223373 
L 361.427795 106.394258 
L 361.874418 107.434745 
L 362.321041 109.367586 
L 362.990976 113.780577 
L 363.884223 121.939847 
L 365.000781 134.563674 
L 366.117339 149.642336 
L 366.787274 159.097162 
L 367.233898 162.225756 
L 367.457209 162.678979 
L 367.680521 162.774405 
L 368.127144 162.486959 
L 368.797079 161.608388 
L 369.243702 160.67665 
L 369.690326 159.2145 
L 370.136949 156.966673 
L 370.583572 153.655941 
L 371.253507 146.569213 
L 372.370066 131.120713 
L 373.486624 116.234255 
L 374.156559 109.286628 
L 374.826494 104.408048 
L 375.273117 102.537344 
L 375.71974 101.593605 
L 375.943052 101.604282 
L 376.166364 101.957015 
L 376.612987 103.320626 
L 377.05961 105.786116 
L 377.729545 111.056696 
L 378.622792 120.577684 
L 379.73935 135.14019 
L 380.632597 149.377793 
L 381.525844 166.018191 
L 381.749155 167.109063 
L 381.972467 167.151028 
L 382.41909 166.564349 
L 383.982272 164.034614 
L 384.428895 162.671161 
L 384.875518 160.443849 
L 385.322142 156.932643 
L 385.768765 151.846139 
L 386.662012 137.938014 
L 388.225193 112.754643 
L 388.895128 104.772263 
L 389.565063 99.331846 
L 390.011686 97.243815 
L 390.234998 96.698089 
L 390.45831 96.489014 
L 390.681621 96.58427 
L 390.904933 96.990156 
L 391.351556 98.762017 
L 391.79818 101.715198 
L 392.468115 108.062159 
L 393.361361 119.194894 
L 394.47792 135.767486 
L 395.147855 147.898933 
L 395.594478 159.200057 
L 396.041101 172.12449 
L 396.264413 172.773765 
L 397.380971 170.185574 
L 398.274218 168.917232 
L 398.720841 168.153581 
L 399.167464 166.900829 
L 399.614088 164.733243 
L 400.060711 161.053395 
L 400.507334 155.249048 
L 401.177269 142.890807 
L 402.740451 112.715531 
L 403.633697 99.882269 
L 404.303632 93.739655 
L 404.750256 91.44289 
L 404.973567 90.866515 
L 405.196879 90.667846 
L 405.420191 90.845905 
L 405.643502 91.397294 
L 406.090126 93.583101 
L 406.536749 97.112869 
L 407.206684 104.570329 
L 408.099931 117.408205 
L 409.216489 136.192751 
L 409.886424 150.517913 
L 410.333047 167.275117 
L 410.556359 178.57634 
L 410.77967 178.839186 
L 411.449605 176.758786 
L 412.342852 175.083669 
L 413.45941 173.229918 
L 413.906034 171.771505 
L 414.352657 169.363166 
L 414.79928 165.345518 
L 415.245904 158.590435 
L 415.915839 143.651251 
L 417.47902 108.024826 
L 418.148955 96.644973 
L 418.81889 88.660287 
L 419.265513 85.433062 
L 419.712137 83.963311 
L 419.935448 83.892666 
L 420.15876 84.26048 
L 420.382072 85.058777 
L 420.828695 87.89567 
L 421.275318 92.262084 
L 421.945253 101.207206 
L 423.061812 120.213004 
L 424.17837 142.426054 
L 424.624993 154.964126 
L 424.848305 165.806527 
L 425.071616 186.439323 
L 425.294928 186.126004 
L 425.741551 184.984132 
L 426.634798 183.5656 
L 427.304733 182.312337 
L 427.974668 180.411643 
L 428.644603 177.492784 
L 429.091226 174.530688 
L 429.53785 169.794522 
L 429.984473 161.864816 
L 430.431096 149.430641 
L 431.324343 122.635355 
L 432.217589 100.721788 
L 432.887524 88.198481 
L 433.557459 79.741062 
L 434.004083 76.492238 
L 434.227394 75.695636 
L 434.450706 75.428717 
L 434.674018 75.67343 
L 434.897329 76.428519 
L 435.343953 79.419117 
L 435.790576 84.237167 
L 436.460511 94.320203 
L 437.577069 116.023528 
L 438.916939 146.472656 
L 439.140251 153.732336 
L 439.363562 165.270531 
L 439.586874 195.446503 
L 439.810186 195.089563 
L 440.703432 194.558448 
L 441.150056 193.944732 
L 441.596679 192.944161 
L 442.266614 190.754465 
L 442.936549 187.759689 
L 443.606484 183.730602 
L 444.053107 179.926266 
L 444.49973 174.152642 
L 444.946354 164.264253 
L 447.17947 89.05775 
L 447.849405 75.299956 
L 448.296029 68.922246 
L 448.742652 64.978475 
L 448.965964 63.951923 
L 449.189275 63.56273 
L 449.412587 63.809048 
L 449.635899 64.682784 
L 450.082522 68.249783 
L 450.529145 74.073984 
L 451.19908 86.375908 
L 452.315638 112.756656 
L 453.655508 149.205958 
L 453.87882 159.176156 
L 454.102132 203.831645 
L 454.325443 205.210177 
L 454.772067 205.754736 
L 455.21869 205.97909 
L 455.442002 205.92746 
L 455.888625 205.464209 
L 456.335248 204.526089 
L 457.005183 202.315222 
L 457.675118 199.21704 
L 458.568365 193.823274 
L 459.014988 189.925876 
L 459.684923 179.791878 
L 460.131546 171.006977 
L 461.694728 100.083468 
L 462.587975 71.809601 
L 463.25791 57.180486 
L 463.704533 51.039762 
L 464.151156 48.006529 
L 464.374468 47.683748 
L 464.59778 48.157368 
L 464.821091 49.417897 
L 465.267714 54.220324 
L 465.714338 61.847603 
L 466.384273 77.717704 
L 467.500831 111.268874 
L 468.617389 149.46501 
L 468.840701 163.348529 
L 469.064013 215.729116 
L 469.733948 217.447774 
L 470.180571 218.101763 
L 470.627194 218.256364 
L 471.073818 217.945866 
L 471.520441 217.193278 
L 471.967064 216.011814 
L 472.636999 213.410081 
L 473.306934 209.772721 
L 474.423492 201.846082 
L 475.316739 195.758676 
L 475.986674 192.259793 
L 476.209986 191.591701 
L 476.433297 191.383334 
L 476.656609 208.272953 
L 476.879921 207.395671 
L 477.103232 207.027524 
L 477.326544 206.878311 
L 477.773167 206.920315 
L 478.219791 206.918169 
L 478.443102 206.724649 
L 478.889725 205.765151 
L 479.336349 204.072047 
L 480.452907 198.445315 
L 481.122842 194.165529 
L 481.569465 189.926763 
L 482.016089 183.285234 
L 482.462712 171.728306 
L 482.909335 149.999757 
L 484.025894 87.690834 
L 484.91914 50.638007 
L 485.589075 31.881355 
L 486.035698 24.254708 
L 486.482322 20.760365 
L 486.705633 20.583636 
L 486.928945 21.449504 
L 487.152257 23.343008 
L 487.59888 30.111332 
L 488.045503 40.575423 
L 488.715438 62.03056 
L 488.93875 70.346749 
L 488.93875 70.346749 
" style="fill:none;stroke:#ff7f0e;stroke-linecap:square;stroke-width:1.5;"/>
   </g>
   <g id="patch_3">
    <path d="M 42.53875 228.14 
L 42.53875 10.7 
" style="fill:none;stroke:#000000;stroke-linecap:square;stroke-linejoin:miter;stroke-width:0.8;"/>
   </g>
   <g id="patch_4">
    <path d="M 488.93875 228.14 
L 488.93875 10.7 
" style="fill:none;stroke:#000000;stroke-linecap:square;stroke-linejoin:miter;stroke-width:0.8;"/>
   </g>
   <g id="patch_5">
    <path d="M 42.53875 228.14 
L 488.93875 228.14 
" style="fill:none;stroke:#000000;stroke-linecap:square;stroke-linejoin:miter;stroke-width:0.8;"/>
   </g>
   <g id="patch_6">
    <path d="M 42.53875 10.7 
L 488.93875 10.7 
" style="fill:none;stroke:#000000;stroke-linecap:square;stroke-linejoin:miter;stroke-width:0.8;"/>
   </g>
   <g id="legend_1">
    <g id="patch_7">
     <path d="M 50.93875 55.5275 
L 154.2175 55.5275 
Q 156.6175 55.5275 156.6175 53.1275 
L 156.6175 19.1 
Q 156.6175 16.7 154.2175 16.7 
L 50.93875 16.7 
Q 48.53875 16.7 48.53875 19.1 
L 48.53875 53.1275 
Q 48.53875 55.5275 50.93875 55.5275 
z
" style="fill:#ffffff;opacity:0.8;stroke:#cccccc;stroke-linejoin:miter;"/>
    </g>
    <g id="line2d_20">
     <path d="M 53.33875 26.418125 
L 77.33875 26.418125 
" style="fill:none;stroke:#1f77b4;stroke-linecap:square;stroke-width:1.5;"/>
    </g>
    <g id="line2d_21"/>
    <g id="text_20">
     <!-- log-normal -->
     <defs>
      <path d="M 45.40625 27.984375 
Q 45.40625 37.75 41.375 43.109375 
Q 37.359375 48.484375 30.078125 48.484375 
Q 22.859375 48.484375 18.828125 43.109375 
Q 14.796875 37.75 14.796875 27.984375 
Q 14.796875 18.265625 18.828125 12.890625 
Q 22.859375 7.515625 30.078125 7.515625 
Q 37.359375 7.515625 41.375 12.890625 
Q 45.40625 18.265625 45.40625 27.984375 
z
M 54.390625 6.78125 
Q 54.390625 -7.171875 48.1875 -13.984375 
Q 42 -20.796875 29.203125 -20.796875 
Q 24.46875 -20.796875 20.265625 -20.09375 
Q 16.0625 -19.390625 12.109375 -17.921875 
L 12.109375 -9.1875 
Q 16.0625 -11.328125 19.921875 -12.34375 
Q 23.78125 -13.375 27.78125 -13.375 
Q 36.625 -13.375 41.015625 -8.765625 
Q 45.40625 -4.15625 45.40625 5.171875 
L 45.40625 9.625 
Q 42.625 4.78125 38.28125 2.390625 
Q 33.9375 0 27.875 0 
Q 17.828125 0 11.671875 7.65625 
Q 5.515625 15.328125 5.515625 27.984375 
Q 5.515625 40.671875 11.671875 48.328125 
Q 17.828125 56 27.875 56 
Q 33.9375 56 38.28125 53.609375 
Q 42.625 51.21875 45.40625 46.390625 
L 45.40625 54.6875 
L 54.390625 54.6875 
z
" id="DejaVuSans-67"/>
      <path d="M 4.890625 31.390625 
L 31.203125 31.390625 
L 31.203125 23.390625 
L 4.890625 23.390625 
z
" id="DejaVuSans-2d"/>
     </defs>
     <g transform="translate(86.93875 30.618125)scale(0.12 -0.12)">
      <use xlink:href="#DejaVuSans-6c"/>
      <use x="27.783203" xlink:href="#DejaVuSans-6f"/>
      <use x="88.964844" xlink:href="#DejaVuSans-67"/>
      <use x="152.441406" xlink:href="#DejaVuSans-2d"/>
      <use x="188.525391" xlink:href="#DejaVuSans-6e"/>
      <use x="251.904297" xlink:href="#DejaVuSans-6f"/>
      <use x="313.085938" xlink:href="#DejaVuSans-72"/>
      <use x="354.183594" xlink:href="#DejaVuSans-6d"/>
      <use x="451.595703" xlink:href="#DejaVuSans-61"/>
      <use x="512.875" xlink:href="#DejaVuSans-6c"/>
     </g>
    </g>
    <g id="line2d_22">
     <path d="M 53.33875 44.031875 
L 77.33875 44.031875 
" style="fill:none;stroke:#ff7f0e;stroke-linecap:square;stroke-width:1.5;"/>
    </g>
    <g id="line2d_23"/>
    <g id="text_21">
     <!-- gamma -->
     <g transform="translate(86.93875 48.231875)scale(0.12 -0.12)">
      <use xlink:href="#DejaVuSans-67"/>
      <use x="63.476562" xlink:href="#DejaVuSans-61"/>
      <use x="124.755859" xlink:href="#DejaVuSans-6d"/>
      <use x="222.167969" xlink:href="#DejaVuSans-6d"/>
      <use x="319.580078" xlink:href="#DejaVuSans-61"/>
     </g>
    </g>
   </g>
  </g>
 </g>
 <defs>
  <clipPath id="pea2c732b56">
   <rect height="217.44" width="446.4" x="42.53875" y="10.7"/>
  </clipPath>
 </defs>
</svg>
