<?xml version="1.0" encoding="utf-8"?>
<svg xmlns="http://www.w3.org/2000/svg" xmlns:xlink="http://www.w3.org/1999/xlink" width="600" height="400" viewBox="0 0 2400 1600">
<defs>
  <clipPath id="clip040">
    <rect x="0" y="0" width="2400" height="1600"/>
  </clipPath>
</defs>
<path clip-path="url(#clip040)" d="
M0 1600 L2400 1600 L2400 0 L0 0  Z
  " fill="#ffffff" fill-rule="evenodd" fill-opacity="1"/>
<defs>
  <clipPath id="clip041">
    <rect x="480" y="0" width="1681" height="1600"/>
  </clipPath>
</defs>
<defs>
  <clipPath id="clip042">
    <rect x="205" y="47" width="2149" height="1389"/>
  </clipPath>
</defs>
<path clip-path="url(#clip040)" d="
M205.001 1435.44 L2352.76 1435.44 L2352.76 47.2441 L205.001 47.2441  Z
  " fill="#ffffff" fill-rule="evenodd" fill-opacity="1"/>
<polyline clip-path="url(#clip042)" style="stroke:#000000; stroke-width:2; stroke-opacity:0.1; fill:none" points="
  265.787,1435.44 265.787,47.2441 
  "/>
<polyline clip-path="url(#clip042)" style="stroke:#000000; stroke-width:2; stroke-opacity:0.1; fill:none" points="
  671.023,1435.44 671.023,47.2441 
  "/>
<polyline clip-path="url(#clip042)" style="stroke:#000000; stroke-width:2; stroke-opacity:0.1; fill:none" points="
  1076.26,1435.44 1076.26,47.2441 
  "/>
<polyline clip-path="url(#clip042)" style="stroke:#000000; stroke-width:2; stroke-opacity:0.1; fill:none" points="
  1481.5,1435.44 1481.5,47.2441 
  "/>
<polyline clip-path="url(#clip042)" style="stroke:#000000; stroke-width:2; stroke-opacity:0.1; fill:none" points="
  1886.73,1435.44 1886.73,47.2441 
  "/>
<polyline clip-path="url(#clip042)" style="stroke:#000000; stroke-width:2; stroke-opacity:0.1; fill:none" points="
  2291.97,1435.44 2291.97,47.2441 
  "/>
<polyline clip-path="url(#clip040)" style="stroke:#000000; stroke-width:4; stroke-opacity:1; fill:none" points="
  205.001,1435.44 2352.76,1435.44 
  "/>
<polyline clip-path="url(#clip040)" style="stroke:#000000; stroke-width:4; stroke-opacity:1; fill:none" points="
  265.787,1435.44 265.787,1418.78 
  "/>
<polyline clip-path="url(#clip040)" style="stroke:#000000; stroke-width:4; stroke-opacity:1; fill:none" points="
  671.023,1435.44 671.023,1418.78 
  "/>
<polyline clip-path="url(#clip040)" style="stroke:#000000; stroke-width:4; stroke-opacity:1; fill:none" points="
  1076.26,1435.44 1076.26,1418.78 
  "/>
<polyline clip-path="url(#clip040)" style="stroke:#000000; stroke-width:4; stroke-opacity:1; fill:none" points="
  1481.5,1435.44 1481.5,1418.78 
  "/>
<polyline clip-path="url(#clip040)" style="stroke:#000000; stroke-width:4; stroke-opacity:1; fill:none" points="
  1886.73,1435.44 1886.73,1418.78 
  "/>
<polyline clip-path="url(#clip040)" style="stroke:#000000; stroke-width:4; stroke-opacity:1; fill:none" points="
  2291.97,1435.44 2291.97,1418.78 
  "/>
<path clip-path="url(#clip040)" d="M 0 0 M247.303 1464.63 Q243.692 1464.63 241.863 1468.19 Q240.058 1471.74 240.058 1478.87 Q240.058 1485.97 241.863 1489.54 Q243.692 1493.08 247.303 1493.08 Q250.937 1493.08 252.743 1489.54 Q254.571 1485.97 254.571 1478.87 Q254.571 1471.74 252.743 1468.19 Q250.937 1464.63 247.303 1464.63 M247.303 1460.93 Q253.113 1460.93 256.169 1465.53 Q259.247 1470.12 259.247 1478.87 Q259.247 1487.59 256.169 1492.2 Q253.113 1496.78 247.303 1496.78 Q241.493 1496.78 238.414 1492.2 Q235.359 1487.59 235.359 1478.87 Q235.359 1470.12 238.414 1465.53 Q241.493 1460.93 247.303 1460.93 Z" fill="#000000" fill-rule="evenodd" fill-opacity="1" /><path clip-path="url(#clip040)" d="M 0 0 M264.317 1490.23 L269.201 1490.23 L269.201 1496.11 L264.317 1496.11 L264.317 1490.23 Z" fill="#000000" fill-rule="evenodd" fill-opacity="1" /><path clip-path="url(#clip040)" d="M 0 0 M284.27 1464.63 Q280.659 1464.63 278.831 1468.19 Q277.025 1471.74 277.025 1478.87 Q277.025 1485.97 278.831 1489.54 Q280.659 1493.08 284.27 1493.08 Q287.905 1493.08 289.71 1489.54 Q291.539 1485.97 291.539 1478.87 Q291.539 1471.74 289.71 1468.19 Q287.905 1464.63 284.27 1464.63 M284.27 1460.93 Q290.08 1460.93 293.136 1465.53 Q296.215 1470.12 296.215 1478.87 Q296.215 1487.59 293.136 1492.2 Q290.08 1496.78 284.27 1496.78 Q278.46 1496.78 275.381 1492.2 Q272.326 1487.59 272.326 1478.87 Q272.326 1470.12 275.381 1465.53 Q278.46 1460.93 284.27 1460.93 Z" fill="#000000" fill-rule="evenodd" fill-opacity="1" /><path clip-path="url(#clip040)" d="M 0 0 M653.153 1464.63 Q649.542 1464.63 647.713 1468.19 Q645.908 1471.74 645.908 1478.87 Q645.908 1485.97 647.713 1489.54 Q649.542 1493.08 653.153 1493.08 Q656.787 1493.08 658.593 1489.54 Q660.422 1485.97 660.422 1478.87 Q660.422 1471.74 658.593 1468.19 Q656.787 1464.63 653.153 1464.63 M653.153 1460.93 Q658.963 1460.93 662.019 1465.53 Q665.097 1470.12 665.097 1478.87 Q665.097 1487.59 662.019 1492.2 Q658.963 1496.78 653.153 1496.78 Q647.343 1496.78 644.264 1492.2 Q641.209 1487.59 641.209 1478.87 Q641.209 1470.12 644.264 1465.53 Q647.343 1460.93 653.153 1460.93 Z" fill="#000000" fill-rule="evenodd" fill-opacity="1" /><path clip-path="url(#clip040)" d="M 0 0 M670.167 1490.23 L675.051 1490.23 L675.051 1496.11 L670.167 1496.11 L670.167 1490.23 Z" fill="#000000" fill-rule="evenodd" fill-opacity="1" /><path clip-path="url(#clip040)" d="M 0 0 M680.931 1492.18 L688.57 1492.18 L688.57 1465.81 L680.259 1467.48 L680.259 1463.22 L688.523 1461.55 L693.199 1461.55 L693.199 1492.18 L700.838 1492.18 L700.838 1496.11 L680.931 1496.11 L680.931 1492.18 Z" fill="#000000" fill-rule="evenodd" fill-opacity="1" /><path clip-path="url(#clip040)" d="M 0 0 M1058.58 1464.63 Q1054.96 1464.63 1053.14 1468.19 Q1051.33 1471.74 1051.33 1478.87 Q1051.33 1485.97 1053.14 1489.54 Q1054.96 1493.08 1058.58 1493.08 Q1062.21 1493.08 1064.01 1489.54 Q1065.84 1485.97 1065.84 1478.87 Q1065.84 1471.74 1064.01 1468.19 Q1062.21 1464.63 1058.58 1464.63 M1058.58 1460.93 Q1064.39 1460.93 1067.44 1465.53 Q1070.52 1470.12 1070.52 1478.87 Q1070.52 1487.59 1067.44 1492.2 Q1064.39 1496.78 1058.58 1496.78 Q1052.76 1496.78 1049.69 1492.2 Q1046.63 1487.59 1046.63 1478.87 Q1046.63 1470.12 1049.69 1465.53 Q1052.76 1460.93 1058.58 1460.93 Z" fill="#000000" fill-rule="evenodd" fill-opacity="1" /><path clip-path="url(#clip040)" d="M 0 0 M1075.59 1490.23 L1080.47 1490.23 L1080.47 1496.11 L1075.59 1496.11 L1075.59 1490.23 Z" fill="#000000" fill-rule="evenodd" fill-opacity="1" /><path clip-path="url(#clip040)" d="M 0 0 M1089.57 1492.18 L1105.89 1492.18 L1105.89 1496.11 L1083.95 1496.11 L1083.95 1492.18 Q1086.61 1489.42 1091.19 1484.79 Q1095.8 1480.14 1096.98 1478.8 Q1099.22 1476.27 1100.1 1474.54 Q1101.01 1472.78 1101.01 1471.09 Q1101.01 1468.33 1099.06 1466.6 Q1097.14 1464.86 1094.04 1464.86 Q1091.84 1464.86 1089.39 1465.63 Q1086.95 1466.39 1084.18 1467.94 L1084.18 1463.22 Q1087 1462.08 1089.45 1461.51 Q1091.91 1460.93 1093.95 1460.93 Q1099.32 1460.93 1102.51 1463.61 Q1105.7 1466.3 1105.7 1470.79 Q1105.7 1472.92 1104.89 1474.84 Q1104.11 1476.74 1102 1479.33 Q1101.42 1480 1098.32 1483.22 Q1095.22 1486.41 1089.57 1492.18 Z" fill="#000000" fill-rule="evenodd" fill-opacity="1" /><path clip-path="url(#clip040)" d="M 0 0 M1463.34 1464.63 Q1459.73 1464.63 1457.9 1468.19 Q1456.09 1471.74 1456.09 1478.87 Q1456.09 1485.97 1457.9 1489.54 Q1459.73 1493.08 1463.34 1493.08 Q1466.97 1493.08 1468.78 1489.54 Q1470.61 1485.97 1470.61 1478.87 Q1470.61 1471.74 1468.78 1468.19 Q1466.97 1464.63 1463.34 1464.63 M1463.34 1460.93 Q1469.15 1460.93 1472.2 1465.53 Q1475.28 1470.12 1475.28 1478.87 Q1475.28 1487.59 1472.2 1492.2 Q1469.15 1496.78 1463.34 1496.78 Q1457.53 1496.78 1454.45 1492.2 Q1451.39 1487.59 1451.39 1478.87 Q1451.39 1470.12 1454.45 1465.53 Q1457.53 1460.93 1463.34 1460.93 Z" fill="#000000" fill-rule="evenodd" fill-opacity="1" /><path clip-path="url(#clip040)" d="M 0 0 M1480.35 1490.23 L1485.24 1490.23 L1485.24 1496.11 L1480.35 1496.11 L1480.35 1490.23 Z" fill="#000000" fill-rule="evenodd" fill-opacity="1" /><path clip-path="url(#clip040)" d="M 0 0 M1504.47 1477.48 Q1507.83 1478.19 1509.7 1480.46 Q1511.6 1482.73 1511.6 1486.07 Q1511.6 1491.18 1508.08 1493.98 Q1504.56 1496.78 1498.08 1496.78 Q1495.91 1496.78 1493.59 1496.34 Q1491.3 1495.93 1488.85 1495.07 L1488.85 1490.56 Q1490.79 1491.69 1493.11 1492.27 Q1495.42 1492.85 1497.94 1492.85 Q1502.34 1492.85 1504.63 1491.11 Q1506.95 1489.38 1506.95 1486.07 Q1506.95 1483.01 1504.8 1481.3 Q1502.67 1479.56 1498.85 1479.56 L1494.82 1479.56 L1494.82 1475.72 L1499.03 1475.72 Q1502.48 1475.72 1504.31 1474.35 Q1506.14 1472.96 1506.14 1470.37 Q1506.14 1467.71 1504.24 1466.3 Q1502.36 1464.86 1498.85 1464.86 Q1496.93 1464.86 1494.73 1465.28 Q1492.53 1465.69 1489.89 1466.57 L1489.89 1462.41 Q1492.55 1461.67 1494.86 1461.3 Q1497.2 1460.93 1499.26 1460.93 Q1504.59 1460.93 1507.69 1463.36 Q1510.79 1465.76 1510.79 1469.88 Q1510.79 1472.76 1509.15 1474.75 Q1507.5 1476.71 1504.47 1477.48 Z" fill="#000000" fill-rule="evenodd" fill-opacity="1" /><path clip-path="url(#clip040)" d="M 0 0 M1868.01 1464.63 Q1864.4 1464.63 1862.57 1468.19 Q1860.76 1471.74 1860.76 1478.87 Q1860.76 1485.97 1862.57 1489.54 Q1864.4 1493.08 1868.01 1493.08 Q1871.64 1493.08 1873.45 1489.54 Q1875.28 1485.97 1875.28 1478.87 Q1875.28 1471.74 1873.45 1468.19 Q1871.64 1464.63 1868.01 1464.63 M1868.01 1460.93 Q1873.82 1460.93 1876.87 1465.53 Q1879.95 1470.12 1879.95 1478.87 Q1879.95 1487.59 1876.87 1492.2 Q1873.82 1496.78 1868.01 1496.78 Q1862.2 1496.78 1859.12 1492.2 Q1856.06 1487.59 1856.06 1478.87 Q1856.06 1470.12 1859.12 1465.53 Q1862.2 1460.93 1868.01 1460.93 Z" fill="#000000" fill-rule="evenodd" fill-opacity="1" /><path clip-path="url(#clip040)" d="M 0 0 M1885.02 1490.23 L1889.9 1490.23 L1889.9 1496.11 L1885.02 1496.11 L1885.02 1490.23 Z" fill="#000000" fill-rule="evenodd" fill-opacity="1" /><path clip-path="url(#clip040)" d="M 0 0 M1907.82 1465.63 L1896.02 1484.07 L1907.82 1484.07 L1907.82 1465.63 M1906.59 1461.55 L1912.47 1461.55 L1912.47 1484.07 L1917.4 1484.07 L1917.4 1487.96 L1912.47 1487.96 L1912.47 1496.11 L1907.82 1496.11 L1907.82 1487.96 L1892.22 1487.96 L1892.22 1483.45 L1906.59 1461.55 Z" fill="#000000" fill-rule="evenodd" fill-opacity="1" /><path clip-path="url(#clip040)" d="M 0 0 M2273.98 1464.63 Q2270.37 1464.63 2268.54 1468.19 Q2266.74 1471.74 2266.74 1478.87 Q2266.74 1485.97 2268.54 1489.54 Q2270.37 1493.08 2273.98 1493.08 Q2277.62 1493.08 2279.42 1489.54 Q2281.25 1485.97 2281.25 1478.87 Q2281.25 1471.74 2279.42 1468.19 Q2277.62 1464.63 2273.98 1464.63 M2273.98 1460.93 Q2279.79 1460.93 2282.85 1465.53 Q2285.93 1470.12 2285.93 1478.87 Q2285.93 1487.59 2282.85 1492.2 Q2279.79 1496.78 2273.98 1496.78 Q2268.17 1496.78 2265.1 1492.2 Q2262.04 1487.59 2262.04 1478.87 Q2262.04 1470.12 2265.1 1465.53 Q2268.17 1460.93 2273.98 1460.93 Z" fill="#000000" fill-rule="evenodd" fill-opacity="1" /><path clip-path="url(#clip040)" d="M 0 0 M2291 1490.23 L2295.88 1490.23 L2295.88 1496.11 L2291 1496.11 L2291 1490.23 Z" fill="#000000" fill-rule="evenodd" fill-opacity="1" /><path clip-path="url(#clip040)" d="M 0 0 M2301 1461.55 L2319.35 1461.55 L2319.35 1465.49 L2305.28 1465.49 L2305.28 1473.96 Q2306.3 1473.61 2307.32 1473.45 Q2308.34 1473.26 2309.35 1473.26 Q2315.14 1473.26 2318.52 1476.44 Q2321.9 1479.61 2321.9 1485.02 Q2321.9 1490.6 2318.43 1493.7 Q2314.96 1496.78 2308.64 1496.78 Q2306.46 1496.78 2304.19 1496.41 Q2301.95 1496.04 2299.54 1495.3 L2299.54 1490.6 Q2301.62 1491.74 2303.85 1492.29 Q2306.07 1492.85 2308.54 1492.85 Q2312.55 1492.85 2314.89 1490.74 Q2317.22 1488.63 2317.22 1485.02 Q2317.22 1481.41 2314.89 1479.31 Q2312.55 1477.2 2308.54 1477.2 Q2306.67 1477.2 2304.79 1477.62 Q2302.94 1478.03 2301 1478.91 L2301 1461.55 Z" fill="#000000" fill-rule="evenodd" fill-opacity="1" /><path clip-path="url(#clip040)" d="M 0 0 M1289.66 1534.69 Q1289.66 1535.84 1289.13 1536.13 Q1288.6 1536.37 1287.12 1536.37 L1279.25 1536.37 L1273.02 1561.13 Q1272.53 1563.3 1272.53 1565.15 Q1272.53 1567.2 1273.14 1568.1 Q1273.8 1569 1275.15 1569 Q1277.82 1569 1280.69 1566.58 Q1283.6 1564.16 1286.06 1558.26 Q1286.38 1557.48 1286.55 1557.32 Q1286.75 1557.11 1287.29 1557.11 Q1288.31 1557.11 1288.31 1557.93 Q1288.31 1558.22 1287.74 1559.53 Q1287.2 1560.84 1286.02 1562.77 Q1284.87 1564.7 1283.35 1566.5 Q1281.88 1568.3 1279.62 1569.62 Q1277.37 1570.89 1274.95 1570.89 Q1271.55 1570.89 1269.37 1568.71 Q1267.24 1566.54 1267.24 1563.14 Q1267.24 1562.03 1268.1 1558.51 Q1268.96 1554.94 1273.64 1536.37 L1266.22 1536.37 Q1265.19 1536.37 1264.78 1536.33 Q1264.41 1536.29 1264.13 1536.09 Q1263.88 1535.84 1263.88 1535.35 Q1263.88 1534.57 1264.21 1534.24 Q1264.54 1533.87 1264.95 1533.83 Q1265.4 1533.75 1266.42 1533.75 L1274.29 1533.75 L1277.57 1520.43 Q1277.9 1519.12 1278.72 1518.38 Q1279.58 1517.6 1280.07 1517.52 Q1280.56 1517.4 1280.93 1517.4 Q1282.04 1517.4 1282.7 1518.01 Q1283.35 1518.58 1283.35 1519.65 Q1283.35 1520.22 1279.91 1533.75 L1287.29 1533.75 Q1288.23 1533.75 1288.6 1533.79 Q1289.01 1533.83 1289.34 1534.04 Q1289.66 1534.24 1289.66 1534.69 Z" fill="#000000" fill-rule="evenodd" fill-opacity="1" /><polyline clip-path="url(#clip042)" style="stroke:#000000; stroke-width:2; stroke-opacity:0.1; fill:none" points="
  205.001,1396.15 2352.76,1396.15 
  "/>
<polyline clip-path="url(#clip042)" style="stroke:#000000; stroke-width:2; stroke-opacity:0.1; fill:none" points="
  205.001,1136.25 2352.76,1136.25 
  "/>
<polyline clip-path="url(#clip042)" style="stroke:#000000; stroke-width:2; stroke-opacity:0.1; fill:none" points="
  205.001,876.354 2352.76,876.354 
  "/>
<polyline clip-path="url(#clip042)" style="stroke:#000000; stroke-width:2; stroke-opacity:0.1; fill:none" points="
  205.001,616.455 2352.76,616.455 
  "/>
<polyline clip-path="url(#clip042)" style="stroke:#000000; stroke-width:2; stroke-opacity:0.1; fill:none" points="
  205.001,356.557 2352.76,356.557 
  "/>
<polyline clip-path="url(#clip042)" style="stroke:#000000; stroke-width:2; stroke-opacity:0.1; fill:none" points="
  205.001,96.6582 2352.76,96.6582 
  "/>
<polyline clip-path="url(#clip040)" style="stroke:#000000; stroke-width:4; stroke-opacity:1; fill:none" points="
  205.001,1435.44 205.001,47.2441 
  "/>
<polyline clip-path="url(#clip040)" style="stroke:#000000; stroke-width:4; stroke-opacity:1; fill:none" points="
  205.001,1396.15 230.774,1396.15 
  "/>
<polyline clip-path="url(#clip040)" style="stroke:#000000; stroke-width:4; stroke-opacity:1; fill:none" points="
  205.001,1136.25 230.774,1136.25 
  "/>
<polyline clip-path="url(#clip040)" style="stroke:#000000; stroke-width:4; stroke-opacity:1; fill:none" points="
  205.001,876.354 230.774,876.354 
  "/>
<polyline clip-path="url(#clip040)" style="stroke:#000000; stroke-width:4; stroke-opacity:1; fill:none" points="
  205.001,616.455 230.774,616.455 
  "/>
<polyline clip-path="url(#clip040)" style="stroke:#000000; stroke-width:4; stroke-opacity:1; fill:none" points="
  205.001,356.557 230.774,356.557 
  "/>
<polyline clip-path="url(#clip040)" style="stroke:#000000; stroke-width:4; stroke-opacity:1; fill:none" points="
  205.001,96.6582 230.774,96.6582 
  "/>
<path clip-path="url(#clip040)" d="M 0 0 M120.089 1381.95 Q116.478 1381.95 114.65 1385.51 Q112.844 1389.06 112.844 1396.19 Q112.844 1403.29 114.65 1406.86 Q116.478 1410.4 120.089 1410.4 Q123.724 1410.4 125.529 1406.86 Q127.358 1403.29 127.358 1396.19 Q127.358 1389.06 125.529 1385.51 Q123.724 1381.95 120.089 1381.95 M120.089 1378.25 Q125.899 1378.25 128.955 1382.85 Q132.034 1387.44 132.034 1396.19 Q132.034 1404.91 128.955 1409.52 Q125.899 1414.1 120.089 1414.1 Q114.279 1414.1 111.2 1409.52 Q108.145 1404.91 108.145 1396.19 Q108.145 1387.44 111.2 1382.85 Q114.279 1378.25 120.089 1378.25 Z" fill="#000000" fill-rule="evenodd" fill-opacity="1" /><path clip-path="url(#clip040)" d="M 0 0 M137.103 1407.55 L141.987 1407.55 L141.987 1413.43 L137.103 1413.43 L137.103 1407.55 Z" fill="#000000" fill-rule="evenodd" fill-opacity="1" /><path clip-path="url(#clip040)" d="M 0 0 M157.057 1381.95 Q153.446 1381.95 151.617 1385.51 Q149.811 1389.06 149.811 1396.19 Q149.811 1403.29 151.617 1406.86 Q153.446 1410.4 157.057 1410.4 Q160.691 1410.4 162.497 1406.86 Q164.325 1403.29 164.325 1396.19 Q164.325 1389.06 162.497 1385.51 Q160.691 1381.95 157.057 1381.95 M157.057 1378.25 Q162.867 1378.25 165.922 1382.85 Q169.001 1387.44 169.001 1396.19 Q169.001 1404.91 165.922 1409.52 Q162.867 1414.1 157.057 1414.1 Q151.247 1414.1 148.168 1409.52 Q145.112 1404.91 145.112 1396.19 Q145.112 1387.44 148.168 1382.85 Q151.247 1378.25 157.057 1378.25 Z" fill="#000000" fill-rule="evenodd" fill-opacity="1" /><path clip-path="url(#clip040)" d="M 0 0 M121.085 1122.05 Q117.474 1122.05 115.645 1125.62 Q113.839 1129.16 113.839 1136.29 Q113.839 1143.39 115.645 1146.96 Q117.474 1150.5 121.085 1150.5 Q124.719 1150.5 126.524 1146.96 Q128.353 1143.39 128.353 1136.29 Q128.353 1129.16 126.524 1125.62 Q124.719 1122.05 121.085 1122.05 M121.085 1118.35 Q126.895 1118.35 129.95 1122.95 Q133.029 1127.54 133.029 1136.29 Q133.029 1145.01 129.95 1149.62 Q126.895 1154.2 121.085 1154.2 Q115.275 1154.2 112.196 1149.62 Q109.14 1145.01 109.14 1136.29 Q109.14 1127.54 112.196 1122.95 Q115.275 1118.35 121.085 1118.35 Z" fill="#000000" fill-rule="evenodd" fill-opacity="1" /><path clip-path="url(#clip040)" d="M 0 0 M138.098 1147.65 L142.983 1147.65 L142.983 1153.53 L138.098 1153.53 L138.098 1147.65 Z" fill="#000000" fill-rule="evenodd" fill-opacity="1" /><path clip-path="url(#clip040)" d="M 0 0 M148.098 1118.97 L166.455 1118.97 L166.455 1122.91 L152.381 1122.91 L152.381 1131.38 Q153.399 1131.03 154.418 1130.87 Q155.436 1130.69 156.455 1130.69 Q162.242 1130.69 165.621 1133.86 Q169.001 1137.03 169.001 1142.44 Q169.001 1148.02 165.529 1151.12 Q162.057 1154.2 155.737 1154.2 Q153.561 1154.2 151.293 1153.83 Q149.048 1153.46 146.64 1152.72 L146.64 1148.02 Q148.723 1149.16 150.946 1149.71 Q153.168 1150.27 155.645 1150.27 Q159.649 1150.27 161.987 1148.16 Q164.325 1146.06 164.325 1142.44 Q164.325 1138.83 161.987 1136.73 Q159.649 1134.62 155.645 1134.62 Q153.77 1134.62 151.895 1135.04 Q150.043 1135.45 148.098 1136.33 L148.098 1118.97 Z" fill="#000000" fill-rule="evenodd" fill-opacity="1" /><path clip-path="url(#clip040)" d="M 0 0 M112.126 889.699 L119.765 889.699 L119.765 863.333 L111.455 865 L111.455 860.74 L119.719 859.074 L124.395 859.074 L124.395 889.699 L132.034 889.699 L132.034 893.634 L112.126 893.634 L112.126 889.699 Z" fill="#000000" fill-rule="evenodd" fill-opacity="1" /><path clip-path="url(#clip040)" d="M 0 0 M137.103 887.754 L141.987 887.754 L141.987 893.634 L137.103 893.634 L137.103 887.754 Z" fill="#000000" fill-rule="evenodd" fill-opacity="1" /><path clip-path="url(#clip040)" d="M 0 0 M157.057 862.153 Q153.446 862.153 151.617 865.717 Q149.811 869.259 149.811 876.389 Q149.811 883.495 151.617 887.06 Q153.446 890.601 157.057 890.601 Q160.691 890.601 162.497 887.06 Q164.325 883.495 164.325 876.389 Q164.325 869.259 162.497 865.717 Q160.691 862.153 157.057 862.153 M157.057 858.449 Q162.867 858.449 165.922 863.055 Q169.001 867.639 169.001 876.389 Q169.001 885.115 165.922 889.722 Q162.867 894.305 157.057 894.305 Q151.247 894.305 148.168 889.722 Q145.112 885.115 145.112 876.389 Q145.112 867.639 148.168 863.055 Q151.247 858.449 157.057 858.449 Z" fill="#000000" fill-rule="evenodd" fill-opacity="1" /><path clip-path="url(#clip040)" d="M 0 0 M113.122 629.8 L120.761 629.8 L120.761 603.435 L112.45 605.101 L112.45 600.842 L120.714 599.175 L125.39 599.175 L125.39 629.8 L133.029 629.8 L133.029 633.735 L113.122 633.735 L113.122 629.8 Z" fill="#000000" fill-rule="evenodd" fill-opacity="1" /><path clip-path="url(#clip040)" d="M 0 0 M138.098 627.856 L142.983 627.856 L142.983 633.735 L138.098 633.735 L138.098 627.856 Z" fill="#000000" fill-rule="evenodd" fill-opacity="1" /><path clip-path="url(#clip040)" d="M 0 0 M148.098 599.175 L166.455 599.175 L166.455 603.11 L152.381 603.11 L152.381 611.583 Q153.399 611.235 154.418 611.073 Q155.436 610.888 156.455 610.888 Q162.242 610.888 165.621 614.059 Q169.001 617.231 169.001 622.647 Q169.001 628.226 165.529 631.328 Q162.057 634.407 155.737 634.407 Q153.561 634.407 151.293 634.036 Q149.048 633.666 146.64 632.925 L146.64 628.226 Q148.723 629.36 150.946 629.916 Q153.168 630.471 155.645 630.471 Q159.649 630.471 161.987 628.365 Q164.325 626.258 164.325 622.647 Q164.325 619.036 161.987 616.93 Q159.649 614.823 155.645 614.823 Q153.77 614.823 151.895 615.24 Q150.043 615.657 148.098 616.536 L148.098 599.175 Z" fill="#000000" fill-rule="evenodd" fill-opacity="1" /><path clip-path="url(#clip040)" d="M 0 0 M115.714 369.902 L132.034 369.902 L132.034 373.837 L110.089 373.837 L110.089 369.902 Q112.751 367.147 117.335 362.517 Q121.941 357.865 123.122 356.522 Q125.367 353.999 126.247 352.263 Q127.149 350.504 127.149 348.814 Q127.149 346.059 125.205 344.323 Q123.284 342.587 120.182 342.587 Q117.983 342.587 115.529 343.351 Q113.099 344.115 110.321 345.666 L110.321 340.943 Q113.145 339.809 115.599 339.23 Q118.052 338.652 120.089 338.652 Q125.46 338.652 128.654 341.337 Q131.849 344.022 131.849 348.513 Q131.849 350.642 131.038 352.564 Q130.251 354.462 128.145 357.054 Q127.566 357.726 124.464 360.943 Q121.362 364.138 115.714 369.902 Z" fill="#000000" fill-rule="evenodd" fill-opacity="1" /><path clip-path="url(#clip040)" d="M 0 0 M137.103 367.957 L141.987 367.957 L141.987 373.837 L137.103 373.837 L137.103 367.957 Z" fill="#000000" fill-rule="evenodd" fill-opacity="1" /><path clip-path="url(#clip040)" d="M 0 0 M157.057 342.355 Q153.446 342.355 151.617 345.92 Q149.811 349.462 149.811 356.591 Q149.811 363.698 151.617 367.263 Q153.446 370.804 157.057 370.804 Q160.691 370.804 162.497 367.263 Q164.325 363.698 164.325 356.591 Q164.325 349.462 162.497 345.92 Q160.691 342.355 157.057 342.355 M157.057 338.652 Q162.867 338.652 165.922 343.258 Q169.001 347.842 169.001 356.591 Q169.001 365.318 165.922 369.925 Q162.867 374.508 157.057 374.508 Q151.247 374.508 148.168 369.925 Q145.112 365.318 145.112 356.591 Q145.112 347.842 148.168 343.258 Q151.247 338.652 157.057 338.652 Z" fill="#000000" fill-rule="evenodd" fill-opacity="1" /><path clip-path="url(#clip040)" d="M 0 0 M116.71 110.003 L133.029 110.003 L133.029 113.938 L111.085 113.938 L111.085 110.003 Q113.747 107.248 118.33 102.619 Q122.937 97.9661 124.117 96.6235 Q126.362 94.1004 127.242 92.3643 Q128.145 90.605 128.145 88.9152 Q128.145 86.1606 126.2 84.4245 Q124.279 82.6884 121.177 82.6884 Q118.978 82.6884 116.525 83.4523 Q114.094 84.2162 111.316 85.7671 L111.316 81.0449 Q114.14 79.9106 116.594 79.3319 Q119.048 78.7532 121.085 78.7532 Q126.455 78.7532 129.649 81.4384 Q132.844 84.1236 132.844 88.6143 Q132.844 90.7439 132.034 92.6652 Q131.247 94.5633 129.14 97.1559 Q128.562 97.8272 125.46 101.045 Q122.358 104.239 116.71 110.003 Z" fill="#000000" fill-rule="evenodd" fill-opacity="1" /><path clip-path="url(#clip040)" d="M 0 0 M138.098 108.059 L142.983 108.059 L142.983 113.938 L138.098 113.938 L138.098 108.059 Z" fill="#000000" fill-rule="evenodd" fill-opacity="1" /><path clip-path="url(#clip040)" d="M 0 0 M148.098 79.3782 L166.455 79.3782 L166.455 83.3134 L152.381 83.3134 L152.381 91.7856 Q153.399 91.4384 154.418 91.2763 Q155.436 91.0911 156.455 91.0911 Q162.242 91.0911 165.621 94.2624 Q169.001 97.4337 169.001 102.85 Q169.001 108.429 165.529 111.531 Q162.057 114.61 155.737 114.61 Q153.561 114.61 151.293 114.239 Q149.048 113.869 146.64 113.128 L146.64 108.429 Q148.723 109.563 150.946 110.119 Q153.168 110.674 155.645 110.674 Q159.649 110.674 161.987 108.568 Q164.325 106.461 164.325 102.85 Q164.325 99.2392 161.987 97.1328 Q159.649 95.0263 155.645 95.0263 Q153.77 95.0263 151.895 95.443 Q150.043 95.8596 148.098 96.7393 L148.098 79.3782 Z" fill="#000000" fill-rule="evenodd" fill-opacity="1" /><path clip-path="url(#clip040)" d="M 0 0 M40.9105 758.592 Q45.9522 759.617 49.4773 761.707 Q53.8631 764.289 53.8631 768.224 Q53.8631 771.545 51.5677 773.758 Q49.2313 775.971 45.5423 775.971 Q44.4356 775.971 42.5911 775.52 Q41.7713 775.357 40.7465 775.357 Q34.1063 775.357 33.6144 789.744 Q38.3282 790.932 41.5253 791.752 Q44.6815 792.531 45.6243 792.777 Q46.567 793.023 47.3458 793.228 Q48.1246 793.392 49.1493 793.679 Q50.8299 794.089 51.6497 794.376 Q52.4695 794.662 53.1663 795.441 Q53.8631 796.179 53.8631 797.368 Q53.8631 798.392 53.2483 799.089 Q52.6334 799.786 51.5677 799.786 Q50.8299 799.786 49.6412 799.458 L18.8583 791.752 Q17.9975 791.547 17.3827 791.137 Q16.7678 790.728 16.4809 790.359 Q16.194 789.949 16.03 789.457 Q15.866 788.965 15.866 788.76 Q15.8251 788.555 15.8251 788.391 Q15.8251 787.284 16.4399 786.629 Q17.0137 785.932 18.0795 785.932 Q18.2434 785.932 19.3911 786.219 Q20.4978 786.465 22.1784 786.875 Q23.859 787.284 24.6378 787.448 L31.196 789.129 Q30.4172 786.793 29.0236 784.702 Q27.63 782.571 24.0229 778.39 Q22.4243 776.463 21.5226 775.316 Q20.5798 774.127 19.3091 772.159 Q17.9975 770.192 17.3827 768.306 Q16.7268 766.421 16.7268 764.617 Q16.7268 763.224 17.3827 762.404 Q17.9975 761.584 18.5713 761.42 Q19.1042 761.256 19.6781 761.256 Q21.3586 761.256 22.7932 762.568 Q24.2279 763.88 24.2279 765.806 Q24.2279 767.528 23.2851 768.265 Q22.3424 769.003 21.2766 769.003 Q20.4568 769.003 19.4321 768.593 Q20.4159 770.889 21.8505 772.856 Q23.2441 774.824 26.1544 778.226 Q30.2943 783.063 31.8519 785.932 Q31.8929 784.292 32.0158 783.063 Q32.0978 781.792 32.3847 779.66 Q32.6717 777.529 33.2865 775.971 Q33.8603 774.414 34.7621 772.897 Q35.6639 771.34 37.1395 770.52 Q38.6151 769.659 40.5006 769.659 Q41.4024 769.659 43.2469 770.069 Q46.2801 770.766 47.9607 770.766 Q50.0921 770.766 51.0348 770.11 Q51.9776 769.413 51.9776 768.06 Q51.9776 765.478 49.3133 763.839 Q46.608 762.158 41.6073 760.764 Q40.6646 760.559 40.3776 760.354 Q40.0907 760.15 40.0907 759.576 Q40.0907 758.592 40.9105 758.592 Z" fill="#000000" fill-rule="evenodd" fill-opacity="1" /><path clip-path="url(#clip040)" d="M 0 0 M58.2824 750.045 Q49.646 750.045 44.9404 747.864 Q37.9394 744.823 37.9394 737.65 Q37.9394 736.129 38.3698 734.551 Q38.7715 732.944 40.3496 730.936 Q41.9277 728.899 44.51 727.665 Q49.5025 725.312 58.2824 725.312 Q66.8615 725.312 71.5383 727.493 Q78.3671 730.677 78.3671 737.707 Q78.3671 740.347 77.0186 743.044 Q75.67 745.712 72.4278 747.405 Q67.5788 750.045 58.2824 750.045 M57.5651 745.167 Q66.4311 745.167 69.9602 744.536 Q73.7763 743.819 75.4405 741.868 Q77.076 739.888 77.076 737.707 Q77.076 735.354 75.3257 733.403 Q73.5468 731.423 69.7307 730.821 Q65.972 730.161 57.5651 730.19 Q49.3877 730.19 46.1168 730.764 Q42.3007 731.538 40.78 733.604 Q39.2306 735.641 39.2306 737.707 Q39.2306 738.482 39.4601 739.314 Q39.6897 740.117 40.3496 741.294 Q41.0095 742.47 42.645 743.388 Q44.2805 744.278 46.748 744.708 Q49.9329 745.167 57.5651 745.167 Z" fill="#000000" fill-rule="evenodd" fill-opacity="1" /><path clip-path="url(#clip040)" d="M 0 0 M69.1569 720.951 Q67.4066 720.951 66.5745 719.947 Q65.7424 718.943 65.7424 717.651 Q65.7424 716.303 66.6319 715.356 Q67.4927 714.381 69.0134 714.381 Q70.6489 714.381 71.567 715.528 Q72.4852 716.647 72.2556 718.254 Q74.6084 716.848 75.67 714.266 Q76.7317 711.655 76.7317 709.245 Q76.7317 706.72 74.551 704.682 Q72.3704 702.617 67.0336 702.617 Q62.5002 702.617 59.8892 704.396 Q57.2782 706.146 57.2782 709.618 L57.2782 712.2 Q57.2782 713.089 57.1921 713.348 Q57.106 713.606 56.6182 713.606 Q56.0444 713.606 55.9296 712.716 Q55.9296 711.827 55.7575 710.421 Q55.6427 707.007 52.6874 705.199 Q49.9329 703.563 46.002 703.563 Q42.4154 703.563 40.9234 705.285 Q39.4027 706.978 39.4027 709.187 Q39.4027 711.253 40.2635 713.52 Q41.1243 715.786 43.0467 717.02 Q43.0467 713.376 46.002 713.376 Q47.2932 713.376 48.1539 714.208 Q48.986 715.012 48.986 716.36 Q48.986 717.651 48.1826 718.512 Q47.3506 719.373 45.9446 719.373 Q42.5876 719.373 40.2635 716.389 Q37.9394 713.376 37.9394 708.958 Q37.9394 704.596 40.2348 701.383 Q42.5302 698.141 46.0594 698.141 Q49.5312 698.141 52.3717 700.436 Q55.2123 702.731 56.3887 706.375 Q57.2782 701.899 60.3196 699.231 Q63.3323 696.563 67.0336 696.563 Q71.6244 696.563 75.0101 700.178 Q78.3671 703.793 78.3671 709.072 Q78.3671 713.95 75.7274 717.451 Q73.0877 720.951 69.1569 720.951 Z" fill="#000000" fill-rule="evenodd" fill-opacity="1" /><polyline clip-path="url(#clip042)" style="stroke:#009af9; stroke-width:8; stroke-opacity:1; fill:none" points="
  265.787,1396.15 306.31,1390.46 346.834,1375.3 387.358,1353.18 427.881,1326.21 468.405,1296.09 508.929,1264.12 549.452,1231.37 589.976,1198.65 630.5,1166.53 
  671.023,1135.46 711.547,1105.82 752.071,1077.75 792.594,1051.39 833.118,1026.8 873.642,1004 914.165,982.921 954.689,963.525 995.213,945.762 1035.74,929.531 
  1076.26,914.727 1116.78,901.261 1157.31,889.045 1197.83,877.975 1238.35,867.952 1278.88,858.896 1319.4,850.726 1359.93,843.359 1400.45,836.721 1440.97,830.744 
  1481.5,825.371 1522.02,820.54 1562.54,816.199 1603.07,812.3 1643.59,808.801 1684.12,805.661 1724.64,802.844 1765.16,800.318 1805.69,798.053 1846.21,796.024 
  1886.73,794.205 1927.26,792.575 1967.78,791.115 2008.3,789.807 2048.83,788.636 2089.35,787.587 2129.88,786.648 2170.4,785.807 2210.92,785.054 2251.45,784.38 
  2291.97,783.777 
  "/>
<polyline clip-path="url(#clip042)" style="stroke:#e26f46; stroke-width:8; stroke-opacity:1; fill:none" points="
  265.787,1396.15 306.31,1293.9 346.834,1195.63 387.358,1102.01 427.881,1013.54 468.405,930.518 508.929,853.117 549.452,781.36 589.976,715.172 630.5,654.389 
  671.023,598.787 711.547,548.1 752.071,502.031 792.594,460.268 833.118,422.495 873.642,388.399 914.165,357.674 954.689,330.029 995.213,305.186 1035.74,282.886 
  1076.26,262.888 1116.78,244.969 1157.31,228.923 1197.83,214.563 1238.35,201.718 1278.88,190.234 1319.4,179.97 1359.93,170.799 1400.45,162.606 1440.97,155.289 
  1481.5,148.755 1522.02,142.922 1562.54,137.713 1603.07,133.064 1643.59,128.914 1684.12,125.21 1724.64,121.903 1765.16,118.952 1805.69,116.318 1846.21,113.967 
  1886.73,111.869 1927.26,109.996 1967.78,108.324 2008.3,106.832 2048.83,105.5 2089.35,104.311 2129.88,103.249 2170.4,102.301 2210.92,101.455 2251.45,100.7 
  2291.97,100.025 
  "/>
<polyline clip-path="url(#clip042)" style="stroke:#3da44d; stroke-width:8; stroke-opacity:1; fill:none" points="
  265.787,1396.15 306.31,1292.9 346.834,1191.5 387.358,1098.46 427.881,1011.25 468.405,922.594 508.929,841.955 549.452,774.367 589.976,714.305 630.5,651.197 
  671.023,599.893 711.547,545.184 752.071,502.85 792.594,466.069 833.118,424.613 873.642,392.879 914.165,364.674 954.689,328.785 995.213,302.364 1035.74,279.865 
  1076.26,257.529 1116.78,234.363 1157.31,219.827 1197.83,206.272 1238.35,198.756 1278.88,183.305 1319.4,174.379 1359.93,166.243 1400.45,159.091 1440.97,154.08 
  1481.5,145.088 1522.02,138.96 1562.54,133.481 1603.07,127.791 1643.59,121.468 1684.12,117.433 1724.64,108.925 1765.16,105.754 1805.69,101.839 1846.21,99.6198 
  1886.73,96.9963 1927.26,95.7331 1967.78,94.4692 2008.3,92.9376 2048.83,91.1219 2089.35,90.0679 2129.88,88.183 2170.4,87.7356 2210.92,87.0658 2251.45,86.5384 
  2291.97,86.5326 
  "/>
<path clip-path="url(#clip040)" d="
M1751.67 1389.17 L2281.16 1389.17 L2281.16 1147.25 L1751.67 1147.25  Z
  " fill="#ffffff" fill-rule="evenodd" fill-opacity="1"/>
<polyline clip-path="url(#clip040)" style="stroke:#000000; stroke-width:4; stroke-opacity:1; fill:none" points="
  1751.67,1389.17 2281.16,1389.17 2281.16,1147.25 1751.67,1147.25 1751.67,1389.17 
  "/>
<polyline clip-path="url(#clip040)" style="stroke:#009af9; stroke-width:4; stroke-opacity:1; fill:none" points="
  1775.53,1207.73 1918.72,1207.73 
  "/>
<path clip-path="url(#clip040)" d="M 0 0 M1948.21 1221.07 L1964.53 1221.07 L1964.53 1225.01 L1942.58 1225.01 L1942.58 1221.07 Q1945.24 1218.32 1949.83 1213.69 Q1954.43 1209.03 1955.61 1207.69 Q1957.86 1205.17 1958.74 1203.43 Q1959.64 1201.67 1959.64 1199.98 Q1959.64 1197.23 1957.7 1195.49 Q1955.78 1193.76 1952.67 1193.76 Q1950.47 1193.76 1948.02 1194.52 Q1945.59 1195.28 1942.81 1196.84 L1942.81 1192.11 Q1945.64 1190.98 1948.09 1190.4 Q1950.54 1189.82 1952.58 1189.82 Q1957.95 1189.82 1961.15 1192.51 Q1964.34 1195.19 1964.34 1199.68 Q1964.34 1201.81 1963.53 1203.73 Q1962.74 1205.63 1960.64 1208.22 Q1960.06 1208.9 1956.96 1212.11 Q1953.85 1215.31 1948.21 1221.07 Z" fill="#000000" fill-rule="evenodd" fill-opacity="1" /><path clip-path="url(#clip040)" d="M 0 0 M1990.54 1209.36 L1990.54 1225.01 L1986.28 1225.01 L1986.28 1209.5 Q1986.28 1205.82 1984.85 1203.99 Q1983.41 1202.16 1980.54 1202.16 Q1977.09 1202.16 1975.1 1204.36 Q1973.11 1206.56 1973.11 1210.35 L1973.11 1225.01 L1968.83 1225.01 L1968.83 1199.08 L1973.11 1199.08 L1973.11 1203.11 Q1974.64 1200.77 1976.7 1199.61 Q1978.78 1198.46 1981.49 1198.46 Q1985.96 1198.46 1988.25 1201.23 Q1990.54 1203.99 1990.54 1209.36 Z" fill="#000000" fill-rule="evenodd" fill-opacity="1" /><path clip-path="url(#clip040)" d="M 0 0 M2012.07 1203.02 L2012.07 1188.99 L2016.33 1188.99 L2016.33 1225.01 L2012.07 1225.01 L2012.07 1221.12 Q2010.73 1223.43 2008.67 1224.57 Q2006.63 1225.68 2003.76 1225.68 Q1999.06 1225.68 1996.1 1221.93 Q1993.16 1218.18 1993.16 1212.07 Q1993.16 1205.96 1996.1 1202.21 Q1999.06 1198.46 2003.76 1198.46 Q2006.63 1198.46 2008.67 1199.59 Q2010.73 1200.7 2012.07 1203.02 M1997.56 1212.07 Q1997.56 1216.77 1999.48 1219.45 Q2001.42 1222.11 2004.8 1222.11 Q2008.18 1222.11 2010.13 1219.45 Q2012.07 1216.77 2012.07 1212.07 Q2012.07 1207.37 2010.13 1204.71 Q2008.18 1202.02 2004.8 1202.02 Q2001.42 1202.02 1999.48 1204.71 Q1997.56 1207.37 1997.56 1212.07 Z" fill="#000000" fill-rule="evenodd" fill-opacity="1" /><path clip-path="url(#clip040)" d="M 0 0 M2045.91 1202.07 Q2042.49 1202.07 2040.5 1204.75 Q2038.51 1207.41 2038.51 1212.07 Q2038.51 1216.72 2040.47 1219.4 Q2042.46 1222.07 2045.91 1222.07 Q2049.32 1222.07 2051.31 1219.38 Q2053.3 1216.7 2053.3 1212.07 Q2053.3 1207.46 2051.31 1204.77 Q2049.32 1202.07 2045.91 1202.07 M2045.91 1198.46 Q2051.47 1198.46 2054.64 1202.07 Q2057.81 1205.68 2057.81 1212.07 Q2057.81 1218.43 2054.64 1222.07 Q2051.47 1225.68 2045.91 1225.68 Q2040.34 1225.68 2037.16 1222.07 Q2034.02 1218.43 2034.02 1212.07 Q2034.02 1205.68 2037.16 1202.07 Q2040.34 1198.46 2045.91 1198.46 Z" fill="#000000" fill-rule="evenodd" fill-opacity="1" /><path clip-path="url(#clip040)" d="M 0 0 M2077.3 1203.06 Q2076.59 1202.65 2075.73 1202.46 Q2074.9 1202.25 2073.88 1202.25 Q2070.27 1202.25 2068.32 1204.61 Q2066.4 1206.95 2066.4 1211.35 L2066.4 1225.01 L2062.12 1225.01 L2062.12 1199.08 L2066.4 1199.08 L2066.4 1203.11 Q2067.74 1200.75 2069.9 1199.61 Q2072.05 1198.46 2075.13 1198.46 Q2075.57 1198.46 2076.1 1198.52 Q2076.63 1198.57 2077.28 1198.69 L2077.3 1203.06 Z" fill="#000000" fill-rule="evenodd" fill-opacity="1" /><path clip-path="url(#clip040)" d="M 0 0 M2098 1203.02 L2098 1188.99 L2102.26 1188.99 L2102.26 1225.01 L2098 1225.01 L2098 1221.12 Q2096.65 1223.43 2094.59 1224.57 Q2092.56 1225.68 2089.69 1225.68 Q2084.99 1225.68 2082.02 1221.93 Q2079.09 1218.18 2079.09 1212.07 Q2079.09 1205.96 2082.02 1202.21 Q2084.99 1198.46 2089.69 1198.46 Q2092.56 1198.46 2094.59 1199.59 Q2096.65 1200.7 2098 1203.02 M2083.48 1212.07 Q2083.48 1216.77 2085.4 1219.45 Q2087.35 1222.11 2090.73 1222.11 Q2094.11 1222.11 2096.05 1219.45 Q2098 1216.77 2098 1212.07 Q2098 1207.37 2096.05 1204.71 Q2094.11 1202.02 2090.73 1202.02 Q2087.35 1202.02 2085.4 1204.71 Q2083.48 1207.37 2083.48 1212.07 Z" fill="#000000" fill-rule="evenodd" fill-opacity="1" /><path clip-path="url(#clip040)" d="M 0 0 M2128.9 1210.98 L2128.9 1213.06 L2109.32 1213.06 Q2109.59 1217.46 2111.96 1219.77 Q2114.34 1222.07 2118.58 1222.07 Q2121.03 1222.07 2123.32 1221.46 Q2125.64 1220.86 2127.9 1219.66 L2127.9 1223.69 Q2125.61 1224.66 2123.21 1225.17 Q2120.8 1225.68 2118.32 1225.68 Q2112.12 1225.68 2108.48 1222.07 Q2104.87 1218.46 2104.87 1212.3 Q2104.87 1205.93 2108.3 1202.21 Q2111.75 1198.46 2117.58 1198.46 Q2122.81 1198.46 2125.84 1201.84 Q2128.9 1205.19 2128.9 1210.98 M2124.64 1209.73 Q2124.59 1206.23 2122.67 1204.15 Q2120.77 1202.07 2117.63 1202.07 Q2114.06 1202.07 2111.91 1204.08 Q2109.78 1206.09 2109.46 1209.75 L2124.64 1209.73 Z" fill="#000000" fill-rule="evenodd" fill-opacity="1" /><path clip-path="url(#clip040)" d="M 0 0 M2148.39 1203.06 Q2147.67 1202.65 2146.82 1202.46 Q2145.98 1202.25 2144.96 1202.25 Q2141.35 1202.25 2139.41 1204.61 Q2137.49 1206.95 2137.49 1211.35 L2137.49 1225.01 L2133.21 1225.01 L2133.21 1199.08 L2137.49 1199.08 L2137.49 1203.11 Q2138.83 1200.75 2140.98 1199.61 Q2143.14 1198.46 2146.21 1198.46 Q2146.65 1198.46 2147.19 1198.52 Q2147.72 1198.57 2148.37 1198.69 L2148.39 1203.06 Z" fill="#000000" fill-rule="evenodd" fill-opacity="1" /><path clip-path="url(#clip040)" d="M 0 0 M2172.79 1194.29 L2172.79 1221.16 L2178.44 1221.16 Q2185.59 1221.16 2188.9 1217.92 Q2192.23 1214.68 2192.23 1207.69 Q2192.23 1200.75 2188.9 1197.53 Q2185.59 1194.29 2178.44 1194.29 L2172.79 1194.29 M2168.11 1190.45 L2177.72 1190.45 Q2187.77 1190.45 2192.46 1194.64 Q2197.16 1198.8 2197.16 1207.69 Q2197.16 1216.63 2192.44 1220.82 Q2187.72 1225.01 2177.72 1225.01 L2168.11 1225.01 L2168.11 1190.45 Z" fill="#000000" fill-rule="evenodd" fill-opacity="1" /><path clip-path="url(#clip040)" d="M 0 0 M2201.82 1190.45 L2208.78 1190.45 L2217.6 1213.96 L2226.47 1190.45 L2233.44 1190.45 L2233.44 1225.01 L2228.88 1225.01 L2228.88 1194.66 L2219.96 1218.36 L2215.26 1218.36 L2206.35 1194.66 L2206.35 1225.01 L2201.82 1225.01 L2201.82 1190.45 Z" fill="#000000" fill-rule="evenodd" fill-opacity="1" /><polyline clip-path="url(#clip040)" style="stroke:#e26f46; stroke-width:4; stroke-opacity:1; fill:none" points="
  1775.53,1268.21 1918.72,1268.21 
  "/>
<path clip-path="url(#clip040)" d="M 0 0 M1958.21 1266.85 Q1961.56 1267.57 1963.44 1269.84 Q1965.34 1272.11 1965.34 1275.44 Q1965.34 1280.56 1961.82 1283.36 Q1958.3 1286.16 1951.82 1286.16 Q1949.64 1286.16 1947.33 1285.72 Q1945.03 1285.3 1942.58 1284.44 L1942.58 1279.93 Q1944.53 1281.06 1946.84 1281.64 Q1949.16 1282.22 1951.68 1282.22 Q1956.08 1282.22 1958.37 1280.49 Q1960.68 1278.75 1960.68 1275.44 Q1960.68 1272.38 1958.53 1270.67 Q1956.4 1268.94 1952.58 1268.94 L1948.55 1268.94 L1948.55 1265.09 L1952.77 1265.09 Q1956.22 1265.09 1958.04 1263.73 Q1959.87 1262.34 1959.87 1259.75 Q1959.87 1257.08 1957.97 1255.67 Q1956.1 1254.24 1952.58 1254.24 Q1950.66 1254.24 1948.46 1254.65 Q1946.26 1255.07 1943.62 1255.95 L1943.62 1251.78 Q1946.28 1251.04 1948.6 1250.67 Q1950.94 1250.3 1953 1250.3 Q1958.32 1250.3 1961.42 1252.73 Q1964.53 1255.14 1964.53 1259.26 Q1964.53 1262.13 1962.88 1264.12 Q1961.24 1266.09 1958.21 1266.85 Z" fill="#000000" fill-rule="evenodd" fill-opacity="1" /><path clip-path="url(#clip040)" d="M 0 0 M1984.83 1263.54 Q1984.11 1263.13 1983.25 1262.94 Q1982.42 1262.73 1981.4 1262.73 Q1977.79 1262.73 1975.84 1265.09 Q1973.92 1267.43 1973.92 1271.83 L1973.92 1285.49 L1969.64 1285.49 L1969.64 1259.56 L1973.92 1259.56 L1973.92 1263.59 Q1975.27 1261.23 1977.42 1260.09 Q1979.57 1258.94 1982.65 1258.94 Q1983.09 1258.94 1983.62 1259 Q1984.16 1259.05 1984.8 1259.17 L1984.83 1263.54 Z" fill="#000000" fill-rule="evenodd" fill-opacity="1" /><path clip-path="url(#clip040)" d="M 0 0 M2005.52 1263.5 L2005.52 1249.47 L2009.78 1249.47 L2009.78 1285.49 L2005.52 1285.49 L2005.52 1281.6 Q2004.18 1283.91 2002.12 1285.05 Q2000.08 1286.16 1997.21 1286.16 Q1992.51 1286.16 1989.55 1282.41 Q1986.61 1278.66 1986.61 1272.55 Q1986.61 1266.44 1989.55 1262.69 Q1992.51 1258.94 1997.21 1258.94 Q2000.08 1258.94 2002.12 1260.07 Q2004.18 1261.18 2005.52 1263.5 M1991.01 1272.55 Q1991.01 1277.25 1992.93 1279.93 Q1994.87 1282.59 1998.25 1282.59 Q2001.63 1282.59 2003.58 1279.93 Q2005.52 1277.25 2005.52 1272.55 Q2005.52 1267.85 2003.58 1265.19 Q2001.63 1262.5 1998.25 1262.5 Q1994.87 1262.5 1992.93 1265.19 Q1991.01 1267.85 1991.01 1272.55 Z" fill="#000000" fill-rule="evenodd" fill-opacity="1" /><path clip-path="url(#clip040)" d="M 0 0 M2039.36 1262.55 Q2035.94 1262.55 2033.95 1265.23 Q2031.96 1267.89 2031.96 1272.55 Q2031.96 1277.2 2033.92 1279.88 Q2035.91 1282.55 2039.36 1282.55 Q2042.77 1282.55 2044.76 1279.86 Q2046.75 1277.18 2046.75 1272.55 Q2046.75 1267.94 2044.76 1265.25 Q2042.77 1262.55 2039.36 1262.55 M2039.36 1258.94 Q2044.92 1258.94 2048.09 1262.55 Q2051.26 1266.16 2051.26 1272.55 Q2051.26 1278.91 2048.09 1282.55 Q2044.92 1286.16 2039.36 1286.16 Q2033.78 1286.16 2030.61 1282.55 Q2027.47 1278.91 2027.47 1272.55 Q2027.47 1266.16 2030.61 1262.55 Q2033.78 1258.94 2039.36 1258.94 Z" fill="#000000" fill-rule="evenodd" fill-opacity="1" /><path clip-path="url(#clip040)" d="M 0 0 M2070.75 1263.54 Q2070.03 1263.13 2069.18 1262.94 Q2068.34 1262.73 2067.33 1262.73 Q2063.71 1262.73 2061.77 1265.09 Q2059.85 1267.43 2059.85 1271.83 L2059.85 1285.49 L2055.57 1285.49 L2055.57 1259.56 L2059.85 1259.56 L2059.85 1263.59 Q2061.19 1261.23 2063.34 1260.09 Q2065.5 1258.94 2068.58 1258.94 Q2069.02 1258.94 2069.55 1259 Q2070.08 1259.05 2070.73 1259.17 L2070.75 1263.54 Z" fill="#000000" fill-rule="evenodd" fill-opacity="1" /><path clip-path="url(#clip040)" d="M 0 0 M2091.45 1263.5 L2091.45 1249.47 L2095.71 1249.47 L2095.71 1285.49 L2091.45 1285.49 L2091.45 1281.6 Q2090.1 1283.91 2088.04 1285.05 Q2086.01 1286.16 2083.14 1286.16 Q2078.44 1286.16 2075.47 1282.41 Q2072.53 1278.66 2072.53 1272.55 Q2072.53 1266.44 2075.47 1262.69 Q2078.44 1258.94 2083.14 1258.94 Q2086.01 1258.94 2088.04 1260.07 Q2090.1 1261.18 2091.45 1263.5 M2076.93 1272.55 Q2076.93 1277.25 2078.85 1279.93 Q2080.8 1282.59 2084.18 1282.59 Q2087.56 1282.59 2089.5 1279.93 Q2091.45 1277.25 2091.45 1272.55 Q2091.45 1267.85 2089.5 1265.19 Q2087.56 1262.5 2084.18 1262.5 Q2080.8 1262.5 2078.85 1265.19 Q2076.93 1267.85 2076.93 1272.55 Z" fill="#000000" fill-rule="evenodd" fill-opacity="1" /><path clip-path="url(#clip040)" d="M 0 0 M2122.35 1271.46 L2122.35 1273.54 L2102.77 1273.54 Q2103.04 1277.94 2105.4 1280.25 Q2107.79 1282.55 2112.02 1282.55 Q2114.48 1282.55 2116.77 1281.94 Q2119.08 1281.34 2121.35 1280.14 L2121.35 1284.17 Q2119.06 1285.14 2116.65 1285.65 Q2114.25 1286.16 2111.77 1286.16 Q2105.57 1286.16 2101.93 1282.55 Q2098.32 1278.94 2098.32 1272.78 Q2098.32 1266.41 2101.75 1262.69 Q2105.2 1258.94 2111.03 1258.94 Q2116.26 1258.94 2119.29 1262.32 Q2122.35 1265.67 2122.35 1271.46 M2118.09 1270.21 Q2118.04 1266.71 2116.12 1264.63 Q2114.22 1262.55 2111.08 1262.55 Q2107.51 1262.55 2105.36 1264.56 Q2103.23 1266.57 2102.9 1270.23 L2118.09 1270.21 Z" fill="#000000" fill-rule="evenodd" fill-opacity="1" /><path clip-path="url(#clip040)" d="M 0 0 M2141.84 1263.54 Q2141.12 1263.13 2140.27 1262.94 Q2139.43 1262.73 2138.41 1262.73 Q2134.8 1262.73 2132.86 1265.09 Q2130.94 1267.43 2130.94 1271.83 L2130.94 1285.49 L2126.65 1285.49 L2126.65 1259.56 L2130.94 1259.56 L2130.94 1263.59 Q2132.28 1261.23 2134.43 1260.09 Q2136.58 1258.94 2139.66 1258.94 Q2140.1 1258.94 2140.64 1259 Q2141.17 1259.05 2141.82 1259.17 L2141.84 1263.54 Z" fill="#000000" fill-rule="evenodd" fill-opacity="1" /><path clip-path="url(#clip040)" d="M 0 0 M2166.24 1254.77 L2166.24 1281.64 L2171.89 1281.64 Q2179.04 1281.64 2182.35 1278.4 Q2185.68 1275.16 2185.68 1268.17 Q2185.68 1261.23 2182.35 1258.01 Q2179.04 1254.77 2171.89 1254.77 L2166.24 1254.77 M2161.56 1250.93 L2171.17 1250.93 Q2181.21 1250.93 2185.91 1255.12 Q2190.61 1259.28 2190.61 1268.17 Q2190.61 1277.11 2185.89 1281.3 Q2181.17 1285.49 2171.17 1285.49 L2161.56 1285.49 L2161.56 1250.93 Z" fill="#000000" fill-rule="evenodd" fill-opacity="1" /><path clip-path="url(#clip040)" d="M 0 0 M2195.27 1250.93 L2202.23 1250.93 L2211.05 1274.44 L2219.92 1250.93 L2226.89 1250.93 L2226.89 1285.49 L2222.33 1285.49 L2222.33 1255.14 L2213.41 1278.84 L2208.71 1278.84 L2199.8 1255.14 L2199.8 1285.49 L2195.27 1285.49 L2195.27 1250.93 Z" fill="#000000" fill-rule="evenodd" fill-opacity="1" /><polyline clip-path="url(#clip040)" style="stroke:#3da44d; stroke-width:4; stroke-opacity:1; fill:none" points="
  1775.53,1328.69 1918.72,1328.69 
  "/>
<path clip-path="url(#clip040)" d="M 0 0 M1964.83 1312.54 L1964.83 1317.1 Q1962.16 1315.83 1959.8 1315.2 Q1957.44 1314.58 1955.24 1314.58 Q1951.42 1314.58 1949.34 1316.06 Q1947.28 1317.54 1947.28 1320.27 Q1947.28 1322.56 1948.65 1323.74 Q1950.03 1324.9 1953.88 1325.62 L1956.7 1326.2 Q1961.93 1327.19 1964.41 1329.72 Q1966.91 1332.22 1966.91 1336.43 Q1966.91 1341.45 1963.53 1344.04 Q1960.17 1346.64 1953.67 1346.64 Q1951.22 1346.64 1948.44 1346.08 Q1945.68 1345.53 1942.72 1344.44 L1942.72 1339.62 Q1945.57 1341.22 1948.3 1342.03 Q1951.03 1342.84 1953.67 1342.84 Q1957.67 1342.84 1959.85 1341.27 Q1962.03 1339.69 1962.03 1336.78 Q1962.03 1334.23 1960.45 1332.8 Q1958.9 1331.36 1955.34 1330.64 L1952.49 1330.09 Q1947.26 1329.05 1944.92 1326.82 Q1942.58 1324.6 1942.58 1320.64 Q1942.58 1316.06 1945.8 1313.42 Q1949.04 1310.78 1954.71 1310.78 Q1957.14 1310.78 1959.66 1311.22 Q1962.19 1311.66 1964.83 1312.54 Z" fill="#000000" fill-rule="evenodd" fill-opacity="1" /><path clip-path="url(#clip040)" d="M 0 0 M1992.28 1312.54 L1992.28 1317.1 Q1989.62 1315.83 1987.26 1315.2 Q1984.9 1314.58 1982.7 1314.58 Q1978.88 1314.58 1976.79 1316.06 Q1974.73 1317.54 1974.73 1320.27 Q1974.73 1322.56 1976.1 1323.74 Q1977.49 1324.9 1981.33 1325.62 L1984.16 1326.2 Q1989.39 1327.19 1991.86 1329.72 Q1994.36 1332.22 1994.36 1336.43 Q1994.36 1341.45 1990.98 1344.04 Q1987.63 1346.64 1981.12 1346.64 Q1978.67 1346.64 1975.89 1346.08 Q1973.14 1345.53 1970.17 1344.44 L1970.17 1339.62 Q1973.02 1341.22 1975.75 1342.03 Q1978.48 1342.84 1981.12 1342.84 Q1985.13 1342.84 1987.3 1341.27 Q1989.48 1339.69 1989.48 1336.78 Q1989.48 1334.23 1987.91 1332.8 Q1986.35 1331.36 1982.79 1330.64 L1979.94 1330.09 Q1974.71 1329.05 1972.37 1326.82 Q1970.03 1324.6 1970.03 1320.64 Q1970.03 1316.06 1973.25 1313.42 Q1976.49 1310.78 1982.16 1310.78 Q1984.59 1310.78 1987.12 1311.22 Q1989.64 1311.66 1992.28 1312.54 Z" fill="#000000" fill-rule="evenodd" fill-opacity="1" /><path clip-path="url(#clip040)" d="M 0 0 M2011.45 1316.01 L2005.1 1333.21 L2017.81 1333.21 L2011.45 1316.01 M2008.81 1311.41 L2014.11 1311.41 L2027.28 1345.97 L2022.42 1345.97 L2019.27 1337.1 L2003.69 1337.1 L2000.54 1345.97 L1995.61 1345.97 L2008.81 1311.41 Z" fill="#000000" fill-rule="evenodd" fill-opacity="1" /></svg>
