<?xml version="1.0" encoding="utf-8"?>
<svg xmlns="http://www.w3.org/2000/svg" xmlns:xlink="http://www.w3.org/1999/xlink" width="600" height="400" viewBox="0 0 2400 1600">
<defs>
  <clipPath id="clip050">
    <rect x="0" y="0" width="2400" height="1600"/>
  </clipPath>
</defs>
<path clip-path="url(#clip050)" d="
M0 1600 L2400 1600 L2400 0 L0 0  Z
  " fill="#ffffff" fill-rule="evenodd" fill-opacity="1"/>
<defs>
  <clipPath id="clip051">
    <rect x="480" y="0" width="1681" height="1600"/>
  </clipPath>
</defs>
<path clip-path="url(#clip050)" d="
M249.542 1423.18 L2352.76 1423.18 L2352.76 47.2441 L249.542 47.2441  Z
  " fill="#ffffff" fill-rule="evenodd" fill-opacity="1"/>
<defs>
  <clipPath id="clip052">
    <rect x="249" y="47" width="2104" height="1377"/>
  </clipPath>
</defs>
<polyline clip-path="url(#clip052)" style="stroke:#000000; stroke-linecap:butt; stroke-linejoin:round; stroke-width:2; stroke-opacity:0.1; fill:none" points="
  309.067,1423.18 309.067,47.2441 
  "/>
<polyline clip-path="url(#clip052)" style="stroke:#000000; stroke-linecap:butt; stroke-linejoin:round; stroke-width:2; stroke-opacity:0.1; fill:none" points="
  805.108,1423.18 805.108,47.2441 
  "/>
<polyline clip-path="url(#clip052)" style="stroke:#000000; stroke-linecap:butt; stroke-linejoin:round; stroke-width:2; stroke-opacity:0.1; fill:none" points="
  1301.15,1423.18 1301.15,47.2441 
  "/>
<polyline clip-path="url(#clip052)" style="stroke:#000000; stroke-linecap:butt; stroke-linejoin:round; stroke-width:2; stroke-opacity:0.1; fill:none" points="
  1797.19,1423.18 1797.19,47.2441 
  "/>
<polyline clip-path="url(#clip052)" style="stroke:#000000; stroke-linecap:butt; stroke-linejoin:round; stroke-width:2; stroke-opacity:0.1; fill:none" points="
  2293.23,1423.18 2293.23,47.2441 
  "/>
<polyline clip-path="url(#clip050)" style="stroke:#000000; stroke-linecap:butt; stroke-linejoin:round; stroke-width:4; stroke-opacity:1; fill:none" points="
  249.542,1423.18 2352.76,1423.18 
  "/>
<polyline clip-path="url(#clip050)" style="stroke:#000000; stroke-linecap:butt; stroke-linejoin:round; stroke-width:4; stroke-opacity:1; fill:none" points="
  309.067,1423.18 309.067,1406.67 
  "/>
<polyline clip-path="url(#clip050)" style="stroke:#000000; stroke-linecap:butt; stroke-linejoin:round; stroke-width:4; stroke-opacity:1; fill:none" points="
  805.108,1423.18 805.108,1406.67 
  "/>
<polyline clip-path="url(#clip050)" style="stroke:#000000; stroke-linecap:butt; stroke-linejoin:round; stroke-width:4; stroke-opacity:1; fill:none" points="
  1301.15,1423.18 1301.15,1406.67 
  "/>
<polyline clip-path="url(#clip050)" style="stroke:#000000; stroke-linecap:butt; stroke-linejoin:round; stroke-width:4; stroke-opacity:1; fill:none" points="
  1797.19,1423.18 1797.19,1406.67 
  "/>
<polyline clip-path="url(#clip050)" style="stroke:#000000; stroke-linecap:butt; stroke-linejoin:round; stroke-width:4; stroke-opacity:1; fill:none" points="
  2293.23,1423.18 2293.23,1406.67 
  "/>
<path clip-path="url(#clip050)" d="M309.067 1452.37 Q305.456 1452.37 303.627 1455.94 Q301.822 1459.48 301.822 1466.61 Q301.822 1473.71 303.627 1477.28 Q305.456 1480.82 309.067 1480.82 Q312.701 1480.82 314.507 1477.28 Q316.335 1473.71 316.335 1466.61 Q316.335 1459.48 314.507 1455.94 Q312.701 1452.37 309.067 1452.37 M309.067 1448.67 Q314.877 1448.67 317.933 1453.27 Q321.011 1457.86 321.011 1466.61 Q321.011 1475.33 317.933 1479.94 Q314.877 1484.52 309.067 1484.52 Q303.257 1484.52 300.178 1479.94 Q297.123 1475.33 297.123 1466.61 Q297.123 1457.86 300.178 1453.27 Q303.257 1448.67 309.067 1448.67 Z" fill="#000000" fill-rule="evenodd" fill-opacity="1" /><path clip-path="url(#clip050)" d="M784.379 1479.92 L800.698 1479.92 L800.698 1483.85 L778.754 1483.85 L778.754 1479.92 Q781.416 1477.16 785.999 1472.53 Q790.606 1467.88 791.786 1466.54 Q794.032 1464.01 794.911 1462.28 Q795.814 1460.52 795.814 1458.83 Q795.814 1456.07 793.87 1454.34 Q791.948 1452.6 788.846 1452.6 Q786.647 1452.6 784.194 1453.37 Q781.763 1454.13 778.985 1455.68 L778.985 1450.96 Q781.809 1449.82 784.263 1449.25 Q786.717 1448.67 788.754 1448.67 Q794.124 1448.67 797.319 1451.35 Q800.513 1454.04 800.513 1458.53 Q800.513 1460.66 799.703 1462.58 Q798.916 1464.48 796.809 1467.07 Q796.231 1467.74 793.129 1470.96 Q790.027 1474.15 784.379 1479.92 Z" fill="#000000" fill-rule="evenodd" fill-opacity="1" /><path clip-path="url(#clip050)" d="M810.559 1449.29 L828.916 1449.29 L828.916 1453.23 L814.842 1453.23 L814.842 1461.7 Q815.86 1461.35 816.879 1461.19 Q817.897 1461 818.916 1461 Q824.703 1461 828.082 1464.18 Q831.462 1467.35 831.462 1472.76 Q831.462 1478.34 827.99 1481.44 Q824.518 1484.52 818.198 1484.52 Q816.022 1484.52 813.754 1484.15 Q811.508 1483.78 809.101 1483.04 L809.101 1478.34 Q811.184 1479.48 813.407 1480.03 Q815.629 1480.59 818.106 1480.59 Q822.11 1480.59 824.448 1478.48 Q826.786 1476.38 826.786 1472.76 Q826.786 1469.15 824.448 1467.05 Q822.11 1464.94 818.106 1464.94 Q816.231 1464.94 814.356 1465.36 Q812.504 1465.77 810.559 1466.65 L810.559 1449.29 Z" fill="#000000" fill-rule="evenodd" fill-opacity="1" /><path clip-path="url(#clip050)" d="M1275.85 1449.29 L1294.2 1449.29 L1294.2 1453.23 L1280.13 1453.23 L1280.13 1461.7 Q1281.15 1461.35 1282.17 1461.19 Q1283.19 1461 1284.2 1461 Q1289.99 1461 1293.37 1464.18 Q1296.75 1467.35 1296.75 1472.76 Q1296.75 1478.34 1293.28 1481.44 Q1289.81 1484.52 1283.49 1484.52 Q1281.31 1484.52 1279.04 1484.15 Q1276.8 1483.78 1274.39 1483.04 L1274.39 1478.34 Q1276.47 1479.48 1278.7 1480.03 Q1280.92 1480.59 1283.39 1480.59 Q1287.4 1480.59 1289.74 1478.48 Q1292.07 1476.38 1292.07 1472.76 Q1292.07 1469.15 1289.74 1467.05 Q1287.4 1464.94 1283.39 1464.94 Q1281.52 1464.94 1279.64 1465.36 Q1277.79 1465.77 1275.85 1466.65 L1275.85 1449.29 Z" fill="#000000" fill-rule="evenodd" fill-opacity="1" /><path clip-path="url(#clip050)" d="M1315.96 1452.37 Q1312.35 1452.37 1310.52 1455.94 Q1308.72 1459.48 1308.72 1466.61 Q1308.72 1473.71 1310.52 1477.28 Q1312.35 1480.82 1315.96 1480.82 Q1319.6 1480.82 1321.4 1477.28 Q1323.23 1473.71 1323.23 1466.61 Q1323.23 1459.48 1321.4 1455.94 Q1319.6 1452.37 1315.96 1452.37 M1315.96 1448.67 Q1321.77 1448.67 1324.83 1453.27 Q1327.91 1457.86 1327.91 1466.61 Q1327.91 1475.33 1324.83 1479.94 Q1321.77 1484.52 1315.96 1484.52 Q1310.15 1484.52 1307.07 1479.94 Q1304.02 1475.33 1304.02 1466.61 Q1304.02 1457.86 1307.07 1453.27 Q1310.15 1448.67 1315.96 1448.67 Z" fill="#000000" fill-rule="evenodd" fill-opacity="1" /><path clip-path="url(#clip050)" d="M1771.04 1449.29 L1793.27 1449.29 L1793.27 1451.28 L1780.72 1483.85 L1775.84 1483.85 L1787.64 1453.23 L1771.04 1453.23 L1771.04 1449.29 Z" fill="#000000" fill-rule="evenodd" fill-opacity="1" /><path clip-path="url(#clip050)" d="M1802.43 1449.29 L1820.79 1449.29 L1820.79 1453.23 L1806.72 1453.23 L1806.72 1461.7 Q1807.73 1461.35 1808.75 1461.19 Q1809.77 1461 1810.79 1461 Q1816.58 1461 1819.96 1464.18 Q1823.34 1467.35 1823.34 1472.76 Q1823.34 1478.34 1819.86 1481.44 Q1816.39 1484.52 1810.07 1484.52 Q1807.9 1484.52 1805.63 1484.15 Q1803.38 1483.78 1800.97 1483.04 L1800.97 1478.34 Q1803.06 1479.48 1805.28 1480.03 Q1807.5 1480.59 1809.98 1480.59 Q1813.98 1480.59 1816.32 1478.48 Q1818.66 1476.38 1818.66 1472.76 Q1818.66 1469.15 1816.32 1467.05 Q1813.98 1464.94 1809.98 1464.94 Q1808.1 1464.94 1806.23 1465.36 Q1804.38 1465.77 1802.43 1466.65 L1802.43 1449.29 Z" fill="#000000" fill-rule="evenodd" fill-opacity="1" /><path clip-path="url(#clip050)" d="M2252.84 1479.92 L2260.48 1479.92 L2260.48 1453.55 L2252.17 1455.22 L2252.17 1450.96 L2260.43 1449.29 L2265.11 1449.29 L2265.11 1479.92 L2272.74 1479.92 L2272.74 1483.85 L2252.84 1483.85 L2252.84 1479.92 Z" fill="#000000" fill-rule="evenodd" fill-opacity="1" /><path clip-path="url(#clip050)" d="M2292.19 1452.37 Q2288.58 1452.37 2286.75 1455.94 Q2284.94 1459.48 2284.94 1466.61 Q2284.94 1473.71 2286.75 1477.28 Q2288.58 1480.82 2292.19 1480.82 Q2295.82 1480.82 2297.63 1477.28 Q2299.46 1473.71 2299.46 1466.61 Q2299.46 1459.48 2297.63 1455.94 Q2295.82 1452.37 2292.19 1452.37 M2292.19 1448.67 Q2298 1448.67 2301.06 1453.27 Q2304.13 1457.86 2304.13 1466.61 Q2304.13 1475.33 2301.06 1479.94 Q2298 1484.52 2292.19 1484.52 Q2286.38 1484.52 2283.3 1479.94 Q2280.24 1475.33 2280.24 1466.61 Q2280.24 1457.86 2283.3 1453.27 Q2286.38 1448.67 2292.19 1448.67 Z" fill="#000000" fill-rule="evenodd" fill-opacity="1" /><path clip-path="url(#clip050)" d="M2322.35 1452.37 Q2318.74 1452.37 2316.91 1455.94 Q2315.11 1459.48 2315.11 1466.61 Q2315.11 1473.71 2316.91 1477.28 Q2318.74 1480.82 2322.35 1480.82 Q2325.99 1480.82 2327.79 1477.28 Q2329.62 1473.71 2329.62 1466.61 Q2329.62 1459.48 2327.79 1455.94 Q2325.99 1452.37 2322.35 1452.37 M2322.35 1448.67 Q2328.16 1448.67 2331.22 1453.27 Q2334.3 1457.86 2334.3 1466.61 Q2334.3 1475.33 2331.22 1479.94 Q2328.16 1484.52 2322.35 1484.52 Q2316.54 1484.52 2313.46 1479.94 Q2310.41 1475.33 2310.41 1466.61 Q2310.41 1457.86 2313.46 1453.27 Q2316.54 1448.67 2322.35 1448.67 Z" fill="#000000" fill-rule="evenodd" fill-opacity="1" /><path clip-path="url(#clip050)" d="M1316.08 1546.53 L1316.08 1568.04 L1310.22 1568.04 L1310.22 1546.72 Q1310.22 1541.66 1308.25 1539.14 Q1306.27 1536.63 1302.33 1536.63 Q1297.58 1536.63 1294.85 1539.65 Q1292.11 1542.68 1292.11 1547.9 L1292.11 1568.04 L1286.22 1568.04 L1286.22 1532.4 L1292.11 1532.4 L1292.11 1537.93 Q1294.21 1534.72 1297.04 1533.13 Q1299.91 1531.54 1303.63 1531.54 Q1309.77 1531.54 1312.93 1535.36 Q1316.08 1539.14 1316.08 1546.53 Z" fill="#000000" fill-rule="evenodd" fill-opacity="1" /><polyline clip-path="url(#clip052)" style="stroke:#000000; stroke-linecap:butt; stroke-linejoin:round; stroke-width:2; stroke-opacity:0.1; fill:none" points="
  249.542,1384.24 2352.76,1384.24 
  "/>
<polyline clip-path="url(#clip052)" style="stroke:#000000; stroke-linecap:butt; stroke-linejoin:round; stroke-width:2; stroke-opacity:0.1; fill:none" points="
  249.542,984.912 2352.76,984.912 
  "/>
<polyline clip-path="url(#clip052)" style="stroke:#000000; stroke-linecap:butt; stroke-linejoin:round; stroke-width:2; stroke-opacity:0.1; fill:none" points="
  249.542,585.587 2352.76,585.587 
  "/>
<polyline clip-path="url(#clip052)" style="stroke:#000000; stroke-linecap:butt; stroke-linejoin:round; stroke-width:2; stroke-opacity:0.1; fill:none" points="
  249.542,186.261 2352.76,186.261 
  "/>
<polyline clip-path="url(#clip050)" style="stroke:#000000; stroke-linecap:butt; stroke-linejoin:round; stroke-width:4; stroke-opacity:1; fill:none" points="
  249.542,1423.18 249.542,47.2441 
  "/>
<polyline clip-path="url(#clip050)" style="stroke:#000000; stroke-linecap:butt; stroke-linejoin:round; stroke-width:4; stroke-opacity:1; fill:none" points="
  249.542,1384.24 274.781,1384.24 
  "/>
<polyline clip-path="url(#clip050)" style="stroke:#000000; stroke-linecap:butt; stroke-linejoin:round; stroke-width:4; stroke-opacity:1; fill:none" points="
  249.542,984.912 274.781,984.912 
  "/>
<polyline clip-path="url(#clip050)" style="stroke:#000000; stroke-linecap:butt; stroke-linejoin:round; stroke-width:4; stroke-opacity:1; fill:none" points="
  249.542,585.587 274.781,585.587 
  "/>
<polyline clip-path="url(#clip050)" style="stroke:#000000; stroke-linecap:butt; stroke-linejoin:round; stroke-width:4; stroke-opacity:1; fill:none" points="
  249.542,186.261 274.781,186.261 
  "/>
<path clip-path="url(#clip050)" d="M126.205 1370.04 Q122.593 1370.04 120.765 1373.6 Q118.959 1377.14 118.959 1384.27 Q118.959 1391.38 120.765 1394.94 Q122.593 1398.49 126.205 1398.49 Q129.839 1398.49 131.644 1394.94 Q133.473 1391.38 133.473 1384.27 Q133.473 1377.14 131.644 1373.6 Q129.839 1370.04 126.205 1370.04 M126.205 1366.33 Q132.015 1366.33 135.07 1370.94 Q138.149 1375.52 138.149 1384.27 Q138.149 1393 135.07 1397.61 Q132.015 1402.19 126.205 1402.19 Q120.394 1402.19 117.316 1397.61 Q114.26 1393 114.26 1384.27 Q114.26 1375.52 117.316 1370.94 Q120.394 1366.33 126.205 1366.33 Z" fill="#000000" fill-rule="evenodd" fill-opacity="1" /><path clip-path="url(#clip050)" d="M146.366 1395.64 L151.251 1395.64 L151.251 1401.52 L146.366 1401.52 L146.366 1395.64 Z" fill="#000000" fill-rule="evenodd" fill-opacity="1" /><path clip-path="url(#clip050)" d="M171.436 1370.04 Q167.825 1370.04 165.996 1373.6 Q164.19 1377.14 164.19 1384.27 Q164.19 1391.38 165.996 1394.94 Q167.825 1398.49 171.436 1398.49 Q175.07 1398.49 176.876 1394.94 Q178.704 1391.38 178.704 1384.27 Q178.704 1377.14 176.876 1373.6 Q175.07 1370.04 171.436 1370.04 M171.436 1366.33 Q177.246 1366.33 180.301 1370.94 Q183.38 1375.52 183.38 1384.27 Q183.38 1393 180.301 1397.61 Q177.246 1402.19 171.436 1402.19 Q165.626 1402.19 162.547 1397.61 Q159.491 1393 159.491 1384.27 Q159.491 1375.52 162.547 1370.94 Q165.626 1366.33 171.436 1366.33 Z" fill="#000000" fill-rule="evenodd" fill-opacity="1" /><path clip-path="url(#clip050)" d="M201.598 1370.04 Q197.987 1370.04 196.158 1373.6 Q194.352 1377.14 194.352 1384.27 Q194.352 1391.38 196.158 1394.94 Q197.987 1398.49 201.598 1398.49 Q205.232 1398.49 207.037 1394.94 Q208.866 1391.38 208.866 1384.27 Q208.866 1377.14 207.037 1373.6 Q205.232 1370.04 201.598 1370.04 M201.598 1366.33 Q207.408 1366.33 210.463 1370.94 Q213.542 1375.52 213.542 1384.27 Q213.542 1393 210.463 1397.61 Q207.408 1402.19 201.598 1402.19 Q195.787 1402.19 192.709 1397.61 Q189.653 1393 189.653 1384.27 Q189.653 1375.52 192.709 1370.94 Q195.787 1366.33 201.598 1366.33 Z" fill="#000000" fill-rule="evenodd" fill-opacity="1" /><path clip-path="url(#clip050)" d="M127.431 970.711 Q123.82 970.711 121.992 974.276 Q120.186 977.818 120.186 984.947 Q120.186 992.054 121.992 995.618 Q123.82 999.16 127.431 999.16 Q131.066 999.16 132.871 995.618 Q134.7 992.054 134.7 984.947 Q134.7 977.818 132.871 974.276 Q131.066 970.711 127.431 970.711 M127.431 967.007 Q133.242 967.007 136.297 971.614 Q139.376 976.197 139.376 984.947 Q139.376 993.674 136.297 998.28 Q133.242 1002.86 127.431 1002.86 Q121.621 1002.86 118.543 998.28 Q115.487 993.674 115.487 984.947 Q115.487 976.197 118.543 971.614 Q121.621 967.007 127.431 967.007 Z" fill="#000000" fill-rule="evenodd" fill-opacity="1" /><path clip-path="url(#clip050)" d="M147.593 996.313 L152.478 996.313 L152.478 1002.19 L147.593 1002.19 L147.593 996.313 Z" fill="#000000" fill-rule="evenodd" fill-opacity="1" /><path clip-path="url(#clip050)" d="M172.663 970.711 Q169.052 970.711 167.223 974.276 Q165.417 977.818 165.417 984.947 Q165.417 992.054 167.223 995.618 Q169.052 999.16 172.663 999.16 Q176.297 999.16 178.102 995.618 Q179.931 992.054 179.931 984.947 Q179.931 977.818 178.102 974.276 Q176.297 970.711 172.663 970.711 M172.663 967.007 Q178.473 967.007 181.528 971.614 Q184.607 976.197 184.607 984.947 Q184.607 993.674 181.528 998.28 Q178.473 1002.86 172.663 1002.86 Q166.852 1002.86 163.774 998.28 Q160.718 993.674 160.718 984.947 Q160.718 976.197 163.774 971.614 Q166.852 967.007 172.663 967.007 Z" fill="#000000" fill-rule="evenodd" fill-opacity="1" /><path clip-path="url(#clip050)" d="M193.635 998.257 L201.274 998.257 L201.274 971.892 L192.963 973.558 L192.963 969.299 L201.227 967.632 L205.903 967.632 L205.903 998.257 L213.542 998.257 L213.542 1002.19 L193.635 1002.19 L193.635 998.257 Z" fill="#000000" fill-rule="evenodd" fill-opacity="1" /><path clip-path="url(#clip050)" d="M127.802 571.385 Q124.191 571.385 122.362 574.95 Q120.556 578.492 120.556 585.621 Q120.556 592.728 122.362 596.293 Q124.191 599.834 127.802 599.834 Q131.436 599.834 133.242 596.293 Q135.07 592.728 135.07 585.621 Q135.07 578.492 133.242 574.95 Q131.436 571.385 127.802 571.385 M127.802 567.682 Q133.612 567.682 136.667 572.288 Q139.746 576.871 139.746 585.621 Q139.746 594.348 136.667 598.955 Q133.612 603.538 127.802 603.538 Q121.992 603.538 118.913 598.955 Q115.857 594.348 115.857 585.621 Q115.857 576.871 118.913 572.288 Q121.992 567.682 127.802 567.682 Z" fill="#000000" fill-rule="evenodd" fill-opacity="1" /><path clip-path="url(#clip050)" d="M147.964 596.987 L152.848 596.987 L152.848 602.867 L147.964 602.867 L147.964 596.987 Z" fill="#000000" fill-rule="evenodd" fill-opacity="1" /><path clip-path="url(#clip050)" d="M173.033 571.385 Q169.422 571.385 167.593 574.95 Q165.788 578.492 165.788 585.621 Q165.788 592.728 167.593 596.293 Q169.422 599.834 173.033 599.834 Q176.667 599.834 178.473 596.293 Q180.301 592.728 180.301 585.621 Q180.301 578.492 178.473 574.95 Q176.667 571.385 173.033 571.385 M173.033 567.682 Q178.843 567.682 181.899 572.288 Q184.977 576.871 184.977 585.621 Q184.977 594.348 181.899 598.955 Q178.843 603.538 173.033 603.538 Q167.223 603.538 164.144 598.955 Q161.089 594.348 161.089 585.621 Q161.089 576.871 164.144 572.288 Q167.223 567.682 173.033 567.682 Z" fill="#000000" fill-rule="evenodd" fill-opacity="1" /><path clip-path="url(#clip050)" d="M197.223 598.931 L213.542 598.931 L213.542 602.867 L191.598 602.867 L191.598 598.931 Q194.26 596.177 198.843 591.547 Q203.449 586.895 204.63 585.552 Q206.875 583.029 207.755 581.293 Q208.658 579.533 208.658 577.844 Q208.658 575.089 206.713 573.353 Q204.792 571.617 201.69 571.617 Q199.491 571.617 197.037 572.381 Q194.607 573.145 191.829 574.696 L191.829 569.973 Q194.653 568.839 197.107 568.26 Q199.561 567.682 201.598 567.682 Q206.968 567.682 210.162 570.367 Q213.357 573.052 213.357 577.543 Q213.357 579.672 212.547 581.594 Q211.76 583.492 209.653 586.084 Q209.074 586.756 205.973 589.973 Q202.871 593.168 197.223 598.931 Z" fill="#000000" fill-rule="evenodd" fill-opacity="1" /><path clip-path="url(#clip050)" d="M126.853 172.06 Q123.242 172.06 121.413 175.624 Q119.607 179.166 119.607 186.296 Q119.607 193.402 121.413 196.967 Q123.242 200.508 126.853 200.508 Q130.487 200.508 132.292 196.967 Q134.121 193.402 134.121 186.296 Q134.121 179.166 132.292 175.624 Q130.487 172.06 126.853 172.06 M126.853 168.356 Q132.663 168.356 135.718 172.962 Q138.797 177.546 138.797 186.296 Q138.797 195.022 135.718 199.629 Q132.663 204.212 126.853 204.212 Q121.043 204.212 117.964 199.629 Q114.908 195.022 114.908 186.296 Q114.908 177.546 117.964 172.962 Q121.043 168.356 126.853 168.356 Z" fill="#000000" fill-rule="evenodd" fill-opacity="1" /><path clip-path="url(#clip050)" d="M147.015 197.661 L151.899 197.661 L151.899 203.541 L147.015 203.541 L147.015 197.661 Z" fill="#000000" fill-rule="evenodd" fill-opacity="1" /><path clip-path="url(#clip050)" d="M172.084 172.06 Q168.473 172.06 166.644 175.624 Q164.839 179.166 164.839 186.296 Q164.839 193.402 166.644 196.967 Q168.473 200.508 172.084 200.508 Q175.718 200.508 177.524 196.967 Q179.352 193.402 179.352 186.296 Q179.352 179.166 177.524 175.624 Q175.718 172.06 172.084 172.06 M172.084 168.356 Q177.894 168.356 180.95 172.962 Q184.028 177.546 184.028 186.296 Q184.028 195.022 180.95 199.629 Q177.894 204.212 172.084 204.212 Q166.274 204.212 163.195 199.629 Q160.14 195.022 160.14 186.296 Q160.14 177.546 163.195 172.962 Q166.274 168.356 172.084 168.356 Z" fill="#000000" fill-rule="evenodd" fill-opacity="1" /><path clip-path="url(#clip050)" d="M206.412 184.907 Q209.769 185.624 211.644 187.893 Q213.542 190.161 213.542 193.495 Q213.542 198.61 210.024 201.411 Q206.505 204.212 200.024 204.212 Q197.848 204.212 195.533 203.772 Q193.241 203.356 190.788 202.499 L190.788 197.985 Q192.732 199.12 195.047 199.698 Q197.362 200.277 199.885 200.277 Q204.283 200.277 206.574 198.541 Q208.889 196.805 208.889 193.495 Q208.889 190.439 206.737 188.726 Q204.607 186.99 200.787 186.99 L196.76 186.99 L196.76 183.147 L200.973 183.147 Q204.422 183.147 206.25 181.782 Q208.079 180.393 208.079 177.8 Q208.079 175.138 206.181 173.726 Q204.306 172.291 200.787 172.291 Q198.866 172.291 196.667 172.708 Q194.468 173.124 191.829 174.004 L191.829 169.837 Q194.491 169.097 196.806 168.726 Q199.144 168.356 201.204 168.356 Q206.528 168.356 209.63 170.786 Q212.732 173.194 212.732 177.314 Q212.732 180.185 211.088 182.175 Q209.445 184.143 206.412 184.907 Z" fill="#000000" fill-rule="evenodd" fill-opacity="1" /><path clip-path="url(#clip050)" d="M21.7677 870.069 L39.6235 870.069 L39.6235 861.985 Q39.6235 857.497 37.3 855.046 Q34.9765 852.596 30.6797 852.596 Q26.4147 852.596 24.0912 855.046 Q21.7677 857.497 21.7677 861.985 L21.7677 870.069 M16.4842 876.499 L16.4842 861.985 Q16.4842 853.996 20.1126 849.922 Q23.7092 845.816 30.6797 845.816 Q37.7138 845.816 41.3104 849.922 Q44.907 853.996 44.907 861.985 L44.907 870.069 L64.0042 870.069 L64.0042 876.499 L16.4842 876.499 Z" fill="#000000" fill-rule="evenodd" fill-opacity="1" /><path clip-path="url(#clip050)" d="M14.5426 823.377 Q21.8632 827.642 29.0246 829.711 Q36.186 831.78 43.5384 831.78 Q50.8908 831.78 58.1159 829.711 Q65.3091 827.61 72.5979 823.377 L72.5979 828.47 Q65.1182 833.244 57.8931 835.631 Q50.668 837.986 43.5384 837.986 Q36.4406 837.986 29.2474 835.631 Q22.0542 833.276 14.5426 828.47 L14.5426 823.377 Z" fill="#000000" fill-rule="evenodd" fill-opacity="1" /><path clip-path="url(#clip050)" d="M42.4881 782.382 L64.0042 782.382 L64.0042 788.238 L42.679 788.238 Q37.6183 788.238 35.1038 790.212 Q32.5894 792.185 32.5894 796.132 Q32.5894 800.874 35.6131 803.611 Q38.6368 806.349 43.8567 806.349 L64.0042 806.349 L64.0042 812.237 L28.3562 812.237 L28.3562 806.349 L33.8944 806.349 Q30.6797 804.248 29.0883 801.415 Q27.4968 798.551 27.4968 794.827 Q27.4968 788.684 31.3163 785.533 Q35.1038 782.382 42.4881 782.382 Z" fill="#000000" fill-rule="evenodd" fill-opacity="1" /><path clip-path="url(#clip050)" d="M55.9197 769.205 L55.9197 762.489 L61.3942 762.489 L71.5793 767.709 L71.5793 771.815 L61.3942 769.205 L55.9197 769.205 Z" fill="#000000" fill-rule="evenodd" fill-opacity="1" /><path clip-path="url(#clip050)" d="M18.2347 723.467 L28.3562 723.467 L28.3562 711.404 L32.9077 711.404 L32.9077 723.467 L52.2594 723.467 Q56.6199 723.467 57.8613 722.29 Q59.1026 721.08 59.1026 717.42 L59.1026 711.404 L64.0042 711.404 L64.0042 717.42 Q64.0042 724.199 61.4897 726.777 Q58.9434 729.356 52.2594 729.356 L32.9077 729.356 L32.9077 733.652 L28.3562 733.652 L28.3562 729.356 L18.2347 729.356 L18.2347 723.467 Z" fill="#000000" fill-rule="evenodd" fill-opacity="1" /><path clip-path="url(#clip050)" d="M34.4036 702.938 L34.4036 662.134 L39.7508 662.134 L39.7508 702.938 L34.4036 702.938 M47.3897 702.938 L47.3897 662.134 L52.8005 662.134 L52.8005 702.938 L47.3897 702.938 Z" fill="#000000" fill-rule="evenodd" fill-opacity="1" /><path clip-path="url(#clip050)" d="M22.086 630.592 L47.4533 646.824 L47.4533 630.592 L22.086 630.592 M16.4842 632.278 L16.4842 624.194 L47.4533 624.194 L47.4533 617.415 L52.8005 617.415 L52.8005 624.194 L64.0042 624.194 L64.0042 630.592 L52.8005 630.592 L52.8005 652.044 L46.5939 652.044 L16.4842 632.278 Z" fill="#000000" fill-rule="evenodd" fill-opacity="1" /><path clip-path="url(#clip050)" d="M14.5426 608.534 L14.5426 603.442 Q22.0542 598.668 29.2474 596.312 Q36.4406 593.925 43.5384 593.925 Q50.668 593.925 57.8931 596.312 Q65.1182 598.668 72.5979 603.442 L72.5979 608.534 Q65.3091 604.301 58.1159 602.232 Q50.8908 600.132 43.5384 600.132 Q36.186 600.132 29.0246 602.232 Q21.8632 604.301 14.5426 608.534 Z" fill="#000000" fill-rule="evenodd" fill-opacity="1" /><polyline clip-path="url(#clip052)" style="stroke:#009af9; stroke-linecap:butt; stroke-linejoin:round; stroke-width:4; stroke-opacity:1; fill:none" points="
  309.067,1384.24 328.909,1384.24 348.75,1384.24 368.592,1384.24 388.434,1384.24 408.275,1384.23 428.117,1384.22 447.958,1384.17 467.8,1384.03 487.642,1383.66 
  507.483,1382.76 527.325,1380.8 547.167,1376.91 567.008,1369.8 586.85,1357.76 606.692,1338.8 626.533,1310.91 646.375,1272.5 666.216,1222.88 686.058,1162.57 
  705.9,1093.63 725.741,1019.49 745.583,944.638 765.425,873.987 785.266,812.186 805.108,762.953 824.95,728.615 844.791,709.908 864.633,706.051 884.475,715.045 
  904.316,734.101 924.158,760.089 943.999,789.933 963.841,820.89 983.683,850.699 1003.52,877.612 1023.37,900.33 1043.21,917.898 1063.05,929.571 1082.89,934.705 
  1102.73,932.681 1122.57,922.884 1142.42,904.722 1162.26,877.693 1182.1,841.475 1201.94,796.023 1221.78,741.66 1241.62,679.148 1261.47,609.736 1281.31,535.184 
  1301.15,457.751 1320.99,380.148 1340.83,305.447 1360.67,236.929 1380.52,177.897 1400.36,131.442 1420.2,100.211 1440.04,86.1857 1459.88,90.5109 1479.72,113.398 
  1499.57,154.11 1519.41,211.032 1539.25,281.819 1559.09,363.587 1578.93,453.143 1598.77,547.211 1618.62,642.646 1638.46,736.603 1658.3,826.669 1678.14,910.938 
  1697.98,988.04 1717.82,1057.13 1737.67,1117.83 1757.51,1170.17 1777.35,1214.5 1797.19,1251.42 1817.03,1281.65 1836.87,1306.01 1856.71,1325.34 1876.56,1340.45 
  1896.4,1352.08 1916.24,1360.91 1936.08,1367.52 1955.92,1372.4 1975.76,1375.96 1995.61,1378.51 2015.45,1380.32 2035.29,1381.59 2055.13,1382.47 2074.97,1383.07 
  2094.81,1383.47 2114.66,1383.74 2134.5,1383.92 2154.34,1384.04 2174.18,1384.11 2194.02,1384.16 2213.86,1384.19 2233.71,1384.21 2253.55,1384.22 2273.39,1384.23 
  2293.23,1384.23 
  "/>
<polyline clip-path="url(#clip052)" style="stroke:#e26f46; stroke-linecap:butt; stroke-linejoin:round; stroke-width:4; stroke-opacity:1; fill:none" points="
  309.067,1384.24 328.909,1384.24 348.75,1384.24 368.592,1384.24 388.434,1384.24 408.275,1384.24 428.117,1384.23 447.958,1384.2 467.8,1384.11 487.642,1383.87 
  507.483,1383.28 527.325,1381.97 547.167,1379.31 567.008,1374.33 586.85,1365.71 606.692,1351.8 626.533,1330.79 646.375,1301.06 666.216,1261.45 686.058,1211.73 
  705.9,1152.78 725.741,1086.74 745.583,1016.82 765.425,946.979 785.266,881.344 805.108,823.706 824.95,777.013 844.791,743.049 864.633,722.33 884.475,714.192 
  904.316,717.03 924.158,728.626 943.999,746.48 963.841,768.094 983.683,791.175 1003.52,813.738 1023.37,834.135 1043.21,851.015 1063.05,863.258 1082.89,869.893 
  1102.73,870.04 1122.57,862.879 1142.42,847.653 1162.26,823.713 1182.1,790.599 1201.94,748.141 1221.78,696.566 1241.62,636.604 1261.47,569.557 1281.31,497.332 
  1301.15,422.413 1320.99,347.771 1340.83,276.711 1360.67,212.676 1380.52,159.005 1400.36,118.697 1420.2,94.1814 1440.04,87.1302 1459.88,98.3372 1479.72,127.665 
  1499.57,174.073 1519.41,235.715 1539.25,310.099 1559.09,394.285 1578.93,485.103 1598.77,579.366 1618.62,674.067 1638.46,766.527 1658.3,854.516 1678.14,936.306 
  1697.98,1010.7 1717.82,1076.99 1737.67,1134.93 1757.51,1184.65 1777.35,1226.56 1797.19,1261.3 1817.03,1289.63 1836.87,1312.35 1856.71,1330.31 1876.56,1344.29 
  1896.4,1355.01 1916.24,1363.11 1936.08,1369.15 1955.92,1373.59 1975.76,1376.82 1995.61,1379.12 2015.45,1380.75 2035.29,1381.89 2055.13,1382.68 2074.97,1383.21 
  2094.81,1383.57 2114.66,1383.81 2134.5,1383.96 2154.34,1384.07 2174.18,1384.13 2194.02,1384.17 2213.86,1384.2 2233.71,1384.21 2253.55,1384.22 2273.39,1384.23 
  2293.23,1384.23 
  "/>
<path clip-path="url(#clip050)" d="
M1954.26 248.629 L2282.65 248.629 L2282.65 93.1086 L1954.26 93.1086  Z
  " fill="#ffffff" fill-rule="evenodd" fill-opacity="1"/>
<polyline clip-path="url(#clip050)" style="stroke:#000000; stroke-linecap:butt; stroke-linejoin:round; stroke-width:4; stroke-opacity:1; fill:none" points="
  1954.26,248.629 2282.65,248.629 2282.65,93.1086 1954.26,93.1086 1954.26,248.629 
  "/>
<polyline clip-path="url(#clip050)" style="stroke:#009af9; stroke-linecap:butt; stroke-linejoin:round; stroke-width:4; stroke-opacity:1; fill:none" points="
  1977.63,144.949 2117.84,144.949 
  "/>
<path clip-path="url(#clip050)" d="M2141.21 127.669 L2145.89 127.669 L2145.89 158.293 L2162.72 158.293 L2162.72 162.229 L2141.21 162.229 L2141.21 127.669 Z" fill="#000000" fill-rule="evenodd" fill-opacity="1" /><path clip-path="url(#clip050)" d="M2167.62 127.669 L2174.59 127.669 L2183.41 151.187 L2192.28 127.669 L2199.24 127.669 L2199.24 162.229 L2194.68 162.229 L2194.68 131.882 L2185.77 155.585 L2181.07 155.585 L2172.16 131.882 L2172.16 162.229 L2167.62 162.229 L2167.62 127.669 Z" fill="#000000" fill-rule="evenodd" fill-opacity="1" /><path clip-path="url(#clip050)" d="M2220.08 132.275 L2213.73 149.474 L2226.44 149.474 L2220.08 132.275 M2217.44 127.669 L2222.74 127.669 L2235.91 162.229 L2231.05 162.229 L2227.9 153.363 L2212.32 153.363 L2209.17 162.229 L2204.24 162.229 L2217.44 127.669 Z" fill="#000000" fill-rule="evenodd" fill-opacity="1" /><polyline clip-path="url(#clip050)" style="stroke:#e26f46; stroke-linecap:butt; stroke-linejoin:round; stroke-width:4; stroke-opacity:1; fill:none" points="
  1977.63,196.789 2117.84,196.789 
  "/>
<path clip-path="url(#clip050)" d="M2141.21 179.509 L2161.07 179.509 L2161.07 183.444 L2145.89 183.444 L2145.89 193.629 L2159.59 193.629 L2159.59 197.564 L2145.89 197.564 L2145.89 214.069 L2141.21 214.069 L2141.21 179.509 Z" fill="#000000" fill-rule="evenodd" fill-opacity="1" /><path clip-path="url(#clip050)" d="M2188.36 180.643 L2188.36 185.203 Q2185.7 183.93 2183.34 183.305 Q2180.98 182.68 2178.78 182.68 Q2174.96 182.68 2172.88 184.161 Q2170.82 185.643 2170.82 188.374 Q2170.82 190.666 2172.18 191.847 Q2173.57 193.004 2177.42 193.722 L2180.24 194.3 Q2185.47 195.296 2187.95 197.819 Q2190.45 200.319 2190.45 204.532 Q2190.45 209.555 2187.07 212.147 Q2183.71 214.74 2177.21 214.74 Q2174.75 214.74 2171.98 214.184 Q2169.22 213.629 2166.26 212.541 L2166.26 207.726 Q2169.11 209.323 2171.84 210.133 Q2174.57 210.944 2177.21 210.944 Q2181.21 210.944 2183.39 209.37 Q2185.56 207.796 2185.56 204.879 Q2185.56 202.333 2183.99 200.897 Q2182.44 199.462 2178.87 198.745 L2176.03 198.189 Q2170.8 197.147 2168.46 194.925 Q2166.12 192.703 2166.12 188.745 Q2166.12 184.161 2169.34 181.522 Q2172.58 178.884 2178.25 178.884 Q2180.68 178.884 2183.2 179.323 Q2185.73 179.763 2188.36 180.643 Z" fill="#000000" fill-rule="evenodd" fill-opacity="1" /><path clip-path="url(#clip050)" d="M2202.42 183.351 L2202.42 196.337 L2208.3 196.337 Q2211.56 196.337 2213.34 194.647 Q2215.12 192.958 2215.12 189.833 Q2215.12 186.731 2213.34 185.041 Q2211.56 183.351 2208.3 183.351 L2202.42 183.351 M2197.74 179.509 L2208.3 179.509 Q2214.11 179.509 2217.07 182.147 Q2220.05 184.763 2220.05 189.833 Q2220.05 194.948 2217.07 197.564 Q2214.11 200.18 2208.3 200.18 L2202.42 200.18 L2202.42 214.069 L2197.74 214.069 L2197.74 179.509 Z" fill="#000000" fill-rule="evenodd" fill-opacity="1" /></svg>
