<?xml version="1.0" encoding="utf-8"?>
<svg xmlns="http://www.w3.org/2000/svg" xmlns:xlink="http://www.w3.org/1999/xlink" width="700" height="400" viewBox="0 0 2800 1600">
<defs>
  <clipPath id="clip940">
    <rect x="0" y="0" width="2800" height="1600"/>
  </clipPath>
</defs>
<path clip-path="url(#clip940)" d="
M0 1600 L2800 1600 L2800 0 L0 0  Z
  " fill="#ffffff" fill-rule="evenodd" fill-opacity="1"/>
<defs>
  <clipPath id="clip941">
    <rect x="560" y="0" width="1961" height="1600"/>
  </clipPath>
</defs>
<path clip-path="url(#clip940)" d="
M199.67 1434.91 L2752.76 1434.91 L2752.76 47.2441 L199.67 47.2441  Z
  " fill="#ffffff" fill-rule="evenodd" fill-opacity="1"/>
<defs>
  <clipPath id="clip942">
    <rect x="199" y="47" width="2554" height="1389"/>
  </clipPath>
</defs>
<polyline clip-path="url(#clip942)" style="stroke:#000000; stroke-width:2; stroke-opacity:0.1; fill:none" points="
  271.928,1434.91 271.928,47.2441 
  "/>
<polyline clip-path="url(#clip942)" style="stroke:#000000; stroke-width:2; stroke-opacity:0.1; fill:none" points="
  874.07,1434.91 874.07,47.2441 
  "/>
<polyline clip-path="url(#clip942)" style="stroke:#000000; stroke-width:2; stroke-opacity:0.1; fill:none" points="
  1476.21,1434.91 1476.21,47.2441 
  "/>
<polyline clip-path="url(#clip942)" style="stroke:#000000; stroke-width:2; stroke-opacity:0.1; fill:none" points="
  2078.36,1434.91 2078.36,47.2441 
  "/>
<polyline clip-path="url(#clip942)" style="stroke:#000000; stroke-width:2; stroke-opacity:0.1; fill:none" points="
  2680.5,1434.91 2680.5,47.2441 
  "/>
<polyline clip-path="url(#clip940)" style="stroke:#000000; stroke-width:4; stroke-opacity:1; fill:none" points="
  199.67,1434.91 2752.76,1434.91 
  "/>
<polyline clip-path="url(#clip940)" style="stroke:#000000; stroke-width:4; stroke-opacity:1; fill:none" points="
  271.928,1434.91 271.928,1418.25 
  "/>
<polyline clip-path="url(#clip940)" style="stroke:#000000; stroke-width:4; stroke-opacity:1; fill:none" points="
  874.07,1434.91 874.07,1418.25 
  "/>
<polyline clip-path="url(#clip940)" style="stroke:#000000; stroke-width:4; stroke-opacity:1; fill:none" points="
  1476.21,1434.91 1476.21,1418.25 
  "/>
<polyline clip-path="url(#clip940)" style="stroke:#000000; stroke-width:4; stroke-opacity:1; fill:none" points="
  2078.36,1434.91 2078.36,1418.25 
  "/>
<polyline clip-path="url(#clip940)" style="stroke:#000000; stroke-width:4; stroke-opacity:1; fill:none" points="
  2680.5,1434.91 2680.5,1418.25 
  "/>
<path clip-path="url(#clip940)" d="M 0 0 M271.928 1467.3 Q268.316 1467.3 266.488 1470.86 Q264.682 1474.4 264.682 1481.53 Q264.682 1488.64 266.488 1492.2 Q268.316 1495.75 271.928 1495.75 Q275.562 1495.75 277.367 1492.2 Q279.196 1488.64 279.196 1481.53 Q279.196 1474.4 277.367 1470.86 Q275.562 1467.3 271.928 1467.3 M271.928 1463.59 Q277.738 1463.59 280.793 1468.2 Q283.872 1472.78 283.872 1481.53 Q283.872 1490.26 280.793 1494.87 Q277.738 1499.45 271.928 1499.45 Q266.117 1499.45 263.039 1494.87 Q259.983 1490.26 259.983 1481.53 Q259.983 1472.78 263.039 1468.2 Q266.117 1463.59 271.928 1463.59 Z" fill="#000000" fill-rule="evenodd" fill-opacity="1" /><path clip-path="url(#clip940)" d="M 0 0 M850.841 1464.22 L869.198 1464.22 L869.198 1468.15 L855.124 1468.15 L855.124 1476.62 Q856.142 1476.28 857.161 1476.12 Q858.179 1475.93 859.198 1475.93 Q864.985 1475.93 868.364 1479.1 Q871.744 1482.27 871.744 1487.69 Q871.744 1493.27 868.272 1496.37 Q864.8 1499.45 858.48 1499.45 Q856.304 1499.45 854.036 1499.08 Q851.79 1498.71 849.383 1497.97 L849.383 1493.27 Q851.466 1494.4 853.688 1494.96 Q855.911 1495.51 858.388 1495.51 Q862.392 1495.51 864.73 1493.41 Q867.068 1491.3 867.068 1487.69 Q867.068 1484.08 864.73 1481.97 Q862.392 1479.87 858.388 1479.87 Q856.513 1479.87 854.638 1480.28 Q852.786 1480.7 850.841 1481.58 L850.841 1464.22 Z" fill="#000000" fill-rule="evenodd" fill-opacity="1" /><path clip-path="url(#clip940)" d="M 0 0 M886.813 1467.3 Q883.202 1467.3 881.374 1470.86 Q879.568 1474.4 879.568 1481.53 Q879.568 1488.64 881.374 1492.2 Q883.202 1495.75 886.813 1495.75 Q890.448 1495.75 892.253 1492.2 Q894.082 1488.64 894.082 1481.53 Q894.082 1474.4 892.253 1470.86 Q890.448 1467.3 886.813 1467.3 M886.813 1463.59 Q892.623 1463.59 895.679 1468.2 Q898.758 1472.78 898.758 1481.53 Q898.758 1490.26 895.679 1494.87 Q892.623 1499.45 886.813 1499.45 Q881.003 1499.45 877.924 1494.87 Q874.869 1490.26 874.869 1481.53 Q874.869 1472.78 877.924 1468.2 Q881.003 1463.59 886.813 1463.59 Z" fill="#000000" fill-rule="evenodd" fill-opacity="1" /><path clip-path="url(#clip940)" d="M 0 0 M1439.58 1494.84 L1447.22 1494.84 L1447.22 1468.48 L1438.91 1470.14 L1438.91 1465.88 L1447.17 1464.22 L1451.85 1464.22 L1451.85 1494.84 L1459.49 1494.84 L1459.49 1498.78 L1439.58 1498.78 L1439.58 1494.84 Z" fill="#000000" fill-rule="evenodd" fill-opacity="1" /><path clip-path="url(#clip940)" d="M 0 0 M1474.56 1467.3 Q1470.95 1467.3 1469.12 1470.86 Q1467.31 1474.4 1467.31 1481.53 Q1467.31 1488.64 1469.12 1492.2 Q1470.95 1495.75 1474.56 1495.75 Q1478.19 1495.75 1480 1492.2 Q1481.83 1488.64 1481.83 1481.53 Q1481.83 1474.4 1480 1470.86 Q1478.19 1467.3 1474.56 1467.3 M1474.56 1463.59 Q1480.37 1463.59 1483.42 1468.2 Q1486.5 1472.78 1486.5 1481.53 Q1486.5 1490.26 1483.42 1494.87 Q1480.37 1499.45 1474.56 1499.45 Q1468.75 1499.45 1465.67 1494.87 Q1462.61 1490.26 1462.61 1481.53 Q1462.61 1472.78 1465.67 1468.2 Q1468.75 1463.59 1474.56 1463.59 Z" fill="#000000" fill-rule="evenodd" fill-opacity="1" /><path clip-path="url(#clip940)" d="M 0 0 M1501.57 1467.3 Q1497.96 1467.3 1496.13 1470.86 Q1494.33 1474.4 1494.33 1481.53 Q1494.33 1488.64 1496.13 1492.2 Q1497.96 1495.75 1501.57 1495.75 Q1505.21 1495.75 1507.01 1492.2 Q1508.84 1488.64 1508.84 1481.53 Q1508.84 1474.4 1507.01 1470.86 Q1505.21 1467.3 1501.57 1467.3 M1501.57 1463.59 Q1507.38 1463.59 1510.44 1468.2 Q1513.52 1472.78 1513.52 1481.53 Q1513.52 1490.26 1510.44 1494.87 Q1507.38 1499.45 1501.57 1499.45 Q1495.76 1499.45 1492.68 1494.87 Q1489.63 1490.26 1489.63 1481.53 Q1489.63 1472.78 1492.68 1468.2 Q1495.76 1463.59 1501.57 1463.59 Z" fill="#000000" fill-rule="evenodd" fill-opacity="1" /><path clip-path="url(#clip940)" d="M 0 0 M2042.22 1494.84 L2049.86 1494.84 L2049.86 1468.48 L2041.55 1470.14 L2041.55 1465.88 L2049.81 1464.22 L2054.49 1464.22 L2054.49 1494.84 L2062.13 1494.84 L2062.13 1498.78 L2042.22 1498.78 L2042.22 1494.84 Z" fill="#000000" fill-rule="evenodd" fill-opacity="1" /><path clip-path="url(#clip940)" d="M 0 0 M2067.24 1464.22 L2085.6 1464.22 L2085.6 1468.15 L2071.53 1468.15 L2071.53 1476.62 Q2072.55 1476.28 2073.56 1476.12 Q2074.58 1475.93 2075.6 1475.93 Q2081.39 1475.93 2084.77 1479.1 Q2088.15 1482.27 2088.15 1487.69 Q2088.15 1493.27 2084.68 1496.37 Q2081.2 1499.45 2074.88 1499.45 Q2072.71 1499.45 2070.44 1499.08 Q2068.19 1498.71 2065.79 1497.97 L2065.79 1493.27 Q2067.87 1494.4 2070.09 1494.96 Q2072.31 1495.51 2074.79 1495.51 Q2078.8 1495.51 2081.13 1493.41 Q2083.47 1491.3 2083.47 1487.69 Q2083.47 1484.08 2081.13 1481.97 Q2078.8 1479.87 2074.79 1479.87 Q2072.92 1479.87 2071.04 1480.28 Q2069.19 1480.7 2067.24 1481.58 L2067.24 1464.22 Z" fill="#000000" fill-rule="evenodd" fill-opacity="1" /><path clip-path="url(#clip940)" d="M 0 0 M2103.22 1467.3 Q2099.61 1467.3 2097.78 1470.86 Q2095.97 1474.4 2095.97 1481.53 Q2095.97 1488.64 2097.78 1492.2 Q2099.61 1495.75 2103.22 1495.75 Q2106.85 1495.75 2108.66 1492.2 Q2110.49 1488.64 2110.49 1481.53 Q2110.49 1474.4 2108.66 1470.86 Q2106.85 1467.3 2103.22 1467.3 M2103.22 1463.59 Q2109.03 1463.59 2112.08 1468.2 Q2115.16 1472.78 2115.16 1481.53 Q2115.16 1490.26 2112.08 1494.87 Q2109.03 1499.45 2103.22 1499.45 Q2097.41 1499.45 2094.33 1494.87 Q2091.27 1490.26 2091.27 1481.53 Q2091.27 1472.78 2094.33 1468.2 Q2097.41 1463.59 2103.22 1463.59 Z" fill="#000000" fill-rule="evenodd" fill-opacity="1" /><path clip-path="url(#clip940)" d="M 0 0 M2648.14 1494.84 L2664.46 1494.84 L2664.46 1498.78 L2642.51 1498.78 L2642.51 1494.84 Q2645.17 1492.09 2649.76 1487.46 Q2654.36 1482.81 2655.55 1481.46 Q2657.79 1478.94 2658.67 1477.2 Q2659.57 1475.44 2659.57 1473.75 Q2659.57 1471 2657.63 1469.26 Q2655.71 1467.53 2652.61 1467.53 Q2650.41 1467.53 2647.95 1468.29 Q2645.52 1469.06 2642.74 1470.61 L2642.74 1465.88 Q2645.57 1464.75 2648.02 1464.17 Q2650.48 1463.59 2652.51 1463.59 Q2657.88 1463.59 2661.08 1466.28 Q2664.27 1468.96 2664.27 1473.45 Q2664.27 1475.58 2663.46 1477.5 Q2662.67 1479.4 2660.57 1482 Q2659.99 1482.67 2656.89 1485.88 Q2653.79 1489.08 2648.14 1494.84 Z" fill="#000000" fill-rule="evenodd" fill-opacity="1" /><path clip-path="url(#clip940)" d="M 0 0 M2679.53 1467.3 Q2675.92 1467.3 2674.09 1470.86 Q2672.28 1474.4 2672.28 1481.53 Q2672.28 1488.64 2674.09 1492.2 Q2675.92 1495.75 2679.53 1495.75 Q2683.16 1495.75 2684.97 1492.2 Q2686.8 1488.64 2686.8 1481.53 Q2686.8 1474.4 2684.97 1470.86 Q2683.16 1467.3 2679.53 1467.3 M2679.53 1463.59 Q2685.34 1463.59 2688.39 1468.2 Q2691.47 1472.78 2691.47 1481.53 Q2691.47 1490.26 2688.39 1494.87 Q2685.34 1499.45 2679.53 1499.45 Q2673.72 1499.45 2670.64 1494.87 Q2667.58 1490.26 2667.58 1481.53 Q2667.58 1472.78 2670.64 1468.2 Q2673.72 1463.59 2679.53 1463.59 Z" fill="#000000" fill-rule="evenodd" fill-opacity="1" /><path clip-path="url(#clip940)" d="M 0 0 M2706.54 1467.3 Q2702.93 1467.3 2701.1 1470.86 Q2699.29 1474.4 2699.29 1481.53 Q2699.29 1488.64 2701.1 1492.2 Q2702.93 1495.75 2706.54 1495.75 Q2710.17 1495.75 2711.98 1492.2 Q2713.81 1488.64 2713.81 1481.53 Q2713.81 1474.4 2711.98 1470.86 Q2710.17 1467.3 2706.54 1467.3 M2706.54 1463.59 Q2712.35 1463.59 2715.41 1468.2 Q2718.48 1472.78 2718.48 1481.53 Q2718.48 1490.26 2715.41 1494.87 Q2712.35 1499.45 2706.54 1499.45 Q2700.73 1499.45 2697.65 1494.87 Q2694.6 1490.26 2694.6 1481.53 Q2694.6 1472.78 2697.65 1468.2 Q2700.73 1463.59 2706.54 1463.59 Z" fill="#000000" fill-rule="evenodd" fill-opacity="1" /><path clip-path="url(#clip940)" d="M 0 0 M1356.11 1538.25 L1396.31 1538.25 L1396.31 1543.66 L1379.44 1543.66 L1379.44 1585.77 L1372.98 1585.77 L1372.98 1543.66 L1356.11 1543.66 L1356.11 1538.25 Z" fill="#000000" fill-rule="evenodd" fill-opacity="1" /><path clip-path="url(#clip940)" d="M 0 0 M1400.45 1550.12 L1406.3 1550.12 L1406.3 1585.77 L1400.45 1585.77 L1400.45 1550.12 M1400.45 1536.24 L1406.3 1536.24 L1406.3 1543.66 L1400.45 1543.66 L1400.45 1536.24 Z" fill="#000000" fill-rule="evenodd" fill-opacity="1" /><path clip-path="url(#clip940)" d="M 0 0 M1440.2 1556.96 Q1442.4 1553.02 1445.45 1551.14 Q1448.51 1549.26 1452.64 1549.26 Q1458.21 1549.26 1461.24 1553.18 Q1464.26 1557.06 1464.26 1564.25 L1464.26 1585.77 L1458.37 1585.77 L1458.37 1564.44 Q1458.37 1559.32 1456.56 1556.84 Q1454.74 1554.35 1451.02 1554.35 Q1446.47 1554.35 1443.83 1557.38 Q1441.19 1560.4 1441.19 1565.62 L1441.19 1585.77 L1435.3 1585.77 L1435.3 1564.44 Q1435.3 1559.29 1433.48 1556.84 Q1431.67 1554.35 1427.88 1554.35 Q1423.39 1554.35 1420.75 1557.41 Q1418.11 1560.43 1418.11 1565.62 L1418.11 1585.77 L1412.22 1585.77 L1412.22 1550.12 L1418.11 1550.12 L1418.11 1555.66 Q1420.12 1552.38 1422.92 1550.82 Q1425.72 1549.26 1429.57 1549.26 Q1433.45 1549.26 1436.16 1551.24 Q1438.89 1553.21 1440.2 1556.96 Z" fill="#000000" fill-rule="evenodd" fill-opacity="1" /><path clip-path="url(#clip940)" d="M 0 0 M1500.9 1566.48 L1500.9 1569.35 L1473.97 1569.35 Q1474.35 1575.39 1477.6 1578.58 Q1480.88 1581.73 1486.7 1581.73 Q1490.07 1581.73 1493.23 1580.9 Q1496.41 1580.07 1499.53 1578.42 L1499.53 1583.96 Q1496.38 1585.29 1493.07 1585.99 Q1489.76 1586.69 1486.35 1586.69 Q1477.82 1586.69 1472.82 1581.73 Q1467.86 1576.76 1467.86 1568.3 Q1467.86 1559.54 1472.57 1554.42 Q1477.31 1549.26 1485.33 1549.26 Q1492.53 1549.26 1496.69 1553.91 Q1500.9 1558.52 1500.9 1566.48 M1495.04 1564.76 Q1494.98 1559.96 1492.33 1557.09 Q1489.72 1554.23 1485.4 1554.23 Q1480.49 1554.23 1477.53 1557 Q1474.61 1559.77 1474.16 1564.79 L1495.04 1564.76 Z" fill="#000000" fill-rule="evenodd" fill-opacity="1" /><path clip-path="url(#clip940)" d="M 0 0 M1527.22 1536.24 L1540.71 1536.24 L1540.71 1540.8 L1533.07 1540.8 L1533.07 1589.81 L1540.71 1589.81 L1540.71 1594.36 L1527.22 1594.36 L1527.22 1536.24 Z" fill="#000000" fill-rule="evenodd" fill-opacity="1" /><path clip-path="url(#clip940)" d="M 0 0 M1576.49 1564.25 L1576.49 1585.77 L1570.63 1585.77 L1570.63 1564.44 Q1570.63 1559.38 1568.66 1556.87 Q1566.69 1554.35 1562.74 1554.35 Q1558 1554.35 1555.26 1557.38 Q1552.52 1560.4 1552.52 1565.62 L1552.52 1585.77 L1546.63 1585.77 L1546.63 1536.24 L1552.52 1536.24 L1552.52 1555.66 Q1554.62 1552.45 1557.46 1550.85 Q1560.32 1549.26 1564.04 1549.26 Q1570.19 1549.26 1573.34 1553.08 Q1576.49 1556.87 1576.49 1564.25 Z" fill="#000000" fill-rule="evenodd" fill-opacity="1" /><path clip-path="url(#clip940)" d="M 0 0 M1596.32 1536.24 L1596.32 1594.36 L1582.82 1594.36 L1582.82 1589.81 L1590.43 1589.81 L1590.43 1540.8 L1582.82 1540.8 L1582.82 1536.24 L1596.32 1536.24 Z" fill="#000000" fill-rule="evenodd" fill-opacity="1" /><polyline clip-path="url(#clip942)" style="stroke:#000000; stroke-width:2; stroke-opacity:0.1; fill:none" points="
  199.67,1374.55 2752.76,1374.55 
  "/>
<polyline clip-path="url(#clip942)" style="stroke:#000000; stroke-width:2; stroke-opacity:0.1; fill:none" points="
  199.67,1062.35 2752.76,1062.35 
  "/>
<polyline clip-path="url(#clip942)" style="stroke:#000000; stroke-width:2; stroke-opacity:0.1; fill:none" points="
  199.67,750.149 2752.76,750.149 
  "/>
<polyline clip-path="url(#clip942)" style="stroke:#000000; stroke-width:2; stroke-opacity:0.1; fill:none" points="
  199.67,437.95 2752.76,437.95 
  "/>
<polyline clip-path="url(#clip942)" style="stroke:#000000; stroke-width:2; stroke-opacity:0.1; fill:none" points="
  199.67,125.75 2752.76,125.75 
  "/>
<polyline clip-path="url(#clip940)" style="stroke:#000000; stroke-width:4; stroke-opacity:1; fill:none" points="
  199.67,1434.91 199.67,47.2441 
  "/>
<polyline clip-path="url(#clip940)" style="stroke:#000000; stroke-width:4; stroke-opacity:1; fill:none" points="
  199.67,1374.55 230.307,1374.55 
  "/>
<polyline clip-path="url(#clip940)" style="stroke:#000000; stroke-width:4; stroke-opacity:1; fill:none" points="
  199.67,1062.35 230.307,1062.35 
  "/>
<polyline clip-path="url(#clip940)" style="stroke:#000000; stroke-width:4; stroke-opacity:1; fill:none" points="
  199.67,750.149 230.307,750.149 
  "/>
<polyline clip-path="url(#clip940)" style="stroke:#000000; stroke-width:4; stroke-opacity:1; fill:none" points="
  199.67,437.95 230.307,437.95 
  "/>
<polyline clip-path="url(#clip940)" style="stroke:#000000; stroke-width:4; stroke-opacity:1; fill:none" points="
  199.67,125.75 230.307,125.75 
  "/>
<path clip-path="url(#clip940)" d="M 0 0 M123.527 1373.19 Q126.884 1373.91 128.758 1376.18 Q130.657 1378.45 130.657 1381.78 Q130.657 1386.9 127.138 1389.7 Q123.62 1392.5 117.138 1392.5 Q114.962 1392.5 112.647 1392.06 Q110.356 1391.64 107.902 1390.79 L107.902 1386.27 Q109.847 1387.41 112.161 1387.98 Q114.476 1388.56 116.999 1388.56 Q121.397 1388.56 123.689 1386.83 Q126.004 1385.09 126.004 1381.78 Q126.004 1378.73 123.851 1377.01 Q121.721 1375.28 117.902 1375.28 L113.874 1375.28 L113.874 1371.43 L118.087 1371.43 Q121.536 1371.43 123.365 1370.07 Q125.194 1368.68 125.194 1366.09 Q125.194 1363.42 123.296 1362.01 Q121.421 1360.58 117.902 1360.58 Q115.981 1360.58 113.782 1360.99 Q111.583 1361.41 108.944 1362.29 L108.944 1358.12 Q111.606 1357.38 113.921 1357.01 Q116.259 1356.64 118.319 1356.64 Q123.643 1356.64 126.745 1359.07 Q129.846 1361.48 129.846 1365.6 Q129.846 1368.47 128.203 1370.46 Q126.559 1372.43 123.527 1373.19 Z" fill="#000000" fill-rule="evenodd" fill-opacity="1" /><path clip-path="url(#clip940)" d="M 0 0 M145.726 1360.35 Q142.115 1360.35 140.286 1363.91 Q138.481 1367.45 138.481 1374.58 Q138.481 1381.69 140.286 1385.25 Q142.115 1388.8 145.726 1388.8 Q149.36 1388.8 151.166 1385.25 Q152.994 1381.69 152.994 1374.58 Q152.994 1367.45 151.166 1363.91 Q149.36 1360.35 145.726 1360.35 M145.726 1356.64 Q151.536 1356.64 154.592 1361.25 Q157.67 1365.83 157.67 1374.58 Q157.67 1383.31 154.592 1387.92 Q151.536 1392.5 145.726 1392.5 Q139.916 1392.5 136.837 1387.92 Q133.782 1383.31 133.782 1374.58 Q133.782 1365.83 136.837 1361.25 Q139.916 1356.64 145.726 1356.64 Z" fill="#000000" fill-rule="evenodd" fill-opacity="1" /><path clip-path="url(#clip940)" d="M 0 0 M121.073 1049.14 L109.268 1067.59 L121.073 1067.59 L121.073 1049.14 M119.847 1045.07 L125.726 1045.07 L125.726 1067.59 L130.657 1067.59 L130.657 1071.48 L125.726 1071.48 L125.726 1079.63 L121.073 1079.63 L121.073 1071.48 L105.472 1071.48 L105.472 1066.97 L119.847 1045.07 Z" fill="#000000" fill-rule="evenodd" fill-opacity="1" /><path clip-path="url(#clip940)" d="M 0 0 M145.726 1048.15 Q142.115 1048.15 140.286 1051.71 Q138.481 1055.25 138.481 1062.38 Q138.481 1069.49 140.286 1073.05 Q142.115 1076.6 145.726 1076.6 Q149.36 1076.6 151.166 1073.05 Q152.994 1069.49 152.994 1062.38 Q152.994 1055.25 151.166 1051.71 Q149.36 1048.15 145.726 1048.15 M145.726 1044.44 Q151.536 1044.44 154.592 1049.05 Q157.67 1053.63 157.67 1062.38 Q157.67 1071.11 154.592 1075.72 Q151.536 1080.3 145.726 1080.3 Q139.916 1080.3 136.837 1075.72 Q133.782 1071.11 133.782 1062.38 Q133.782 1053.63 136.837 1049.05 Q139.916 1044.44 145.726 1044.44 Z" fill="#000000" fill-rule="evenodd" fill-opacity="1" /><path clip-path="url(#clip940)" d="M 0 0 M109.754 732.869 L128.11 732.869 L128.11 736.804 L114.036 736.804 L114.036 745.276 Q115.055 744.929 116.073 744.767 Q117.092 744.582 118.11 744.582 Q123.897 744.582 127.277 747.753 Q130.657 750.924 130.657 756.341 Q130.657 761.92 127.184 765.022 Q123.712 768.1 117.393 768.1 Q115.217 768.1 112.948 767.73 Q110.703 767.359 108.296 766.619 L108.296 761.92 Q110.379 763.054 112.601 763.609 Q114.823 764.165 117.3 764.165 Q121.305 764.165 123.643 762.059 Q125.981 759.952 125.981 756.341 Q125.981 752.73 123.643 750.623 Q121.305 748.517 117.3 748.517 Q115.425 748.517 113.55 748.934 Q111.698 749.35 109.754 750.23 L109.754 732.869 Z" fill="#000000" fill-rule="evenodd" fill-opacity="1" /><path clip-path="url(#clip940)" d="M 0 0 M145.726 735.948 Q142.115 735.948 140.286 739.512 Q138.481 743.054 138.481 750.184 Q138.481 757.29 140.286 760.855 Q142.115 764.397 145.726 764.397 Q149.36 764.397 151.166 760.855 Q152.994 757.29 152.994 750.184 Q152.994 743.054 151.166 739.512 Q149.36 735.948 145.726 735.948 M145.726 732.244 Q151.536 732.244 154.592 736.85 Q157.67 741.434 157.67 750.184 Q157.67 758.91 154.592 763.517 Q151.536 768.1 145.726 768.1 Q139.916 768.1 136.837 763.517 Q133.782 758.91 133.782 750.184 Q133.782 741.434 136.837 736.85 Q139.916 732.244 145.726 732.244 Z" fill="#000000" fill-rule="evenodd" fill-opacity="1" /><path clip-path="url(#clip940)" d="M 0 0 M119.129 436.086 Q115.981 436.086 114.129 438.239 Q112.3 440.392 112.3 444.142 Q112.3 447.869 114.129 450.044 Q115.981 452.197 119.129 452.197 Q122.277 452.197 124.106 450.044 Q125.958 447.869 125.958 444.142 Q125.958 440.392 124.106 438.239 Q122.277 436.086 119.129 436.086 M128.411 421.434 L128.411 425.693 Q126.652 424.859 124.846 424.42 Q123.064 423.98 121.305 423.98 Q116.675 423.98 114.222 427.105 Q111.791 430.23 111.444 436.549 Q112.81 434.535 114.87 433.47 Q116.93 432.383 119.407 432.383 Q124.615 432.383 127.624 435.554 Q130.657 438.702 130.657 444.142 Q130.657 449.466 127.509 452.683 Q124.36 455.901 119.129 455.901 Q113.134 455.901 109.962 451.318 Q106.791 446.711 106.791 437.984 Q106.791 429.79 110.68 424.929 Q114.569 420.045 121.12 420.045 Q122.879 420.045 124.661 420.392 Q126.467 420.739 128.411 421.434 Z" fill="#000000" fill-rule="evenodd" fill-opacity="1" /><path clip-path="url(#clip940)" d="M 0 0 M145.726 423.748 Q142.115 423.748 140.286 427.313 Q138.481 430.855 138.481 437.984 Q138.481 445.091 140.286 448.656 Q142.115 452.197 145.726 452.197 Q149.36 452.197 151.166 448.656 Q152.994 445.091 152.994 437.984 Q152.994 430.855 151.166 427.313 Q149.36 423.748 145.726 423.748 M145.726 420.045 Q151.536 420.045 154.592 424.651 Q157.67 429.234 157.67 437.984 Q157.67 446.711 154.592 451.318 Q151.536 455.901 145.726 455.901 Q139.916 455.901 136.837 451.318 Q133.782 446.711 133.782 437.984 Q133.782 429.234 136.837 424.651 Q139.916 420.045 145.726 420.045 Z" fill="#000000" fill-rule="evenodd" fill-opacity="1" /><path clip-path="url(#clip940)" d="M 0 0 M108.435 108.47 L130.657 108.47 L130.657 110.461 L118.11 143.03 L113.226 143.03 L125.032 112.406 L108.435 112.406 L108.435 108.47 Z" fill="#000000" fill-rule="evenodd" fill-opacity="1" /><path clip-path="url(#clip940)" d="M 0 0 M145.726 111.549 Q142.115 111.549 140.286 115.114 Q138.481 118.655 138.481 125.785 Q138.481 132.892 140.286 136.456 Q142.115 139.998 145.726 139.998 Q149.36 139.998 151.166 136.456 Q152.994 132.892 152.994 125.785 Q152.994 118.655 151.166 115.114 Q149.36 111.549 145.726 111.549 M145.726 107.845 Q151.536 107.845 154.592 112.452 Q157.67 117.035 157.67 125.785 Q157.67 134.512 154.592 139.118 Q151.536 143.702 145.726 143.702 Q139.916 143.702 136.837 139.118 Q133.782 134.512 133.782 125.785 Q133.782 117.035 136.837 112.452 Q139.916 107.845 145.726 107.845 Z" fill="#000000" fill-rule="evenodd" fill-opacity="1" /><path clip-path="url(#clip940)" d="M 0 0 M1.69559 1052.09 L1.69559 1043.43 L41.4494 1022.36 L1.69559 1022.36 L1.69559 1016.12 L49.2156 1016.12 L49.2156 1024.78 L9.46175 1045.85 L49.2156 1045.85 L49.2156 1052.09 L1.69559 1052.09 Z" fill="#000000" fill-rule="evenodd" fill-opacity="1" /><path clip-path="url(#clip940)" d="M 0 0 M35.1474 1010.58 L13.5676 1010.58 L13.5676 1004.73 L34.9246 1004.73 Q39.9853 1004.73 42.5316 1002.75 Q45.046 1000.78 45.046 996.833 Q45.046 992.091 42.0223 989.353 Q38.9986 986.584 33.7787 986.584 L13.5676 986.584 L13.5676 980.728 L49.2156 980.728 L49.2156 986.584 L43.7411 986.584 Q46.9876 988.717 48.579 991.549 Q50.1386 994.35 50.1386 998.074 Q50.1386 1004.22 46.3192 1007.4 Q42.4998 1010.58 35.1474 1010.58 M12.7083 995.846 L12.7083 995.846 Z" fill="#000000" fill-rule="evenodd" fill-opacity="1" /><path clip-path="url(#clip940)" d="M 0 0 M20.4108 946.83 Q16.464 944.634 14.5861 941.579 Q12.7083 938.523 12.7083 934.385 Q12.7083 928.815 16.6232 925.792 Q20.5062 922.768 27.6995 922.768 L49.2156 922.768 L49.2156 928.656 L27.8905 928.656 Q22.7661 928.656 20.2834 930.471 Q17.8008 932.285 17.8008 936.009 Q17.8008 940.56 20.8245 943.202 Q23.8482 945.844 29.0681 945.844 L49.2156 945.844 L49.2156 951.732 L27.8905 951.732 Q22.7342 951.732 20.2834 953.546 Q17.8008 955.36 17.8008 959.148 Q17.8008 963.636 20.8564 966.278 Q23.8801 968.919 29.0681 968.919 L49.2156 968.919 L49.2156 974.808 L13.5676 974.808 L13.5676 968.919 L19.1058 968.919 Q15.8275 966.914 14.2679 964.113 Q12.7083 961.312 12.7083 957.461 Q12.7083 953.578 14.6816 950.873 Q16.655 948.135 20.4108 946.83 Z" fill="#000000" fill-rule="evenodd" fill-opacity="1" /><path clip-path="url(#clip940)" d="M 0 0 M31.4234 891.035 Q24.9622 891.035 21.302 893.709 Q17.6099 896.35 17.6099 900.997 Q17.6099 905.644 21.302 908.318 Q24.9622 910.96 31.4234 910.96 Q37.8846 910.96 41.5767 908.318 Q45.237 905.644 45.237 900.997 Q45.237 896.35 41.5767 893.709 Q37.8846 891.035 31.4234 891.035 M18.9785 910.96 Q15.7956 909.114 14.2679 906.313 Q12.7083 903.48 12.7083 899.565 Q12.7083 893.072 17.8645 889.03 Q23.0207 884.956 31.4234 884.956 Q39.8262 884.956 44.9824 889.03 Q50.1386 893.072 50.1386 899.565 Q50.1386 903.48 48.6108 906.313 Q47.0512 909.114 43.8684 910.96 L49.2156 910.96 L49.2156 916.848 L-0.309612 916.848 L-0.309612 910.96 L18.9785 910.96 Z" fill="#000000" fill-rule="evenodd" fill-opacity="1" /><path clip-path="url(#clip940)" d="M 0 0 M29.9275 848.321 L32.7921 848.321 L32.7921 875.248 Q38.8395 874.866 42.0223 871.62 Q45.1734 868.341 45.1734 862.517 Q45.1734 859.143 44.3458 855.992 Q43.5183 852.809 41.8632 849.69 L47.4014 849.69 Q48.7382 852.841 49.4384 856.151 Q50.1386 859.461 50.1386 862.867 Q50.1386 871.397 45.1734 876.394 Q40.2081 881.359 31.7417 881.359 Q22.9889 881.359 17.8645 876.648 Q12.7083 871.906 12.7083 863.885 Q12.7083 856.692 17.3552 852.522 Q21.9704 848.321 29.9275 848.321 M28.2088 854.178 Q23.4026 854.241 20.5381 856.883 Q17.6735 859.493 17.6735 863.822 Q17.6735 868.723 20.4426 871.683 Q23.2117 874.611 28.2406 875.057 L28.2088 854.178 Z" fill="#000000" fill-rule="evenodd" fill-opacity="1" /><path clip-path="url(#clip940)" d="M 0 0 M19.0421 821.521 Q18.4692 822.508 18.2146 823.686 Q17.9281 824.832 17.9281 826.232 Q17.9281 831.197 21.1746 833.871 Q24.3893 836.513 30.4368 836.513 L49.2156 836.513 L49.2156 842.401 L13.5676 842.401 L13.5676 836.513 L19.1058 836.513 Q15.8593 834.667 14.2997 831.707 Q12.7083 828.747 12.7083 824.513 Q12.7083 823.909 12.8037 823.177 Q12.8674 822.444 13.0265 821.553 L19.0421 821.521 Z" fill="#000000" fill-rule="evenodd" fill-opacity="1" /><path clip-path="url(#clip940)" d="M 0 0 M17.6735 780.845 Q17.6735 785.555 21.3656 788.292 Q25.0259 791.03 31.4234 791.03 Q37.821 791.03 41.5131 788.324 Q45.1734 785.587 45.1734 780.845 Q45.1734 776.166 41.4813 773.429 Q37.7891 770.691 31.4234 770.691 Q25.0896 770.691 21.3974 773.429 Q17.6735 776.166 17.6735 780.845 M12.7083 780.845 Q12.7083 773.206 17.6735 768.845 Q22.6388 764.485 31.4234 764.485 Q40.1763 764.485 45.1734 768.845 Q50.1386 773.206 50.1386 780.845 Q50.1386 788.515 45.1734 792.876 Q40.1763 797.204 31.4234 797.204 Q22.6388 797.204 17.6735 792.876 Q12.7083 788.515 12.7083 780.845 Z" fill="#000000" fill-rule="evenodd" fill-opacity="1" /><path clip-path="url(#clip940)" d="M 0 0 M-0.309612 740.295 L4.56015 740.295 L4.56015 745.897 Q4.56015 749.048 5.8333 750.289 Q7.10644 751.499 10.4166 751.499 L13.5676 751.499 L13.5676 741.855 L18.1191 741.855 L18.1191 751.499 L49.2156 751.499 L49.2156 757.387 L18.1191 757.387 L18.1191 762.989 L13.5676 762.989 L13.5676 757.387 L11.085 757.387 Q5.13307 757.387 2.42764 754.618 Q-0.309612 751.849 -0.309612 745.833 L-0.309612 740.295 Z" fill="#000000" fill-rule="evenodd" fill-opacity="1" /><path clip-path="url(#clip940)" d="M 0 0 M20.4108 685.677 Q16.464 683.481 14.5861 680.426 Q12.7083 677.37 12.7083 673.232 Q12.7083 667.662 16.6232 664.639 Q20.5062 661.615 27.6995 661.615 L49.2156 661.615 L49.2156 667.503 L27.8905 667.503 Q22.7661 667.503 20.2834 669.317 Q17.8008 671.132 17.8008 674.856 Q17.8008 679.407 20.8245 682.049 Q23.8482 684.691 29.0681 684.691 L49.2156 684.691 L49.2156 690.579 L27.8905 690.579 Q22.7342 690.579 20.2834 692.393 Q17.8008 694.207 17.8008 697.995 Q17.8008 702.483 20.8564 705.124 Q23.8801 707.766 29.0681 707.766 L49.2156 707.766 L49.2156 713.655 L13.5676 713.655 L13.5676 707.766 L19.1058 707.766 Q15.8275 705.761 14.2679 702.96 Q12.7083 700.159 12.7083 696.308 Q12.7083 692.425 14.6816 689.719 Q16.655 686.982 20.4108 685.677 Z" fill="#000000" fill-rule="evenodd" fill-opacity="1" /><path clip-path="url(#clip940)" d="M 0 0 M17.6735 641.658 Q17.6735 646.369 21.3656 649.106 Q25.0259 651.844 31.4234 651.844 Q37.821 651.844 41.5131 649.138 Q45.1734 646.401 45.1734 641.658 Q45.1734 636.98 41.4813 634.242 Q37.7891 631.505 31.4234 631.505 Q25.0896 631.505 21.3974 634.242 Q17.6735 636.98 17.6735 641.658 M12.7083 641.658 Q12.7083 634.02 17.6735 629.659 Q22.6388 625.299 31.4234 625.299 Q40.1763 625.299 45.1734 629.659 Q50.1386 634.02 50.1386 641.658 Q50.1386 649.329 45.1734 653.69 Q40.1763 658.018 31.4234 658.018 Q22.6388 658.018 17.6735 653.69 Q12.7083 649.329 12.7083 641.658 Z" fill="#000000" fill-rule="evenodd" fill-opacity="1" /><path clip-path="url(#clip940)" d="M 0 0 M-0.309612 619.156 L-0.309612 613.299 L49.2156 613.299 L49.2156 619.156 L-0.309612 619.156 Z" fill="#000000" fill-rule="evenodd" fill-opacity="1" /><path clip-path="url(#clip940)" d="M 0 0 M29.9275 576.665 L32.7921 576.665 L32.7921 603.591 Q38.8395 603.21 42.0223 599.963 Q45.1734 596.685 45.1734 590.86 Q45.1734 587.486 44.3458 584.335 Q43.5183 581.152 41.8632 578.033 L47.4014 578.033 Q48.7382 581.184 49.4384 584.494 Q50.1386 587.805 50.1386 591.21 Q50.1386 599.74 45.1734 604.737 Q40.2081 609.703 31.7417 609.703 Q22.9889 609.703 17.8645 604.992 Q12.7083 600.249 12.7083 592.229 Q12.7083 585.035 17.3552 580.866 Q21.9704 576.665 29.9275 576.665 M28.2088 582.521 Q23.4026 582.585 20.5381 585.226 Q17.6735 587.836 17.6735 592.165 Q17.6735 597.067 20.4426 600.027 Q23.2117 602.955 28.2406 603.401 L28.2088 582.521 Z" fill="#000000" fill-rule="evenodd" fill-opacity="1" /><path clip-path="url(#clip940)" d="M 0 0 M14.9363 544.868 L20.4108 544.868 Q19.0421 547.35 18.3737 549.865 Q17.6735 552.348 17.6735 554.894 Q17.6735 560.591 21.302 563.742 Q24.8986 566.893 31.4234 566.893 Q37.9483 566.893 41.5767 563.742 Q45.1734 560.591 45.1734 554.894 Q45.1734 552.348 44.505 549.865 Q43.8047 547.35 42.4361 544.868 L47.847 544.868 Q48.9928 547.319 49.5657 549.96 Q50.1386 552.57 50.1386 555.53 Q50.1386 563.583 45.0779 568.325 Q40.0171 573.068 31.4234 573.068 Q22.7024 573.068 17.7053 568.294 Q12.7083 563.488 12.7083 555.148 Q12.7083 552.443 13.2812 549.865 Q13.8223 547.287 14.9363 544.868 Z" fill="#000000" fill-rule="evenodd" fill-opacity="1" /><path clip-path="url(#clip940)" d="M 0 0 M35.1474 539.33 L13.5676 539.33 L13.5676 533.473 L34.9246 533.473 Q39.9853 533.473 42.5316 531.5 Q45.046 529.526 45.046 525.58 Q45.046 520.837 42.0223 518.1 Q38.9986 515.331 33.7787 515.331 L13.5676 515.331 L13.5676 509.475 L49.2156 509.475 L49.2156 515.331 L43.7411 515.331 Q46.9876 517.463 48.579 520.296 Q50.1386 523.097 50.1386 526.821 Q50.1386 532.964 46.3192 536.147 Q42.4998 539.33 35.1474 539.33 M12.7083 524.593 L12.7083 524.593 Z" fill="#000000" fill-rule="evenodd" fill-opacity="1" /><path clip-path="url(#clip940)" d="M 0 0 M-0.309612 503.332 L-0.309612 497.475 L49.2156 497.475 L49.2156 503.332 L-0.309612 503.332 Z" fill="#000000" fill-rule="evenodd" fill-opacity="1" /><path clip-path="url(#clip940)" d="M 0 0 M29.9275 460.841 L32.7921 460.841 L32.7921 487.767 Q38.8395 487.386 42.0223 484.139 Q45.1734 480.861 45.1734 475.036 Q45.1734 471.662 44.3458 468.511 Q43.5183 465.328 41.8632 462.209 L47.4014 462.209 Q48.7382 465.36 49.4384 468.67 Q50.1386 471.98 50.1386 475.386 Q50.1386 483.916 45.1734 488.913 Q40.2081 493.879 31.7417 493.879 Q22.9889 493.879 17.8645 489.168 Q12.7083 484.425 12.7083 476.405 Q12.7083 469.211 17.3552 465.042 Q21.9704 460.841 29.9275 460.841 M28.2088 466.697 Q23.4026 466.761 20.5381 469.402 Q17.6735 472.012 17.6735 476.341 Q17.6735 481.243 20.4426 484.203 Q23.2117 487.131 28.2406 487.576 L28.2088 466.697 Z" fill="#000000" fill-rule="evenodd" fill-opacity="1" /><path clip-path="url(#clip940)" d="M 0 0 M14.618 431.972 L20.1561 431.972 Q18.883 434.455 18.2464 437.128 Q17.6099 439.802 17.6099 442.666 Q17.6099 447.027 18.9467 449.223 Q20.2834 451.387 22.957 451.387 Q24.9941 451.387 26.1717 449.828 Q27.3176 448.268 28.3679 443.558 L28.8135 441.552 Q30.1503 435.314 32.6011 432.704 Q35.0201 430.062 39.3806 430.062 Q44.3458 430.062 47.2422 434.009 Q50.1386 437.924 50.1386 444.799 Q50.1386 447.663 49.5657 450.783 Q49.0246 453.87 47.9106 457.308 L41.8632 457.308 Q43.5501 454.061 44.4095 450.91 Q45.237 447.759 45.237 444.672 Q45.237 440.534 43.8366 438.306 Q42.4043 436.078 39.8262 436.078 Q37.439 436.078 36.1659 437.701 Q34.8927 439.293 33.7151 444.735 L33.2377 446.772 Q32.0918 452.215 29.7365 454.634 Q27.3494 457.053 23.2117 457.053 Q18.1828 457.053 15.4455 453.488 Q12.7083 449.923 12.7083 443.367 Q12.7083 440.12 13.1857 437.256 Q13.6631 434.391 14.618 431.972 Z" fill="#000000" fill-rule="evenodd" fill-opacity="1" /><polyline clip-path="url(#clip942)" style="stroke:#009af9; stroke-width:8; stroke-opacity:1; fill:none" points="
  271.928,125.75 274.336,174.196 276.745,187.951 279.153,181.599 281.562,172.412 283.97,167.624 286.379,177.103 288.788,200.381 291.196,240.84 293.605,302.238 
  296.013,379.726 298.422,473.059 300.83,579.47 303.239,694.504 305.648,816.659 308.056,936.025 310.465,1050.55 312.873,1153.38 315.282,1240.58 317.69,1309.17 
  320.099,1358.58 322.508,1387.44 324.916,1395.63 327.325,1383.48 329.733,1354.26 332.142,1308.41 334.55,1248.13 336.959,1175.19 339.368,1090.6 341.776,1000.31 
  344.185,902.931 346.593,804.539 349.002,708.488 351.41,618.79 353.819,536.597 356.228,467.055 358.636,410.529 361.045,372.097 363.453,351.355 365.862,347.776 
  368.27,361.32 370.679,393.295 373.088,440.998 375.496,504.727 377.905,578.08 380.313,658.635 382.722,744.86 385.13,831.307 387.539,914.568 389.948,992.61 
  392.356,1060.31 394.765,1117.63 397.173,1162.67 399.582,1193.26 401.99,1209.37 404.399,1213.32 406.808,1203.71 409.216,1181.65 411.625,1147.42 414.033,1101.11 
  416.442,1047.55 418.85,986.058 421.259,921.177 423.668,854.816 426.076,788.187 428.485,724.086 430.893,664.827 433.302,612.957 435.71,570.677 438.119,537.443 
  440.528,516.663 442.936,506.258 445.345,509.322 447.753,523.106 450.162,546.314 452.57,579.669 454.979,622.88 457.388,672.306 459.796,724.223 462.205,779.376 
  464.613,835.085 467.022,887.926 469.43,937.281 471.839,982.503 474.248,1019.24 476.656,1047.77 479.065,1068.65 481.473,1079.26 483.882,1081.01 486.29,1073.97 
  488.699,1056.49 491.108,1031.64 493.516,1000.04 495.925,962.855 498.333,922.003 500.742,880.005 503.15,836.049 505.559,791.133 507.968,748.069 510.376,709.935 
  512.785,676.486 515.193,648.175 517.602,626.03 520.01,613.115 522.419,607.229 524.827,609.449 527.236,619.936 529.645,638.217 532.053,660.821 534.462,690.413 
  536.87,723.902 539.279,760.945 541.687,797.708 544.096,837.275 546.505,872.588 548.913,906.86 551.322,937.047 553.73,962.459 556.139,981.192 558.547,993.157 
  560.956,999.458 563.365,998.993 565.773,991.984 568.182,979.761 570.59,961.576 572.999,939.683 575.407,914.08 577.816,884.136 580.225,854.048 582.633,823.524 
  585.042,792.773 587.45,765.276 589.859,739.065 592.267,718.437 594.676,700.218 597.085,687.013 599.493,677.968 601.902,676.948 604.31,678.994 606.719,688.216 
  609.127,701.082 611.536,718.524 613.945,739.405 616.353,762.111 618.762,787.134 621.17,813.748 623.579,838.104 625.987,862.469 628.396,883.752 630.805,903.704 
  633.213,918.861 635.622,931.189 638.03,937.704 640.439,941.736 642.847,938.803 645.256,934.696 647.665,926.202 650.073,912.933 652.482,896.828 654.89,879.685 
  657.299,861.144 659.707,841.996 662.116,821.094 664.525,801.201 666.933,782.879 669.342,765.877 671.75,752.045 674.159,740.364 676.567,732.014 678.976,725.989 
  681.385,723.627 683.793,725.691 686.202,732.729 688.61,743.119 691.019,753.667 693.427,767.271 695.836,782.991 698.245,801.169 700.653,819.792 703.062,836.135 
  705.47,851.981 707.879,865.741 710.287,878.463 712.696,889.34 715.105,896.992 717.513,904.373 719.922,906.308 722.33,905.964 724.739,901.001 727.147,892.772 
  729.556,886.065 731.965,875.173 734.373,863.804 736.782,850.37 739.19,834.871 741.599,820.888 744.007,806.147 746.416,793.596 748.825,782.088 751.233,773.082 
  753.642,765.095 756.05,759.014 758.459,754.776 760.867,753.368 763.276,755.006 765.685,759.026 768.093,764.285 770.502,771.99 772.91,781.775 775.319,793.878 
  777.727,805.83 780.136,818.489 782.545,830.287 784.953,841.307 787.362,851.105 789.77,861.238 792.179,870.333 794.587,877.135 796.996,881 799.405,883.241 
  801.813,883.421 804.222,881.228 806.63,875.14 809.039,867.974 811.447,859.635 813.856,850.272 816.265,839.767 818.673,828.922 821.082,819.175 823.49,807.522 
  825.899,797.414 828.307,789.065 830.716,782.026 833.125,776.434 835.533,773.96 837.942,772.434 840.35,772.452 842.759,773.595 845.167,777.772 847.576,784.761 
  849.985,791.833 852.393,800.517 854.802,809.037 857.21,818.131 859.619,828.021 862.027,837.799 864.436,846.251 866.845,853.66 869.253,859.156 871.662,863.805 
  874.07,866.961 876.479,867.779 878.887,866.991 881.296,863.752 883.705,860.438 886.113,855.403 888.522,850.542 890.93,843.453 893.339,835.094 895.747,828.316 
  898.156,820.986 900.565,816.741 902.973,811.207 905.382,805.996 907.79,800.845 910.199,796.506 912.607,794.837 915.016,794.542 917.425,793.146 919.833,791.759 
  922.242,791.972 924.65,793.104 927.059,797.005 929.467,800.435 931.876,803.283 934.285,809.075 936.693,815.113 939.102,821.591 941.51,826.801 943.919,831.428 
  946.327,837.688 948.736,841.614 951.145,844.155 953.553,846.472 955.962,846.439 958.37,847.408 960.779,847.697 963.187,847.01 965.596,843.445 968.005,840.276 
  970.413,836.75 972.822,832.93 975.23,828.761 977.639,824.859 980.047,821.03 982.456,817.789 984.865,815.524 987.273,812.31 989.682,809.305 992.09,806.872 
  994.499,806.32 996.907,806.594 999.316,805.893 1001.72,806.649 1004.13,808.352 1006.54,808.729 1008.95,811.286 1011.36,813.888 1013.77,814.982 1016.18,816.127 
  1018.58,820.502 1020.99,824.154 1023.4,828.149 1025.81,831.704 1028.22,836.484 1030.63,838.199 1033.04,838.915 1035.44,840.251 1037.85,839.539 1040.26,840.213 
  1042.67,840.01 1045.08,838.112 1047.49,835.072 1049.9,833.199 1052.3,830.47 1054.71,828.125 1057.12,823.315 1059.53,820.574 1061.94,817.377 1064.35,815.151 
  1066.76,812.149 1069.16,810.163 1071.57,808.87 1073.98,809.111 1076.39,809.764 1078.8,809.494 1081.21,809.772 1083.62,810.619 1086.02,811.534 1088.43,813.067 
  1090.84,814.672 1093.25,817.562 1095.66,820.3 1098.07,823.598 1100.48,825.966 1102.88,828.26 1105.29,830.885 1107.7,832.031 1110.11,834.527 1112.52,835.129 
  1114.93,836.898 1117.34,837.092 1119.74,839.467 1122.15,838.115 1124.56,837.169 1126.97,834.925 1129.38,833.195 1131.79,830.693 1134.2,828.977 1136.6,827.052 
  1139.01,823.583 1141.42,822.231 1143.83,821.779 1146.24,820.668 1148.65,817.837 1151.06,815.781 1153.46,814.638 1155.87,813.031 1158.28,811.501 1160.69,810.86 
  1163.1,811.588 1165.51,810.592 1167.92,811.288 1170.32,811.708 1172.73,814.6 1175.14,816.568 1177.55,819.609 1179.96,821.507 1182.37,822.695 1184.78,824.415 
  1187.18,826.642 1189.59,829.165 1192,832.35 1194.41,834.486 1196.82,836.071 1199.23,836.899 1201.64,838.714 1204.04,838.292 1206.45,838.1 1208.86,837.222 
  1211.27,835.653 1213.68,832.525 1216.09,830.596 1218.5,829.124 1220.9,827.203 1223.31,824.383 1225.72,820.897 1228.13,818.21 1230.54,816.041 1232.95,813.668 
  1235.36,810.056 1237.76,809.23 1240.17,809.278 1242.58,809.924 1244.99,810.902 1247.4,812.501 1249.81,813.443 1252.22,815.636 1254.62,818.444 1257.03,819.939 
  1259.44,821.203 1261.85,822.655 1264.26,824.57 1266.67,826.173 1269.08,828.196 1271.48,829.512 1273.89,829.796 1276.3,832.098 1278.71,832.919 1281.12,833.156 
  1283.53,832.593 1285.94,832.379 1288.34,832.39 1290.75,830.471 1293.16,829.727 1295.57,828.016 1297.98,826.755 1300.39,826.389 1302.8,824.663 1305.2,824.221 
  1307.61,821.691 1310.02,818.89 1312.43,817.48 1314.84,816.5 1317.25,815.327 1319.66,815.786 1322.06,816.102 1324.47,815.877 1326.88,816.184 1329.29,818.153 
  1331.7,818.961 1334.11,820.298 1336.52,822.603 1338.92,823.37 1341.33,823.702 1343.74,824.982 1346.15,825.91 1348.56,827.956 1350.97,829.075 1353.38,831.399 
  1355.78,831.334 1358.19,833.135 1360.6,833.487 1363.01,833.029 1365.42,833.657 1367.83,831.827 1370.24,829.663 1372.64,828.275 1375.05,827.984 1377.46,828.021 
  1379.87,825.932 1382.28,824.283 1384.69,822.437 1387.1,822.253 1389.5,820.857 1391.91,819.417 1394.32,816.918 1396.73,815.793 1399.14,817.056 1401.55,815.447 
  1403.96,814.642 1406.36,814.765 1408.77,814.334 1411.18,814.135 1413.59,816.736 1416,816.999 1418.41,817.189 1420.82,819.342 1423.22,821.812 1425.63,822.406 
  1428.04,823.386 1430.45,825.663 1432.86,827.461 1435.27,827.803 1437.68,827.464 1440.08,828.701 1442.49,827.48 1444.9,827.592 1447.31,826.272 1449.72,825.095 
  1452.13,826.928 1454.54,826.306 1456.94,826.083 1459.35,825.787 1461.76,824.922 1464.17,825.36 1466.58,825.861 1468.99,824.987 1471.4,823.913 1473.8,823.13 
  1476.21,822.771 1478.62,822.888 1481.03,823.189 1483.44,822.115 1485.85,821.694 1488.26,822.212 1490.66,820.861 1493.07,820.582 1495.48,818.758 1497.89,818.324 
  1500.3,817.665 1502.71,816.844 1505.12,816.633 1507.52,817.091 1509.93,817.219 1512.34,818.792 1514.75,820.896 1517.16,822.589 1519.57,825.049 1521.98,827.848 
  1524.38,828.661 1526.79,830.337 1529.2,831.281 1531.61,832.068 1534.02,831.097 1536.43,831.249 1538.84,829.193 1541.24,829.068 1543.65,829.06 1546.06,828.232 
  1548.47,825.734 1550.88,825.104 1553.29,824.196 1555.7,822.939 1558.1,821.544 1560.51,819.786 1562.92,818.752 1565.33,817.034 1567.74,815.734 1570.15,816.298 
  1572.56,814.926 1574.96,815.01 1577.37,814.907 1579.78,815.381 1582.19,816.035 1584.6,817.026 1587.01,817.128 1589.42,818.353 1591.82,820.12 1594.23,823.313 
  1596.64,825.163 1599.05,827.145 1601.46,829.411 1603.87,830.237 1606.28,832.491 1608.68,832.694 1611.09,832.586 1613.5,832.156 1615.91,832.687 1618.32,832.689 
  1620.73,832.846 1623.14,831.045 1625.54,828.292 1627.95,826.151 1630.36,825.658 1632.77,823.953 1635.18,823.031 1637.59,821.983 1640,819.844 1642.4,818.728 
  1644.81,816.866 1647.22,815.956 1649.63,815.171 1652.04,814.582 1654.45,816.105 1656.86,815.631 1659.26,817.399 1661.67,818.16 1664.08,818.604 1666.49,820.373 
  1668.9,821.357 1671.31,822.371 1673.72,824.42 1676.12,825.952 1678.53,827.795 1680.94,828.215 1683.35,830.58 1685.76,828.355 1688.17,828.891 1690.58,827.587 
  1692.98,827.243 1695.39,827.398 1697.8,827.276 1700.21,824.326 1702.62,823.789 1705.03,822.532 1707.44,822.623 1709.84,822.656 1712.25,821.928 1714.66,821.203 
  1717.07,821.599 1719.48,821.843 1721.89,821.521 1724.3,821.796 1726.7,822.304 1729.11,821.417 1731.52,821.114 1733.93,822.022 1736.34,823.915 1738.75,823.943 
  1741.16,824.549 1743.56,823.774 1745.97,823.117 1748.38,824.853 1750.79,827.076 1753.2,827.48 1755.61,825.86 1758.02,825.925 1760.42,824.604 1762.83,824.259 
  1765.24,822.857 1767.65,822.198 1770.06,823.531 1772.47,822.952 1774.88,823.194 1777.28,823.82 1779.69,822.345 1782.1,821.621 1784.51,821.237 1786.92,820.426 
  1789.33,820.656 1791.74,821.337 1794.14,821.259 1796.55,821.591 1798.96,822.353 1801.37,822.045 1803.78,822.336 1806.19,824.725 1808.6,825.38 1811,825.762 
  1813.41,825.761 1815.82,825.981 1818.23,826.268 1820.64,827.228 1823.05,827.654 1825.46,828.886 1827.86,829.248 1830.27,828.14 1832.68,827.15 1835.09,826.758 
  1837.5,826.997 1839.91,825.943 1842.32,825.125 1844.72,823.566 1847.13,822.804 1849.54,821.81 1851.95,821.463 1854.36,820.678 1856.77,821.019 1859.18,821.687 
  1861.58,822.035 1863.99,821.129 1866.4,821.747 1868.81,823.071 1871.22,824.382 1873.63,824.027 1876.04,824.168 1878.44,824.673 1880.85,826.507 1883.26,826.44 
  1885.67,825.42 1888.08,825.413 1890.49,826.47 1892.9,825.563 1895.3,825.536 1897.71,824.307 1900.12,824.295 1902.53,823.129 1904.94,821.595 1907.35,821.267 
  1909.76,820.768 1912.16,820.193 1914.57,819.792 1916.98,818.15 1919.39,818.227 1921.8,816.431 1924.21,817.102 1926.62,816.859 1929.02,818.1 1931.43,819.465 
  1933.84,820.944 1936.25,822.437 1938.66,823.893 1941.07,825.973 1943.48,825.42 1945.88,826.493 1948.29,826.899 1950.7,828.569 1953.11,830.152 1955.52,829.682 
  1957.93,829.878 1960.34,828.555 1962.74,827.411 1965.15,826.642 1967.56,824.945 1969.97,824.514 1972.38,824.461 1974.79,824.126 1977.2,824.024 1979.6,822.515 
  1982.01,823.756 1984.42,822.697 1986.83,821.544 1989.24,821.263 1991.65,822.059 1994.06,821.598 1996.46,820.776 1998.87,819.571 2001.28,820.057 2003.69,820.074 
  2006.1,818.902 2008.51,818.747 2010.92,818.432 2013.32,819.982 2015.73,820.208 2018.14,820.371 2020.55,821.596 2022.96,824.084 2025.37,826.024 2027.78,826.041 
  2030.18,825.966 2032.59,826.385 2035,826.907 2037.41,828.852 2039.82,829.097 2042.23,829.802 2044.64,829.393 2047.04,827.218 2049.45,825.774 2051.86,823.614 
  2054.27,821.814 2056.68,820.346 2059.09,818.456 2061.5,818.008 2063.9,816.91 2066.31,816.298 2068.72,815.995 2071.13,816.501 2073.54,818.433 2075.95,819.432 
  2078.36,819.171 2080.76,818.378 2083.17,819.901 2085.58,820.112 2087.99,819.794 2090.4,820.168 2092.81,820.7 2095.22,822.722 2097.62,824.88 2100.03,825.464 
  2102.44,826.992 2104.85,829.333 2107.26,829.715 2109.67,830.284 2112.08,830.615 2114.48,830.434 2116.89,830.842 2119.3,829.958 2121.71,828.788 2124.12,828.169 
  2126.53,828.452 2128.94,827.732 2131.34,828.507 2133.75,827.034 2136.16,827.549 2138.57,826.18 2140.98,825.113 2143.39,824.314 2145.8,821.39 2148.2,818.049 
  2150.61,816.69 2153.02,816.313 2155.43,815.696 2157.84,813.937 2160.25,814.124 2162.66,814.435 2165.06,815.518 2167.47,815.933 2169.88,816.77 2172.29,817.535 
  2174.7,818.196 2177.11,819.642 2179.52,819.821 2181.92,820.62 2184.33,822.172 2186.74,823.396 2189.15,824.863 2191.56,825.645 2193.97,827.163 2196.38,830.316 
  2198.78,831.397 2201.19,832.26 2203.6,832.676 2206.01,832.076 2208.42,829.878 2210.83,830.09 2213.24,829.893 2215.64,828.588 2218.05,826.144 2220.46,824.686 
  2222.87,823.785 2225.28,822.148 2227.69,821.702 2230.1,821.929 2232.5,818.571 2234.91,817.871 2237.32,815.251 2239.73,814.499 2242.14,814.356 2244.55,814.837 
  2246.96,814.501 2249.36,815.901 2251.77,816.862 2254.18,818.498 2256.59,821.182 2259,821.193 2261.41,820.44 2263.82,820.543 2266.22,821.549 2268.63,822.328 
  2271.04,824.061 2273.45,825.777 2275.86,827.328 2278.27,828.523 2280.68,827.79 2283.08,827.228 2285.49,828.859 2287.9,826.859 2290.31,826.969 2292.72,826.754 
  2295.13,825.785 2297.54,825.223 2299.94,825.835 2302.35,826.143 2304.76,826.529 2307.17,827.296 2309.58,826.076 2311.99,824.64 2314.4,824.656 2316.8,822.545 
  2319.21,822.246 2321.62,822.953 2324.03,822.283 2326.44,822.584 2328.85,823.595 2331.26,826.639 2333.66,826.892 2336.07,826.991 2338.48,827.287 2340.89,827.138 
  2343.3,827.12 2345.71,825.624 2348.12,826.734 2350.52,827.233 2352.93,827.682 2355.34,826.898 2357.75,827.518 2360.16,827.663 2362.57,827.255 2364.98,827.107 
  2367.38,825.64 2369.79,824.894 2372.2,825.457 2374.61,823.485 2377.02,823.499 2379.43,823.054 2381.84,821.912 2384.24,820.681 2386.65,820.685 2389.06,819.236 
  2391.47,818.384 2393.88,818.67 2396.29,819.005 2398.7,819.988 2401.1,820.176 2403.51,820.726 2405.92,820.133 2408.33,820.607 2410.74,820.654 2413.15,821.541 
  2415.56,822.085 2417.96,822.76 2420.37,822.071 2422.78,821.237 2425.19,823.652 2427.6,824.621 2430.01,824.773 2432.42,825.601 2434.82,825.964 2437.23,827.572 
  2439.64,827.792 2442.05,828.231 2444.46,828.131 2446.87,827.675 2449.28,826.771 2451.68,825.925 2454.09,825.905 2456.5,824.905 2458.91,825.563 2461.32,823.967 
  2463.73,822.753 2466.14,822.048 2468.54,820.226 2470.95,820.249 2473.36,821.073 2475.77,821.744 2478.18,821.809 2480.59,820.48 2483,821.525 2485.4,821.282 
  2487.81,823.21 2490.22,823.526 2492.63,823.933 2495.04,824.765 2497.45,823.546 2499.86,822.972 2502.26,821.782 2504.67,820.927 2507.08,822.764 2509.49,823.428 
  2511.9,824.882 2514.31,825.632 2516.72,827.043 2519.12,826.981 2521.53,826.186 2523.94,826.167 2526.35,823.993 2528.76,823.79 2531.17,824.057 2533.58,823.96 
  2535.98,824.021 2538.39,824.575 2540.8,823.443 2543.21,824.358 2545.62,824.856 2548.03,825.274 2550.44,826.382 2552.84,825.878 2555.25,826.949 2557.66,827.203 
  2560.07,826.048 2562.48,825.571 2564.89,822.964 2567.3,820.35 2569.7,820.092 2572.11,819.192 2574.52,818.347 2576.93,818.142 2579.34,818.411 2581.75,819.969 
  2584.16,819.854 2586.56,819.385 2588.97,818.911 2591.38,819.402 2593.79,819.353 2596.2,820.155 2598.61,820.183 2601.02,820.057 2603.42,821.579 2605.83,822.16 
  2608.24,824.632 2610.65,824.718 2613.06,825.93 2615.47,826.276 2617.88,827.685 2620.28,828.405 2622.69,828.901 2625.1,827.969 2627.51,825.948 2629.92,825.376 
  2632.33,825.691 2634.74,823.888 2637.14,824.682 2639.55,824.066 2641.96,823.636 2644.37,822.673 2646.78,822.773 2649.19,822.653 2651.6,822.266 2654,822.374 
  2656.41,822.673 2658.82,825.092 2661.23,827.057 2663.64,827.732 2666.05,826.975 2668.46,826.673 2670.86,826.35 2673.27,826.895 2675.68,825.835 2678.09,825.776 
  2680.5,825.407 
  "/>
<polyline clip-path="url(#clip942)" style="stroke:#3da44d; stroke-width:8; stroke-opacity:1; fill:none" points="
  271.928,1374.55 274.336,1101.42 276.745,879.221 279.153,694.517 281.562,540.797 283.97,412.096 286.379,304.564 288.788,219.423 291.196,155.045 293.605,110.558 
  296.013,88.3302 298.422,86.5175 300.83,105.843 303.239,144.713 305.648,200.315 308.056,270.584 310.465,353.185 312.873,443.488 315.282,537.31 317.69,630.639 
  320.099,719.679 322.508,802.251 324.916,874.984 327.325,934.444 329.733,978.741 332.142,1007.92 334.55,1022.03 336.959,1019.84 339.368,1003.01 341.776,970.588 
  344.185,925.343 346.593,868.437 349.002,801.053 351.41,725.076 353.819,645.258 356.228,564.059 358.636,485.067 361.045,409.273 363.453,339.437 365.862,280.41 
  368.27,231.969 370.679,197.203 373.088,175.632 375.496,169.702 377.905,178.814 380.313,201.653 382.722,235.707 385.13,283.066 387.539,338.118 389.948,399.927 
  392.356,467.374 394.765,535.601 397.173,601.821 399.582,664.374 401.99,721.748 404.399,771.305 406.808,810.205 409.216,841.734 411.625,860.759 414.033,867.598 
  416.442,864.614 418.85,850.6 421.259,825.156 423.668,791.646 426.076,750.678 428.485,702.662 430.893,651.372 433.302,597.508 435.71,542.987 438.119,490.198 
  440.528,442.312 442.936,398.683 445.345,361.388 447.753,330.922 450.162,310.811 452.57,299.58 454.979,298.863 457.388,306.218 459.796,322.836 462.205,345.761 
  464.613,377.084 467.022,414.912 469.43,456.2 471.839,500.104 474.248,544.711 476.656,587.329 479.065,627.633 481.473,665.033 483.882,698.416 486.29,724.474 
  488.699,743.735 491.108,754.744 493.516,759.678 495.925,757.284 498.333,745.768 500.742,727.711 503.15,705.72 505.559,675.947 507.968,643.141 510.376,609.709 
  512.785,574.68 515.193,537.84 517.602,502.233 520.01,469.15 522.419,439.748 524.827,415.025 527.236,396.347 529.645,383.881 532.053,378.613 534.462,378.038 
  536.87,384.497 539.279,396.065 541.687,413.704 544.096,436.642 546.505,462.231 548.913,489.594 551.322,520.045 553.73,550.228 556.139,580.814 558.547,608.72 
  560.956,632.866 563.365,654.063 565.773,671.77 568.182,683.778 570.59,691.58 572.999,692.837 575.407,688.87 577.816,680.111 580.225,667.652 582.633,650.226 
  585.042,630.206 587.45,606.946 589.859,583.117 592.267,558.513 594.676,533.988 597.085,511.759 599.493,490.199 601.902,470.387 604.31,455.025 606.719,442.536 
  609.127,434.312 611.536,432.056 613.945,433.144 616.353,438.096 618.762,447.594 621.17,461.744 623.579,478.828 625.987,497.14 628.396,515.574 630.805,534.917 
  633.213,555.847 635.622,575.423 638.03,592.733 640.439,609.747 642.847,624.06 645.256,634.473 647.665,642.162 650.073,645.722 652.482,646.537 654.89,643.069 
  657.299,636.802 659.707,628.1 662.116,615.986 664.525,603.376 666.933,587.993 669.342,571.156 671.75,554.905 674.159,538.377 676.567,521.843 678.976,506.959 
  681.385,494.433 683.793,484.302 686.202,477.019 688.61,470.925 691.019,469.462 693.427,470.25 695.836,474.769 698.245,481.001 700.653,490.704 703.062,502.482 
  705.47,515.008 707.879,527.882 710.287,542.407 712.696,556.785 715.105,569.716 717.513,581.682 719.922,592.841 722.33,602.581 724.739,609.276 727.147,613.886 
  729.556,618.697 731.965,618.546 734.373,615.908 736.782,612.194 739.19,605.962 741.599,597.937 744.007,588.404 746.416,576.233 748.825,565.274 751.233,554.026 
  753.642,543.405 756.05,531.862 758.459,522.639 760.867,513.236 763.276,505.244 765.685,499.539 768.093,495.64 770.502,494.087 772.91,495.043 775.319,496.82 
  777.727,501.475 780.136,507.008 782.545,514.169 784.953,522.91 787.362,532.394 789.77,542.192 792.179,552.921 794.587,561.906 796.996,572.017 799.405,580.921 
  801.813,587.699 804.222,593.424 806.63,597.201 809.039,599.013 811.447,597.568 813.856,595.156 816.265,592.551 818.673,588.302 821.082,581.982 823.49,574.652 
  825.899,566.037 828.307,556.04 830.716,547.472 833.125,539.126 835.533,531.852 837.942,524.624 840.35,518.763 842.759,514.369 845.167,510.173 847.576,508.967 
  849.985,509.817 852.393,510.463 854.802,513.939 857.21,519.803 859.619,525.081 862.027,531.766 864.436,538.257 866.845,545.086 869.253,553.649 871.662,560.084 
  874.07,567.129 876.479,573.455 878.887,578.119 881.296,581.344 883.705,583.841 886.113,585.079 888.522,585.099 890.93,584.276 893.339,582.078 895.747,578.911 
  898.156,574.664 900.565,569.943 902.973,565.479 905.382,560.329 907.79,555.172 910.199,549.284 912.607,544.235 915.016,540.037 917.425,535.712 919.833,532.812 
  922.242,529.87 924.65,527.838 927.059,526.093 929.467,525.891 931.876,524.822 934.285,525.626 936.693,527.671 939.102,530.728 941.51,534.781 943.919,539.588 
  946.327,543.765 948.736,548.705 951.145,553.254 953.553,556.623 955.962,559.909 958.37,564.474 960.779,567.495 963.187,569.132 965.596,569.388 968.005,569.863 
  970.413,569.517 972.822,568.82 975.23,567.254 977.639,565.323 980.047,562.444 982.456,560.404 984.865,557.609 987.273,554.896 989.682,551.045 992.09,548.394 
  994.499,545.192 996.907,542.811 999.316,540.847 1001.72,540.565 1004.13,539.935 1006.54,537.895 1008.95,537.518 1011.36,538.169 1013.77,538.82 1016.18,537.936 
  1018.58,539.21 1020.99,541.131 1023.4,543.144 1025.81,545.741 1028.22,548.909 1030.63,551.884 1033.04,554.321 1035.44,556.972 1037.85,560.114 1040.26,561.96 
  1042.67,562.965 1045.08,563.989 1047.49,564.156 1049.9,563.669 1052.3,563.152 1054.71,562.605 1057.12,561.577 1059.53,560.134 1061.94,558.553 1064.35,555.85 
  1066.76,552.602 1069.16,549.295 1071.57,546.142 1073.98,543.394 1076.39,542.212 1078.8,541.149 1081.21,540.107 1083.62,538.629 1086.02,538.335 1088.43,538.488 
  1090.84,538.604 1093.25,540.002 1095.66,541.053 1098.07,542.154 1100.48,544.274 1102.88,545.718 1105.29,547.991 1107.7,549.64 1110.11,552.4 1112.52,553.951 
  1114.93,556.545 1117.34,557.838 1119.74,561.839 1122.15,563.049 1124.56,564.136 1126.97,564.937 1129.38,565.115 1131.79,565.012 1134.2,564.014 1136.6,562.606 
  1139.01,561.877 1141.42,560.892 1143.83,558.511 1146.24,556.997 1148.65,556.677 1151.06,554.378 1153.46,551.832 1155.87,550.413 1158.28,547.68 1160.69,545.776 
  1163.1,543.149 1165.51,542.355 1167.92,540.816 1170.32,539.794 1172.73,540.072 1175.14,541.625 1177.55,542.674 1179.96,544.028 1182.37,544.845 1184.78,544.621 
  1187.18,546.134 1189.59,549.245 1192,551.308 1194.41,553.123 1196.82,553.613 1199.23,556.202 1201.64,558.678 1204.04,561.34 1206.45,562.448 1208.86,563.198 
  1211.27,562.884 1213.68,563.558 1216.09,562.519 1218.5,562.019 1220.9,561.404 1223.31,561.321 1225.72,558.825 1228.13,557.08 1230.54,554.702 1232.95,553.059 
  1235.36,551.204 1237.76,548.433 1240.17,546.959 1242.58,544.166 1244.99,542.062 1247.4,542.332 1249.81,541.881 1252.22,542.394 1254.62,541.63 1257.03,542.297 
  1259.44,543.574 1261.85,544.54 1264.26,545.906 1266.67,547.357 1269.08,549.193 1271.48,550.455 1273.89,552.377 1276.3,552.605 1278.71,554.128 1281.12,555.227 
  1283.53,556.648 1285.94,557.288 1288.34,557.779 1290.75,558.439 1293.16,557.973 1295.57,558.901 1297.98,559.287 1300.39,558.241 1302.8,557.988 1305.2,557.119 
  1307.61,556.821 1310.02,554.893 1312.43,553.357 1314.84,550.864 1317.25,550.1 1319.66,548.352 1322.06,548.493 1324.47,546.699 1326.88,546.272 1329.29,546.41 
  1331.7,545.872 1334.11,546.246 1336.52,546.416 1338.92,547.671 1341.33,547.493 1343.74,548.054 1346.15,549.176 1348.56,551.058 1350.97,552.04 1353.38,553.557 
  1355.78,554.149 1358.19,555.105 1360.6,556.658 1363.01,556.971 1365.42,558.572 1367.83,560.573 1370.24,560.971 1372.64,561.484 1375.05,560.439 1377.46,559.282 
  1379.87,558.93 1382.28,557.697 1384.69,556.28 1387.1,555.358 1389.5,554.289 1391.91,552.909 1394.32,552.116 1396.73,550.847 1399.14,550.236 1401.55,548.562 
  1403.96,547.976 1406.36,546.359 1408.77,544.67 1411.18,543.613 1413.59,543.737 1416,542.402 1418.41,542.648 1420.82,542.917 1423.22,544.606 1425.63,545.471 
  1428.04,545.809 1430.45,546.939 1432.86,547.423 1435.27,548.833 1437.68,550.617 1440.08,552.234 1442.49,553.806 1444.9,554.535 1447.31,554.378 1449.72,554.376 
  1452.13,553.879 1454.54,553.973 1456.94,553.919 1459.35,554.446 1461.76,554.175 1464.17,553.265 1466.58,553.867 1468.99,553.651 1471.4,554.256 1473.8,554.913 
  1476.21,555.228 1478.62,554.196 1481.03,553.844 1483.44,553.765 1485.85,553.243 1488.26,552.476 1490.66,552.259 1493.07,550.712 1495.48,550.321 1497.89,549.542 
  1500.3,548.539 1502.71,548.031 1505.12,547.336 1507.52,546.087 1509.93,546.256 1512.34,545.336 1514.75,546.138 1517.16,547.008 1519.57,547.525 1521.98,549.185 
  1524.38,551.175 1526.79,552.858 1529.2,554.269 1531.61,555.524 1534.02,556.79 1536.43,557.55 1538.84,558.345 1541.24,558.173 1543.65,556.924 1546.06,557.888 
  1548.47,558.341 1550.88,557.565 1553.29,556.439 1555.7,555.158 1558.1,554.474 1560.51,553.688 1562.92,553.119 1565.33,551.706 1567.74,550.061 1570.15,549.312 
  1572.56,547.367 1574.96,546.123 1577.37,545.783 1579.78,544.056 1582.19,543.889 1584.6,543.948 1587.01,544.382 1589.42,544.26 1591.82,544.797 1594.23,545.179 
  1596.64,546.049 1599.05,547.263 1601.46,549.119 1603.87,551.351 1606.28,552.808 1608.68,554.874 1611.09,556.135 1613.5,555.731 1615.91,556.98 1618.32,557.129 
  1620.73,557.619 1623.14,559.327 1625.54,559.134 1627.95,558.777 1630.36,558.086 1632.77,557.765 1635.18,555.799 1637.59,554.876 1640,554.229 1642.4,552.598 
  1644.81,551.389 1647.22,548.83 1649.63,547.42 1652.04,545.562 1654.45,545.6 1656.86,546.737 1659.26,545.635 1661.67,545.494 1664.08,544.772 1666.49,546.007 
  1668.9,546.811 1671.31,547.026 1673.72,548.271 1676.12,549.186 1678.53,549.596 1680.94,550.368 1683.35,552.264 1685.76,553.244 1688.17,553.732 1690.58,553.78 
  1692.98,553.967 1695.39,555.395 1697.8,555.783 1700.21,555.411 1702.62,554.708 1705.03,554.172 1707.44,553.282 1709.84,553.036 1712.25,552.221 1714.66,550.4 
  1717.07,550.541 1719.48,550.288 1721.89,550.706 1724.3,550.982 1726.7,551.003 1729.11,550.779 1731.52,550.635 1733.93,549.447 1736.34,548.848 1738.75,550.614 
  1741.16,550.299 1743.56,551.02 1745.97,550.624 1748.38,550.532 1750.79,552.545 1753.2,552.784 1755.61,554.343 1758.02,554.675 1760.42,554.617 1762.83,555.818 
  1765.24,555.09 1767.65,553.918 1770.06,553.431 1772.47,553.45 1774.88,552.928 1777.28,551.601 1779.69,551.596 1782.1,550.052 1784.51,550.738 1786.92,549.173 
  1789.33,548.846 1791.74,549.733 1794.14,549.628 1796.55,548.787 1798.96,548.486 1801.37,548.417 1803.78,547.986 1806.19,550.062 1808.6,550.961 1811,550.98 
  1813.41,551.278 1815.82,552.116 1818.23,553.013 1820.64,553.902 1823.05,555.568 1825.46,555.687 1827.86,554.686 1830.27,555.163 1832.68,554.939 1835.09,555.534 
  1837.5,557.15 1839.91,556.957 1842.32,556.721 1844.72,555.865 1847.13,553.968 1849.54,552.875 1851.95,551.957 1854.36,550.695 1856.77,550.779 1859.18,550.414 
  1861.58,549.653 1863.99,550.138 1866.4,549.375 1868.81,548.911 1871.22,548.316 1873.63,549.293 1876.04,549.181 1878.44,549.657 1880.85,551.069 1883.26,551.902 
  1885.67,552.284 1888.08,553.112 1890.49,553.594 1892.9,554.086 1895.3,554.395 1897.71,555.944 1900.12,555.117 1902.53,554.758 1904.94,554.667 1907.35,554.431 
  1909.76,553.042 1912.16,551.95 1914.57,552.208 1916.98,551.671 1919.39,550.495 1921.8,549.369 1924.21,547.909 1926.62,546.661 1929.02,545.818 1931.43,545.372 
  1933.84,545.213 1936.25,545.387 1938.66,546.014 1941.07,546.242 1943.48,547.942 1945.88,549.106 1948.29,550.06 1950.7,551.286 1953.11,552.513 1955.52,553.579 
  1957.93,554.459 1960.34,554.781 1962.74,554.876 1965.15,554.16 1967.56,554.096 1969.97,554.059 1972.38,553.747 1974.79,553.634 1977.2,553.695 1979.6,553.336 
  1982.01,551.684 1984.42,551.718 1986.83,550.806 1989.24,551.427 1991.65,550.67 1994.06,550.293 1996.46,549.968 1998.87,549.284 2001.28,548.929 2003.69,548.803 
  2006.1,548.736 2008.51,548.454 2010.92,547.774 2013.32,547.138 2015.73,547.549 2018.14,547.547 2020.55,547.68 2022.96,549.085 2025.37,549.346 2027.78,550.219 
  2030.18,550.649 2032.59,552.325 2035,552.817 2037.41,554.121 2039.82,554.78 2042.23,556.053 2044.64,556.282 2047.04,555.904 2049.45,555.3 2051.86,555.692 
  2054.27,554.506 2056.68,553.013 2059.09,552.199 2061.5,550.817 2063.9,549.285 2066.31,548.37 2068.72,547.866 2071.13,546.469 2073.54,545.776 2075.95,546.224 
  2078.36,546.692 2080.76,545.995 2083.17,547.703 2085.58,547.786 2087.99,548.503 2090.4,547.873 2092.81,547.8 2095.22,548.068 2097.62,547.737 2100.03,549.268 
  2102.44,551.334 2104.85,552.709 2107.26,553.614 2109.67,554.839 2112.08,555.431 2114.48,555.596 2116.89,555.97 2119.3,556.324 2121.71,556.073 2124.12,556.911 
  2126.53,558.251 2128.94,557.867 2131.34,558.318 2133.75,559.032 2136.16,558.459 2138.57,558.467 2140.98,557.603 2143.39,556.023 2145.8,555.066 2148.2,554.994 
  2150.61,554.221 2153.02,552.191 2155.43,549.97 2157.84,549.357 2160.25,548.008 2162.66,547.289 2165.06,547.33 2167.47,545.904 2169.88,545.851 2172.29,545.738 
  2174.7,545.234 2177.11,545.448 2179.52,545.73 2181.92,546.028 2184.33,546.314 2186.74,546.441 2189.15,546.386 2191.56,547.083 2193.97,547.974 2196.38,548.584 
  2198.78,551.749 2201.19,553.297 2203.6,554.414 2206.01,555.076 2208.42,556.933 2210.83,557.6 2213.24,557.366 2215.64,557.425 2218.05,558.076 2220.46,556.962 
  2222.87,556.967 2225.28,555.972 2227.69,554.299 2230.1,553.986 2232.5,554.922 2234.91,554.058 2237.32,551.947 2239.73,550.421 2242.14,548.827 2244.55,547.141 
  2246.96,546.297 2249.36,545.589 2251.77,545.454 2254.18,545.432 2256.59,545.889 2259,545.378 2261.41,545.646 2263.82,546.029 2266.22,546.644 2268.63,546.735 
  2271.04,548.801 2273.45,548.815 2275.86,549.162 2278.27,551.19 2280.68,552.21 2283.08,553.417 2285.49,554.063 2287.9,553.437 2290.31,554.447 2292.72,554.933 
  2295.13,554.689 2297.54,554.166 2299.94,554.015 2302.35,554.198 2304.76,553.775 2307.17,553.689 2309.58,553.658 2311.99,553.081 2314.4,552.976 2316.8,552.638 
  2319.21,552.088 2321.62,551.439 2324.03,551.772 2326.44,550.559 2328.85,551.058 2331.26,550.863 2333.66,551.51 2336.07,552.501 2338.48,552.738 2340.89,552.919 
  2343.3,552.882 2345.71,552.999 2348.12,553.142 2350.52,553.968 2352.93,554.22 2355.34,554.272 2357.75,555.255 2360.16,554.838 2362.57,554.974 2364.98,554.132 
  2367.38,553.438 2369.79,553.779 2372.2,554.06 2374.61,552.738 2377.02,552.573 2379.43,551.531 2381.84,551.62 2384.24,550.812 2386.65,550.2 2389.06,550.359 
  2391.47,549.659 2393.88,549.593 2396.29,549.104 2398.7,548.979 2401.1,547.725 2403.51,548.063 2405.92,548.337 2408.33,547.751 2410.74,547.618 2413.15,548.132 
  2415.56,549.095 2417.96,548.208 2420.37,548.805 2422.78,547.974 2425.19,548.988 2427.6,549.763 2430.01,550.159 2432.42,550.563 2434.82,551.342 2437.23,551.403 
  2439.64,552.085 2442.05,552.639 2444.46,554.935 2446.87,553.779 2449.28,554.378 2451.68,554.542 2454.09,554.272 2456.5,554.118 2458.91,553.478 2461.32,553.364 
  2463.73,552.502 2466.14,551.992 2468.54,551.981 2470.95,550.99 2473.36,549.753 2475.77,550.036 2478.18,550.184 2480.59,549.468 2483,550.265 2485.4,550.75 
  2487.81,551.156 2490.22,552.43 2492.63,552.665 2495.04,553.102 2497.45,552.75 2499.86,552.171 2502.26,551.068 2504.67,550.896 2507.08,549.948 2509.49,550.327 
  2511.9,549.45 2514.31,549.89 2516.72,550.722 2519.12,552.335 2521.53,552.353 2523.94,553.101 2526.35,552.436 2528.76,551.797 2531.17,551.399 2533.58,551.568 
  2535.98,551.488 2538.39,552.27 2540.8,552.815 2543.21,552.163 2545.62,552.579 2548.03,553.415 2550.44,553.874 2552.84,554.338 2555.25,553.937 2557.66,554.529 
  2560.07,555.353 2562.48,554.989 2564.89,554.752 2567.3,554.002 2569.7,552.034 2572.11,551.277 2574.52,551.12 2576.93,549.919 2579.34,548.428 2581.75,548.486 
  2584.16,547.855 2586.56,547.387 2588.97,547.294 2591.38,547.024 2593.79,546.576 2596.2,546.23 2598.61,546.952 2601.02,546.905 2603.42,546.301 2605.83,546.945 
  2608.24,546.667 2610.65,547.364 2613.06,548.159 2615.47,550.56 2617.88,550.042 2620.28,551.134 2622.69,551.921 2625.1,553.033 2627.51,553.839 2629.92,553.091 
  2632.33,553.254 2634.74,553.244 2637.14,552.216 2639.55,552.015 2641.96,551.322 2644.37,551.251 2646.78,552.176 2649.19,552.309 2651.6,551.152 2654,551.231 
  2656.41,550.781 2658.82,550.756 2661.23,551.48 2663.64,552.315 2666.05,552.76 2668.46,553.289 2670.86,553.22 2673.27,553.938 2675.68,554.756 2678.09,555.333 
  2680.5,555.259 
  "/>
<polyline clip-path="url(#clip942)" style="stroke:#e26f46; stroke-width:8; stroke-opacity:1; fill:none" points="
  271.928,437.95 274.336,582.367 276.745,660.791 279.153,689.846 281.562,684.621 283.97,657.004 286.379,614.91 288.788,564.688 291.196,510.18 293.605,456.462 
  296.013,406.102 298.422,361.778 300.83,327.272 303.239,303.44 305.648,293.251 308.056,296.012 310.465,309.904 312.873,335.895 315.282,372.971 317.69,419.015 
  320.099,472.554 322.508,530.821 324.916,592.952 327.325,654.829 329.733,715.474 332.142,772.344 334.55,822.07 336.959,863.774 339.368,896.689 341.776,919.588 
  344.185,932.4 346.593,934.023 349.002,924.532 351.41,905.381 353.819,876.283 356.228,837.447 358.636,791.513 361.045,740.567 363.453,687.322 365.862,631.944 
  368.27,576.756 370.679,524.025 373.088,476.139 375.496,434.244 377.905,400.073 380.313,374.483 382.722,359.679 385.13,353.703 387.539,357.252 389.948,370.84 
  392.356,391.586 394.765,420.533 397.173,456.745 399.582,496.047 401.99,538.743 404.399,583.715 406.808,628.311 409.216,671.035 411.625,711.163 414.033,746.255 
  416.442,775.137 418.85,796.44 421.259,812.347 423.668,820.376 426.076,820.119 428.485,812.372 430.893,797.24 433.302,776.844 435.71,749.914 438.119,718.223 
  440.528,683.516 442.936,647.795 445.345,610.843 447.753,575.295 450.162,541.718 452.57,511.956 454.979,485.665 457.388,464.024 459.796,448.706 462.205,441.2 
  464.613,437.772 467.022,440.708 469.43,450.429 471.839,465.922 474.248,485.855 476.656,509.202 479.065,536.216 481.473,564.212 483.882,593.924 486.29,623.914 
  488.699,651.417 491.108,677.466 493.516,700.203 495.925,718.629 498.333,733.592 500.742,743.944 503.15,746.993 505.559,747.131 507.968,741.425 510.376,730.284 
  512.785,715.126 515.193,697.455 517.602,675.7 520.01,653.234 522.419,629.673 524.827,604.056 527.236,579.092 529.645,555.962 532.053,536.483 534.462,519.377 
  536.87,505.579 539.279,495.926 541.687,490.093 544.096,488.877 546.505,492.362 548.913,500.301 551.322,510.645 553.73,524.99 556.139,541.894 558.547,561.363 
  560.956,582.063 563.365,602.082 565.773,621.427 568.182,640.631 570.59,657.917 572.999,673.48 575.407,685.579 577.816,694.2 580.225,699.722 582.633,701.746 
  585.042,700.793 587.45,696.162 589.859,688.006 592.267,677.516 594.676,664.569 597.085,649.925 599.493,634.337 601.902,618.28 604.31,601.262 606.719,585.683 
  609.127,569.932 611.536,555.317 613.945,543.096 616.353,535.337 618.762,529.528 621.17,525.934 623.579,526.083 625.987,529.06 628.396,534.816 630.805,543.489 
  633.213,553.144 635.622,565.376 638.03,578.452 640.439,591.186 642.847,604.827 645.256,618.794 647.665,631.459 650.073,642.767 652.482,651.955 654.89,660.403 
  657.299,665.977 659.707,668.657 662.116,670.346 664.525,668.879 666.933,665.586 669.342,659.958 671.75,653.102 674.159,644.148 676.567,634.544 678.976,623.744 
  681.385,612.563 683.793,600.584 686.202,589.06 688.61,580.654 691.019,571.91 693.427,563.689 695.836,557.42 698.245,553.499 700.653,550.848 703.062,551.279 
  705.47,553.576 707.879,557.904 710.287,562.97 712.696,569.354 715.105,577.658 717.513,586.079 719.922,596.357 722.33,605.524 724.739,615.437 727.147,624.136 
  729.556,630.196 731.965,636.857 734.373,642.504 736.782,647.633 739.19,650.28 741.599,650.996 744.007,650.587 746.416,648.047 748.825,643.443 751.233,638.928 
  753.642,632.194 756.05,625.718 758.459,618.925 760.867,611.921 763.276,603.482 765.685,595.986 768.093,587.91 770.502,581.341 772.91,576.015 775.319,572.445 
  777.727,568.902 780.136,568.053 782.545,568.493 784.953,569.6 787.362,571.362 789.77,575.123 792.179,579.864 794.587,586.017 796.996,592.017 799.405,598.225 
  801.813,604.669 804.222,612.392 806.63,618.673 809.039,625.502 811.447,630.417 813.856,634.683 816.265,636.802 818.673,637.501 821.082,638.86 823.49,637.585 
  825.899,636.33 828.307,632.679 830.716,628.431 833.125,623.36 835.533,617.172 837.942,611.17 840.35,605.028 842.759,599.079 845.167,593.823 847.576,588.234 
  849.985,584.121 852.393,581.697 854.802,578.828 857.21,576.389 859.619,576.875 862.027,577.176 864.436,579.019 866.845,583.096 869.253,586.514 871.662,590.885 
  874.07,596.516 876.479,600.372 878.887,605.609 881.296,611.469 883.705,616.328 886.113,619.883 888.522,622.698 890.93,625.894 893.339,627.341 895.747,628.653 
  898.156,628.52 900.565,628.515 902.973,626.934 905.382,625.166 907.79,622.198 910.199,619.964 912.607,615.806 915.016,612.611 917.425,609.989 919.833,607.2 
  922.242,603.69 924.65,600.461 927.059,597.04 929.467,593.843 931.876,591.925 934.285,589.481 936.693,588.341 939.102,587.463 941.51,587.642 943.919,587.302 
  946.327,588.217 948.736,590.774 951.145,594.33 953.553,597.577 955.962,599.93 958.37,602.394 960.779,605.74 963.187,609.322 965.596,613.221 968.005,615.083 
  970.413,616.002 972.822,617.074 975.23,618.02 977.639,618.26 980.047,618.525 982.456,618.455 984.865,617.289 987.273,616.33 989.682,614.716 992.09,612.269 
  994.499,610.432 996.907,608.578 999.316,607.011 1001.72,604.171 1004.13,602.835 1006.54,602.369 1008.95,600.624 1011.36,599.329 1013.77,597.822 1016.18,597.658 
  1018.58,596.965 1020.99,597.115 1023.4,597.168 1025.81,597.936 1028.22,598.403 1030.63,599.798 1033.04,602.215 1035.44,604.046 1037.85,606.214 1040.26,608.021 
  1042.67,609.933 1045.08,611.396 1047.49,612.364 1049.9,614.062 1052.3,614.709 1054.71,615.247 1057.12,615.641 1059.53,615.554 1061.94,615.84 1064.35,614.6 
  1066.76,613.499 1069.16,611.525 1071.57,609.81 1073.98,608.291 1076.39,606.021 1078.8,604.71 1081.21,603.041 1083.62,602.594 1086.02,600.797 1088.43,599.649 
  1090.84,598.219 1093.25,597.008 1095.66,596.494 1098.07,597.408 1100.48,598.393 1102.88,598.655 1105.29,598.982 1107.7,600.541 1110.11,600.488 1112.52,602.315 
  1114.93,602.746 1117.34,604.348 1119.74,604.798 1122.15,607.346 1124.56,609.089 1126.97,610.263 1129.38,611.58 1131.79,612.292 1134.2,612.731 1136.6,613.46 
  1139.01,613.69 1141.42,612.844 1143.83,612.907 1146.24,612.566 1148.65,611.321 1151.06,611.062 1153.46,610.719 1155.87,610.176 1158.28,608.6 1160.69,607.192 
  1163.1,605.76 1165.51,604.376 1167.92,603.306 1170.32,602.309 1172.73,601.546 1175.14,600.34 1177.55,599.276 1179.96,599.35 1182.37,600.253 1184.78,600.838 
  1187.18,600.683 1189.59,600.439 1192,600.384 1194.41,600.928 1196.82,602.163 1199.23,603.008 1201.64,605.357 1204.04,605.937 1206.45,608.076 1208.86,609.925 
  1211.27,611.747 1213.68,613.809 1216.09,614.413 1218.5,615.201 1220.9,615.17 1223.31,614.578 1225.72,614.644 1228.13,613.834 1230.54,614.367 1232.95,613.272 
  1235.36,610.906 1237.76,609.847 1240.17,607.72 1242.58,606.367 1244.99,603.744 1247.4,602.325 1249.81,601.066 1252.22,600.768 1254.62,600.785 1257.03,600.032 
  1259.44,599.261 1261.85,599.819 1264.26,601.028 1266.67,601.28 1269.08,601.905 1271.48,602.436 1273.89,602.599 1276.3,603.388 1278.71,604.318 1281.12,604.539 
  1283.53,605.847 1285.94,606.869 1288.34,608.585 1290.75,609.393 1293.16,610.044 1295.57,610.731 1297.98,610.111 1300.39,611.711 1302.8,612.64 1305.2,613.414 
  1307.61,613.441 1310.02,612.16 1312.43,611.722 1314.84,610.347 1317.25,608.846 1319.66,607.888 1322.06,606.788 1324.47,606.282 1326.88,604.888 1329.29,603.698 
  1331.7,602.791 1334.11,602.515 1336.52,602.864 1338.92,602.809 1341.33,603.443 1343.74,602.472 1346.15,602.254 1348.56,600.932 1350.97,601.889 1353.38,602.073 
  1355.78,602.933 1358.19,603.771 1360.6,605.003 1363.01,606.683 1365.42,607.68 1367.83,607.998 1370.24,608.277 1372.64,608.284 1375.05,609.512 1377.46,610.254 
  1379.87,609.397 1382.28,610.116 1384.69,611.288 1387.1,610.631 1389.5,610.365 1391.91,609.946 1394.32,609.59 1396.73,609.323 1399.14,608.042 1401.55,608.032 
  1403.96,607.454 1406.36,606.756 1408.77,605.978 1411.18,604.543 1413.59,604.199 1416,603.017 1418.41,602.577 1420.82,602.328 1423.22,601.56 1425.63,602.088 
  1428.04,601.99 1430.45,601.873 1432.86,602.838 1435.27,603.859 1437.68,604.144 1440.08,603.975 1442.49,604.736 1444.9,604.75 1447.31,606.224 1449.72,607.077 
  1452.13,607.655 1454.54,607.892 1456.94,607.237 1459.35,607.308 1461.76,607.641 1464.17,608.07 1466.58,607.834 1468.99,608.58 1471.4,607.474 1473.8,607.532 
  1476.21,607.014 1478.62,607.078 1481.03,607.592 1483.44,607.585 1485.85,607.343 1488.26,608.56 1490.66,607.805 1493.07,608.264 1495.48,606.919 1497.89,607.27 
  1500.3,606.644 1502.71,605.591 1505.12,605.872 1507.52,605.376 1509.93,603.034 1512.34,602.492 1514.75,601.553 1517.16,600.889 1519.57,601.128 1521.98,601.775 
  1524.38,601.988 1526.79,602.547 1529.2,604.234 1531.61,606.121 1534.02,606.155 1536.43,606.864 1538.84,607.621 1541.24,609.106 1543.65,610.027 1546.06,610.68 
  1548.47,610.262 1550.88,611.186 1553.29,612.142 1555.7,612.629 1558.1,612.598 1560.51,611.207 1562.92,610.889 1565.33,609.92 1567.74,608.815 1570.15,608.538 
  1572.56,607.519 1574.96,606.883 1577.37,605.463 1579.78,605.306 1582.19,604.1 1584.6,602.629 1587.01,601.247 1589.42,601.267 1591.82,600.886 1594.23,600.583 
  1596.64,601.407 1599.05,602.166 1601.46,601.902 1603.87,601.574 1606.28,602.554 1608.68,603.962 1611.09,605.703 1613.5,607.471 1615.91,607.827 1618.32,608.528 
  1620.73,609.409 1623.14,609.193 1625.54,609.966 1627.95,610.409 1630.36,610.31 1632.77,610.713 1635.18,611.701 1637.59,611.874 1640,611.276 1642.4,610.902 
  1644.81,609.449 1647.22,609.511 1649.63,608.558 1652.04,608.608 1654.45,606.718 1656.86,605.139 1659.26,603.94 1661.67,603.322 1664.08,603.594 1666.49,602.753 
  1668.9,601.651 1671.31,601.151 1673.72,601.395 1676.12,602.588 1678.53,603.517 1680.94,604.573 1683.35,605.28 1685.76,606.037 1688.17,607.472 1690.58,608.08 
  1692.98,607.954 1695.39,608.276 1697.8,608.907 1700.21,609.275 1702.62,608.915 1705.03,608.716 1707.44,609.188 1709.84,608.845 1712.25,608.35 1714.66,608.503 
  1717.07,607.895 1719.48,607.035 1721.89,606.049 1724.3,605.169 1726.7,605.061 1729.11,606.052 1731.52,605.907 1733.93,606.641 1736.34,606.57 1738.75,604.652 
  1741.16,605.544 1743.56,605.9 1745.97,606.54 1748.38,606.409 1750.79,605.213 1753.2,606.053 1755.61,605.551 1758.02,606.083 1760.42,607.11 1762.83,606.111 
  1765.24,606.834 1767.65,607.646 1770.06,607.795 1772.47,607.558 1774.88,608.387 1777.28,607.836 1779.69,608.244 1782.1,608.175 1784.51,606.309 1786.92,606.854 
  1789.33,606.006 1791.74,605.209 1794.14,605.222 1796.55,605.847 1798.96,604.582 1801.37,604.194 1803.78,604.267 1806.19,602.581 1808.6,603.246 1811,603.081 
  1813.41,603.166 1815.82,603.675 1818.23,603.663 1820.64,604.191 1823.05,604.566 1825.46,605.503 1827.86,606.773 1830.27,606.635 1832.68,607.424 1835.09,606.668 
  1837.5,606.776 1839.91,607.716 1842.32,608.506 1844.72,608.013 1847.13,608.756 1849.54,608.761 1851.95,608.663 1854.36,608.831 1856.77,607.909 1859.18,607.866 
  1861.58,606.613 1863.99,606.152 1866.4,606.191 1868.81,604.678 1871.22,604.929 1873.63,604.825 1876.04,605.29 1878.44,604.558 1880.85,604.472 1883.26,605.181 
  1885.67,605.607 1888.08,606.116 1890.49,606.5 1892.9,606.916 1895.3,607.862 1897.71,607.009 1900.12,607.639 1902.53,607.285 1904.94,607.328 1907.35,608.117 
  1909.76,607.684 1912.16,607.022 1914.57,606.671 1916.98,606.877 1919.39,605.475 1921.8,605.972 1924.21,606.301 1926.62,604.787 1929.02,604.745 1931.43,603.728 
  1933.84,603.613 1936.25,603.006 1938.66,602.582 1941.07,603.154 1943.48,602.519 1945.88,602.136 1948.29,602.63 1950.7,602.821 1953.11,603.653 1955.52,603.722 
  1957.93,604.755 1960.34,605.541 1962.74,606.37 1965.15,607.667 1967.56,607.676 1969.97,607.925 1972.38,607.569 1974.79,607.379 1977.2,607.752 1979.6,608.301 
  1982.01,609.586 1984.42,609.262 1986.83,609.147 1989.24,608.031 1991.65,607.762 1994.06,608.384 1996.46,607.316 1998.87,607.339 2001.28,606.876 2003.69,605.52 
  2006.1,605.029 2008.51,604.908 2010.92,603.185 2013.32,602.569 2015.73,602.252 2018.14,602.235 2020.55,601.513 2022.96,601.42 2025.37,602.493 2027.78,603.5 
  2030.18,604.254 2032.59,604.592 2035,605.191 2037.41,605.595 2039.82,606.768 2042.23,606.783 2044.64,607.986 2047.04,609.286 2049.45,609.805 2051.86,610.606 
  2054.27,610.799 2056.68,610.551 2059.09,610.059 2061.5,608.845 2063.9,608.567 2066.31,607.18 2068.72,606.065 2071.13,605.85 2073.54,605.363 2075.95,605.222 
  2078.36,604.501 2080.76,603.639 2083.17,602.785 2085.58,603.071 2087.99,603.804 2090.4,603.91 2092.81,604.077 2095.22,603.979 2097.62,603.833 2100.03,604.374 
  2102.44,604.333 2104.85,604.069 2107.26,604.708 2109.67,605.975 2112.08,607.274 2114.48,607.401 2116.89,607.991 2119.3,608.809 2121.71,609.411 2124.12,608.932 
  2126.53,607.992 2128.94,607.97 2131.34,608.274 2133.75,608.658 2136.16,609.548 2138.57,610.363 2140.98,611.394 2143.39,612.468 2145.8,612.492 2148.2,611.426 
  2150.61,609.998 2153.02,610.239 2155.43,609.338 2157.84,608.212 2160.25,607.433 2162.66,605.979 2165.06,604.958 2167.47,604.877 2169.88,604.419 2172.29,603.439 
  2174.7,602.939 2177.11,602.799 2179.52,602.662 2181.92,602.514 2184.33,602.547 2186.74,602.863 2189.15,603.129 2191.56,603.123 2193.97,603.432 2196.38,603.619 
  2198.78,603.134 2201.19,604.746 2203.6,605.42 2206.01,606.101 2208.42,606.676 2210.83,606.84 2213.24,608.688 2215.64,609.539 2218.05,609.409 2220.46,610.962 
  2222.87,610.061 2225.28,609.809 2227.69,610.166 2230.1,610.196 2232.5,609.546 2234.91,609.421 2237.32,609.549 2239.73,609.063 2242.14,607.937 2244.55,608.114 
  2246.96,606.801 2249.36,605.285 2251.77,604.778 2254.18,603.672 2256.59,604.492 2259,605.76 2261.41,604.677 2263.82,603.922 2266.22,603.938 2268.63,603.456 
  2271.04,601.915 2273.45,602.638 2275.86,603.618 2278.27,603.32 2280.68,603.899 2283.08,604.84 2285.49,605.679 2287.9,606.832 2290.31,607.865 2292.72,608.144 
  2295.13,608.922 2297.54,608.718 2299.94,609.501 2302.35,609.659 2304.76,609.632 2307.17,608.901 2309.58,608.924 2311.99,608.491 2314.4,608.734 2316.8,608.277 
  2319.21,607.892 2321.62,607.117 2324.03,606.509 2326.44,606.306 2328.85,606.279 2331.26,606.465 2333.66,605.982 2336.07,605.217 2338.48,605.538 2340.89,605.945 
  2343.3,605.989 2345.71,606.296 2348.12,606.239 2350.52,605.214 2352.93,605.931 2355.34,606.816 2357.75,607.159 2360.16,608.214 2362.57,608.563 2364.98,608.952 
  2367.38,608.174 2369.79,608.951 2372.2,608.194 2374.61,609.065 2377.02,607.674 2379.43,608.289 2381.84,608.309 2384.24,607.053 2386.65,607.072 2389.06,606.865 
  2391.47,607.076 2393.88,606.454 2396.29,606.264 2398.7,605.124 2401.1,604.972 2403.51,605.014 2405.92,604.281 2408.33,603.972 2410.74,603.994 2413.15,603.185 
  2415.56,602.886 2417.96,603.718 2420.37,602.946 2422.78,603.842 2425.19,603.109 2427.6,603.25 2430.01,603.483 2432.42,604.554 2434.82,604.924 2437.23,605.254 
  2439.64,606.154 2442.05,606.622 2444.46,606.675 2446.87,607.938 2449.28,607.907 2451.68,608.432 2454.09,608.843 2456.5,608.515 2458.91,608.419 2461.32,608.429 
  2463.73,608.766 2466.14,608.798 2468.54,607.499 2470.95,607.4 2473.36,607.555 2475.77,606.508 2478.18,607.122 2480.59,606.568 2483,605.606 2485.4,605.103 
  2487.81,604.161 2490.22,604.326 2492.63,604.872 2495.04,605.061 2497.45,605.926 2499.86,606.447 2502.26,606.154 2504.67,606.552 2507.08,606.47 2509.49,605.248 
  2511.9,605.521 2514.31,605.497 2516.72,605.604 2519.12,604.763 2521.53,605.424 2523.94,605.528 2526.35,606.205 2528.76,606.1 2531.17,606.982 2533.58,607.079 
  2535.98,606.299 2538.39,605.711 2540.8,605.232 2543.21,604.889 2545.62,604.762 2548.03,605.161 2550.44,605.252 2552.84,605.292 2555.25,606.644 2557.66,607.844 
  2560.07,608.614 2562.48,609.182 2564.89,608.969 2567.3,608.893 2569.7,608.669 2572.11,608.513 2574.52,608.141 2576.93,607.988 2579.34,607.721 2581.75,607.232 
  2584.16,606.798 2586.56,605.739 2588.97,605.406 2591.38,606.002 2593.79,605.568 2596.2,606.065 2598.61,605.163 2601.02,605.1 2603.42,604.982 2605.83,603.8 
  2608.24,603.147 2610.65,603.169 2613.06,603.405 2615.47,603.927 2617.88,604.966 2620.28,605.689 2622.69,605.776 2625.1,605.423 2627.51,605.834 2629.92,606.464 
  2632.33,606.412 2634.74,606.656 2637.14,606.538 2639.55,606.77 2641.96,607.374 2644.37,605.938 2646.78,604.882 2649.19,604.173 2651.6,604.788 2654,605.27 
  2656.41,605.28 2658.82,605.605 2661.23,606.425 2663.64,606.058 2666.05,607.242 2668.46,606.378 2670.86,606.695 2673.27,606.587 2675.68,606.746 2678.09,607.324 
  2680.5,607.809 
  "/>
<path clip-path="url(#clip940)" d="
M2171.27 335.419 L2667.65 335.419 L2667.65 93.4995 L2171.27 93.4995  Z
  " fill="#ffffff" fill-rule="evenodd" fill-opacity="1"/>
<polyline clip-path="url(#clip940)" style="stroke:#000000; stroke-width:4; stroke-opacity:1; fill:none" points="
  2171.27,335.419 2667.65,335.419 2667.65,93.4995 2171.27,93.4995 2171.27,335.419 
  "/>
<polyline clip-path="url(#clip940)" style="stroke:#009af9; stroke-width:4; stroke-opacity:1; fill:none" points="
  2199.64,153.979 2369.84,153.979 
  "/>
<path clip-path="url(#clip940)" d="M 0 0 M2402.49 167.371 L2402.49 181.121 L2398.21 181.121 L2398.21 145.334 L2402.49 145.334 L2402.49 149.269 Q2403.84 146.954 2405.87 145.843 Q2407.93 144.709 2410.78 144.709 Q2415.5 144.709 2418.44 148.459 Q2421.4 152.209 2421.4 158.32 Q2421.4 164.431 2418.44 168.181 Q2415.5 171.931 2410.78 171.931 Q2407.93 171.931 2405.87 170.82 Q2403.84 169.685 2402.49 167.371 M2416.98 158.32 Q2416.98 153.621 2415.04 150.959 Q2413.12 148.273 2409.74 148.273 Q2406.36 148.273 2404.41 150.959 Q2402.49 153.621 2402.49 158.32 Q2402.49 163.019 2404.41 165.704 Q2406.36 168.366 2409.74 168.366 Q2413.12 168.366 2415.04 165.704 Q2416.98 163.019 2416.98 158.32 Z" fill="#000000" fill-rule="evenodd" fill-opacity="1" /><path clip-path="url(#clip940)" d="M 0 0 M2426.52 136.699 L2444.88 136.699 L2444.88 140.635 L2430.8 140.635 L2430.8 149.107 Q2431.82 148.76 2432.84 148.598 Q2433.86 148.412 2434.88 148.412 Q2440.66 148.412 2444.04 151.584 Q2447.42 154.755 2447.42 160.172 Q2447.42 165.75 2443.95 168.852 Q2440.48 171.931 2434.16 171.931 Q2431.98 171.931 2429.72 171.56 Q2427.47 171.19 2425.06 170.449 L2425.06 165.75 Q2427.15 166.885 2429.37 167.44 Q2431.59 167.996 2434.07 167.996 Q2438.07 167.996 2440.41 165.889 Q2442.75 163.783 2442.75 160.172 Q2442.75 156.56 2440.41 154.454 Q2438.07 152.348 2434.07 152.348 Q2432.19 152.348 2430.32 152.764 Q2428.47 153.181 2426.52 154.06 L2426.52 136.699 Z" fill="#000000" fill-rule="evenodd" fill-opacity="1" /><path clip-path="url(#clip940)" d="M 0 0 M2466.66 152.625 Q2470.02 153.343 2471.89 155.611 Q2473.79 157.88 2473.79 161.213 Q2473.79 166.329 2470.27 169.13 Q2466.75 171.931 2460.27 171.931 Q2458.09 171.931 2455.78 171.491 Q2453.49 171.074 2451.03 170.218 L2451.03 165.704 Q2452.98 166.838 2455.29 167.417 Q2457.61 167.996 2460.13 167.996 Q2464.53 167.996 2466.82 166.26 Q2469.14 164.523 2469.14 161.213 Q2469.14 158.158 2466.98 156.445 Q2464.85 154.709 2461.03 154.709 L2457.01 154.709 L2457.01 150.866 L2461.22 150.866 Q2464.67 150.866 2466.5 149.5 Q2468.33 148.111 2468.33 145.519 Q2468.33 142.857 2466.43 141.445 Q2464.55 140.01 2461.03 140.01 Q2459.11 140.01 2456.91 140.426 Q2454.71 140.843 2452.08 141.723 L2452.08 137.556 Q2454.74 136.815 2457.05 136.445 Q2459.39 136.074 2461.45 136.074 Q2466.78 136.074 2469.88 138.505 Q2472.98 140.912 2472.98 145.033 Q2472.98 147.903 2471.34 149.894 Q2469.69 151.861 2466.66 152.625 Z" fill="#000000" fill-rule="evenodd" fill-opacity="1" /><polyline clip-path="url(#clip940)" style="stroke:#3da44d; stroke-width:4; stroke-opacity:1; fill:none" points="
  2199.64,214.459 2369.84,214.459 
  "/>
<path clip-path="url(#clip940)" d="M 0 0 M2402.49 227.851 L2402.49 241.601 L2398.21 241.601 L2398.21 205.814 L2402.49 205.814 L2402.49 209.749 Q2403.84 207.434 2405.87 206.323 Q2407.93 205.189 2410.78 205.189 Q2415.5 205.189 2418.44 208.939 Q2421.4 212.689 2421.4 218.8 Q2421.4 224.911 2418.44 228.661 Q2415.5 232.411 2410.78 232.411 Q2407.93 232.411 2405.87 231.3 Q2403.84 230.165 2402.49 227.851 M2416.98 218.8 Q2416.98 214.101 2415.04 211.439 Q2413.12 208.753 2409.74 208.753 Q2406.36 208.753 2404.41 211.439 Q2402.49 214.101 2402.49 218.8 Q2402.49 223.499 2404.41 226.184 Q2406.36 228.846 2409.74 228.846 Q2413.12 228.846 2415.04 226.184 Q2416.98 223.499 2416.98 218.8 Z" fill="#000000" fill-rule="evenodd" fill-opacity="1" /><path clip-path="url(#clip940)" d="M 0 0 M2440.9 209.795 Q2440.18 209.378 2439.32 209.193 Q2438.49 208.985 2437.47 208.985 Q2433.86 208.985 2431.91 211.346 Q2429.99 213.684 2429.99 218.082 L2429.99 231.739 L2425.71 231.739 L2425.71 205.814 L2429.99 205.814 L2429.99 209.841 Q2431.34 207.48 2433.49 206.346 Q2435.64 205.189 2438.72 205.189 Q2439.16 205.189 2439.69 205.258 Q2440.22 205.304 2440.87 205.42 L2440.9 209.795 Z" fill="#000000" fill-rule="evenodd" fill-opacity="1" /><path clip-path="url(#clip940)" d="M 0 0 M2466.5 217.712 L2466.5 219.795 L2446.91 219.795 Q2447.19 224.193 2449.55 226.508 Q2451.94 228.8 2456.17 228.8 Q2458.63 228.8 2460.92 228.198 Q2463.23 227.596 2465.5 226.392 L2465.5 230.42 Q2463.21 231.392 2460.8 231.902 Q2458.4 232.411 2455.92 232.411 Q2449.71 232.411 2446.08 228.8 Q2442.47 225.189 2442.47 219.031 Q2442.47 212.666 2445.9 208.939 Q2449.34 205.189 2455.18 205.189 Q2460.41 205.189 2463.44 208.568 Q2466.5 211.925 2466.5 217.712 M2462.24 216.462 Q2462.19 212.966 2460.27 210.883 Q2458.37 208.8 2455.22 208.8 Q2451.66 208.8 2449.51 210.814 Q2447.38 212.828 2447.05 216.485 L2462.24 216.462 Z" fill="#000000" fill-rule="evenodd" fill-opacity="1" /><path clip-path="url(#clip940)" d="M 0 0 M2468.81 216.855 L2481.29 216.855 L2481.29 220.652 L2468.81 220.652 L2468.81 216.855 Z" fill="#000000" fill-rule="evenodd" fill-opacity="1" /><path clip-path="url(#clip940)" d="M 0 0 M2485.94 197.179 L2492.91 197.179 L2501.73 220.698 L2510.59 197.179 L2517.56 197.179 L2517.56 231.739 L2513 231.739 L2513 201.392 L2504.09 225.096 L2499.39 225.096 L2490.48 201.392 L2490.48 231.739 L2485.94 231.739 L2485.94 197.179 Z" fill="#000000" fill-rule="evenodd" fill-opacity="1" /><path clip-path="url(#clip940)" d="M 0 0 M2539.09 209.749 L2539.09 195.721 L2543.35 195.721 L2543.35 231.739 L2539.09 231.739 L2539.09 227.851 Q2537.75 230.165 2535.69 231.3 Q2533.65 232.411 2530.78 232.411 Q2526.08 232.411 2523.12 228.661 Q2520.18 224.911 2520.18 218.8 Q2520.18 212.689 2523.12 208.939 Q2526.08 205.189 2530.78 205.189 Q2533.65 205.189 2535.69 206.323 Q2537.75 207.434 2539.09 209.749 M2524.58 218.8 Q2524.58 223.499 2526.5 226.184 Q2528.44 228.846 2531.82 228.846 Q2535.2 228.846 2537.15 226.184 Q2539.09 223.499 2539.09 218.8 Q2539.09 214.101 2537.15 211.439 Q2535.2 208.753 2531.82 208.753 Q2528.44 208.753 2526.5 211.439 Q2524.58 214.101 2524.58 218.8 Z" fill="#000000" fill-rule="evenodd" fill-opacity="1" /><path clip-path="url(#clip940)" d="M 0 0 M2568 210.791 Q2569.6 207.92 2571.82 206.554 Q2574.04 205.189 2577.05 205.189 Q2581.1 205.189 2583.3 208.036 Q2585.5 210.86 2585.5 216.091 L2585.5 231.739 L2581.22 231.739 L2581.22 216.23 Q2581.22 212.503 2579.9 210.698 Q2578.58 208.892 2575.87 208.892 Q2572.56 208.892 2570.64 211.091 Q2568.72 213.291 2568.72 217.087 L2568.72 231.739 L2564.44 231.739 L2564.44 216.23 Q2564.44 212.48 2563.12 210.698 Q2561.8 208.892 2559.04 208.892 Q2555.78 208.892 2553.86 211.115 Q2551.94 213.314 2551.94 217.087 L2551.94 231.739 L2547.65 231.739 L2547.65 205.814 L2551.94 205.814 L2551.94 209.841 Q2553.39 207.457 2555.43 206.323 Q2557.47 205.189 2560.27 205.189 Q2563.09 205.189 2565.06 206.624 Q2567.05 208.059 2568 210.791 Z" fill="#000000" fill-rule="evenodd" fill-opacity="1" /><path clip-path="url(#clip940)" d="M 0 0 M2594.6 227.804 L2610.92 227.804 L2610.92 231.739 L2588.97 231.739 L2588.97 227.804 Q2591.64 225.05 2596.22 220.42 Q2600.83 215.767 2602.01 214.425 Q2604.25 211.902 2605.13 210.166 Q2606.03 208.406 2606.03 206.716 Q2606.03 203.962 2604.09 202.226 Q2602.17 200.49 2599.07 200.49 Q2596.87 200.49 2594.41 201.254 Q2591.98 202.017 2589.2 203.568 L2589.2 198.846 Q2592.03 197.712 2594.48 197.133 Q2596.94 196.554 2598.97 196.554 Q2604.34 196.554 2607.54 199.24 Q2610.73 201.925 2610.73 206.416 Q2610.73 208.545 2609.92 210.466 Q2609.14 212.365 2607.03 214.957 Q2606.45 215.628 2603.35 218.846 Q2600.25 222.04 2594.6 227.804 Z" fill="#000000" fill-rule="evenodd" fill-opacity="1" /><polyline clip-path="url(#clip940)" style="stroke:#e26f46; stroke-width:4; stroke-opacity:1; fill:none" points="
  2199.64,274.939 2369.84,274.939 
  "/>
<path clip-path="url(#clip940)" d="M 0 0 M2398.21 257.659 L2405.18 257.659 L2414 281.178 L2422.86 257.659 L2429.83 257.659 L2429.83 292.219 L2425.27 292.219 L2425.27 261.872 L2416.36 285.576 L2411.66 285.576 L2402.75 261.872 L2402.75 292.219 L2398.21 292.219 L2398.21 257.659 Z" fill="#000000" fill-rule="evenodd" fill-opacity="1" /><path clip-path="url(#clip940)" d="M 0 0 M2451.36 270.229 L2451.36 256.201 L2455.62 256.201 L2455.62 292.219 L2451.36 292.219 L2451.36 288.331 Q2450.02 290.645 2447.96 291.78 Q2445.92 292.891 2443.05 292.891 Q2438.35 292.891 2435.39 289.141 Q2432.45 285.391 2432.45 279.28 Q2432.45 273.169 2435.39 269.419 Q2438.35 265.669 2443.05 265.669 Q2445.92 265.669 2447.96 266.803 Q2450.02 267.914 2451.36 270.229 M2436.84 279.28 Q2436.84 283.979 2438.77 286.664 Q2440.71 289.326 2444.09 289.326 Q2447.47 289.326 2449.41 286.664 Q2451.36 283.979 2451.36 279.28 Q2451.36 274.581 2449.41 271.919 Q2447.47 269.233 2444.09 269.233 Q2440.71 269.233 2438.77 271.919 Q2436.84 274.581 2436.84 279.28 Z" fill="#000000" fill-rule="evenodd" fill-opacity="1" /><path clip-path="url(#clip940)" d="M 0 0 M2480.27 271.271 Q2481.87 268.4 2484.09 267.034 Q2486.31 265.669 2489.32 265.669 Q2493.37 265.669 2495.57 268.516 Q2497.77 271.34 2497.77 276.571 L2497.77 292.219 L2493.49 292.219 L2493.49 276.71 Q2493.49 272.983 2492.17 271.178 Q2490.85 269.372 2488.14 269.372 Q2484.83 269.372 2482.91 271.571 Q2480.99 273.771 2480.99 277.567 L2480.99 292.219 L2476.71 292.219 L2476.71 276.71 Q2476.71 272.96 2475.39 271.178 Q2474.07 269.372 2471.31 269.372 Q2468.05 269.372 2466.13 271.595 Q2464.21 273.794 2464.21 277.567 L2464.21 292.219 L2459.92 292.219 L2459.92 266.294 L2464.21 266.294 L2464.21 270.321 Q2465.66 267.937 2467.7 266.803 Q2469.74 265.669 2472.54 265.669 Q2475.36 265.669 2477.33 267.104 Q2479.32 268.539 2480.27 271.271 Z" fill="#000000" fill-rule="evenodd" fill-opacity="1" /><path clip-path="url(#clip940)" d="M 0 0 M2506.87 288.284 L2523.19 288.284 L2523.19 292.219 L2501.24 292.219 L2501.24 288.284 Q2503.9 285.53 2508.49 280.9 Q2513.09 276.247 2514.27 274.905 Q2516.52 272.382 2517.4 270.646 Q2518.3 268.886 2518.3 267.196 Q2518.3 264.442 2516.36 262.706 Q2514.44 260.97 2511.34 260.97 Q2509.14 260.97 2506.68 261.734 Q2504.25 262.497 2501.47 264.048 L2501.47 259.326 Q2504.3 258.192 2506.75 257.613 Q2509.21 257.034 2511.24 257.034 Q2516.61 257.034 2519.81 259.72 Q2523 262.405 2523 266.896 Q2523 269.025 2522.19 270.946 Q2521.4 272.845 2519.3 275.437 Q2518.72 276.108 2515.62 279.326 Q2512.52 282.52 2506.87 288.284 Z" fill="#000000" fill-rule="evenodd" fill-opacity="1" /></svg>
