<?xml version="1.0" encoding="utf-8"?>
<svg xmlns="http://www.w3.org/2000/svg" xmlns:xlink="http://www.w3.org/1999/xlink" width="600" height="400" viewBox="0 0 2400 1600">
<defs>
  <clipPath id="clip730">
    <rect x="0" y="0" width="2400" height="1600"/>
  </clipPath>
</defs>
<path clip-path="url(#clip730)" d="
M0 1600 L2400 1600 L2400 0 L0 0  Z
  " fill="#ffffff" fill-rule="evenodd" fill-opacity="1"/>
<defs>
  <clipPath id="clip731">
    <rect x="480" y="0" width="1681" height="1600"/>
  </clipPath>
</defs>
<path clip-path="url(#clip730)" d="
M193.218 1423.18 L2352.76 1423.18 L2352.76 47.2441 L193.218 47.2441  Z
  " fill="#ffffff" fill-rule="evenodd" fill-opacity="1"/>
<defs>
  <clipPath id="clip732">
    <rect x="193" y="47" width="2161" height="1377"/>
  </clipPath>
</defs>
<polyline clip-path="url(#clip732)" style="stroke:#000000; stroke-width:2; stroke-opacity:0.1; fill:none" points="
  193.218,1423.18 193.218,47.2441 
  "/>
<polyline clip-path="url(#clip732)" style="stroke:#000000; stroke-width:2; stroke-opacity:0.1; fill:none" points="
  625.126,1423.18 625.126,47.2441 
  "/>
<polyline clip-path="url(#clip732)" style="stroke:#000000; stroke-width:2; stroke-opacity:0.1; fill:none" points="
  1057.03,1423.18 1057.03,47.2441 
  "/>
<polyline clip-path="url(#clip732)" style="stroke:#000000; stroke-width:2; stroke-opacity:0.1; fill:none" points="
  1488.94,1423.18 1488.94,47.2441 
  "/>
<polyline clip-path="url(#clip732)" style="stroke:#000000; stroke-width:2; stroke-opacity:0.1; fill:none" points="
  1920.85,1423.18 1920.85,47.2441 
  "/>
<polyline clip-path="url(#clip732)" style="stroke:#000000; stroke-width:2; stroke-opacity:0.1; fill:none" points="
  2352.76,1423.18 2352.76,47.2441 
  "/>
<polyline clip-path="url(#clip730)" style="stroke:#000000; stroke-width:4; stroke-opacity:1; fill:none" points="
  193.218,1423.18 2352.76,1423.18 
  "/>
<polyline clip-path="url(#clip730)" style="stroke:#000000; stroke-width:4; stroke-opacity:1; fill:none" points="
  193.218,1423.18 193.218,1406.67 
  "/>
<polyline clip-path="url(#clip730)" style="stroke:#000000; stroke-width:4; stroke-opacity:1; fill:none" points="
  625.126,1423.18 625.126,1406.67 
  "/>
<polyline clip-path="url(#clip730)" style="stroke:#000000; stroke-width:4; stroke-opacity:1; fill:none" points="
  1057.03,1423.18 1057.03,1406.67 
  "/>
<polyline clip-path="url(#clip730)" style="stroke:#000000; stroke-width:4; stroke-opacity:1; fill:none" points="
  1488.94,1423.18 1488.94,1406.67 
  "/>
<polyline clip-path="url(#clip730)" style="stroke:#000000; stroke-width:4; stroke-opacity:1; fill:none" points="
  1920.85,1423.18 1920.85,1406.67 
  "/>
<polyline clip-path="url(#clip730)" style="stroke:#000000; stroke-width:4; stroke-opacity:1; fill:none" points="
  2352.76,1423.18 2352.76,1406.67 
  "/>
<path clip-path="url(#clip730)" d="M 0 0 M193.218 1452.37 Q189.607 1452.37 187.779 1455.94 Q185.973 1459.48 185.973 1466.61 Q185.973 1473.71 187.779 1477.28 Q189.607 1480.82 193.218 1480.82 Q196.853 1480.82 198.658 1477.28 Q200.487 1473.71 200.487 1466.61 Q200.487 1459.48 198.658 1455.94 Q196.853 1452.37 193.218 1452.37 M193.218 1448.67 Q199.029 1448.67 202.084 1453.27 Q205.163 1457.86 205.163 1466.61 Q205.163 1475.33 202.084 1479.94 Q199.029 1484.52 193.218 1484.52 Q187.408 1484.52 184.33 1479.94 Q181.274 1475.33 181.274 1466.61 Q181.274 1457.86 184.33 1453.27 Q187.408 1448.67 193.218 1448.67 Z" fill="#000000" fill-rule="evenodd" fill-opacity="1" /><path clip-path="url(#clip730)" d="M 0 0 M606.272 1479.92 L622.591 1479.92 L622.591 1483.85 L600.647 1483.85 L600.647 1479.92 Q603.309 1477.16 607.892 1472.53 Q612.499 1467.88 613.679 1466.54 Q615.925 1464.01 616.804 1462.28 Q617.707 1460.52 617.707 1458.83 Q617.707 1456.07 615.763 1454.34 Q613.841 1452.6 610.739 1452.6 Q608.54 1452.6 606.087 1453.37 Q603.656 1454.13 600.878 1455.68 L600.878 1450.96 Q603.702 1449.82 606.156 1449.25 Q608.61 1448.67 610.647 1448.67 Q616.017 1448.67 619.212 1451.35 Q622.406 1454.04 622.406 1458.53 Q622.406 1460.66 621.596 1462.58 Q620.809 1464.48 618.702 1467.07 Q618.124 1467.74 615.022 1470.96 Q611.92 1474.15 606.272 1479.92 Z" fill="#000000" fill-rule="evenodd" fill-opacity="1" /><path clip-path="url(#clip730)" d="M 0 0 M637.661 1452.37 Q634.049 1452.37 632.221 1455.94 Q630.415 1459.48 630.415 1466.61 Q630.415 1473.71 632.221 1477.28 Q634.049 1480.82 637.661 1480.82 Q641.295 1480.82 643.1 1477.28 Q644.929 1473.71 644.929 1466.61 Q644.929 1459.48 643.1 1455.94 Q641.295 1452.37 637.661 1452.37 M637.661 1448.67 Q643.471 1448.67 646.526 1453.27 Q649.605 1457.86 649.605 1466.61 Q649.605 1475.33 646.526 1479.94 Q643.471 1484.52 637.661 1484.52 Q631.85 1484.52 628.772 1479.94 Q625.716 1475.33 625.716 1466.61 Q625.716 1457.86 628.772 1453.27 Q631.85 1448.67 637.661 1448.67 Z" fill="#000000" fill-rule="evenodd" fill-opacity="1" /><path clip-path="url(#clip730)" d="M 0 0 M1046.54 1453.37 L1034.73 1471.81 L1046.54 1471.81 L1046.54 1453.37 M1045.31 1449.29 L1051.19 1449.29 L1051.19 1471.81 L1056.12 1471.81 L1056.12 1475.7 L1051.19 1475.7 L1051.19 1483.85 L1046.54 1483.85 L1046.54 1475.7 L1030.93 1475.7 L1030.93 1471.19 L1045.31 1449.29 Z" fill="#000000" fill-rule="evenodd" fill-opacity="1" /><path clip-path="url(#clip730)" d="M 0 0 M1071.19 1452.37 Q1067.58 1452.37 1065.75 1455.94 Q1063.94 1459.48 1063.94 1466.61 Q1063.94 1473.71 1065.75 1477.28 Q1067.58 1480.82 1071.19 1480.82 Q1074.82 1480.82 1076.63 1477.28 Q1078.46 1473.71 1078.46 1466.61 Q1078.46 1459.48 1076.63 1455.94 Q1074.82 1452.37 1071.19 1452.37 M1071.19 1448.67 Q1077 1448.67 1080.05 1453.27 Q1083.13 1457.86 1083.13 1466.61 Q1083.13 1475.33 1080.05 1479.94 Q1077 1484.52 1071.19 1484.52 Q1065.38 1484.52 1062.3 1479.94 Q1059.24 1475.33 1059.24 1466.61 Q1059.24 1457.86 1062.3 1453.27 Q1065.38 1448.67 1071.19 1448.67 Z" fill="#000000" fill-rule="evenodd" fill-opacity="1" /><path clip-path="url(#clip730)" d="M 0 0 M1475.84 1464.71 Q1472.69 1464.71 1470.84 1466.86 Q1469.01 1469.01 1469.01 1472.76 Q1469.01 1476.49 1470.84 1478.67 Q1472.69 1480.82 1475.84 1480.82 Q1478.99 1480.82 1480.82 1478.67 Q1482.67 1476.49 1482.67 1472.76 Q1482.67 1469.01 1480.82 1466.86 Q1478.99 1464.71 1475.84 1464.71 M1485.12 1450.06 L1485.12 1454.31 Q1483.36 1453.48 1481.56 1453.04 Q1479.77 1452.6 1478.02 1452.6 Q1473.39 1452.6 1470.93 1455.73 Q1468.5 1458.85 1468.15 1465.17 Q1469.52 1463.16 1471.58 1462.09 Q1473.64 1461 1476.12 1461 Q1481.33 1461 1484.33 1464.18 Q1487.37 1467.32 1487.37 1472.76 Q1487.37 1478.09 1484.22 1481.31 Q1481.07 1484.52 1475.84 1484.52 Q1469.84 1484.52 1466.67 1479.94 Q1463.5 1475.33 1463.5 1466.61 Q1463.5 1458.41 1467.39 1453.55 Q1471.28 1448.67 1477.83 1448.67 Q1479.59 1448.67 1481.37 1449.01 Q1483.18 1449.36 1485.12 1450.06 Z" fill="#000000" fill-rule="evenodd" fill-opacity="1" /><path clip-path="url(#clip730)" d="M 0 0 M1502.44 1452.37 Q1498.83 1452.37 1497 1455.94 Q1495.19 1459.48 1495.19 1466.61 Q1495.19 1473.71 1497 1477.28 Q1498.83 1480.82 1502.44 1480.82 Q1506.07 1480.82 1507.88 1477.28 Q1509.7 1473.71 1509.7 1466.61 Q1509.7 1459.48 1507.88 1455.94 Q1506.07 1452.37 1502.44 1452.37 M1502.44 1448.67 Q1508.25 1448.67 1511.3 1453.27 Q1514.38 1457.86 1514.38 1466.61 Q1514.38 1475.33 1511.3 1479.94 Q1508.25 1484.52 1502.44 1484.52 Q1496.63 1484.52 1493.55 1479.94 Q1490.49 1475.33 1490.49 1466.61 Q1490.49 1457.86 1493.55 1453.27 Q1496.63 1448.67 1502.44 1448.67 Z" fill="#000000" fill-rule="evenodd" fill-opacity="1" /><path clip-path="url(#clip730)" d="M 0 0 M1907.34 1467.44 Q1904.01 1467.44 1902.09 1469.22 Q1900.19 1471 1900.19 1474.13 Q1900.19 1477.25 1902.09 1479.04 Q1904.01 1480.82 1907.34 1480.82 Q1910.67 1480.82 1912.6 1479.04 Q1914.52 1477.23 1914.52 1474.13 Q1914.52 1471 1912.6 1469.22 Q1910.7 1467.44 1907.34 1467.44 M1902.67 1465.45 Q1899.66 1464.71 1897.97 1462.65 Q1896.3 1460.59 1896.3 1457.63 Q1896.3 1453.48 1899.24 1451.07 Q1902.2 1448.67 1907.34 1448.67 Q1912.5 1448.67 1915.44 1451.07 Q1918.38 1453.48 1918.38 1457.63 Q1918.38 1460.59 1916.69 1462.65 Q1915.03 1464.71 1912.04 1465.45 Q1915.42 1466.24 1917.3 1468.53 Q1919.19 1470.82 1919.19 1474.13 Q1919.19 1479.15 1916.11 1481.84 Q1913.06 1484.52 1907.34 1484.52 Q1901.62 1484.52 1898.55 1481.84 Q1895.49 1479.15 1895.49 1474.13 Q1895.49 1470.82 1897.39 1468.53 Q1899.29 1466.24 1902.67 1465.45 M1900.95 1458.06 Q1900.95 1460.75 1902.62 1462.25 Q1904.31 1463.76 1907.34 1463.76 Q1910.35 1463.76 1912.04 1462.25 Q1913.75 1460.75 1913.75 1458.06 Q1913.75 1455.38 1912.04 1453.88 Q1910.35 1452.37 1907.34 1452.37 Q1904.31 1452.37 1902.62 1453.88 Q1900.95 1455.38 1900.95 1458.06 Z" fill="#000000" fill-rule="evenodd" fill-opacity="1" /><path clip-path="url(#clip730)" d="M 0 0 M1934.26 1452.37 Q1930.65 1452.37 1928.82 1455.94 Q1927.02 1459.48 1927.02 1466.61 Q1927.02 1473.71 1928.82 1477.28 Q1930.65 1480.82 1934.26 1480.82 Q1937.9 1480.82 1939.7 1477.28 Q1941.53 1473.71 1941.53 1466.61 Q1941.53 1459.48 1939.7 1455.94 Q1937.9 1452.37 1934.26 1452.37 M1934.26 1448.67 Q1940.07 1448.67 1943.13 1453.27 Q1946.21 1457.86 1946.21 1466.61 Q1946.21 1475.33 1943.13 1479.94 Q1940.07 1484.52 1934.26 1484.52 Q1928.45 1484.52 1925.37 1479.94 Q1922.32 1475.33 1922.32 1466.61 Q1922.32 1457.86 1925.37 1453.27 Q1928.45 1448.67 1934.26 1448.67 Z" fill="#000000" fill-rule="evenodd" fill-opacity="1" /><path clip-path="url(#clip730)" d="M 0 0 M2316.12 1479.92 L2323.76 1479.92 L2323.76 1453.55 L2315.45 1455.22 L2315.45 1450.96 L2323.72 1449.29 L2328.39 1449.29 L2328.39 1479.92 L2336.03 1479.92 L2336.03 1483.85 L2316.12 1483.85 L2316.12 1479.92 Z" fill="#000000" fill-rule="evenodd" fill-opacity="1" /><path clip-path="url(#clip730)" d="M 0 0 M2351.1 1452.37 Q2347.49 1452.37 2345.66 1455.94 Q2343.86 1459.48 2343.86 1466.61 Q2343.86 1473.71 2345.66 1477.28 Q2347.49 1480.82 2351.1 1480.82 Q2354.74 1480.82 2356.54 1477.28 Q2358.37 1473.71 2358.37 1466.61 Q2358.37 1459.48 2356.54 1455.94 Q2354.74 1452.37 2351.1 1452.37 M2351.1 1448.67 Q2356.91 1448.67 2359.97 1453.27 Q2363.05 1457.86 2363.05 1466.61 Q2363.05 1475.33 2359.97 1479.94 Q2356.91 1484.52 2351.1 1484.52 Q2345.29 1484.52 2342.21 1479.94 Q2339.16 1475.33 2339.16 1466.61 Q2339.16 1457.86 2342.21 1453.27 Q2345.29 1448.67 2351.1 1448.67 Z" fill="#000000" fill-rule="evenodd" fill-opacity="1" /><path clip-path="url(#clip730)" d="M 0 0 M2378.11 1452.37 Q2374.5 1452.37 2372.67 1455.94 Q2370.87 1459.48 2370.87 1466.61 Q2370.87 1473.71 2372.67 1477.28 Q2374.5 1480.82 2378.11 1480.82 Q2381.75 1480.82 2383.55 1477.28 Q2385.38 1473.71 2385.38 1466.61 Q2385.38 1459.48 2383.55 1455.94 Q2381.75 1452.37 2378.11 1452.37 M2378.11 1448.67 Q2383.92 1448.67 2386.98 1453.27 Q2390.06 1457.86 2390.06 1466.61 Q2390.06 1475.33 2386.98 1479.94 Q2383.92 1484.52 2378.11 1484.52 Q2372.3 1484.52 2369.23 1479.94 Q2366.17 1475.33 2366.17 1466.61 Q2366.17 1457.86 2369.23 1453.27 Q2372.3 1448.67 2378.11 1448.67 Z" fill="#000000" fill-rule="evenodd" fill-opacity="1" /><path clip-path="url(#clip730)" d="M 0 0 M1272.05 1522.27 L1272.05 1532.4 L1284.11 1532.4 L1284.11 1536.95 L1272.05 1536.95 L1272.05 1556.3 Q1272.05 1560.66 1273.23 1561.9 Q1274.44 1563.14 1278.1 1563.14 L1284.11 1563.14 L1284.11 1568.04 L1278.1 1568.04 Q1271.32 1568.04 1268.74 1565.53 Q1266.16 1562.98 1266.16 1556.3 L1266.16 1536.95 L1261.86 1536.95 L1261.86 1532.4 L1266.16 1532.4 L1266.16 1522.27 L1272.05 1522.27 Z" fill="#000000" fill-rule="evenodd" fill-opacity="1" /><polyline clip-path="url(#clip732)" style="stroke:#000000; stroke-width:2; stroke-opacity:0.1; fill:none" points="
  193.218,1384.47 2352.76,1384.47 
  "/>
<polyline clip-path="url(#clip732)" style="stroke:#000000; stroke-width:2; stroke-opacity:0.1; fill:none" points="
  193.218,1149.34 2352.76,1149.34 
  "/>
<polyline clip-path="url(#clip732)" style="stroke:#000000; stroke-width:2; stroke-opacity:0.1; fill:none" points="
  193.218,914.204 2352.76,914.204 
  "/>
<polyline clip-path="url(#clip732)" style="stroke:#000000; stroke-width:2; stroke-opacity:0.1; fill:none" points="
  193.218,679.069 2352.76,679.069 
  "/>
<polyline clip-path="url(#clip732)" style="stroke:#000000; stroke-width:2; stroke-opacity:0.1; fill:none" points="
  193.218,443.934 2352.76,443.934 
  "/>
<polyline clip-path="url(#clip732)" style="stroke:#000000; stroke-width:2; stroke-opacity:0.1; fill:none" points="
  193.218,208.799 2352.76,208.799 
  "/>
<polyline clip-path="url(#clip730)" style="stroke:#000000; stroke-width:4; stroke-opacity:1; fill:none" points="
  193.218,1423.18 193.218,47.2441 
  "/>
<polyline clip-path="url(#clip730)" style="stroke:#000000; stroke-width:4; stroke-opacity:1; fill:none" points="
  193.218,1384.47 219.133,1384.47 
  "/>
<polyline clip-path="url(#clip730)" style="stroke:#000000; stroke-width:4; stroke-opacity:1; fill:none" points="
  193.218,1149.34 219.133,1149.34 
  "/>
<polyline clip-path="url(#clip730)" style="stroke:#000000; stroke-width:4; stroke-opacity:1; fill:none" points="
  193.218,914.204 219.133,914.204 
  "/>
<polyline clip-path="url(#clip730)" style="stroke:#000000; stroke-width:4; stroke-opacity:1; fill:none" points="
  193.218,679.069 219.133,679.069 
  "/>
<polyline clip-path="url(#clip730)" style="stroke:#000000; stroke-width:4; stroke-opacity:1; fill:none" points="
  193.218,443.934 219.133,443.934 
  "/>
<polyline clip-path="url(#clip730)" style="stroke:#000000; stroke-width:4; stroke-opacity:1; fill:none" points="
  193.218,208.799 219.133,208.799 
  "/>
<path clip-path="url(#clip730)" d="M 0 0 M145.274 1370.27 Q141.663 1370.27 139.834 1373.84 Q138.029 1377.38 138.029 1384.51 Q138.029 1391.61 139.834 1395.18 Q141.663 1398.72 145.274 1398.72 Q148.908 1398.72 150.714 1395.18 Q152.543 1391.61 152.543 1384.51 Q152.543 1377.38 150.714 1373.84 Q148.908 1370.27 145.274 1370.27 M145.274 1366.57 Q151.084 1366.57 154.14 1371.17 Q157.218 1375.76 157.218 1384.51 Q157.218 1393.23 154.14 1397.84 Q151.084 1402.42 145.274 1402.42 Q139.464 1402.42 136.385 1397.84 Q133.33 1393.23 133.33 1384.51 Q133.33 1375.76 136.385 1371.17 Q139.464 1366.57 145.274 1366.57 Z" fill="#000000" fill-rule="evenodd" fill-opacity="1" /><path clip-path="url(#clip730)" d="M 0 0 M56.2699 1162.68 L63.9087 1162.68 L63.9087 1136.32 L55.5986 1137.98 L55.5986 1133.73 L63.8624 1132.06 L68.5383 1132.06 L68.5383 1162.68 L76.1772 1162.68 L76.1772 1166.62 L56.2699 1166.62 L56.2699 1162.68 Z" fill="#000000" fill-rule="evenodd" fill-opacity="1" /><path clip-path="url(#clip730)" d="M 0 0 M91.2465 1135.14 Q87.6354 1135.14 85.8068 1138.7 Q84.0012 1142.24 84.0012 1149.37 Q84.0012 1156.48 85.8068 1160.04 Q87.6354 1163.59 91.2465 1163.59 Q94.8808 1163.59 96.6863 1160.04 Q98.515 1156.48 98.515 1149.37 Q98.515 1142.24 96.6863 1138.7 Q94.8808 1135.14 91.2465 1135.14 M91.2465 1131.43 Q97.0567 1131.43 100.112 1136.04 Q103.191 1140.62 103.191 1149.37 Q103.191 1158.1 100.112 1162.71 Q97.0567 1167.29 91.2465 1167.29 Q85.4364 1167.29 82.3577 1162.71 Q79.3022 1158.1 79.3022 1149.37 Q79.3022 1140.62 82.3577 1136.04 Q85.4364 1131.43 91.2465 1131.43 Z" fill="#000000" fill-rule="evenodd" fill-opacity="1" /><path clip-path="url(#clip730)" d="M 0 0 M118.26 1135.14 Q114.649 1135.14 112.82 1138.7 Q111.015 1142.24 111.015 1149.37 Q111.015 1156.48 112.82 1160.04 Q114.649 1163.59 118.26 1163.59 Q121.895 1163.59 123.7 1160.04 Q125.529 1156.48 125.529 1149.37 Q125.529 1142.24 123.7 1138.7 Q121.895 1135.14 118.26 1135.14 M118.26 1131.43 Q124.07 1131.43 127.126 1136.04 Q130.205 1140.62 130.205 1149.37 Q130.205 1158.1 127.126 1162.71 Q124.07 1167.29 118.26 1167.29 Q112.45 1167.29 109.371 1162.71 Q106.316 1158.1 106.316 1149.37 Q106.316 1140.62 109.371 1136.04 Q112.45 1131.43 118.26 1131.43 Z" fill="#000000" fill-rule="evenodd" fill-opacity="1" /><path clip-path="url(#clip730)" d="M 0 0 M145.274 1135.14 Q141.663 1135.14 139.834 1138.7 Q138.029 1142.24 138.029 1149.37 Q138.029 1156.48 139.834 1160.04 Q141.663 1163.59 145.274 1163.59 Q148.908 1163.59 150.714 1160.04 Q152.543 1156.48 152.543 1149.37 Q152.543 1142.24 150.714 1138.7 Q148.908 1135.14 145.274 1135.14 M145.274 1131.43 Q151.084 1131.43 154.14 1136.04 Q157.218 1140.62 157.218 1149.37 Q157.218 1158.1 154.14 1162.71 Q151.084 1167.29 145.274 1167.29 Q139.464 1167.29 136.385 1162.71 Q133.33 1158.1 133.33 1149.37 Q133.33 1140.62 136.385 1136.04 Q139.464 1131.43 145.274 1131.43 Z" fill="#000000" fill-rule="evenodd" fill-opacity="1" /><path clip-path="url(#clip730)" d="M 0 0 M59.8578 927.548 L76.1772 927.548 L76.1772 931.484 L54.2328 931.484 L54.2328 927.548 Q56.8949 924.794 61.4782 920.164 Q66.0846 915.511 67.2652 914.169 Q69.5105 911.646 70.3902 909.91 Q71.2929 908.15 71.2929 906.461 Q71.2929 903.706 69.3485 901.97 Q67.4272 900.234 64.3254 900.234 Q62.1263 900.234 59.6726 900.998 Q57.2421 901.762 54.4643 903.312 L54.4643 898.59 Q57.2884 897.456 59.7421 896.877 Q62.1958 896.299 64.2328 896.299 Q69.6031 896.299 72.7976 898.984 Q75.992 901.669 75.992 906.16 Q75.992 908.289 75.1818 910.211 Q74.3948 912.109 72.2883 914.701 Q71.7096 915.373 68.6078 918.59 Q65.5059 921.785 59.8578 927.548 Z" fill="#000000" fill-rule="evenodd" fill-opacity="1" /><path clip-path="url(#clip730)" d="M 0 0 M91.2465 900.002 Q87.6354 900.002 85.8068 903.567 Q84.0012 907.109 84.0012 914.238 Q84.0012 921.345 85.8068 924.91 Q87.6354 928.451 91.2465 928.451 Q94.8808 928.451 96.6863 924.91 Q98.515 921.345 98.515 914.238 Q98.515 907.109 96.6863 903.567 Q94.8808 900.002 91.2465 900.002 M91.2465 896.299 Q97.0567 896.299 100.112 900.905 Q103.191 905.488 103.191 914.238 Q103.191 922.965 100.112 927.572 Q97.0567 932.155 91.2465 932.155 Q85.4364 932.155 82.3577 927.572 Q79.3022 922.965 79.3022 914.238 Q79.3022 905.488 82.3577 900.905 Q85.4364 896.299 91.2465 896.299 Z" fill="#000000" fill-rule="evenodd" fill-opacity="1" /><path clip-path="url(#clip730)" d="M 0 0 M118.26 900.002 Q114.649 900.002 112.82 903.567 Q111.015 907.109 111.015 914.238 Q111.015 921.345 112.82 924.91 Q114.649 928.451 118.26 928.451 Q121.895 928.451 123.7 924.91 Q125.529 921.345 125.529 914.238 Q125.529 907.109 123.7 903.567 Q121.895 900.002 118.26 900.002 M118.26 896.299 Q124.07 896.299 127.126 900.905 Q130.205 905.488 130.205 914.238 Q130.205 922.965 127.126 927.572 Q124.07 932.155 118.26 932.155 Q112.45 932.155 109.371 927.572 Q106.316 922.965 106.316 914.238 Q106.316 905.488 109.371 900.905 Q112.45 896.299 118.26 896.299 Z" fill="#000000" fill-rule="evenodd" fill-opacity="1" /><path clip-path="url(#clip730)" d="M 0 0 M145.274 900.002 Q141.663 900.002 139.834 903.567 Q138.029 907.109 138.029 914.238 Q138.029 921.345 139.834 924.91 Q141.663 928.451 145.274 928.451 Q148.908 928.451 150.714 924.91 Q152.543 921.345 152.543 914.238 Q152.543 907.109 150.714 903.567 Q148.908 900.002 145.274 900.002 M145.274 896.299 Q151.084 896.299 154.14 900.905 Q157.218 905.488 157.218 914.238 Q157.218 922.965 154.14 927.572 Q151.084 932.155 145.274 932.155 Q139.464 932.155 136.385 927.572 Q133.33 922.965 133.33 914.238 Q133.33 905.488 136.385 900.905 Q139.464 896.299 145.274 896.299 Z" fill="#000000" fill-rule="evenodd" fill-opacity="1" /><path clip-path="url(#clip730)" d="M 0 0 M69.0476 677.715 Q72.404 678.432 74.279 680.701 Q76.1772 682.969 76.1772 686.302 Q76.1772 691.418 72.6587 694.219 Q69.1402 697.02 62.6587 697.02 Q60.4828 697.02 58.168 696.58 Q55.8764 696.164 53.4227 695.307 L53.4227 690.793 Q55.3671 691.927 57.6819 692.506 Q59.9967 693.085 62.5198 693.085 Q66.918 693.085 69.2096 691.349 Q71.5244 689.613 71.5244 686.302 Q71.5244 683.247 69.3717 681.534 Q67.242 679.798 63.4226 679.798 L59.3949 679.798 L59.3949 675.955 L63.6078 675.955 Q67.0569 675.955 68.8855 674.59 Q70.7142 673.201 70.7142 670.608 Q70.7142 667.946 68.8161 666.534 Q66.9411 665.099 63.4226 665.099 Q61.5013 665.099 59.3023 665.516 Q57.1032 665.932 54.4643 666.812 L54.4643 662.645 Q57.1264 661.904 59.4412 661.534 Q61.7791 661.164 63.8393 661.164 Q69.1633 661.164 72.2652 663.594 Q75.367 666.002 75.367 670.122 Q75.367 672.992 73.7235 674.983 Q72.08 676.951 69.0476 677.715 Z" fill="#000000" fill-rule="evenodd" fill-opacity="1" /><path clip-path="url(#clip730)" d="M 0 0 M91.2465 664.867 Q87.6354 664.867 85.8068 668.432 Q84.0012 671.974 84.0012 679.103 Q84.0012 686.21 85.8068 689.775 Q87.6354 693.316 91.2465 693.316 Q94.8808 693.316 96.6863 689.775 Q98.515 686.21 98.515 679.103 Q98.515 671.974 96.6863 668.432 Q94.8808 664.867 91.2465 664.867 M91.2465 661.164 Q97.0567 661.164 100.112 665.77 Q103.191 670.353 103.191 679.103 Q103.191 687.83 100.112 692.437 Q97.0567 697.02 91.2465 697.02 Q85.4364 697.02 82.3577 692.437 Q79.3022 687.83 79.3022 679.103 Q79.3022 670.353 82.3577 665.77 Q85.4364 661.164 91.2465 661.164 Z" fill="#000000" fill-rule="evenodd" fill-opacity="1" /><path clip-path="url(#clip730)" d="M 0 0 M118.26 664.867 Q114.649 664.867 112.82 668.432 Q111.015 671.974 111.015 679.103 Q111.015 686.21 112.82 689.775 Q114.649 693.316 118.26 693.316 Q121.895 693.316 123.7 689.775 Q125.529 686.21 125.529 679.103 Q125.529 671.974 123.7 668.432 Q121.895 664.867 118.26 664.867 M118.26 661.164 Q124.07 661.164 127.126 665.77 Q130.205 670.353 130.205 679.103 Q130.205 687.83 127.126 692.437 Q124.07 697.02 118.26 697.02 Q112.45 697.02 109.371 692.437 Q106.316 687.83 106.316 679.103 Q106.316 670.353 109.371 665.77 Q112.45 661.164 118.26 661.164 Z" fill="#000000" fill-rule="evenodd" fill-opacity="1" /><path clip-path="url(#clip730)" d="M 0 0 M145.274 664.867 Q141.663 664.867 139.834 668.432 Q138.029 671.974 138.029 679.103 Q138.029 686.21 139.834 689.775 Q141.663 693.316 145.274 693.316 Q148.908 693.316 150.714 689.775 Q152.543 686.21 152.543 679.103 Q152.543 671.974 150.714 668.432 Q148.908 664.867 145.274 664.867 M145.274 661.164 Q151.084 661.164 154.14 665.77 Q157.218 670.353 157.218 679.103 Q157.218 687.83 154.14 692.437 Q151.084 697.02 145.274 697.02 Q139.464 697.02 136.385 692.437 Q133.33 687.83 133.33 679.103 Q133.33 670.353 136.385 665.77 Q139.464 661.164 145.274 661.164 Z" fill="#000000" fill-rule="evenodd" fill-opacity="1" /><path clip-path="url(#clip730)" d="M 0 0 M66.5939 430.728 L54.7884 449.177 L66.5939 449.177 L66.5939 430.728 M65.367 426.654 L71.2466 426.654 L71.2466 449.177 L76.1772 449.177 L76.1772 453.066 L71.2466 453.066 L71.2466 461.214 L66.5939 461.214 L66.5939 453.066 L50.9921 453.066 L50.9921 448.552 L65.367 426.654 Z" fill="#000000" fill-rule="evenodd" fill-opacity="1" /><path clip-path="url(#clip730)" d="M 0 0 M91.2465 429.733 Q87.6354 429.733 85.8068 433.297 Q84.0012 436.839 84.0012 443.969 Q84.0012 451.075 85.8068 454.64 Q87.6354 458.181 91.2465 458.181 Q94.8808 458.181 96.6863 454.64 Q98.515 451.075 98.515 443.969 Q98.515 436.839 96.6863 433.297 Q94.8808 429.733 91.2465 429.733 M91.2465 426.029 Q97.0567 426.029 100.112 430.635 Q103.191 435.219 103.191 443.969 Q103.191 452.695 100.112 457.302 Q97.0567 461.885 91.2465 461.885 Q85.4364 461.885 82.3577 457.302 Q79.3022 452.695 79.3022 443.969 Q79.3022 435.219 82.3577 430.635 Q85.4364 426.029 91.2465 426.029 Z" fill="#000000" fill-rule="evenodd" fill-opacity="1" /><path clip-path="url(#clip730)" d="M 0 0 M118.26 429.733 Q114.649 429.733 112.82 433.297 Q111.015 436.839 111.015 443.969 Q111.015 451.075 112.82 454.64 Q114.649 458.181 118.26 458.181 Q121.895 458.181 123.7 454.64 Q125.529 451.075 125.529 443.969 Q125.529 436.839 123.7 433.297 Q121.895 429.733 118.26 429.733 M118.26 426.029 Q124.07 426.029 127.126 430.635 Q130.205 435.219 130.205 443.969 Q130.205 452.695 127.126 457.302 Q124.07 461.885 118.26 461.885 Q112.45 461.885 109.371 457.302 Q106.316 452.695 106.316 443.969 Q106.316 435.219 109.371 430.635 Q112.45 426.029 118.26 426.029 Z" fill="#000000" fill-rule="evenodd" fill-opacity="1" /><path clip-path="url(#clip730)" d="M 0 0 M145.274 429.733 Q141.663 429.733 139.834 433.297 Q138.029 436.839 138.029 443.969 Q138.029 451.075 139.834 454.64 Q141.663 458.181 145.274 458.181 Q148.908 458.181 150.714 454.64 Q152.543 451.075 152.543 443.969 Q152.543 436.839 150.714 433.297 Q148.908 429.733 145.274 429.733 M145.274 426.029 Q151.084 426.029 154.14 430.635 Q157.218 435.219 157.218 443.969 Q157.218 452.695 154.14 457.302 Q151.084 461.885 145.274 461.885 Q139.464 461.885 136.385 457.302 Q133.33 452.695 133.33 443.969 Q133.33 435.219 136.385 430.635 Q139.464 426.029 145.274 426.029 Z" fill="#000000" fill-rule="evenodd" fill-opacity="1" /><path clip-path="url(#clip730)" d="M 0 0 M55.2745 191.519 L73.6309 191.519 L73.6309 195.454 L59.5569 195.454 L59.5569 203.926 Q60.5754 203.579 61.5939 203.417 Q62.6124 203.232 63.6309 203.232 Q69.418 203.232 72.7976 206.403 Q76.1772 209.574 76.1772 214.991 Q76.1772 220.57 72.705 223.672 Q69.2328 226.75 62.9134 226.75 Q60.7374 226.75 58.4689 226.38 Q56.2236 226.009 53.8162 225.269 L53.8162 220.57 Q55.8995 221.704 58.1217 222.259 Q60.3439 222.815 62.8208 222.815 Q66.8254 222.815 69.1633 220.709 Q71.5013 218.602 71.5013 214.991 Q71.5013 211.38 69.1633 209.273 Q66.8254 207.167 62.8208 207.167 Q60.9458 207.167 59.0708 207.584 Q57.2189 208 55.2745 208.88 L55.2745 191.519 Z" fill="#000000" fill-rule="evenodd" fill-opacity="1" /><path clip-path="url(#clip730)" d="M 0 0 M91.2465 194.598 Q87.6354 194.598 85.8068 198.162 Q84.0012 201.704 84.0012 208.834 Q84.0012 215.94 85.8068 219.505 Q87.6354 223.047 91.2465 223.047 Q94.8808 223.047 96.6863 219.505 Q98.515 215.94 98.515 208.834 Q98.515 201.704 96.6863 198.162 Q94.8808 194.598 91.2465 194.598 M91.2465 190.894 Q97.0567 190.894 100.112 195.5 Q103.191 200.084 103.191 208.834 Q103.191 217.56 100.112 222.167 Q97.0567 226.75 91.2465 226.75 Q85.4364 226.75 82.3577 222.167 Q79.3022 217.56 79.3022 208.834 Q79.3022 200.084 82.3577 195.5 Q85.4364 190.894 91.2465 190.894 Z" fill="#000000" fill-rule="evenodd" fill-opacity="1" /><path clip-path="url(#clip730)" d="M 0 0 M118.26 194.598 Q114.649 194.598 112.82 198.162 Q111.015 201.704 111.015 208.834 Q111.015 215.94 112.82 219.505 Q114.649 223.047 118.26 223.047 Q121.895 223.047 123.7 219.505 Q125.529 215.94 125.529 208.834 Q125.529 201.704 123.7 198.162 Q121.895 194.598 118.26 194.598 M118.26 190.894 Q124.07 190.894 127.126 195.5 Q130.205 200.084 130.205 208.834 Q130.205 217.56 127.126 222.167 Q124.07 226.75 118.26 226.75 Q112.45 226.75 109.371 222.167 Q106.316 217.56 106.316 208.834 Q106.316 200.084 109.371 195.5 Q112.45 190.894 118.26 190.894 Z" fill="#000000" fill-rule="evenodd" fill-opacity="1" /><path clip-path="url(#clip730)" d="M 0 0 M145.274 194.598 Q141.663 194.598 139.834 198.162 Q138.029 201.704 138.029 208.834 Q138.029 215.94 139.834 219.505 Q141.663 223.047 145.274 223.047 Q148.908 223.047 150.714 219.505 Q152.543 215.94 152.543 208.834 Q152.543 201.704 150.714 198.162 Q148.908 194.598 145.274 194.598 M145.274 190.894 Q151.084 190.894 154.14 195.5 Q157.218 200.084 157.218 208.834 Q157.218 217.56 154.14 222.167 Q151.084 226.75 145.274 226.75 Q139.464 226.75 136.385 222.167 Q133.33 217.56 133.33 208.834 Q133.33 200.084 136.385 195.5 Q139.464 190.894 145.274 190.894 Z" fill="#000000" fill-rule="evenodd" fill-opacity="1" /><polyline clip-path="url(#clip732)" style="stroke:#009af9; stroke-width:8; stroke-opacity:1; fill:none" points="
  193.218,1384.24 195.378,1382.27 197.537,1380.81 199.697,1379.74 201.857,1378.94 204.016,1378.34 206.176,1377.89 208.335,1377.53 210.495,1377.3 212.654,1377.08 
  214.814,1376.94 216.973,1376.8 219.133,1376.71 221.292,1376.63 223.452,1376.56 225.611,1376.5 227.771,1376.45 229.931,1376.4 232.09,1376.36 234.25,1376.32 
  236.409,1376.28 238.569,1376.25 240.728,1376.21 242.888,1376.18 245.047,1376.15 247.207,1376.11 249.366,1376.08 251.526,1376.04 253.685,1376.01 255.845,1375.98 
  258.005,1375.94 260.164,1375.91 262.324,1375.87 264.483,1375.84 266.643,1375.8 268.802,1375.76 270.962,1375.73 273.121,1375.69 275.281,1375.65 277.44,1375.61 
  279.6,1375.57 281.759,1375.53 283.919,1375.49 286.079,1375.45 288.238,1375.41 290.398,1375.37 292.557,1375.32 294.717,1375.27 296.876,1375.23 299.036,1375.18 
  301.195,1375.13 303.355,1375.09 305.514,1375.04 307.674,1374.99 309.833,1374.94 311.993,1374.89 314.153,1374.83 316.312,1374.78 318.472,1374.72 320.631,1374.67 
  322.791,1374.61 324.95,1374.56 327.11,1374.5 329.269,1374.44 331.429,1374.37 333.588,1374.3 335.748,1374.23 337.907,1374.17 340.067,1374.1 342.226,1374.03 
  344.386,1373.96 346.546,1373.89 348.705,1373.82 350.865,1373.73 353.024,1373.64 355.184,1373.55 357.343,1373.46 359.503,1373.38 361.662,1373.29 363.822,1373.2 
  365.981,1373.11 368.141,1373.01 370.3,1372.89 372.46,1372.76 374.62,1372.64 376.779,1372.52 378.939,1372.39 381.098,1372.27 383.258,1372.15 385.417,1372.02 
  387.577,1371.88 389.736,1371.68 391.896,1371.47 394.055,1371.27 396.215,1371.06 398.374,1370.86 400.534,1370.66 402.694,1370.45 404.853,1370.25 407.013,1370.03 
  409.172,1369.67 411.332,1369.32 413.491,1368.96 415.651,1368.61 417.81,1368.08 419.97,1367.51 422.129,1366.9 424.289,1366.03 426.448,1364.96 428.608,1363.59 
  430.768,1361.62 432.927,1359.22 435.087,1358.11 437.246,1358.87 439.406,1360.2 441.565,1361.54 443.725,1362.74 445.884,1363.76 448.044,1364.66 450.203,1365.46 
  452.363,1366.09 454.522,1366.72 456.682,1367.23 458.842,1367.74 461.001,1368.2 463.161,1368.66 465.32,1369.08 467.48,1369.49 469.639,1369.89 471.799,1370.27 
  473.958,1370.63 476.118,1370.96 478.277,1371.27 480.437,1371.57 482.596,1371.83 484.756,1372.08 486.916,1372.3 489.075,1372.5 491.235,1372.68 493.394,1372.85 
  495.554,1372.99 497.713,1373.13 499.873,1373.24 502.032,1373.35 504.192,1373.43 506.351,1373.52 508.511,1373.59 510.67,1373.65 512.83,1373.71 514.989,1373.76 
  517.149,1373.8 519.309,1373.84 521.468,1373.88 523.628,1373.91 525.787,1373.93 527.947,1373.95 530.106,1373.98 532.266,1374 534.425,1374.01 536.585,1374.03 
  538.744,1374.04 540.904,1374.05 543.063,1374.06 545.223,1374.07 547.383,1374.08 549.542,1374.09 551.702,1374.09 553.861,1374.1 556.021,1374.1 558.18,1374.11 
  560.34,1374.12 562.499,1374.12 564.659,1374.12 566.818,1374.12 568.978,1374.13 571.137,1374.13 573.297,1374.13 575.457,1374.14 577.616,1374.14 579.776,1374.14 
  581.935,1374.14 584.095,1374.15 586.254,1374.15 588.414,1374.15 590.573,1374.15 592.733,1374.15 594.892,1374.15 597.052,1374.16 599.211,1374.16 601.371,1374.16 
  603.531,1374.16 605.69,1374.16 607.85,1374.16 610.009,1374.16 612.169,1374.17 614.328,1374.17 616.488,1374.17 618.647,1374.17 620.807,1374.17 622.966,1374.17 
  625.126,1374.17 627.285,1374.17 629.445,1374.17 631.605,1374.18 633.764,1374.18 635.924,1374.18 638.083,1374.18 640.243,1374.18 642.402,1374.18 644.562,1374.18 
  646.721,1374.18 648.881,1374.18 651.04,1374.18 653.2,1374.18 655.359,1374.19 657.519,1374.19 659.679,1374.19 661.838,1374.19 663.998,1374.19 666.157,1374.19 
  668.317,1374.19 670.476,1374.19 672.636,1374.19 674.795,1374.19 676.955,1374.19 679.114,1374.19 681.274,1374.2 683.433,1374.2 685.593,1374.2 687.752,1374.2 
  689.912,1374.2 692.072,1374.2 694.231,1374.2 696.391,1374.2 698.55,1374.2 700.71,1374.2 702.869,1374.2 705.029,1374.2 707.188,1374.2 709.348,1374.2 
  711.507,1374.2 713.667,1374.21 715.826,1374.21 717.986,1374.21 720.146,1374.21 722.305,1374.21 724.465,1374.21 726.624,1374.21 728.784,1374.21 730.943,1374.21 
  733.103,1374.21 735.262,1374.21 737.422,1374.21 739.581,1374.21 741.741,1374.21 743.9,1374.21 746.06,1374.21 748.22,1374.21 750.379,1374.22 752.539,1374.22 
  754.698,1374.22 756.858,1374.22 759.017,1374.22 761.177,1374.22 763.336,1374.22 765.496,1374.22 767.655,1374.22 769.815,1374.22 771.974,1374.22 774.134,1374.22 
  776.294,1374.22 778.453,1374.22 780.613,1374.22 782.772,1374.22 784.932,1374.22 787.091,1374.22 789.251,1374.22 791.41,1374.22 793.57,1374.22 795.729,1374.22 
  797.889,1374.23 800.048,1374.23 802.208,1374.23 804.368,1374.23 806.527,1374.23 808.687,1374.23 810.846,1374.23 813.006,1374.23 815.165,1374.23 817.325,1374.23 
  819.484,1374.23 821.644,1374.23 823.803,1374.23 825.963,1374.23 828.122,1374.23 830.282,1374.23 832.442,1374.23 834.601,1374.23 836.761,1374.23 838.92,1374.23 
  841.08,1374.23 843.239,1374.23 845.399,1374.23 847.558,1374.23 849.718,1374.23 851.877,1374.23 854.037,1374.24 856.196,1374.24 858.356,1374.24 860.515,1374.24 
  862.675,1374.24 864.835,1374.24 866.994,1374.24 869.154,1374.24 871.313,1374.24 873.473,1374.24 875.632,1374.24 877.792,1374.24 879.951,1374.24 882.111,1374.24 
  884.27,1374.24 886.43,1374.24 888.589,1374.24 890.749,1374.24 892.909,1374.24 895.068,1374.24 897.228,1374.24 899.387,1374.24 901.547,1374.24 903.706,1374.24 
  905.866,1374.24 908.025,1374.24 910.185,1374.24 912.344,1374.24 914.504,1374.24 916.663,1374.24 918.823,1374.24 920.983,1374.24 923.142,1374.24 925.302,1374.24 
  927.461,1374.25 929.621,1374.25 931.78,1374.25 933.94,1374.25 936.099,1374.25 938.259,1374.25 940.418,1374.25 942.578,1374.25 944.737,1374.25 946.897,1374.25 
  949.057,1374.25 951.216,1374.25 953.376,1374.25 955.535,1374.25 957.695,1374.25 959.854,1374.25 962.014,1374.25 964.173,1374.25 966.333,1374.25 968.492,1374.25 
  970.652,1374.25 972.811,1374.25 974.971,1374.25 977.131,1374.25 979.29,1374.25 981.45,1374.25 983.609,1374.25 985.769,1374.25 987.928,1374.25 990.088,1374.25 
  992.247,1374.25 994.407,1374.25 996.566,1374.25 998.726,1374.25 1000.89,1374.25 1003.04,1374.25 1005.2,1374.25 1007.36,1374.25 1009.52,1374.25 1011.68,1374.25 
  1013.84,1374.25 1016,1374.25 1018.16,1374.25 1020.32,1374.25 1022.48,1374.25 1024.64,1374.26 1026.8,1374.26 1028.96,1374.26 1031.12,1374.26 1033.28,1374.26 
  1035.44,1374.26 1037.6,1374.26 1039.76,1374.26 1041.92,1374.26 1044.08,1374.26 1046.24,1374.26 1048.4,1374.26 1050.55,1374.26 1052.71,1374.26 1054.87,1374.26 
  1057.03,1374.26 1059.19,1374.26 1061.35,1374.26 1063.51,1374.26 1065.67,1374.26 1067.83,1374.26 1069.99,1374.26 1072.15,1374.26 1074.31,1374.26 1076.47,1374.26 
  1078.63,1374.26 1080.79,1374.26 1082.95,1374.26 1085.11,1374.26 1087.27,1374.26 1089.43,1374.26 1091.59,1374.26 1093.75,1374.26 1095.91,1374.26 1098.06,1374.26 
  1100.22,1374.26 1102.38,1374.26 1104.54,1374.26 1106.7,1374.26 1108.86,1374.26 1111.02,1374.26 1113.18,1374.26 1115.34,1374.26 1117.5,1374.26 1119.66,1374.26 
  1121.82,1374.26 1123.98,1374.26 1126.14,1374.26 1128.3,1374.26 1130.46,1374.26 1132.62,1374.26 1134.78,1374.26 1136.94,1374.26 1139.1,1374.26 1141.26,1374.26 
  1143.41,1374.26 1145.57,1374.26 1147.73,1374.26 1149.89,1374.26 1152.05,1374.26 1154.21,1374.26 1156.37,1374.26 1158.53,1374.27 1160.69,1374.27 1162.85,1374.27 
  1165.01,1374.27 1167.17,1374.27 1169.33,1374.27 1171.49,1374.27 1173.65,1374.27 1175.81,1374.27 1177.97,1374.27 1180.13,1374.27 1182.29,1374.27 1184.45,1374.27 
  1186.61,1374.27 1188.77,1374.27 1190.92,1374.27 1193.08,1374.27 1195.24,1374.27 1197.4,1374.27 1199.56,1374.27 1201.72,1374.27 1203.88,1374.27 1206.04,1374.27 
  1208.2,1374.27 1210.36,1374.27 1212.52,1374.27 1214.68,1374.27 1216.84,1374.27 1219,1374.27 1221.16,1374.27 1223.32,1374.27 1225.48,1374.27 1227.64,1374.27 
  1229.8,1374.27 1231.96,1374.27 1234.12,1374.27 1236.28,1374.27 1238.43,1374.27 1240.59,1374.27 1242.75,1374.27 1244.91,1374.27 1247.07,1374.27 1249.23,1374.27 
  1251.39,1374.27 1253.55,1374.27 1255.71,1374.27 1257.87,1374.27 1260.03,1374.27 1262.19,1374.27 1264.35,1374.27 1266.51,1374.27 1268.67,1374.27 1270.83,1374.27 
  1272.99,1374.27 1275.15,1374.27 1277.31,1374.27 1279.47,1374.27 1281.63,1374.27 1283.78,1374.27 1285.94,1374.27 1288.1,1374.27 1290.26,1374.27 1292.42,1374.27 
  1294.58,1374.27 1296.74,1374.27 1298.9,1374.27 1301.06,1374.27 1303.22,1374.27 1305.38,1374.27 1307.54,1374.27 1309.7,1374.27 1311.86,1374.27 1314.02,1374.27 
  1316.18,1374.27 1318.34,1374.27 1320.5,1374.27 1322.66,1374.27 1324.82,1374.27 1326.98,1374.27 1329.14,1374.27 1331.29,1374.27 1333.45,1374.27 1335.61,1374.27 
  1337.77,1374.27 1339.93,1374.27 1342.09,1374.27 1344.25,1374.27 1346.41,1374.27 1348.57,1374.27 1350.73,1374.27 1352.89,1374.27 1355.05,1374.27 1357.21,1374.28 
  1359.37,1374.28 1361.53,1374.28 1363.69,1374.28 1365.85,1374.28 1368.01,1374.28 1370.17,1374.28 1372.33,1374.28 1374.49,1374.28 1376.64,1374.28 1378.8,1374.28 
  1380.96,1374.28 1383.12,1374.28 1385.28,1374.28 1387.44,1374.28 1389.6,1374.28 1391.76,1374.28 1393.92,1374.28 1396.08,1374.28 1398.24,1374.28 1400.4,1374.28 
  1402.56,1374.28 1404.72,1374.28 1406.88,1374.28 1409.04,1374.28 1411.2,1374.28 1413.36,1374.28 1415.52,1374.28 1417.68,1374.28 1419.84,1374.28 1422,1374.28 
  1424.15,1374.28 1426.31,1374.28 1428.47,1374.28 1430.63,1374.28 1432.79,1374.28 1434.95,1374.28 1437.11,1374.28 1439.27,1374.28 1441.43,1374.28 1443.59,1374.28 
  1445.75,1374.28 1447.91,1374.28 1450.07,1374.28 1452.23,1374.28 1454.39,1374.28 1456.55,1374.28 1458.71,1374.28 1460.87,1374.28 1463.03,1374.28 1465.19,1374.28 
  1467.35,1374.28 1469.51,1374.28 1471.66,1374.28 1473.82,1374.28 1475.98,1374.28 1478.14,1374.28 1480.3,1374.28 1482.46,1374.28 1484.62,1374.28 1486.78,1374.28 
  1488.94,1374.28 1491.1,1374.28 1493.26,1374.28 1495.42,1374.28 1497.58,1374.28 1499.74,1374.28 1501.9,1374.28 1504.06,1374.28 1506.22,1374.28 1508.38,1374.28 
  1510.54,1374.28 1512.7,1374.28 1514.86,1374.28 1517.01,1374.28 1519.17,1374.28 1521.33,1374.28 1523.49,1374.28 1525.65,1374.28 1527.81,1374.28 1529.97,1374.28 
  1532.13,1374.28 1534.29,1374.28 1536.45,1374.28 1538.61,1374.28 1540.77,1374.28 1542.93,1374.28 1545.09,1374.28 1547.25,1374.28 1549.41,1374.28 1551.57,1374.28 
  1553.73,1374.28 1555.89,1374.28 1558.05,1374.28 1560.21,1374.28 1562.37,1374.28 1564.52,1374.28 1566.68,1374.28 1568.84,1374.28 1571,1374.28 1573.16,1374.28 
  1575.32,1374.28 1577.48,1374.28 1579.64,1374.28 1581.8,1374.28 1583.96,1374.28 1586.12,1374.28 1588.28,1374.28 1590.44,1374.28 1592.6,1374.28 1594.76,1374.28 
  1596.92,1374.28 1599.08,1374.28 1601.24,1374.28 1603.4,1374.28 1605.56,1374.28 1607.72,1374.28 1609.88,1374.28 1612.03,1374.28 1614.19,1374.28 1616.35,1374.28 
  1618.51,1374.28 1620.67,1374.28 1622.83,1374.28 1624.99,1374.28 1627.15,1374.28 1629.31,1374.28 1631.47,1374.28 1633.63,1374.28 1635.79,1374.28 1637.95,1374.28 
  1640.11,1374.28 1642.27,1374.28 1644.43,1374.28 1646.59,1374.28 1648.75,1374.28 1650.91,1374.28 1653.07,1374.28 1655.23,1374.28 1657.38,1374.28 1659.54,1374.28 
  1661.7,1374.28 1663.86,1374.28 1666.02,1374.28 1668.18,1374.28 1670.34,1374.28 1672.5,1374.28 1674.66,1374.28 1676.82,1374.28 1678.98,1374.29 1681.14,1374.29 
  1683.3,1374.29 1685.46,1374.29 1687.62,1374.29 1689.78,1374.29 1691.94,1374.29 1694.1,1374.29 1696.26,1374.29 1698.42,1374.29 1700.58,1374.29 1702.74,1374.29 
  1704.89,1374.29 1707.05,1374.29 1709.21,1374.29 1711.37,1374.29 1713.53,1374.29 1715.69,1374.29 1717.85,1374.29 1720.01,1374.29 1722.17,1374.29 1724.33,1374.29 
  1726.49,1374.29 1728.65,1374.29 1730.81,1374.29 1732.97,1374.29 1735.13,1374.29 1737.29,1374.29 1739.45,1374.29 1741.61,1374.29 1743.77,1374.29 1745.93,1374.29 
  1748.09,1374.29 1750.24,1374.29 1752.4,1374.29 1754.56,1374.29 1756.72,1374.29 1758.88,1374.29 1761.04,1374.29 1763.2,1374.29 1765.36,1374.29 1767.52,1374.29 
  1769.68,1374.29 1771.84,1374.29 1774,1374.29 1776.16,1374.29 1778.32,1374.29 1780.48,1374.29 1782.64,1374.29 1784.8,1374.29 1786.96,1374.29 1789.12,1374.29 
  1791.28,1374.29 1793.44,1374.29 1795.6,1374.29 1797.75,1374.29 1799.91,1374.29 1802.07,1374.29 1804.23,1374.29 1806.39,1374.29 1808.55,1374.29 1810.71,1374.29 
  1812.87,1374.29 1815.03,1374.29 1817.19,1374.29 1819.35,1374.29 1821.51,1374.29 1823.67,1374.29 1825.83,1374.29 1827.99,1374.29 1830.15,1374.29 1832.31,1374.29 
  1834.47,1374.29 1836.63,1374.29 1838.79,1374.29 1840.95,1374.29 1843.11,1374.29 1845.26,1374.29 1847.42,1374.29 1849.58,1374.29 1851.74,1374.29 1853.9,1374.29 
  1856.06,1374.29 1858.22,1374.29 1860.38,1374.29 1862.54,1374.29 1864.7,1374.29 1866.86,1374.29 1869.02,1374.29 1871.18,1374.29 1873.34,1374.29 1875.5,1374.29 
  1877.66,1374.29 1879.82,1374.29 1881.98,1374.29 1884.14,1374.29 1886.3,1374.29 1888.46,1374.29 1890.61,1374.29 1892.77,1374.29 1894.93,1374.29 1897.09,1374.29 
  1899.25,1374.29 1901.41,1374.29 1903.57,1374.29 1905.73,1374.29 1907.89,1374.29 1910.05,1374.29 1912.21,1374.29 1914.37,1374.29 1916.53,1374.29 1918.69,1374.29 
  1920.85,1374.29 1923.01,1374.29 1925.17,1374.29 1927.33,1374.29 1929.49,1374.29 1931.65,1374.29 1933.81,1374.29 1935.97,1374.29 1938.12,1374.29 1940.28,1374.29 
  1942.44,1374.29 1944.6,1374.29 1946.76,1374.29 1948.92,1374.29 1951.08,1374.29 1953.24,1374.29 1955.4,1374.29 1957.56,1374.29 1959.72,1374.29 1961.88,1374.29 
  1964.04,1374.29 1966.2,1374.29 1968.36,1374.29 1970.52,1374.29 1972.68,1374.29 1974.84,1374.29 1977,1374.29 1979.16,1374.29 1981.32,1374.29 1983.47,1374.29 
  1985.63,1374.29 1987.79,1374.29 1989.95,1374.29 1992.11,1374.29 1994.27,1374.29 1996.43,1374.29 1998.59,1374.29 2000.75,1374.29 2002.91,1374.29 2005.07,1374.29 
  2007.23,1374.29 2009.39,1374.29 2011.55,1374.29 2013.71,1374.29 2015.87,1374.29 2018.03,1374.29 2020.19,1374.29 2022.35,1374.29 2024.51,1374.29 2026.67,1374.29 
  2028.83,1374.29 2030.98,1374.29 2033.14,1374.29 2035.3,1374.29 2037.46,1374.29 2039.62,1374.29 2041.78,1374.29 2043.94,1374.29 2046.1,1374.29 2048.26,1374.29 
  2050.42,1374.29 2052.58,1374.29 2054.74,1374.29 2056.9,1374.29 2059.06,1374.29 2061.22,1374.29 2063.38,1374.29 2065.54,1374.29 2067.7,1374.29 2069.86,1374.29 
  2072.02,1374.29 2074.18,1374.29 2076.34,1374.29 2078.49,1374.29 2080.65,1374.29 2082.81,1374.29 2084.97,1374.29 2087.13,1374.29 2089.29,1374.29 2091.45,1374.29 
  2093.61,1374.29 2095.77,1374.29 2097.93,1374.29 2100.09,1374.29 2102.25,1374.29 2104.41,1374.29 2106.57,1374.29 2108.73,1374.29 2110.89,1374.29 2113.05,1374.29 
  2115.21,1374.29 2117.37,1374.29 2119.53,1374.29 2121.69,1374.29 2123.84,1374.29 2126,1374.29 2128.16,1374.29 2130.32,1374.29 2132.48,1374.29 2134.64,1374.29 
  2136.8,1374.29 2138.96,1374.29 2141.12,1374.29 2143.28,1374.29 2145.44,1374.29 2147.6,1374.29 2149.76,1374.29 2151.92,1374.29 2154.08,1374.29 2156.24,1374.29 
  2158.4,1374.29 2160.56,1374.29 2162.72,1374.29 2164.88,1374.29 2167.04,1374.29 2169.2,1374.29 2171.35,1374.29 2173.51,1374.29 2175.67,1374.29 2177.83,1374.29 
  2179.99,1374.29 2182.15,1374.29 2184.31,1374.29 2186.47,1374.29 2188.63,1374.29 2190.79,1374.29 2192.95,1374.29 2195.11,1374.29 2197.27,1374.29 2199.43,1374.29 
  2201.59,1374.29 2203.75,1374.29 2205.91,1374.29 2208.07,1374.29 2210.23,1374.29 2212.39,1374.29 2214.55,1374.29 2216.71,1374.29 2218.86,1374.29 2221.02,1374.29 
  2223.18,1374.29 2225.34,1374.29 2227.5,1374.29 2229.66,1374.29 2231.82,1374.29 2233.98,1374.29 2236.14,1374.29 2238.3,1374.29 2240.46,1374.29 2242.62,1374.29 
  2244.78,1374.29 2246.94,1374.29 2249.1,1374.29 2251.26,1374.29 2253.42,1374.29 2255.58,1374.29 2257.74,1374.29 2259.9,1374.29 2262.06,1374.29 2264.21,1374.29 
  2266.37,1374.29 2268.53,1374.29 2270.69,1374.29 2272.85,1374.29 2275.01,1374.29 2277.17,1374.29 2279.33,1374.29 2281.49,1374.29 2283.65,1374.3 2285.81,1374.3 
  2287.97,1374.3 2290.13,1374.3 2292.29,1374.3 2294.45,1374.3 2296.61,1374.3 2298.77,1374.3 2300.93,1374.3 2303.09,1374.3 2305.25,1374.3 2307.41,1374.3 
  2309.57,1374.3 2311.72,1374.3 2313.88,1374.3 2316.04,1374.3 2318.2,1374.3 2320.36,1374.3 2322.52,1374.3 2324.68,1374.3 2326.84,1374.3 2329,1374.3 
  2331.16,1374.3 2333.32,1374.3 2335.48,1374.3 2337.64,1374.3 2339.8,1374.3 2341.96,1374.3 2344.12,1374.3 2346.28,1374.3 2348.44,1374.3 2350.6,1374.3 
  2352.76,1374.3 
  "/>
<polyline clip-path="url(#clip732)" style="stroke:#e26f46; stroke-width:8; stroke-opacity:1; fill:none" points="
  193.218,1384.24 195.378,1383.98 197.537,1383.39 199.697,1382.53 201.857,1381.5 204.016,1380.34 206.176,1379.08 208.335,1377.76 210.495,1376.36 212.654,1374.94 
  214.814,1373.49 216.973,1372.03 219.133,1370.54 221.292,1369.06 223.452,1367.56 225.611,1366.06 227.771,1364.56 229.931,1363.06 232.09,1361.57 234.25,1360.07 
  236.409,1358.57 238.569,1357.08 240.728,1355.59 242.888,1354.1 245.047,1352.61 247.207,1351.12 249.366,1349.65 251.526,1348.18 253.685,1346.7 255.845,1345.23 
  258.005,1343.76 260.164,1342.3 262.324,1340.85 264.483,1339.4 266.643,1337.95 268.802,1336.51 270.962,1335.06 273.121,1333.61 275.281,1332.18 277.44,1330.77 
  279.6,1329.35 281.759,1327.94 283.919,1326.52 286.079,1325.11 288.238,1323.69 290.398,1322.28 292.557,1320.89 294.717,1319.52 296.876,1318.14 299.036,1316.77 
  301.195,1315.4 303.355,1314.02 305.514,1312.65 307.674,1311.27 309.833,1309.92 311.993,1308.6 314.153,1307.28 316.312,1305.96 318.472,1304.64 320.631,1303.31 
  322.791,1301.99 324.95,1300.67 327.11,1299.35 329.269,1298.07 331.429,1296.81 333.588,1295.56 335.748,1294.3 337.907,1293.05 340.067,1291.8 342.226,1290.54 
  344.386,1289.29 346.546,1288.03 348.705,1286.82 350.865,1285.66 353.024,1284.5 355.184,1283.33 357.343,1282.17 359.503,1281.01 361.662,1279.84 363.822,1278.68 
  365.981,1277.52 368.141,1276.4 370.3,1275.36 372.46,1274.33 374.62,1273.3 376.779,1272.26 378.939,1271.23 381.098,1270.2 383.258,1269.17 385.417,1268.13 
  387.577,1267.15 389.736,1266.34 391.896,1265.53 394.055,1264.72 396.215,1263.91 398.374,1263.1 400.534,1262.3 402.694,1261.49 404.853,1260.68 407.013,1259.9 
  409.172,1259.41 411.332,1258.93 413.491,1258.44 415.651,1257.96 417.81,1257.77 419.97,1257.65 422.129,1257.59 424.289,1257.93 426.448,1258.53 428.608,1259.55 
  430.768,1261.34 432.927,1263.79 435.087,1265.15 437.246,1264.65 439.406,1263.45 441.565,1262.12 443.725,1260.8 445.884,1259.53 448.044,1258.31 450.203,1257.12 
  452.363,1255.97 454.522,1254.82 456.682,1253.68 458.842,1252.54 461.001,1251.36 463.161,1250.18 465.32,1248.95 467.48,1247.71 469.639,1246.44 471.799,1245.15 
  473.958,1243.85 476.118,1242.52 478.277,1241.2 480.437,1239.86 482.596,1238.52 484.756,1237.17 486.916,1235.83 489.075,1234.48 491.235,1233.14 493.394,1231.79 
  495.554,1230.45 497.713,1229.11 499.873,1227.77 502.032,1226.43 504.192,1225.09 506.351,1223.76 508.511,1222.43 510.67,1221.1 512.83,1219.77 514.989,1218.44 
  517.149,1217.11 519.309,1215.79 521.468,1214.46 523.628,1213.14 525.787,1211.82 527.947,1210.49 530.106,1209.17 532.266,1207.85 534.425,1206.53 536.585,1205.21 
  538.744,1203.89 540.904,1202.57 543.063,1201.25 545.223,1199.93 547.383,1198.61 549.542,1197.29 551.702,1195.97 553.861,1194.65 556.021,1193.33 558.18,1192.01 
  560.34,1190.69 562.499,1189.37 564.659,1188.05 566.818,1186.73 568.978,1185.41 571.137,1184.09 573.297,1182.77 575.457,1181.45 577.616,1180.13 579.776,1178.81 
  581.935,1177.49 584.095,1176.17 586.254,1174.85 588.414,1173.52 590.573,1172.2 592.733,1170.88 594.892,1169.56 597.052,1168.24 599.211,1166.92 601.371,1165.6 
  603.531,1164.28 605.69,1162.96 607.85,1161.63 610.009,1160.31 612.169,1158.99 614.328,1157.67 616.488,1156.35 618.647,1155.02 620.807,1153.7 622.966,1152.38 
  625.126,1151.06 627.285,1149.74 629.445,1148.41 631.605,1147.09 633.764,1145.77 635.924,1144.45 638.083,1143.12 640.243,1141.8 642.402,1140.48 644.562,1139.15 
  646.721,1137.83 648.881,1136.51 651.04,1135.18 653.2,1133.86 655.359,1132.54 657.519,1131.21 659.679,1129.89 661.838,1128.57 663.998,1127.24 666.157,1125.92 
  668.317,1124.59 670.476,1123.27 672.636,1121.95 674.795,1120.62 676.955,1119.3 679.114,1117.97 681.274,1116.65 683.433,1115.33 685.593,1114 687.752,1112.68 
  689.912,1111.35 692.072,1110.03 694.231,1108.7 696.391,1107.38 698.55,1106.05 700.71,1104.73 702.869,1103.4 705.029,1102.08 707.188,1100.75 709.348,1099.43 
  711.507,1098.1 713.667,1096.78 715.826,1095.45 717.986,1094.13 720.146,1092.8 722.305,1091.48 724.465,1090.15 726.624,1088.83 728.784,1087.5 730.943,1086.18 
  733.103,1084.85 735.262,1083.53 737.422,1082.2 739.581,1080.87 741.741,1079.55 743.9,1078.22 746.06,1076.89 748.22,1075.57 750.379,1074.24 752.539,1072.92 
  754.698,1071.59 756.858,1070.26 759.017,1068.94 761.177,1067.61 763.336,1066.28 765.496,1064.96 767.655,1063.63 769.815,1062.31 771.974,1060.98 774.134,1059.65 
  776.294,1058.33 778.453,1057 780.613,1055.67 782.772,1054.35 784.932,1053.02 787.091,1051.69 789.251,1050.37 791.41,1049.04 793.57,1047.71 795.729,1046.39 
  797.889,1045.06 800.048,1043.73 802.208,1042.4 804.368,1041.08 806.527,1039.75 808.687,1038.42 810.846,1037.1 813.006,1035.77 815.165,1034.44 817.325,1033.11 
  819.484,1031.79 821.644,1030.46 823.803,1029.13 825.963,1027.8 828.122,1026.48 830.282,1025.15 832.442,1023.82 834.601,1022.5 836.761,1021.17 838.92,1019.84 
  841.08,1018.51 843.239,1017.19 845.399,1015.86 847.558,1014.53 849.718,1013.2 851.877,1011.87 854.037,1010.55 856.196,1009.22 858.356,1007.89 860.515,1006.56 
  862.675,1005.23 864.835,1003.9 866.994,1002.58 869.154,1001.25 871.313,999.92 873.473,998.592 875.632,997.264 877.792,995.936 879.951,994.607 882.111,993.279 
  884.27,991.951 886.43,990.623 888.589,989.295 890.749,987.967 892.909,986.639 895.068,985.311 897.228,983.982 899.387,982.654 901.547,981.326 903.706,979.998 
  905.866,978.67 908.025,977.341 910.185,976.012 912.344,974.683 914.504,973.354 916.663,972.025 918.823,970.696 920.983,969.367 923.142,968.038 925.302,966.709 
  927.461,965.38 929.621,964.051 931.78,962.722 933.94,961.393 936.099,960.064 938.259,958.735 940.418,957.407 942.578,956.078 944.737,954.749 946.897,953.42 
  949.057,952.091 951.216,950.762 953.376,949.433 955.535,948.104 957.695,946.775 959.854,945.446 962.014,944.117 964.173,942.788 966.333,941.459 968.492,940.13 
  970.652,938.801 972.811,937.472 974.971,936.143 977.131,934.814 979.29,933.485 981.45,932.156 983.609,930.826 985.769,929.496 987.928,928.167 990.088,926.837 
  992.247,925.507 994.407,924.178 996.566,922.848 998.726,921.518 1000.89,920.188 1003.04,918.859 1005.2,917.529 1007.36,916.199 1009.52,914.87 1011.68,913.54 
  1013.84,912.21 1016,910.881 1018.16,909.551 1020.32,908.221 1022.48,906.891 1024.64,905.562 1026.8,904.232 1028.96,902.902 1031.12,901.573 1033.28,900.243 
  1035.44,898.913 1037.6,897.583 1039.76,896.254 1041.92,894.924 1044.08,893.594 1046.24,892.265 1048.4,890.935 1050.55,889.605 1052.71,888.275 1054.87,886.946 
  1057.03,885.616 1059.19,884.286 1061.35,882.957 1063.51,881.627 1065.67,880.297 1067.83,878.967 1069.99,877.636 1072.15,876.306 1074.31,874.976 1076.47,873.645 
  1078.63,872.315 1080.79,870.985 1082.95,869.654 1085.11,868.324 1087.27,866.993 1089.43,865.663 1091.59,864.333 1093.75,863.002 1095.91,861.672 1098.06,860.341 
  1100.22,859.011 1102.38,857.681 1104.54,856.35 1106.7,855.02 1108.86,853.689 1111.02,852.359 1113.18,851.029 1115.34,849.698 1117.5,848.368 1119.66,847.037 
  1121.82,845.707 1123.98,844.377 1126.14,843.046 1128.3,841.716 1130.46,840.385 1132.62,839.055 1134.78,837.725 1136.94,836.394 1139.1,835.064 1141.26,833.734 
  1143.41,832.403 1145.57,831.073 1147.73,829.742 1149.89,828.412 1152.05,827.082 1154.21,825.751 1156.37,824.421 1158.53,823.09 1160.69,821.76 1162.85,820.43 
  1165.01,819.099 1167.17,817.768 1169.33,816.437 1171.49,815.106 1173.65,813.775 1175.81,812.444 1177.97,811.113 1180.13,809.782 1182.29,808.451 1184.45,807.12 
  1186.61,805.789 1188.77,804.458 1190.92,803.127 1193.08,801.796 1195.24,800.465 1197.4,799.134 1199.56,797.803 1201.72,796.472 1203.88,795.141 1206.04,793.81 
  1208.2,792.479 1210.36,791.148 1212.52,789.817 1214.68,788.486 1216.84,787.155 1219,785.824 1221.16,784.493 1223.32,783.162 1225.48,781.831 1227.64,780.5 
  1229.8,779.169 1231.96,777.838 1234.12,776.507 1236.28,775.176 1238.43,773.845 1240.59,772.514 1242.75,771.183 1244.91,769.852 1247.07,768.521 1249.23,767.19 
  1251.39,765.859 1253.55,764.528 1255.71,763.197 1257.87,761.866 1260.03,760.535 1262.19,759.204 1264.35,757.872 1266.51,756.541 1268.67,755.21 1270.83,753.879 
  1272.99,752.548 1275.15,751.217 1277.31,749.886 1279.47,748.555 1281.63,747.224 1283.78,745.893 1285.94,744.561 1288.1,743.229 1290.26,741.898 1292.42,740.566 
  1294.58,739.235 1296.74,737.903 1298.9,736.571 1301.06,735.24 1303.22,733.908 1305.38,732.577 1307.54,731.245 1309.7,729.914 1311.86,728.582 1314.02,727.25 
  1316.18,725.919 1318.34,724.587 1320.5,723.256 1322.66,721.924 1324.82,720.593 1326.98,719.261 1329.14,717.929 1331.29,716.598 1333.45,715.266 1335.61,713.935 
  1337.77,712.603 1339.93,711.271 1342.09,709.94 1344.25,708.608 1346.41,707.277 1348.57,705.945 1350.73,704.614 1352.89,703.282 1355.05,701.95 1357.21,700.619 
  1359.37,699.287 1361.53,697.956 1363.69,696.624 1365.85,695.293 1368.01,693.961 1370.17,692.629 1372.33,691.298 1374.49,689.966 1376.64,688.635 1378.8,687.303 
  1380.96,685.971 1383.12,684.64 1385.28,683.308 1387.44,681.977 1389.6,680.645 1391.76,679.314 1393.92,677.982 1396.08,676.65 1398.24,675.319 1400.4,673.987 
  1402.56,672.656 1404.72,671.324 1406.88,669.993 1409.04,668.661 1411.2,667.329 1413.36,665.998 1415.52,664.666 1417.68,663.334 1419.84,662.002 1422,660.67 
  1424.15,659.338 1426.31,658.006 1428.47,656.674 1430.63,655.341 1432.79,654.009 1434.95,652.677 1437.11,651.345 1439.27,650.013 1441.43,648.681 1443.59,647.349 
  1445.75,646.017 1447.91,644.685 1450.07,643.353 1452.23,642.021 1454.39,640.689 1456.55,639.356 1458.71,638.024 1460.87,636.692 1463.03,635.36 1465.19,634.028 
  1467.35,632.696 1469.51,631.364 1471.66,630.032 1473.82,628.7 1475.98,627.368 1478.14,626.036 1480.3,624.703 1482.46,623.371 1484.62,622.039 1486.78,620.707 
  1488.94,619.375 1491.1,618.043 1493.26,616.711 1495.42,615.379 1497.58,614.047 1499.74,612.715 1501.9,611.383 1504.06,610.051 1506.22,608.718 1508.38,607.386 
  1510.54,606.054 1512.7,604.722 1514.86,603.39 1517.01,602.058 1519.17,600.726 1521.33,599.394 1523.49,598.062 1525.65,596.73 1527.81,595.398 1529.97,594.066 
  1532.13,592.733 1534.29,591.401 1536.45,590.069 1538.61,588.737 1540.77,587.405 1542.93,586.073 1545.09,584.741 1547.25,583.409 1549.41,582.077 1551.57,580.745 
  1553.73,579.413 1555.89,578.08 1558.05,576.748 1560.21,575.416 1562.37,574.084 1564.52,572.752 1566.68,571.42 1568.84,570.088 1571,568.756 1573.16,567.424 
  1575.32,566.091 1577.48,564.758 1579.64,563.426 1581.8,562.093 1583.96,560.761 1586.12,559.428 1588.28,558.096 1590.44,556.763 1592.6,555.431 1594.76,554.098 
  1596.92,552.766 1599.08,551.433 1601.24,550.1 1603.4,548.768 1605.56,547.435 1607.72,546.103 1609.88,544.77 1612.03,543.438 1614.19,542.105 1616.35,540.773 
  1618.51,539.44 1620.67,538.108 1622.83,536.775 1624.99,535.443 1627.15,534.11 1629.31,532.777 1631.47,531.445 1633.63,530.112 1635.79,528.78 1637.95,527.447 
  1640.11,526.115 1642.27,524.782 1644.43,523.45 1646.59,522.117 1648.75,520.785 1650.91,519.452 1653.07,518.12 1655.23,516.787 1657.38,515.454 1659.54,514.122 
  1661.7,512.789 1663.86,511.457 1666.02,510.124 1668.18,508.792 1670.34,507.459 1672.5,506.127 1674.66,504.794 1676.82,503.462 1678.98,502.129 1681.14,500.796 
  1683.3,499.464 1685.46,498.131 1687.62,496.799 1689.78,495.466 1691.94,494.134 1694.1,492.801 1696.26,491.469 1698.42,490.136 1700.58,488.804 1702.74,487.471 
  1704.89,486.139 1707.05,484.806 1709.21,483.473 1711.37,482.141 1713.53,480.808 1715.69,479.476 1717.85,478.143 1720.01,476.811 1722.17,475.478 1724.33,474.146 
  1726.49,472.813 1728.65,471.481 1730.81,470.148 1732.97,468.815 1735.13,467.483 1737.29,466.15 1739.45,464.818 1741.61,463.485 1743.77,462.153 1745.93,460.82 
  1748.09,459.488 1750.24,458.155 1752.4,456.823 1754.56,455.49 1756.72,454.157 1758.88,452.824 1761.04,451.491 1763.2,450.158 1765.36,448.826 1767.52,447.493 
  1769.68,446.16 1771.84,444.827 1774,443.494 1776.16,442.161 1778.32,440.828 1780.48,439.495 1782.64,438.162 1784.8,436.829 1786.96,435.496 1789.12,434.163 
  1791.28,432.83 1793.44,431.497 1795.6,430.164 1797.75,428.831 1799.91,427.498 1802.07,426.165 1804.23,424.832 1806.39,423.5 1808.55,422.167 1810.71,420.834 
  1812.87,419.501 1815.03,418.168 1817.19,416.835 1819.35,415.502 1821.51,414.169 1823.67,412.836 1825.83,411.503 1827.99,410.17 1830.15,408.837 1832.31,407.504 
  1834.47,406.171 1836.63,404.838 1838.79,403.505 1840.95,402.172 1843.11,400.839 1845.26,399.506 1847.42,398.173 1849.58,396.841 1851.74,395.508 1853.9,394.175 
  1856.06,392.842 1858.22,391.509 1860.38,390.176 1862.54,388.843 1864.7,387.51 1866.86,386.177 1869.02,384.844 1871.18,383.511 1873.34,382.178 1875.5,380.845 
  1877.66,379.512 1879.82,378.179 1881.98,376.846 1884.14,375.513 1886.3,374.18 1888.46,372.847 1890.61,371.515 1892.77,370.182 1894.93,368.849 1897.09,367.516 
  1899.25,366.183 1901.41,364.85 1903.57,363.517 1905.73,362.184 1907.89,360.851 1910.05,359.518 1912.21,358.185 1914.37,356.852 1916.53,355.519 1918.69,354.186 
  1920.85,352.853 1923.01,351.52 1925.17,350.187 1927.33,348.854 1929.49,347.521 1931.65,346.188 1933.81,344.856 1935.97,343.523 1938.12,342.19 1940.28,340.857 
  1942.44,339.524 1944.6,338.191 1946.76,336.858 1948.92,335.525 1951.08,334.192 1953.24,332.859 1955.4,331.526 1957.56,330.193 1959.72,328.86 1961.88,327.527 
  1964.04,326.194 1966.2,324.861 1968.36,323.528 1970.52,322.195 1972.68,320.862 1974.84,319.529 1977,318.196 1979.16,316.862 1981.32,315.529 1983.47,314.196 
  1985.63,312.862 1987.79,311.529 1989.95,310.196 1992.11,308.863 1994.27,307.529 1996.43,306.196 1998.59,304.863 2000.75,303.529 2002.91,302.196 2005.07,300.863 
  2007.23,299.529 2009.39,298.196 2011.55,296.863 2013.71,295.529 2015.87,294.196 2018.03,292.863 2020.19,291.529 2022.35,290.196 2024.51,288.863 2026.67,287.53 
  2028.83,286.196 2030.98,284.863 2033.14,283.53 2035.3,282.196 2037.46,280.863 2039.62,279.53 2041.78,278.196 2043.94,276.863 2046.1,275.53 2048.26,274.196 
  2050.42,272.863 2052.58,271.53 2054.74,270.196 2056.9,268.863 2059.06,267.53 2061.22,266.197 2063.38,264.863 2065.54,263.53 2067.7,262.197 2069.86,260.863 
  2072.02,259.53 2074.18,258.197 2076.34,256.863 2078.49,255.53 2080.65,254.197 2082.81,252.863 2084.97,251.53 2087.13,250.197 2089.29,248.863 2091.45,247.53 
  2093.61,246.197 2095.77,244.864 2097.93,243.53 2100.09,242.197 2102.25,240.864 2104.41,239.53 2106.57,238.197 2108.73,236.864 2110.89,235.53 2113.05,234.197 
  2115.21,232.864 2117.37,231.53 2119.53,230.197 2121.69,228.864 2123.84,227.53 2126,226.197 2128.16,224.864 2130.32,223.531 2132.48,222.197 2134.64,220.864 
  2136.8,219.531 2138.96,218.197 2141.12,216.864 2143.28,215.531 2145.44,214.197 2147.6,212.864 2149.76,211.531 2151.92,210.197 2154.08,208.864 2156.24,207.531 
  2158.4,206.197 2160.56,204.864 2162.72,203.531 2164.88,202.198 2167.04,200.864 2169.2,199.531 2171.35,198.198 2173.51,196.864 2175.67,195.531 2177.83,194.198 
  2179.99,192.864 2182.15,191.531 2184.31,190.198 2186.47,188.864 2188.63,187.531 2190.79,186.198 2192.95,184.864 2195.11,183.531 2197.27,182.198 2199.43,180.865 
  2201.59,179.531 2203.75,178.198 2205.91,176.865 2208.07,175.531 2210.23,174.198 2212.39,172.865 2214.55,171.531 2216.71,170.198 2218.86,168.865 2221.02,167.531 
  2223.18,166.198 2225.34,164.865 2227.5,163.531 2229.66,162.198 2231.82,160.864 2233.98,159.531 2236.14,158.197 2238.3,156.864 2240.46,155.53 2242.62,154.197 
  2244.78,152.863 2246.94,151.53 2249.1,150.196 2251.26,148.862 2253.42,147.529 2255.58,146.195 2257.74,144.862 2259.9,143.528 2262.06,142.195 2264.21,140.861 
  2266.37,139.528 2268.53,138.194 2270.69,136.86 2272.85,135.527 2275.01,134.193 2277.17,132.86 2279.33,131.526 2281.49,130.193 2283.65,128.859 2285.81,127.526 
  2287.97,126.192 2290.13,124.859 2292.29,123.525 2294.45,122.191 2296.61,120.858 2298.77,119.524 2300.93,118.191 2303.09,116.857 2305.25,115.524 2307.41,114.19 
  2309.57,112.857 2311.72,111.523 2313.88,110.19 2316.04,108.856 2318.2,107.522 2320.36,106.189 2322.52,104.855 2324.68,103.522 2326.84,102.188 2329,100.855 
  2331.16,99.5212 2333.32,98.1876 2335.48,96.8541 2337.64,95.5205 2339.8,94.187 2341.96,92.8534 2344.12,91.5199 2346.28,90.1863 2348.44,88.8528 2350.6,87.5192 
  2352.76,86.1857 
  "/>
<path clip-path="url(#clip730)" d="
M1935.5 274.549 L2280.77 274.549 L2280.77 93.1086 L1935.5 93.1086  Z
  " fill="#ffffff" fill-rule="evenodd" fill-opacity="1"/>
<polyline clip-path="url(#clip730)" style="stroke:#000000; stroke-width:4; stroke-opacity:1; fill:none" points="
  1935.5,274.549 2280.77,274.549 2280.77,93.1086 1935.5,93.1086 1935.5,274.549 
  "/>
<polyline clip-path="url(#clip730)" style="stroke:#009af9; stroke-width:4; stroke-opacity:1; fill:none" points="
  1959.49,153.589 2103.46,153.589 
  "/>
<path clip-path="url(#clip730)" d="M 0 0 M2127.46 180.73 L2127.46 144.943 L2131.72 144.943 L2131.72 161.054 Q2131.72 164.41 2133.31 166.123 Q2134.91 167.836 2138.04 167.836 Q2141.46 167.836 2143.18 165.892 Q2144.91 163.947 2144.91 160.058 L2144.91 144.943 L2149.17 144.943 L2149.17 164.896 Q2149.17 166.285 2149.56 166.957 Q2149.98 167.605 2150.84 167.605 Q2151.05 167.605 2151.42 167.489 Q2151.79 167.35 2152.43 167.072 L2152.43 170.498 Q2151.49 171.031 2150.63 171.285 Q2149.8 171.54 2148.99 171.54 Q2147.39 171.54 2146.44 170.637 Q2145.49 169.734 2145.14 167.883 Q2143.99 169.711 2142.3 170.637 Q2140.63 171.54 2138.36 171.54 Q2136 171.54 2134.33 170.637 Q2132.69 169.734 2131.72 167.929 L2131.72 180.73 L2127.46 180.73 Z" fill="#000000" fill-rule="evenodd" fill-opacity="1" /><path clip-path="url(#clip730)" d="M 0 0 M2156.05 168.322 L2160.77 168.322 L2160.77 154.179 L2155.61 155.128 L2155.61 152.443 L2160.93 151.54 L2164.1 151.54 L2164.1 168.322 L2168.85 168.322 L2168.85 170.869 L2156.05 170.869 L2156.05 168.322 Z" fill="#000000" fill-rule="evenodd" fill-opacity="1" /><path clip-path="url(#clip730)" d="M 0 0 M2182.04 155.197 Q2180.88 153.207 2178.55 153.207 Q2176.21 153.207 2175.05 155.197 Q2173.87 157.188 2173.87 161.17 Q2173.87 165.174 2175.05 167.165 Q2176.21 169.156 2178.55 169.156 Q2180.88 169.156 2182.04 167.165 Q2183.22 165.174 2183.22 161.17 Q2183.22 157.188 2182.04 155.197 M2178.55 151.147 Q2182.27 151.147 2184.24 153.716 Q2186.21 156.285 2186.21 161.17 Q2186.21 166.077 2184.24 168.646 Q2182.27 171.216 2178.55 171.216 Q2174.8 171.216 2172.83 168.646 Q2170.86 166.077 2170.86 161.17 Q2170.86 156.285 2172.83 153.716 Q2174.8 151.147 2178.55 151.147 Z" fill="#000000" fill-rule="evenodd" fill-opacity="1" /><path clip-path="url(#clip730)" d="M 0 0 M2200.91 134.897 Q2197.8 140.221 2196.3 145.429 Q2194.8 150.637 2194.8 155.984 Q2194.8 161.332 2196.3 166.586 Q2197.83 171.818 2200.91 177.119 L2197.2 177.119 Q2193.73 171.679 2191.99 166.424 Q2190.28 161.17 2190.28 155.984 Q2190.28 150.822 2191.99 145.591 Q2193.71 140.36 2197.2 134.897 L2200.91 134.897 Z" fill="#000000" fill-rule="evenodd" fill-opacity="1" /><path clip-path="url(#clip730)" d="M 0 0 M2209.59 137.582 L2209.59 144.943 L2218.36 144.943 L2218.36 148.253 L2209.59 148.253 L2209.59 162.327 Q2209.59 165.498 2210.44 166.401 Q2211.32 167.304 2213.99 167.304 L2218.36 167.304 L2218.36 170.869 L2213.99 170.869 Q2209.05 170.869 2207.18 169.04 Q2205.3 167.188 2205.3 162.327 L2205.3 148.253 L2202.18 148.253 L2202.18 144.943 L2205.3 144.943 L2205.3 137.582 L2209.59 137.582 Z" fill="#000000" fill-rule="evenodd" fill-opacity="1" /><path clip-path="url(#clip730)" d="M 0 0 M2222.16 134.897 L2225.86 134.897 Q2229.33 140.36 2231.05 145.591 Q2232.78 150.822 2232.78 155.984 Q2232.78 161.17 2231.05 166.424 Q2229.33 171.679 2225.86 177.119 L2222.16 177.119 Q2225.24 171.818 2226.74 166.586 Q2228.27 161.332 2228.27 155.984 Q2228.27 150.637 2226.74 145.429 Q2225.24 140.221 2222.16 134.897 Z" fill="#000000" fill-rule="evenodd" fill-opacity="1" /><polyline clip-path="url(#clip730)" style="stroke:#e26f46; stroke-width:4; stroke-opacity:1; fill:none" points="
  1959.49,214.069 2103.46,214.069 
  "/>
<path clip-path="url(#clip730)" d="M 0 0 M2127.46 241.21 L2127.46 205.423 L2131.72 205.423 L2131.72 221.534 Q2131.72 224.89 2133.31 226.603 Q2134.91 228.316 2138.04 228.316 Q2141.46 228.316 2143.18 226.372 Q2144.91 224.427 2144.91 220.538 L2144.91 205.423 L2149.17 205.423 L2149.17 225.376 Q2149.17 226.765 2149.56 227.437 Q2149.98 228.085 2150.84 228.085 Q2151.05 228.085 2151.42 227.969 Q2151.79 227.83 2152.43 227.552 L2152.43 230.978 Q2151.49 231.511 2150.63 231.765 Q2149.8 232.02 2148.99 232.02 Q2147.39 232.02 2146.44 231.117 Q2145.49 230.214 2145.14 228.363 Q2143.99 230.191 2142.3 231.117 Q2140.63 232.02 2138.36 232.02 Q2136 232.02 2134.33 231.117 Q2132.69 230.214 2131.72 228.409 L2131.72 241.21 L2127.46 241.21 Z" fill="#000000" fill-rule="evenodd" fill-opacity="1" /><path clip-path="url(#clip730)" d="M 0 0 M2165.63 215.677 Q2164.47 213.687 2162.13 213.687 Q2159.8 213.687 2158.64 215.677 Q2157.46 217.668 2157.46 221.65 Q2157.46 225.654 2158.64 227.645 Q2159.8 229.636 2162.13 229.636 Q2164.47 229.636 2165.63 227.645 Q2166.81 225.654 2166.81 221.65 Q2166.81 217.668 2165.63 215.677 M2162.13 211.627 Q2165.86 211.627 2167.83 214.196 Q2169.8 216.765 2169.8 221.65 Q2169.8 226.557 2167.83 229.126 Q2165.86 231.696 2162.13 231.696 Q2158.38 231.696 2156.42 229.126 Q2154.45 226.557 2154.45 221.65 Q2154.45 216.765 2156.42 214.196 Q2158.38 211.627 2162.13 211.627 Z" fill="#000000" fill-rule="evenodd" fill-opacity="1" /><path clip-path="url(#clip730)" d="M 0 0 M2173.41 228.802 L2178.13 228.802 L2178.13 214.659 L2172.97 215.608 L2172.97 212.923 L2178.29 212.02 L2181.46 212.02 L2181.46 228.802 L2186.21 228.802 L2186.21 231.349 L2173.41 231.349 L2173.41 228.802 Z" fill="#000000" fill-rule="evenodd" fill-opacity="1" /><path clip-path="url(#clip730)" d="M 0 0 M2200.91 195.377 Q2197.8 200.701 2196.3 205.909 Q2194.8 211.117 2194.8 216.464 Q2194.8 221.812 2196.3 227.066 Q2197.83 232.298 2200.91 237.599 L2197.2 237.599 Q2193.73 232.159 2191.99 226.904 Q2190.28 221.65 2190.28 216.464 Q2190.28 211.302 2191.99 206.071 Q2193.71 200.84 2197.2 195.377 L2200.91 195.377 Z" fill="#000000" fill-rule="evenodd" fill-opacity="1" /><path clip-path="url(#clip730)" d="M 0 0 M2209.59 198.062 L2209.59 205.423 L2218.36 205.423 L2218.36 208.733 L2209.59 208.733 L2209.59 222.807 Q2209.59 225.978 2210.44 226.881 Q2211.32 227.784 2213.99 227.784 L2218.36 227.784 L2218.36 231.349 L2213.99 231.349 Q2209.05 231.349 2207.18 229.52 Q2205.3 227.668 2205.3 222.807 L2205.3 208.733 L2202.18 208.733 L2202.18 205.423 L2205.3 205.423 L2205.3 198.062 L2209.59 198.062 Z" fill="#000000" fill-rule="evenodd" fill-opacity="1" /><path clip-path="url(#clip730)" d="M 0 0 M2222.16 195.377 L2225.86 195.377 Q2229.33 200.84 2231.05 206.071 Q2232.78 211.302 2232.78 216.464 Q2232.78 221.65 2231.05 226.904 Q2229.33 232.159 2225.86 237.599 L2222.16 237.599 Q2225.24 232.298 2226.74 227.066 Q2228.27 221.812 2228.27 216.464 Q2228.27 211.117 2226.74 205.909 Q2225.24 200.701 2222.16 195.377 Z" fill="#000000" fill-rule="evenodd" fill-opacity="1" /></svg>
