<?xml version="1.0" encoding="utf-8"?>
<svg xmlns="http://www.w3.org/2000/svg" xmlns:xlink="http://www.w3.org/1999/xlink" width="600" height="400" viewBox="0 0 2400 1600">
<defs>
  <clipPath id="clip550">
    <rect x="0" y="0" width="2400" height="1600"/>
  </clipPath>
</defs>
<path clip-path="url(#clip550)" d="
M0 1600 L2400 1600 L2400 0 L0 0  Z
  " fill="#ffffff" fill-rule="evenodd" fill-opacity="1"/>
<defs>
  <clipPath id="clip551">
    <rect x="480" y="0" width="1681" height="1600"/>
  </clipPath>
</defs>
<path clip-path="url(#clip550)" d="
M209.441 1418.86 L2352.76 1418.86 L2352.76 47.2441 L209.441 47.2441  Z
  " fill="#ffffff" fill-rule="evenodd" fill-opacity="1"/>
<defs>
  <clipPath id="clip552">
    <rect x="209" y="47" width="2144" height="1373"/>
  </clipPath>
</defs>
<polyline clip-path="url(#clip552)" style="stroke:#000000; stroke-linecap:butt; stroke-linejoin:round; stroke-width:2; stroke-opacity:0.1; fill:none" points="
  209.441,1418.86 209.441,47.2441 
  "/>
<polyline clip-path="url(#clip552)" style="stroke:#000000; stroke-linecap:butt; stroke-linejoin:round; stroke-width:2; stroke-opacity:0.1; fill:none" points="
  923.879,1418.86 923.879,47.2441 
  "/>
<polyline clip-path="url(#clip552)" style="stroke:#000000; stroke-linecap:butt; stroke-linejoin:round; stroke-width:2; stroke-opacity:0.1; fill:none" points="
  1638.32,1418.86 1638.32,47.2441 
  "/>
<polyline clip-path="url(#clip552)" style="stroke:#000000; stroke-linecap:butt; stroke-linejoin:round; stroke-width:2; stroke-opacity:0.1; fill:none" points="
  2352.76,1418.86 2352.76,47.2441 
  "/>
<polyline clip-path="url(#clip550)" style="stroke:#000000; stroke-linecap:butt; stroke-linejoin:round; stroke-width:4; stroke-opacity:1; fill:none" points="
  209.441,1418.86 2352.76,1418.86 
  "/>
<polyline clip-path="url(#clip550)" style="stroke:#000000; stroke-linecap:butt; stroke-linejoin:round; stroke-width:4; stroke-opacity:1; fill:none" points="
  209.441,1418.86 209.441,1402.4 
  "/>
<polyline clip-path="url(#clip550)" style="stroke:#000000; stroke-linecap:butt; stroke-linejoin:round; stroke-width:4; stroke-opacity:1; fill:none" points="
  923.879,1418.86 923.879,1402.4 
  "/>
<polyline clip-path="url(#clip550)" style="stroke:#000000; stroke-linecap:butt; stroke-linejoin:round; stroke-width:4; stroke-opacity:1; fill:none" points="
  1638.32,1418.86 1638.32,1402.4 
  "/>
<polyline clip-path="url(#clip550)" style="stroke:#000000; stroke-linecap:butt; stroke-linejoin:round; stroke-width:4; stroke-opacity:1; fill:none" points="
  2352.76,1418.86 2352.76,1402.4 
  "/>
<path clip-path="url(#clip550)" d="M209.441 1448.05 Q205.83 1448.05 204.001 1451.62 Q202.196 1455.16 202.196 1462.29 Q202.196 1469.39 204.001 1472.96 Q205.83 1476.5 209.441 1476.5 Q213.075 1476.5 214.881 1472.96 Q216.709 1469.39 216.709 1462.29 Q216.709 1455.16 214.881 1451.62 Q213.075 1448.05 209.441 1448.05 M209.441 1444.35 Q215.251 1444.35 218.307 1448.95 Q221.385 1453.54 221.385 1462.29 Q221.385 1471.01 218.307 1475.62 Q215.251 1480.2 209.441 1480.2 Q203.631 1480.2 200.552 1475.62 Q197.497 1471.01 197.497 1462.29 Q197.497 1453.54 200.552 1448.95 Q203.631 1444.35 209.441 1444.35 Z" fill="#000000" fill-rule="evenodd" fill-opacity="1" /><path clip-path="url(#clip550)" d="M914.157 1444.97 L932.513 1444.97 L932.513 1448.91 L918.439 1448.91 L918.439 1457.38 Q919.458 1457.03 920.477 1456.87 Q921.495 1456.68 922.514 1456.68 Q928.301 1456.68 931.68 1459.86 Q935.06 1463.03 935.06 1468.44 Q935.06 1474.02 931.588 1477.12 Q928.115 1480.2 921.796 1480.2 Q919.62 1480.2 917.352 1479.83 Q915.106 1479.46 912.699 1478.72 L912.699 1474.02 Q914.782 1475.16 917.004 1475.71 Q919.227 1476.27 921.703 1476.27 Q925.708 1476.27 928.046 1474.16 Q930.384 1472.06 930.384 1468.44 Q930.384 1464.83 928.046 1462.73 Q925.708 1460.62 921.703 1460.62 Q919.828 1460.62 917.953 1461.04 Q916.102 1461.45 914.157 1462.33 L914.157 1444.97 Z" fill="#000000" fill-rule="evenodd" fill-opacity="1" /><path clip-path="url(#clip550)" d="M1613.01 1475.6 L1620.64 1475.6 L1620.64 1449.23 L1612.33 1450.9 L1612.33 1446.64 L1620.6 1444.97 L1625.27 1444.97 L1625.27 1475.6 L1632.91 1475.6 L1632.91 1479.53 L1613.01 1479.53 L1613.01 1475.6 Z" fill="#000000" fill-rule="evenodd" fill-opacity="1" /><path clip-path="url(#clip550)" d="M1652.36 1448.05 Q1648.75 1448.05 1646.92 1451.62 Q1645.11 1455.16 1645.11 1462.29 Q1645.11 1469.39 1646.92 1472.96 Q1648.75 1476.5 1652.36 1476.5 Q1655.99 1476.5 1657.8 1472.96 Q1659.63 1469.39 1659.63 1462.29 Q1659.63 1455.16 1657.8 1451.62 Q1655.99 1448.05 1652.36 1448.05 M1652.36 1444.35 Q1658.17 1444.35 1661.22 1448.95 Q1664.3 1453.54 1664.3 1462.29 Q1664.3 1471.01 1661.22 1475.62 Q1658.17 1480.2 1652.36 1480.2 Q1646.55 1480.2 1643.47 1475.62 Q1640.41 1471.01 1640.41 1462.29 Q1640.41 1453.54 1643.47 1448.95 Q1646.55 1444.35 1652.36 1444.35 Z" fill="#000000" fill-rule="evenodd" fill-opacity="1" /><path clip-path="url(#clip550)" d="M2327.94 1475.6 L2335.58 1475.6 L2335.58 1449.23 L2327.27 1450.9 L2327.27 1446.64 L2335.53 1444.97 L2340.21 1444.97 L2340.21 1475.6 L2347.85 1475.6 L2347.85 1479.53 L2327.94 1479.53 L2327.94 1475.6 Z" fill="#000000" fill-rule="evenodd" fill-opacity="1" /><path clip-path="url(#clip550)" d="M2357.34 1444.97 L2375.7 1444.97 L2375.7 1448.91 L2361.62 1448.91 L2361.62 1457.38 Q2362.64 1457.03 2363.66 1456.87 Q2364.68 1456.68 2365.7 1456.68 Q2371.48 1456.68 2374.86 1459.86 Q2378.24 1463.03 2378.24 1468.44 Q2378.24 1474.02 2374.77 1477.12 Q2371.3 1480.2 2364.98 1480.2 Q2362.8 1480.2 2360.53 1479.83 Q2358.29 1479.46 2355.88 1478.72 L2355.88 1474.02 Q2357.96 1475.16 2360.19 1475.71 Q2362.41 1476.27 2364.89 1476.27 Q2368.89 1476.27 2371.23 1474.16 Q2373.57 1472.06 2373.57 1468.44 Q2373.57 1464.83 2371.23 1462.73 Q2368.89 1460.62 2364.89 1460.62 Q2363.01 1460.62 2361.14 1461.04 Q2359.28 1461.45 2357.34 1462.33 L2357.34 1444.97 Z" fill="#000000" fill-rule="evenodd" fill-opacity="1" /><path clip-path="url(#clip550)" d="M1214.73 1518.98 L1214.73 1530.02 L1227.89 1530.02 L1227.89 1534.98 L1214.73 1534.98 L1214.73 1556.1 Q1214.73 1560.85 1216.01 1562.21 Q1217.33 1563.56 1221.32 1563.56 L1227.89 1563.56 L1227.89 1568.91 L1221.32 1568.91 Q1213.93 1568.91 1211.12 1566.16 Q1208.3 1563.39 1208.3 1556.1 L1208.3 1534.98 L1203.62 1534.98 L1203.62 1530.02 L1208.3 1530.02 L1208.3 1518.98 L1214.73 1518.98 Z" fill="#000000" fill-rule="evenodd" fill-opacity="1" /><path clip-path="url(#clip550)" d="M1236.29 1530.02 L1242.68 1530.02 L1242.68 1568.91 L1236.29 1568.91 L1236.29 1530.02 M1236.29 1514.88 L1242.68 1514.88 L1242.68 1522.97 L1236.29 1522.97 L1236.29 1514.88 Z" fill="#000000" fill-rule="evenodd" fill-opacity="1" /><path clip-path="url(#clip550)" d="M1286.32 1537.48 Q1288.72 1533.18 1292.05 1531.13 Q1295.39 1529.08 1299.9 1529.08 Q1305.98 1529.08 1309.28 1533.35 Q1312.57 1537.59 1312.57 1545.44 L1312.57 1568.91 L1306.15 1568.91 L1306.15 1545.64 Q1306.15 1540.05 1304.17 1537.35 Q1302.19 1534.64 1298.13 1534.64 Q1293.16 1534.64 1290.28 1537.94 Q1287.4 1541.23 1287.4 1546.93 L1287.4 1568.91 L1280.98 1568.91 L1280.98 1545.64 Q1280.98 1540.02 1279 1537.35 Q1277.02 1534.64 1272.89 1534.64 Q1267.99 1534.64 1265.11 1537.97 Q1262.23 1541.27 1262.23 1546.93 L1262.23 1568.91 L1255.8 1568.91 L1255.8 1530.02 L1262.23 1530.02 L1262.23 1536.06 Q1264.41 1532.48 1267.47 1530.78 Q1270.53 1529.08 1274.73 1529.08 Q1278.96 1529.08 1281.91 1531.23 Q1284.9 1533.39 1286.32 1537.48 Z" fill="#000000" fill-rule="evenodd" fill-opacity="1" /><path clip-path="url(#clip550)" d="M1358.58 1547.87 L1358.58 1550.99 L1329.21 1550.99 Q1329.62 1557.59 1333.16 1561.06 Q1336.74 1564.5 1343.09 1564.5 Q1346.78 1564.5 1350.21 1563.6 Q1353.68 1562.69 1357.09 1560.89 L1357.09 1566.93 Q1353.65 1568.39 1350.04 1569.15 Q1346.43 1569.91 1342.71 1569.91 Q1333.41 1569.91 1327.96 1564.5 Q1322.54 1559.08 1322.54 1549.85 Q1322.54 1540.3 1327.68 1534.71 Q1332.85 1529.08 1341.6 1529.08 Q1349.45 1529.08 1354 1534.15 Q1358.58 1539.19 1358.58 1547.87 M1352.19 1545.99 Q1352.12 1540.75 1349.24 1537.62 Q1346.39 1534.5 1341.67 1534.5 Q1336.32 1534.5 1333.09 1537.52 Q1329.9 1540.54 1329.41 1546.03 L1352.19 1545.99 Z" fill="#000000" fill-rule="evenodd" fill-opacity="1" /><polyline clip-path="url(#clip552)" style="stroke:#000000; stroke-linecap:butt; stroke-linejoin:round; stroke-width:2; stroke-opacity:0.1; fill:none" points="
  209.441,1380.07 2352.76,1380.07 
  "/>
<polyline clip-path="url(#clip552)" style="stroke:#000000; stroke-linecap:butt; stroke-linejoin:round; stroke-width:2; stroke-opacity:0.1; fill:none" points="
  209.441,1121.09 2352.76,1121.09 
  "/>
<polyline clip-path="url(#clip552)" style="stroke:#000000; stroke-linecap:butt; stroke-linejoin:round; stroke-width:2; stroke-opacity:0.1; fill:none" points="
  209.441,862.121 2352.76,862.121 
  "/>
<polyline clip-path="url(#clip552)" style="stroke:#000000; stroke-linecap:butt; stroke-linejoin:round; stroke-width:2; stroke-opacity:0.1; fill:none" points="
  209.441,603.149 2352.76,603.149 
  "/>
<polyline clip-path="url(#clip552)" style="stroke:#000000; stroke-linecap:butt; stroke-linejoin:round; stroke-width:2; stroke-opacity:0.1; fill:none" points="
  209.441,344.176 2352.76,344.176 
  "/>
<polyline clip-path="url(#clip552)" style="stroke:#000000; stroke-linecap:butt; stroke-linejoin:round; stroke-width:2; stroke-opacity:0.1; fill:none" points="
  209.441,85.2036 2352.76,85.2036 
  "/>
<polyline clip-path="url(#clip550)" style="stroke:#000000; stroke-linecap:butt; stroke-linejoin:round; stroke-width:4; stroke-opacity:1; fill:none" points="
  209.441,1418.86 209.441,47.2441 
  "/>
<polyline clip-path="url(#clip550)" style="stroke:#000000; stroke-linecap:butt; stroke-linejoin:round; stroke-width:4; stroke-opacity:1; fill:none" points="
  209.441,1380.07 235.161,1380.07 
  "/>
<polyline clip-path="url(#clip550)" style="stroke:#000000; stroke-linecap:butt; stroke-linejoin:round; stroke-width:4; stroke-opacity:1; fill:none" points="
  209.441,1121.09 235.161,1121.09 
  "/>
<polyline clip-path="url(#clip550)" style="stroke:#000000; stroke-linecap:butt; stroke-linejoin:round; stroke-width:4; stroke-opacity:1; fill:none" points="
  209.441,862.121 235.161,862.121 
  "/>
<polyline clip-path="url(#clip550)" style="stroke:#000000; stroke-linecap:butt; stroke-linejoin:round; stroke-width:4; stroke-opacity:1; fill:none" points="
  209.441,603.149 235.161,603.149 
  "/>
<polyline clip-path="url(#clip550)" style="stroke:#000000; stroke-linecap:butt; stroke-linejoin:round; stroke-width:4; stroke-opacity:1; fill:none" points="
  209.441,344.176 235.161,344.176 
  "/>
<polyline clip-path="url(#clip550)" style="stroke:#000000; stroke-linecap:butt; stroke-linejoin:round; stroke-width:4; stroke-opacity:1; fill:none" points="
  209.441,85.2036 235.161,85.2036 
  "/>
<path clip-path="url(#clip550)" d="M161.497 1365.87 Q157.886 1365.87 156.057 1369.43 Q154.251 1372.97 154.251 1380.1 Q154.251 1387.21 156.057 1390.77 Q157.886 1394.31 161.497 1394.31 Q165.131 1394.31 166.936 1390.77 Q168.765 1387.21 168.765 1380.1 Q168.765 1372.97 166.936 1369.43 Q165.131 1365.87 161.497 1365.87 M161.497 1362.16 Q167.307 1362.16 170.362 1366.77 Q173.441 1371.35 173.441 1380.1 Q173.441 1388.83 170.362 1393.43 Q167.307 1398.02 161.497 1398.02 Q155.686 1398.02 152.608 1393.43 Q149.552 1388.83 149.552 1380.1 Q149.552 1371.35 152.608 1366.77 Q155.686 1362.16 161.497 1362.16 Z" fill="#000000" fill-rule="evenodd" fill-opacity="1" /><path clip-path="url(#clip550)" d="M122.145 1134.44 L129.784 1134.44 L129.784 1108.07 L121.474 1109.74 L121.474 1105.48 L129.738 1103.81 L134.413 1103.81 L134.413 1134.44 L142.052 1134.44 L142.052 1138.37 L122.145 1138.37 L122.145 1134.44 Z" fill="#000000" fill-rule="evenodd" fill-opacity="1" /><path clip-path="url(#clip550)" d="M161.497 1106.89 Q157.886 1106.89 156.057 1110.46 Q154.251 1114 154.251 1121.13 Q154.251 1128.24 156.057 1131.8 Q157.886 1135.34 161.497 1135.34 Q165.131 1135.34 166.936 1131.8 Q168.765 1128.24 168.765 1121.13 Q168.765 1114 166.936 1110.46 Q165.131 1106.89 161.497 1106.89 M161.497 1103.19 Q167.307 1103.19 170.362 1107.8 Q173.441 1112.38 173.441 1121.13 Q173.441 1129.86 170.362 1134.46 Q167.307 1139.05 161.497 1139.05 Q155.686 1139.05 152.608 1134.46 Q149.552 1129.86 149.552 1121.13 Q149.552 1112.38 152.608 1107.8 Q155.686 1103.19 161.497 1103.19 Z" fill="#000000" fill-rule="evenodd" fill-opacity="1" /><path clip-path="url(#clip550)" d="M125.363 875.466 L141.682 875.466 L141.682 879.401 L119.738 879.401 L119.738 875.466 Q122.4 872.712 126.983 868.082 Q131.589 863.429 132.77 862.087 Q135.015 859.563 135.895 857.827 Q136.798 856.068 136.798 854.378 Q136.798 851.624 134.853 849.888 Q132.932 848.151 129.83 848.151 Q127.631 848.151 125.177 848.915 Q122.747 849.679 119.969 851.23 L119.969 846.508 Q122.793 845.374 125.247 844.795 Q127.7 844.216 129.738 844.216 Q135.108 844.216 138.302 846.901 Q141.497 849.587 141.497 854.077 Q141.497 856.207 140.687 858.128 Q139.899 860.026 137.793 862.619 Q137.214 863.29 134.112 866.508 Q131.011 869.702 125.363 875.466 Z" fill="#000000" fill-rule="evenodd" fill-opacity="1" /><path clip-path="url(#clip550)" d="M161.497 847.92 Q157.886 847.92 156.057 851.485 Q154.251 855.026 154.251 862.156 Q154.251 869.262 156.057 872.827 Q157.886 876.369 161.497 876.369 Q165.131 876.369 166.936 872.827 Q168.765 869.262 168.765 862.156 Q168.765 855.026 166.936 851.485 Q165.131 847.92 161.497 847.92 M161.497 844.216 Q167.307 844.216 170.362 848.823 Q173.441 853.406 173.441 862.156 Q173.441 870.883 170.362 875.489 Q167.307 880.073 161.497 880.073 Q155.686 880.073 152.608 875.489 Q149.552 870.883 149.552 862.156 Q149.552 853.406 152.608 848.823 Q155.686 844.216 161.497 844.216 Z" fill="#000000" fill-rule="evenodd" fill-opacity="1" /><path clip-path="url(#clip550)" d="M135.501 601.795 Q138.858 602.512 140.733 604.781 Q142.631 607.049 142.631 610.382 Q142.631 615.498 139.112 618.299 Q135.594 621.1 129.113 621.1 Q126.937 621.1 124.622 620.66 Q122.33 620.244 119.876 619.387 L119.876 614.873 Q121.821 616.007 124.136 616.586 Q126.45 617.165 128.974 617.165 Q133.372 617.165 135.663 615.429 Q137.978 613.693 137.978 610.382 Q137.978 607.327 135.825 605.614 Q133.696 603.878 129.876 603.878 L125.849 603.878 L125.849 600.035 L130.062 600.035 Q133.511 600.035 135.339 598.67 Q137.168 597.281 137.168 594.688 Q137.168 592.026 135.27 590.614 Q133.395 589.179 129.876 589.179 Q127.955 589.179 125.756 589.596 Q123.557 590.012 120.918 590.892 L120.918 586.725 Q123.58 585.984 125.895 585.614 Q128.233 585.244 130.293 585.244 Q135.617 585.244 138.719 587.674 Q141.821 590.082 141.821 594.202 Q141.821 597.072 140.177 599.063 Q138.534 601.031 135.501 601.795 Z" fill="#000000" fill-rule="evenodd" fill-opacity="1" /><path clip-path="url(#clip550)" d="M161.497 588.947 Q157.886 588.947 156.057 592.512 Q154.251 596.054 154.251 603.183 Q154.251 610.29 156.057 613.855 Q157.886 617.396 161.497 617.396 Q165.131 617.396 166.936 613.855 Q168.765 610.29 168.765 603.183 Q168.765 596.054 166.936 592.512 Q165.131 588.947 161.497 588.947 M161.497 585.244 Q167.307 585.244 170.362 589.85 Q173.441 594.434 173.441 603.183 Q173.441 611.91 170.362 616.517 Q167.307 621.1 161.497 621.1 Q155.686 621.1 152.608 616.517 Q149.552 611.91 149.552 603.183 Q149.552 594.434 152.608 589.85 Q155.686 585.244 161.497 585.244 Z" fill="#000000" fill-rule="evenodd" fill-opacity="1" /><path clip-path="url(#clip550)" d="M134.182 330.97 L122.376 349.419 L134.182 349.419 L134.182 330.97 M132.955 326.896 L138.835 326.896 L138.835 349.419 L143.765 349.419 L143.765 353.308 L138.835 353.308 L138.835 361.456 L134.182 361.456 L134.182 353.308 L118.58 353.308 L118.58 348.794 L132.955 326.896 Z" fill="#000000" fill-rule="evenodd" fill-opacity="1" /><path clip-path="url(#clip550)" d="M161.497 329.975 Q157.886 329.975 156.057 333.54 Q154.251 337.081 154.251 344.211 Q154.251 351.317 156.057 354.882 Q157.886 358.424 161.497 358.424 Q165.131 358.424 166.936 354.882 Q168.765 351.317 168.765 344.211 Q168.765 337.081 166.936 333.54 Q165.131 329.975 161.497 329.975 M161.497 326.271 Q167.307 326.271 170.362 330.878 Q173.441 335.461 173.441 344.211 Q173.441 352.938 170.362 357.544 Q167.307 362.127 161.497 362.127 Q155.686 362.127 152.608 357.544 Q149.552 352.938 149.552 344.211 Q149.552 335.461 152.608 330.878 Q155.686 326.271 161.497 326.271 Z" fill="#000000" fill-rule="evenodd" fill-opacity="1" /><path clip-path="url(#clip550)" d="M121.381 67.9236 L139.737 67.9236 L139.737 71.8588 L125.663 71.8588 L125.663 80.3309 Q126.682 79.9837 127.7 79.8217 Q128.719 79.6365 129.738 79.6365 Q135.525 79.6365 138.904 82.8078 Q142.284 85.9791 142.284 91.3957 Q142.284 96.9744 138.812 100.076 Q135.339 103.155 129.02 103.155 Q126.844 103.155 124.575 102.785 Q122.33 102.414 119.923 101.673 L119.923 96.9744 Q122.006 98.1086 124.228 98.6642 Q126.45 99.2197 128.927 99.2197 Q132.932 99.2197 135.27 97.1133 Q137.608 95.0068 137.608 91.3957 Q137.608 87.7846 135.27 85.6781 Q132.932 83.5717 128.927 83.5717 Q127.052 83.5717 125.177 83.9883 Q123.326 84.405 121.381 85.2846 L121.381 67.9236 Z" fill="#000000" fill-rule="evenodd" fill-opacity="1" /><path clip-path="url(#clip550)" d="M161.497 71.0023 Q157.886 71.0023 156.057 74.5671 Q154.251 78.1087 154.251 85.2383 Q154.251 92.3448 156.057 95.9096 Q157.886 99.4512 161.497 99.4512 Q165.131 99.4512 166.936 95.9096 Q168.765 92.3448 168.765 85.2383 Q168.765 78.1087 166.936 74.5671 Q165.131 71.0023 161.497 71.0023 M161.497 67.2986 Q167.307 67.2986 170.362 71.9051 Q173.441 76.4884 173.441 85.2383 Q173.441 93.9651 170.362 98.5716 Q167.307 103.155 161.497 103.155 Q155.686 103.155 152.608 98.5716 Q149.552 93.9651 149.552 85.2383 Q149.552 76.4884 152.608 71.9051 Q155.686 67.2986 161.497 67.2986 Z" fill="#000000" fill-rule="evenodd" fill-opacity="1" /><path clip-path="url(#clip550)" d="M44.7366 777.01 L13.0701 767.218 L13.0701 761.316 L44.7366 771.107 L76.4031 761.316 L76.4031 767.218 L44.7366 777.01 Z" fill="#000000" fill-rule="evenodd" fill-opacity="1" /><path clip-path="url(#clip550)" d="M61.1949 742.739 L81.8197 742.739 L81.8197 749.163 L28.1395 749.163 L28.1395 742.739 L34.0422 742.739 Q30.57 740.726 28.9034 737.67 Q27.202 734.58 27.202 730.309 Q27.202 723.226 32.827 718.816 Q38.4519 714.372 47.6185 714.372 Q56.7852 714.372 62.4101 718.816 Q68.0351 723.226 68.0351 730.309 Q68.0351 734.58 66.3684 737.67 Q64.6671 740.726 61.1949 742.739 M47.6185 721.003 Q40.57 721.003 36.5769 723.92 Q32.5492 726.802 32.5492 731.871 Q32.5492 736.941 36.5769 739.857 Q40.57 742.739 47.6185 742.739 Q54.6671 742.739 58.6949 739.857 Q62.6879 736.941 62.6879 731.871 Q62.6879 726.802 58.6949 723.92 Q54.6671 721.003 47.6185 721.003 Z" fill="#000000" fill-rule="evenodd" fill-opacity="1" /><path clip-path="url(#clip550)" d="M44.7366 689.094 L76.4031 698.885 L76.4031 704.788 L44.7366 694.997 L13.0701 704.788 L13.0701 698.885 L44.7366 689.094 Z" fill="#000000" fill-rule="evenodd" fill-opacity="1" /><polyline clip-path="url(#clip552)" style="stroke:#009af9; stroke-linecap:butt; stroke-linejoin:round; stroke-width:4; stroke-opacity:1; fill:none" points="
  209.441,1380.04 223.73,1232.21 238.019,1098.64 252.307,978.147 266.596,869.627 280.885,772.069 295.174,684.535 309.462,606.155 323.751,536.126 338.04,473.727 
  352.329,418.269 366.617,369.137 380.906,325.748 395.195,287.568 409.484,254.103 423.772,224.905 438.061,199.558 452.35,177.687 466.639,158.947 480.928,143.015 
  495.216,129.607 509.505,118.469 523.794,109.346 538.083,102.016 552.371,96.2948 566.66,92.0155 580.949,88.9848 595.238,87.0657 609.526,86.1312 623.815,86.0634 
  638.104,86.7403 652.393,88.0664 666.681,89.9476 680.97,92.3017 695.259,95.0669 709.548,98.1668 723.837,101.537 738.125,105.128 752.414,108.905 766.703,112.818 
  780.992,116.827 795.28,120.907 809.569,125.032 823.858,129.175 838.147,133.316 852.435,137.439 866.724,141.527 881.013,145.567 895.302,149.546 909.591,153.457 
  923.879,157.291 938.168,161.037 952.457,164.69 966.746,168.251 981.034,171.71 995.323,175.065 1009.61,178.314 1023.9,181.459 1038.19,184.496 1052.48,187.426 
  1066.77,190.251 1081.06,192.972 1095.34,195.588 1109.63,198.096 1123.92,200.504 1138.21,202.815 1152.5,205.034 1166.79,207.165 1181.08,209.211 1195.37,211.156 
  1209.65,213.018 1223.94,214.799 1238.23,216.505 1252.52,218.141 1266.81,219.711 1281.1,221.2 1295.39,222.621 1309.68,223.978 1323.96,225.275 1338.25,226.514 
  1352.54,227.699 1366.83,228.827 1381.12,229.9 1395.41,230.922 1409.7,231.895 1423.99,232.822 1438.27,233.705 1452.56,234.544 1466.85,235.342 1481.14,236.101 
  1495.43,236.822 1509.72,237.507 1524.01,238.157 1538.3,238.774 1552.58,239.36 1566.87,239.914 1581.16,240.44 1595.45,240.939 1609.74,241.413 1624.03,241.863 
  1638.32,242.289 1652.61,242.692 1666.9,243.075 1681.18,243.437 1695.47,243.78 1709.76,244.105 1724.05,244.412 1738.34,244.702 1752.63,244.978 1766.92,245.239 
  1781.21,245.487 1795.49,245.721 1809.78,245.942 1824.07,246.152 1838.36,246.349 1852.65,246.536 1866.94,246.712 1881.23,246.878 1895.52,247.036 1909.8,247.186 
  1924.09,247.328 1938.38,247.462 1952.67,247.589 1966.96,247.708 1981.25,247.821 1995.54,247.926 2009.83,248.025 2024.11,248.117 2038.4,248.205 2052.69,248.289 
  2066.98,248.369 2081.27,248.443 2095.56,248.514 2109.85,248.58 2124.14,248.642 2138.42,248.7 2152.71,248.754 2167,248.804 2181.29,248.851 2195.58,248.897 
  2209.87,248.941 2224.16,248.982 2238.45,249.021 2252.73,249.058 2267.02,249.092 2281.31,249.124 2295.6,249.153 2309.89,249.18 2324.18,249.205 2338.47,249.227 
  2352.76,249.247 
  "/>
<path clip-path="url(#clip550)" d="
M1948.47 196.645 L2281.31 196.645 L2281.31 92.9646 L1948.47 92.9646  Z
  " fill="#ffffff" fill-rule="evenodd" fill-opacity="1"/>
<polyline clip-path="url(#clip550)" style="stroke:#000000; stroke-linecap:butt; stroke-linejoin:round; stroke-width:4; stroke-opacity:1; fill:none" points="
  1948.47,196.645 2281.31,196.645 2281.31,92.9646 1948.47,92.9646 1948.47,196.645 
  "/>
<polyline clip-path="url(#clip550)" style="stroke:#009af9; stroke-linecap:butt; stroke-linejoin:round; stroke-width:4; stroke-opacity:1; fill:none" points="
  1972.28,144.805 2115.17,144.805 
  "/>
<path clip-path="url(#clip550)" d="M2138.98 127.525 L2143.66 127.525 L2143.66 158.149 L2160.49 158.149 L2160.49 162.085 L2138.98 162.085 L2138.98 127.525 Z" fill="#000000" fill-rule="evenodd" fill-opacity="1" /><path clip-path="url(#clip550)" d="M2165.4 127.525 L2172.36 127.525 L2181.18 151.043 L2190.05 127.525 L2197.02 127.525 L2197.02 162.085 L2192.46 162.085 L2192.46 131.738 L2183.54 155.441 L2178.85 155.441 L2169.93 131.738 L2169.93 162.085 L2165.4 162.085 L2165.4 127.525 Z" fill="#000000" fill-rule="evenodd" fill-opacity="1" /><path clip-path="url(#clip550)" d="M2217.85 132.131 L2211.51 149.33 L2224.22 149.33 L2217.85 132.131 M2215.21 127.525 L2220.51 127.525 L2233.68 162.085 L2228.82 162.085 L2225.67 153.219 L2210.1 153.219 L2206.95 162.085 L2202.02 162.085 L2215.21 127.525 Z" fill="#000000" fill-rule="evenodd" fill-opacity="1" /></svg>
